<?xml version="1.0" encoding="utf-8"?>
<!-- Generator: Adobe Illustrator 24.1.2, SVG Export Plug-In . SVG Version: 6.00 Build 0)  -->
<svg version="1.1" id="Warstwa_1" xmlns="http://www.w3.org/2000/svg" xmlns:xlink="http://www.w3.org/1999/xlink" x="0px" y="0px"
	 viewBox="0 0 430 430" style="enable-background:new 0 0 430 430;" xml:space="preserve">
<style type="text/css">
	.st0{fill:#000000;}
	.st1{fill:#9c27b0;}
	.st2{fill:#9c27b0;}
	.st3{fill:none;}
	.st4{fill:none;stroke:#000000;stroke-width:12;stroke-linecap:round;stroke-linejoin:round;stroke-miterlimit:10;}
	.st5{fill:none;stroke:#9c27b0;stroke-width:12;stroke-linecap:round;stroke-linejoin:round;stroke-miterlimit:10;}
	.st6{fill:#08A385;}
</style>
<g>
	<path class="st0" d="M341.09,315.79V68.22c0-3.31-2.69-6-6-6H308.4c-3.31,0-6,2.69-6,6v34.03H174.97c-3.31,0-6,2.69-6,6s2.69,6,6,6
		H302.4v45.66h-17.43c-0.3-9.38-8.01-16.92-17.46-16.92c-9.45,0-17.16,7.54-17.46,16.92h-69.12c-0.3-9.38-8.01-16.92-17.46-16.92
		c-9.45,0-17.15,7.54-17.46,16.92H127.6v-45.66H152c3.31,0,6-2.69,6-6s-2.69-6-6-6h-24.4V68.22c0-3.31-2.69-6-6-6H94.91
		c-3.31,0-6,2.69-6,6v247.57c-14.86,0.84-26.69,13.18-26.69,28.24v17.74c0,3.31,2.69,6,6,6h293.55c3.31,0,6-2.69,6-6v-17.74
		C367.78,328.98,355.95,316.63,341.09,315.79z M314.4,74.22h14.69v241.52H314.4V74.22z M262.03,160.47c0-3.02,2.46-5.49,5.49-5.49
		s5.48,2.46,5.48,5.49v5.42c0,0.01,0,0.01,0,0.02s0,0.01,0,0.02v5.43c0,3.02-2.46,5.49-5.48,5.49s-5.49-2.46-5.49-5.49V160.47z
		 M158,160.47c0-3.02,2.46-5.49,5.49-5.49s5.48,2.46,5.48,5.49v5.42c0,0.01,0,0.01,0,0.02s0,0.01,0,0.02v5.43
		c0,3.02-2.46,5.49-5.48,5.49h0c-3.02,0-5.48-2.46-5.48-5.49V160.47z M146.03,171.91c0.3,9.38,8,16.93,17.46,16.93
		c9.45,0,17.16-7.55,17.46-16.93h69.12c0.3,9.38,8,16.93,17.46,16.93c9.45,0,17.16-7.55,17.46-16.93h17.43v45.66h-17.43
		c-0.3-9.38-8.01-16.92-17.46-16.92c-9.45,0-17.16,7.54-17.46,16.92h-23.07c-3.31,0-6,2.69-6,6s2.69,6,6,6h23.07
		c0.3,9.38,8,16.93,17.46,16.93c9.45,0,17.16-7.55,17.46-16.93h17.43v45.66h-99.9c-3.31,0-6,2.69-6,6s2.69,6,6,6h99.9v28.52H127.6
		v-28.52h51.93c3.31,0,6-2.69,6-6s-2.69-6-6-6H127.6v-45.66h76.42c3.31,0,6-2.69,6-6s-2.69-6-6-6H127.6v-45.66H146.03z M273,223.55
		c0,0.01,0,0.01,0,0.02s0,0.01,0,0.02v5.43c0,3.02-2.46,5.49-5.48,5.49s-5.49-2.46-5.49-5.49v-10.88c0-3.02,2.46-5.49,5.49-5.49
		s5.48,2.46,5.48,5.49V223.55z M100.91,74.22h14.69v241.52h-14.69V74.22z M355.78,355.78H74.22v-11.74
		c0-8.98,7.31-16.29,16.29-16.29h4.39h26.69H308.4h26.69h4.39c8.98,0,16.29,7.31,16.29,16.29V355.78z"/>
	<g>
		<path class="st1" d="M180.97,113.69v-10.88c0-9.64-7.84-17.49-17.49-17.49c-9.64,0-17.48,7.84-17.48,17.49v10.88
			c0,9.64,7.84,17.48,17.49,17.48C173.13,131.18,180.97,123.33,180.97,113.69z M168.97,113.69c0,3.02-2.46,5.48-5.48,5.48h0
			c-3.02,0-5.48-2.46-5.48-5.48v-10.88c0-3.02,2.46-5.49,5.49-5.49s5.48,2.46,5.48,5.49V113.69z"/>
		<path class="st1" d="M215.5,200.65c-9.64,0-17.48,7.84-17.48,17.49v10.88c0,9.64,7.84,17.49,17.48,17.49
			c9.64,0,17.49-7.84,17.49-17.49v-10.88C232.99,208.49,225.14,200.65,215.5,200.65z M220.99,229.01c0,3.02-2.46,5.49-5.49,5.49
			s-5.48-2.46-5.48-5.49v-10.88c0-3.02,2.46-5.49,5.48-5.49s5.49,2.46,5.49,5.49V229.01z"/>
		<path class="st1" d="M191.01,258.31c-9.64,0-17.48,7.84-17.48,17.49v10.88c0,9.64,7.84,17.49,17.48,17.49
			c9.64,0,17.49-7.84,17.49-17.49v-10.88C208.5,266.15,200.66,258.31,191.01,258.31z M196.5,286.67c0,3.02-2.46,5.49-5.49,5.49
			s-5.48-2.46-5.48-5.49v-10.88c0-3.02,2.46-5.49,5.48-5.49s5.49,2.46,5.49,5.49V286.67z"/>
	</g>
</g>
</svg>
