<svg version="1.2" xmlns="http://www.w3.org/2000/svg" viewBox="0 0 1080 1080" width="800" height="800">
	<title>Astronaut-ai</title>
	<defs>
		<clipPath clipPathUnits="userSpaceOnUse" id="cp1">
			<path d="m649.48 508.59q104.62 6.93 139.06 21.4c34.44 14.48 72.13 119.6 98.58 191.7 18.02-11.52 51.77-10.99 63.4-3.43 11.63 7.56 25.09 44.98 24.18 54.36-0.92 9.39-29.88 31.9-61.58 50.4-31.7 18.5-56.1 43.43-84.84 28.41-28.73-15.01-98.18-172.16-124.41-178.86q-26.23-6.7-119.59-7.3z"/>
		</clipPath>
	</defs>
	<style>
		.s0 { fill: #c7dcf9 } 
		.s1 { fill: #e1ecff } 
		.s2 { mix-blend-mode: multiply;fill: #e1ecff } 
		.s3 { opacity: .5;mix-blend-mode: multiply;fill: #e1ecff } 
		.s4 { fill: #1c3177 } 
		.s5 { fill: #ff97c9 } 
		.s6 { fill: #fec272 } 
		.s7 { opacity: .5;mix-blend-mode: soft-light;fill: #ffffff } 
		.s8 { fill: #99adf9 } 
	</style>
	<g id="Layer 3">
		<path id="&lt;Path&gt;" class="s0" d="m490.2 213.9l100.6 176.5-318.2 171.4q-103.1-127.8-96.4-171.4 6.6-43.6 52.1-61.6z"/>
		<path id="&lt;Path&gt;" class="s1" d="m503.2 266.6c61.3-24.6 114.3-3.8 130.7 13q16.3 16.8 48.6 78l-190.2 223.7q-197.4 38.7-247.3-7.5c-1.7-25.5-0.4-93.4 9.9-131.4q10.2-38 43.7-72.3 168.7-52.5 204.6-103.5z"/>
		<path id="&lt;Path&gt;" class="s2" d="m298.6 370.1l204.6-103.5 35.6-9.7q-15 90.4-98.2 122.5-83.1 32.2-156.9 8.5z"/>
		<g id="&lt;Clip Group&gt;" clip-path="url(#cp1)">
			<path id="&lt;Path&gt;" class="s3" d="m682.5 596.5q76 8.3 97 36.6c21 28.3 62.6 201.4 109.2 205.5q0.8 56.1-95.7 76.3l-231.3-257z"/>
			<path id="&lt;Path&gt;" class="s1" d="m649.5 508.6q104.6 6.9 139 21.4c34.5 14.5 72.2 119.6 98.6 191.7 18-11.5 51.8-11 63.4-3.4 11.7 7.5 25.1 44.9 24.2 54.3-0.9 9.4-29.9 31.9-61.6 50.4-31.7 18.5-56.1 43.4-84.8 28.4-28.8-15-98.2-172.1-124.4-178.8q-26.3-6.7-119.6-7.3z"/>
		</g>
		<path id="&lt;Path&gt;" class="s1" d="m414.2 601.1q109.8-25.6 181.3 34.3c75.5 27.7 134.1 82.7 141.6 122.4 7.5 39.7 25.7 185.4 26.7 195 1 9.6 23.6 16.4 39.7 24.6 16 8.2 17.4 21.6 17.1 37-0.4 15.4-27.7 31.8-61.9 34.9-34.3 3.1-70.9-13.7-96.9-41.1-26-27.3-20.5-130.7-46.5-152.2-26-21.5-120.4-18.8-172.4-51.7q-52-32.8-109.5-153.2z"/>
		<path id="&lt;Path&gt;" class="s2" d="m333.4 651.1l95.6-68.4q34.9 17.8 46.2 78-59.2 26-125.1 22.6z"/>
		<path id="&lt;Path&gt;" class="s1" d="m447.5 354.8c-107.8 60.3-208.7-3.9-238.1-45.8-28.1-40-61.3-125.9 5.4-208.7 66.8-82.8 174.9-73.4 226.5-45.8 125.2 67 113.9 240.1 6.2 300.3z"/>
		<g id="&lt;Group&gt;">
			<path id="&lt;Path&gt;" class="s4" d="m432.4 105.1c45.9 11 75.6 75.3 60.2 136.9-15.4 61.5-68.4 102.9-127.9 103.3-59.5 0.3-118.7-40.4-118.4-116.3 0.3-73.1 86.6-147.6 186.1-123.9z"/>
		</g>
		<path id="&lt;Path&gt;" class="s2" d="m300.4 586.1c59.7-27.7 15-91 74.6-105.4q78.4 11.1 100.2 7.2-150.2 131.8-174.8 98.2z"/>
		<g id="&lt;Group&gt;">
			<path id="&lt;Path&gt;" class="s5" d="m501.9 416.1l117-93.1 45.1-130.6 93.1 279.1-38.3 116.3-128.7 81.4-140.6 3.4-99.4-255.8z"/>
		</g>
		<path id="&lt;Path&gt;" class="s1" d="m300.4 586.1c32.9-2.6 49.7-24.1 59.7-33.7 5.1-4.8 4.1-9.1 1.5-23.1-2.6-14 6.3-28.4 18.5-34.5 6.7 17.9 14.9 21.3 21.2 20.5 6.3-0.9 12.8-38.7 33.5-38.3 20.7 0.3 37.3 27.7 40 41.4 2.8 13.6-10.6 52.6-27.3 80-16.8 27.4-40.4 61.2-93.7 71.8-53.3 10.6-83.5-16.5-101-50.9-5.9-11.6-8-27.7-7.8-45.5q11.9 15.7 55.4 12.3z"/>
		<path id="&lt;Path&gt;" class="s1" d="m738.8 321.9c7.4 18.5 10.1 45 5.2 55.1-5 10.1-20.5 27.6-39.4 20.9-18.8-6.7-25.1-45.5-20.8-55.8 4.2-10.2 10.1-16.9 14.3-24.9q4.3-8.1-2-28.7c21.5-1.4 35.4 15 42.7 33.4z"/>
		<g id="&lt;Group&gt;">
			<path id="&lt;Path&gt;" class="s6" d="m717.7 32.2l4.2 8.6c0.5 1 1.5 1.7 2.7 1.9l9.4 1.4c3 0.4 4.1 4 2 6.1l-6.8 6.6c-0.9 0.8-1.2 2-1 3.2l1.6 9.4c0.5 2.9-2.6 5.1-5.2 3.7l-8.4-4.4c-1.1-0.5-2.3-0.5-3.4 0l-8.4 4.4c-2.6 1.4-5.7-0.8-5.2-3.7l1.6-9.4c0.2-1.2-0.2-2.4-1-3.2l-6.8-6.6c-2.2-2.1-1-5.7 1.9-6.1l9.5-1.4c1.1-0.2 2.1-0.9 2.7-1.9l4.2-8.6c1.3-2.6 5.1-2.6 6.4 0z"/>
		</g>
		<g id="&lt;Group&gt;">
			<path id="&lt;Path&gt;" class="s6" d="m266 936.4l3.5 7.2c0.5 0.9 1.3 1.5 2.3 1.6l7.9 1.2c2.4 0.4 3.4 3.4 1.7 5.1l-5.8 5.6c-0.7 0.7-1 1.7-0.8 2.6l1.3 7.9c0.4 2.4-2.1 4.3-4.3 3.2l-7.1-3.8c-0.9-0.4-1.9-0.4-2.8 0l-7.1 3.8c-2.1 1.1-4.7-0.8-4.3-3.2l1.4-7.9c0.1-0.9-0.2-1.9-0.9-2.6l-5.7-5.6c-1.8-1.7-0.8-4.7 1.6-5.1l7.9-1.2c1-0.1 1.9-0.7 2.3-1.6l3.5-7.2c1.1-2.2 4.3-2.2 5.4 0z"/>
		</g>
		<path id="&lt;Path&gt;" class="s7" d="m447.3 147.7c2.5 11.7-22 27-54.9 34.2-32.8 7.2-61.5 3.7-64.1-7.9-2.6-11.7 22-27 54.8-34.2 32.9-7.2 61.6-3.7 64.2 7.9z"/>
		<path id="&lt;Path&gt;" class="s2" d="m450.1 594c-23.2-7.1-44.4-30.3-48.5-37.3-4.1-7.1 14.2-33.8 21-33.8q6.9 0 44.7 33.8-9.7 23-17.2 37.3z"/>
		<g id="&lt;Group&gt;" style="opacity: .5;mix-blend-mode: multiply">
			<path id="&lt;Path&gt;" class="s5" d="m618.9 323l99.9 264.8-128.7 81.4-88.2-253.1z"/>
		</g>
		<path id="&lt;Path&gt;" class="s2" d="m759.7 919.4c-16.7 20.7-48.8 25.4-58.2 16.5-9.3-8.9-11.8-42.6-16.4-64.3-4.5-21.6 0.5-33.4 15.5-39.2q25.3-9.7 44.1-26.1 9.8 72.4 15 113.1z"/>
		<path id="&lt;Path&gt;" class="s2" d="m873.1 683.7q-22.3 10-29.8 4.3c-7.6-5.6-26.7-68.4-28.4-81.4q-1.7-13 16.9-21.1 18.4 33.3 41.3 98.2z"/>
		<g id="&lt;Group&gt;">
			<path id="&lt;Path&gt;" class="s8" d="m43 735.7c-14.9-30.8 33.6-63.8 74.8-61.4 41.3 2.4 58.6 40.5 73.1 54.6 30.5 29.7 29.6 58.6 8.5 71.1-21.1 12.5-136.7-23.5-156.4-64.3z"/>
		</g>
		<g id="&lt;Group&gt;">
			<path id="&lt;Path&gt;" class="s8" d="m874.2 258.4c-12-10.5 0.3-60 28.7-71.6 28.4-11.6 63.7 1.1 71.2 20.9 7.5 19.9-75.3 72.2-99.9 50.7z"/>
		</g>
		<g id="&lt;Group&gt;">
			<path id="&lt;Path&gt;" class="s8" d="m1034.3 288.4c4.5 13.4-5.3 39.1-18.3 34.6-13-4.4-8.9-29.4-2.7-38.2 4.1-5.8 16.4-9.8 21 3.6z"/>
		</g>
		<g id="&lt;Group&gt;" style="opacity: .4">
			<path id="&lt;Path&gt;" class="s8" d="m1039.1 95.7c-2.7 13.8-24 31.3-33.1 20.9-9-10.3 6.9-29.9 16.6-34.5 6.5-3 19.2-0.3 16.5 13.6z"/>
		</g>
		<g id="&lt;Group&gt;" style="opacity: .4">
			<path id="&lt;Path&gt;" class="s8" d="m106.3 886.1c-13.6 3.7-38.7-7.7-33.4-20.4 5.2-12.7 29.9-7 38.3-0.3 5.6 4.4 8.7 17-4.9 20.7z"/>
		</g>
		<g id="&lt;Group&gt;" style="opacity: .6;mix-blend-mode: multiply">
			<path id="&lt;Path&gt;" class="s8" d="m209.3 753.2c-11.9 11.1-28.7 7.6-33.4-4.5-4.8-12.1-7.2-25.4 7.7-28.2q18 14.3 25.7 32.7z"/>
		</g>
		<g id="&lt;Group&gt;" style="opacity: .6;mix-blend-mode: multiply">
			<path id="&lt;Path&gt;" class="s8" d="m119.7 714c6 11.9 4.6 30.4-3.6 33.8-8.2 3.4-22.6-5.7-30.1-18.3-7.5-12.5 1.2-28 11.9-29.2 10.2-1.1 15.9 1.9 21.8 13.7z"/>
		</g>
		<g id="&lt;Group&gt;" style="opacity: .6;mix-blend-mode: multiply">
			<path id="&lt;Path&gt;" class="s8" d="m953.1 205.7c1.4 7.5-4.1 18-10.6 18.8-6.5 0.9-12.5-5.1-13-12-0.5-6.8 5.4-13.2 11.3-15 4.4-1.4 10.9 0.7 12.3 8.2z"/>
		</g>
		<g id="&lt;Group&gt;" style="opacity: .6;mix-blend-mode: multiply">
			<path id="&lt;Path&gt;" class="s8" d="m878.7 210.8q8 8.1 6.7 17.1-1.4 9.1-15.2 8.3 2.1-15.5 8.5-25.4z"/>
		</g>
	</g>
</svg>