<svg version="1.2" xmlns="http://www.w3.org/2000/svg" viewBox="0 0 465 245" width="465" height="245">
	<title>Error Alien Spaceship-svg</title>
	<style>
		.s00 { fill: #7a97f4 }
		.s11 { fill: #ff97c9 }
		.s22 { fill: #f774b9 }
		.s33 { fill: #273d7a }
		.s44 { opacity: .3;fill: #ff97c9 }
		.s55 { fill: #fec272 }
		.s66 { fill: #738de0 }
		.s77 { fill: #072359 }
		.s88 { fill: #99adf9 }
		.s99 { fill: #c2d1ff }
	</style>
	<g id="FLOOR_2">
		<path id="XMLID_57_" fill-rule="evenodd" class="s00" d="m319.2 216.5c0 1.3-0.4 2.6-1.3 3.9-7.2 10.5-42.6 18.5-85.1 18.5-47.7 0-86.4-10.1-86.4-22.5 0-12.3 38.7-22.4 86.4-22.4 47.7 0 86.4 10.1 86.4 22.5zm-36.8-4.3v-0.1c0-0.3-0.1-0.6-0.4-0.9-3.2-3.6-24-6.4-49.2-6.4-26.1 0-47.6 3-49.5 6.8-0.1 0-0.1 0.1-0.1 0.1-0.1 0.1-0.1 0.1-0.1 0.2q0 0.3 0 0.3c0 4.1 22.2 7.4 49.7 7.4 27.4 0 49.7-3.3 49.6-7.4z"/>
	</g>
	<g id="FLOOR_1">
		<path id="XMLID_157_" class="s00" d="m130.1 203.4l-26.9 26c-1.6 1.5-3.8 2.4-6 2.4h-87.9c-1.9 0-2.7-2.4-1.2-3.6l32-25.1c1.7-1.3 3.8-2 5.9-2h83.2c1.2 0 1.8 1.5 0.9 2.3z"/>
	</g>
	<g id="FLOOR_3">
		<path id="XMLID_12_" class="s00" d="m460.1 203.4l-26.9 26c-1.6 1.5-3.8 2.4-6 2.4h-87.9c-1.9 0-2.7-2.4-1.2-3.6l32-25.1c1.7-1.3 3.8-2 5.9-2h83.3c1.2 0 1.8 1.5 0.8 2.3z"/>
	</g>
	<g id="Layer_1">
		<g id="XMLID_149_">
			<path id="XMLID_152_" fill-rule="evenodd" class="s11" d="m319.2 212.4c0 1.3-0.4 2.6-1.3 3.9-7.2 10.5-42.6 18.5-85.1 18.5-47.7 0-86.4-10.1-86.4-22.5 0-12.3 38.7-22.4 86.4-22.4 47.7 0 86.4 10.1 86.4 22.5zm-36.8-4.3v-0.1c0-0.3-0.1-0.6-0.4-0.9-3.2-3.6-24-6.4-49.2-6.4-26.1 0-47.6 3-49.5 6.8-0.1 0-0.1 0.1-0.1 0.1-0.1 0.1-0.1 0.1-0.1 0.2q0 0.3 0 0.3c0 4.1 22.2 7.4 49.7 7.4 27.4 0 49.7-3.3 49.6-7.4z"/>
			<path id="XMLID_151_" class="s22" d="m317.9 216.3c-7.2 10.5-42.5 18.5-85.1 18.5-47.7 0-86.4-10.1-86.4-22.5 0 0 15 18.1 83.4 18.1 58.8 0.1 82.5-11 88.1-14.1z"/>
			<path id="XMLID_150_" class="s22" d="m282 207.1c-3.3-3.6-24.1-6.4-49.2-6.4-26.2 0-47.6 3-49.5 6.8 0.9-2.2 6.9-9.8 49.5-9.8 39.2 0 47.5 6.8 49.2 9.4z"/>
		</g>
	</g>
	<g id="FOUR_SHADOW_1">
		<path id="XMLID_47_" class="s33" d="m129.9 201.3h-30.9l-4.7-37.7h-60.1c-2.6 0-4.8-2.1-4.9-4.7l-3-82.4c-0.1-1.5 1.1-2.8 2.7-2.8h22.1c1.4 0 2.6 1.1 2.7 2.6l2.2 48.2c0.1 1.7 1.5 3 3.2 3h27c1.9 0 3.3-1.6 3.1-3.5l-5.9-47.3c-0.2-1.7 1.1-3.1 2.7-3.1h23.6c1.4 0 2.5 1 2.7 2.3l17.5 125.2z"/>
	</g>
	<g id="FOUR_SHADOW_2">
		<path id="XMLID_147_" class="s33" d="m460 201.3h-30.8l-4.7-37.7h-60.1c-2.6 0-4.8-2.1-4.9-4.7l-3-82.4c-0.1-1.5 1.1-2.8 2.7-2.8h22c1.4 0 2.6 1.1 2.7 2.6l2.2 48.2c0.1 1.7 1.5 3 3.2 3h27c1.9 0 3.3-1.6 3.1-3.5l-5.9-47.3c-0.2-1.7 1.1-3.1 2.7-3.1h23.6c1.4 0 2.5 1 2.7 2.3l17.5 125.2z"/>
	</g>
	<g id="FOUR_1">
		<g id="XMLID_3_">
			<path id="XMLID_73_" class="s11" d="m111.7 77.2l-13.2 149.6c-0.2 2.8-2.6 5-5.4 5h-19.8c-3.3 0-5.8-2.9-5.4-6.1l8.3-70.1-59.3 1c-3.3 0-5.8-2.9-5.2-6.1l0.2-1.3 13.6-72.9c0.4-2 2.1-3.5 4.2-3.5h18.9c2.6 0 4.6 2.4 4.2 5l-8.1 46c-0.3 1.9 1.1 3.5 3 3.5h28.3l6.6-51.1c0.3-2 2-3.5 4-3.5h21.1c2.3 0.1 4.2 2.2 4 4.5z"/>
			<path id="XMLID_18_" class="s22" d="m76.6 149.2l-0.5 6.4-59.3 1c-3.3 0-5.8-2.9-5.2-6.1l0.2-1.3z"/>
			<path id="XMLID_42_" class="s22" d="m111.7 77.2l-13.2 149.6c-0.2 2.8-2.6 5-5.4 5h-3l15.7-159h1.9c2.3 0 4.2 2.1 4 4.4z"/>
			<path id="XMLID_17_" class="s22" d="m44.6 123.9c-0.3 1.9 1.1 3.5 3 3.5h-5.8c-2.1 0-3.8-1.9-3.4-4l8.9-50.5h1.3c2.6 0 4.6 2.4 4.2 5z"/>
		</g>
	</g>
	<g id="FOUR_1_1_">
		<g id="XMLID_137_">
			<path id="XMLID_141_" class="s11" d="m441.7 77.2l-13.2 149.6c-0.2 2.8-2.6 5-5.4 5h-19.8c-3.3 0-5.8-2.9-5.4-6.1l8.3-70.1-59.3 1c-3.3 0-5.8-2.9-5.2-6.1l0.2-1.3 13.6-72.9c0.4-2 2.1-3.5 4.2-3.5h18.9c2.6 0 4.6 2.4 4.2 5l-8.1 46c-0.3 1.9 1.1 3.5 3 3.5h28.3l6.6-51.1c0.3-2 2-3.5 4-3.5h21.1c2.4 0.1 4.3 2.2 4 4.5z"/>
			<path id="XMLID_140_" class="s22" d="m406.7 149.2l-0.5 6.4-59.3 1c-3.3 0-5.8-2.9-5.2-6.1l0.2-1.3z"/>
			<path id="XMLID_139_" class="s22" d="m441.7 77.2l-13.2 149.6c-0.2 2.8-2.6 5-5.4 5h-3l15.7-159h1.9c2.4 0 4.3 2.1 4 4.4z"/>
			<path id="XMLID_138_" class="s22" d="m374.7 123.9c-0.3 1.9 1.1 3.5 3 3.5h-5.8c-2.1 0-3.8-1.9-3.4-4l8.9-50.5h1.3c2.6 0 4.6 2.4 4.2 5z"/>
		</g>
	</g>
	<g id="LIGHT">
		<path id="XMLID_39_" class="s44" d="m200.8 100.9h71.2c3.7 0 6.8 3 7.5 7.2l16.8 104c0.9 5.4-2.7 10.5-7.5 10.5h-108.6c-4.9 0-8.5-5.3-7.4-10.9l20.5-104c0.8-4 3.9-6.9 7.5-6.8z"/>
	</g>
	<g id="ORNAMENT_1">
		<g id="XMLID_129_">
			<path id="XMLID_135_" class="s55" d="m287.5 110.7c1.7-0.7 3.7 0.3 4.1 2.1l6.5 33.7c0.2 0.6-0.2 1.2-0.7 1.4-0.7 0.3-1.4-0.1-1.6-0.8l-9.9-32.9c-0.4-1.5 0.3-2.9 1.6-3.5z"/>
			<path id="XMLID_134_" class="s55" d="m268.3 123.8c1.2-0.5 2.5 0.3 2.7 1.5l4.1 25.9c0.1 0.4-0.1 0.8-0.5 0.9-0.4 0.1-0.9-0.1-1-0.6l-6.4-25.4c-0.2-1 0.3-1.9 1.1-2.3z"/>
			<path id="XMLID_133_" class="s55" d="m183.8 117.4l-8.3 25.3c-0.1 0.5-0.7 0.7-1.1 0.5-0.4-0.2-0.6-0.6-0.5-1l6-25.9c0.3-1.2 1.7-1.9 2.8-1.4 1 0.5 1.4 1.5 1.1 2.5z"/>
			<path id="XMLID_132_" class="s55" d="m200.3 125.2l-10.8 47c-0.1 0.5-0.6 0.7-1 0.6-0.4-0.1-0.6-0.5-0.5-0.9l8.5-47.5c0.2-1.2 1.5-2 2.7-1.5 0.9 0.3 1.4 1.3 1.1 2.3z"/>
			<path id="XMLID_131_" class="s55" d="m223.2 130.7l-5.2 34.1c-0.1 0.5-0.6 0.8-1 0.6-0.4-0.1-0.6-0.5-0.6-0.9l2.8-34.4c0.2-1.2 1.4-2 2.6-1.6 1 0.2 1.6 1.2 1.4 2.2z"/>
			<path id="XMLID_130_" class="s55" d="m250 130l1.3 54.1c0 0.5-0.4 0.8-0.9 0.8-0.4-0.1-0.7-0.4-0.7-0.8l-3.7-54.1c0-1.3 1.1-2.2 2.3-2 1 0.2 1.7 1.1 1.7 2z"/>
		</g>
	</g>
	<g id="SPACESHIP">
		<g id="XMLID_2_">
			<path id="XMLID_44_" class="s66" d="m146.1 80.9c-1.1-1.3-1.9-2.6-2.5-3.9l-2.3-15.4 5.3 4.9z"/>
			<g id="XMLID_32_">
				<g id="XMLID_19_">
					<path id="XMLID_50_" class="s33" d="m295.3 86.1c0 0-3.3 6.9-10.5 14.6-9 9.6-24.2 20.5-46.8 20.5-15.9 0-27.7-5.3-36.1-11.7-13.2-10-18.4-22.8-18.4-22.8z"/>
					<path id="XMLID_48_" class="s77" d="m295.3 86.1c0 0-3.3 6.9-10.5 14.6-7.7 3-17.2 5.5-29 7.1-23.2 3.1-41.3 2.9-53.9 1.7-13.2-10-18.4-22.8-18.4-22.8z"/>
				</g>
				<path id="XMLID_16_" class="s88" d="m330.5 61c0 0-0.6 6.3-2.6 14.1-0.3 1.1-0.8 2.4-1.6 3.6-2.1 3.4-6.1 7.1-12.6 10.6-1.1 0.6-2.4 1.2-3.7 1.8-1 0.5-2 0.9-3.1 1.4-1.5 0.6-3 1.2-4.6 1.8-5.6 2-12.2 3.7-20 5.3-0.6 0.1-1.1 0.2-1.7 0.3-1.5 0.3-3.3 0.5-5.2 0.7-8 0.9-18.6 1.5-29.9 1.7-2.1 0-4.2 0.1-6.3 0.1-10.7 0.1-21.5-0.2-30.9-0.7-2-0.1-4-0.2-5.8-0.4-5.5-0.4-10.3-1-13.8-1.7q-7.7-1.5-13.8-3.3c-1.7-0.5-3.3-1-4.9-1.5-12.4-4.1-19.9-9.1-23.8-13.7-0.6-0.7-1.1-1.3-1.5-2-0.4-0.6-0.8-1.3-1-1.9-0.3-0.7-0.6-1.3-0.7-2-0.9-3.7-1.6-7.5-1.9-10.4-0.4-3.3-0.5-5.5-0.5-5.5l95 7.1 95-5.3z"/>
				<path id="XMLID_209_" class="s33" d="m330.4 60.8c0 0.7-0.5 1.6-1.4 2.7-2.5 2.9-8.5 7.2-18.7 11.1q-1.9 0.7-4.2 1.5c-0.7 0.2-1.4 0.5-2.1 0.7-1.5 0.5-3.1 1-4.8 1.4-5.7 1.6-12.3 3.1-19.9 4.2-1.8 0.3-3.7 0.6-5.7 0.8-8.4 1.1-17.8 1.8-28.3 2-2 0-4.1 0.1-6.2 0.1h-0.1c-10.7 0-20.6-0.5-29.5-1.3-2-0.2-4-0.4-5.9-0.6-9.8-1.1-18.5-2.7-26-4.5-1.7-0.4-3.4-0.9-5-1.3-14.9-4.1-24.7-9.2-29.2-13.4-0.9-0.8-1.6-1.7-2.1-2.4-0.6-0.9-0.9-1.7-0.9-2.5 0-7.1 28-22.2 99.1-22.2 71.1-0.1 90.9 18.8 90.9 23.7z"/>
				<path id="XMLID_26_" class="s77" d="m198.5 45.2l-52 21.3c-2-1.3-4.8-4.1-5.3-4.9l55.6-17.3z"/>
				<path id="XMLID_34_" class="s77" d="m330.4 60.9c0 0.6-0.5 1.5-1.4 2.6l-53.4-18.3 1.7-0.8z"/>
				<path id="XMLID_27_" class="s77" d="m207.3 50.7l-29.7 28.1c-1.7-0.4-3.4-0.9-5-1.3l32.9-26.9z"/>
				<path id="XMLID_28_" class="s77" d="m223.6 54l-14.1 30c-2-0.2-4-0.4-5.9-0.6l18.2-29.5z"/>
				<path id="XMLID_31_" class="s77" d="m279.4 82.5c-1.8 0.3-3.8 0.6-5.7 0.8l-13.8-29.3 1.9-0.1z"/>
				<path id="XMLID_30_" class="s77" d="m245.3 85.3c-2 0-4.1 0.1-6.2 0.1h-0.1l2.4-29.5 1.9-0.1z"/>
				<path id="XMLID_207_" class="s77" d="m310.2 74.6q-1.9 0.8-4.2 1.5l-35.9-25.4 1.9-0.1z"/>
				<path id="XMLID_38_" class="s66" d="m245.4 102.1c-2.1 0-4.2 0.1-6.3 0.1v-16.9l6.2-0.1z"/>
				<path id="XMLID_36_" class="s66" d="m280.4 99.7c-1.6 0.3-3.3 0.5-5.2 0.7l-1.6-17.2 5.7-0.8z"/>
				<path id="XMLID_205_" class="s66" d="m313.6 89.2c-1.1 0.6-2.4 1.2-3.7 1.8l-3.8-15 4.1-1.4z"/>
				<path id="XMLID_40_" class="s66" d="m209.5 84l-1.2 17.5c-2-0.1-4-0.2-5.8-0.4l1.2-17.7z"/>
				<path id="XMLID_41_" class="s66" d="m177.6 78.8l-2.8 17.3c-1.7-0.5-3.3-1-4.9-1.5l2.6-17.1z"/>
				<path id="XMLID_14_" class="s66" d="m146.6 66.7l-2 12.3c-0.4-0.6-0.8-1.3-1-1.9-0.3-0.7-0.6-1.3-0.7-2-0.9-3.7-1.6-7.5-1.9-10.4l0.3-3c0 0 1.7 2 2.4 2.7 0.6 0.6 2.9 2.3 2.9 2.3z"/>
			</g>
			<ellipse id="XMLID_1_" class="s77" cx="234.8" cy="52.7" rx="53.3" ry="15.1"/>
			<g id="XMLID_23_">
				<path id="XMLID_37_" class="s88" d="m283.5 50.3c0 0-3.9 4.4-13.5 8.2-7.1 2.8-17.3 5.2-31.3 5.2-7.7 0-14.4-0.7-20-1.8-18.7-3.6-26.8-11.4-26.8-11.4 0 0 4.1-30.4 29.7-40.7 5.2-2.1 11.4-3.4 18.6-3.4 35.2 0 43.3 43.9 43.3 43.9z"/>
				<path id="XMLID_33_" class="s00" d="m218.7 61.9c-18.7-3.6-26.8-11.4-26.8-11.4 0 0 4.1-30.4 29.7-40.7-5 4.2-9.9 12.6-10.7 26.3-0.8 10.2 1.6 18.7 7.8 25.8z"/>
				<path id="XMLID_25_" class="s99" d="m283.5 50.3c0 0-3.9 4.4-13.5 8.2-1.5-5.6-3.8-10.6-3.8-10.6 0 0-9.4 2-13.6-6.9-4.2-8.9 5.9-15.3 5.9-15.3 0 0-2.4-7.7-14.8-12.7-12.4-5-22.3-3.2-22.3-3.2 5.2-2.1 11.4-3.4 18.6-3.4 35.4 0 43.5 43.9 43.5 43.9z"/>
				<ellipse id="XMLID_11_" class="s99" cx="243.2" cy="28.9" rx="2.7" ry="2.6"/>
				<ellipse id="XMLID_21_" class="s99" cx="233.8" cy="32" rx="2.1" ry="2"/>
				<ellipse id="XMLID_20_" class="s99" cx="240.1" cy="43.5" rx="4.1" ry="4"/>
			</g>
		</g>
	</g>
</svg>