<svg width="70" height="70" viewBox="0 0 118 97" fill="none" xmlns="http://www.w3.org/2000/svg">
<path d="M27.7783 39.8568L47.2067 96.199L51.5 56L31.664 1L27.7783 39.8568Z" fill="#300698" stroke="#470990" stroke-width="0.1"/>
<path d="M72 55.0393L93.8351 96.199L97.1421 68.9993L74.4067 28.1997L72 55.0393Z" fill="#300698" stroke="#470990" stroke-width="0.1"/>
<path d="M115 53C114.417 52.2232 113.263 49.571 107.435 49.571C105.036 49.571 101.661 51.4143 99.6635 55.4092C97.7206 59.2948 96.3342 77.3276 95.7778 80.666C93.835 92.3231 93.835 96.2087 93.835 96.2087C93.835 96.2087 102.9 95.4763 107.435 92.3228C111.423 89.5491 111.32 88.4278 113.263 84.5517C115.206 80.6757 117.149 61.2283 117.149 59.2852C117.149 57.3422 116.5 55 115 53Z" fill="url(#paint0_linear_1071_5259)"/>
<path d="M69.0503 83.0786C70.7644 79.3679 74.4064 28.1998 74.4064 28.1998C74.4064 28.1998 66.684 27.5511 62.348 30.0401C57.5586 32.7893 54.7056 38.1979 53.036 43.7421C51.3664 49.2863 47.2067 96.1988 47.2067 96.1988C47.2067 96.1988 53.2998 95.3375 56.6947 94.3861C59.7312 93.5352 61.4235 92.6225 63.8187 90.5439C66.4966 88.22 67.3361 86.7893 69.0503 83.0786Z" fill="url(#paint1_linear_1071_5259)"/>
<path d="M21.4097 91.9283C23.1337 88.0017 31.6641 1.00001 31.6641 1.00001C31.6641 1.00001 26.1229 1.32034 21.95 2.94459C16.0485 5.24162 13.8693 8.75739 12.2354 14.6015C10.6016 20.4457 2.38866 87.7074 4.48055 91.4513C6.57244 95.1952 9.35967 95.9392 12.0541 96.2209C14.7486 96.5026 19.6858 95.8548 21.4097 91.9283Z" fill="url(#paint2_linear_1071_5259)"/>
<defs>
<linearGradient id="paint0_linear_1071_5259" x1="105.492" y1="49.571" x2="105.492" y2="96.2087" gradientUnits="userSpaceOnUse">
<stop stop-color="#C11F84"/>
<stop offset="1" stop-color="#6DBAFF"/>
</linearGradient>
<linearGradient id="paint1_linear_1071_5259" x1="59.9851" y1="28.4081" x2="61.6244" y2="95.8483" gradientUnits="userSpaceOnUse">
<stop stop-color="#6DBAFF"/>
<stop offset="1" stop-color="#FC05AC"/>
</linearGradient>
<linearGradient id="paint2_linear_1071_5259" x1="15.832" y1="1.75938" x2="20.3501" y2="95.9503" gradientUnits="userSpaceOnUse">
<stop stop-color="#6DBAFF"/>
<stop offset="1" stop-color="#FC05AC"/>
</linearGradient>
</defs>
</svg>
