<svg width="887" height="669" viewBox="0 0 887 669" fill="none" xmlns="http://www.w3.org/2000/svg">
<g clip-path="url(#clip0_1057_6100)">
<path d="M815.411 668.88C824.95 668.88 834.391 666.948 843.163 663.2C851.936 659.452 859.858 653.966 866.452 647.073C873.047 640.18 878.177 632.022 881.533 623.093C884.889 614.163 886.401 604.646 885.979 595.116C883.655 542.554 850.25 467.223 759.2 399.188C632.861 304.79 709.11 83.774 543.271 61.266C270.684 24.271 294.944 271.689 126.628 359.9C19.487 416.048 0.007 525.911 0 598.354C0.0172321 617.072 7.46812 635.017 20.7142 648.243C33.9602 661.469 51.9167 668.892 70.635 668.88H815.411Z" fill="#F3F5FD"/>
<path d="M261.519 494.601L642.789 494.601L642.789 6.10352e-05L261.519 6.10352e-05L261.519 494.601Z" fill="#DEE8F5"/>
<path d="M381.37 74.639C381.37 83.016 378.886 91.2049 374.232 98.1702C369.578 105.135 362.963 110.564 355.224 113.77C347.484 116.976 338.968 117.814 330.752 116.18C322.536 114.546 314.989 110.512 309.066 104.589C303.142 98.6651 299.108 91.1181 297.474 82.9021C295.84 74.686 296.678 66.1698 299.884 58.4305C303.09 50.6911 308.519 44.0761 315.484 39.4221C322.449 34.7681 330.638 32.284 339.015 32.284C344.582 32.2671 350.097 33.3511 355.244 35.4737C360.39 37.5962 365.066 40.7154 369.002 44.6518C372.939 48.5882 376.058 53.2641 378.18 58.4105C380.303 63.5569 381.387 69.0721 381.37 74.639V74.639Z" fill="#C1D8ED"/>
<path d="M339.015 79.003C348.276 79.003 355.783 71.4958 355.783 62.235C355.783 52.9743 348.276 45.467 339.015 45.467C329.754 45.467 322.247 52.9743 322.247 62.235C322.247 71.4958 329.754 79.003 339.015 79.003Z" fill="white"/>
<path d="M369.537 104.008C365.585 108.114 360.845 111.381 355.6 113.612C350.356 115.844 344.715 116.994 339.016 116.994C333.316 116.994 327.675 115.844 322.431 113.612C317.186 111.381 312.446 108.114 308.494 104.008C314.205 91.245 325.734 82.522 339.015 82.522C352.296 82.522 363.826 91.245 369.537 104.008Z" fill="white"/>
<path d="M484.139 32.547H398.629V58.388H484.139V32.547Z" fill="white"/>
<path d="M607.646 74.3721H398.629V83.7741H607.646V74.3721Z" fill="white"/>
<path d="M607.646 99.7581H398.629V109.16H607.646V99.7581Z" fill="white"/>
<path d="M368.751 143.531H296.661V154.635H368.751V143.531Z" fill="white"/>
<path d="M607.647 166.983H296.661V195.859H607.647V166.983Z" fill="white"/>
<path d="M368.751 217.115H296.661V228.219H368.751V217.115Z" fill="white"/>
<path d="M607.647 240.567H296.661V269.443H607.647V240.567Z" fill="white"/>
<path d="M368.751 290.699H296.661V301.803H368.751V290.699Z" fill="white"/>
<path d="M607.647 314.151H296.661V343.027H607.647V314.151Z" fill="white"/>
<path d="M368.751 364.282H296.661V375.386H368.751V364.282Z" fill="white"/>
<path d="M607.647 387.735H296.661V416.611H607.647V387.735Z" fill="white"/>
<path d="M486.979 441.07H417.327V462.2H486.979V441.07Z" fill="#C1D8ED"/>
<path d="M201.165 222.756C201.165 222.756 208.897 218.656 207.171 197.6L223.147 194.637C223.147 194.637 221.352 213.516 229.435 219.51L201.165 222.756Z" fill="#E98862"/>
<path d="M198.106 189.435C199.212 195.823 202.698 201.873 208.333 203.935C215.023 206.385 219.978 206.551 227.691 206.551C238.216 206.551 237.868 195.574 238.164 184.513C238.464 173.407 237.577 161.494 233.417 157.624C225.117 149.9 200.744 154.792 197.78 167.712C196.247 174.4 197.053 183.354 198.106 189.435Z" fill="#E98862"/>
<path d="M243.805 164.046C243.805 164.046 248.115 163.083 246.935 158.785C246.153 155.934 242.501 156.567 242.501 156.567C242.501 156.567 245.959 155.934 245.959 152.915C245.959 151.015 244.497 147.791 240.088 149.633C234.914 151.794 229.014 151.516 224.527 150.762C221.989 150.206 219.413 149.843 216.82 149.674H216.806C213.825 149.622 210.854 150.019 207.992 150.853C199.972 153.253 187.648 160.474 190.415 176.746C193.406 194.332 204.115 202.06 205.589 203.13C208.359 205.144 225.389 205.552 227.077 203.865C229.603 201.339 230.977 191.183 230.464 173.491C237.444 172.386 242.239 171.915 242.239 171.915C242.239 171.915 248.039 172.133 248.039 167.893C248.039 163.653 243.805 164.046 243.805 164.046Z" fill="#0F1011"/>
<path d="M235.557 186.611C235.679 188.229 235.156 189.83 234.102 191.063C233.048 192.297 231.549 193.064 229.931 193.196C228.314 193.328 226.71 192.815 225.47 191.768C224.23 190.722 223.454 189.227 223.312 187.611C223.232 186.804 223.315 185.99 223.557 185.216C223.798 184.442 224.193 183.725 224.717 183.106C225.242 182.488 225.885 181.982 226.61 181.618C227.334 181.253 228.124 181.039 228.933 180.986C233.311 180.848 235.279 183.229 235.557 186.611Z" fill="#E98862"/>
<path d="M272.815 657.164L250.222 654.479C251.239 645.927 252.386 635.656 252.466 633.972C252.466 634.078 252.466 634.172 252.466 634.237H275.218C275.213 634.919 275.213 636.994 272.815 657.164Z" fill="#E98862"/>
<path d="M182.159 659.884L159.407 659.81C159.407 659.81 159.483 636.318 159.483 634.237H182.235C182.235 636.324 182.159 659.884 182.159 659.884Z" fill="#E98862"/>
<path d="M281.21 649.3C279.326 602.237 279.317 550.9 278.626 503.752C270.926 452.167 266.641 395.634 257.026 344.418L256.737 344.503L255.89 338.728L173.466 337.139L153.543 648.689L193.487 652.064L218.558 394.011C226.523 432.056 231.866 471.506 238.914 509.17C238.914 509.17 241.286 603.597 241.127 649.981L281.21 649.3Z" fill="#262626"/>
<path d="M209.816 668.684C210.4 668.682 210.979 668.564 211.518 668.338C212.057 668.112 212.546 667.783 212.957 667.368C213.369 666.953 213.694 666.461 213.916 665.92C214.137 665.379 214.25 664.799 214.247 664.215C214.247 664.105 214.242 663.994 214.233 663.884C214.167 663.038 213.861 662.229 213.351 661.552C212.84 660.874 212.147 660.357 211.352 660.06L184.871 651.191C184.358 651.021 183.814 650.964 183.277 651.024C182.74 651.084 182.222 651.259 181.759 651.537C178.118 654.064 173.763 655.355 169.334 655.222C165.884 654.977 162.573 653.767 159.778 651.731C159.532 651.53 159.234 651.402 158.919 651.364C158.604 651.325 158.284 651.377 157.997 651.514C157.71 651.65 157.468 651.865 157.298 652.133C157.129 652.402 157.039 652.713 157.04 653.031V665.98C157.04 666.749 157.345 667.487 157.889 668.031C158.433 668.575 159.171 668.88 159.94 668.88H159.953L209.816 668.684Z" fill="#C1D8ED"/>
<path d="M300.535 668.684C301.119 668.682 301.698 668.564 302.237 668.338C302.776 668.112 303.265 667.783 303.676 667.368C304.088 666.953 304.413 666.461 304.635 665.92C304.856 665.379 304.969 664.799 304.966 664.215C304.966 664.105 304.966 663.994 304.952 663.884C304.886 663.038 304.58 662.229 304.07 661.552C303.559 660.874 302.866 660.357 302.071 660.06L275.59 651.191C275.077 651.021 274.533 650.964 273.996 651.024C273.459 651.084 272.941 651.259 272.478 651.537C268.837 654.064 264.482 655.355 260.053 655.222C256.603 654.977 253.292 653.767 250.497 651.731C250.251 651.53 249.953 651.402 249.638 651.364C249.323 651.325 249.003 651.377 248.716 651.514C248.429 651.65 248.187 651.865 248.017 652.133C247.848 652.402 247.758 652.713 247.759 653.031V665.98C247.759 666.749 248.064 667.487 248.608 668.031C249.152 668.575 249.89 668.88 250.659 668.88H250.672L300.535 668.684Z" fill="#C1D8ED"/>
<path d="M149.21 372.678C149.21 375.907 150.91 386.701 148.173 387.472C146.529 387.934 144.587 379.89 144.587 379.89" fill="#E98862"/>
<path d="M136.263 370.983C136.263 370.983 127.31 392.775 137.522 405.295C137.782 405.614 138.133 405.847 138.528 405.963C138.922 406.079 139.343 406.074 139.735 405.947C140.126 405.82 140.471 405.579 140.723 405.253C140.975 404.928 141.122 404.534 141.147 404.123C141.647 395.682 143.347 378.344 148.911 380.369V366.757" fill="#E98862"/>
<path d="M338.15 254.879C338.15 254.879 350.65 244.947 351.539 241.379C352.428 237.811 343.617 230.795 343.617 230.795C343.617 230.795 355.327 218.995 352.992 217.28C350.236 215.26 336.648 232.428 336.648 232.428C336.648 232.428 338.569 226.251 336.176 225.846C335.193 225.68 334.414 226.646 332.876 231.016C331.123 235.997 327.619 243.493 327.619 243.493L338.15 254.879Z" fill="#E98862"/>
<path d="M324.986 241.673L288 283.285L259.034 231.435C256.282 223.297 250.057 217.835 237.378 217.297C233.029 217.11 211.803 217.077 196.263 217.077C185.822 217.077 177.251 220.277 172.302 225.23C169.809 227.687 167.944 230.707 166.863 234.036L166.714 233.981L141.845 301.6C141.565 302.358 141.364 303.143 141.245 303.943L131.21 371.568L154.577 375.036L164.436 308.616L174.478 281.308C175.523 285.505 176.094 289.807 176.178 294.131C176.178 316.888 165.889 327.087 166.642 338.764C167.835 357.123 257.031 352.785 261.576 342.357C266.255 331.602 256.758 324.977 257.176 289.8C257.221 285.973 257.517 281.968 257.924 277.891L275.476 309.31C276.395 310.955 277.695 312.357 279.266 313.397C280.837 314.438 282.635 315.088 284.508 315.292C286.382 315.496 288.277 315.249 290.036 314.571C291.794 313.893 293.365 312.805 294.617 311.396L343.245 254.512L324.986 241.673Z" fill="rgb(111, 53, 186)"/>
<path d="M128.821 585.041C123.821 583.404 118.69 585.241 113.78 588.976C120.247 572.646 122.916 557.895 111.86 557.231C104.124 556.766 98.198 562.701 93.696 571.139C92.113 556.303 88.028 545.239 78.878 548.907C68.832 552.935 67.303 566.737 68.827 581.179C64.402 573.802 59.636 569.689 55.309 574.016C42.396 586.929 74.092 623.316 74.092 623.316H81.964L86.456 628.193C85.547 630.116 85.049 631.261 85.049 631.261L90.755 642.873C90.755 642.873 149.573 591.834 128.821 585.041Z" fill="#8DDBE0"/>
<path d="M114.708 668.88H70.158L62.701 616.873H122.165L114.708 668.88Z" fill="#C1D8ED"/>
<path d="M744.491 469.558C742.058 468.758 739.562 469.658 737.173 471.472C740.319 463.528 741.618 456.352 736.239 456.029C732.475 455.803 729.592 458.691 727.402 462.795C726.632 455.578 724.645 450.195 720.193 451.979C715.306 453.939 714.562 460.654 715.303 467.679C713.148 464.091 710.832 462.09 708.727 464.193C702.445 470.475 717.865 488.18 717.865 488.18H721.694L723.88 490.552C723.437 491.487 723.195 492.045 723.195 492.045L725.971 497.693C725.971 497.693 754.589 472.863 744.491 469.558Z" fill="#8DDBE0"/>
<path d="M737.627 510.345H715.954L712.326 485.044H741.255L737.627 510.345Z" fill="#C1D8ED"/>
<path d="M696.265 656.145H684.712V668.88H696.265V656.145Z" fill="#C1D8ED"/>
<path d="M806.181 656.145H794.628V668.88H806.181V656.145Z" fill="#C1D8ED"/>
<path d="M816.127 510.939H767.654V657.621H816.127V510.939Z" fill="#C1D8ED"/>
<path d="M684.564 514.188H634.925V656.145H684.564V514.188Z" fill="#C1D8ED"/>
<path d="M770.919 657.621H631.66V510.939H770.919V657.621ZM638.19 651.091H764.39V517.469H638.19V651.091Z" fill="#DEE8F5"/>
<path d="M770.919 657.621H631.66V576.75H770.919V657.621ZM638.19 651.091H764.39V583.28H638.19V651.091Z" fill="#DEE8F5"/>
<path d="M694.79 529.104V538.445V576.697H753.947V538.445V529.104H694.79Z" fill="#C1D8ED"/>
<path d="M734.557 538.445H675.4V576.697H734.557V538.445Z" fill="#DEE8F5"/>
<path d="M734.557 538.445H675.4V541.312H734.557V538.445Z" fill="#C1D8ED"/>
<path d="M675.401 538.445H734.558V529.104H675.401V538.445Z" fill="#DEE8F5"/>
<path d="M711.535 546.127H698.423C697.67 546.127 697.06 546.737 697.06 547.49V550.508C697.06 551.261 697.67 551.871 698.423 551.871H711.535C712.288 551.871 712.898 551.261 712.898 550.508V547.49C712.898 546.737 712.288 546.127 711.535 546.127Z" fill="white"/>
<path d="M652.108 656.145H640.555V668.88H652.108V656.145Z" fill="#DEE8F5"/>
<path d="M762.024 656.145H750.471V668.88H762.024V656.145Z" fill="#DEE8F5"/>
<path d="M748.882 636.528H684.568V651.091H748.882V636.528Z" fill="#C1D8ED"/>
<path d="M749.987 607.435H685.673V621.998H749.987V607.435Z" fill="#C1D8ED"/>
<path d="M726.935 636.528H658.923V651.091H726.935V636.528Z" fill="#DEE8F5"/>
<g opacity="0.62">
<path opacity="0.62" d="M721.384 636.528H718.083V651.091H721.384V636.528Z" fill="#C1D8ED"/>
</g>
<g opacity="0.62">
<path opacity="0.62" d="M714.781 636.528H711.48V651.091H714.781V636.528Z" fill="#C1D8ED"/>
</g>
<path d="M666.721 648.506C669.315 648.506 671.417 646.404 671.417 643.81C671.417 641.216 669.315 639.114 666.721 639.114C664.127 639.114 662.025 641.216 662.025 643.81C662.025 646.404 664.127 648.506 666.721 648.506Z" fill="#F3F5FD"/>
<path d="M728.04 607.435H660.028V621.998H728.04V607.435Z" fill="#DEE8F5"/>
<path d="M711.869 610.715H664.408V618.718H711.869V610.715Z" fill="#F3F5FD"/>
<g opacity="0.62">
<path opacity="0.62" d="M722.489 607.435H716.242V621.998H722.489V607.435Z" fill="#C1D8ED"/>
</g>
<path d="M689.814 636.544H754.128V621.981H689.814V636.544Z" fill="#C1D8ED"/>
<path d="M664.169 636.544H732.181V621.981H664.169V636.544Z" fill="#F3F5FD"/>
<path d="M669.72 636.544H673.021V621.981H669.72V636.544Z" fill="#DEE8F5"/>
<path d="M676.323 636.544H679.624V621.981H676.323V636.544Z" fill="#DEE8F5"/>
<path d="M724.384 633.959C726.978 633.959 729.08 631.856 729.08 629.263C729.08 626.669 726.978 624.567 724.384 624.567C721.79 624.567 719.688 626.669 719.688 629.263C719.688 631.856 721.79 633.959 724.384 633.959Z" fill="#DEE8F5"/>
<path d="M714.735 625.693H684.712V632.832H714.735V625.693Z" fill="#DEE8F5"/>
</g>
<defs>
<clipPath id="clip0_1057_6100">
<rect width="886.05" height="668.88" fill="white"/>
</clipPath>
</defs>
</svg>
