<svg xmlns="http://www.w3.org/2000/svg" version="1.1" xmlns:xlink="http://www.w3.org/1999/xlink" xmlns:svgjs="http://svgjs.com/svgjs" width="1440" height="560" preserveAspectRatio="none" viewBox="0 0 1440 560"><g mask="url(&quot;#SvgjsMask1031&quot;)" fill="none"><rect width="1440" height="560" x="0" y="0" fill="#0e2a47"></rect><g transform="translate(0, 0)" stroke-linecap="round"><path d="M270 258.245 L270 301.755" stroke-width="33.75" stroke="rgba(28, 174, 255, 1)"></path><path d="M315 128.625 L315 196.125" stroke-width="33.75" stroke="rgba(162, 205, 251, 1)"></path><path d="M315 246.75 L315 314.25" stroke-width="33.75" stroke="rgba(28, 174, 255, 1)"></path><path d="M315 364.875 L315 431.375" stroke-width="33.75" stroke="rgba(28, 174, 255, 1)"></path><path d="M360 122.305 L360 257.305" stroke-width="33.75" stroke="rgba(162, 205, 251, 1)"></path><path d="M360 307.93 L360 341.68" stroke-width="33.75" stroke="rgba(162, 205, 251, 1)"></path><path d="M360 392.305 L360 437.695" stroke-width="33.75" stroke="rgba(28, 174, 255, 1)"></path><path d="M405 212.745 L405 347.255" stroke-width="33.75" stroke="rgba(162, 205, 251, 1)"></path><path d="M450 246.175 L450 313.825" stroke-width="33.75" stroke="rgba(162, 205, 251, 1)"></path><path d="M495 140.365 L495 207.865" stroke-width="33.75" stroke="rgba(28, 174, 255, 1)"></path><path d="M495 258.49 L495 292.24" stroke-width="33.75" stroke="rgba(162, 205, 251, 1)"></path><path d="M495 342.865 L495 419.635" stroke-width="33.75" stroke="rgba(28, 174, 255, 1)"></path><path d="M540 215.505 L540 344.495" stroke-width="33.75" stroke="rgba(28, 174, 255, 1)"></path><path d="M585 125.055 L585 260.055" stroke-width="33.75" stroke="rgba(28, 174, 255, 1)"></path><path d="M585 310.68 L585 434.945" stroke-width="33.75" stroke="rgba(162, 205, 251, 1)"></path><path d="M630 133.845 L630 235.095" stroke-width="33.75" stroke="rgba(28, 174, 255, 1)"></path><path d="M630 285.72 L630 319.47" stroke-width="33.75" stroke="rgba(162, 205, 251, 1)"></path><path d="M630 370.095 L630 426.155" stroke-width="33.75" stroke="rgba(28, 174, 255, 1)"></path><path d="M675 215.905 L675 344.095" stroke-width="33.75" stroke="rgba(28, 174, 255, 1)"></path><path d="M720 239.845 L720 320.155" stroke-width="33.75" stroke="rgba(162, 205, 251, 1)"></path><path d="M765 167.965 L765 201.715" stroke-width="33.75" stroke="rgba(162, 205, 251, 1)"></path><path d="M765 252.34 L765 286.09000000000003" stroke-width="33.75" stroke="rgba(162, 205, 251, 1)"></path><path d="M765 336.71500000000003 L765 392.035" stroke-width="33.75" stroke="rgba(28, 174, 255, 1)"></path><path d="M810 275.955 L810 284.045" stroke-width="33.75" stroke="rgba(162, 205, 251, 1)"></path><path d="M855 270.445 L855 289.555" stroke-width="33.75" stroke="rgba(162, 205, 251, 1)"></path><path d="M900 193.025 L900 226.775" stroke-width="33.75" stroke="rgba(162, 205, 251, 1)"></path><path d="M900 277.4 L900 366.975" stroke-width="33.75" stroke="rgba(162, 205, 251, 1)"></path><path d="M945 246.215 L945 313.795" stroke-width="33.75" stroke="rgba(162, 205, 251, 1)"></path><path d="M990 113.315 L990 446.685" stroke-width="33.75" stroke="rgba(162, 205, 251, 1)"></path><path d="M1035 178.845 L1035 212.595" stroke-width="33.75" stroke="rgba(162, 205, 251, 1)"></path><path d="M1035 263.22 L1035 381.145" stroke-width="33.75" stroke="rgba(162, 205, 251, 1)"></path><path d="M1080 273.755 L1080 286.245" stroke-width="33.75" stroke="rgba(28, 174, 255, 1)"></path><path d="M1125 220.385 L1125 339.615" stroke-width="33.75" stroke="rgba(28, 174, 255, 1)"></path><path d="M1170 271.235 L1170 288.765" stroke-width="33.75" stroke="rgba(162, 205, 251, 1)"></path></g></g><defs><mask id="SvgjsMask1031"><rect width="1440" height="560" fill="#ffffff"></rect></mask></defs></svg>