<svg version="1.2" xmlns="http://www.w3.org/2000/svg" viewBox="0 0 300 225" width="1000" height="750">
	<title>Illustration_Resume Recruitment-ai</title>
	<defs>
		<linearGradient id="g1" x1="258.1" y1="-20.2" x2="289.8" y2="201.8" gradientUnits="userSpaceOnUse">
			<stop offset="0" stop-color="#7035bb"/>
			<stop offset="1" stop-color="#36164d"/>
		</linearGradient>
		<linearGradient id="g2" x1="285.7" y1="74.4" x2="251.8" y2="252.6" gradientUnits="userSpaceOnUse">
			<stop offset="0" stop-color="#ffffff"/>
			<stop offset="1" stop-color="#000000"/>
		</linearGradient>
		<linearGradient id="g3" x1="257" y1="45.1" x2="292.1" y2="183.8" gradientUnits="userSpaceOnUse">
			<stop offset="0" stop-color="#ffffff"/>
			<stop offset="1" stop-color="#000000"/>
		</linearGradient>
		<linearGradient id="g4" x1="243.1" y1="147" x2="252.1" y2="249.6" gradientUnits="userSpaceOnUse">
			<stop offset="0" stop-color="#ffffff"/>
			<stop offset="1" stop-color="#000000"/>
		</linearGradient>
		<clipPath clipPathUnits="userSpaceOnUse" id="cp1">
			<path d="m256.18 69.39q-0.77 0.93-1.64 1.81 0 0.01-0.01 0.01-0.89 0.9-1.88 1.75-0.17 0.14-0.36 0.29-0.78 0.65-1.64 1.28-0.32 0.23-0.66 0.46-0.76 0.53-1.56 1.02-0.38 0.24-0.76 0.46-0.86 0.5-1.77 0.97-0.36 0.18-0.72 0.37-1.28 0.63-2.66 1.19-1.85 0.75-3.56 1.54-0.64 0.3-1.26 0.61-1.06 0.5-2.07 1.01-0.66 0.35-1.3 0.71-0.92 0.5-1.8 1.01-0.6 0.36-1.19 0.73-0.86 0.54-1.68 1.08-0.52 0.36-1.03 0.72-0.83 0.59-1.62 1.19-0.43 0.34-0.84 0.68-0.83 0.66-1.59 1.35-0.33 0.29-0.64 0.58-0.84 0.78-1.6 1.58-0.2 0.21-0.4 0.42-0.88 0.95-1.66 1.93-0.06 0.08-0.13 0.16-0.5 0.63-0.95 1.28-0.16 0.22-0.31 0.45-1.36 1.97-2.35 4.05-0.15 0.32-0.3 0.64-0.27 0.6-0.51 1.21-0.15 0.37-0.28 0.74-0.37 1.02-0.66 2.07-0.13 0.43-0.24 0.86-0.14 0.57-0.25 1.14-0.1 0.48-0.18 0.97-0.1 0.55-0.18 1.11-0.08 0.63-0.14 1.27-0.07 0.75-0.1 1.52-0.03 0.65-0.04 1.31 0 0.51 0.01 1.03 0.02 0.65 0.06 1.31 0.03 0.47 0.06 0.95 0.09 1.05 0.25 2.13 0.06 0.41 0.13 0.83 0.13 0.77 0.28 1.56 0.09 0.46 0.2 0.93 0.19 0.86 0.42 1.73 0.08 0.34 0.17 0.67 0.32 1.17 0.71 2.36 0.13 0.39 0.26 0.79 0.31 0.89 0.65 1.79 0.15 0.4 0.3 0.8 0.49 1.25 1.03 2.51 0.04 0.08 0.08 0.17 0.54 1.2 1.13 2.42 0.19 0.39 0.38 0.77 0.5 1.01 1.04 2.03 0.17 0.33 0.35 0.67 0.71 1.31 1.49 2.64 0.14 0.25 0.29 0.49 0.66 1.12 1.37 2.25 0.24 0.39 0.48 0.77 0.74 1.16 1.52 2.33 0.14 0.21 0.28 0.43 0.93 1.38 1.92 2.77 0.25 0.34 0.5 0.68 0.78 1.09 1.61 2.19 0.29 0.39 0.58 0.78 1.07 1.41 2.19 2.83 1.39 1.75 2.57 3.45 0.91 1.32 1.68 2.61 0.03 0.05 0.06 0.1c2.4 3.97 3.91 7.69 4.68 11.14q0.02 0.14 0.05 0.28 0.24 1.13 0.38 2.22 0.02 0.29 0.05 0.58 0.09 0.92 0.12 1.81 0 0.36-0.01 0.72 0 0.79-0.05 1.56-0.04 0.4-0.1 0.79-0.08 0.71-0.2 1.39-0.08 0.41-0.18 0.8-0.15 0.65-0.33 1.27-0.13 0.4-0.27 0.8-0.2 0.58-0.44 1.15-0.17 0.39-0.36 0.78-0.25 0.54-0.53 1.05-0.22 0.38-0.45 0.75-0.3 0.5-0.62 0.97-0.26 0.36-0.53 0.7-0.34 0.46-0.71 0.89-0.29 0.34-0.59 0.66-0.38 0.41-0.79 0.81-0.31 0.31-0.65 0.6-0.42 0.38-0.86 0.74-0.34 0.28-0.7 0.54-0.46 0.34-0.93 0.66-0.37 0.25-0.75 0.49-0.49 0.3-0.99 0.58-0.39 0.22-0.78 0.43-0.52 0.26-1.05 0.51-0.4 0.18-0.81 0.36-0.55 0.23-1.1 0.43-0.41 0.15-0.83 0.3-0.57 0.18-1.15 0.35-0.42 0.12-0.84 0.23-0.59 0.15-1.18 0.27-0.43 0.09-0.86 0.17-0.6 0.1-1.21 0.17-0.42 0.06-0.85 0.11-0.62 0.06-1.24 0.09-0.42 0.03-0.84 0.04-0.63 0.01-1.25-0.01-0.42 0-0.83-0.02-0.64-0.03-1.26-0.1-0.41-0.04-0.82-0.08-0.63-0.09-1.26-0.21-0.4-0.07-0.79-0.14-0.64-0.14-1.27-0.32-0.37-0.09-0.74-0.2-0.64-0.2-1.27-0.44-0.35-0.11-0.69-0.24-0.68-0.28-1.34-0.6-0.27-0.13-0.55-0.26-0.93-0.47-1.81-1.03c-19.1-12.14-33.57-0.81-60.35 9.71-26.77 10.52-71.88 10.85-90.02-18.62q-0.54-0.89-0.95-1.76-0.11-0.23-0.21-0.45-0.32-0.71-0.55-1.4-0.07-0.17-0.12-0.34-0.28-0.86-0.43-1.7-0.01-0.08-0.02-0.16-0.13-0.76-0.16-1.51-0.01-0.16-0.01-0.33-0.02-0.79 0.06-1.57 0-0.02 0-0.04 0.09-0.83 0.29-1.65 0.03-0.11 0.06-0.21 0.18-0.71 0.44-1.42 0.04-0.12 0.09-0.24 0.61-1.59 1.56-3.15 0.08-0.13 0.16-0.26 0.43-0.7 0.92-1.39 0.06-0.09 0.12-0.17 0.56-0.79 1.19-1.57 0.07-0.08 0.13-0.15 0.56-0.69 1.16-1.37 0.15-0.18 0.3-0.35 0.61-0.68 1.25-1.36 0.08-0.09 0.15-0.17 0.71-0.74 1.45-1.49 0.26-0.26 0.52-0.51 0.5-0.5 1.01-1 0.32-0.31 0.65-0.63 0.41-0.4 0.83-0.8 0.33-0.32 0.67-0.64 0.58-0.56 1.18-1.12 0.11-0.1 0.22-0.2 0.33-0.32 0.67-0.63c2.86-2.7 5.86-5.53 8.75-8.59q0.17-0.17 0.33-0.35 0.53-0.56 1.06-1.14 0.22-0.24 0.43-0.48 0.51-0.56 1-1.13 0.22-0.26 0.44-0.52 0.5-0.58 0.98-1.16 0.12-0.15 0.24-0.3 0.49-0.6 0.96-1.21 0.05-0.06 0.1-0.13 0.36-0.47 0.71-0.94 0.16-0.21 0.31-0.43 0.17-0.23 0.34-0.46 0.31-0.43 0.62-0.88 0.21-0.31 0.42-0.62 0.14-0.2 0.27-0.4 0.28-0.42 0.55-0.85 0.25-0.39 0.49-0.79 0.11-0.19 0.23-0.38 0.23-0.38 0.46-0.78 0.27-0.47 0.52-0.94 0.19-0.33 0.36-0.66 0.12-0.21 0.22-0.41 0.28-0.55 0.54-1.11 0.28-0.54 0.53-1.1 0.03-0.06 0.06-0.13 0.22-0.5 0.43-1.02 0.22-0.53 0.44-1.06 0.09-0.25 0.18-0.5 0.14-0.39 0.28-0.79 0.19-0.52 0.36-1.04 0.09-0.27 0.17-0.54 0.12-0.42 0.24-0.85 0.17-0.57 0.32-1.15 0.05-0.19 0.1-0.38 0.11-0.49 0.21-0.99 0.18-0.74 0.32-1.5 0.09-0.55 0.17-1.11 0.13-0.79 0.23-1.61 0.05-0.54 0.09-1.1 0.08-0.83 0.13-1.68 0.01-0.05 0.01-0.11 0.01-0.51 0.02-1.02 0.02-0.84 0.02-1.7 0-0.12 0-0.25-0.02-0.49-0.05-0.98-0.03-0.92-0.09-1.86-0.01-0.04-0.01-0.08-0.06-0.56-0.13-1.13-0.09-0.98-0.22-1.97-0.09-0.59-0.2-1.19-0.16-1.02-0.37-2.06-0.13-0.6-0.28-1.21-0.23-1.07-0.51-2.16-0.18-0.64-0.37-1.28-0.3-1.09-0.65-2.21 0 0-0.01-0.01-0.22-0.66-0.46-1.32c-0.26-0.76-0.51-1.51-0.81-2.29-0.18-0.47-0.39-0.97-0.59-1.45-0.3-0.76-0.6-1.51-0.94-2.29-0.22-0.51-0.48-1.04-0.71-1.55-0.36-0.78-0.69-1.54-1.08-2.33-0.31-0.64-0.67-1.3-1.01-1.95-0.35-0.69-0.69-1.37-1.07-2.07q-1.11-2.04-2.36-4.16-1.56-2.66-3.41-5.46-1.16-1.79-2.43-3.62-0.11-0.16-0.22-0.32-1.36-1.95-2.85-3.97c-30.96-41.93 4.58-66.27 36.9-57.36 5.52 1.51 10.95 4.01 15.95 7.56 9.02 6.41 21.8 11.21 36.54 13.4 18.06 2.66 39.06 1.42 59.62-5.61 26.29-8.95 43.86 11.09 42.23 30.29q-0.11 1.31-0.35 2.61-0.05 0.33-0.12 0.65-0.25 1.29-0.63 2.57-0.04 0.14-0.09 0.28-0.41 1.3-0.94 2.56-0.04 0.08-0.07 0.17-1.06 2.46-2.63 4.75-0.05 0.06-0.09 0.13-0.62 0.89-1.33 1.76-0.1 0.13-0.21 0.26z"/>
		</clipPath>
		<linearGradient id="g5" x1="217.7" y1="124.8" x2="255.2" y2="131.2" gradientUnits="userSpaceOnUse">
			<stop offset="0" stop-color="#ffffff"/>
			<stop offset="1" stop-color="#000000"/>
		</linearGradient>
		<linearGradient id="g6" x1="196.5" y1="140.5" x2="225.2" y2="166.6" gradientUnits="userSpaceOnUse">
			<stop offset="0" stop-color="#ffffff"/>
			<stop offset="1" stop-color="#000000"/>
		</linearGradient>
		<linearGradient id="g7" x1="242.3" y1="161.8" x2="209.5" y2="166.3" gradientUnits="userSpaceOnUse">
			<stop offset="0" stop-color="#ffffff"/>
			<stop offset="1" stop-color="#000000"/>
		</linearGradient>
		<linearGradient id="g8" x1="104.9" y1="192.9" x2="100.3" y2="210.5" gradientUnits="userSpaceOnUse">
			<stop offset="0" stop-color="#ffffff"/>
			<stop offset="1" stop-color="#000000"/>
		</linearGradient>
		<linearGradient id="g9" x1="90" y1="216.1" x2="102.6" y2="205.7" gradientUnits="userSpaceOnUse">
			<stop offset="0" stop-color="#ffffff"/>
			<stop offset="1" stop-color="#000000"/>
		</linearGradient>
		<linearGradient id="g10" x1="198.3" y1="49.1" x2="259.3" y2="49.1" gradientUnits="userSpaceOnUse">
			<stop offset="0" stop-color="#ffffff"/>
			<stop offset="1" stop-color="#000000"/>
		</linearGradient>
		<linearGradient id="g11" x1="165.3" y1="18.9" x2="243.1" y2="90.2" gradientUnits="userSpaceOnUse">
			<stop offset="0" stop-color="#ffffff"/>
			<stop offset="1" stop-color="#000000"/>
		</linearGradient>
		<linearGradient id="g12" x1="117.6" y1="64.2" x2="160.4" y2="66" gradientUnits="userSpaceOnUse">
			<stop offset="0" stop-color="#ffffff"/>
			<stop offset="1" stop-color="#000000"/>
		</linearGradient>
		<linearGradient id="g13" x1="166" y1="153.5" x2="203.3" y2="153.5" gradientUnits="userSpaceOnUse">
			<stop offset="0" stop-color="#ffffff"/>
			<stop offset="1" stop-color="#000000"/>
		</linearGradient>
		<linearGradient id="g14" x1="85.1" y1="27.9" x2="101.3" y2="27.9" gradientUnits="userSpaceOnUse">
			<stop offset="0" stop-color="#ffffff"/>
			<stop offset="1" stop-color="#000000"/>
		</linearGradient>
		<linearGradient id="g15" x1="126.7" y1="75.3" x2="142.3" y2="104.6" gradientUnits="userSpaceOnUse">
			<stop offset="0" stop-color="#ffffff"/>
			<stop offset="1" stop-color="#000000"/>
		</linearGradient>
	</defs>
	<style>
		.s0 { fill: url(#g1) } 
		.s1 { opacity: .5;mix-blend-mode: overlay;fill: url(#g2) } 
		.s2 { opacity: .5;mix-blend-mode: overlay;fill: url(#g3) } 
		.s3 { opacity: .5;mix-blend-mode: overlay;fill: url(#g4) } 
		.s4 { fill: #ffffff } 
		.s5 { fill: #7035bb } 
		.s6 { mix-blend-mode: overlay;fill: url(#g5) } 
		.s7 { fill: #ff4777 } 
		.s8 { mix-blend-mode: overlay;fill: url(#g6) } 
		.s9 { mix-blend-mode: overlay;fill: url(#g7) } 
		.s10 { fill: #f3effe } 
		.s11 { mix-blend-mode: overlay;fill: url(#g8) } 
		.s12 { mix-blend-mode: overlay;fill: url(#g9) } 
		.s13 { opacity: .5;mix-blend-mode: overlay;fill: url(#g10) } 
		.s14 { fill: #37174a } 
		.s15 { opacity: .5;mix-blend-mode: overlay;fill: url(#g11) } 
		.s16 { opacity: .5;mix-blend-mode: overlay;fill: url(#g12) } 
		.s17 { opacity: .1;fill: #000000 } 
		.s18 { opacity: .5;mix-blend-mode: overlay;fill: url(#g13) } 
		.s19 { fill: #36164d } 
		.s20 { opacity: .5;mix-blend-mode: overlay;fill: url(#g14) } 
		.s21 { fill: #fbd783 } 
		.s22 { fill: #2a195b } 
		.s23 { opacity: .1;fill: #ffffff } 
		.s24 { opacity: .5;mix-blend-mode: overlay;fill: url(#g15) } 
	</style>
	<g id="Layer 1">
		<g id="&lt;Group&gt;">
			<g id="Resume Recruitment 1 ">
				<g id="&lt;Group&gt;">
					<g id="&lt;Group&gt;">
						<path id="&lt;Path&gt;" class="s0" d="m262.6 53.6c-0.3 4-1.4 8-3.5 11.6-3.2 5.7-8.6 10.6-16.6 13.8-10.3 4.2-17.6 9.3-22.3 15.2-12.6 16-6.3 37.8 13.2 62.3q1.4 1.8 2.6 3.5c21.7 31.6-12.2 48.9-30.7 37.2-19.1-12.1-33.5-0.8-60.3 9.7-26.8 10.6-71.9 10.9-90-18.6-6.5-10.5 0.7-18.5 10.5-27.8q0.2-0.1 0.3-0.3c17.1-16.1 41.3-36.4 14.5-81.5q-1.6-2.6-3.4-5.4-2.5-3.9-5.5-7.9c-31-42 4.6-66.3 36.9-57.4 5.5 1.5 11 4 15.9 7.6 9.1 6.4 21.9 11.2 36.6 13.4 18.1 2.6 39 1.4 59.6-5.6 26.3-9 43.9 11 42.2 30.2z"/>
						<path id="&lt;Path&gt;" class="s1" d="m233.4 156.5c26.8 33.8-9 52.9-28.1 40.7-19.1-12.1-33.5-0.8-60.3 9.7-26.8 10.6-71.9 10.9-90-18.6-18.9-30.6 78.2-39.2 16.4-122.9-31-42 4.6-66.3 36.9-57.4-2.5 6.9-3.4 14.5-2.6 21.7 1.4 12.8 8.9 25.1 20.2 31.3 6.3 3.4 13.5 4.9 20.6 5.8 25.3 3.3 51.5-0.8 74.7-11.5 7-3.3 14-7.3 21.8-7.8 7.1-0.5 13.9 1.9 19.6 6.1-0.8 10.2-7 20.1-20.1 25.4-37.8 15.3-35.9 43.8-9.1 77.5z"/>
						<path id="&lt;Path&gt;" class="s2" d="m220.2 94.2c-12.6 16-6.3 37.8 13.2 62.3 26.8 33.8-9 52.9-28.1 40.7-19.1-12.1-33.5-0.8-60.3 9.7-26.8 10.6-71.9 10.9-90-18.6-6.5-10.5 0.7-18.5 10.5-27.8 17.1-16.1 41.7-36.4 14.8-81.8 4.9-3.8 10.3-6.9 16.4-8.3 12.2-2.8 24.7 1.8 36.4 6.4q9 3.4 18 7c15.9 6.2 34.2 12.3 49.4 4.5 10.6-5.5 17.1-16.8 27.5-22.7 9.4-5.3 21.4-5.2 31.1-0.4-3.2 5.7-8.6 10.6-16.6 13.8-10.3 4.2-17.6 9.3-22.3 15.2z"/>
						<path id="&lt;Path&gt;" class="s3" d="m205.3 197.2c-19.1-12.1-33.5-0.8-60.3 9.7-26.8 10.6-71.9 10.9-90-18.6-6.5-10.5 0.7-18.5 10.5-27.8q0.2-0.1 0.3-0.3 1.3 0.6 2.5 1.2c17.5 7.8 37.3 9.9 56.4 7.7 19.1-2.2 37.6-8.5 55-16.5 5.9-2.8 11.7-5.7 18-6.9 9.8-1.9 20.2 0.6 28.5 5.9 3.6 2.4 6.9 5.2 9.8 8.4 21.7 31.6-12.2 48.9-30.7 37.2z"/>
					</g>
					<g id="&lt;Clip Group&gt;" clip-path="url(#cp1)">
						<g id="&lt;Group&gt;" style="opacity: .5;mix-blend-mode: overlay">
							<g id="&lt;Group&gt;">
								<g id="&lt;Group&gt;">
									<path id="&lt;Compound Path&gt;" fill-rule="evenodd" class="s4" d="m147 114.1l0.7-6v-0.1l5.1-7-0.7 6zm1-5.8l-0.5 4.4 4.1-5.8 0.5-4.4z"/>
								</g>
							</g>
							<g id="&lt;Group&gt;">
								<g id="&lt;Group&gt;">
									<path id="&lt;Compound Path&gt;" fill-rule="evenodd" class="s4" d="m146.5 114.5l1.2-6.6 5.6-7.3-1.2 6.6zm1.5-6.4l-0.9 4.8 4.5-5.9 0.9-4.9z"/>
								</g>
							</g>
							<g id="&lt;Group&gt;">
								<g id="&lt;Group&gt;">
									<path id="&lt;Compound Path&gt;" fill-rule="evenodd" class="s4" d="m146 114.9l1.7-7.2 6.1-7.5-1.7 7.1zm2-6.9l-1.3 5.3 5-6.2 1.2-5.3z"/>
								</g>
							</g>
							<g id="&lt;Group&gt;">
								<g id="&lt;Group&gt;">
									<path id="&lt;Compound Path&gt;" fill-rule="evenodd" class="s4" d="m145.5 115.3l2.3-7.7 6.5-7.8-2.3 7.7zm2.6-7.5l-1.7 5.8 5.4-6.3 1.7-5.8z"/>
								</g>
							</g>
							<g id="&lt;Group&gt;">
								<g id="&lt;Group&gt;">
									<path id="&lt;Compound Path&gt;" fill-rule="evenodd" class="s4" d="m144.9 115.7l2.9-8.3 7.1-8-2.9 8.2zm3.2-8l-2.2 6.3 5.7-6.5 2.2-6.3z"/>
								</g>
							</g>
							<g id="&lt;Group&gt;">
								<g id="&lt;Group&gt;">
									<path id="&lt;Compound Path&gt;" fill-rule="evenodd" class="s4" d="m144.4 116l3.4-8.8 7.6-8.2-3.5 8.8zm3.8-8.5l-2.6 6.8 6.1-6.7 2.7-6.8z"/>
								</g>
							</g>
							<g id="&lt;Group&gt;">
								<g id="&lt;Group&gt;">
									<path id="&lt;Compound Path&gt;" fill-rule="evenodd" class="s4" d="m143.8 116.4l4.1-9.4 8.1-8.3-4.1 9.4zm4.4-9.2l-3.2 7.3 6.6-6.7 3.2-7.3z"/>
								</g>
							</g>
							<g id="&lt;Group&gt;">
								<g id="&lt;Group&gt;">
									<path id="&lt;Compound Path&gt;" fill-rule="evenodd" class="s4" d="m143.2 116.7l4.8-9.9 8.6-8.4-4.8 9.9zm5.1-9.7l-3.8 7.8 7-6.8 3.8-7.8z"/>
								</g>
							</g>
							<g id="&lt;Group&gt;">
								<g id="&lt;Group&gt;">
									<path id="&lt;Compound Path&gt;" fill-rule="evenodd" class="s4" d="m142.6 117l5.5-10.5 9.1-8.4-5.5 10.4zm5.8-10.2l-4.4 8.4 7.5-6.9 4.4-8.4z"/>
								</g>
							</g>
							<g id="&lt;Group&gt;">
								<g id="&lt;Group&gt;">
									<path id="&lt;Compound Path&gt;" fill-rule="evenodd" class="s4" d="m141.9 117.3l6.3-11 9.6-8.5-6.2 11zm6.5-10.7l-5 8.8 7.9-6.9 5-8.9z"/>
								</g>
							</g>
							<g id="&lt;Group&gt;">
								<g id="&lt;Group&gt;">
									<path id="&lt;Compound Path&gt;" fill-rule="evenodd" class="s4" d="m141.3 117.5l7-11.5 10.2-8.5-7 11.5zm7.2-11.2l-5.7 9.4 8.3-6.9 5.7-9.4z"/>
								</g>
							</g>
							<g id="&lt;Group&gt;">
								<g id="&lt;Group&gt;">
									<path id="&lt;Compound Path&gt;" fill-rule="evenodd" class="s4" d="m140.7 117.7l7.8-12 10.6-8.4-7.8 12zm8.1-11.7l-6.5 10 8.7-6.9 6.5-9.9z"/>
								</g>
							</g>
							<g id="&lt;Group&gt;">
								<g id="&lt;Group&gt;">
									<path id="&lt;Compound Path&gt;" fill-rule="evenodd" class="s4" d="m140.1 117.9l8.6-12.5 11-8.2-8.6 12.4zm8.9-12.1l-7.2 10.4 9.1-6.8 7.2-10.4z"/>
								</g>
							</g>
							<g id="&lt;Group&gt;">
								<g id="&lt;Group&gt;">
									<path id="&lt;Compound Path&gt;" fill-rule="evenodd" class="s4" d="m139.5 118l9.4-12.9 11.4-8-9.4 12.9zm9.7-12.6l-8 10.9 9.5-6.6 8-11z"/>
								</g>
							</g>
							<g id="&lt;Group&gt;">
								<g id="&lt;Group&gt;">
									<path id="&lt;Compound Path&gt;" fill-rule="evenodd" class="s4" d="m138.9 118l10.2-13.2 11.8-7.8-10.2 13.3zm10.5-13l-8.8 11.4 9.9-6.4 8.8-11.4z"/>
								</g>
							</g>
							<g id="&lt;Group&gt;">
								<g id="&lt;Group&gt;">
									<path id="&lt;Compound Path&gt;" fill-rule="evenodd" class="s4" d="m138.3 118l11-13.6 12.2-7.4-11 13.6zm11.3-13.3l-9.6 11.8 10.2-6.2 9.6-11.8z"/>
								</g>
							</g>
							<g id="&lt;Group&gt;">
								<g id="&lt;Group&gt;">
									<path id="&lt;Compound Path&gt;" fill-rule="evenodd" class="s4" d="m137.7 118l11.9-14 12.5-6.9-11.9 13.9zm12.1-13.6l-10.4 12.2 10.6-5.9 10.4-12.2z"/>
								</g>
							</g>
							<g id="&lt;Group&gt;">
								<g id="&lt;Group&gt;">
									<path id="&lt;Compound Path&gt;" fill-rule="evenodd" class="s4" d="m137.1 117.9l12.8-14.2 12.8-6.5-12.8 14.2zm13-13.9l-11.3 12.6 10.9-5.5 11.3-12.6z"/>
								</g>
							</g>
							<g id="&lt;Group&gt;">
								<g id="&lt;Group&gt;">
									<path id="&lt;Compound Path&gt;" fill-rule="evenodd" class="s4" d="m136.6 117.7l13.6-14.4 13-6-13.6 14.5zm13.8-14.1l-12.2 12.9 11.2-5.1 12.1-12.9z"/>
								</g>
							</g>
							<g id="&lt;Group&gt;">
								<g id="&lt;Group&gt;">
									<path id="&lt;Compound Path&gt;" fill-rule="evenodd" class="s4" d="m136.1 117.5l14.5-14.6 13.1-5.3-14.5 14.6zm14.7-14.3l-13.1 13.2 11.4-4.6 13.1-13.2z"/>
								</g>
							</g>
							<g id="&lt;Group&gt;">
								<g id="&lt;Group&gt;">
									<path id="&lt;Compound Path&gt;" fill-rule="evenodd" class="s4" d="m135.6 117.2l15.3-14.7 13.3-4.6-15.3 14.7zm15.5-14.4l-14 13.4 11.5-3.9 14-13.4z"/>
								</g>
							</g>
							<g id="&lt;Group&gt;">
								<g id="&lt;Group&gt;">
									<path id="&lt;Compound Path&gt;" fill-rule="evenodd" class="s4" d="m135.2 116.8l16.1-14.8 13.3-3.7-16.2 14.7zm16.4-14.4l-14.9 13.6 11.7-3.3 14.8-13.6z"/>
								</g>
							</g>
							<g id="&lt;Group&gt;">
								<g id="&lt;Group&gt;">
									<path id="&lt;Compound Path&gt;" fill-rule="evenodd" class="s4" d="m134.8 116.3l17-14.7 13.2-2.9-17 14.7zm17.1-14.3l-15.7 13.6 11.7-2.5 15.8-13.6z"/>
								</g>
							</g>
							<g id="&lt;Group&gt;">
								<g id="&lt;Group&gt;">
									<path id="&lt;Compound Path&gt;" fill-rule="evenodd" class="s4" d="m134.4 115.8l17.8-14.6 13.2-1.9-17.8 14.5v0.1zm17.9-14.2l-16.6 13.6 11.7-1.7 16.6-13.6z"/>
								</g>
							</g>
							<g id="&lt;Group&gt;">
								<g id="&lt;Group&gt;">
									<path id="&lt;Compound Path&gt;" fill-rule="evenodd" class="s4" d="m134.1 115.1l0.5-0.4 18.1-13.9 13-0.9-0.5 0.4-18.1 14zm18.7-14l-17.4 13.5 11.6-0.7 17.4-13.5z"/>
								</g>
							</g>
							<g id="&lt;Group&gt;">
								<g id="&lt;Group&gt;">
									<path id="&lt;Compound Path&gt;" fill-rule="evenodd" class="s4" d="m146.6 114.7l-12.7-0.3 0.5-0.4 18.8-13.7 12.7 0.4-0.5 0.3zm-11.5-0.7l11.4 0.3 18.2-13.3-11.4-0.3z"/>
								</g>
							</g>
							<g id="&lt;Group&gt;">
								<g id="&lt;Group&gt;">
									<path id="&lt;Compound Path&gt;" fill-rule="evenodd" class="s4" d="m146.1 115.1h-0.1l-12.3-1.5 20-13.7h0.1l12.3 1.6zm-11.3-1.9l11.2 1.5 18.9-13-11.2-1.5z"/>
								</g>
							</g>
							<g id="&lt;Group&gt;">
								<g id="&lt;Group&gt;">
									<path id="&lt;Compound Path&gt;" fill-rule="evenodd" class="s4" d="m145.5 115.6l-11.9-3 20.7-13.1 11.8 2.9zm-10.9-3.1l10.9 2.7 19.7-12.6-10.9-2.7z"/>
								</g>
							</g>
							<g id="&lt;Group&gt;">
								<g id="&lt;Group&gt;">
									<path id="&lt;Compound Path&gt;" fill-rule="evenodd" class="s4" d="m144.9 116l-11.3-4.4 0.4-0.2 20.8-12.4 11.4 4.5zm-10.5-4.5l10.4 4 20.4-12-10.4-4.1z"/>
								</g>
							</g>
							<g id="&lt;Group&gt;">
								<g id="&lt;Group&gt;">
									<path id="&lt;Compound Path&gt;" fill-rule="evenodd" class="s4" d="m144.3 116.4h-0.1l-10.5-5.9 21.7-11.9 0.1 0.1 10.6 5.9zm-9.8-6l9.8 5.5 21-11.3-9.9-5.5z"/>
								</g>
							</g>
							<g id="&lt;Group&gt;">
								<g id="&lt;Group&gt;">
									<path id="&lt;Compound Path&gt;" fill-rule="evenodd" class="s4" d="m143.7 116.8l-9.9-7.6 22.3-11 9.8 7.6zm-9.1-7.5l9.2 7.1 21.5-10.6-9.2-7.1z"/>
								</g>
							</g>
							<g id="&lt;Group&gt;">
								<g id="&lt;Group&gt;">
									<path id="&lt;Compound Path&gt;" fill-rule="evenodd" class="s4" d="m143.1 117.2l-0.1-0.1-8.9-9.3 0.2-0.1 22.4-9.8 0.1 0.1 8.9 9.2-0.3 0.1zm-8.3-9.2l8.4 8.7 21.9-9.6-8.4-8.7z"/>
								</g>
							</g>
							<g id="&lt;Group&gt;">
								<g id="&lt;Group&gt;">
									<path id="&lt;Compound Path&gt;" fill-rule="evenodd" class="s4" d="m142.4 117.5l-0.1-0.1-7.9-11 23-8.9 0.1 0.1 7.8 11.1zm-7.3-11l7.5 10.5 22.2-8.6-7.5-10.5z"/>
								</g>
							</g>
							<g id="&lt;Group&gt;">
								<g id="&lt;Group&gt;">
									<path id="&lt;Compound Path&gt;" fill-rule="evenodd" class="s4" d="m141.7 117.9l-6.8-13.1 0.2-0.1 23-7.5 6.8 13.1h-0.2zm-6.3-12.8l6.4 12.4 22.5-7.4-6.4-12.3z"/>
								</g>
							</g>
							<g id="&lt;Group&gt;">
								<g id="&lt;Group&gt;">
									<path id="&lt;Compound Path&gt;" fill-rule="evenodd" class="s4" d="m141 118.1l-5.5-15.1h0.2l23.1-6.1 5.5 15.1-0.2 0.1zm-5-14.9l5.2 14.4 22.5-6-5.2-14.3z"/>
								</g>
							</g>
							<g id="&lt;Group&gt;">
								<g id="&lt;Group&gt;">
									<path id="&lt;Compound Path&gt;" fill-rule="evenodd" class="s4" d="m140.3 118.4l-0.1-0.2-4-17 23.3-4.6v0.2l4.1 17zm-3.6-16.9l3.8 16.5 22.6-4.4-3.9-16.5z"/>
								</g>
							</g>
							<g id="&lt;Group&gt;">
								<g id="&lt;Group&gt;">
									<path id="&lt;Compound Path&gt;" fill-rule="evenodd" class="s4" d="m139.6 118.6l-2.5-19.4 23.1-2.8 2.5 19.4zm-2-19l2.3 18.6 22.4-2.7-2.4-18.6z"/>
								</g>
							</g>
							<g id="&lt;Group&gt;">
								<g id="&lt;Group&gt;">
									<path id="&lt;Compound Path&gt;" fill-rule="evenodd" class="s4" d="m138.9 118.8l-0.1-0.2-0.7-21.5h0.2l22.6-0.8v0.2l0.8 21.4h-0.2zm-0.4-21.3l0.8 20.9 22-0.8-0.7-20.9z"/>
								</g>
							</g>
							<g id="&lt;Group&gt;">
								<g id="&lt;Group&gt;">
									<path id="&lt;Compound Path&gt;" fill-rule="evenodd" class="s4" d="m160.5 120.2l-0.2-0.1-22.2-1.2 0.1-0.2 1.1-23.8h0.2l22.1 1.2v0.2zm-21.9-1.6l21.6 1.2 1-23.2-21.6-1.2z"/>
								</g>
							</g>
							<g id="&lt;Group&gt;">
								<g id="&lt;Group&gt;">
									<path id="&lt;Compound Path&gt;" fill-rule="evenodd" class="s4" d="m159.2 122.5l-21.8-3.5 0.1-0.2 3.1-26.3 21.7 3.6v0.2zm-21.3-3.9l21 3.4 3-25.6-21-3.5z"/>
								</g>
							</g>
							<g id="&lt;Group&gt;">
								<g id="&lt;Group&gt;">
									<path id="&lt;Compound Path&gt;" fill-rule="evenodd" class="s4" d="m157.7 125l-0.2-0.1-20.7-5.9 5.3-29 0.2 0.1 20.7 6zm-20.5-6.3l20.2 5.8 5.2-28.1-20.2-5.9z"/>
								</g>
							</g>
							<g id="&lt;Group&gt;">
								<g id="&lt;Group&gt;">
									<path id="&lt;Compound Path&gt;" fill-rule="evenodd" class="s4" d="m156 127.6l-19.9-8.7v-0.2l7.6-31.3 20 8.8v0.1zm-19.5-8.9l19.2 8.4 7.5-30.7-19.3-8.4z"/>
								</g>
							</g>
							<g id="&lt;Group&gt;">
								<g id="&lt;Group&gt;">
									<path id="&lt;Compound Path&gt;" fill-rule="evenodd" class="s4" d="m154.2 130.3l-18.8-11.5 10.2-34.1 18.7 11.6zm-18.2-11.8l18 11.2 10-33.3-18.1-11.1z"/>
								</g>
							</g>
							<g id="&lt;Group&gt;">
								<g id="&lt;Group&gt;">
									<path id="&lt;Compound Path&gt;" fill-rule="evenodd" class="s4" d="m152.1 133.2l-0.2-0.2-17.1-14.5 12.9-36.6 0.2 0.2 17.1 14.4zm-16.9-14.8l16.7 14.1 12.5-35.8-16.6-14.1z"/>
								</g>
							</g>
							<g id="&lt;Group&gt;">
								<g id="&lt;Group&gt;">
									<path id="&lt;Compound Path&gt;" fill-rule="evenodd" class="s4" d="m149.9 136.1l-15.7-17.8 15.7-39.4 15.7 17.9zm-15.3-18l15.1 17.3 15.4-38.6-15.1-17.2z"/>
								</g>
							</g>
							<g id="&lt;Group&gt;">
								<g id="&lt;Group&gt;">
									<path id="&lt;Compound Path&gt;" fill-rule="evenodd" class="s4" d="m147.4 139.2l-0.2-0.3-13.5-21v-0.1l18.6-41.9 0.2 0.3 13.6 21v0.1zm-13.4-21.4l13.3 20.5 18.3-41.1-13.3-20.5z"/>
								</g>
							</g>
							<g id="&lt;Group&gt;">
								<g id="&lt;Group&gt;">
									<path id="&lt;Compound Path&gt;" fill-rule="evenodd" class="s4" d="m144.8 142.3l-0.2-0.3-11.4-24.6v-0.1l21.8-44.6 0.2 0.4 11.4 24.5v0.1zm-11.2-24.9l11.2 24 21.4-43.8-11.2-24z"/>
								</g>
							</g>
							<g id="&lt;Group&gt;">
								<g id="&lt;Group&gt;">
									<path id="&lt;Compound Path&gt;" fill-rule="evenodd" class="s4" d="m141.9 145.5l-9.2-28.6 0.1-0.1 25.1-47.3 9.2 28.7h-0.1zm-8.8-28.6l8.9 27.6 24.7-46.4-8.9-27.6z"/>
								</g>
							</g>
							<g id="&lt;Group&gt;">
								<g id="&lt;Group&gt;">
									<path id="&lt;Compound Path&gt;" fill-rule="evenodd" class="s4" d="m138.9 148.8l-0.1-0.5-6.5-32.1 28.6-50 0.1 0.5 6.5 32.1-0.1 0.1zm-6.1-32.6l6.3 31.5 28-49-6.3-31.4z"/>
								</g>
							</g>
							<g id="&lt;Group&gt;">
								<g id="&lt;Group&gt;">
									<path id="&lt;Compound Path&gt;" fill-rule="evenodd" class="s4" d="m135.6 152.2l-3.6-36.7v-0.1l32.2-52.5 3.6 36.7zm-3.2-36.6l3.4 35.4 31.6-51.5-3.5-35.4z"/>
								</g>
							</g>
							<g id="&lt;Group&gt;">
								<g id="&lt;Group&gt;">
									<path id="&lt;Compound Path&gt;" fill-rule="evenodd" class="s4" d="m132.1 155.6l-0.4-41v-0.1l36-55 0.4 41h-0.1zm0.1-40.9l0.3 39.6 35.2-53.9-0.3-39.6z"/>
								</g>
							</g>
							<g id="&lt;Group&gt;">
								<g id="&lt;Group&gt;">
									<path id="&lt;Compound Path&gt;" fill-rule="evenodd" class="s4" d="m128.4 159l3.1-45.4h0.1l39.8-57.5-3.1 45.3-0.1 0.1zm3.6-45.3l-3.1 43.9 39-56.3 3.1-43.9z"/>
								</g>
							</g>
							<g id="&lt;Group&gt;">
								<g id="&lt;Group&gt;">
									<path id="&lt;Compound Path&gt;" fill-rule="evenodd" class="s4" d="m124.5 162.4l7-49.9 43.8-59.9-7 50zm7.4-49.8l-6.8 48.3 42.9-58.5 6.8-48.3z"/>
								</g>
							</g>
							<g id="&lt;Group&gt;">
								<g id="&lt;Group&gt;">
									<path id="&lt;Compound Path&gt;" fill-rule="evenodd" class="s4" d="m120.4 165.8l11.1-54.6 47.9-62-11.1 54.6zm11.5-54.4l-10.8 52.9 47-60.7 10.7-52.8z"/>
								</g>
							</g>
							<g id="&lt;Group&gt;">
								<g id="&lt;Group&gt;">
									<path id="&lt;Compound Path&gt;" fill-rule="evenodd" class="s4" d="m116.1 169.2l0.2-0.9 15.3-58.4 52.1-64-0.2 0.8-15.3 58.5zm15.9-59.1l-15 57.4 51-62.5 14.9-57.5z"/>
								</g>
							</g>
							<g id="&lt;Group&gt;">
								<g id="&lt;Group&gt;">
									<path id="&lt;Compound Path&gt;" fill-rule="evenodd" class="s4" d="m111.6 172.5l0.3-0.9 19.9-63.2 56.4-65.8-0.3 0.9-19.9 63.2zm20.5-63.9l-19.5 62.2 55.1-64.3 19.6-62.2z"/>
								</g>
							</g>
							<g id="&lt;Group&gt;">
								<g id="&lt;Group&gt;">
									<path id="&lt;Compound Path&gt;" fill-rule="evenodd" class="s4" d="m106.9 175.7l25.2-69 60.8-67.3-25.2 68.9zm25.5-68.7l-24.5 67 59.4-65.9 24.5-67z"/>
								</g>
							</g>
							<g id="&lt;Group&gt;">
								<g id="&lt;Group&gt;">
									<path id="&lt;Compound Path&gt;" fill-rule="evenodd" class="s4" d="m102.1 178.8l0.4-1 30.1-72.9 65.1-68.7-0.4 1-30.1 72.9zm30.8-73.6l-29.6 71.8 63.6-67.1 29.6-71.9z"/>
								</g>
							</g>
							<g id="&lt;Group&gt;">
								<g id="&lt;Group&gt;">
									<path id="&lt;Compound Path&gt;" fill-rule="evenodd" class="s4" d="m97.1 181.8l0.5-1 35.6-77.8 69.5-69.7-0.5 1-35.6 77.7zm36.4-78.5l-35.1 76.7 67.8-68.2 35.2-76.7z"/>
								</g>
							</g>
							<g id="&lt;Group&gt;">
								<g id="&lt;Group&gt;">
									<path id="&lt;Compound Path&gt;" fill-rule="evenodd" class="s4" d="m92 184.6l0.5-1 41.5-82.7 73.8-70.4-0.5 1-41.5 82.6zm42.3-83.4l-40.9 81.6 72.1-68.9 40.9-81.6z"/>
								</g>
							</g>
							<g id="&lt;Group&gt;">
								<g id="&lt;Group&gt;">
									<path id="&lt;Compound Path&gt;" fill-rule="evenodd" class="s4" d="m86.8 187.2l0.5-1 47.6-87.5 78.1-70.8-48.1 88.4zm48.4-88.2l-47 86.4 76.4-69.3 47-86.4z"/>
								</g>
							</g>
							<g id="&lt;Group&gt;">
								<g id="&lt;Group&gt;">
									<path id="&lt;Compound Path&gt;" fill-rule="evenodd" class="s4" d="m81.5 189.6l0.6-1 53.9-92.2 82.3-70.9-0.6 1-53.9 92.2zm54.8-93l-53.3 91.2 80.6-69.4 53.2-91.1z"/>
								</g>
							</g>
							<g id="&lt;Group&gt;">
								<g id="&lt;Group&gt;">
									<path id="&lt;Compound Path&gt;" fill-rule="evenodd" class="s4" d="m76.1 191.7l0.6-1 60.5-96.8 86.5-70.5-0.6 1-60.6 96.8zm61.5-97.6l-59.9 95.8 84.6-69 59.9-95.7z"/>
								</g>
							</g>
							<g id="&lt;Group&gt;">
								<g id="&lt;Group&gt;">
									<path id="&lt;Compound Path&gt;" fill-rule="evenodd" class="s4" d="m70.6 193.5l0.7-1 67.4-101.3 90.5-69.7-0.7 1-67.4 101.4zm68.3-102.1l-66.7 100.3 88.6-68.2 66.7-100.3z"/>
								</g>
							</g>
							<g id="&lt;Group&gt;">
								<g id="&lt;Group&gt;">
									<path id="&lt;Compound Path&gt;" fill-rule="evenodd" class="s4" d="m65.1 195l0.7-1 74.5-105.6 94.3-68.3-0.6 0.9-74.6 105.7zm75.5-106.4l-73.8 104.7 92.4-67 73.8-104.6z"/>
								</g>
							</g>
							<g id="&lt;Group&gt;">
								<g id="&lt;Group&gt;">
									<path id="&lt;Compound Path&gt;" fill-rule="evenodd" class="s4" d="m59.7 196.1l82.5-110.6 97.9-66.6-82.5 110.7zm82.8-110.4l-81.1 108.8 96-65.2 81-108.7z"/>
								</g>
							</g>
							<g id="&lt;Group&gt;">
								<g id="&lt;Group&gt;">
									<path id="&lt;Compound Path&gt;" fill-rule="evenodd" class="s4" d="m54.2 196.8l0.7-0.9 89.4-113.5 101.2-64.2-0.7 0.9-89.3 113.6zm90.3-114.2l-88.6 112.6 99.4-62.9 88.5-112.6z"/>
								</g>
							</g>
							<g id="&lt;Group&gt;">
								<g id="&lt;Group&gt;">
									<path id="&lt;Compound Path&gt;" fill-rule="evenodd" class="s4" d="m48.9 197.1l0.7-0.9 96.9-117 104.4-61.2-0.7 0.8-96.9 117.1zm97.8-117.6l-96.1 116.1 102.4-60 96.2-116.1z"/>
								</g>
							</g>
							<g id="&lt;Group&gt;">
								<g id="&lt;Group&gt;">
									<path id="&lt;Compound Path&gt;" fill-rule="evenodd" class="s4" d="m43.6 196.8l105.4-121 107.2-57.6-0.7 0.8-104.7 120.2zm105.6-120.6l-103.9 119.3 105.2-56.6 103.9-119.3z"/>
								</g>
							</g>
							<g id="&lt;Group&gt;">
								<g id="&lt;Group&gt;">
									<path id="&lt;Compound Path&gt;" fill-rule="evenodd" class="s4" d="m38.5 196l0.7-0.7 112.5-122.9 109.6-53.4-0.7 0.8-112.6 122.9zm113.5-123.4l-111.8 122.1 107.7-52.5 111.7-122z"/>
								</g>
							</g>
							<g id="&lt;Group&gt;">
								<g id="&lt;Group&gt;">
									<path id="&lt;Compound Path&gt;" fill-rule="evenodd" class="s4" d="m33.6 194.7l0.7-0.7 120.4-125.2 111.5-48.5-0.7 0.7-120.4 125.2zm121.3-125.5l-119.7 124.4 109.7-47.7 119.7-124.4z"/>
								</g>
							</g>
							<g id="&lt;Group&gt;">
								<g id="&lt;Group&gt;">
									<path id="&lt;Compound Path&gt;" fill-rule="evenodd" class="s4" d="m28.9 192.7l129-127.5 113-42.9-0.7 0.7-128.3 126.8v0.1zm129.2-127.2l-127.6 126.1 111.2-42.2 127.6-126.1z"/>
								</g>
							</g>
							<g id="&lt;Group&gt;">
								<g id="&lt;Group&gt;">
									<path id="&lt;Compound Path&gt;" fill-rule="evenodd" class="s4" d="m24.5 190.1l0.6-0.6 136.2-128 114-36.6-0.6 0.6-136.2 128.1zm137-128.3l-135.5 127.4 112.3-36 135.5-127.4z"/>
								</g>
							</g>
							<g id="&lt;Group&gt;">
								<g id="&lt;Group&gt;">
									<path id="&lt;Compound Path&gt;" fill-rule="evenodd" class="s4" d="m20.4 186.8l0.6-0.6 143.9-128.5h0.1l114.4-29.4-0.6 0.5-144 128.6zm144.7-128.8l-143.2 128 112.8-29 143.2-127.9z"/>
								</g>
							</g>
							<g id="&lt;Group&gt;">
								<g id="&lt;Group&gt;">
									<path id="&lt;Compound Path&gt;" fill-rule="evenodd" class="s4" d="m16.7 182.7l0.5-0.5 151.7-128.4 114.2-21.5-0.6 0.5-151.6 128.4zm152.3-128.5l-150.9 127.9 112.7-21.2 150.9-127.9z"/>
								</g>
							</g>
							<g id="&lt;Group&gt;">
								<g id="&lt;Group&gt;">
									<path id="&lt;Compound Path&gt;" fill-rule="evenodd" class="s4" d="m13.4 177.8l0.5-0.4 159.1-127.5h0.1l113.3-12.7-0.6 0.4-159 127.5h-0.1zm159.8-127.5l-158.5 127 111.9-12.6 158.5-127z"/>
								</g>
							</g>
							<g id="&lt;Group&gt;">
								<g id="&lt;Group&gt;">
									<path id="&lt;Compound Path&gt;" fill-rule="evenodd" class="s4" d="m10.6 172.1l0.5-0.3 166.3-125.8 111.8-3.1-0.5 0.4-166.3 125.7h-0.1zm166.9-125.7l-165.6 125.3 110.4-3.1 165.7-125.3z"/>
								</g>
							</g>
							<g id="&lt;Group&gt;">
								<g id="&lt;Group&gt;">
									<path id="&lt;Compound Path&gt;" fill-rule="evenodd" class="s4" d="m117.8 172.9h-0.1l-109.3-7.3 173.6-123.5h0.1l109.3 7.4zm-108.3-7.7l108.2 7.3 172.6-122.7-108.2-7.3z"/>
								</g>
							</g>
							<g id="&lt;Group&gt;">
								<g id="&lt;Group&gt;">
									<path id="&lt;Compound Path&gt;" fill-rule="evenodd" class="s4" d="m112.9 176.8l-106.1-18.7 0.4-0.3 179.6-119.5h0.1l106.1 18.7-0.4 0.3zm-105.1-19l105 18.5 179.1-119.1-105-18.5z"/>
								</g>
							</g>
							<g id="&lt;Group&gt;">
								<g id="&lt;Group&gt;">
									<path id="&lt;Compound Path&gt;" fill-rule="evenodd" class="s4" d="m107.9 180.6h-0.1l-102-31 0.4-0.2 185.7-114.9h0.1l102 30.9-0.4 0.3zm-101.1-31.1l101 30.6 185.2-114.6-101-30.6z"/>
								</g>
							</g>
							<g id="&lt;Group&gt;">
								<g id="&lt;Group&gt;">
									<path id="&lt;Compound Path&gt;" fill-rule="evenodd" class="s4" d="m102.6 184.3h-0.1l-96.9-44.1 0.4-0.2 191.2-109.3 0.1 0.1 96.9 44.1-0.4 0.1zm-96.1-44.1l96.1 43.7 190.7-109-96.1-43.7z"/>
								</g>
							</g>
							<g id="&lt;Group&gt;">
								<g id="&lt;Group&gt;">
									<path id="&lt;Compound Path&gt;" fill-rule="evenodd" class="s4" d="m97.1 187.9h-0.1l-90.8-58.2 0.3-0.1 196.1-102.5 0.1 0.1 90.9 58.1-0.3 0.2zm-90.2-58.2l90.2 57.7 195.6-102.2-90.2-57.7z"/>
								</g>
							</g>
							<g id="&lt;Group&gt;">
								<g id="&lt;Group&gt;">
									<path id="&lt;Compound Path&gt;" fill-rule="evenodd" class="s4" d="m91.5 191.4l-0.1-0.1-83.7-73.1 0.3-0.1 200.3-94.5 0.1 0.1 83.7 73.1-0.3 0.1zm-83.1-73l83.2 72.6 199.8-94.3-83.1-72.6z"/>
								</g>
							</g>
							<g id="&lt;Group&gt;">
								<g id="&lt;Group&gt;">
									<path id="&lt;Compound Path&gt;" fill-rule="evenodd" class="s4" d="m85.7 194.7l-0.1-0.1-75.5-89 0.3-0.1 203.7-85.2 0.1 0.1 75.5 89-0.3 0.1zm-74.9-88.9l75 88.4 203.3-85-75-88.4z"/>
								</g>
							</g>
							<g id="&lt;Group&gt;">
								<g id="&lt;Group&gt;">
									<path id="&lt;Compound Path&gt;" fill-rule="evenodd" class="s4" d="m79.7 197.8l-0.1-0.1-66-105.7 0.2-0.1 206.3-74.7 0.1 0.2 66 105.7-0.2 0.1zm-65.5-105.7l65.7 105.2 205.7-74.4-65.7-105.2z"/>
								</g>
							</g>
							<g id="&lt;Group&gt;">
								<g id="&lt;Group&gt;">
									<path id="&lt;Compound Path&gt;" fill-rule="evenodd" class="s4" d="m73.6 200.6l-0.1-0.1-55.4-123.4h0.2l207.9-62.7 55.5 123.5-0.2 0.1zm-55-123.3l55.2 122.8 207.4-62.5-55.2-122.8z"/>
								</g>
							</g>
							<g id="&lt;Group&gt;">
								<g id="&lt;Group&gt;">
									<path id="&lt;Compound Path&gt;" fill-rule="evenodd" class="s4" d="m67.4 203.2l-0.1-0.2-43.5-141.8 208.6-49.4v0.2l43.6 141.9zm-43.1-141.8l43.4 141.3 207.8-49.1-43.4-141.3z"/>
								</g>
							</g>
							<g id="&lt;Group&gt;">
								<g id="&lt;Group&gt;">
									<path id="&lt;Compound Path&gt;" fill-rule="evenodd" class="s4" d="m61.1 205.4v-0.2l-30.4-161.2h0.2l207.8-34.4v0.2l30.4 161.2h-0.2zm-30-161l30.3 160.6 207.2-34.3-30.3-160.6z"/>
								</g>
							</g>
							<g id="&lt;Group&gt;">
								<g id="&lt;Group&gt;">
									<path id="&lt;Compound Path&gt;" fill-rule="evenodd" class="s4" d="m54.8 207.3v-0.2l-15.9-181.4h0.2l205.9-18v0.2l15.9 181.4h-0.2zm-15.5-181.2l15.8 180.8 205.3-17.9-15.8-180.8z"/>
								</g>
							</g>
							<g id="&lt;Group&gt;">
								<g id="&lt;Group&gt;">
									<path id="&lt;Compound Path&gt;" fill-rule="evenodd" class="s4" d="m48.5 6.3h202.8v202.5h-202.8zm0.4 202h202v-201.7h-202z"/>
								</g>
							</g>
						</g>
					</g>
					<g id="&lt;Group&gt;">
						<g id="&lt;Group&gt;">
							<g id="&lt;Group&gt;">
								<g id="&lt;Group&gt;">
									<g id="&lt;Group&gt;">
										<path id="&lt;Path&gt;" class="s5" d="m240.4 160.9c2.4 0.2 9.8-1 9.6 0.7 0 1.3-2.5 6-5.8 9.1-1.3 1.2-2.7 2.2-4.1 2.7-7.2 2.2-11.2 1.1-13.7-1.5-2.3-2.3-2.3-4.1-4-6q-0.3-0.3-0.6-0.5-0.2-0.2-0.3-0.3c-2.4-1.7-6-1.3-8.9-6.7-1.8-3.6-0.3-7.9 1.2-10.4 0.9-1.4 1.8-2.3 2-2 0.3 0.3 0.2 1.3 0.2 2.5 0 2 0 4.6 1.6 5.6 2.7 1.8 2.4 3.2 3.2 1.4 0.7-1.9-1.6-1.8-2.1-5.1q-0.1-0.6 0-1.3c0.2-1.6 1-3.4 2.1-5.1 1.2-2 2.7-3.6 3.7-3.9 2.1-0.6-1 3.3 0.9 6.3q0.7 1 1.3 1.8c1 1.1 1.8 1.5 2.3 1q0.3-0.2 0.4-0.6c0.6-1.6-4.3-9.3-0.3-10.8 4-1.5 7.8-1.5 6.7 0.4-1.1 1.9-3.3 4.9-1.8 5.6 1.6 0.7 2.7-0.2 2.8-2.8 0.2-2.5-0.8-4.6 0.8-5.3 0.4-0.1 1.2-0.3 2.4-0.5 2.4-0.5 6.1-1 8.8-0.8 1.8 0.1 3.1 0.6 3.3 1.6 0.4 2.3 0.8 7.7 0.6 11-0.1 1.4-0.2 2.4-0.6 2.7-1.2 1.3-4.5-2.1-6.2-0.6-1.7 1.4-2.3 3.6 2.3 3.1 4.5-0.4 7.4 0.2 4.2 4.1-3.2 3.9-7.3 3-9.7 2.5-2.5-0.5-4.6 1.8-2.3 2.1z"/>
									</g>
									<g id="&lt;Group&gt;">
										<path id="&lt;Path&gt;" class="s4" d="m247.7 141.2h-0.1c-3.4 2.6-7.1 5.4-10.7 8.6-5.2 4.7-10.3 10-14.5 16.1-3.1 4.5-5.8 9.5-7.7 14.9q0 0.1 0 0.1-0.2 0.3-0.6 0.3-0.1 0-0.2 0c-0.3-0.1-0.4-0.5-0.3-0.8q0-0.1 0-0.1c2-5.6 4.7-10.6 7.9-15.2 3.8-5.5 8.3-10.3 12.9-14.6l0.4-0.4q1.6-1.5 3.3-2.9c3-2.6 6-4.9 8.9-7 0.3-0.2 0.6-0.2 0.8 0.1q0.1 0.1 0.1 0.2c0.1 0.2 0 0.5-0.2 0.7z"/>
									</g>
								</g>
							</g>
							<path id="&lt;Path&gt;" class="s6" d="m238.3 151.6c-1.8 2.4-2.5 5.8-1.6 8.7 1.3 4.1 5.2 6.8 7.5 10.4-1.3 1.2-2.7 2.2-4.1 2.7-7.2 2.2-11.2 1.1-13.7-1.5-2.3-2.3-2.3-4.1-4-6-3.1 4.5-5.8 9.5-7.7 14.9q0 0.1 0 0.1-0.6-0.3-1.1-0.6c2-5.6 4.7-10.6 7.9-15.2-2.4-1.7-6-1.3-8.9-6.7-1.8-3.6-0.3-7.9 1.2-10.4q1.1 0.2 2.2 0.5c0 2 0 4.6 1.6 5.6 2.7 1.8 2.4 3.2 3.2 1.4 0.7-1.9-1.6-1.8-2.1-5.1q-0.1-0.6 0-1.3 2.6 0.6 5.2 1.2c3.5 0.8 7.4 1.5 10.5 0.2q0.7-0.3 1.4-0.8 1.5-1 2.3-2.5c1.4-2.2 1.9-4.9 2.1-7.5 0.1-1.5 0.1-3-0.2-4.5 2.4-0.5 6.1-1 8.8-0.8 1.8 0.1 3.1 0.6 3.3 1.6 0.4 2.3 0.8 7.7 0.6 11q-0.8 0.1-1.6 0.1c-1.7 0-3.4-0.2-5.1 0-3 0.4-5.9 2-7.7 4.5z"/>
						</g>
						<g id="&lt;Group&gt;">
							<g id="&lt;Group&gt;">
								<g id="&lt;Group&gt;">
									<path id="&lt;Path&gt;" class="s7" d="m212.4 182.5c0-1-0.8-2.7-2-4.6-2.1-3.1-5.3-6.8-8.1-9.7-1.9-2.1-3.7-3.7-4.9-4.5-2.8-1.9-5.5-9.4-6.8-13.4q-0.5-1.6-0.8-2.7 11.3 1.8 18.6 9.1c6 6.1 4.8 19.9 4.2 24.4q-0.1 0.9-0.2 1.4z"/>
								</g>
								<path id="&lt;Path&gt;" class="s4" d="m212.6 183.2c-0.3 0.1-0.7-0.1-0.8-0.5q0 0 0 0-0.6-2.4-1.4-4.8-0.4-1.1-0.8-2.2-1.2-3.4-2.6-6.8c-1-2.2-2.1-4.4-3.4-6.4q-0.5-0.9-1.1-1.7c-1-1.5-2.1-2.8-3.4-4 0-0.1-0.1-0.2 0-0.3 0.1-0.1 0.2-0.1 0.3 0 1 0.9 2 1.9 2.8 3q1 1.3 1.9 2.6c1.4 2.1 2.6 4.3 3.6 6.5q1.6 3.3 2.9 6.8 1.1 2.8 2 5.7 0.2 0.6 0.4 1.3c0.1 0.3 0 0.7-0.4 0.8z"/>
							</g>
							<path id="&lt;Path&gt;" class="s8" d="m212.6 183.2c-0.3 0.1-0.7-0.1-0.8-0.5q0 0 0 0-0.6-2.4-1.4-4.8c-2.1-3.1-5.3-6.8-8.1-9.7q0-0.6 0-1.1c0.1-2.1 0.5-4.3 0.2-6.3q-0.1-0.6-0.2-1.2 0-0.1-0.1-0.1c-0.7-2.4-2.6-4.3-4.6-5.9-2-1.6-4.5-3.1-7-3.3q-0.5-1.6-0.8-2.7 11.3 1.8 18.6 9.1c6 6.1 4.8 19.9 4.2 24.4q0.2 0.6 0.4 1.3c0.1 0.3 0 0.7-0.4 0.8z"/>
						</g>
						<g id="&lt;Group&gt;">
							<g id="&lt;Group&gt;">
								<g id="&lt;Group&gt;">
									<path id="&lt;Path&gt;" class="s7" d="m212.9 181.6c1.7-3.3 7.2-13.1 14.1-14.4q8.2-1.6 16.6 2.4-0.7 0.6-1.8 1.5c-2.7 2.1-8 5.8-10.7 5.8-1.1 0-3.1 0.3-5.3 0.8-3.3 0.6-7.1 1.7-9.9 2.8-1.7 0.7-3 1.5-3.5 2.2q0.2-0.4 0.5-1.1z"/>
								</g>
								<path id="&lt;Path&gt;" class="s4" d="m212.1 182.3q0.4-0.4 0.8-0.7 2-1.5 4-2.9 2.5-1.7 5.1-3.2c1.7-1 3.5-2 5.3-2.7q1.3-0.5 2.5-0.9 1.6-0.5 3.3-0.7c0.1 0 0.2 0 0.2 0.1 0 0.1-0.1 0.2-0.1 0.2-1.5 0.2-2.8 0.6-4.2 1.1q-0.7 0.3-1.5 0.7c-1.8 0.8-3.5 1.7-5.2 2.8q-2.5 1.5-4.9 3.3-0.8 0.5-1.5 1.1-1.6 1.2-3.2 2.6 0 0 0 0c-0.2 0.2-0.5 0.1-0.7-0.1-0.2-0.2-0.1-0.6 0.1-0.7z"/>
							</g>
							<path id="&lt;Path&gt;" class="s9" d="m212.1 182.3q0.4-0.4 0.8-0.7c1.7-3.3 7.2-13.1 14.1-14.4q8.2-1.6 16.6 2.4-0.7 0.6-1.8 1.5c-1.8-1-4.1-1.1-6.2-1-2 0.1-4.1 0.5-5.8 1.8q0 0-0.1 0.1-0.4 0.3-0.7 0.6c-1.1 1.3-1.8 2.9-2.7 4.3q-0.3 0.4-0.5 0.8c-3.3 0.6-7.1 1.7-9.9 2.8q-1.6 1.2-3.2 2.6 0 0 0 0c-0.2 0.2-0.5 0.1-0.7-0.1-0.2-0.2-0.1-0.6 0.1-0.7z"/>
						</g>
						<path id="&lt;Path&gt;" class="s10" d="m221.2 165c-1.2 1.7-4 0.1-6.6 2 0.1 1.3 0 2.7-0.5 4.2q-0.2 0.4-0.3 0.9c0.4-0.7 1-1.5 1.9-2 2.5-1.1 4.3 1.9 3.6 2.5-1.3 1.2-3.3-0.6-5.8 0.6-0.5 2.1-0.6 3.9-0.7 5.4 0.3-0.6 0.8-1.5 1.7-1.9 1.9-0.9 3.3 1.4 2.8 1.9-1 0.9-2.6-0.4-4.5 0.5 0 1.7 0.2 2.8 0.2 2.8 0 0.2-0.2 0.4-0.4 0.5q0 0 0 0c-0.2 0-0.4-0.2-0.5-0.4 0-0.1 0-0.6-0.1-1.5-1.7-0.4-3 0.9-4 0.1-0.6-0.5 0.6-2.9 2.6-2.2 0.6 0.3 1.1 0.7 1.4 1.2 0-1.3 0-2.9 0.3-4.7-2.4-0.8-4.2 1-5.5-0.1-0.8-0.5 0.7-3.7 3.3-2.8 1.2 0.5 2 1.5 2.3 2.3q0.3-1.7 0.9-3.4 0.3-1 0.4-2c-3.1-1-5.2 1.5-6.9 0.3-1-0.6 0.6-4.5 3.8-3.6 1.7 0.6 2.8 2.2 3.2 3 0.1-1.7-0.2-3.2-0.8-4.8-3.5-0.2-4.9 2.9-7 2.1-1.2-0.3-0.6-4.8 2.9-4.7 1.8 0.1 3.2 1.3 3.9 2-0.5-1.1-1.1-2.2-1.7-3.4-2.9-0.6-4.6 1.7-6.2 0.8-1-0.5 0.3-4.3 3.3-3.6 0.8 0.2 1.4 0.6 1.9 1.1q-0.6-1.1-1.3-2.4c-0.7-0.7-1.7-2-1.7-3.7 0-3.3 4.3-3.8 4.6-2.7 0.6 1.9-1.8 3.2-2.2 5.9q0.7 1.3 1.3 2.5c0-0.9 0.2-2.4 1.1-3.4 2.1-2.3 5.3 0 4.8 1-0.8 1.7-3.5 0.9-5.5 3q0.9 1.6 1.7 3.1c0.2-1 0.7-2.7 2.1-3.7 2.8-2 5.8 1.4 5 2.3-1.3 1.8-4.1 0.1-6.8 2 0.6 1.4 1.1 2.7 1.3 4.1 0.2-1 0.7-2.4 1.9-3.2 2.7-2 5.5 1.2 4.8 2.1z"/>
					</g>
					<g id="&lt;Group&gt;">
						<g id="&lt;Group&gt;">
							<g id="&lt;Group&gt;">
								<g id="&lt;Group&gt;">
									<path id="&lt;Path&gt;" class="s7" d="m110.2 212.7c-1.3-1.5-5.1-6.4-4.3-10.1q0.9-4.5 4.7-7.9 0.2 0.5 0.4 1.2c0.5 1.8 1.2 5.3 0.7 6.7-0.3 0.5-0.5 1.6-0.8 2.8-0.3 1.8-0.6 4-0.6 5.6 0 1 0.1 1.9 0.3 2.2q-0.2-0.1-0.4-0.5z"/>
								</g>
								<path id="&lt;Path&gt;" class="s4" d="m110.3 213.3q0-0.3-0.1-0.6-0.4-1.3-0.7-2.6-0.3-1.6-0.5-3.2c-0.1-1.1-0.2-2.2-0.2-3.3q0-0.7 0-1.5 0.1-0.9 0.4-1.8 0-0.1 0.1 0 0.1 0 0 0.1c-0.2 0.7-0.2 1.5-0.3 2.3q0 0.4 0 0.9c0.1 1.1 0.2 2.2 0.4 3.2q0.2 1.6 0.6 3.2 0.1 0.5 0.3 1 0.2 1.1 0.6 2.2 0 0 0 0c0 0.1-0.1 0.3-0.2 0.3-0.2 0.1-0.3 0-0.4-0.2z"/>
							</g>
							<path id="&lt;Path&gt;" class="s11" d="m110.3 213.3q0-0.3-0.1-0.6c-1.3-1.5-5.1-6.4-4.3-10.1q0.9-4.5 4.7-7.9 0.2 0.5 0.4 1.2c-0.9 0.7-1.5 1.8-1.8 2.9-0.4 1.1-0.7 2.3-0.4 3.3q0.1 0.1 0.1 0.1 0 0.3 0.1 0.5c0.4 0.8 1.1 1.5 1.6 2.3q0.2 0.2 0.3 0.4c-0.3 1.8-0.6 4-0.6 5.6q0.2 1.1 0.6 2.2 0 0 0 0c0 0.1-0.1 0.3-0.2 0.3-0.2 0.1-0.3 0-0.4-0.2z"/>
						</g>
						<g id="&lt;Group&gt;">
							<g id="&lt;Group&gt;">
								<path id="&lt;Path&gt;" class="s5" d="m110.5 213.2c-0.4 0-1.2 0.2-2.1 0.6-1.5 0.7-3.4 1.9-4.9 3-1 0.7-1.8 1.3-2.2 1.8-1.1 1.1-4.5 1.8-6.4 2.1q-0.7 0.1-1.2 0.2 1.5-4.8 5.2-7.6c3.1-2.2 9.1-0.8 11-0.2q0.4 0.1 0.6 0.1z"/>
								<path id="&lt;Path&gt;" class="s4" d="m110.8 213.2c0 0.2-0.1 0.3-0.2 0.3q0 0 0 0-1.1 0.2-2.2 0.3-0.5 0.1-1 0.2-1.6 0.3-3.2 0.8c-1.1 0.2-2.1 0.6-3.1 1q-0.4 0.2-0.8 0.4c-0.7 0.3-1.4 0.7-2 1.2q-0.1 0-0.1 0-0.1-0.1 0-0.1 0.7-0.6 1.5-1.1 0.6-0.3 1.3-0.7c1-0.4 2-0.8 3.1-1.1q1.6-0.5 3.2-0.8 1.3-0.3 2.6-0.5 0.3-0.1 0.6-0.1c0.2-0.1 0.3 0 0.3 0.2z"/>
							</g>
							<path id="&lt;Path&gt;" class="s12" d="m110.8 213.2c0 0.2-0.1 0.3-0.2 0.3q0 0 0 0-1.1 0.2-2.2 0.3c-1.5 0.7-3.4 1.9-4.9 3q-0.2-0.1-0.4-0.1c-1-0.2-1.9-0.5-2.8-0.5q-0.3 0-0.5 0-0.1 0-0.1 0c-1.1 0.2-2.1 0.9-2.9 1.7-0.8 0.8-1.6 1.7-1.9 2.8q-0.7 0.1-1.2 0.2 1.5-4.8 5.2-7.6c3.1-2.2 9.1-0.8 11-0.2q0.3-0.1 0.6-0.1c0.2-0.1 0.3 0 0.3 0.2z"/>
						</g>
						<path id="&lt;Path&gt;" class="s10" d="m96.7 201c1.4 0 2.6 0.7 3.3 1.3-0.6-1.1-1.1-2.4-1.4-3.8-3.1 0.2-4.2 3-6.2 2.5-1.1-0.3-0.8-4.5 2.5-4.6 1.5 0 2.9 0.9 3.6 1.5q-0.3-1.5-0.5-3.3c-2.7-0.4-4.2 1.8-5.8 1-0.9-0.4 0.1-4 2.9-3.4 1.3 0.2 2.3 1.1 2.8 1.8q-0.2-1.2-0.4-2.6c-1.9-1.8-4.4-1.3-5-3-0.4-1.1 3-3.2 4.9-0.7 0.9 1.2 0.9 2.8 0.9 3.7q0.2 1.3 0.4 2.5c0.1-0.6 0.3-1.3 0.8-1.9 1.8-2.2 4.8-0.2 4.4 0.8-0.6 1.6-3.2 0.9-5 2.9 0.2 1.3 0.4 2.4 0.7 3.5 0.1-0.9 0.5-2.6 1.7-3.6 2.5-2.1 5.5 0.8 4.9 1.7-1.2 1.8-4 0.3-6.4 2.5 0.4 1.5 1.1 2.8 2.2 4-0.2-0.8-0.4-2.7 0.6-4.1 1.8-2.5 5.2-0.5 4.9 0.5-0.6 1.9-3.6 1.2-5.3 3.8q0.6 0.6 1.4 1.2 1.4 0.9 2.6 2c-0.1-0.8-0.2-2 0.4-3 1.4-2.2 4.3-0.7 4.1 0.2-0.4 1.5-2.7 1.2-4.1 3.1 1.3 1.2 2.2 2.4 2.9 3.3 0-0.5 0.1-1.1 0.4-1.6 1.1-1.7 3.4-0.6 3.2 0.1-0.3 1.1-2 1-3 2.2 0.4 0.7 0.7 1.2 0.7 1.2 0.1 0.2 0.1 0.4-0.1 0.5q0 0 0 0c-0.2 0.1-0.4 0.1-0.5-0.1-0.1 0-0.6-0.9-1.6-2.2-1.9 0.5-2.2 2.3-3.5 2.2-0.7 0-1-2.5 1-3 0.9-0.2 1.8 0.2 2.3 0.5-0.9-1.1-2.1-2.4-3.6-3.6-2.5 0.5-3 3-4.6 2.9-0.9-0.1-1.3-3.4 1.2-3.9 1-0.2 1.9 0 2.6 0.4q-0.4-0.3-0.8-0.6c-1.2-0.8-2.1-1.7-2.8-2.8-3 0.1-4.1 2.9-6 2.4-1-0.3-0.8-4.3 2.3-4.4z"/>
					</g>
					<g id="&lt;Group&gt;">
						<g id="&lt;Group&gt;">
							<path id="&lt;Compound Path&gt;" fill-rule="evenodd" class="s5" d="m152.5 15.2c-4.2 0-7.6-3.4-7.6-7.6 0-4.3 3.4-7.7 7.6-7.7 4.3 0 7.7 3.4 7.7 7.7 0 4.2-3.4 7.6-7.7 7.6zm4.9-7.6c0-2.7-2.2-4.9-4.9-4.9-2.7 0-4.8 2.2-4.8 4.9 0 2.7 2.1 4.8 4.8 4.8 2.7 0 4.9-2.1 4.9-4.8z"/>
						</g>
						<g id="&lt;Group&gt;">
							<path id="&lt;Path&gt;" class="s7" d="m168.9 9h-16.4c-0.7 0-1.3-0.7-1.3-1.4 0-0.8 0.6-1.4 1.3-1.4h16.4c0.7 0 1.3 0.6 1.3 1.4 0 0.7-0.6 1.4-1.3 1.4z"/>
						</g>
						<g id="&lt;Group&gt;">
							<path id="&lt;Path&gt;" class="s7" d="m178.4 2.2h-16.3c-0.8 0-1.4-0.6-1.4-1.4 0-0.7 0.6-1.4 1.4-1.4h16.3c0.8 0 1.4 0.7 1.4 1.4 0 0.8-0.6 1.4-1.4 1.4z"/>
						</g>
						<g id="&lt;Group&gt;">
							<path id="&lt;Path&gt;" class="s7" d="m152.5-1.6c-0.7 0-1.3-0.6-1.3-1.4v-6.9c0-0.7 0.6-1.4 1.3-1.4 0.8 0 1.4 0.7 1.4 1.4v6.9c0 0.8-0.6 1.4-1.4 1.4z"/>
						</g>
					</g>
					<g id="&lt;Group&gt;">
						<g id="&lt;Group&gt;">
							<circle id="&lt;Compound Path&gt;" class="s5" cx="171" cy="208.5" r="4.9"/>
						</g>
						<g id="&lt;Group&gt;">
							<path id="&lt;Path&gt;" class="s7" d="m187.3 209.9h-16.3c-0.8 0-1.4-0.6-1.4-1.4 0-0.7 0.6-1.4 1.4-1.4h16.3c0.8 0 1.4 0.7 1.4 1.4 0 0.8-0.6 1.4-1.4 1.4z"/>
						</g>
						<g id="&lt;Group&gt;">
							<path id="&lt;Path&gt;" class="s7" d="m196.9 203.2h-16.3c-0.8 0-1.4-0.6-1.4-1.4 0-0.8 0.6-1.4 1.4-1.4h16.3c0.7 0 1.4 0.6 1.4 1.4 0 0.8-0.7 1.4-1.4 1.4z"/>
						</g>
					</g>
					<g id="&lt;Group&gt;">
						<g id="&lt;Group&gt;">
							<path id="&lt;Path&gt;" class="s5" d="m62.2 108.2h-16.3c-0.8 0-1.4-0.7-1.4-1.4 0-0.8 0.6-1.4 1.4-1.4h16.3c0.8 0 1.4 0.6 1.4 1.4 0 0.7-0.6 1.4-1.4 1.4z"/>
						</g>
						<g id="&lt;Group&gt;">
							<path id="&lt;Path&gt;" class="s5" d="m71.8 101.4h-16.3c-0.8 0-1.4-0.6-1.4-1.4 0-0.7 0.6-1.4 1.4-1.4h16.3c0.7 0 1.4 0.7 1.4 1.4 0 0.8-0.7 1.4-1.4 1.4z"/>
						</g>
					</g>
				</g>
				<g id="Resume Recruitment 2 ">
					<g id="&lt;Group&gt;">
						<path id="&lt;Path&gt;" class="s10" d="m259.3 54.3v7.1c0 1.2-0.6 2.4-1.6 3.1-0.6 0.5-1.5 0.9-2.4 0.9h-51.7c-2.2 0-4-1.8-4-4v-7.1q0-0.5 0.2-1 0-0.2 0.1-0.4c0.5-1.5 2-2.6 3.7-2.6h51.7c2.2 0 4 1.8 4 4z"/>
						<g id="&lt;Group&gt;">
							<path id="&lt;Path&gt;" class="s7" d="m258 56v7.1c0 0.5-0.1 1-0.3 1.4-0.5 1.5-2 2.6-3.7 2.6h-51.7c-2.2 0-4-1.8-4-4v-7.1c0-1 0.5-2 1.2-2.7 0.1-0.2 0.2-0.3 0.4-0.4 0.7-0.6 1.5-0.9 2.4-0.9h51.7c2.2 0 4 1.8 4 4z"/>
							<path id="&lt;Path&gt;" class="s10" d="m227.7 55.1l0.9 2.5c0 0.2 0.2 0.3 0.3 0.3h2.6c0.4 0 0.6 0.5 0.3 0.7l-2.2 1.5c-0.1 0.1-0.1 0.3-0.1 0.4l0.8 2.5c0.1 0.4-0.3 0.7-0.6 0.5l-2.1-1.6c-0.1-0.1-0.3-0.1-0.5 0l-2.1 1.6c-0.3 0.2-0.7-0.1-0.6-0.5l0.8-2.5c0.1-0.1 0-0.3-0.1-0.4l-2.1-1.5c-0.3-0.2-0.2-0.7 0.2-0.7h2.6c0.2 0 0.3-0.1 0.4-0.3l0.8-2.5c0.1-0.3 0.6-0.3 0.7 0z"/>
							<path id="&lt;Path&gt;" class="s10" d="m217.6 55.1l0.8 2.5c0.1 0.2 0.2 0.3 0.4 0.3h2.6c0.4 0 0.5 0.5 0.2 0.7l-2.1 1.5c-0.1 0.1-0.2 0.3-0.1 0.4l0.8 2.5c0.1 0.4-0.3 0.7-0.6 0.5l-2.1-1.6c-0.2-0.1-0.4-0.1-0.5 0l-2.1 1.6c-0.3 0.2-0.7-0.1-0.6-0.5l0.8-2.5c0.1-0.1 0-0.3-0.1-0.4l-2.2-1.5c-0.3-0.2-0.1-0.7 0.3-0.7h2.6c0.2 0 0.3-0.1 0.4-0.3l0.8-2.5c0.1-0.3 0.6-0.3 0.7 0z"/>
							<path id="&lt;Path&gt;" class="s10" d="m207.5 55.1l0.8 2.5c0 0.2 0.2 0.3 0.4 0.3h2.6c0.4 0 0.5 0.5 0.2 0.7l-2.1 1.5c-0.2 0.1-0.2 0.3-0.2 0.4l0.9 2.5c0.1 0.4-0.3 0.7-0.6 0.5l-2.2-1.6c-0.1-0.1-0.3-0.1-0.4 0l-2.1 1.6c-0.3 0.2-0.8-0.1-0.6-0.5l0.8-2.5c0-0.1 0-0.3-0.2-0.4l-2.1-1.5c-0.3-0.2-0.1-0.7 0.2-0.7h2.7c0.1 0 0.3-0.1 0.3-0.3l0.8-2.5c0.2-0.3 0.7-0.3 0.8 0z"/>
							<path id="&lt;Path&gt;" class="s10" d="m238.3 55.1l0.8 2.5c0.1 0.2 0.2 0.3 0.4 0.3h2.6c0.4 0 0.6 0.5 0.3 0.7l-2.2 1.5c-0.1 0.1-0.2 0.3-0.1 0.4l0.8 2.5c0.1 0.4-0.3 0.7-0.6 0.5l-2.1-1.6c-0.1-0.1-0.3-0.1-0.5 0l-2.1 1.6c-0.3 0.2-0.7-0.1-0.6-0.5l0.8-2.5c0.1-0.1 0-0.3-0.1-0.4l-2.1-1.5c-0.3-0.2-0.2-0.7 0.2-0.7h2.6c0.2 0 0.3-0.1 0.4-0.3l0.8-2.5c0.1-0.3 0.6-0.3 0.7 0z"/>
							<path id="&lt;Path&gt;" class="s10" d="m248.5 55.1l0.8 2.5c0 0.2 0.2 0.3 0.3 0.3h2.7c0.3 0 0.5 0.5 0.2 0.7l-2.1 1.5c-0.2 0.1-0.2 0.3-0.2 0.4l0.8 2.5c0.2 0.4-0.3 0.7-0.6 0.5l-2.1-1.6c-0.1-0.1-0.3-0.1-0.4 0l-2.2 1.6c-0.3 0.2-0.7-0.1-0.6-0.5l0.9-2.5c0-0.1 0-0.3-0.2-0.4l-2.1-1.5c-0.3-0.2-0.2-0.7 0.2-0.7h2.6c0.2 0 0.4-0.1 0.4-0.3l0.8-2.5c0.1-0.3 0.6-0.3 0.8 0z"/>
						</g>
						<path id="&lt;Path&gt;" class="s13" d="m259.3 57.5v3.9c0 1.2-0.6 2.4-1.6 3.1-0.5 1.5-2 2.6-3.7 2.6h-51.7c-2.2 0-4-1.8-4-4v-7.1c0-1 0.5-2 1.2-2.7q0.1 0 0.3 0c2.3 0.4 4.7 1.1 6.9 2q0.5 0.2 1 0.4 0.3 0.2 0.7 0.3c1.5 0.7 2.8 1.5 4.3 2.3 1.3 0.7 2.7 1.3 4.2 1.7q1.2 0.3 2.5 0.4c1.9 0.2 3.9 0.2 5.8 0q0.2-0.1 0.3-0.1 2.4-0.2 4.9-0.7 1.7-0.3 3.5-0.8 2.6-0.6 5.1-1.6 0.8-0.2 1.5-0.5c2.1-0.8 4.2-1.8 6.4-2.2 3.8-0.6 7.7 0.4 11.1 2.2q0.6 0.4 1.3 0.8z"/>
					</g>
					<g id="&lt;Group&gt;">
						<path id="&lt;Path&gt;" class="s14" d="m212.4 41.1c-5.1 0-9.8 4.1-10.4 9.2l-10.9 81.3-4 29.1h-74.8l9.4-70.4 5.4-40c0.7-5.1 5.3-9.2 10.4-9.2z"/>
						<path id="&lt;Path&gt;" class="s5" d="m220.3 50.3h-18.4c0.7-5.1 5.4-9.2 10.5-9.2 5 0 8.6 4.1 7.9 9.2z"/>
						<path id="&lt;Path&gt;" class="s15" d="m191.1 131.6l-4 29.1h-74.8l9.4-70.4c3.8-1.1 7.5-2.4 11.1-3.9 4.1-1.7 8.1-3.8 11.1-7.1 6.7-7.3 6.8-18.2 6.4-28.1-0.1-3.3-0.2-6.7 0-10.1h33c-3.6 5.1-6.1 11.1-7.1 17.3-2.2 12.4 0.4 25.2 4 37.3 3.7 11.9 8.4 23.6 10.9 35.9z"/>
					</g>
					<g id="&lt;Group&gt;">
						<path id="&lt;Path&gt;" class="s10" d="m184.5 76l-13.7 102c-0.4 3-3.1 5.4-6.2 5.4h-74.1c-3.1 0-5.2-2.4-4.8-5.4l4.8-36 3.1-23 5.8-43c0.4-3 3.2-5.5 6.2-5.5h74.2c3 0 5.1 2.5 4.7 5.5z"/>
						<path id="&lt;Path&gt;" class="s5" d="m127.9 89.4c-0.6 4.2-3.1 7.8-6.5 10-2.2 1.5-4.8 2.3-7.5 2.3-2.6 0-5-0.8-6.8-2.3-2.8-2.2-4.4-5.9-3.8-10 0.9-6.8 7.1-12.3 13.9-12.3 6.8 0 11.6 5.5 10.7 12.3z"/>
						<path id="&lt;Path&gt;" class="s10" d="m120.9 96.5l-0.1 0.6c-1.9 1.2-4.2 2-6.5 2-2.3 0-4.4-0.8-6-2.1l0.1-0.5c0.3-2.5 2.1-4.6 4.4-5.6-1.5-0.9-2.4-2.7-2.1-4.7 0.4-2.9 3.1-5.3 6-5.3 3 0 5.1 2.4 4.7 5.3-0.3 2-1.7 3.8-3.4 4.7 0.6 0.3 1.2 0.7 1.6 1.2 1 1.2 1.5 2.7 1.3 4.4z"/>
						<path id="&lt;Path&gt;" class="s14" d="m157.1 80.9h-15.7c-1.1 0-1.8-0.9-1.7-1.9 0.2-1 1.1-1.9 2.2-1.9h15.7c1 0 1.7 0.9 1.6 1.9-0.2 1-1.1 1.9-2.1 1.9z"/>
						<path id="&lt;Path&gt;" class="s14" d="m156.2 86.9h-15.7c-1 0-1.7-0.8-1.6-1.8 0.2-1.1 1.1-1.9 2.1-1.9h15.7c1.1 0 1.8 0.8 1.7 1.9-0.2 1-1.1 1.8-2.2 1.8z"/>
						<rect id="&lt;Path&gt;" class="s14" x="136.4" y="96.9" width="35.5" height="8.4" rx=".9"></rect>
						<path id="&lt;Path&gt;" class="s14" d="m166.4 125.9h-65c-1 0-1.7-0.8-1.6-1.9l1-7.2c0.1-1 1.1-1.9 2.1-1.9h64.9c1.1 0 1.8 0.9 1.7 1.9l-1 7.2c-0.1 1.1-1.1 1.9-2.1 1.9z"/>
						<path id="&lt;Path&gt;" class="s14" d="m164 143.7h-65c-1 0-1.7-0.8-1.6-1.9l1-7.2c0.1-1.1 1.1-1.9 2.1-1.9h65c1 0 1.7 0.8 1.6 1.9l-1 7.2c-0.1 1.1-1.1 1.9-2.1 1.9z"/>
						<path id="&lt;Path&gt;" class="s7" d="m160 173.2h-19.3c-1 0-1.8-0.9-1.6-1.9l2.1-16.3c0.2-1 1.1-1.8 2.2-1.8h19.3c1.1 0 1.8 0.8 1.6 1.8l-2.1 16.3c-0.2 1-1.1 1.9-2.2 1.9z"/>
						<rect id="&lt;Path&gt;" class="s14" x="95.5" y="153.2" width="37.7" height="4.5" rx=".9"></rect>
						<rect id="&lt;Path&gt;" class="s14" x="94.5" y="160.9" width="37.7" height="4.5" rx=".9"></rect>
						<rect id="&lt;Path&gt;" class="s14" x="93.4" y="168.6" width="37.7" height="4.5" rx=".9"></rect>
						<path id="&lt;Path&gt;" class="s10" d="m153.1 156.9l0.7 3.8c0.1 0.2 0.3 0.4 0.5 0.4h4c0.6 0 0.7 0.7 0.2 1.1l-3.5 2.3c-0.3 0.1-0.4 0.4-0.3 0.7l0.7 3.7c0.1 0.6-0.6 1-1 0.7l-2.9-2.4c-0.2-0.1-0.5-0.1-0.7 0l-3.5 2.4c-0.5 0.3-1.1-0.1-0.8-0.7l1.7-3.7c0.1-0.3 0.1-0.6-0.1-0.7l-2.9-2.3c-0.4-0.4-0.1-1.1 0.5-1.1h3.9c0.3 0 0.5-0.2 0.6-0.4l1.8-3.8c0.2-0.5 1-0.5 1.1 0z"/>
						<path id="&lt;Path&gt;" class="s16" d="m168.7 70.5c-3.4 2.9-6.5 5.7-8.9 9.9-3.3 5.8-5.2 12.5-5.1 19.1 0.1 7 2.1 13.7 3.3 20.6 1.2 6.8 1.4 14.2-1.7 20.4-1.4 2.7-3.5 5.1-5.1 7.8-2.9 4.9-4.1 10.8-3.4 16.5 0.7 5.8 3.4 11.6 1.9 17.3q-0.1 0.7-0.4 1.3h-50.1c0-0.1 0-0.3 0.1-0.5 2-7.1 10-10.2 16.1-14.5 8.5-6 14.1-15.7 15.5-26 1.4-10.3-1.3-21-7.1-29.6-2.7-4.1-6.1-7.7-8.5-11.9-4.1-7-5.6-15.6-3.6-23.5 0.7-2.4 1.6-4.7 2.8-6.9z"/>
					</g>
					<path id="&lt;Compound Path&gt;" fill-rule="evenodd" class="s17" d="m130.1 104.8c-2 2.8-4.7 4.9-7.7 6-4.2 1.6-8.9 1.5-13.1-0.5l-3.2 4.6q0 0 0 0 0.2 0.3 0.3 0.6c0.2 1.4-1.4 3.2-1.6 3.4 0 2.4-0.1 4.8-0.2 7-0.2 2.4-0.4 4.7-0.7 6.8q-0.2 1.1-0.4 2.1 0 0 0 0c-0.5 2.3-1.2 4.1-2.1 5.6-0.4 0.5-1.9 0.9-3.9 1.2-2.1 0.2-4.6 0.4-7 0.4l3.1-23 1.3-1.1 0.3-0.5c-0.1-0.5-0.2-2.1 0.3-2.2 0.4-0.1 0.4 0.5 0.7 0.7q0.2-0.2 0.5-0.4c0.1-0.7 0.1-1.6 0.8-1.7 0.3 0 0.9 0.2 1.4 0.5q0.1 0 0.2 0l5.2-7.4c-5.6-5.7-6.5-14.8-1.7-21.5 1.7-2.4 3.9-4.2 6.4-5.4q0 0 0-0.1 1.2-0.5 2.4-0.9c4.7-1.4 10.1-0.8 14.5 2.2q0.1 0.1 0.2 0.2c4 2.8 6.4 7.1 7 11.7 0.5 3.9-0.5 8.2-3 11.7zm-8.7-20q0 0 0 0 0 0 0 0zm-0.8-0.3c-2.7-1.1-5.6-1.1-8.2-0.1 2.6-1 5.5-1 8.2 0.1zm-20.9 41.8l-5.7 7.9q-0.2 0.4-0.5 0.7l3.6 0.6z"/>
					<g id="&lt;Group&gt;">
						<path id="&lt;Path&gt;" class="s5" d="m212.4 161.1v21.5c0 1.9-1.6 3.4-3.5 3.4h-39.5c-1.9 0-3.4-1.5-3.4-3.4v-21.5q-0.1-0.2 0-0.4c0.1-0.8 0.5-1.5 1-2 0.6-0.6 1.5-1 2.4-1h39.5c0.7 0 1.4 0.2 2 0.6 0.9 0.6 1.5 1.7 1.5 2.8z"/>
						<path id="&lt;Path&gt;" class="s10" d="m210.9 158.3l-29.1 11.1c-1.6 0.6-3.4 0.3-4.7-0.9l-10.1-9.8c0.6-0.6 1.5-1 2.4-1h39.5c0.7 0 1.4 0.2 2 0.6z"/>
						<path id="&lt;Path&gt;" class="s10" d="m199.1 178.5h8.7v2.1h-8.7z"/>
						<path id="&lt;Path&gt;" class="s10" d="m205.3 182.7h-6.2v-0.9h6.2z"/>
						<path id="&lt;Path&gt;" class="s18" d="m203.4 180c0 2.1-0.2 4.2-1.1 6h-31.1q-0.1-0.6 0.1-1.1c0.2-1.3 0.9-2.5 1.6-3.7 1.4-2.5 2.5-5.2 2.3-8-0.1-2.8-1.4-5.5-3.2-7.6-1.7-2-3.8-3.5-6-4.9 0.1-0.8 0.5-1.5 1-2 0.6-0.6 1.5-1 2.4-1h30.3q-0.3 0.6-0.6 1.3c-1.2 4 1.1 8.1 2.6 12 1 2.9 1.6 6 1.7 9z"/>
					</g>
					<g id="&lt;Group&gt;">
						<path id="&lt;Path&gt;" class="s19" d="m101.3 37c0 4.8-3.9 8.7-8.7 8.7-3.2 0-6-1.8-7.5-4.4-0.7-1.3-1.1-2.7-1.1-4.3 0-4.8 3.9-8.7 8.6-8.7 3.8 0 7.1 2.5 8.2 5.9q0.5 1.3 0.5 2.8z"/>
						<g id="&lt;Group&gt;">
							<path id="&lt;Path&gt;" class="s4" d="m91 42.2q0 0 0 0c-0.3 0-0.6-0.2-0.7-0.4l-2.3-3.4c-0.3-0.4-0.1-0.9 0.3-1.2 0.4-0.3 0.9-0.2 1.2 0.3l1.5 2.3 4.8-6.5c0.3-0.4 0.9-0.5 1.3-0.2 0.4 0.3 0.4 0.8 0.2 1.2l-5.6 7.5c-0.2 0.2-0.4 0.4-0.7 0.4z"/>
						</g>
						<path id="&lt;Path&gt;" class="s20" d="m101.3 37c0 4.8-3.9 8.7-8.7 8.7-3.2 0-6-1.8-7.5-4.4 1.1 0.2 2.4 0.1 3.5-0.4q0.4-0.2 0.8-0.4c0.5-0.3 0.9-0.8 1.3-1.2 0.5-0.7 0.9-1.6 1.1-2.4 0.2-1 0.1-2.2 0.6-3.1 0.6-1.2 2.2-1.8 3.6-1.7 1.4 0.1 2.7 0.8 4 1.5q0.4 0.3 0.8 0.6 0.5 1.3 0.5 2.8z"/>
					</g>
					<g id="&lt;Group&gt;">
						<g id="&lt;Group&gt;">
							<path id="&lt;Path&gt;" class="s4" d="m80.1 131.6c-2.1 0.9-13.3-0.9-16.1-2.9l1.8-6.6 13.1 3.2 12.7-12.4 2.3 1.9q-0.1 0.2-0.2 0.3c-2.9 4.9-6 9.5-9 12.7q0 0 0 0c-1.6 1.7-3.1 3-4.6 3.8z"/>
							<path id="&lt;Path&gt;" class="s21" d="m91.6 112.9q-0.2-2.2 0.3-2.3c0.5-0.1 0.4 0.7 0.9 0.8 0.6 0.1 0-2.1 1.1-2.2 1.1-0.2 3.7 2 3.1 3.5q-0.5 1.4-3.1 2.1z"/>
							<path id="&lt;Path&gt;" class="s17" d="m80.1 131.6c-2.1 0.9-13.3-0.9-16.1-2.9l1.2-4q0.2 0.1 0.4 0.1c1.4 0.5 2.7 1.1 4.1 1.7 2.4 1 5 2 7.6 1.8 3.1-0.3 5.9-2.3 8-4.7 2.1-2.3 3.7-5.1 5.8-7.5 0.5-0.6 1.2-1.3 2.1-1.2q0.3 0.1 0.5 0.2c-2.9 4.9-6 9.5-9 12.7q0 0 0 0c-1.6 1.7-3.1 3-4.6 3.8z"/>
						</g>
						<g id="&lt;Group&gt;">
							<path id="&lt;Path&gt;" class="s21" d="m67.6 218.4q-0.2 0.8 0.1 1.8 0.4 1.1-5 1.5-0.3-1.5 0.6-2.8 0.8-1.4 0.8-2.3z"/>
							<path id="&lt;Path&gt;" class="s14" d="m69.9 154.8c3.1 9.4 4.2 22.9 4.3 28.3 0.1 4.9-3.6 21.1-6.5 35.4-1.3 0.6-3.3 0.4-4-0.6q1.1-25.6 1.1-31.5c0-5.8-5-15.4-6-30.4z"/>
							<path id="&lt;Path&gt;" class="s7" d="m68 220.1c2.2 0.6 6.2 2.7 6.2 4.3-3.9 0.2-8 0-12.2 0q-0.8-1.7 0.3-3.7 3 1 5.7-0.6z"/>
						</g>
						<g id="&lt;Group&gt;">
							<path id="&lt;Path&gt;" class="s21" d="m39.6 214q-0.5 0.6-0.6 1.7 0 1.2-5.1-0.5 0.2-1.5 1.5-2.4 1.3-0.9 1.6-1.8z"/>
							<path id="&lt;Path&gt;" class="s14" d="m64.1 155.7c-0.4 9.9-4.2 22.8-6 28-1.6 4.6-10.8 18.2-18.4 30.4-1.5 0-3.3-0.9-3.6-2q10-23.5 12.1-28.9c2.1-5.5 0.8-16.3 5.2-30.7z"/>
							<path id="&lt;Path&gt;" class="s7" d="m39.3 215.7c1.9 1.5 4.8 4.9 4.3 6.4-3.7-1.4-7.5-3.1-11.3-4.7q-0.1-1.9 1.6-3.3 2.4 2.1 5.4 1.6z"/>
						</g>
						<path id="&lt;Path&gt;" class="s4" d="m71.7 160.7c-1.5 0.3-3.9-0.1-6.5-0.8-5.4-1.5-11.7-4.7-12.9-7.1 5.9-13.5 7.6-28.9 12.8-30.6 4.1-0.7 12.8 2.7 17.1 6.7q0.2 0.2 0.4 0.4-0.8 2.7-1.5 5.4c-0.3 0.9-0.5 1.7-0.8 2.6-2.7 9.5-5.5 18.1-8.6 23.4z"/>
						<g id="&lt;Group&gt;">
							<path id="&lt;Path&gt;" class="s21" d="m71.4 123c1.1-0.9 1-2.3 1.6-3.7l4.5 1.7c-0.5 1.4-0.7 2.6-0.7 4.2-0.6 0.5-5.4-1.2-5.4-2.2z"/>
						</g>
						<g id="&lt;Group&gt;">
							<path id="&lt;Path&gt;" class="s21" d="m70.8 111.1l9.4-0.7c0.4 3.2-0.2 9.2-1.6 11.2-1.3 1.2-3.8 0.5-6.3-0.2z"/>
						</g>
						<path id="&lt;Path&gt;" class="s22" d="m69.4 111.6c-0.2-1.2 0.4-4.7 4.3-4.5 1.1-0.7 3.1-1.8 5.9-0.2 2-0.9 2.9 2.5 1.4 4.9-0.3 1.2-2.2 1.4-4.3 1.5l0.9 2.3-0.6 1c-0.4-0.5-0.9-1-1.4-1.3-0.5 0.4-1 0.9-0.7 1.5 0.1 0.8 1.2 1.5 2.3 2 1.2 0.9-0.2 3.7-2.7 3.3-2.7-0.6-2.9-1-4-1.8-3.2-2.3-3.6-7.6-1.1-8.7z"/>
						<g id="&lt;Group&gt;">
							<path id="&lt;Path&gt;" class="s23" d="m122.1 97.1c-3.6 5.1-10.7 6.3-15.9 2.7-5.2-3.6-6.4-10.8-2.8-15.9 3.7-5.2 10.8-6.4 16-2.8 5.2 3.7 6.4 10.8 2.7 16z"/>
							<path id="&lt;Compound Path&gt;" fill-rule="evenodd" class="s7" d="m129.5 88.4c0.5 4-0.4 8.2-2.9 11.8-4.8 6.7-13.7 8.9-20.9 5.5l-5.3 7.5-5.4 7.6-4.9-3.5 4.5-6.3 0.9-1.3 5.3-7.5c-5.6-5.7-6.5-14.7-1.8-21.4 5.4-7.6 15.9-9.4 23.5-4.1 4.1 2.9 6.5 7.2 7 11.7zm-5.7-1.1c-0.7-2.4-2.2-4.6-4.4-6.2-5.2-3.6-12.3-2.4-16 2.8-3.6 5.1-2.4 12.3 2.8 15.9 5.2 3.6 12.3 2.4 15.9-2.7 2.1-3 2.6-6.5 1.7-9.8z"/>
							<path id="&lt;Path&gt;" class="s19" d="m100.4 113.2c0.3 1.1 0 2.4-0.7 3.4l-9.2 13c-0.8 1-1.8 1.7-3 1.8-1.1 0.2-2.2-0.1-3.2-0.7-2-1.4-2.4-4.2-1-6.2l8.9-12.6 0.3-0.4c0.7-1 1.8-1.6 3-1.8 0.5-0.1 1-0.1 1.5 0q0.9 0.2 1.6 0.7c1 0.7 1.6 1.7 1.8 2.8z"/>
							<path id="&lt;Path&gt;" class="s24" d="m129.5 88.4c0.5 4-0.4 8.2-2.9 11.8-4.8 6.7-13.7 8.9-20.9 5.5l-5.3 7.5c0.3 1.1 0 2.4-0.7 3.4l-9.2 13c-0.8 1-1.8 1.7-3 1.8-1.1 0.2-2.2-0.1-3.2-0.7-2-1.4-2.4-4.2-1-6.2l8.9-12.6q1.2-0.4 2.4-0.9 1.2-0.6 2.4-1.3c2.9-1.7 5.5-4.1 7.4-6.9q1-1.4 1.8-3c1.9-3.4 3.5-6.9 6.4-9.3 3.1-2.6 7.2-3.5 11.2-3.2q0.7 0.1 1.5 0.2c1.1 0.2 2.6 0.5 4.2 0.9z"/>
						</g>
						<g id="&lt;Group&gt;">
							<path id="&lt;Path&gt;" class="s4" d="m97.9 135.7c-1.4 1.8-14.2 1.8-17.6 1.6l0.6-2.6 1.3-5.8 11.4 2 4.7-17.1 2.9 0.4c0 5.9-0.3 11.6-1.3 16q0 0 0 0c-0.5 2.2-1.1 4.1-2 5.5z"/>
							<path id="&lt;Path&gt;" class="s21" d="m98.3 113.8q-1.4-1.8-1-2.2c0.5-0.3 0.8 0.5 1.3 0.3 0.4-0.2-1.1-1.8-0.2-2.5 0.8-0.7 4.2-0.1 4.4 1.5q0.3 1.5-1.6 3.3z"/>
						</g>
						<path id="&lt;Path&gt;" class="s17" d="m97.9 135.7c-1.4 1.8-14.2 1.8-17.6 1.6-2.7 9.5-5.5 18.1-8.6 23.4-1.5 0.3-3.9-0.1-6.5-0.8q0-0.2 0-0.4c0-2.9 1.3-5.8 3.5-7.7 1-0.8 2-1.4 3-2.1 4.1-3.3 5.7-8.8 5.9-14 0-0.9-0.1-1.9-0.9-2.3 1.4 0.6 2.8 1 4.2 1.3q0.1 0 0.2 0c1.5 0.3 3 0.4 4.5 0.5 2.7 0.1 5.5 0.1 8-0.7 2.4-0.7 4.4-2.1 6-3.9q0.1-0.2 0.3-0.4c-0.5 2.2-1.1 4.1-2 5.5z"/>
						<path id="&lt;Path&gt;" class="s17" d="m74.2 224.4c-2.4 0.1-4.9 0.1-7.4 0 1.6-0.1 3.6-0.6 1.6-2.1q-0.9-0.7-1.5-1.3-0.2-0.1-0.3-0.3c-0.5-0.5-0.8-1.1-0.9-1.9-0.1-0.4-0.1-0.9 0-1.4 0-1.2 0.3-2.8 0.8-5 1.6-6.9 7.6-29.2 4.3-37.4q-3.2-8.2-5.6-14.8 3.4 1.6 6.4 0.9c1.8 8.3 2.5 17.7 2.6 22 0.1 4.9-3.6 21.1-6.5 35.4q-0.1 0-0.2 0.1c0 0.3 0 0.9 0.2 1.6q0.1 0 0.3-0.1c2.2 0.7 6.2 2.7 6.2 4.3z"/>
						<path id="&lt;Path&gt;" class="s17" d="m39.5 214.1c-0.2 0.2-0.4 0.8-0.5 1.6q0.2 0 0.3 0c1.9 1.4 4.8 4.9 4.3 6.4-2.3-0.8-4.6-1.8-6.9-2.8 1.6-0.2 2.5-1 1.8-3.2q0-0.1-0.1-0.3-0.2-0.5-0.4-1.1-0.2-0.3-0.1-1 0-0.6 0.3-1.3c3-8.5 22.6-33.1 21.9-44.7q0.7 1.8 1.3 4.7c-1.1 4.7-2.4 8.9-3.3 11.3-1.6 4.6-10.8 18.2-18.4 30.4q-0.1 0-0.2 0z"/>
						<path id="&lt;Path&gt;" class="s17" d="m37.1 223.5c3.6 0 6.5 0.4 6.5 1 0 0.5-2.9 0.9-6.5 0.9-3.5 0-6.5-0.4-6.5-0.9 0-0.6 3-1 6.5-1z"/>
					</g>
				</g>
			</g>
		</g>
	</g>
</svg>