<svg version="1.2" xmlns="http://www.w3.org/2000/svg" viewBox="0 0 300 225" width="1000" height="750">
	<title>Illustration_Candidate Experience-ai</title>
	<defs>
		<linearGradient id="g1" x1="248.4" y1="10.8" x2="281.8" y2="170.3" gradientUnits="userSpaceOnUse">
			<stop offset="0" stop-color="#7035bb"/>
			<stop offset="1" stop-color="#36164d"/>
		</linearGradient>
		<linearGradient id="g2" x1="279.9" y1="95.1" x2="257.7" y2="231.8" gradientUnits="userSpaceOnUse">
			<stop offset="0" stop-color="#ffffff"/>
			<stop offset="1" stop-color="#000000"/>
		</linearGradient>
		<linearGradient id="g3" x1="233" y1="14.7" x2="286.1" y2="197.3" gradientUnits="userSpaceOnUse">
			<stop offset="0" stop-color="#ffffff"/>
			<stop offset="1" stop-color="#000000"/>
		</linearGradient>
		<linearGradient id="g4" x1="271.8" y1="157.5" x2="266.4" y2="207.3" gradientUnits="userSpaceOnUse">
			<stop offset="0" stop-color="#ffffff"/>
			<stop offset="1" stop-color="#000000"/>
		</linearGradient>
		<linearGradient id="g5" x1="250.3" y1="125.5" x2="284.6" y2="131.4" gradientUnits="userSpaceOnUse">
			<stop offset="0" stop-color="#ffffff"/>
			<stop offset="1" stop-color="#000000"/>
		</linearGradient>
		<linearGradient id="g6" x1="231.2" y1="140.1" x2="257.4" y2="163.8" gradientUnits="userSpaceOnUse">
			<stop offset="0" stop-color="#ffffff"/>
			<stop offset="1" stop-color="#000000"/>
		</linearGradient>
		<linearGradient id="g7" x1="272.6" y1="159.3" x2="242.7" y2="163.4" gradientUnits="userSpaceOnUse">
			<stop offset="0" stop-color="#ffffff"/>
			<stop offset="1" stop-color="#000000"/>
		</linearGradient>
		<linearGradient id="g8" x1="49.9" y1="118.7" x2="42.7" y2="145.5" gradientUnits="userSpaceOnUse">
			<stop offset="0" stop-color="#ffffff"/>
			<stop offset="1" stop-color="#000000"/>
		</linearGradient>
		<linearGradient id="g9" x1="26.5" y1="155" x2="45.8" y2="139.2" gradientUnits="userSpaceOnUse">
			<stop offset="0" stop-color="#ffffff"/>
			<stop offset="1" stop-color="#000000"/>
		</linearGradient>
		<clipPath clipPathUnits="userSpaceOnUse" id="cp1">
			<path d="m260.3 174.57q-0.07 0.07-0.14 0.14-0.62 0.58-1.28 1.11-0.14 0.1-0.27 0.2-0.57 0.44-1.16 0.82-0.13 0.09-0.25 0.17-0.69 0.43-1.41 0.8-0.15 0.08-0.31 0.15-0.6 0.3-1.22 0.55-0.17 0.07-0.34 0.13-0.74 0.28-1.49 0.49-0.16 0.04-0.32 0.07-0.64 0.16-1.29 0.27-0.19 0.04-0.38 0.07-0.77 0.11-1.56 0.14-0.14 0-0.28 0-0.67 0.02-1.35-0.03-0.2-0.01-0.4-0.03-0.79-0.07-1.59-0.22-0.1-0.03-0.2-0.05-0.71-0.16-1.41-0.38-0.2-0.07-0.4-0.14-0.79-0.27-1.58-0.63-0.05-0.03-0.1-0.06-0.73-0.36-1.45-0.8-0.19-0.12-0.39-0.25-0.76-0.49-1.51-1.08c-17.77-14.35-16.44-6.96-71.67 24.09-55.23 31.06-100.59-1.78-84.19-27.05q0.37-0.57 0.68-1.13 0.1-0.18 0.19-0.36 0.19-0.36 0.36-0.72 0.1-0.21 0.18-0.43 0.14-0.31 0.25-0.62 0.08-0.22 0.15-0.44 0.09-0.28 0.17-0.57 0.05-0.22 0.1-0.43 0.06-0.28 0.1-0.54 0.03-0.22 0.05-0.43 0.03-0.26 0.04-0.51 0.01-0.21 0-0.42 0-0.25-0.01-0.49-0.02-0.2-0.05-0.4-0.03-0.24-0.07-0.48-0.04-0.19-0.09-0.38-0.06-0.23-0.13-0.46-0.06-0.19-0.13-0.37-0.09-0.23-0.19-0.45-0.07-0.17-0.16-0.35-0.12-0.22-0.24-0.44-0.1-0.17-0.2-0.33-0.15-0.22-0.3-0.43-0.11-0.16-0.23-0.31-0.18-0.22-0.36-0.43-0.12-0.15-0.25-0.29-0.21-0.22-0.44-0.44-0.12-0.13-0.25-0.25-0.26-0.24-0.53-0.47-0.12-0.1-0.23-0.2-0.35-0.29-0.72-0.56-0.06-0.04-0.12-0.09-0.89-0.65-1.9-1.25-0.06-0.04-0.12-0.07-0.45-0.26-0.92-0.52-0.12-0.06-0.23-0.12-0.42-0.23-0.87-0.46-0.14-0.07-0.28-0.14-0.43-0.21-0.87-0.42-0.16-0.07-0.31-0.14-0.44-0.2-0.9-0.4-0.16-0.07-0.32-0.14-0.46-0.2-0.94-0.4-0.15-0.06-0.31-0.13-0.49-0.19-0.98-0.39-0.16-0.06-0.32-0.12-0.52-0.2-1.05-0.39-0.13-0.05-0.26-0.1-0.56-0.21-1.13-0.41-0.12-0.04-0.23-0.08-0.62-0.22-1.24-0.43-0.06-0.02-0.13-0.04c-5.05-1.72-10.61-3.29-15.89-4.97q-0.16-0.05-0.32-0.1-0.46-0.15-0.91-0.3-0.3-0.09-0.59-0.19-0.36-0.12-0.73-0.24-0.37-0.12-0.74-0.25-0.31-0.11-0.63-0.22-0.4-0.13-0.8-0.27-0.28-0.1-0.57-0.2-0.42-0.16-0.84-0.31-0.25-0.09-0.49-0.18-0.45-0.17-0.9-0.34-0.21-0.08-0.43-0.17-0.46-0.18-0.92-0.37-0.19-0.07-0.36-0.15-0.49-0.2-0.97-0.4-0.14-0.07-0.29-0.13-0.51-0.22-1.01-0.45-0.1-0.05-0.2-0.1-0.56-0.25-1.09-0.52-0.04-0.02-0.08-0.04c-3.12-1.56-5.67-3.32-7.33-5.38q-0.01-0.01-0.02-0.03-0.29-0.36-0.54-0.74-0.02-0.03-0.05-0.07-0.23-0.36-0.43-0.73-0.03-0.05-0.05-0.1-0.19-0.36-0.34-0.73-0.03-0.07-0.05-0.13-0.14-0.36-0.25-0.74-0.02-0.07-0.04-0.15-0.1-0.36-0.16-0.74-0.02-0.09-0.03-0.17-0.03-0.15-0.05-0.3 0-0.11 0-0.21-0.06-0.73 0.01-1.51 0.01-0.07 0.02-0.14 0.09-0.86 0.35-1.79 0.29-0.99 0.68-1.92 0.12-0.27 0.25-0.54 0.29-0.65 0.63-1.26 0.16-0.28 0.33-0.56 0.35-0.6 0.75-1.16 0.16-0.24 0.33-0.47 0.52-0.7 1.09-1.35 0.06-0.07 0.13-0.14 0.66-0.74 1.39-1.43 0.14-0.13 0.29-0.26 0.58-0.55 1.21-1.07 0.21-0.17 0.42-0.34 0.6-0.48 1.22-0.93 0.2-0.15 0.4-0.3 0.75-0.54 1.53-1.05 0.05-0.04 0.11-0.08c3.89-2.56 8.2-4.7 12-7.04q0.29-0.18 0.57-0.35 0.47-0.3 0.93-0.61 0.33-0.22 0.66-0.45 0.42-0.28 0.83-0.58 0.38-0.28 0.74-0.56 0.44-0.33 0.85-0.67 0.55-0.46 1.06-0.93 0.26-0.25 0.51-0.51 0.36-0.36 0.69-0.72 0.25-0.28 0.48-0.57 0.31-0.38 0.6-0.77 0.21-0.28 0.4-0.57 0.3-0.47 0.56-0.95 0.14-0.24 0.27-0.49 0.36-0.73 0.63-1.51 0.07-0.22 0.13-0.45 0.18-0.59 0.3-1.22 0.06-0.32 0.1-0.65 0.09-0.58 0.12-1.18 0.02-0.35 0.03-0.71 0-0.66-0.06-1.35-0.01-0.32-0.04-0.65-0.12-1.03-0.36-2.13-0.03-0.11-0.06-0.22-0.24-1.04-0.61-2.15-0.08-0.25-0.17-0.51-0.38-1.08-0.87-2.23-0.07-0.17-0.14-0.33-1.21-2.76-3.15-5.98-0.1-0.15-0.19-0.3-0.88-1.44-1.92-2.98-0.17-0.25-0.35-0.51-1.17-1.71-2.53-3.54c-27.67-37.06 18.71-75.06 54.07-53.6h0.02c4.27 2.59 8.38 6.05 12.17 10.48 35.24 41.13 79.83-22.75 114.17-7.99 8.13 3.49 13.34 9.25 16.1 15.96 3.25 7.86 3.11 17.01 0.37 25.29-2.65 8.14-7.86 15.42-14.79 19.77-19.99 12.55-10.66 27.37 19.56 52.77q1.26 1.06 2.38 2.14 0.26 0.24 0.51 0.48 1.09 1.06 2.05 2.12 0.12 0.13 0.24 0.27 0.85 0.97 1.61 1.93 0.19 0.24 0.38 0.48 0.8 1.05 1.49 2.1 0.14 0.22 0.27 0.44 0.59 0.91 1.09 1.82 0.12 0.22 0.24 0.44 0.55 1.04 1 2.07 0.1 0.25 0.2 0.49 0.4 0.95 0.72 1.9 0.04 0.12 0.08 0.24 0.34 1.06 0.58 2.1 0.04 0.2 0.08 0.39 0.47 2.17 0.54 4.24 0 0.1 0 0.19 0.02 0.28 0.02 0.56 0 1.83-0.29 3.55-0.01 0.1-0.03 0.2-0.33 1.97-0.99 3.78-0.04 0.11-0.08 0.22-0.66 1.78-1.6 3.37-0.07 0.11-0.14 0.23-0.45 0.75-0.96 1.46-0.01 0.02-0.03 0.05-0.53 0.72-1.11 1.39-0.1 0.11-0.21 0.23-0.52 0.58-1.08 1.12z"/>
		</clipPath>
		<linearGradient id="g10" x1="96" y1="72.6" x2="171.8" y2="72.6" gradientUnits="userSpaceOnUse">
			<stop offset="0" stop-color="#ffffff"/>
			<stop offset="1" stop-color="#000000"/>
		</linearGradient>
		<linearGradient id="g11" x1="158.1" y1="119.8" x2="220.6" y2="119.8" gradientUnits="userSpaceOnUse">
			<stop offset="0" stop-color="#ffffff"/>
			<stop offset="1" stop-color="#000000"/>
		</linearGradient>
		<linearGradient id="g12" x1="154.6" y1="24.9" x2="223.5" y2="24.9" gradientUnits="userSpaceOnUse">
			<stop offset="0" stop-color="#ffffff"/>
			<stop offset="1" stop-color="#000000"/>
		</linearGradient>
		<linearGradient id="g13" x1="161.2" y1="63.1" x2="179.8" y2="63.1" gradientUnits="userSpaceOnUse">
			<stop offset="0" stop-color="#ffffff"/>
			<stop offset="1" stop-color="#000000"/>
		</linearGradient>
		<linearGradient id="g14" x1="209.7" y1="112.5" x2="223.7" y2="112.5" gradientUnits="userSpaceOnUse">
			<stop offset="0" stop-color="#ffffff"/>
			<stop offset="1" stop-color="#000000"/>
		</linearGradient>
		<linearGradient id="g15" x1="215.3" y1="19.6" x2="226.8" y2="19.6" gradientUnits="userSpaceOnUse">
			<stop offset="0" stop-color="#ffffff"/>
			<stop offset="1" stop-color="#000000"/>
		</linearGradient>
		<linearGradient id="g16" x1="116.1" y1="106.6" x2="137" y2="106.6" gradientUnits="userSpaceOnUse">
			<stop offset="0" stop-color="#ffffff"/>
			<stop offset="1" stop-color="#000000"/>
		</linearGradient>
		<linearGradient id="g17" x1="106.6" y1="23.7" x2="127.2" y2="23.7" gradientUnits="userSpaceOnUse">
			<stop offset="0" stop-color="#ffffff"/>
			<stop offset="1" stop-color="#000000"/>
		</linearGradient>
		<linearGradient id="g18" x1="121.5" y1="28.3" x2="129.3" y2="44" gradientUnits="userSpaceOnUse">
			<stop offset="0" stop-color="#ffffff"/>
			<stop offset="1" stop-color="#000000"/>
		</linearGradient>
	</defs>
	<style>
		.s0 { fill: url(#g1) } 
		.s1 { opacity: .5;mix-blend-mode: overlay;fill: url(#g2) } 
		.s2 { opacity: .5;mix-blend-mode: overlay;fill: url(#g3) } 
		.s3 { opacity: .5;mix-blend-mode: overlay;fill: url(#g4) } 
		.s4 { fill: #7035bb } 
		.s5 { fill: #ffffff } 
		.s6 { mix-blend-mode: overlay;fill: url(#g5) } 
		.s7 { fill: #ff4777 } 
		.s8 { mix-blend-mode: overlay;fill: url(#g6) } 
		.s9 { mix-blend-mode: overlay;fill: url(#g7) } 
		.s10 { fill: #f3effe } 
		.s11 { mix-blend-mode: overlay;fill: url(#g8) } 
		.s12 { mix-blend-mode: overlay;fill: url(#g9) } 
		.s13 { fill: #36164d } 
		.s14 { opacity: .5;mix-blend-mode: overlay;fill: url(#g10) } 
		.s15 { opacity: .5;mix-blend-mode: overlay;fill: url(#g11) } 
		.s16 { opacity: .5;mix-blend-mode: overlay;fill: url(#g12) } 
		.s17 { opacity: .5;mix-blend-mode: overlay;fill: url(#g13) } 
		.s18 { opacity: .5;mix-blend-mode: overlay;fill: url(#g14) } 
		.s19 { opacity: .1;fill: #000000 } 
		.s20 { fill: #fbd783 } 
		.s21 { fill: #37174a } 
		.s22 { fill: #2a195b } 
		.s23 { opacity: .5;mix-blend-mode: overlay;fill: url(#g15) } 
		.s24 { fill: #efc59c } 
		.s25 { opacity: .5;mix-blend-mode: overlay;fill: url(#g16) } 
		.s26 { opacity: .5;mix-blend-mode: overlay;fill: url(#g17) } 
		.s27 { opacity: .1;fill: #ffffff } 
		.s28 { opacity: .5;mix-blend-mode: overlay;fill: url(#g18) } 
	</style>
	<g id="Layer 1">
		<g id="&lt;Group&gt;">
			<g id="Candidate Experience 2 ">
				<g id="&lt;Group&gt;">
					<g id="&lt;Group&gt;">
						<path id="&lt;Path&gt;" class="s0" d="m266.8 159c0 15.9-16.5 26.7-28.6 17-17.8-14.3-16.4-6.9-71.7 24.1-55.2 31.1-100.5-1.8-84.1-27.1 15.3-23.7-51.9-21.2-53.9-40.2-0.1-1.2 0-2.4 0.4-3.7 5.4-18.7 37.5-17.4 32.8-38.4-1.1-4.9-4.2-11-10-18.8-27.7-37.1 18.7-75.1 54-53.6h0.1c4.2 2.6 8.3 6 12.1 10.5 35.3 41.1 79.9-22.8 114.2-8 8.1 3.5 13.3 9.2 16.1 15.9 3.3 7.9 3.1 17.1 0.4 25.3-2.7 8.2-7.9 15.5-14.8 19.8-20 12.5-10.7 27.4 19.5 52.8 9.7 8.1 13.5 16.8 13.5 24.4z"/>
						<path id="&lt;Path&gt;" class="s1" d="m238.2 176c-17.8-14.3-16.4-6.9-71.7 24.1-55.2 31.1-100.5-1.8-84.1-27.1 16.2-25.1-60.2-20.8-53.5-43.9 6.7-23.1 53.8-15.7 22.8-57.2-27.7-37.1 18.7-75.1 54-53.6q-1.4 2.7-2.5 5.6c-2.5 6.8-3.3 14.3-1.9 21.4 2.9 16.1 15.5 29.6 30.9 35.1 15.3 5.5 33 3.5 47.3-4.3 6.6-3.5 12.5-8.1 19.2-11.5 15.2-7.8 33.8-8.5 49.9-2.6-2.7 8.2-7.9 15.5-14.8 19.8-20 12.5-10.7 27.4 19.5 52.8 30.3 25.4 2.7 55.8-15.1 41.4z"/>
						<path id="&lt;Path&gt;" class="s2" d="m238.2 176c-17.8-14.3-16.4-6.9-71.7 24.1-55.2 31.1-100.5-1.8-84.1-27.1 16.2-25.1-60.2-20.8-53.5-43.9 5.4-18.7 37.5-17.4 32.8-38.4 7.9 5.3 15.7 11.6 24 16.1 24.5 13.2 57.3 8.8 77.5-10.4 13.1-12.5 20.6-29.8 33.6-42.4 13.5-13.3 32.8-19.6 51.4-17.3 3.3 7.9 3.1 17.1 0.4 25.3-2.7 8.2-7.9 15.5-14.8 19.8-20 12.5-10.7 27.4 19.5 52.8 30.3 25.4 2.7 55.8-15.1 41.4z"/>
						<path id="&lt;Path&gt;" class="s3" d="m266.8 159c0 15.9-16.5 26.7-28.6 17-17.8-14.3-16.4-6.9-71.7 24.1-55.2 31.1-100.5-1.8-84.1-27.1 15.3-23.7-51.9-21.2-53.9-40.2 5.3-1.3 10.9-1.4 16.3-1.2 8.3 0.3 16.7 1.2 24.4 4.5 7.8 3.3 14.9 8.1 22.3 12.3 7 3.9 14.4 6.9 21.8 10.2 7.3 3.3 15.6 4.2 23.5 4.7 12.2 0.7 24.4 0.6 36.3-2.2 12.4-2.8 22.3-9.6 33.8-14.6 14.5-6.4 31.7-5.1 45.8 2 5.4 2.8 10 6.3 14.1 10.5z"/>
					</g>
					<g id="&lt;Group&gt;">
						<g id="&lt;Group&gt;">
							<g id="&lt;Group&gt;">
								<g id="&lt;Group&gt;">
									<g id="&lt;Group&gt;">
										<path id="&lt;Path&gt;" class="s4" d="m271 159c2.1 0.2 8.8-0.9 8.7 0.7 0 1.1-2.3 5.4-5.3 8.2-1.2 1.2-2.5 2.1-3.8 2.5-6.5 2-10.1 1-12.4-1.3-2.1-2.2-2.1-3.8-3.7-5.5q-0.2-0.3-0.6-0.5-0.1-0.2-0.2-0.2c-2.2-1.6-5.5-1.2-8.1-6.2-1.7-3.2-0.3-7.2 1.1-9.5 0.8-1.3 1.6-2 1.8-1.8 0.3 0.3 0.2 1.2 0.2 2.3-0.1 1.8-0.1 4.2 1.5 5.1 2.4 1.6 2.1 2.9 2.8 1.2 0.7-1.7-1.4-1.6-1.9-4.6q0-0.5 0-1.1c0.2-1.5 1-3.2 1.9-4.7 1.2-1.8 2.5-3.3 3.4-3.5 1.9-0.6-0.9 2.9 0.9 5.6q0.6 1 1.2 1.7c0.9 1.1 1.6 1.4 2.1 1q0.2-0.2 0.3-0.6c0.5-1.5-3.9-8.5-0.3-9.9 3.6-1.4 7.2-1.3 6.1 0.4-1 1.7-2.9 4.4-1.6 5.1 1.4 0.7 2.4-0.2 2.6-2.5 0.1-2.4-0.8-4.3 0.7-4.9 0.3-0.1 1.1-0.3 2.1-0.5 2.3-0.4 5.7-0.9 8.1-0.7 1.6 0.2 2.8 0.6 3 1.5 0.4 2.1 0.8 7 0.6 10-0.1 1.3-0.3 2.2-0.6 2.5-1.1 1.1-4.1-1.9-5.7-0.6-1.5 1.3-2 3.3 2.1 2.9 4.2-0.4 6.8 0.1 3.9 3.7-2.9 3.6-6.7 2.8-8.9 2.3-2.2-0.5-4.2 1.6-2 1.9z"/>
									</g>
									<g id="&lt;Group&gt;">
										<path id="&lt;Path&gt;" class="s5" d="m277.6 141h-0.1c-3.1 2.4-6.5 5-9.7 7.9-4.8 4.2-9.4 9.1-13.3 14.7-2.8 4.1-5.2 8.6-7 13.6q0 0 0 0.1-0.2 0.3-0.6 0.3 0-0.1-0.1-0.1c-0.3-0.1-0.4-0.4-0.3-0.7q0-0.1 0-0.1c1.8-5.1 4.3-9.7 7.2-13.8 3.4-5.1 7.5-9.5 11.8-13.4l0.3-0.3q1.5-1.4 3.1-2.7c2.7-2.3 5.4-4.5 8-6.4 0.3-0.2 0.6-0.1 0.8 0.1q0.1 0.1 0.1 0.2c0.1 0.2 0 0.5-0.2 0.6z"/>
									</g>
								</g>
							</g>
							<path id="&lt;Path&gt;" class="s6" d="m269 150.5c-1.7 2.2-2.2 5.3-1.4 7.9 1.2 3.8 4.7 6.3 6.8 9.5-1.2 1.2-2.5 2.1-3.8 2.5-6.5 2-10.1 1-12.4-1.3-2.1-2.2-2.1-3.8-3.7-5.5-2.8 4.1-5.2 8.6-7 13.6q0 0 0 0.1-0.5-0.3-1-0.6c1.8-5.1 4.3-9.7 7.2-13.8-2.2-1.6-5.5-1.2-8.1-6.2-1.7-3.2-0.3-7.2 1.1-9.5q1 0.3 2 0.5c-0.1 1.8-0.1 4.2 1.5 5.1 2.4 1.6 2.1 2.9 2.8 1.2 0.7-1.7-1.4-1.6-1.9-4.6q0-0.5 0-1.1 2.4 0.5 4.8 1.1c3.2 0.7 6.7 1.3 9.6 0.1q0.6-0.3 1.2-0.7 1.4-0.9 2.2-2.3c1.2-2 1.6-4.5 1.8-6.8 0.1-1.4 0.1-2.8-0.2-4.2 2.3-0.4 5.7-0.9 8.1-0.7 1.6 0.2 2.8 0.6 3 1.5 0.4 2.1 0.8 7 0.6 10q-0.8 0.1-1.5 0.1c-1.6 0-3.1-0.2-4.7 0-2.7 0.4-5.4 1.8-7 4.1z"/>
						</g>
						<g id="&lt;Group&gt;">
							<g id="&lt;Group&gt;">
								<g id="&lt;Group&gt;">
									<path id="&lt;Path&gt;" class="s7" d="m245.4 178.7c0-0.9-0.7-2.4-1.9-4.2-1.8-2.8-4.7-6.2-7.3-8.9-1.8-1.8-3.4-3.3-4.5-4-2.5-1.8-5-8.6-6.2-12.3q-0.4-1.4-0.7-2.4 10.3 1.6 16.9 8.3c5.5 5.5 4.4 18.1 3.9 22.2q-0.1 0.9-0.2 1.3z"/>
								</g>
								<path id="&lt;Path&gt;" class="s5" d="m245.6 179.3c-0.3 0.1-0.6-0.1-0.7-0.4q0 0 0 0-0.6-2.2-1.4-4.4-0.3-1-0.6-2-1.1-3.1-2.5-6.2c-0.9-2-1.8-4-3-5.9q-0.5-0.7-1-1.5c-0.9-1.3-1.9-2.6-3.1-3.7-0.1 0-0.1-0.2 0-0.2 0-0.1 0.2-0.1 0.2-0.1 1 0.9 1.8 1.8 2.6 2.8q0.9 1.2 1.8 2.4c1.2 1.9 2.3 3.9 3.2 5.9q1.5 3 2.7 6.2 1 2.6 1.8 5.2 0.2 0.6 0.4 1.2c0.1 0.3-0.1 0.6-0.4 0.7z"/>
							</g>
							<path id="&lt;Path&gt;" class="s8" d="m245.6 179.3c-0.3 0.1-0.6-0.1-0.7-0.4q0 0 0 0-0.6-2.2-1.4-4.4c-1.8-2.8-4.7-6.2-7.3-8.9q0-0.5 0-1c0.1-1.9 0.4-3.8 0.2-5.7q-0.1-0.5-0.2-1.1-0.1 0-0.1-0.1c-0.7-2.2-2.4-3.9-4.2-5.3-1.9-1.5-4.1-2.9-6.4-3.1q-0.4-1.4-0.7-2.4 10.3 1.6 16.9 8.3c5.5 5.5 4.4 18.1 3.9 22.2q0.2 0.6 0.4 1.2c0.1 0.3-0.1 0.6-0.4 0.7z"/>
						</g>
						<g id="&lt;Group&gt;">
							<g id="&lt;Group&gt;">
								<g id="&lt;Group&gt;">
									<path id="&lt;Path&gt;" class="s7" d="m245.9 177.9c1.5-3 6.6-11.9 12.8-13.1q7.5-1.5 15.1 2.2-0.6 0.5-1.6 1.3c-2.5 1.9-7.2 5.3-9.8 5.3-1 0-2.8 0.3-4.8 0.7-3 0.6-6.5 1.6-9 2.6-1.6 0.6-2.8 1.3-3.2 1.9q0.2-0.3 0.5-0.9z"/>
								</g>
								<path id="&lt;Path&gt;" class="s5" d="m245.1 178.5q0.4-0.3 0.8-0.6 1.8-1.4 3.6-2.7 2.2-1.5 4.6-2.9c1.6-0.9 3.2-1.8 4.9-2.4q1.1-0.5 2.3-0.9 1.5-0.5 3-0.6c0.1 0 0.1 0 0.2 0.1 0 0.1-0.1 0.2-0.2 0.2-1.3 0.2-2.5 0.5-3.7 1q-0.7 0.3-1.4 0.6c-1.7 0.7-3.2 1.6-4.8 2.5q-2.3 1.5-4.5 3.1-0.6 0.5-1.3 1-1.5 1.1-2.9 2.3 0 0 0 0c-0.2 0.2-0.5 0.1-0.7-0.1-0.1-0.2-0.1-0.5 0.1-0.6z"/>
							</g>
							<path id="&lt;Path&gt;" class="s9" d="m245.1 178.5q0.4-0.3 0.8-0.6c1.5-3 6.6-11.9 12.8-13.1q7.5-1.5 15.1 2.2-0.6 0.5-1.6 1.3c-1.6-0.9-3.7-1-5.6-0.9-1.9 0.1-3.8 0.5-5.3 1.6q-0.1 0.1-0.1 0.1-0.3 0.3-0.6 0.6c-1.1 1.1-1.7 2.6-2.5 3.9q-0.3 0.4-0.5 0.7c-3 0.6-6.5 1.6-9 2.6q-1.5 1.1-2.9 2.3 0 0 0 0c-0.2 0.2-0.5 0.1-0.7-0.1-0.1-0.2-0.1-0.5 0.1-0.6z"/>
						</g>
						<path id="&lt;Path&gt;" class="s10" d="m253.5 162.8c-1.2 1.5-3.7 0-6.1 1.8 0.1 1.2 0 2.4-0.5 3.8q-0.1 0.4-0.2 0.8c0.3-0.6 0.8-1.4 1.7-1.8 2.3-1 3.9 1.7 3.3 2.3-1.2 1.1-3-0.5-5.3 0.6-0.4 1.8-0.6 3.5-0.6 4.9 0.2-0.6 0.7-1.4 1.5-1.8 1.8-0.8 3 1.3 2.5 1.8-0.9 0.8-2.3-0.4-4 0.4 0 1.5 0.1 2.5 0.1 2.5 0 0.3-0.1 0.4-0.3 0.5q0 0 0 0c-0.2 0-0.4-0.2-0.4-0.3 0-0.1-0.1-0.6-0.2-1.4-1.5-0.4-2.7 0.8-3.6 0.1-0.6-0.4 0.5-2.7 2.3-2 0.6 0.2 1 0.6 1.3 1 0-1.1 0.1-2.6 0.3-4.3-2.2-0.7-3.8 1-5 0-0.7-0.5 0.7-3.4 3-2.5 1.1 0.4 1.8 1.3 2.1 2q0.3-1.5 0.8-3.1 0.3-0.9 0.4-1.8c-2.9-0.9-4.7 1.4-6.4 0.3-0.8-0.6 0.7-4.2 3.5-3.3 1.6 0.5 2.6 2 3 2.7 0.1-1.5-0.2-2.9-0.7-4.4-3.2-0.1-4.5 2.7-6.5 2-1-0.4-0.5-4.4 2.7-4.3 1.6 0.1 2.9 1.2 3.6 1.8q-0.7-1.5-1.6-3.1c-2.6-0.5-4.2 1.6-5.7 0.7-0.8-0.5 0.3-3.9 3-3.2 0.7 0.1 1.3 0.5 1.8 1q-0.6-1.1-1.2-2.2c-0.6-0.7-1.5-1.9-1.5-3.4-0.1-3 3.9-3.5 4.2-2.4 0.5 1.7-1.7 2.8-2.1 5.3q0.7 1.2 1.3 2.3c0-0.9 0.1-2.2 1-3.1 1.8-2.1 4.7 0 4.3 0.9-0.7 1.6-3.2 0.8-5 2.7q0.8 1.5 1.5 2.9c0.2-0.9 0.7-2.5 2-3.4 2.5-1.8 5.2 1.2 4.6 2.1-1.2 1.6-3.8 0.1-6.3 1.8 0.6 1.3 1 2.5 1.2 3.7 0.2-0.8 0.7-2.1 1.8-2.9 2.4-1.8 5 1.1 4.4 2z"/>
					</g>
					<g id="&lt;Group&gt;">
						<g id="&lt;Group&gt;">
							<g id="&lt;Group&gt;">
								<g id="&lt;Group&gt;">
									<path id="&lt;Path&gt;" class="s7" d="m56.1 148.5c-2-2.4-7.8-9.8-6.6-15.6q1.5-6.9 7.3-12 0.2 0.7 0.5 1.8c0.8 2.8 2 8.1 1.1 10.2-0.4 0.9-0.8 2.5-1.1 4.4-0.6 2.7-1 6-1.1 8.5 0 1.6 0.2 2.8 0.6 3.4q-0.3-0.2-0.7-0.7z"/>
								</g>
								<path id="&lt;Path&gt;" class="s5" d="m56.4 149.4q-0.2-0.5-0.3-0.9-0.5-2-0.9-4-0.6-2.5-0.9-5c-0.2-1.7-0.4-3.3-0.3-5q0-1.1 0.1-2.3 0.1-1.4 0.5-2.7c0-0.1 0.1-0.1 0.2-0.1 0 0 0.1 0.1 0 0.2-0.3 1.1-0.4 2.3-0.4 3.5q0 0.7 0 1.4c0 1.6 0.2 3.3 0.5 4.9q0.4 2.5 1 4.9 0.1 0.8 0.3 1.5 0.5 1.7 1 3.3 0 0 0 0c0.1 0.2-0.1 0.5-0.3 0.6-0.2 0-0.5-0.1-0.5-0.3z"/>
							</g>
							<path id="&lt;Path&gt;" class="s11" d="m56.4 149.4q-0.2-0.5-0.3-0.9c-2-2.4-7.8-9.8-6.6-15.6q1.5-6.9 7.3-12 0.2 0.7 0.5 1.8c-1.3 1.1-2.2 2.8-2.7 4.5-0.6 1.6-1 3.4-0.5 5q0 0.1 0 0.2 0.1 0.4 0.3 0.7c0.6 1.3 1.6 2.4 2.4 3.5q0.3 0.3 0.5 0.7c-0.6 2.7-1 6-1.1 8.5q0.5 1.7 1 3.3 0 0 0 0c0.1 0.2-0.1 0.5-0.3 0.6-0.2 0-0.5-0.1-0.5-0.3z"/>
						</g>
						<g id="&lt;Group&gt;">
							<g id="&lt;Group&gt;">
								<path id="&lt;Path&gt;" class="s7" d="m56.7 149.2c-0.7-0.1-1.9 0.3-3.4 0.9-2.2 1.1-5.1 2.9-7.3 4.5-1.6 1.1-2.9 2.1-3.5 2.8-1.6 1.7-6.9 2.8-9.7 3.2q-1.2 0.2-1.9 0.3 2.3-7.4 7.9-11.5c4.8-3.5 13.9-1.3 16.9-0.5q0.6 0.2 1 0.3z"/>
								<path id="&lt;Path&gt;" class="s5" d="m57.1 149.2c0 0.2-0.1 0.4-0.4 0.5q0 0 0 0-1.7 0.2-3.4 0.4-0.7 0.2-1.5 0.3-2.4 0.5-4.8 1.1c-1.6 0.5-3.2 1-4.8 1.6q-0.6 0.3-1.2 0.6c-1.1 0.5-2.1 1.1-3 1.9-0.1 0-0.2 0-0.2 0-0.1-0.1-0.1-0.2 0-0.2q1.1-0.9 2.3-1.6 1-0.6 2-1c1.5-0.8 3.1-1.3 4.7-1.8q2.4-0.8 4.9-1.3 2-0.4 4-0.8 0.5 0 0.9-0.1c0.2 0 0.5 0.1 0.5 0.4z"/>
							</g>
							<path id="&lt;Path&gt;" class="s12" d="m57.1 149.2c0 0.2-0.1 0.4-0.4 0.5q0 0 0 0-1.7 0.2-3.4 0.4c-2.2 1.1-5.1 2.9-7.3 4.5q-0.4-0.1-0.8-0.1c-1.4-0.3-2.8-0.8-4.2-0.8q-0.4 0-0.8 0.1-0.1 0-0.1 0c-1.7 0.2-3.1 1.3-4.4 2.5-1.3 1.2-2.5 2.7-2.9 4.3q-1.2 0.2-1.9 0.3 2.3-7.4 7.9-11.5c4.8-3.5 13.9-1.3 16.9-0.5q0.5 0 0.9-0.1c0.2 0 0.5 0.1 0.5 0.4z"/>
						</g>
						<path id="&lt;Path&gt;" class="s10" d="m35.5 130.6c2.1-0.1 3.9 1 5 1.9-0.9-1.7-1.6-3.7-2-5.8-4.8 0.3-6.5 4.6-9.5 3.8-1.7-0.5-1.3-6.8 3.7-7 2.4-0.1 4.5 1.4 5.6 2.3-0.3-1.6-0.6-3.2-0.8-5-4.2-0.7-6.4 2.7-8.9 1.5-1.3-0.7 0.2-6.1 4.5-5.3 2 0.3 3.4 1.8 4.2 2.8q-0.3-1.9-0.6-4c-2.8-2.7-6.7-2-7.7-4.6-0.6-1.6 4.7-4.8 7.6-1 1.4 1.8 1.4 4.2 1.3 5.6q0.3 2 0.6 3.9c0.2-1 0.5-2.1 1.3-3 2.7-3.3 7.4-0.2 6.8 1.2-1.1 2.5-5 1.4-7.7 4.5 0.3 2 0.6 3.7 1.1 5.4 0.1-1.5 0.7-4 2.6-5.6 3.8-3.2 8.4 1.3 7.4 2.7-1.7 2.7-6 0.5-9.8 3.7 0.7 2.3 1.7 4.4 3.3 6.1-0.2-1.2-0.5-4 1-6.1 2.8-3.9 8-0.9 7.5 0.7-0.9 2.9-5.4 1.9-8.1 5.8q0.9 0.9 2.2 1.8c1.4 0.9 2.7 2 3.9 3-0.2-1.1-0.3-3 0.7-4.5 2.1-3.3 6.6-1.1 6.2 0.2-0.6 2.4-4.2 1.9-6.3 4.9 2 1.8 3.5 3.6 4.5 5 0-0.8 0.1-1.7 0.6-2.5 1.6-2.6 5.1-0.8 4.9 0.2-0.5 1.7-3 1.5-4.6 3.4 0.7 1.1 1.1 1.7 1.1 1.8 0.2 0.3 0.1 0.6-0.2 0.8q0 0 0 0c-0.3 0.2-0.7 0.1-0.8-0.2 0 0-0.8-1.4-2.3-3.3-2.9 0.6-3.5 3.5-5.4 3.4-1.1-0.1-1.5-4 1.4-4.6 1.4-0.3 2.8 0.2 3.6 0.7-1.4-1.7-3.2-3.6-5.5-5.5-3.8 0.8-4.5 4.6-7 4.4-1.4-0.1-2-5.1 1.8-6 1.5-0.3 2.9 0.1 3.9 0.6q-0.6-0.4-1.2-0.8c-1.8-1.3-3.2-2.7-4.2-4.3-4.6 0.2-6.3 4.4-9.2 3.6-1.6-0.4-1.2-6.5 3.5-6.6z"/>
					</g>
					<g id="&lt;Group&gt;">
						<g id="&lt;Group&gt;">
							<path id="&lt;Compound Path&gt;" fill-rule="evenodd" class="s4" d="m138.3 22.2c-3.2 0-5.8-2.6-5.8-5.9 0-3.2 2.6-5.8 5.8-5.8 3.3 0 5.9 2.6 5.9 5.8 0 3.3-2.6 5.9-5.9 5.9zm3.7-5.9c0-2-1.6-3.7-3.7-3.7-2 0-3.7 1.7-3.7 3.7 0 2.1 1.7 3.7 3.7 3.7 2.1 0 3.7-1.6 3.7-3.7z"/>
						</g>
						<g id="&lt;Group&gt;">
							<path id="&lt;Path&gt;" class="s7" d="m150.8 17.4h-12.5c-0.6 0-1-0.5-1-1.1 0-0.6 0.4-1 1-1h12.5c0.5 0 1 0.4 1 1 0 0.6-0.5 1.1-1 1.1z"/>
						</g>
						<g id="&lt;Group&gt;">
							<path id="&lt;Path&gt;" class="s7" d="m158 12.3h-12.4c-0.6 0-1.1-0.5-1.1-1.1 0-0.6 0.5-1.1 1.1-1.1h12.4c0.6 0 1.1 0.5 1.1 1.1 0 0.6-0.5 1.1-1.1 1.1z"/>
						</g>
						<g id="&lt;Group&gt;">
							<path id="&lt;Path&gt;" class="s7" d="m138.3 9.3c-0.6 0-1-0.5-1-1v-5.3c0-0.6 0.4-1 1-1 0.6 0 1.1 0.4 1.1 1v5.3c0 0.5-0.5 1-1.1 1z"/>
						</g>
					</g>
					<g id="&lt;Group&gt;">
						<g id="&lt;Group&gt;">
							<circle id="&lt;Compound Path&gt;" class="s4" cx="208.3" cy="192.4" r="3.7"/>
						</g>
						<g id="&lt;Group&gt;">
							<path id="&lt;Path&gt;" class="s7" d="m220.8 193.5h-12.5c-0.5 0-1-0.5-1-1.1 0-0.6 0.5-1.1 1-1.1h12.5c0.6 0 1 0.5 1 1.1 0 0.6-0.4 1.1-1 1.1z"/>
						</g>
						<g id="&lt;Group&gt;">
							<path id="&lt;Path&gt;" class="s7" d="m228.1 188.3h-12.5c-0.6 0-1-0.4-1-1 0-0.6 0.4-1.1 1-1.1h12.5c0.5 0 1 0.5 1 1.1 0 0.6-0.5 1-1 1z"/>
						</g>
					</g>
					<g id="&lt;Clip Group&gt;" clip-path="url(#cp1)">
						<g id="&lt;Group&gt;" style="opacity: .6;mix-blend-mode: overlay">
							<g id="&lt;Group&gt;">
								<g id="&lt;Group&gt;">
									<path id="&lt;Compound Path&gt;" fill-rule="evenodd" class="s5" d="m147.5 109.6l0.7-6.2 5.2-7.3-0.7 6.2v0.1zm1-6.1l-0.5 4.6 4.3-6 0.5-4.5z"/>
								</g>
							</g>
							<g id="&lt;Group&gt;">
								<g id="&lt;Group&gt;">
									<path id="&lt;Compound Path&gt;" fill-rule="evenodd" class="s5" d="m147 110l1.2-6.8 5.7-7.5-1.2 6.8zm1.5-6.6l-0.8 5 4.6-6.2 0.9-5z"/>
								</g>
							</g>
							<g id="&lt;Group&gt;">
								<g id="&lt;Group&gt;">
									<path id="&lt;Compound Path&gt;" fill-rule="evenodd" class="s5" d="m146.4 110.5l1.8-7.4 6.2-7.8-1.7 7.3zm2.1-7.1l-1.3 5.5 5-6.4 1.3-5.5z"/>
								</g>
							</g>
							<g id="&lt;Group&gt;">
								<g id="&lt;Group&gt;">
									<path id="&lt;Compound Path&gt;" fill-rule="evenodd" class="s5" d="m145.9 110.9l2.3-8 6.8-8-2.4 7.9zm2.7-7.7l-1.7 6 5.5-6.6 1.7-5.9z"/>
								</g>
							</g>
							<g id="&lt;Group&gt;">
								<g id="&lt;Group&gt;">
									<path id="&lt;Compound Path&gt;" fill-rule="evenodd" class="s5" d="m145.3 111.3l3-8.6 7.3-8.2-3 8.5zm3.3-8.3l-2.3 6.5 6-6.7 2.2-6.5z"/>
								</g>
							</g>
							<g id="&lt;Group&gt;">
								<g id="&lt;Group&gt;">
									<path id="&lt;Compound Path&gt;" fill-rule="evenodd" class="s5" d="m144.7 111.6l3.6-9.1 7.8-8.4-3.5 9.1zm3.9-8.9l-2.8 7.1 6.4-6.9 2.7-7z"/>
								</g>
							</g>
							<g id="&lt;Group&gt;">
								<g id="&lt;Group&gt;">
									<path id="&lt;Compound Path&gt;" fill-rule="evenodd" class="s5" d="m144.1 112l4.3-9.7 8.4-8.6-4.3 9.7zm4.6-9.4l-3.3 7.5 6.8-6.9 3.3-7.6z"/>
								</g>
							</g>
							<g id="&lt;Group&gt;">
								<g id="&lt;Group&gt;">
									<path id="&lt;Compound Path&gt;" fill-rule="evenodd" class="s5" d="m143.5 112.3l5-10.2 8.9-8.7-5 10.2zm5.3-9.9l-3.9 8 7.2-7 3.9-8.1z"/>
								</g>
							</g>
							<g id="&lt;Group&gt;">
								<g id="&lt;Group&gt;">
									<path id="&lt;Compound Path&gt;" fill-rule="evenodd" class="s5" d="m142.9 112.6l5.7-10.8 9.4-8.7-5.7 10.8zm6-10.5l-4.5 8.6 7.6-7.1 4.6-8.7z"/>
								</g>
							</g>
							<g id="&lt;Group&gt;">
								<g id="&lt;Group&gt;">
									<path id="&lt;Compound Path&gt;" fill-rule="evenodd" class="s5" d="m142.2 112.9l6.5-11.3 9.9-8.8-6.4 11.4zm6.7-11.1l-5.2 9.2 8.2-7.2 5.2-9.2z"/>
								</g>
							</g>
							<g id="&lt;Group&gt;">
								<g id="&lt;Group&gt;">
									<path id="&lt;Compound Path&gt;" fill-rule="evenodd" class="s5" d="m141.6 113.2l7.2-11.9 10.5-8.7-7.3 11.8zm7.6-11.5l-5.9 9.7 8.5-7.2 5.9-9.7z"/>
								</g>
							</g>
							<g id="&lt;Group&gt;">
								<g id="&lt;Group&gt;">
									<path id="&lt;Compound Path&gt;" fill-rule="evenodd" class="s5" d="m140.9 113.4l8.1-12.4 10.9-8.6-8 12.3zm8.3-12l-6.6 10.2 9-7.1 6.6-10.2z"/>
								</g>
							</g>
							<g id="&lt;Group&gt;">
								<g id="&lt;Group&gt;">
									<path id="&lt;Compound Path&gt;" fill-rule="evenodd" class="s5" d="m140.3 113.5l8.9-12.8 11.4-8.5-8.9 12.8zm9.1-12.5l-7.4 10.8 9.4-7 7.5-10.8z"/>
								</g>
							</g>
							<g id="&lt;Group&gt;">
								<g id="&lt;Group&gt;">
									<path id="&lt;Compound Path&gt;" fill-rule="evenodd" class="s5" d="m139.7 113.6l9.7-13.3 11.8-8.2-9.7 13.3zm10-13l-8.3 11.3 9.9-6.9 8.2-11.3z"/>
								</g>
							</g>
							<g id="&lt;Group&gt;">
								<g id="&lt;Group&gt;">
									<path id="&lt;Compound Path&gt;" fill-rule="evenodd" class="s5" d="m139 113.7l10.6-13.7 12.2-8-10.5 13.7zm10.8-13.4l-9.1 11.8 10.3-6.7 9-11.7z"/>
								</g>
							</g>
							<g id="&lt;Group&gt;">
								<g id="&lt;Group&gt;">
									<path id="&lt;Compound Path&gt;" fill-rule="evenodd" class="s5" d="m138.4 113.7l11.4-14.1 12.6-7.6-11.4 14.1zm11.7-13.8l-9.9 12.2 10.6-6.4 9.9-12.2z"/>
								</g>
							</g>
							<g id="&lt;Group&gt;">
								<g id="&lt;Group&gt;">
									<path id="&lt;Compound Path&gt;" fill-rule="evenodd" class="s5" d="m137.8 113.7l12.3-14.4 12.9-7.2-12.3 14.4zm12.6-14.1l-10.8 12.6 10.9-6.1 10.8-12.6z"/>
								</g>
							</g>
							<g id="&lt;Group&gt;">
								<g id="&lt;Group&gt;">
									<path id="&lt;Compound Path&gt;" fill-rule="evenodd" class="s5" d="m137.2 113.6l13.2-14.7 13.2-6.7-13.2 14.7zm13.4-14.4l-11.6 13 11.2-5.7 11.7-13z"/>
								</g>
							</g>
							<g id="&lt;Group&gt;">
								<g id="&lt;Group&gt;">
									<path id="&lt;Compound Path&gt;" fill-rule="evenodd" class="s5" d="m136.7 113.4l14.1-14.9 13.4-6.2-14.1 15zm14.3-14.6l-12.6 13.3 11.5-5.2 12.6-13.4z"/>
								</g>
							</g>
							<g id="&lt;Group&gt;">
								<g id="&lt;Group&gt;">
									<path id="&lt;Compound Path&gt;" fill-rule="evenodd" class="s5" d="m136.2 113.1l14.9-15 13.6-5.5-15 15.1zm15.2-14.8l-13.5 13.7 11.7-4.8 13.5-13.6z"/>
								</g>
							</g>
							<g id="&lt;Group&gt;">
								<g id="&lt;Group&gt;">
									<path id="&lt;Compound Path&gt;" fill-rule="evenodd" class="s5" d="m135.7 112.8l15.8-15.2 13.7-4.7-15.8 15.2zm16-14.8l-14.4 13.8 11.9-4.1 14.4-13.8z"/>
								</g>
							</g>
							<g id="&lt;Group&gt;">
								<g id="&lt;Group&gt;">
									<path id="&lt;Compound Path&gt;" fill-rule="evenodd" class="s5" d="m135.2 112.4l16.7-15.2 13.7-3.9-16.7 15.2zm16.9-14.8l-15.3 14 12-3.4 15.3-14z"/>
								</g>
							</g>
							<g id="&lt;Group&gt;">
								<g id="&lt;Group&gt;">
									<path id="&lt;Compound Path&gt;" fill-rule="evenodd" class="s5" d="m134.8 111.9l17.6-15.1 13.6-3-17.5 15.2zm17.7-14.8l-16.2 14 12-2.6 16.3-14z"/>
								</g>
							</g>
							<g id="&lt;Group&gt;">
								<g id="&lt;Group&gt;">
									<path id="&lt;Compound Path&gt;" fill-rule="evenodd" class="s5" d="m134.5 111.4l18.3-15.1 13.6-1.9-18.3 15h-0.1zm18.5-14.6l-17.1 14 12.1-1.7 17.1-14.1z"/>
								</g>
							</g>
							<g id="&lt;Group&gt;">
								<g id="&lt;Group&gt;">
									<path id="&lt;Compound Path&gt;" fill-rule="evenodd" class="s5" d="m134.2 110.7l0.5-0.4 18.6-14.4 13.4-0.9-0.5 0.4-18.6 14.4zm19.3-14.4l-18 14 12-0.8 17.9-13.9z"/>
								</g>
							</g>
							<g id="&lt;Group&gt;">
								<g id="&lt;Group&gt;">
									<path id="&lt;Compound Path&gt;" fill-rule="evenodd" class="s5" d="m147.1 110.3h-0.1l-13.1-0.4 0.5-0.3 19.4-14.2h0.1l13 0.4-0.4 0.3zm-12-0.7l11.8 0.3 18.9-13.7-11.9-0.3z"/>
								</g>
							</g>
							<g id="&lt;Group&gt;">
								<g id="&lt;Group&gt;">
									<path id="&lt;Compound Path&gt;" fill-rule="evenodd" class="s5" d="m146.5 110.7h-0.1l-12.7-1.6 20.7-14.1 12.7 1.6zm-11.6-1.9l11.5 1.5 19.6-13.4-11.5-1.5z"/>
								</g>
							</g>
							<g id="&lt;Group&gt;">
								<g id="&lt;Group&gt;">
									<path id="&lt;Compound Path&gt;" fill-rule="evenodd" class="s5" d="m145.9 111.2l-12.3-3.1 21.3-13.6 12.3 3.1zm-11.3-3.2l11.2 2.8 20.4-13-11.2-2.8z"/>
								</g>
							</g>
							<g id="&lt;Group&gt;">
								<g id="&lt;Group&gt;">
									<path id="&lt;Compound Path&gt;" fill-rule="evenodd" class="s5" d="m145.3 111.6l-11.7-4.5 0.4-0.2 21.5-12.8 11.7 4.6zm-10.7-4.7l10.7 4.2 21-12.4-10.7-4.2z"/>
								</g>
							</g>
							<g id="&lt;Group&gt;">
								<g id="&lt;Group&gt;">
									<path id="&lt;Compound Path&gt;" fill-rule="evenodd" class="s5" d="m144.7 112h-0.1l-10.9-6.1 22.5-12.2h0.1l10.9 6.1zm-10.2-6.1l10.2 5.7 21.6-11.8-10.2-5.7z"/>
								</g>
							</g>
							<g id="&lt;Group&gt;">
								<g id="&lt;Group&gt;">
									<path id="&lt;Compound Path&gt;" fill-rule="evenodd" class="s5" d="m144 112.4l-10.2-7.8 23-11.3 10.2 7.8zm-9.4-7.7l9.5 7.3 22.1-11-9.5-7.3z"/>
								</g>
							</g>
							<g id="&lt;Group&gt;">
								<g id="&lt;Group&gt;">
									<path id="&lt;Compound Path&gt;" fill-rule="evenodd" class="s5" d="m143.4 112.8l-0.1-0.1-9.2-9.5 0.3-0.1 23.1-10.2 0.1 0.1 9.1 9.5-0.2 0.1zm-8.6-9.5l8.7 9.1 22.6-10-8.7-9z"/>
								</g>
							</g>
							<g id="&lt;Group&gt;">
								<g id="&lt;Group&gt;">
									<path id="&lt;Compound Path&gt;" fill-rule="evenodd" class="s5" d="m142.7 113.2l-0.1-0.1-8.1-11.4 23.7-9.2 0.1 0.2 8.1 11.4zm-7.6-11.4l7.7 10.9 23-8.9-7.7-10.8z"/>
								</g>
							</g>
							<g id="&lt;Group&gt;">
								<g id="&lt;Group&gt;">
									<path id="&lt;Compound Path&gt;" fill-rule="evenodd" class="s5" d="m142 113.5l-7-13.5 0.2-0.1 23.7-7.7 7 13.5-0.2 0.1zm-6.4-13.3l6.6 12.8 23.1-7.6-6.6-12.8z"/>
								</g>
							</g>
							<g id="&lt;Group&gt;">
								<g id="&lt;Group&gt;">
									<path id="&lt;Compound Path&gt;" fill-rule="evenodd" class="s5" d="m141.2 113.8l-5.6-15.6h0.2l23.8-6.3 5.7 15.6h-0.2zm-5.2-15.3l5.4 14.9 23.3-6.2-5.4-14.8z"/>
								</g>
							</g>
							<g id="&lt;Group&gt;">
								<g id="&lt;Group&gt;">
									<path id="&lt;Compound Path&gt;" fill-rule="evenodd" class="s5" d="m140.5 114.1v-0.2l-4.2-17.6 24.1-4.7v0.2l4.1 17.6zm-3.7-17.5l4 17 23.3-4.5-4-17z"/>
								</g>
							</g>
							<g id="&lt;Group&gt;">
								<g id="&lt;Group&gt;">
									<path id="&lt;Compound Path&gt;" fill-rule="evenodd" class="s5" d="m139.8 114.3l-2.6-20 23.9-2.9 2.5 20zm-2.1-19.6l2.5 19.2 23.1-2.8-2.5-19.2z"/>
								</g>
							</g>
							<g id="&lt;Group&gt;">
								<g id="&lt;Group&gt;">
									<path id="&lt;Compound Path&gt;" fill-rule="evenodd" class="s5" d="m139 114.5v-0.2l-0.8-22.2h0.2l23.4-0.9v0.2l0.8 22.2h-0.2zm-0.4-22l0.8 21.6 22.8-0.9-0.8-21.5z"/>
								</g>
							</g>
							<g id="&lt;Group&gt;">
								<g id="&lt;Group&gt;">
									<path id="&lt;Compound Path&gt;" fill-rule="evenodd" class="s5" d="m161.4 115.9h-0.2l-22.9-1.3v-0.2l1.1-24.6h0.2l23 1.3v0.2zm-22.7-1.7l22.3 1.3 1.1-24-22.3-1.2z"/>
								</g>
							</g>
							<g id="&lt;Group&gt;">
								<g id="&lt;Group&gt;">
									<path id="&lt;Compound Path&gt;" fill-rule="evenodd" class="s5" d="m160 118.3l-22.4-3.6v-0.2l3.2-27.1 22.5 3.7v0.2zm-22.1-4.1l21.7 3.6 3.2-26.5-21.7-3.5z"/>
								</g>
							</g>
							<g id="&lt;Group&gt;">
								<g id="&lt;Group&gt;">
									<path id="&lt;Compound Path&gt;" fill-rule="evenodd" class="s5" d="m158.5 120.9h-0.2l-21.4-6.2 5.5-29.9 0.2 0.1 21.4 6.2zm-21.2-6.6l20.9 6 5.3-29-20.8-6z"/>
								</g>
							</g>
							<g id="&lt;Group&gt;">
								<g id="&lt;Group&gt;">
									<path id="&lt;Compound Path&gt;" fill-rule="evenodd" class="s5" d="m156.8 123.6l-20.6-9v-0.2l7.9-32.3 20.6 9-0.1 0.2zm-20.1-9.2l19.9 8.6 7.7-31.6-19.9-8.7z"/>
								</g>
							</g>
							<g id="&lt;Group&gt;">
								<g id="&lt;Group&gt;">
									<path id="&lt;Compound Path&gt;" fill-rule="evenodd" class="s5" d="m154.9 126.4l-19.4-11.9 10.5-35.2 19.4 12zm-18.9-12.2l18.6 11.5 10.3-34.3-18.7-11.5z"/>
								</g>
							</g>
							<g id="&lt;Group&gt;">
								<g id="&lt;Group&gt;">
									<path id="&lt;Compound Path&gt;" fill-rule="evenodd" class="s5" d="m152.7 129.4l-0.2-0.2-17.6-15 13.2-37.8 0.2 0.2 17.7 14.9zm-17.4-15.3l17.2 14.6 13-37.1-17.2-14.5z"/>
								</g>
							</g>
							<g id="&lt;Group&gt;">
								<g id="&lt;Group&gt;">
									<path id="&lt;Compound Path&gt;" fill-rule="evenodd" class="s5" d="m150.4 132.4l-16.1-18.5 16.1-40.6 16.2 18.5zm-15.7-18.6l15.6 17.8 15.8-39.8-15.6-17.7z"/>
								</g>
							</g>
							<g id="&lt;Group&gt;">
								<g id="&lt;Group&gt;">
									<path id="&lt;Compound Path&gt;" fill-rule="evenodd" class="s5" d="m147.9 135.6l-0.2-0.4-14-21.6v-0.1l19.3-43.3 0.2 0.3 14 21.7-0.1 0.1zm-13.7-22.1l13.7 21.2 18.8-42.5-13.6-21.2z"/>
								</g>
							</g>
							<g id="&lt;Group&gt;">
								<g id="&lt;Group&gt;">
									<path id="&lt;Compound Path&gt;" fill-rule="evenodd" class="s5" d="m145.2 138.8l-0.2-0.4-11.8-25.3v-0.1l22.5-46.1 0.2 0.4 11.8 25.3v0.1zm-11.6-25.7l11.6 24.8 22-45.2-11.5-24.8z"/>
								</g>
							</g>
							<g id="&lt;Group&gt;">
								<g id="&lt;Group&gt;">
									<path id="&lt;Compound Path&gt;" fill-rule="evenodd" class="s5" d="m142.2 142.1l-9.5-29.6v-0.1l26-48.8 9.5 29.6-0.1 0.1zm-9-29.6l9.1 28.6 25.5-48-9.2-28.5z"/>
								</g>
							</g>
							<g id="&lt;Group&gt;">
								<g id="&lt;Group&gt;">
									<path id="&lt;Compound Path&gt;" fill-rule="evenodd" class="s5" d="m139 145.5l-0.1-0.5-6.6-33.2 29.5-51.6 0.1 0.5 6.7 33.2-0.1 0.1zm-6.3-33.7l6.5 32.5 29-50.6-6.5-32.4z"/>
								</g>
							</g>
							<g id="&lt;Group&gt;">
								<g id="&lt;Group&gt;">
									<path id="&lt;Compound Path&gt;" fill-rule="evenodd" class="s5" d="m135.6 149l-3.7-37.9 0.1-0.1 33.2-54.3 3.7 38zm-3.3-37.8l3.6 36.6 32.6-53.2-3.6-36.6z"/>
								</g>
							</g>
							<g id="&lt;Group&gt;">
								<g id="&lt;Group&gt;">
									<path id="&lt;Compound Path&gt;" fill-rule="evenodd" class="s5" d="m132 152.5l-0.3-42.3v-0.1l37.1-56.9 0.4 42.4zm0-42.2l0.4 40.9 36.3-55.7-0.3-40.9z"/>
								</g>
							</g>
							<g id="&lt;Group&gt;">
								<g id="&lt;Group&gt;">
									<path id="&lt;Compound Path&gt;" fill-rule="evenodd" class="s5" d="m128.2 156l3.3-46.9 41.1-59.4-3.2 46.9zm3.6-46.7l-3.1 45.3 40.3-58.1 3.1-45.3z"/>
								</g>
							</g>
							<g id="&lt;Group&gt;">
								<g id="&lt;Group&gt;">
									<path id="&lt;Compound Path&gt;" fill-rule="evenodd" class="s5" d="m124.2 159.5l7.2-51.5 45.3-61.8-7.2 51.6zm7.5-51.4l-6.9 49.8 44.3-60.4 6.9-49.8z"/>
								</g>
							</g>
							<g id="&lt;Group&gt;">
								<g id="&lt;Group&gt;">
									<path id="&lt;Compound Path&gt;" fill-rule="evenodd" class="s5" d="m119.9 163l11.5-56.3 49.5-64-11.4 56.3zm11.8-56.1l-11.1 54.5 48.4-62.6 11.1-54.5z"/>
								</g>
							</g>
							<g id="&lt;Group&gt;">
								<g id="&lt;Group&gt;">
									<path id="&lt;Compound Path&gt;" fill-rule="evenodd" class="s5" d="m115.5 166.5l0.2-0.9 15.8-60.3 53.9-66.1-0.3 0.9-15.7 60.4zm16.3-61.1l-15.5 59.4 52.7-64.6 15.5-59.4z"/>
								</g>
							</g>
							<g id="&lt;Group&gt;">
								<g id="&lt;Group&gt;">
									<path id="&lt;Compound Path&gt;" fill-rule="evenodd" class="s5" d="m110.9 169.9l0.3-0.9 20.5-65.3 58.3-67.9-0.3 0.9-20.6 65.3zm21.2-66l-20.2 64.2 57-66.4 20.2-64.2z"/>
								</g>
							</g>
							<g id="&lt;Group&gt;">
								<g id="&lt;Group&gt;">
									<path id="&lt;Compound Path&gt;" fill-rule="evenodd" class="s5" d="m106.1 173.3l26-71.3 62.7-69.5-26 71.2zm26.3-71l-25.2 69.2 61.3-68 25.2-69.2z"/>
								</g>
							</g>
							<g id="&lt;Group&gt;">
								<g id="&lt;Group&gt;">
									<path id="&lt;Compound Path&gt;" fill-rule="evenodd" class="s5" d="m101.1 176.5l0.4-1 31.1-75.3 67.2-70.9-0.4 1-31.1 75.2zm31.8-76l-30.6 74.2 65.7-69.4 30.6-74.1z"/>
								</g>
							</g>
							<g id="&lt;Group&gt;">
								<g id="&lt;Group&gt;">
									<path id="&lt;Compound Path&gt;" fill-rule="evenodd" class="s5" d="m95.9 179.5l0.5-1 36.8-80.3 71.7-72-0.5 1-36.7 80.3zm37.5-81l-36.2 79.1 70.1-70.4 36.2-79.1z"/>
								</g>
							</g>
							<g id="&lt;Group&gt;">
								<g id="&lt;Group&gt;">
									<path id="&lt;Compound Path&gt;" fill-rule="evenodd" class="s5" d="m90.7 182.4l0.5-1 42.8-85.3 76.2-72.8-0.5 1-42.8 85.4zm43.6-86.1l-42.2 84.2 74.5-71.2 42.2-84.2z"/>
								</g>
							</g>
							<g id="&lt;Group&gt;">
								<g id="&lt;Group&gt;">
									<path id="&lt;Compound Path&gt;" fill-rule="evenodd" class="s5" d="m85.3 185.1l0.5-1 49.1-90.3 80.7-73.2-49.7 91.3zm50-91l-48.5 89.1 78.9-71.5 48.5-89.2z"/>
								</g>
							</g>
							<g id="&lt;Group&gt;">
								<g id="&lt;Group&gt;">
									<path id="&lt;Compound Path&gt;" fill-rule="evenodd" class="s5" d="m79.8 187.6l0.6-1.1 55.7-95.2 85-73.2-0.6 1.1-55.7 95.2zm56.6-96l-55 94.1 83.1-71.6 55-94.1z"/>
								</g>
							</g>
							<g id="&lt;Group&gt;">
								<g id="&lt;Group&gt;">
									<path id="&lt;Compound Path&gt;" fill-rule="evenodd" class="s5" d="m74.2 189.8l0.6-1.1 62.6-99.9 89.3-72.8-0.7 1-62.5 100zm63.4-100.8l-61.8 98.9 87.4-71.2 61.8-98.9z"/>
								</g>
							</g>
							<g id="&lt;Group&gt;">
								<g id="&lt;Group&gt;">
									<path id="&lt;Compound Path&gt;" fill-rule="evenodd" class="s5" d="m68.6 191.6l0.6-1 69.7-104.6 93.4-71.9-0.7 1-69.6 104.6zm70.6-105.3l-68.9 103.5 91.4-70.4 68.9-103.5z"/>
								</g>
							</g>
							<g id="&lt;Group&gt;">
								<g id="&lt;Group&gt;">
									<path id="&lt;Compound Path&gt;" fill-rule="evenodd" class="s5" d="m62.9 193.2l0.7-1 77-109.1 97.3-70.6-0.7 1-76.9 109.1zm77.9-109.7l-76.2 108 95.4-69.2 76.2-108z"/>
								</g>
							</g>
							<g id="&lt;Group&gt;">
								<g id="&lt;Group&gt;">
									<path id="&lt;Compound Path&gt;" fill-rule="evenodd" class="s5" d="m57.3 194.3l85.2-114.2 101.1-68.7-85.2 114.3zm85.4-114l-83.7 112.3 99.1-67.3 83.7-112.3z"/>
								</g>
							</g>
							<g id="&lt;Group&gt;">
								<g id="&lt;Group&gt;">
									<path id="&lt;Compound Path&gt;" fill-rule="evenodd" class="s5" d="m51.7 195.1l0.7-1 92.2-117.2 104.6-66.2-0.7 0.9-92.2 117.2zm93.1-117.8l-91.4 116.2 102.6-64.9 91.4-116.3z"/>
								</g>
							</g>
							<g id="&lt;Group&gt;">
								<g id="&lt;Group&gt;">
									<path id="&lt;Compound Path&gt;" fill-rule="evenodd" class="s5" d="m46.1 195.3l0.7-0.9 100.2-120.8 107.7-63.2-0.7 0.9-100.1 120.8zm101.1-121.4l-99.3 119.9 105.8-62 99.3-119.9z"/>
								</g>
							</g>
							<g id="&lt;Group&gt;">
								<g id="&lt;Group&gt;">
									<path id="&lt;Compound Path&gt;" fill-rule="evenodd" class="s5" d="m40.7 195.1l108.8-125 110.7-59.4-0.8 0.8-108.1 124.1zm109.1-124.6l-107.3 123.2 108.6-58.4 107.4-123.2z"/>
								</g>
							</g>
							<g id="&lt;Group&gt;">
								<g id="&lt;Group&gt;">
									<path id="&lt;Compound Path&gt;" fill-rule="evenodd" class="s5" d="m35.4 194.3l0.7-0.8 116.2-126.9 113.1-55.1-0.7 0.7-116.2 126.9zm117.2-127.3l-115.5 126.1 111.2-54.2 115.4-126.1z"/>
								</g>
							</g>
							<g id="&lt;Group&gt;">
								<g id="&lt;Group&gt;">
									<path id="&lt;Compound Path&gt;" fill-rule="evenodd" class="s5" d="m30.3 192.9l0.7-0.7 124.4-129.3 115.1-50.1-0.7 0.8-124.3 129.2zm125.2-129.6l-123.5 128.4 113.2-49.2 123.6-128.4z"/>
								</g>
							</g>
							<g id="&lt;Group&gt;">
								<g id="&lt;Group&gt;">
									<path id="&lt;Compound Path&gt;" fill-rule="evenodd" class="s5" d="m25.5 190.9l133.2-131.8 116.7-44.2-0.7 0.6-132.5 131.1zm133.4-131.4l-131.8 130.3 114.9-43.5 131.7-130.3z"/>
								</g>
							</g>
							<g id="&lt;Group&gt;">
								<g id="&lt;Group&gt;">
									<path id="&lt;Compound Path&gt;" fill-rule="evenodd" class="s5" d="m20.9 188.1l0.7-0.6 140.6-132.2 117.7-37.7-0.6 0.6-140.6 132.2h-0.1zm141.5-132.4l-139.9 131.5 116-37.1 139.9-131.6z"/>
								</g>
							</g>
							<g id="&lt;Group&gt;">
								<g id="&lt;Group&gt;">
									<path id="&lt;Compound Path&gt;" fill-rule="evenodd" class="s5" d="m16.7 184.7l0.6-0.6 148.7-132.7 118.2-30.4-0.7 0.6-148.6 132.7-0.1 0.1zm149.5-133l-148 132.2 116.5-30 148-132.1z"/>
								</g>
							</g>
							<g id="&lt;Group&gt;">
								<g id="&lt;Group&gt;">
									<path id="&lt;Compound Path&gt;" fill-rule="evenodd" class="s5" d="m12.9 180.5l0.5-0.5 156.6-132.6h0.1l117.9-22.2-0.6 0.5-156.6 132.6zm157.3-132.7l-155.9 132.1 116.4-21.9 155.9-132z"/>
								</g>
							</g>
							<g id="&lt;Group&gt;">
								<g id="&lt;Group&gt;">
									<path id="&lt;Compound Path&gt;" fill-rule="evenodd" class="s5" d="m9.5 175.5l0.5-0.5 164.3-131.6 117.1-13.1-0.6 0.4-164.2 131.6h-0.1zm165-131.6l-163.7 131.1 115.6-13 163.6-131.1z"/>
								</g>
							</g>
							<g id="&lt;Group&gt;">
								<g id="&lt;Group&gt;">
									<path id="&lt;Compound Path&gt;" fill-rule="evenodd" class="s5" d="m6.6 169.6l0.5-0.4 171.7-129.8h0.1l115.3-3.2-0.5 0.3-171.7 129.9zm172.3-129.8l-171.1 129.3 114.1-3.2 171.1-129.3z"/>
								</g>
							</g>
							<g id="&lt;Group&gt;">
								<g id="&lt;Group&gt;">
									<path id="&lt;Compound Path&gt;" fill-rule="evenodd" class="s5" d="m117.3 170.4h-0.1l-112.9-7.6 179.3-127.4h0.1l112.8 7.5zm-111.8-7.9l111.7 7.5 178.3-126.7-111.7-7.5z"/>
								</g>
							</g>
							<g id="&lt;Group&gt;">
								<g id="&lt;Group&gt;">
									<path id="&lt;Compound Path&gt;" fill-rule="evenodd" class="s5" d="m112.3 174.4h-0.1l-109.6-19.4 0.5-0.2 185.5-123.4h0.1l109.5 19.3-0.4 0.3zm-108.6-19.6l108.5 19.1 185-123-108.5-19.1z"/>
								</g>
							</g>
							<g id="&lt;Group&gt;">
								<g id="&lt;Group&gt;">
									<path id="&lt;Compound Path&gt;" fill-rule="evenodd" class="s5" d="m107 178.3l-105.3-32 0.3-0.2 191.8-118.7 0.1 0.1 105.3 31.9-0.4 0.2zm-104.4-32.1l104.4 31.7 191.2-118.4-104.4-31.6z"/>
								</g>
							</g>
							<g id="&lt;Group&gt;">
								<g id="&lt;Group&gt;">
									<path id="&lt;Compound Path&gt;" fill-rule="evenodd" class="s5" d="m101.6 182.2l-0.1-0.1-100-45.5 0.3-0.2 197.5-112.8 100.1 45.5-0.3 0.2zm-99.3-45.6l99.2 45.2 197-112.6-99.3-45.1z"/>
								</g>
							</g>
							<g id="&lt;Group&gt;">
								<g id="&lt;Group&gt;">
									<path id="&lt;Compound Path&gt;" fill-rule="evenodd" class="s5" d="m96 185.9l-0.1-0.1-93.8-60 0.3-0.2 202.5-105.8 0.1 0.1 93.8 60-0.3 0.2zm-93.1-60.1l93.1 59.6 202-105.5-93.1-59.6z"/>
								</g>
							</g>
							<g id="&lt;Group&gt;">
								<g id="&lt;Group&gt;">
									<path id="&lt;Compound Path&gt;" fill-rule="evenodd" class="s5" d="m90.1 189.5l-0.1-0.1-86.4-75.5 0.3-0.1 206.8-97.5h0.1l86.5 75.5-0.3 0.1zm-85.8-75.4l85.8 75 206.4-97.3-85.9-75z"/>
								</g>
							</g>
							<g id="&lt;Group&gt;">
								<g id="&lt;Group&gt;">
									<path id="&lt;Compound Path&gt;" fill-rule="evenodd" class="s5" d="m84.1 192.9l-0.1-0.1-77.9-91.9 0.3-0.1 210.4-88 0.1 0.2 77.9 91.8-0.3 0.1zm-77.3-91.8l77.4 91.3 209.9-87.7-77.5-91.4z"/>
								</g>
							</g>
							<g id="&lt;Group&gt;">
								<g id="&lt;Group&gt;">
									<path id="&lt;Compound Path&gt;" fill-rule="evenodd" class="s5" d="m77.9 196.1l-0.1-0.2-68.2-109.1 0.3-0.1 213-77.1 0.1 0.2 68.2 109.1-0.2 0.1zm-67.7-109.1l67.8 108.6 212.5-76.8-67.8-108.6z"/>
								</g>
							</g>
							<g id="&lt;Group&gt;">
								<g id="&lt;Group&gt;">
									<path id="&lt;Compound Path&gt;" fill-rule="evenodd" class="s5" d="m71.6 199v-0.1l-57.3-127.4 0.2-0.1 214.7-64.7 57.3 127.5-0.2 0.1zm-56.7-127.3l56.9 126.8 214.2-64.5-57-126.8z"/>
								</g>
							</g>
							<g id="&lt;Group&gt;">
								<g id="&lt;Group&gt;">
									<path id="&lt;Compound Path&gt;" fill-rule="evenodd" class="s5" d="m65.2 201.7v-0.2l-45-146.5 215.4-50.9 0.1 0.1 45 146.5zm-44.6-146.3l44.8 145.9 214.7-50.8-44.8-145.9z"/>
								</g>
							</g>
							<g id="&lt;Group&gt;">
								<g id="&lt;Group&gt;">
									<path id="&lt;Compound Path&gt;" fill-rule="evenodd" class="s5" d="m58.8 204l-0.1-0.2-31.4-166.5h0.2l214.6-35.5v0.2l31.4 166.4-0.2 0.1zm-30.9-166.4l31.3 165.9 213.9-35.4-31.3-165.9z"/>
								</g>
							</g>
							<g id="&lt;Group&gt;">
								<g id="&lt;Group&gt;">
									<path id="&lt;Compound Path&gt;" fill-rule="evenodd" class="s5" d="m52.2 205.9v-0.2l-16.4-187.3h0.2l212.6-18.6v0.2l16.4 187.3h-0.2zm-15.9-187.1l16.3 186.7 212-18.5-16.3-186.7z"/>
								</g>
							</g>
							<g id="&lt;Group&gt;">
								<g id="&lt;Group&gt;">
									<path id="&lt;Compound Path&gt;" fill-rule="evenodd" class="s5" d="m45.7-1.7h209.4v209.1h-209.4zm0.4 208.6h208.6v-208.2h-208.6z"/>
								</g>
							</g>
						</g>
					</g>
					<g id="&lt;Group&gt;">
						<g id="&lt;Group&gt;">
							<path id="&lt;Path&gt;" class="s4" d="m38.7 93.2h-12.4c-0.6 0-1.1-0.5-1.1-1.1 0-0.6 0.5-1 1.1-1h12.4c0.6 0 1.1 0.4 1.1 1 0 0.6-0.5 1.1-1.1 1.1z"/>
						</g>
						<g id="&lt;Group&gt;">
							<path id="&lt;Path&gt;" class="s4" d="m46 88h-12.4c-0.6 0-1.1-0.4-1.1-1 0-0.6 0.5-1.1 1.1-1.1h12.4c0.6 0 1.1 0.5 1.1 1.1 0 0.6-0.5 1-1.1 1z"/>
						</g>
					</g>
				</g>
				<g id="&lt;Group&gt;">
					<g id="&lt;Group&gt;">
						<rect id="&lt;Path&gt;" class="s13" x="96" y="74.1" width="75.8" height="28.8" rx="2.3"></rect>
						<path id="&lt;Path&gt;" class="s14" d="m171.8 78.8v19.2c0 2.7-2.2 4.9-4.9 4.9h-66c-2.7 0-4.9-2.2-4.9-4.9v-18.9c2.9-0.2 5.8 0.3 8.5 1.3q1.5 0.5 3 1.2 0.8 0.4 1.6 0.9c1.4 0.8 2.7 1.7 4.1 2.6 1.4 0.8 2.7 1.6 4.2 2.2q0.6 0.3 1.1 0.5c3.9 1.4 8.1 1.5 12.1 1.2 2.2-0.1 4.4-0.4 6.6-1 1.9-0.4 3.8-1 5.6-1.9q0.9-0.4 1.7-0.9c3-1.7 5.5-4.1 8.5-5.8 5.7-3.2 12.9-3.4 18.8-0.6z"/>
						<g id="&lt;Group&gt;">
							<path id="&lt;Path&gt;" class="s7" d="m143.7 91.7l0.6 1.8c0.1 0.1 0.2 0.2 0.3 0.2h1.9c0.3 0 0.4 0.4 0.2 0.5l-1.6 1.1c-0.1 0.1-0.1 0.2-0.1 0.4l0.6 1.8c0.1 0.2-0.2 0.5-0.4 0.3l-1.6-1.1c-0.1-0.1-0.2-0.1-0.3 0l-1.5 1.1c-0.3 0.2-0.6-0.1-0.5-0.3l0.6-1.8c0.1-0.2 0-0.3-0.1-0.4l-1.5-1.1c-0.3-0.1-0.1-0.5 0.1-0.5h1.9c0.2 0 0.3-0.1 0.3-0.2l0.6-1.8c0.1-0.3 0.5-0.3 0.5 0z"/>
							<path id="&lt;Path&gt;" class="s7" d="m136.3 91.7l0.6 1.8c0.1 0.1 0.2 0.2 0.3 0.2h1.9c0.3 0 0.4 0.4 0.2 0.5l-1.6 1.1c-0.1 0.1-0.1 0.2-0.1 0.4l0.6 1.8c0.1 0.2-0.2 0.5-0.4 0.3l-1.6-1.1c-0.1-0.1-0.2-0.1-0.3 0l-1.5 1.1c-0.3 0.2-0.6-0.1-0.5-0.3l0.6-1.8c0.1-0.2 0-0.3-0.1-0.4l-1.5-1.1c-0.3-0.1-0.1-0.5 0.1-0.5h1.9c0.2 0 0.3-0.1 0.3-0.2l0.6-1.8c0.1-0.3 0.5-0.3 0.5 0z"/>
							<path id="&lt;Path&gt;" class="s7" d="m128.9 91.7l0.6 1.8c0.1 0.1 0.2 0.2 0.3 0.2h1.9c0.3 0 0.4 0.4 0.2 0.5l-1.6 1.1c-0.1 0.1-0.1 0.2-0.1 0.4l0.6 1.8c0.1 0.2-0.2 0.5-0.4 0.3l-1.6-1.1c-0.1-0.1-0.2-0.1-0.3 0l-1.5 1.1c-0.3 0.2-0.6-0.1-0.5-0.3l0.6-1.8c0.1-0.2 0-0.3-0.1-0.4l-1.5-1.1c-0.3-0.1-0.1-0.5 0.1-0.5h1.9c0.2 0 0.3-0.1 0.3-0.2l0.6-1.8c0.1-0.3 0.5-0.3 0.5 0z"/>
							<path id="&lt;Path&gt;" class="s10" d="m151.5 91.7l0.6 1.8c0 0.1 0.1 0.2 0.2 0.2h2c0.2 0 0.3 0.4 0.1 0.5l-1.5 1.1c-0.1 0.1-0.2 0.2-0.1 0.4l0.6 1.8c0 0.2-0.3 0.5-0.5 0.3l-1.5-1.1c-0.1-0.1-0.3-0.1-0.4 0l-1.5 1.1c-0.2 0.2-0.5-0.1-0.4-0.3l0.5-1.8c0.1-0.2 0-0.3-0.1-0.4l-1.5-1.1c-0.2-0.1-0.1-0.5 0.2-0.5h1.9c0.1 0 0.2-0.1 0.2-0.2l0.6-1.8c0.1-0.3 0.5-0.3 0.6 0z"/>
							<path id="&lt;Path&gt;" class="s10" d="m158.9 91.7l0.6 1.8c0 0.1 0.1 0.2 0.2 0.2h2c0.2 0 0.3 0.4 0.1 0.5l-1.5 1.1c-0.1 0.1-0.2 0.2-0.1 0.4l0.6 1.8c0 0.2-0.3 0.5-0.5 0.3l-1.5-1.1c-0.1-0.1-0.3-0.1-0.4 0l-1.5 1.1c-0.2 0.2-0.5-0.1-0.4-0.3l0.5-1.8c0.1-0.2 0-0.3-0.1-0.4l-1.5-1.1c-0.2-0.1-0.1-0.5 0.2-0.5h1.9c0.1 0 0.2-0.1 0.2-0.2l0.6-1.8c0.1-0.3 0.5-0.3 0.6 0z"/>
						</g>
						<ellipse id="&lt;Path&gt;" class="s10" cx="109.2" cy="88.5" rx="9.4" ry="9.4"/>
						<path id="&lt;Path&gt;" class="s10" d="m140.7 85h-14.4c-0.5 0-1-0.5-1-1v-3.1c0-0.5 0.5-1 1-1h14.4c0.5 0 0.9 0.5 0.9 1v3.1c0 0.5-0.4 1-0.9 1z"/>
						<g id="&lt;Group&gt;">
							<g id="&lt;Group&gt;">
								<path id="&lt;Path&gt;" class="s7" d="m114.1 94.5h-1v-2.3c0-2.2-1.8-3.9-3.9-3.9-2.2 0-3.9 1.7-3.9 3.9v2.3h-1.1v-2.3c0-2.7 2.3-4.9 5-4.9 2.7 0 4.9 2.2 4.9 4.9z"/>
							</g>
							<circle id="&lt;Path&gt;" class="s4" cx="109.2" cy="85.3" r="4"/>
						</g>
					</g>
					<g id="&lt;Group&gt;">
						<rect id="&lt;Path&gt;" class="s13" x="158.1" y="121.7" width="62.6" height="23.8" rx="1.9"></rect>
						<path id="&lt;Path&gt;" class="s15" d="m220.6 125.6v15.8c0 2.3-1.8 4.1-4 4.1h-54.5c-2.2 0-4-1.8-4-4.1v-15.5c2.3-0.2 4.7 0.2 7 1q1.3 0.4 2.4 1 0.7 0.4 1.4 0.7c1.1 0.7 2.3 1.5 3.4 2.2 1.1 0.7 2.2 1.3 3.4 1.9q0.5 0.2 1 0.3c3.1 1.1 6.6 1.3 9.9 1 4-0.3 8.1-1.1 11.5-3.1 2.5-1.4 4.6-3.4 7.1-4.8 4.6-2.6 10.6-2.8 15.4-0.5z"/>
						<g id="&lt;Group&gt;">
							<path id="&lt;Path&gt;" class="s7" d="m197.5 136.2l0.5 1.5q0 0.2 0.2 0.2h1.6c0.2 0 0.3 0.3 0.1 0.4l-1.3 1q-0.1 0.1-0.1 0.2l0.5 1.5c0.1 0.2-0.1 0.4-0.3 0.3l-1.3-0.9q-0.1-0.1-0.3 0l-1.3 0.9c-0.1 0.1-0.4-0.1-0.3-0.3l0.5-1.5q0-0.1-0.1-0.2l-1.3-1c-0.2-0.1-0.1-0.4 0.1-0.4h1.6q0.2 0 0.2-0.2l0.5-1.5c0.1-0.2 0.4-0.2 0.5 0z"/>
							<path id="&lt;Path&gt;" class="s7" d="m191.4 136.2l0.5 1.5q0 0.2 0.2 0.2h1.6c0.2 0 0.3 0.3 0.1 0.4l-1.3 1q-0.1 0.1-0.1 0.2l0.5 1.5c0.1 0.2-0.2 0.4-0.3 0.3l-1.3-0.9q-0.2-0.1-0.3 0l-1.3 0.9c-0.2 0.1-0.4-0.1-0.3-0.3l0.5-1.5q0-0.1-0.1-0.2l-1.3-1c-0.2-0.1-0.1-0.4 0.1-0.4h1.6q0.2 0 0.2-0.2l0.5-1.5c0.1-0.2 0.4-0.2 0.5 0z"/>
							<path id="&lt;Path&gt;" class="s7" d="m185.3 136.2l0.4 1.5q0.1 0.2 0.3 0.2h1.5c0.3 0 0.4 0.3 0.2 0.4l-1.3 1q-0.1 0.1-0.1 0.2l0.5 1.5c0.1 0.2-0.2 0.4-0.3 0.3l-1.3-0.9q-0.2-0.1-0.3 0l-1.3 0.9c-0.2 0.1-0.4-0.1-0.3-0.3l0.4-1.5q0.1-0.1 0-0.2l-1.3-1c-0.2-0.1-0.1-0.4 0.1-0.4h1.6q0.2 0 0.2-0.2l0.5-1.5c0.1-0.2 0.4-0.2 0.5 0z"/>
							<path id="&lt;Path&gt;" class="s7" d="m203.9 136.2l0.4 1.5q0.1 0.2 0.3 0.2h1.6c0.2 0 0.3 0.3 0.1 0.4l-1.3 1q-0.1 0.1-0.1 0.2l0.5 1.5c0.1 0.2-0.2 0.4-0.3 0.3l-1.3-0.9q-0.2-0.1-0.3 0l-1.3 0.9c-0.2 0.1-0.4-0.1-0.3-0.3l0.4-1.5q0.1-0.1 0-0.2l-1.3-1c-0.2-0.1-0.1-0.4 0.1-0.4h1.6q0.2 0 0.2-0.2l0.5-1.5c0.1-0.2 0.4-0.2 0.5 0z"/>
							<path id="&lt;Path&gt;" class="s10" d="m210 136.2l0.5 1.5q0 0.2 0.2 0.2h1.6c0.2 0 0.3 0.3 0.1 0.4l-1.3 1q-0.1 0.1-0.1 0.2l0.5 1.5c0.1 0.2-0.2 0.4-0.3 0.3l-1.3-0.9q-0.2-0.1-0.3 0l-1.3 0.9c-0.2 0.1-0.4-0.1-0.3-0.3l0.5-1.5q0-0.1-0.1-0.2l-1.3-1c-0.2-0.1-0.1-0.4 0.1-0.4h1.6q0.2 0 0.2-0.2l0.5-1.5c0.1-0.2 0.4-0.2 0.5 0z"/>
						</g>
						<ellipse id="&lt;Path&gt;" class="s10" cx="168.9" cy="133.6" rx="7.8" ry="7.7"/>
						<path id="&lt;Path&gt;" class="s10" d="m194.9 130.7h-11.8c-0.4 0-0.8-0.4-0.8-0.8v-2.5c0-0.5 0.4-0.8 0.8-0.8h11.8c0.5 0 0.8 0.3 0.8 0.8v2.5c0 0.4-0.3 0.8-0.8 0.8z"/>
						<g id="&lt;Group&gt;">
							<g id="&lt;Group&gt;">
								<path id="&lt;Path&gt;" class="s7" d="m173 138.6h-0.8v-1.9c0-1.8-1.5-3.3-3.3-3.3-1.7 0-3.2 1.5-3.2 3.3v1.9h-0.8v-1.9c0-2.3 1.8-4.1 4-4.1 2.3 0 4.1 1.8 4.1 4.1z"/>
							</g>
							<circle id="&lt;Path&gt;" class="s4" cx="168.9" cy="130.9" r="3.3"/>
						</g>
					</g>
					<g id="&lt;Group&gt;">
						<rect id="&lt;Path&gt;" class="s13" x="154.6" y="26.6" width="68.9" height="26.2" rx="2"></rect>
						<path id="&lt;Path&gt;" class="s16" d="m223.5 30.9v17.4c0 2.5-2 4.5-4.5 4.5h-60c-2.4 0-4.4-2-4.4-4.5v-17.1c2.6-0.2 5.2 0.2 7.7 1.1q1.4 0.5 2.7 1.2 0.7 0.4 1.5 0.8c1.2 0.7 2.5 1.5 3.7 2.3 1.2 0.8 2.5 1.5 3.8 2.1q0.5 0.2 1.1 0.4c3.4 1.2 7.3 1.4 10.9 1.1 4.4-0.3 8.9-1.2 12.7-3.5 2.7-1.5 5-3.7 7.7-5.3 5.2-2.8 11.7-3 17.1-0.5z"/>
						<g id="&lt;Group&gt;">
							<path id="&lt;Path&gt;" class="s10" d="m198 42.6l0.5 1.7c0 0.1 0.1 0.2 0.2 0.2h1.8c0.2 0 0.3 0.3 0.1 0.4l-1.4 1.1c-0.1 0-0.1 0.1-0.1 0.2l0.6 1.7c0 0.2-0.2 0.4-0.4 0.3l-1.4-1c-0.1-0.1-0.2-0.1-0.3 0l-1.4 1c-0.2 0.1-0.5-0.1-0.4-0.3l0.5-1.7c0-0.1 0-0.2-0.1-0.2l-1.4-1.1c-0.2-0.1-0.1-0.4 0.1-0.4h1.8c0.1 0 0.2-0.1 0.2-0.2l0.6-1.7c0-0.2 0.4-0.2 0.5 0z"/>
							<path id="&lt;Path&gt;" class="s7" d="m191.2 42.6l0.6 1.7c0 0.1 0.1 0.2 0.2 0.2h1.8c0.2 0 0.3 0.3 0.1 0.4l-1.4 1.1c-0.1 0-0.1 0.1-0.1 0.2l0.5 1.7c0.1 0.2-0.2 0.4-0.4 0.3l-1.4-1c-0.1-0.1-0.2-0.1-0.3 0l-1.4 1c-0.2 0.1-0.4-0.1-0.4-0.3l0.6-1.7c0-0.1 0-0.2-0.1-0.2l-1.4-1.1c-0.2-0.1-0.1-0.4 0.1-0.4h1.8c0.1 0 0.2-0.1 0.2-0.2l0.5-1.7c0.1-0.2 0.5-0.2 0.5 0z"/>
							<path id="&lt;Path&gt;" class="s7" d="m184.5 42.6l0.5 1.7c0.1 0.1 0.2 0.2 0.3 0.2h1.7c0.3 0 0.4 0.3 0.2 0.4l-1.4 1.1c-0.1 0-0.2 0.1-0.1 0.2l0.5 1.7c0.1 0.2-0.2 0.4-0.4 0.3l-1.4-1c-0.1-0.1-0.2-0.1-0.3 0l-1.4 1c-0.2 0.1-0.5-0.1-0.4-0.3l0.5-1.7c0.1-0.1 0-0.2-0.1-0.2l-1.4-1.1c-0.2-0.1-0.1-0.4 0.2-0.4h1.7c0.1 0 0.2-0.1 0.3-0.2l0.5-1.7c0.1-0.2 0.4-0.2 0.5 0z"/>
							<path id="&lt;Path&gt;" class="s10" d="m205 42.6l0.5 1.7c0.1 0.1 0.2 0.2 0.3 0.2h1.7c0.3 0 0.4 0.3 0.2 0.4l-1.4 1.1c-0.1 0-0.2 0.1-0.1 0.2l0.5 1.7c0.1 0.2-0.2 0.4-0.4 0.3l-1.4-1c-0.1-0.1-0.2-0.1-0.3 0l-1.4 1c-0.2 0.1-0.5-0.1-0.4-0.3l0.5-1.7c0.1-0.1 0-0.2-0.1-0.2l-1.4-1.1c-0.2-0.1-0.1-0.4 0.2-0.4h1.7c0.1 0 0.2-0.1 0.3-0.2l0.5-1.7c0.1-0.2 0.4-0.2 0.5 0z"/>
							<path id="&lt;Path&gt;" class="s10" d="m211.7 42.6l0.6 1.7c0 0.1 0.1 0.2 0.2 0.2h1.7c0.3 0 0.4 0.3 0.2 0.4l-1.4 1.1c-0.1 0-0.1 0.1-0.1 0.2l0.5 1.7c0.1 0.2-0.2 0.4-0.4 0.3l-1.4-1c-0.1-0.1-0.2-0.1-0.3 0l-1.4 1c-0.2 0.1-0.5-0.1-0.4-0.3l0.6-1.7c0-0.1-0.1-0.2-0.1-0.2l-1.4-1.1c-0.3-0.1-0.1-0.4 0.1-0.4h1.7c0.2 0 0.3-0.1 0.3-0.2l0.5-1.7c0.1-0.2 0.4-0.2 0.5 0z"/>
						</g>
						<ellipse id="&lt;Path&gt;" class="s10" cx="166.5" cy="39.7" rx="8.5" ry="8.5"/>
						<path id="&lt;Path&gt;" class="s10" d="m195.2 36.5h-13.1c-0.5 0-0.9-0.4-0.9-0.8v-2.8c0-0.5 0.4-0.9 0.9-0.9h13.1c0.5 0 0.9 0.4 0.9 0.9v2.8c0 0.4-0.4 0.8-0.9 0.8z"/>
						<g id="&lt;Group&gt;">
							<g id="&lt;Group&gt;">
								<path id="&lt;Path&gt;" class="s7" d="m171 45.2h-0.9v-2.1c0-2-1.6-3.6-3.6-3.6-1.9 0-3.5 1.6-3.5 3.6v2.1h-0.9v-2.1c0-2.5 2-4.5 4.4-4.5 2.5 0 4.5 2 4.5 4.5z"/>
							</g>
							<circle id="&lt;Path&gt;" class="s4" cx="166.5" cy="36.8" r="3.7"/>
						</g>
					</g>
					<g id="&lt;Group&gt;">
						<g id="&lt;Group&gt;">
							<path id="&lt;Path&gt;" class="s4" d="m176.9 75.7l-1.1 1.6-2.6 4c-1.2 1.8-3.7 2.3-5.6 1.1l-5.1-3.4c-1.9-1.2-2.4-3.7-1.2-5.6l0.9-1.4 1.7-2.5 1.1-1.7 5.5 3.6z"/>
							<path id="&lt;Path&gt;" class="s7" d="m179.5 78q-0.1 0.1-0.2 0h-0.3l-3.2-0.7-7.3-1.5q-0.2-0.1-0.3-0.3l-0.8-1.1-3.5-4.9-2-2.9c-0.3-0.4 0.1-1 0.6-0.9l8.1 1.7 2.6 0.6q0.2 0 0.4 0.2l6.2 8.9c0.3 0.4 0.1 0.9-0.3 0.9z"/>
							<g id="&lt;Group&gt;">
								<path id="&lt;Path&gt;" class="s13" d="m179.5 78q0 0.1-0.1 0.2c-0.6 1-1.2 1.9-1.8 2.8-1.4 2-2.1 3.1-1.6 4q0.1 0.2 0.3 0.4c0.1 0.1 0.1 0.2 0 0.3q-0.1 0.1-0.2 0.1-0.1 0-0.2-0.1-0.1-0.1-0.2-0.3c-0.8-1.2 0.1-2.6 1.5-4.7 0.6-0.8 1.2-1.7 1.8-2.7q0-0.1 0-0.1c0.1-0.1 0.3-0.1 0.4-0.1q0.1 0.1 0.1 0.2z"/>
							</g>
							<path id="&lt;Path&gt;" class="s7" d="m177.8 86.6c-0.2 0.2-0.4 0.3-0.6 0.3q-0.2 0-0.4-0.1l-0.9-0.6c-0.3-0.2-0.4-0.5-0.2-0.8q0-0.1 0-0.2 0.1-0.1 0.3-0.2 0.1-0.1 0.3-0.1 0.2 0 0.4 0.2l0.9 0.6c0.3 0.2 0.4 0.6 0.2 0.9z"/>
						</g>
						<path id="&lt;Path&gt;" class="s17" d="m179.5 78q0 0.1-0.1 0.2c-0.6 1-1.2 1.9-1.8 2.8-1.4 2-2.1 3.1-1.6 4q0.1-0.1 0.3-0.1 0.2 0 0.4 0.2l0.9 0.6c0.3 0.2 0.4 0.6 0.2 0.9-0.2 0.2-0.4 0.3-0.6 0.3q-0.2 0-0.4-0.1l-0.9-0.6c-0.3-0.2-0.4-0.5-0.2-0.8-0.8-1.2 0.1-2.6 1.5-4.7 0.6-0.8 1.2-1.7 1.8-2.7l-3.2-0.7-2.6 4c-1.2 1.8-3.7 2.3-5.6 1.1l-5.1-3.4c-1.9-1.2-2.4-3.7-1.2-5.6l0.9-1.4c1.3 0.5 2.5 1.3 3.7 1.9q0.7 0.4 1.5 0.5c1.1 0.3 2.3 0.2 3.2-0.4 0.2-0.1 0.4-0.3 0.5-0.5 0.1-0.3 0-0.6-0.1-0.9q-0.3-0.6-0.5-1.2c-0.2-0.5-0.4-0.9-0.5-1.5-0.1-0.8 0-1.8 0.6-2.5l2.6 0.6q0.2 0 0.4 0.2l6.2 8.9c0.3 0.4 0.1 0.9-0.3 0.9z"/>
					</g>
					<g id="&lt;Group&gt;">
						<g id="&lt;Group&gt;">
							<path id="&lt;Path&gt;" class="s4" d="m216.6 124.8l-0.7 1.7-3.2 8.1-0.7-2.7-2.3 1.5 3.3-8 0.7-1.7z"/>
							<path id="&lt;Path&gt;" class="s4" d="m223.7 133.4l-2.3-1.5-0.6 2.7-3.3-8.1-0.6-1.7 2.9-1.1 0.7 1.7z"/>
							<path id="&lt;Path&gt;" class="s7" d="m223.3 120c0 2.2-1.1 4.2-2.8 5.4-0.9 0.6-1.9 1-3 1.1q-0.4 0.1-0.8 0.1-0.4 0-0.8-0.1c-1-0.1-2-0.5-2.9-1.1-1.2-0.8-2.1-2.1-2.6-3.5q-0.2-0.9-0.2-1.9c0-3.6 2.9-6.6 6.5-6.6 2.6 0 4.7 1.4 5.8 3.5 0.5 0.9 0.8 2 0.8 3.1z"/>
							<circle id="&lt;Path&gt;" class="s5" cx="216.7" cy="120" r="4.4"/>
							<path id="&lt;Path&gt;" class="s7" d="m217.1 117.8l0.4 1.3q0.1 0.2 0.2 0.2h1.5c0.2 0 0.2 0.2 0.1 0.3l-1.2 0.9q-0.1 0.1-0.1 0.2l0.5 1.4c0 0.2-0.2 0.3-0.3 0.2l-1.2-0.8q-0.1-0.1-0.3 0l-1.1 0.8c-0.2 0.1-0.4 0-0.3-0.2l0.4-1.4q0-0.1-0.1-0.2l-1.1-0.9c-0.2-0.1-0.1-0.3 0.1-0.3h1.4q0.2 0 0.2-0.2l0.5-1.3c0-0.2 0.3-0.2 0.4 0z"/>
						</g>
						<path id="&lt;Path&gt;" class="s18" d="m223.7 133.4l-2.3-1.5-0.6 2.7-3.3-8.1q-0.4 0.1-0.8 0.1-0.4 0-0.8-0.1l-3.2 8.1-0.7-2.7-2.3 1.5 3.3-8c-1.2-0.8-2.1-2.1-2.6-3.5q0 0 0.1 0c0.8 1.1 2.2 1.7 3.6 1.8q0.1 0 0.2-0.1c1 0 2.1-0.4 2.4-1.4q0.2-0.3 0.1-0.7c0-1-0.4-1.9-0.1-2.8q0.2-0.4 0.4-0.7c0.3-0.3 0.7-0.6 1-0.7 0.6-0.3 1.2-0.3 1.8-0.4q0.1 0 0.3 0c0.7-0.1 1.5 0 2.3 0 0.5 0.9 0.8 2 0.8 3.1 0 2.2-1.1 4.2-2.8 5.4z"/>
					</g>
					<path id="&lt;Path&gt;" class="s19" d="m117.5 100.6l3.9 2.3h-6.7l-0.6-1.3q-0.7-0.7-1.3-1.4c-0.2 0-1.3-0.3-1.9-0.7-0.2-0.1-0.6-0.8-1-1.7-0.5-1.4-0.9-3.1-0.5-3.1 0.7 0.1 1.7 2.3 2.4 2.8q0 0 0 0 0.9 0.5 2.7 0.8l1.6 1.2 1.8 0.5-0.4 0.5z"/>
					<path id="&lt;Path&gt;" class="s19" d="m152.2 102.9h-20.7l2.5-2.3q0 0 0 0 0-0.1 0.1 0v-0.1q1.3-0.2 2.5-0.4 1.3-0.2 2.7-0.2c1.2-0.6 1.5-1.4 1.6-2.1-0.8 0.2-1.5 0.2-1.9-0.3-0.4-0.5-0.7-1.4-0.8-2.5q-0.1-0.6-0.2-1.3 0-1.1 0.1-2c-0.4-0.2-0.8-0.5-1-0.7-0.4-0.8-0.8-1.9 0.1-3 0.3-0.3 0.7-0.7 1.2-1 1.2-0.6 2.8-1 4.4-0.9 1.5 0.1 3 0.7 4 1.7 1.2 1.2 1.7 5 0.3 6.6-1.5 1.8-0.9 2.5 0.8 4 0.9 0.7 0.2 1.3-1 1.7q1.8 0.2 3.5 0.5 0.1 0 0.1 0c0.3 0.1 0.9 1 1.7 2.3z"/>
					<g id="&lt;Group&gt;">
						<g id="&lt;Group&gt;">
							<path id="&lt;Path&gt;" class="s20" d="m37.3 215.4c0.1-0.5 0.4-1.2 1.1-1.8q0.5-0.5 0.7-0.9 0.7-0.8 0.8-1.4l1.9 1.6 1.5 1.1q0 0-0.1 0.1c0 0.1-0.3 0.9-0.2 2 0.1 0.3-0.4 0.5-1 0.6q-1.7 0.2-4.9-0.2 0-0.5 0.2-1.1z"/>
							<path id="&lt;Path&gt;" class="s7" d="m48 174.9c2.8-10-2.2-15.1-1.8-27.2 0.1-3.8 0.7-8.2 2.2-13.6l12.8 1.4q0 0.6 0.1 1.3c0.4 3.7 0.6 8.1 0.6 12.5 0 7.6-0.4 15.4-1 20.5q0 0.1 0 0.1 0 0.5-0.1 1-0.2 1.5-0.4 2.5c-1 5.8-9.7 24.5-16.8 40.6q-0.1 0.1-0.4 0.1c-0.5 0-1.1 0-1.6-0.1-1-0.2-1.9-0.7-2.5-1.3q-0.2-0.2-0.3-0.5 7.3-30.5 9.2-37.3z"/>
							<path id="&lt;Path&gt;" class="s21" d="m36.9 215.2q0.2 0.2 0.4 0.2 2.1 1.2 4.5 0.9 0.6 0 1.2-0.2 0.2-0.1 0.3-0.1c0.8 0.4 1.7 1 2.6 1.7 1.9 1.4 3.6 3.1 3.3 4.3-4.3-0.8-8.8-1.9-13.5-2.9q-0.4-2 1.2-3.9z"/>
						</g>
						<g id="&lt;Group&gt;">
							<path id="&lt;Path&gt;" class="s20" d="m59.6 219.4c0.1-0.6 0.2-1.3 0.7-2.1q0.4-0.5 0.6-1 0.4-0.9 0.4-1.5l2.1 1.1 1.8 0.9q-0.3 0.8 0.1 2c0.2 0.5-0.5 0.8-1.4 1q-1.7 0.4-4.2 0.6-0.1-0.4-0.1-1z"/>
							<path id="&lt;Path&gt;" class="s7" d="m60.9 171.3q0-0.2-0.1-0.4-0.1-0.5-0.3-1c-1.6-5.5-4.2-12.6-5.8-20.8-0.8-3.6-1.4-7.5-1.6-11.6l8.2-0.7 5.7-0.5c1.2 3.6 2.4 8 3.3 12.6 2.1 9.7 3.5 20.2 3.6 24.7 0.1 5.9-4.7 25.9-8.3 43.1q-0.2 0.1-0.4 0.1c-0.6 0.2-1.3 0.3-2 0.3-0.9-0.1-1.7-0.3-2.3-0.8q-0.3-0.1-0.5-0.4 1.6-31.3 1.6-38.4c0-1.6-0.4-3.7-1.1-6.2z"/>
							<path id="&lt;Path&gt;" class="s21" d="m59.2 219.3q0.2 0 0.4 0.1c1.4 0.4 2.7 0.4 4 0.1q0.9-0.2 1.7-0.7 0.2 0 0.3-0.1c1 0.3 2.3 0.8 3.6 1.5 1.8 0.9 3.4 2.1 3.4 3.2-4.4 0.2-9 0-13.8-0.1-0.5-1.2-0.4-2.6 0.4-4z"/>
						</g>
						<path id="&lt;Path&gt;" class="s5" d="m70.9 148.7c-1.7 1-22.9 1-25.1-1.3 1.3-17.6-5.2-36.6 2.1-44.5 4.3-2.4 15.5-2 21.9 0.9q0.4 0.1 0.6 0.3 0.3 3.4 0.5 6.7c0 1.1 0.1 2.1 0.1 3.2 0.7 11.9 1.3 27.6-0.1 34.7z"/>
						<g id="&lt;Group&gt;">
							<path id="&lt;Path&gt;" class="s20" d="m55.9 101.7c0.9-1.5 1-3.2 1.1-5.1h4c0 1.9 0 3.7 0.6 5.6-0.4 0.8-5.3 0.5-5.7-0.5z"/>
						</g>
						<g id="&lt;Group&gt;">
							<path id="&lt;Path&gt;" class="s20" d="m55.5 85.9l11.1 0.8c-0.2 3.8-1.9 10.6-3.9 12.8-1.7 1.1-4.4-0.2-7.2-1.4z"/>
						</g>
						<path id="&lt;Path&gt;" class="s22" d="m53.9 86.2c1.6-1.1 4.4-3.9 6.7-3.2 2.6 1.1 3.6-1.5 6.9 1.4 0.6 1.4 1 2.3-0.3 4.1-0.5 1.4-2.8 1.3-5.2 1l0.6 2.8-0.8 1c-0.5-0.7-0.9-1.3-1.4-1.7-0.7 0.3-1.3 0.8-1.1 1.6 0 0.9 1.3 1.7 2.5 2.5 0.2 2.1-1.4 4.4-3.7 4.1-3.9-0.4-2.3-1.8-3.5-2.8-4-3.7-3.4-8.6-0.7-10.8z"/>
						<path id="&lt;Path&gt;" class="s5" d="m76.7 123.7c-5.6 1.6-12.3-12.8-14.4-16.3l8.1-3.4h0.1c2 2 3.9 7.3 5.9 12.2l20.8-8.9 1.6 2.7c-5.8 4-20.1 13.6-22.1 13.7z"/>
						<g id="&lt;Group&gt;">
							<path id="&lt;Path&gt;" class="s20" d="m97.2 107.3c0-0.9 0.5-2.1 1.2-3.3 1.5 0 0.7 1.5 1.8 1.3l1.5-1.9c1.1 0.9 1.3 2.2 0.3 3.9-0.5 0.7-1.9 1.7-3.2 2.7z"/>
						</g>
						<path id="&lt;Path&gt;" class="s19" d="m71.2 117.1c1.5 1.7 3.3 3.5 4.6 3.9 1.9 0.6 6.3-0.9 10.8-2.9-4.7 3-8.9 5.5-9.9 5.5-1.7 0.5-3.5-0.5-5.3-2.2 0.1 2.5 0.2 5 0.2 7.5-0.3-3.6-0.8-6.4-1.2-8.6-0.8-4.1-1.6-6-1.7-6.3 0.2 0.2 1.2 1.6 2.5 3.1z"/>
						<path id="&lt;Path&gt;" class="s19" d="m41.6 214q0-0.5 0.2-1.1c0.1-0.8 0.3-1.6 0.6-2.5 2.7-8.6 16.1-36 18.1-40.5q0.2-0.5 0.2-0.6 0.2 0 0.2 0.5 0 0.1 0 0.1 0.1 0.5 0 1.4 0-0.2-0.1-0.4-0.2 1.5-0.4 2.5c-1 5.8-9.7 24.5-16.8 40.6q-0.1 0.1-0.4 0.1c0 0.1-0.3 0.9-0.2 2q0.2-0.1 0.3-0.1c0.8 0.4 1.7 1 2.6 1.7-1.9 0-3.3-0.1-3.9-1q-0.2-0.2-0.2-0.4c-0.3-0.6-0.3-1.3-0.2-2.3z"/>
						<path id="&lt;Path&gt;" class="s19" d="m63.4 215.9q0-0.3 0.1-0.7c1.4-6.4 8.8-32.3 6.8-39.1q-2-6.9-6.1-26.8 0.1 0 0.2 0c0.8-0.1 4.9-0.8 5.9-0.4 2.1 9.7 3.5 20.2 3.6 24.7 0.1 5.9-4.7 25.9-8.3 43.1q-0.2 0.1-0.4 0.1-0.3 0.8 0.1 2 0.2 0 0.3-0.1c1 0.3 2.3 0.8 3.6 1.5-2.4 0.5-4.4 0.6-5.3-0.4q-0.2-0.1-0.3-0.3c-0.3-0.6-0.5-1.3-0.4-2.4q0-0.5 0.2-1.2z"/>
					</g>
					<g id="&lt;Group&gt;">
						<path id="&lt;Path&gt;" class="s7" d="m226.8 29.1c0 3.2-2.6 5.8-5.8 5.8-3.2 0-5.7-2.6-5.7-5.8q0-0.1 0-0.3c0.1-3 2.6-5.4 5.7-5.4 0.9 0 1.7 0.2 2.4 0.5 2 0.9 3.4 2.9 3.4 5.2z"/>
						<path id="&lt;Path&gt;" class="s5" d="m224 31.8c-0.4 0.4-1 0.4-1.4 0l-1.6-1.5-1.5 1.5c-0.4 0.4-1 0.4-1.4 0-0.4-0.4-0.4-1 0-1.4l1.6-1.5-1.6-1.6c-0.2-0.2-0.3-0.4-0.3-0.7 0-0.2 0.1-0.5 0.3-0.7 0.4-0.3 1-0.3 1.4 0l1.5 1.6 1.6-1.6c0.4-0.3 1-0.3 1.4 0 0.2 0.2 0.3 0.5 0.3 0.7 0 0.3-0.1 0.5-0.3 0.7l-1.6 1.6 1.6 1.5c0.4 0.4 0.4 1 0 1.4z"/>
						<path id="&lt;Path&gt;" class="s23" d="m226.8 29.1c0 3.2-2.6 5.8-5.8 5.8-3.2 0-5.7-2.6-5.7-5.8q0-0.1 0-0.3c0.3-0.1 0.6-0.2 0.9-0.2 1.1 0.1 2.1 0.5 3.1 0.7q0.1 0.1 0.2 0.1c0.8 0.1 1.8 0.1 2.6-0.3q0.1 0 0.2-0.1c0.8-0.3 1.4-1 1.7-1.9 0.2-0.9 0-1.9-0.4-2.8q0-0.2-0.2-0.4c2 0.9 3.4 2.9 3.4 5.2z"/>
					</g>
					<g id="&lt;Group&gt;">
						<g id="&lt;Group&gt;">
							<g id="&lt;Group&gt;">
								<path id="&lt;Path&gt;" class="s20" d="m146.7 216.3c-1.8-14.1-6-28.9-5.7-36.4 0.4-9.3 3.4-20.1 7.5-30.9l7.4 1.6c0.1 9.7 0.9 15.2-4.8 29.5-0.9 8.5-0.7 21.2 0.3 35-0.1 1.2-3.1 1.9-4.7 1.2z"/>
							</g>
							<path id="&lt;Path&gt;" class="s24" d="m151.4 215.1q1.9 1.4 1.4 2.7-0.5 1.4-9.8 4.5 2.2-3.8 3.7-6 1.6-2.3 4.7-1.2z"/>
							<path id="&lt;Path&gt;" class="s13" d="m148.2 217.9c1.5 0.3 2.6-2.5 3.5-2.6 1-0.1 2.2 1.8 1.7 3.2q-0.6 1.4 0.4 2.9c-0.2 0.4-0.6 0.6-0.9 0.6q-1-2.6-3.8-1.3c-2.7 1.3-2.3 1.9-3.2 2.8-0.9 0.8-5.6 1.7-5.5 0.4q0.1-1.4 4.5-5.7c1-1 1.8-0.5 3.3-0.3z"/>
						</g>
						<g id="&lt;Group&gt;">
							<g id="&lt;Group&gt;">
								<path id="&lt;Path&gt;" class="s20" d="m166.6 216.3c-5-13.4-12.4-26.9-13.8-34.3-1.7-9.1-1.3-20.3 0.3-31.7l7.5-0.1c2.4 9.4 4.1 14.8 1.8 30 1.1 8.5 4.4 20.6 8.5 33.8 0.2 1.2-2.6 2.6-4.3 2.3z"/>
							</g>
							<path id="&lt;Path&gt;" class="s24" d="m170.9 214q2.2 0.9 2 2.4-0.2 1.4-8.6 6.6 1.3-4.2 2.3-6.7 1.1-2.6 4.3-2.3z"/>
							<path id="&lt;Path&gt;" class="s13" d="m168.4 217.5c1.5-0.1 1.9-3 2.9-3.4 0.9-0.3 2.5 1.3 2.3 2.8q-0.3 1.5 1 2.8c0 0.4-0.4 0.7-0.7 0.7q-1.5-2.3-4-0.4c-2.4 1.8-1.8 2.4-2.5 3.4-0.7 1-5 3-5.2 1.6q-0.2-1.3 3.1-6.5c0.7-1.2 1.6-0.9 3.1-1z"/>
						</g>
						<g id="&lt;Group&gt;">
							<path id="&lt;Path&gt;" class="s5" d="m141.1 140.7l24.2 1c2 0 3.1 31.5 2.2 32.8-2.8 3.7-28.6 4.8-29.4 2.4z"/>
						</g>
						<path id="&lt;Path&gt;" class="s4" d="m167.3 147.9c-6.7 1.5-17.1 0.6-28.2-1.6 6.5-28.2-6.9-30.5 3.1-43q1.6-0.3 3.3-0.5c4.1-0.6 8.5-0.6 13.1-0.1q2.2 0.2 4.5 0.6c4.2 13.1 2.2 38.4 4.2 44.6z"/>
						<path id="&lt;Path&gt;" class="s24" d="m152.3 130.8q-1.1 0.5-2.2 1l-1.6-3.3 1.8-1.2z"/>
						<g id="&lt;Group&gt;">
							<g id="&lt;Group&gt;">
								<g id="&lt;Group&gt;">
									<path id="&lt;Path&gt;" class="s20" d="m163 103.3c4.3 5.4 6.9 12.4 7.6 16.8-3.3 3.9-13.2 8.5-22.7 12.7l-1.5-2.9 18.1-12.1-6.6-10.3z"/>
								</g>
								<path id="&lt;Path&gt;" class="s4" d="m170.6 120.1c-1.6 3.1-10.3 7.1-18.3 10.7l-2-3.5 13.7-9.4-6.5-10.5 5.5-4.1c1.2 0 8 12.4 7.6 16.8z"/>
								<path id="&lt;Path&gt;" class="s5" d="m152.7 131.5l-2.6 0.3-1.6-3.3 1.4-2 0.4 0.8 2 3.5z"/>
							</g>
							<g id="&lt;Group&gt;">
								<path id="&lt;Path&gt;" class="s20" d="m147.9 132.8q-1.2 1-2 1.5c-0.8 0.4-6.7-1.2-6.2-1.8 0.6-0.7 3.7-0.3 4.6-0.7q1.2-0.5 2.1-1.9z"/>
							</g>
						</g>
						<g id="&lt;Group&gt;">
							<g id="&lt;Group&gt;">
								<g id="&lt;Group&gt;">
									<path id="&lt;Path&gt;" class="s20" d="m148 107.1c-3.6 5.8-9.4 10.6-13.2 12.8-4.8-1.7-12.5-9.5-19.7-17l2.2-2.4 17.5 12.9 7.5-9.7z"/>
								</g>
								<path id="&lt;Path&gt;" class="s4" d="m134.8 119.9c-3.5-0.5-10.2-7.2-16.3-13.5l2.6-3.1 12.8 7.6 8.4-7.6 5.7 3.8c0.4 1.1-9 11.7-13.2 12.8z"/>
								<path id="&lt;Path&gt;" class="s5" d="m117.9 107l-1.1-2.4 2.5-2.6 2.4 0.6-0.6 0.7-2.6 3.1z"/>
							</g>
							<g id="&lt;Group&gt;">
								<path id="&lt;Path&gt;" class="s20" d="m115.2 102.9q-1.6-0.5-2.4-0.9c-0.8-0.4-2.8-6.1-2-6.1 0.9 0.1 2.3 2.9 3.2 3.5q1 0.7 3.3 1.1z"/>
							</g>
						</g>
						<path id="&lt;Path&gt;" class="s5" d="m158.6 102.7q0 0-0.1 0.1-3.5 1-9 15.3-2.2-11.3-4-15.3c4.1-0.6 8.5-0.6 13.1-0.1z"/>
						<g id="&lt;Group&gt;">
							<path id="&lt;Path&gt;" class="s20" d="m148.9 102.4c3.2-1.5 1.6-4.2 2.2-4.1l3.5-0.2c0.3 0.2-0.2 3.1 1.6 4.4-2 1.8-5.3 1.7-7.3-0.1z"/>
						</g>
						<g id="&lt;Group&gt;">
							<path id="&lt;Path&gt;" class="s20" d="m156.4 90c0.4 2.2-0.3 5.4-1.4 9-2.2 0.2-5.3 1.8-6.5 0.5-1.4-1.8-1.7-8.2-0.5-9.8 2.1-1.2 5.1-0.7 8.4 0.3z"/>
						</g>
						<path id="&lt;Path&gt;" class="s5" d="m147.8 86.1c2.8-1.6 7.9-1.9 10.7 1 1.5 1.6 2.2 6.4 0.4 8.4-2 2.2-1.2 3.1 1 5 2.2 1.9-3.4 3.2-5.8 2.2-3.7-1.5-1.8-5.9-0.8-7.5 1-1.6 0.6-4.2-1.2-3-1.7 1.2-5.1 0.1-5.9-1.1-0.8-1.2-1.3-3.3 1.6-5z"/>
						<path id="&lt;Path&gt;" class="s19" d="m174.7 219.7c-0.1 0.4-0.5 0.7-0.8 0.7q-1.5-2.3-3.9-0.4c-2.5 1.8-1.8 2.4-2.6 3.4-0.7 1-5 3-5.2 1.6-0.1-0.6 0.6-2.3 1.4-3.7q0.5-0.2 0.9-0.3 0.2 0 0.5 0c0.7-0.1 1.4-0.2 2.1-0.5 1.5-0.6 2.4-2.2 2.5-3.9q0.1-0.5 0-1 0-0.1 0-0.3 0-0.6-0.2-1.2c-0.4-1.6-1.2-3-1.9-4.5-4-8.1-5.6-17.1-7.2-26-0.3-2.1-0.7-4.2-1-6.4-0.3-2.4 4.4-4.8 4.2-7.2-0.4-4.2 0.3-11 0.8-13.2-0.2-3.1 2.3-8.9 2.5-8.8 0.9 9.3 1.4 25.6 0.7 26.5-0.6 0.8-2.3 1.5-4.6 2q-0.2 1.8-0.5 3.7c1.1 8.5 4.4 20.6 8.5 33.8q0.1 0 0.3 0.2 0-0.1 0 0 0-0.1 0.1-0.1c0.9-0.3 2.6 1.3 2.3 2.8q-0.3 1.5 1.1 2.8z"/>
						<path id="&lt;Path&gt;" class="s19" d="m153.8 221.4c-0.2 0.4-0.6 0.6-0.9 0.6q-1-2.6-3.8-1.3c-2.7 1.2-2.3 2-3.2 2.8-0.8 0.7-4.5 1.5-5.3 0.7 0.6-0.6 1.6-1.3 2.5-2 0.6-0.4 1.1-0.8 1.5-1.2 1.6-1.3 3.9-1.1 5.7-4.4q0.1-0.3 0.2-0.5 0.2-0.5 0.3-1.2c0.6-3.7-1.4-10.1-2.3-17.5q-1.2-8.6 0.7-19.2l2.7-0.2q-0.4 1-0.8 2.1c-0.9 8.5-0.7 21.2 0.3 35q0.1 0.1 0.3 0.2 0 0 0 0c1-0.1 2.3 1.8 1.7 3.2q-0.6 1.4 0.4 2.9z"/>
						<path id="&lt;Path&gt;" class="s19" d="m167.3 147.9c-6.7 1.5-17.1 0.6-28.2-1.6q0.2-0.9 0.4-1.7c1.7-0.3 4.1-0.4 6.9-0.4 9.2 0 11.9 0.4 14.5-3 3.8-5.2 6.7-13.8 1-11.7q-4.5 1.7-9.2 1.3c6.7-3.7 11.6-5 13.2-6.6 0.4 10.3 0.3 20.1 1.4 23.7z"/>
						<path id="&lt;Path&gt;" class="s19" d="m140.6 112q-0.5 2.4-1.2 4.7-0.1 0.2-0.1 0.4-0.1 0 0 0-0.1 0.3-0.2 0.5-0.1-0.1-0.1-0.3c-1.6 1.3-3.1 2.3-4.2 2.6-2.5-0.3-6.4-3.7-10.7-7.8q0.3 0.2 0.5 0.4 0.1 0 0.1 0c4 3 7.8 5 10.3 3.6 1.4-0.8 2.5-1.6 3.4-2.3q1.4-1 2.2-1.8z"/>
						<path id="&lt;Path&gt;" class="s19" d="m164 117.9l-7.8 5.4q3.2-3.9 4.3-7 1-3.1-1.5-6.5z"/>
						<g id="&lt;Group&gt;">
							<path id="&lt;Path&gt;" class="s7" d="m140.2 113.9l5.9 17c0.4 1.1-0.4 1.9-1.7 1.9h-15.1c-1.3 0-2.7-0.8-3-1.9l-5.9-17c-0.4-1 0.4-1.9 1.7-1.9h15c1.4 0 2.7 0.9 3.1 1.9z"/>
							<path id="&lt;Path&gt;" class="s13" d="m133.4 111.8l0.2 0.6c0.2 0.6-0.2 1.1-0.9 1.1h-5.1c-0.8 0-1.5-0.5-1.8-1.1l-0.2-0.6c-0.2-0.6 0.3-1.1 1-1.1h5.1c0.8 0 1.5 0.5 1.7 1.1z"/>
							<path id="&lt;Path&gt;" class="s13" d="m130.2 110.4q0.1 0.2 0 0.3c0 0.4-0.4 0.6-0.8 0.6-0.5 0-1-0.2-1.3-0.6q-0.1-0.1-0.2-0.3c-0.2-0.5 0.2-0.9 0.9-0.9 0.6 0 1.2 0.4 1.4 0.9z"/>
							<path id="&lt;Path&gt;" class="s25" d="m134.7 120.1q0.2 0.8 0.6 1.6c0.1 0.4 0.4 0.9 0.6 1.2q0.6 0.9 1.4 1.8 0.1 0.1 0.2 0.2c1.4 1.5 3.3 2.9 5.3 3.8 1 0.4 2 0.8 2.9 1.1l0.4 1.1c0.4 1.1-0.4 1.9-1.7 1.9h-15.1c-1.3 0-2.7-0.8-3-1.9l-1.7-4.7c0.5-1.4 1.2-2.5 1.7-3.9 0.1-0.2 0.1-0.4 0.2-0.6q0.2-0.9 0.3-1.7c0-1-0.1-2-0.4-3.1 0-0.3-0.2-0.7-0.3-1-0.5-1.4-1.5-2.6-2.4-3.9h2l-0.1-0.2c-0.2-0.6 0.3-1.1 1-1.1h1.5q-0.1-0.1-0.2-0.3c-0.2-0.5 0.2-0.9 0.9-0.9 0.6 0 1.2 0.4 1.4 0.9q0.1 0.2 0 0.3h1.5c0.8 0 1.5 0.5 1.7 1.1l0.1 0.2h3.6c1.4 0 2.7 0.9 3.1 1.9l0.7 2c-1.8 0.4-3.8 0.7-5.2 1.7-0.5 0.3-0.9 0.7-1 1.2-0.1 0.4 0 0.9 0 1.3z"/>
						</g>
						<g id="&lt;Group&gt;">
							<path id="&lt;Path&gt;" class="s20" d="m146.7 131.8c-0.4 0.6 0.7 1.6-1.5 0.3-2.1-1.3-3.8-3 0.8-1.6q1.1 0.7 0.7 1.3z"/>
						</g>
					</g>
					<g id="&lt;Group&gt;">
						<path id="&lt;Path&gt;" class="s4" d="m127.2 34.3c0 6-4.9 10.9-11 10.9-4.1 0-7.7-2.2-9.6-5.5-0.9-1.6-1.4-3.5-1.4-5.4 0-6.1 4.9-11 11-11 4.8 0 8.9 3.1 10.4 7.4q0.6 1.7 0.6 3.6z"/>
						<g id="&lt;Group&gt;">
							<path id="&lt;Path&gt;" class="s5" d="m114.1 40.8q0 0 0 0c-0.4 0-0.7-0.2-0.9-0.5l-2.9-4.3c-0.3-0.5-0.2-1.2 0.3-1.5 0.6-0.4 1.3-0.2 1.6 0.3l2 2.9 6-8.2c0.4-0.5 1.1-0.6 1.6-0.2 0.5 0.3 0.6 1 0.2 1.5l-7 9.5c-0.2 0.3-0.5 0.5-0.9 0.5z"/>
						</g>
						<path id="&lt;Path&gt;" class="s26" d="m127.2 34.3c0 6-4.9 10.9-11 10.9-4.1 0-7.7-2.2-9.6-5.5 1.5 0.3 3.1 0.1 4.4-0.5q0.6-0.2 1.1-0.6c0.6-0.4 1.1-0.9 1.6-1.5 0.7-0.9 1.2-1.9 1.4-3 0.3-1.3 0.2-2.7 0.8-3.9 0.8-1.6 2.8-2.3 4.6-2.2 1.8 0.2 3.4 1 5 2q0.6 0.3 1.1 0.7 0.6 1.7 0.6 3.6z"/>
					</g>
					<g id="&lt;Group&gt;">
						<path id="&lt;Path&gt;" class="s27" d="m117.2 42.5c-2.4 2.5-6.3 2.6-8.8 0.2-2.4-2.4-2.5-6.3-0.1-8.7 2.3-2.5 6.2-2.6 8.7-0.2 2.5 2.3 2.6 6.3 0.2 8.7z"/>
						<path id="&lt;Compound Path&gt;" fill-rule="evenodd" class="s7" d="m121.8 38.5c0 2.2-0.9 4.3-2.5 6-3.1 3.3-8 3.7-11.6 1.3l-3.4 3.6-3.5 3.6-2.4-2.2 2.9-3 0.6-0.7 3.4-3.5c-2.5-3.5-2.2-8.4 0.8-11.7 3.5-3.6 9.3-3.7 12.9-0.2 2 1.8 2.9 4.3 2.8 6.8zm-2.9-1c-0.2-1.4-0.8-2.7-1.9-3.7-2.4-2.4-6.4-2.3-8.7 0.2-2.4 2.4-2.3 6.3 0.1 8.7h0.1c2.4 2.4 6.3 2.3 8.7-0.2 1.3-1.4 1.9-3.3 1.7-5z"/>
						<path id="&lt;Path&gt;" class="s13" d="m104.3 49.4c0 0.6-0.2 1.3-0.7 1.8l-6 6.2c-0.4 0.5-1.1 0.7-1.7 0.7-0.6 0-1.2-0.2-1.6-0.6-1-1-1-2.5-0.1-3.4l5.8-6.1 0.2-0.1c0.5-0.5 1.1-0.8 1.7-0.8q0.4 0 0.8 0.2 0.5 0.1 0.8 0.5c0.5 0.4 0.8 1 0.8 1.6z"/>
						<path id="&lt;Path&gt;" class="s28" d="m121.8 38.5c0 2.2-0.9 4.3-2.5 6-3.1 3.3-8 3.7-11.6 1.3l-3.4 3.6c0 0.6-0.2 1.3-0.7 1.8l-6 6.2c-0.4 0.5-1.1 0.7-1.7 0.7-0.6 0-1.2-0.2-1.6-0.6-1-1-1-2.5-0.1-3.4l5.8-6.1q0.7-0.1 1.3-0.2 0.7-0.2 1.4-0.5c1.7-0.7 3.3-1.8 4.5-3.1q0.7-0.7 1.3-1.5c1.2-1.7 2.4-3.4 4.1-4.5 1.9-1.1 4.2-1.2 6.3-0.7q0.4 0 0.8 0.2c0.5 0.1 1.3 0.4 2.1 0.8z"/>
					</g>
				</g>
			</g>
		</g>
	</g>
</svg>