<svg version="1.2" xmlns="http://www.w3.org/2000/svg" viewBox="0 0 300 225" width="1000" height="750">
	<title>Illustration_Online Education-ai</title>
	<defs>
		<linearGradient id="g1" x1="271" y1="1.2" x2="289.7" y2="208" gradientUnits="userSpaceOnUse">
			<stop offset="0" stop-color="#7035bb"/>
			<stop offset="1" stop-color="#36164d"/>
		</linearGradient>
		<linearGradient id="g2" x1="304.3" y1="39.7" x2="258.3" y2="243.3" gradientUnits="userSpaceOnUse">
			<stop offset="0" stop-color="#ffffff"/>
			<stop offset="1" stop-color="#000000"/>
		</linearGradient>
		<linearGradient id="g3" x1="260.6" y1="34.4" x2="298.6" y2="207.9" gradientUnits="userSpaceOnUse">
			<stop offset="0" stop-color="#ffffff"/>
			<stop offset="1" stop-color="#000000"/>
		</linearGradient>
		<linearGradient id="g4" x1="256.9" y1="124" x2="272.1" y2="226.9" gradientUnits="userSpaceOnUse">
			<stop offset="0" stop-color="#ffffff"/>
			<stop offset="1" stop-color="#000000"/>
		</linearGradient>
		<clipPath clipPathUnits="userSpaceOnUse" id="cp1">
			<path d="m238.34 130.48q0.04 0.54 0.1 1.08 0.11 1.08 0.28 2.15 0.09 0.54 0.2 1.09 0.21 1.04 0.47 2.06 0.13 0.53 0.28 1.05 0.29 1.03 0.64 2.05 0.16 0.48 0.33 0.96 0.39 1.07 0.83 2.12 0.17 0.4 0.34 0.8 0.52 1.19 1.1 2.35 0.11 0.25 0.23 0.49c1.45 2.88 3.12 5.65 4.85 8.33q0.19 0.3 0.39 0.6 0.65 1 1.3 1.98 0.42 0.63 0.84 1.25 0.35 0.52 0.7 1.03c3.38 4.97 6.63 9.64 8.73 14.16q0.14 0.3 0.27 0.6 0.26 0.6 0.49 1.19 0.18 0.45 0.34 0.89 0.19 0.52 0.34 1.03 0.16 0.51 0.29 1.02 0.12 0.48 0.22 0.95 0.11 0.55 0.18 1.1 0.07 0.43 0.12 0.87 0.05 0.62 0.05 1.25 0.01 0.36 0.01 0.71-0.03 0.96-0.2 1.92-0.06 0.3-0.14 0.59-0.14 0.68-0.35 1.36-0.14 0.41-0.31 0.81-0.22 0.57-0.49 1.14-0.22 0.44-0.47 0.87-0.3 0.54-0.65 1.09-0.3 0.44-0.63 0.89-0.4 0.54-0.86 1.08-0.36 0.44-0.77 0.88-0.53 0.56-1.11 1.12-0.43 0.42-0.89 0.85-0.71 0.62-1.5 1.24c-0.3 0.24-0.58 0.49-0.9 0.73q-1.29 0.98-2.8 1.98c-20.26 13.25-80.74-18.64-104.44 1.24-23.69 19.9-97.82 21.61-99.29-9.85q-0.07-1.42 0-2.73c0.02-0.39 0.08-0.75 0.11-1.13 0.05-0.47 0.08-0.95 0.15-1.39 0.06-0.4 0.16-0.76 0.24-1.14 0.09-0.4 0.16-0.81 0.26-1.19 0.1-0.37 0.24-0.71 0.36-1.07q0.17-0.54 0.37-1.07 0.22-0.49 0.46-0.97 0.23-0.51 0.48-1 0.26-0.44 0.54-0.86 0.29-0.49 0.61-0.96 0.29-0.39 0.59-0.76 0.35-0.46 0.73-0.91 0.32-0.34 0.65-0.68 0.41-0.44 0.84-0.85 0.34-0.31 0.7-0.61 0.46-0.41 0.94-0.81 0.36-0.27 0.74-0.54 0.51-0.39 1.04-0.76 0.38-0.25 0.77-0.5 0.55-0.36 1.13-0.71 0.4-0.24 0.82-0.46 0.58-0.34 1.17-0.66 0.45-0.23 0.91-0.46 0.57-0.3 1.16-0.59 0.52-0.24 1.04-0.48 0.55-0.25 1.1-0.5 0.63-0.28 1.26-0.55 0.45-0.19 0.89-0.38 0.88-0.36 1.76-0.72 0.18-0.07 0.35-0.14 0.23-0.09 0.46-0.18h0.02q2.99-1.18 5.99-2.34 0.15-0.06 0.29-0.12 0.68-0.26 1.35-0.54 0.51-0.2 1.02-0.41 0.51-0.21 1.02-0.43 0.61-0.25 1.21-0.51 0.46-0.2 0.92-0.41 0.62-0.27 1.22-0.55 0.46-0.22 0.91-0.44 0.59-0.28 1.16-0.57 0.48-0.25 0.95-0.51 0.53-0.28 1.04-0.57 0.51-0.3 1.01-0.61 0.45-0.26 0.88-0.54 0.55-0.36 1.07-0.73 0.37-0.25 0.72-0.51 0.58-0.43 1.12-0.89 0.28-0.22 0.55-0.45 0.6-0.53 1.16-1.1 0.19-0.17 0.37-0.35 0.62-0.66 1.19-1.36 0.1-0.11 0.19-0.22 0.62-0.78 1.15-1.63 0.03-0.05 0.07-0.09 1.13-1.8 1.87-3.93c2.01-5.88 2.01-11.72 0.32-17.67q-0.01-0.02-0.01-0.04-0.24-0.8-0.51-1.61-0.06-0.2-0.13-0.39-0.24-0.67-0.5-1.35-0.13-0.33-0.26-0.67-0.23-0.55-0.48-1.1-0.19-0.46-0.4-0.92-0.21-0.44-0.43-0.87-0.28-0.59-0.57-1.17-0.17-0.31-0.34-0.62-0.38-0.72-0.79-1.44-0.1-0.18-0.21-0.36-0.49-0.85-1.02-1.71-0.06-0.09-0.11-0.17c-7.32-11.7-19.94-24.24-35.78-38.76-29.92-27.43-4.54-73.41 42.72-73.41 5.6 0 10.58 0.72 15.07 1.96 33.48 9.15 39.18 46.96 60.04 31.67 26.94-19.76 72.6-28.34 91.89-1.47q0.53 0.73 1.03 1.47c4.36 6.67 5.37 13.09 4.31 19.41-3.49 20.81-29.43 40.74-32.86 66.99q-0.22 1.73-0.26 3.4 0 0.47 0.01 0.93-0.01 1.2 0.07 2.37z"/>
		</clipPath>
		<linearGradient id="g5" x1="273.2" y1="147" x2="243.9" y2="148.1" gradientUnits="userSpaceOnUse">
			<stop offset="0" stop-color="#ffffff"/>
			<stop offset="1" stop-color="#000000"/>
		</linearGradient>
		<linearGradient id="g6" x1="229.8" y1="134" x2="254.1" y2="150.2" gradientUnits="userSpaceOnUse">
			<stop offset="0" stop-color="#ffffff"/>
			<stop offset="1" stop-color="#000000"/>
		</linearGradient>
		<linearGradient id="g7" x1="18.6" y1="141.5" x2="49.3" y2="113" gradientUnits="userSpaceOnUse">
			<stop offset="0" stop-color="#ffffff"/>
			<stop offset="1" stop-color="#000000"/>
		</linearGradient>
		<linearGradient id="g8" x1="18.5" y1="169.7" x2="61.5" y2="161.8" gradientUnits="userSpaceOnUse">
			<stop offset="0" stop-color="#ffffff"/>
			<stop offset="1" stop-color="#000000"/>
		</linearGradient>
		<linearGradient id="g9" x1="67" y1="144.8" x2="51.8" y2="171.6" gradientUnits="userSpaceOnUse">
			<stop offset="0" stop-color="#ffffff"/>
			<stop offset="1" stop-color="#000000"/>
		</linearGradient>
		<linearGradient id="g10" x1="212.4" y1="6.6" x2="281.2" y2="97.2" gradientUnits="userSpaceOnUse">
			<stop offset="0" stop-color="#ffffff"/>
			<stop offset="1" stop-color="#000000"/>
		</linearGradient>
		<linearGradient id="g11" x1="127.1" y1="115.6" x2="192" y2="115.6" gradientUnits="userSpaceOnUse">
			<stop offset="0" stop-color="#ffffff"/>
			<stop offset="1" stop-color="#000000"/>
		</linearGradient>
		<linearGradient id="g12" x1="204.3" y1="161.4" x2="212.1" y2="170.7" gradientUnits="userSpaceOnUse">
			<stop offset="0" stop-color="#ffffff"/>
			<stop offset="1" stop-color="#000000"/>
		</linearGradient>
		<linearGradient id="g13" x1="215.9" y1="158.2" x2="228.6" y2="171.4" gradientUnits="userSpaceOnUse">
			<stop offset="0" stop-color="#ffffff"/>
			<stop offset="1" stop-color="#000000"/>
		</linearGradient>
		<linearGradient id="g14" x1="168" y1="99.9" x2="201.9" y2="99.2" gradientUnits="userSpaceOnUse">
			<stop offset="0" stop-color="#ffffff"/>
			<stop offset="1" stop-color="#000000"/>
		</linearGradient>
		<linearGradient id="g15" x1="180.2" y1="91.5" x2="190.2" y2="68.6" gradientUnits="userSpaceOnUse">
			<stop offset="0" stop-color="#ffffff"/>
			<stop offset="1" stop-color="#000000"/>
		</linearGradient>
		<linearGradient id="g16" x1="203" y1="52.8" x2="216.5" y2="53.6" gradientUnits="userSpaceOnUse">
			<stop offset="0" stop-color="#ffffff"/>
			<stop offset="1" stop-color="#000000"/>
		</linearGradient>
		<linearGradient id="g17" x1="189.7" y1="78" x2="176.4" y2="75.2" gradientUnits="userSpaceOnUse">
			<stop offset="0" stop-color="#ffffff"/>
			<stop offset="1" stop-color="#000000"/>
		</linearGradient>
		<linearGradient id="g18" x1="230.7" y1="101.3" x2="206.6" y2="104" gradientUnits="userSpaceOnUse">
			<stop offset="0" stop-color="#ffffff"/>
			<stop offset="1" stop-color="#000000"/>
		</linearGradient>
		<linearGradient id="g19" x1="80.3" y1="61.8" x2="125.7" y2="76.1" gradientUnits="userSpaceOnUse">
			<stop offset="0" stop-color="#ffffff"/>
			<stop offset="1" stop-color="#000000"/>
		</linearGradient>
		<linearGradient id="g20" x1="105" y1="-2.7" x2="138.4" y2="-2.7" gradientUnits="userSpaceOnUse">
			<stop offset="0" stop-color="#ffffff"/>
			<stop offset="1" stop-color="#000000"/>
		</linearGradient>
		<linearGradient id="g21" x1="127.2" y1="29.6" x2="142.3" y2="29.6" gradientUnits="userSpaceOnUse">
			<stop offset="0" stop-color="#ffffff"/>
			<stop offset="1" stop-color="#000000"/>
		</linearGradient>
	</defs>
	<style>
		.s0 { fill: url(#g1) } 
		.s1 { opacity: .5;mix-blend-mode: overlay;fill: url(#g2) } 
		.s2 { opacity: .5;mix-blend-mode: overlay;fill: url(#g3) } 
		.s3 { opacity: .5;mix-blend-mode: overlay;fill: url(#g4) } 
		.s4 { fill: #ffffff } 
		.s5 { fill: #36164d } 
		.s6 { mix-blend-mode: overlay;fill: url(#g5) } 
		.s7 { mix-blend-mode: overlay;fill: url(#g6) } 
		.s8 { fill: #ff4777 } 
		.s9 { fill: #7035bb } 
		.s10 { mix-blend-mode: overlay;fill: url(#g7) } 
		.s11 { mix-blend-mode: overlay;fill: url(#g8) } 
		.s12 { mix-blend-mode: overlay;fill: url(#g9) } 
		.s13 { fill: #f3effe } 
		.s14 { opacity: .5;mix-blend-mode: overlay;fill: url(#g10) } 
		.s15 { mix-blend-mode: overlay;fill: #f3effe } 
		.s16 { opacity: .5;mix-blend-mode: overlay;fill: url(#g11) } 
		.s17 { opacity: .5;mix-blend-mode: overlay;fill: url(#g12) } 
		.s18 { opacity: .5;mix-blend-mode: overlay;fill: url(#g13) } 
		.s19 { opacity: .5;mix-blend-mode: overlay;fill: url(#g14) } 
		.s20 { opacity: .5;mix-blend-mode: overlay;fill: url(#g15) } 
		.s21 { opacity: .5;mix-blend-mode: overlay;fill: url(#g16) } 
		.s22 { opacity: .5;mix-blend-mode: overlay;fill: url(#g17) } 
		.s23 { opacity: .5;mix-blend-mode: overlay;fill: url(#g18) } 
		.s24 { fill: #fbd783 } 
		.s25 { opacity: .5;mix-blend-mode: overlay;fill: url(#g19) } 
		.s26 { opacity: .1;fill: #000000 } 
		.s27 { fill: #2a195b } 
		.s28 { fill: #faf1f3 } 
		.s29 { fill: #816ad6 } 
		.s30 { fill: #d8d8d8 } 
		.s31 { opacity: .5;mix-blend-mode: overlay;fill: url(#g20) } 
		.s32 { fill: #37174a } 
		.s33 { opacity: .5;mix-blend-mode: overlay;fill: url(#g21) } 
	</style>
	<g id="Layer 1">
		<g id="&lt;Group&gt;">
			<g id="Online Education 1 ">
				<g id="&lt;Group&gt;">
					<g id="&lt;Group&gt;">
						<path id="&lt;Path&gt;" class="s0" d="m238.5 123.8c-2.5 19.2 12.3 33.7 19.7 46.8 5.8 10.3 7.1 19.7-8 29.6-20.3 13.2-80.8-18.7-104.4 1.2-23.7 19.9-97.9 21.6-99.3-9.8-0.8-15.3 10.4-20.9 22.6-25.8 11.8-4.7 24.6-8.6 28.4-19.8 7.2-21-11.1-41.3-40.9-68.6q-0.2-0.1-0.3-0.2c-29.9-27.5-4.5-73.4 42.7-73.4 5.6 0 10.6 0.7 15.1 1.9 33.5 9.2 39.2 47 60 31.7 27-19.8 72.7-28.4 91.9-1.5q0.6 0.7 1.1 1.5c4.3 6.7 5.3 13.1 4.3 19.4-3.5 20.8-29.4 40.7-32.9 67z"/>
						<path id="&lt;Path&gt;" class="s1" d="m250.2 200.2c-20.3 13.2-80.8-18.7-104.4 1.2-23.7 19.9-97.9 21.6-99.3-9.8-1.5-30.1 43.2-22.8 51-45.6 7.2-21-11.2-41.4-41.2-68.8-29.9-27.5-4.5-73.4 42.7-73.4 5.6 0 10.6 0.7 15.1 1.9q-0.3 1.2-0.5 2.1c-1.2 9.4-0.3 19 2.8 27.9 3 8.3 8 16.2 15.5 20.8 6 3.6 13.1 5 20 5.3 20.1 1.1 39.6-5.5 59.2-9.8 19.6-4.2 41.3-5.9 58.8 3.9q0.7 0.4 1.5 0.9c-3.5 20.8-29.4 40.7-32.9 67-4.5 34.2 46.1 53.8 11.7 76.4z"/>
						<path id="&lt;Path&gt;" class="s2" d="m238.5 123.8c-4.5 34.2 46.1 53.8 11.7 76.4-20.3 13.2-80.8-18.7-104.4 1.2-23.7 19.9-97.9 21.6-99.3-9.8-1.5-30.1 43.2-22.8 51-45.6 7.2-21-11.1-41.3-40.9-68.6 6.9 3.1 13.8 6.6 20.9 9.4 28.7 11.2 62.6 8.3 88.9-7.7 18.9-11.3 33.9-28.8 53.9-38 14.2-6.5 30.4-8.2 45.7-5.2q0.6 0.7 1.1 1.5c4.3 6.7 5.3 13.1 4.3 19.4-3.5 20.8-29.4 40.7-32.9 67z"/>
						<path id="&lt;Path&gt;" class="s3" d="m250.2 200.2c-20.3 13.2-80.8-18.7-104.4 1.2-23.7 19.9-97.9 21.6-99.3-9.8-0.8-15.3 10.4-20.9 22.6-25.8 24.7 5.9 50.9 5.4 75.4-1.5 19.5-5.4 38.5-15 58.8-14.1 8.7 0.5 17.3 2.9 25.6 5.7 9.7 3.3 19.4 7.3 27.6 13.4q0.9 0.7 1.7 1.3c5.8 10.3 7.1 19.7-8 29.6z"/>
					</g>
					<g id="&lt;Clip Group&gt;" clip-path="url(#cp1)">
						<g id="&lt;Group&gt;" style="opacity: .6;mix-blend-mode: overlay">
							<g id="&lt;Group&gt;">
								<g id="&lt;Group&gt;">
									<path id="&lt;Compound Path&gt;" fill-rule="evenodd" class="s4" d="m141.8 123.1l0.8-6.4 5.4-7.6-0.7 6.4-0.1 0.1zm1.2-6.3l-0.6 4.7 4.5-6.1 0.5-4.8z"/>
								</g>
							</g>
							<g id="&lt;Group&gt;">
								<g id="&lt;Group&gt;">
									<path id="&lt;Compound Path&gt;" fill-rule="evenodd" class="s4" d="m141.3 123.6l1.3-7.1 5.9-7.8-1.3 7zm1.7-6.8l-0.9 5.2 4.8-6.4 0.9-5.2z"/>
								</g>
							</g>
							<g id="&lt;Group&gt;">
								<g id="&lt;Group&gt;">
									<path id="&lt;Compound Path&gt;" fill-rule="evenodd" class="s4" d="m140.8 124l1.8-7.6 6.5-8.2-1.9 7.7zm2.2-7.4l-1.3 5.7 5.3-6.7 1.3-5.7z"/>
								</g>
							</g>
							<g id="&lt;Group&gt;">
								<g id="&lt;Group&gt;">
									<path id="&lt;Compound Path&gt;" fill-rule="evenodd" class="s4" d="m140.2 124.4l2.4-8.2 7.1-8.4-2.5 8.3zm2.8-8.1l-1.8 6.3 5.7-6.8 1.8-6.3z"/>
								</g>
							</g>
							<g id="&lt;Group&gt;">
								<g id="&lt;Group&gt;">
									<path id="&lt;Compound Path&gt;" fill-rule="evenodd" class="s4" d="m139.6 124.9l3.1-8.9 7.5-8.6-3 8.9zm3.4-8.7l-2.3 6.8 6.1-7 2.3-6.7z"/>
								</g>
							</g>
							<g id="&lt;Group&gt;">
								<g id="&lt;Group&gt;">
									<path id="&lt;Compound Path&gt;" fill-rule="evenodd" class="s4" d="m139 125.2l3.7-9.4 8.2-8.8-3.8 9.5zm4.1-9.2l-2.9 7.3 6.6-7.2 2.9-7.3z"/>
								</g>
							</g>
							<g id="&lt;Group&gt;">
								<g id="&lt;Group&gt;">
									<path id="&lt;Compound Path&gt;" fill-rule="evenodd" class="s4" d="m138.4 125.6l4.4-10 8.7-9-4.4 10.1zm4.7-9.8l-3.4 7.8 7-7.2 3.5-7.9z"/>
								</g>
							</g>
							<g id="&lt;Group&gt;">
								<g id="&lt;Group&gt;">
									<path id="&lt;Compound Path&gt;" fill-rule="evenodd" class="s4" d="m137.7 126l5.2-10.7 9.2-9-5.1 10.6zm5.5-10.4l-4.1 8.5 7.5-7.4 4.1-8.4z"/>
								</g>
							</g>
							<g id="&lt;Group&gt;">
								<g id="&lt;Group&gt;">
									<path id="&lt;Compound Path&gt;" fill-rule="evenodd" class="s4" d="m137.1 126.3l5.9-11.2 9.8-9.1-5.9 11.2zm6.2-11l-4.7 9 8-7.4 4.7-9z"/>
								</g>
							</g>
							<g id="&lt;Group&gt;">
								<g id="&lt;Group&gt;">
									<path id="&lt;Compound Path&gt;" fill-rule="evenodd" class="s4" d="m136.4 126.6l6.7-11.8 10.3-9.1-6.7 11.8zm7.1-11.5l-5.5 9.5 8.5-7.4 5.4-9.6z"/>
								</g>
							</g>
							<g id="&lt;Group&gt;">
								<g id="&lt;Group&gt;">
									<path id="&lt;Compound Path&gt;" fill-rule="evenodd" class="s4" d="m135.7 126.8l7.5-12.3 10.9-9.1-7.5 12.4zm7.8-12.1l-6.1 10.1 8.9-7.4 6.1-10.1z"/>
								</g>
							</g>
							<g id="&lt;Group&gt;">
								<g id="&lt;Group&gt;">
									<path id="&lt;Compound Path&gt;" fill-rule="evenodd" class="s4" d="m135.1 127l8.3-12.8 11.4-9-8.4 12.9zm8.7-12.6l-6.9 10.7 9.3-7.4 6.9-10.7z"/>
								</g>
							</g>
							<g id="&lt;Group&gt;">
								<g id="&lt;Group&gt;">
									<path id="&lt;Compound Path&gt;" fill-rule="evenodd" class="s4" d="m134.4 127.2l9.2-13.3 11.9-8.9-9.3 13.4zm9.5-13.1l-7.7 11.2 9.8-7.2 7.7-11.2z"/>
								</g>
							</g>
							<g id="&lt;Group&gt;">
								<g id="&lt;Group&gt;">
									<path id="&lt;Compound Path&gt;" fill-rule="evenodd" class="s4" d="m133.7 127.3l10.1-13.8 12.3-8.6-10.1 13.8zm10.4-13.5l-8.6 11.8 10.3-7.2 8.5-11.7z"/>
								</g>
							</g>
							<g id="&lt;Group&gt;">
								<g id="&lt;Group&gt;">
									<path id="&lt;Compound Path&gt;" fill-rule="evenodd" class="s4" d="m133.1 127.4l10.9-14.3 12.8-8.3-11 14.3zm11.2-13.9l-9.4 12.2 10.7-6.9 9.4-12.3z"/>
								</g>
							</g>
							<g id="&lt;Group&gt;">
								<g id="&lt;Group&gt;">
									<path id="&lt;Compound Path&gt;" fill-rule="evenodd" class="s4" d="m132.4 127.4l11.9-14.6 13.1-8-11.9 14.7zm12.2-14.3l-10.3 12.7 11-6.7 10.3-12.7z"/>
								</g>
							</g>
							<g id="&lt;Group&gt;">
								<g id="&lt;Group&gt;">
									<path id="&lt;Compound Path&gt;" fill-rule="evenodd" class="s4" d="m131.8 127.4l12.8-15 13.4-7.5-12.8 15zm13.1-14.7l-11.2 13.2 11.3-6.4 11.2-13.1z"/>
								</g>
							</g>
							<g id="&lt;Group&gt;">
								<g id="&lt;Group&gt;">
									<path id="&lt;Compound Path&gt;" fill-rule="evenodd" class="s4" d="m131.2 127.2l13.7-15.2 13.7-7-13.7 15.3zm14-15l-12.2 13.6 11.7-6 12.1-13.5z"/>
								</g>
							</g>
							<g id="&lt;Group&gt;">
								<g id="&lt;Group&gt;">
									<path id="&lt;Compound Path&gt;" fill-rule="evenodd" class="s4" d="m130.6 127.1l14.7-15.5 13.9-6.4-14.6 15.5zm14.8-15.2l-13 13.9 11.9-5.5 13.1-13.8z"/>
								</g>
							</g>
							<g id="&lt;Group&gt;">
								<g id="&lt;Group&gt;">
									<path id="&lt;Compound Path&gt;" fill-rule="evenodd" class="s4" d="m130.1 126.8l15.5-15.7 14.2-5.7-15.6 15.7zm15.7-15.3l-14 14.2 12.2-4.9 14-14.2z"/>
								</g>
							</g>
							<g id="&lt;Group&gt;">
								<g id="&lt;Group&gt;">
									<path id="&lt;Compound Path&gt;" fill-rule="evenodd" class="s4" d="m129.6 126.5l16.4-15.8 14.3-4.9-16.5 15.8zm16.6-15.4l-14.9 14.3 12.3-4.2 15-14.4z"/>
								</g>
							</g>
							<g id="&lt;Group&gt;">
								<g id="&lt;Group&gt;">
									<path id="&lt;Compound Path&gt;" fill-rule="evenodd" class="s4" d="m129.1 126.1l17.4-15.9 14.2-4-17.3 15.8zm17.5-15.4l-15.9 14.5 12.5-3.5 15.9-14.6z"/>
								</g>
							</g>
							<g id="&lt;Group&gt;">
								<g id="&lt;Group&gt;">
									<path id="&lt;Compound Path&gt;" fill-rule="evenodd" class="s4" d="m128.7 125.6l18.2-15.8 14.3-3.1-18.3 15.8zm18.4-15.4l-16.9 14.6 12.6-2.7 16.9-14.6z"/>
								</g>
							</g>
							<g id="&lt;Group&gt;">
								<g id="&lt;Group&gt;">
									<path id="&lt;Compound Path&gt;" fill-rule="evenodd" class="s4" d="m128.3 125l19.1-15.7 14.1-2-19 15.6h-0.1zm19.2-15.2l-17.8 14.6 12.6-1.8 17.8-14.6z"/>
								</g>
							</g>
							<g id="&lt;Group&gt;">
								<g id="&lt;Group&gt;">
									<path id="&lt;Compound Path&gt;" fill-rule="evenodd" class="s4" d="m128 124.3l0.5-0.4 19.4-15 13.9-0.9-0.5 0.4-19.3 15zm20-15l-18.7 14.5 12.5-0.8 18.6-14.5z"/>
								</g>
							</g>
							<g id="&lt;Group&gt;">
								<g id="&lt;Group&gt;">
									<path id="&lt;Compound Path&gt;" fill-rule="evenodd" class="s4" d="m141.4 123.8h-0.1l-13.5-0.3 0.5-0.4 20.1-14.7h0.1l13.6 0.4-0.5 0.3zm-12.4-0.7l12.3 0.3 19.5-14.3-12.3-0.3z"/>
								</g>
							</g>
							<g id="&lt;Group&gt;">
								<g id="&lt;Group&gt;">
									<path id="&lt;Compound Path&gt;" fill-rule="evenodd" class="s4" d="m140.8 124.3l-13.2-1.7 21.4-14.7h0.1l13.2 1.7zm-12.2-1.9l12.1 1.5 20.3-13.9-12-1.6z"/>
								</g>
							</g>
							<g id="&lt;Group&gt;">
								<g id="&lt;Group&gt;">
									<path id="&lt;Compound Path&gt;" fill-rule="evenodd" class="s4" d="m140.2 124.8l-12.7-3.2 22.1-14.1 12.8 3.1zm-11.8-3.3l11.7 2.9 21.1-13.5-11.6-2.9z"/>
								</g>
							</g>
							<g id="&lt;Group&gt;">
								<g id="&lt;Group&gt;">
									<path id="&lt;Compound Path&gt;" fill-rule="evenodd" class="s4" d="m139.6 125.2l-12.1-4.7 0.3-0.2 22.4-13.3 12.2 4.7zm-11.2-4.8l11.1 4.4 21.9-12.9-11.2-4.4z"/>
								</g>
							</g>
							<g id="&lt;Group&gt;">
								<g id="&lt;Group&gt;">
									<path id="&lt;Compound Path&gt;" fill-rule="evenodd" class="s4" d="m139 125.7l-0.1-0.1-11.4-6.3 23.4-12.7h0.1l11.3 6.4zm-10.6-6.4l10.6 5.9 22.5-12.2-10.6-5.9z"/>
								</g>
							</g>
							<g id="&lt;Group&gt;">
								<g id="&lt;Group&gt;">
									<path id="&lt;Compound Path&gt;" fill-rule="evenodd" class="s4" d="m138.3 126.1l-10.6-8.2 23.9-11.7 10.5 8.1zm-9.7-8.1l9.8 7.6 23-11.3-9.8-7.6z"/>
								</g>
							</g>
							<g id="&lt;Group&gt;">
								<g id="&lt;Group&gt;">
									<path id="&lt;Compound Path&gt;" fill-rule="evenodd" class="s4" d="m137.6 126.5l-0.1-0.1-9.5-9.9 0.2-0.2 24.1-10.5 0.1 0.1 9.5 9.9-0.3 0.1zm-8.9-9.9l9 9.4 23.5-10.4-9-9.3z"/>
								</g>
							</g>
							<g id="&lt;Group&gt;">
								<g id="&lt;Group&gt;">
									<path id="&lt;Compound Path&gt;" fill-rule="evenodd" class="s4" d="m136.9 126.9l-0.1-0.2-8.5-11.8 24.7-9.5 0.1 0.1 8.4 11.9zm-7.9-11.8l8 11.3 23.9-9.2-8-11.3z"/>
								</g>
							</g>
							<g id="&lt;Group&gt;">
								<g id="&lt;Group&gt;">
									<path id="&lt;Compound Path&gt;" fill-rule="evenodd" class="s4" d="m136.1 127.2l-7.2-14 0.2-0.1 24.6-8.1 7.3 14.1-0.2 0.1zm-6.7-13.9l6.9 13.3 24-7.8-6.8-13.3z"/>
								</g>
							</g>
							<g id="&lt;Group&gt;">
								<g id="&lt;Group&gt;">
									<path id="&lt;Compound Path&gt;" fill-rule="evenodd" class="s4" d="m135.4 127.5l-5.9-16.2h0.2l24.8-6.6 5.9 16.2-0.3 0.1zm-5.3-15.9l5.6 15.4 24.2-6.4-5.6-15.4z"/>
								</g>
							</g>
							<g id="&lt;Group&gt;">
								<g id="&lt;Group&gt;">
									<path id="&lt;Compound Path&gt;" fill-rule="evenodd" class="s4" d="m134.6 127.8v-0.2l-4.3-18.3 24.9-4.9 0.1 0.2 4.3 18.3zm-3.9-18.1l4.2 17.6 24.1-4.7-4.1-17.7z"/>
								</g>
							</g>
							<g id="&lt;Group&gt;">
								<g id="&lt;Group&gt;">
									<path id="&lt;Compound Path&gt;" fill-rule="evenodd" class="s4" d="m133.8 128l-2.6-20.8 24.8-3 2.7 20.8zm-2.2-20.4l2.5 20 24-2.9-2.5-20z"/>
								</g>
							</g>
							<g id="&lt;Group&gt;">
								<g id="&lt;Group&gt;">
									<path id="&lt;Compound Path&gt;" fill-rule="evenodd" class="s4" d="m133.1 128.2v-0.2l-0.8-23.1h0.2l24.3-0.9v0.2l0.8 23.1h-0.2zm-0.4-22.9l0.8 22.5 23.6-0.9-0.7-22.4z"/>
								</g>
							</g>
							<g id="&lt;Group&gt;">
								<g id="&lt;Group&gt;">
									<path id="&lt;Compound Path&gt;" fill-rule="evenodd" class="s4" d="m156.3 129.7h-0.2l-23.8-1.4v-0.2l1.2-25.5h0.2l23.8 1.3v0.2zm-23.6-1.7l23.2 1.3 1.2-25-23.2-1.3z"/>
								</g>
							</g>
							<g id="&lt;Group&gt;">
								<g id="&lt;Group&gt;">
									<path id="&lt;Compound Path&gt;" fill-rule="evenodd" class="s4" d="m154.9 132.2l-23.3-3.8v-0.2l3.3-28.2 23.4 3.8v0.2zm-22.9-4.1l22.5 3.7 3.3-27.6-22.6-3.7z"/>
								</g>
							</g>
							<g id="&lt;Group&gt;">
								<g id="&lt;Group&gt;">
									<path id="&lt;Compound Path&gt;" fill-rule="evenodd" class="s4" d="m153.3 134.9l-0.2-0.1-22.3-6.4 5.7-31h0.3l22.2 6.4zm-22-6.7l21.7 6.2 5.5-30.2-21.6-6.3z"/>
								</g>
							</g>
							<g id="&lt;Group&gt;">
								<g id="&lt;Group&gt;">
									<path id="&lt;Compound Path&gt;" fill-rule="evenodd" class="s4" d="m151.5 137.7l-21.4-9.4v-0.1l8.2-33.6 21.4 9.3v0.2zm-20.9-9.6l20.6 9 8-32.9-20.6-9.1z"/>
								</g>
							</g>
							<g id="&lt;Group&gt;">
								<g id="&lt;Group&gt;">
									<path id="&lt;Compound Path&gt;" fill-rule="evenodd" class="s4" d="m149.5 140.6l-20.1-12.4 10.9-36.6 20.1 12.5zm-19.6-12.7l19.4 12 10.6-35.7-19.3-12z"/>
								</g>
							</g>
							<g id="&lt;Group&gt;">
								<g id="&lt;Group&gt;">
									<path id="&lt;Compound Path&gt;" fill-rule="evenodd" class="s4" d="m147.3 143.7l-0.2-0.2-18.4-15.5 13.8-39.4 0.3 0.2 18.3 15.5zm-18.1-15.9l17.9 15.2 13.5-38.6-17.9-15.1z"/>
								</g>
							</g>
							<g id="&lt;Group&gt;">
								<g id="&lt;Group&gt;">
									<path id="&lt;Compound Path&gt;" fill-rule="evenodd" class="s4" d="m144.9 146.8l-16.8-19.2 16.8-42.2 16.8 19.2zm-16.3-19.3l16.2 18.5 16.5-41.4-16.2-18.4z"/>
								</g>
							</g>
							<g id="&lt;Group&gt;">
								<g id="&lt;Group&gt;">
									<path id="&lt;Compound Path&gt;" fill-rule="evenodd" class="s4" d="m142.3 150.1l-0.2-0.3-14.6-22.6 0.1-0.1 20-45 0.2 0.4 14.5 22.5v0.1zm-14.3-22.9l14.2 22 19.6-44.2-14.2-22z"/>
								</g>
							</g>
							<g id="&lt;Group&gt;">
								<g id="&lt;Group&gt;">
									<path id="&lt;Compound Path&gt;" fill-rule="evenodd" class="s4" d="m139.4 153.5l-0.1-0.4-12.3-26.3v-0.1l23.4-47.9 0.2 0.4 12.3 26.3-0.1 0.1zm-12-26.8l12 25.8 23-47-12-25.8z"/>
								</g>
							</g>
							<g id="&lt;Group&gt;">
								<g id="&lt;Group&gt;">
									<path id="&lt;Compound Path&gt;" fill-rule="evenodd" class="s4" d="m136.4 157l-9.9-30.8v-0.1l27-50.8 9.9 30.8-0.1 0.1zm-9.4-30.8l9.5 29.7 26.4-49.9-9.5-29.6z"/>
								</g>
							</g>
							<g id="&lt;Group&gt;">
								<g id="&lt;Group&gt;">
									<path id="&lt;Compound Path&gt;" fill-rule="evenodd" class="s4" d="m133.1 160.5l-0.1-0.6-6.9-34.4v-0.1l30.7-53.6 0.1 0.5 6.9 34.5-0.1 0.1zm-6.5-35l6.7 33.8 30.1-52.6-6.8-33.8z"/>
								</g>
							</g>
							<g id="&lt;Group&gt;">
								<g id="&lt;Group&gt;">
									<path id="&lt;Compound Path&gt;" fill-rule="evenodd" class="s4" d="m129.6 164.1l-3.9-39.5 34.6-56.4 3.8 39.4v0.1zm-3.4-39.4l3.7 38.1 33.9-55.3-3.8-38.1z"/>
								</g>
							</g>
							<g id="&lt;Group&gt;">
								<g id="&lt;Group&gt;">
									<path id="&lt;Compound Path&gt;" fill-rule="evenodd" class="s4" d="m125.8 167.7l-0.4-44 38.6-59.2 0.4 44v0.1zm0-43.9l0.4 42.5 37.8-57.9-0.4-42.5z"/>
								</g>
							</g>
							<g id="&lt;Group&gt;">
								<g id="&lt;Group&gt;">
									<path id="&lt;Compound Path&gt;" fill-rule="evenodd" class="s4" d="m121.8 171.4l3.4-48.8 42.8-61.7-3.4 48.7zm3.8-48.6l-3.3 47.1 41.9-60.4 3.2-47.1z"/>
								</g>
							</g>
							<g id="&lt;Group&gt;">
								<g id="&lt;Group&gt;">
									<path id="&lt;Compound Path&gt;" fill-rule="evenodd" class="s4" d="m117.6 175.1l7.5-53.7 47.1-64.2-7.5 53.6zm7.9-53.4l-7.3 51.8 46.1-62.8 7.2-51.9z"/>
								</g>
							</g>
							<g id="&lt;Group&gt;">
								<g id="&lt;Group&gt;">
									<path id="&lt;Compound Path&gt;" fill-rule="evenodd" class="s4" d="m113.2 178.7l11.9-58.6 51.5-66.6-11.9 58.6zm12.3-58.3l-11.5 56.7 50.3-65.1 11.5-56.7z"/>
								</g>
							</g>
							<g id="&lt;Group&gt;">
								<g id="&lt;Group&gt;">
									<path id="&lt;Compound Path&gt;" fill-rule="evenodd" class="s4" d="m108.6 182.3l0.3-0.9 16.3-62.8 56-68.7-0.2 1-16.4 62.7zm17-63.4l-16.1 61.7 54.7-67.2 16.1-61.7z"/>
								</g>
							</g>
							<g id="&lt;Group&gt;">
								<g id="&lt;Group&gt;">
									<path id="&lt;Compound Path&gt;" fill-rule="evenodd" class="s4" d="m103.8 185.9l0.3-1 21.4-67.9 60.5-70.6-0.3 1-21.3 67.8zm22-68.6l-21 66.8 59.2-69.1 21-66.7z"/>
								</g>
							</g>
							<g id="&lt;Group&gt;">
								<g id="&lt;Group&gt;">
									<path id="&lt;Compound Path&gt;" fill-rule="evenodd" class="s4" d="m98.8 189.3l27-74 65.2-72.4-27 74.1zm27.4-73.8l-26.3 71.9 63.7-70.7 26.3-71.9z"/>
								</g>
							</g>
							<g id="&lt;Group&gt;">
								<g id="&lt;Group&gt;">
									<path id="&lt;Compound Path&gt;" fill-rule="evenodd" class="s4" d="m93.6 192.7l0.5-1.1 32.3-78.2 69.8-73.8-0.4 1-32.3 78.3zm33-79.1l-31.8 77.2 68.3-72.1 31.8-77.2z"/>
								</g>
							</g>
							<g id="&lt;Group&gt;">
								<g id="&lt;Group&gt;">
									<path id="&lt;Compound Path&gt;" fill-rule="evenodd" class="s4" d="m88.3 195.9l0.5-1.1 38.2-83.5 74.5-74.9-0.5 1.1-38.2 83.5zm39.1-84.3l-37.7 82.3 72.8-73.2 37.7-82.4z"/>
								</g>
							</g>
							<g id="&lt;Group&gt;">
								<g id="&lt;Group&gt;">
									<path id="&lt;Compound Path&gt;" fill-rule="evenodd" class="s4" d="m82.8 198.9l0.6-1.1 44.4-88.7 79.2-75.7-0.5 1.1-44.5 88.7zm45.3-89.5l-43.8 87.5 77.4-74 43.8-87.5z"/>
								</g>
							</g>
							<g id="&lt;Group&gt;">
								<g id="&lt;Group&gt;">
									<path id="&lt;Compound Path&gt;" fill-rule="evenodd" class="s4" d="m77.2 201.7l0.6-1.1 51-93.9 83.8-76.1-51.6 95zm51.9-94.7l-50.3 92.7 81.9-74.4 50.4-92.8z"/>
								</g>
							</g>
							<g id="&lt;Group&gt;">
								<g id="&lt;Group&gt;">
									<path id="&lt;Compound Path&gt;" fill-rule="evenodd" class="s4" d="m71.5 204.2l0.6-1.1 57.9-99 88.3-76.1-0.6 1.1-57.8 99zm58.7-99.8l-57.1 97.8 86.4-74.4 57.1-97.9z"/>
								</g>
							</g>
							<g id="&lt;Group&gt;">
								<g id="&lt;Group&gt;">
									<path id="&lt;Compound Path&gt;" fill-rule="evenodd" class="s4" d="m65.7 206.5l0.7-1.1 65-104 92.7-75.7-0.6 1.1-65 104zm65.9-104.8l-64.2 102.9 90.8-74.1 64.2-102.8z"/>
								</g>
							</g>
							<g id="&lt;Group&gt;">
								<g id="&lt;Group&gt;">
									<path id="&lt;Compound Path&gt;" fill-rule="evenodd" class="s4" d="m59.9 208.5l0.7-1.1 72.3-108.8 97.1-74.8-0.7 1-72.4 108.9zm73.4-109.6l-71.6 107.7 95-73.3 71.6-107.6z"/>
								</g>
							</g>
							<g id="&lt;Group&gt;">
								<g id="&lt;Group&gt;">
									<path id="&lt;Compound Path&gt;" fill-rule="evenodd" class="s4" d="m54 210l0.7-1 80-113.4 101.1-73.4-0.7 1-79.9 113.5zm80.9-114.2l-79.1 112.3 99.1-71.8 79.1-112.4z"/>
								</g>
							</g>
							<g id="&lt;Group&gt;">
								<g id="&lt;Group&gt;">
									<path id="&lt;Compound Path&gt;" fill-rule="evenodd" class="s4" d="m48.1 211.2l88.6-118.8 105-71.4-88.5 118.8zm88.8-118.5l-87 116.8 103-70 86.9-116.8z"/>
								</g>
							</g>
							<g id="&lt;Group&gt;">
								<g id="&lt;Group&gt;">
									<path id="&lt;Compound Path&gt;" fill-rule="evenodd" class="s4" d="m42.3 212l0.7-1 95.9-121.9 108.6-68.9-0.7 1-95.8 121.9zm96.8-122.5l-95 120.9 106.6-67.6 95-120.9z"/>
								</g>
							</g>
							<g id="&lt;Group&gt;">
								<g id="&lt;Group&gt;">
									<path id="&lt;Compound Path&gt;" fill-rule="evenodd" class="s4" d="m36.5 212.3l0.8-0.9 104-125.7 112-65.7-0.8 0.9-104 125.7zm105-126.3l-103.1 124.7 109.9-64.5 103.2-124.7z"/>
								</g>
							</g>
							<g id="&lt;Group&gt;">
								<g id="&lt;Group&gt;">
									<path id="&lt;Compound Path&gt;" fill-rule="evenodd" class="s4" d="m30.9 212l113.1-129.9 114.9-61.9-0.7 0.9-112.3 129.1zm113.3-129.6l-111.5 128.1 112.9-60.8 111.5-128.1z"/>
								</g>
							</g>
							<g id="&lt;Group&gt;">
								<g id="&lt;Group&gt;">
									<path id="&lt;Compound Path&gt;" fill-rule="evenodd" class="s4" d="m25.4 211.2l0.8-0.8 120.7-132 117.5-57.3-0.7 0.8-120.8 132zm121.7-132.5l-119.9 131.1 115.5-56.3 119.9-131.1z"/>
								</g>
							</g>
							<g id="&lt;Group&gt;">
								<g id="&lt;Group&gt;">
									<path id="&lt;Compound Path&gt;" fill-rule="evenodd" class="s4" d="m20.1 209.7l0.8-0.7 129.1-134.4h0.1l119.6-52.1-0.7 0.8-129.2 134.4zm130.1-134.8l-128.4 133.5 117.7-51.2 128.4-133.5z"/>
								</g>
							</g>
							<g id="&lt;Group&gt;">
								<g id="&lt;Group&gt;">
									<path id="&lt;Compound Path&gt;" fill-rule="evenodd" class="s4" d="m15.1 207.6l138.4-136.9 121.2-46.1-0.7 0.7-137.6 136.3h-0.1zm138.6-136.6l-136.9 135.5 119.4-45.3 136.9-135.5z"/>
								</g>
							</g>
							<g id="&lt;Group&gt;">
								<g id="&lt;Group&gt;">
									<path id="&lt;Compound Path&gt;" fill-rule="evenodd" class="s4" d="m10.4 204.8l0.6-0.6 146.1-137.5 0.1-0.1 122.3-39.2-0.7 0.7-146.1 137.5zm147-137.8l-145.4 136.8 120.5-38.6 145.3-136.8z"/>
								</g>
							</g>
							<g id="&lt;Group&gt;">
								<g id="&lt;Group&gt;">
									<path id="&lt;Compound Path&gt;" fill-rule="evenodd" class="s4" d="m6 201.2l0.6-0.5 154.5-138.1 122.8-31.6-0.7 0.6-154.4 138.1h-0.1zm155.3-138.3l-153.7 137.4 121-31.1 153.8-137.4z"/>
								</g>
							</g>
							<g id="&lt;Group&gt;">
								<g id="&lt;Group&gt;">
									<path id="&lt;Compound Path&gt;" fill-rule="evenodd" class="s4" d="m2 196.8l0.6-0.5 162.7-137.8v-0.1l122.5-23-0.6 0.5-162.6 137.9h-0.1zm163.5-138l-162 137.3 120.9-22.7 162-137.3z"/>
								</g>
							</g>
							<g id="&lt;Group&gt;">
								<g id="&lt;Group&gt;">
									<path id="&lt;Compound Path&gt;" fill-rule="evenodd" class="s4" d="m-1.5 191.6l0.5-0.4 170.7-136.9h0.1l121.6-13.7-0.6 0.5-170.7 136.9zm171.4-137l-170 136.4 120-13.5 170.1-136.3z"/>
								</g>
							</g>
							<g id="&lt;Group&gt;">
								<g id="&lt;Group&gt;">
									<path id="&lt;Compound Path&gt;" fill-rule="evenodd" class="s4" d="m-4.5 185.5l0.5-0.4 178.4-135h0.1l119.8-3.4-0.5 0.4-178.4 135.1zm179-135l-177.7 134.5 118.4-3.3 177.8-134.5z"/>
								</g>
							</g>
							<g id="&lt;Group&gt;">
								<g id="&lt;Group&gt;">
									<path id="&lt;Compound Path&gt;" fill-rule="evenodd" class="s4" d="m110.5 186.3h-0.1l-117.3-7.9 186.3-132.5 117.3 7.9zm-116.1-8.2l116 7.8 185.2-131.8-116-7.8z"/>
								</g>
							</g>
							<g id="&lt;Group&gt;">
								<g id="&lt;Group&gt;">
									<path id="&lt;Compound Path&gt;" fill-rule="evenodd" class="s4" d="m105.3 190.5h-0.1l-113.8-20.1 0.4-0.3 192.8-128.3 113.9 20.1-0.5 0.2zm-112.8-20.3l112.7 19.9 192.2-128-112.7-19.8z"/>
								</g>
							</g>
							<g id="&lt;Group&gt;">
								<g id="&lt;Group&gt;">
									<path id="&lt;Compound Path&gt;" fill-rule="evenodd" class="s4" d="m99.8 194.6v-0.1l-109.4-33.2 0.3-0.2 199.3-123.4h0.1l109.4 33.2-0.4 0.3zm-108.5-33.4l108.4 32.9 198.7-123.1-108.4-32.9z"/>
								</g>
							</g>
							<g id="&lt;Group&gt;">
								<g id="&lt;Group&gt;">
									<path id="&lt;Compound Path&gt;" fill-rule="evenodd" class="s4" d="m94.2 198.6l-0.1-0.1-104-47.3 0.4-0.2 205.2-117.3h0.1l103.9 47.3-0.3 0.2zm-103.2-47.4l103.1 47 204.7-117.1-103.2-46.9z"/>
								</g>
							</g>
							<g id="&lt;Group&gt;">
								<g id="&lt;Group&gt;">
									<path id="&lt;Compound Path&gt;" fill-rule="evenodd" class="s4" d="m88.3 202.5l-0.1-0.1-97.4-62.4 0.3-0.2 210.4-110h0.1l97.5 62.5-0.4 0.1zm-96.7-62.4l96.8 61.9 209.9-109.7-96.8-62z"/>
								</g>
							</g>
							<g id="&lt;Group&gt;">
								<g id="&lt;Group&gt;">
									<path id="&lt;Compound Path&gt;" fill-rule="evenodd" class="s4" d="m82.3 206.2l-0.2-0.1-89.7-78.5 0.2-0.1 215-101.5 0.1 0.1 89.8 78.5-0.3 0.2zm-89.1-78.5l89.2 78 214.4-101.2-89.2-78z"/>
								</g>
							</g>
							<g id="&lt;Group&gt;">
								<g id="&lt;Group&gt;">
									<path id="&lt;Compound Path&gt;" fill-rule="evenodd" class="s4" d="m76 209.7l-0.1-0.1-80.9-95.5 0.2-0.1 218.6-91.5 0.1 0.1 81 95.5-0.3 0.1zm-80.3-95.4l80.4 94.9 218.1-91.2-80.5-95z"/>
								</g>
							</g>
							<g id="&lt;Group&gt;">
								<g id="&lt;Group&gt;">
									<path id="&lt;Compound Path&gt;" fill-rule="evenodd" class="s4" d="m69.6 213.1l-0.1-0.2-70.9-113.5 0.3-0.1 221.3-80.1 0.1 0.1 70.9 113.5-0.2 0.1zm-70.4-113.4l70.5 112.9 220.8-79.9-70.5-112.9z"/>
								</g>
							</g>
							<g id="&lt;Group&gt;">
								<g id="&lt;Group&gt;">
									<path id="&lt;Compound Path&gt;" fill-rule="evenodd" class="s4" d="m63.1 216.1l-0.1-0.2-59.5-132.4 0.2-0.1 223.1-67.3 59.5 132.7h-0.2zm-59-132.3l59.2 131.8 222.5-67.1-59.2-131.9z"/>
								</g>
							</g>
							<g id="&lt;Group&gt;">
								<g id="&lt;Group&gt;">
									<path id="&lt;Compound Path&gt;" fill-rule="evenodd" class="s4" d="m56.4 218.9l-0.1-0.2-46.7-152.4 223.8-52.9 0.1 0.2 46.7 152.3zm-46.2-152.2l46.5 151.7 223.1-52.8-46.6-151.7z"/>
								</g>
							</g>
							<g id="&lt;Group&gt;">
								<g id="&lt;Group&gt;">
									<path id="&lt;Compound Path&gt;" fill-rule="evenodd" class="s4" d="m49.7 221.3l-0.1-0.2-32.6-173.2h0.2l223-36.9v0.2l32.6 173.1h-0.2zm-32.2-172.9l32.6 172.5 222.3-36.9-32.5-172.5z"/>
								</g>
							</g>
							<g id="&lt;Group&gt;">
								<g id="&lt;Group&gt;">
									<path id="&lt;Compound Path&gt;" fill-rule="evenodd" class="s4" d="m42.9 223.3v-0.2l-17.1-194.8h0.2l220.9-19.3 0.1 0.2 17 194.7-0.2 0.1zm-16.6-194.6l17 194.1 220.3-19.3-17-194.1z"/>
								</g>
							</g>
							<g id="&lt;Group&gt;">
								<g id="&lt;Group&gt;">
									<path id="&lt;Compound Path&gt;" fill-rule="evenodd" class="s4" d="m36.1 7.4h217.6v217.4h-217.6zm0.4 217h216.8v-216.6h-216.8z"/>
								</g>
							</g>
						</g>
					</g>
					<g id="&lt;Group&gt;">
						<g id="&lt;Group&gt;">
							<g id="&lt;Group&gt;">
								<path id="&lt;Path&gt;" class="s5" d="m245.5 162.6c1.7-2.7 7.5-10.8 13.6-11.4q7.4-0.7 14.4 3.5-0.7 0.5-1.7 1.2c-2.6 1.6-7.5 4.4-9.9 4.2-1-0.1-2.8 0-4.8 0.2-2.9 0.3-6.4 0.9-8.9 1.6-1.6 0.5-2.8 1-3.3 1.6q0.2-0.3 0.6-0.9z"/>
								<path id="&lt;Path&gt;" class="s4" d="m244.7 163.1q0.4-0.2 0.8-0.5 1.8-1.1 3.7-2.2 2.3-1.3 4.8-2.4c1.6-0.7 3.2-1.4 4.9-1.9q1.1-0.3 2.3-0.6 1.5-0.3 2.9-0.3c0.1 0 0.2 0.1 0.2 0.1 0 0.1-0.1 0.2-0.1 0.2-1.3 0-2.6 0.3-3.8 0.6q-0.7 0.2-1.3 0.4c-1.7 0.6-3.3 1.3-4.9 2.1q-2.3 1.1-4.6 2.5-0.7 0.4-1.4 0.8-1.6 1-3 2 0 0 0 0c-0.3 0.2-0.5 0.1-0.7-0.1-0.1-0.2-0.1-0.5 0.2-0.7z"/>
							</g>
							<path id="&lt;Path&gt;" class="s6" d="m244.7 163.1q0.4-0.2 0.8-0.5c1.7-2.7 7.5-10.8 13.6-11.4q7.4-0.7 14.4 3.5-0.7 0.5-1.7 1.2c-1.5-1.1-3.5-1.4-5.4-1.4-1.8-0.1-3.7 0.1-5.2 1q-0.1 0.1-0.1 0.1-0.4 0.2-0.7 0.5c-1.1 1-1.9 2.4-2.8 3.6q-0.2 0.3-0.5 0.6c-2.9 0.3-6.4 0.9-8.9 1.6q-1.6 1-3 2 0 0 0 0c-0.3 0.2-0.5 0.1-0.7-0.1-0.1-0.2-0.1-0.5 0.2-0.7z"/>
						</g>
						<g id="&lt;Group&gt;">
							<g id="&lt;Group&gt;">
								<path id="&lt;Path&gt;" class="s5" d="m244.9 163.4c-0.1-0.7-0.9-1.8-2-3.1-1.8-1.9-4.4-4.2-6.8-6-1.5-1.2-3-2.2-3.9-2.6-2.2-1.1-4.9-6.1-6.2-8.8q-0.6-1.1-0.9-1.8 8.2 0 14.1 4.4c4.9 3.7 5.6 13.6 5.7 16.8q0 0.7 0 1.1z"/>
								<path id="&lt;Path&gt;" class="s4" d="m245.1 163.8c-0.3 0.1-0.5 0-0.6-0.2q0 0 0 0-0.8-1.6-1.6-3.3-0.3-0.7-0.7-1.4-1.3-2.3-2.7-4.5c-0.9-1.5-1.9-3-3-4.3q-0.5-0.5-1-1.1c-0.8-0.9-1.8-1.7-2.8-2.4-0.1-0.1-0.1-0.2-0.1-0.2 0.1-0.1 0.2-0.1 0.2-0.1q1.3 0.8 2.4 1.8 0.8 0.9 1.6 1.7c1.2 1.3 2.2 2.8 3.2 4.2q1.5 2.2 2.8 4.5 1.1 1.9 2.1 3.8 0.2 0.5 0.4 0.9c0.1 0.2 0 0.5-0.2 0.6z"/>
							</g>
							<path id="&lt;Path&gt;" class="s7" d="m245.1 163.8c-0.3 0.1-0.5 0-0.6-0.2q0 0 0 0-0.8-1.6-1.6-3.3c-1.8-1.9-4.4-4.2-6.8-6q0-0.4-0.1-0.8c-0.1-1.5-0.1-3-0.5-4.5q-0.1-0.4-0.3-0.7 0-0.1 0-0.2c-0.8-1.6-2.4-2.7-3.9-3.6-1.7-0.9-3.5-1.7-5.3-1.6q-0.6-1.1-0.9-1.8 8.2 0 14.1 4.4c4.9 3.7 5.6 13.6 5.7 16.8q0.2 0.5 0.4 0.9c0.1 0.2 0 0.5-0.2 0.6z"/>
						</g>
						<path id="&lt;Path&gt;" class="s8" d="m257.1 136.4c0.8 2.1 0.2 4.2-0.4 5.6 1.5-1.5 3.3-2.7 5.3-3.9-1.8-4.7-6.7-5.1-6.8-8.3-0.1-1.9 6.5-3.5 8.2 1.5 0.8 2.4 0 5-0.6 6.4 1.5-0.8 3.1-1.6 4.8-2.4-0.6-4.4-4.7-5.6-4.2-8.5 0.3-1.5 6.2-1.7 6.7 2.9 0.2 2.1-0.8 4-1.5 5.1q1.8-0.9 3.8-1.8c1.9-3.7-0.1-7.4 2.3-9.2 1.4-1.1 6.3 3.2 3.3 7.3-1.4 2-3.8 2.8-5.2 3.1q-2 0.9-3.8 1.8c1.1-0.2 2.3-0.1 3.4 0.3 4.3 1.8 2.5 7.4 0.9 7.3-2.8-0.3-2.9-4.6-6.9-6.4-1.9 0.9-3.6 1.8-5.1 2.7 1.5-0.2 4.3-0.5 6.5 1 4.4 2.8 1.3 8.8-0.5 8.3-3.2-0.9-2.3-6-6.7-8.8-2.2 1.5-3.9 3.1-5.2 5.3 1.2-0.6 3.9-1.7 6.5-0.9 4.8 1.6 3.4 7.8 1.6 7.8-3.1-0.1-3.5-5-8.3-6.4q-0.7 1.2-1.1 2.7c-0.6 1.8-1.2 3.4-1.9 4.9 1.1-0.5 2.9-1.2 4.8-0.7 4 1 3.1 6.3 1.7 6.4-2.6 0-3.2-3.7-6.9-4.9-1.2 2.5-2.5 4.6-3.6 6.1 0.7-0.2 1.7-0.4 2.7-0.2 3.1 0.9 2.4 4.9 1.3 5-1.9 0-2.4-2.6-4.9-3.6-0.8 1-1.4 1.6-1.5 1.7-0.2 0.2-0.5 0.3-0.8 0.1q0-0.1 0-0.1c-0.3-0.2-0.3-0.6-0.1-0.9 0.1 0 1.2-1.2 2.6-3.3-1.5-2.7-4.6-2.4-5-4.4-0.3-1.1 3.5-2.7 5.1 0.1 0.7 1.3 0.5 2.8 0.3 3.7 1.3-1.8 2.7-4.3 3.9-7.1-2-3.7-6-3.2-6.6-5.8-0.3-1.4 4.5-3.6 6.6 0 0.7 1.4 0.7 2.9 0.6 4.1q0.2-0.7 0.5-1.4c0.6-2.3 1.7-4.1 2.9-5.6-1.6-4.6-6.3-5-6.4-8.1-0.1-1.7 6.1-3.2 7.7 1.5z"/>
					</g>
					<g id="&lt;Group&gt;">
						<g id="&lt;Group&gt;">
							<g id="&lt;Group&gt;">
								<g id="&lt;Group&gt;">
									<g id="&lt;Group&gt;">
										<path id="&lt;Path&gt;" class="s9" d="m64.6 144.4c1.8-1.8 5.5-8.9 6.9-7.7 1 0.9 3.4 6.1 3.9 10.9 0.3 1.9 0.2 3.8-0.4 5.3-2.7 7.5-6.2 10.2-10.1 10.6-3.4 0.5-5-0.7-7.7-0.4q-0.4 0-0.9 0.1-0.2 0.1-0.4 0.2c-3 0.9-5 4.2-11.4 3.1-4.3-0.7-7-4.8-8.2-7.8-0.6-1.7-0.8-2.9-0.3-3 0.4 0 1.2 0.7 2.2 1.5 1.7 1.3 3.9 3 5.9 2.3 3.2-1.2 4.2 0 3.1-1.9-1.1-1.8-2.5 0.2-5.7-1.5q-0.5-0.3-1-0.8c-1.3-1.2-2.3-3.1-3.1-5.1-0.8-2.3-1.2-4.7-0.8-5.7 0.8-2.2 2.1 3 5.9 3.3q1.4 0.1 2.4 0c1.6-0.1 2.5-0.5 2.4-1.3q0-0.3-0.3-0.6c-1-1.6-10.8-2.5-9.5-6.8 1.3-4.4 3.9-7.6 4.8-5.5 0.8 2.2 2 6 3.6 5.2 1.6-0.9 1.5-2.4-0.6-4.2-2.1-1.8-4.5-2.3-4-4.1 0.1-0.4 0.5-1.3 1.1-2.4 1.2-2.4 3.1-5.9 5.1-8 1.2-1.4 2.5-2.2 3.5-1.7 2.3 1.1 7.1 4.2 9.8 6.5 1.1 1 1.8 1.8 1.9 2.4 0.3 1.8-4.8 2.4-4.6 4.8 0.1 2.4 1.6 4.3 4.2 0.1 2.6-4.1 4.9-6.2 6.2-1 1.3 5.3-2.2 8.2-4.2 10-2 1.7-1.5 5 0.3 3.2z"/>
									</g>
									<g id="&lt;Group&gt;">
										<path id="&lt;Path&gt;" class="s4" d="m52.5 125.4v0.1c0 4.6 0 9.6 0.4 14.7 0.6 7.5 1.8 15.2 4.3 22.9 1.8 5.5 4.3 11 7.7 16.2q0.1 0.1 0.1 0.1 0.1 0.4-0.1 0.7-0.1 0.1-0.2 0.1c-0.3 0.2-0.7 0.1-0.9-0.2q0-0.1-0.1-0.1c-3.4-5.3-5.9-10.9-7.8-16.5-2.2-6.9-3.4-13.9-4.1-20.6v-0.6q-0.2-2.4-0.3-4.7c-0.3-4.2-0.3-8.3-0.3-12.1 0-0.4 0.3-0.7 0.7-0.7q0.1 0.1 0.2 0.1c0.3 0.1 0.4 0.3 0.4 0.6z"/>
									</g>
								</g>
							</g>
							<path id="&lt;Path&gt;" class="s10" d="m55.3 140.2c0.9 3.1 3.3 5.8 6.4 7 4.3 1.6 9.2 0.1 13.7 0.4 0.3 1.9 0.2 3.8-0.4 5.3-2.7 7.5-6.2 10.2-10.1 10.6-3.4 0.5-5-0.7-7.7-0.4 1.8 5.5 4.3 11 7.7 16.2q0.1 0.1 0.1 0.1-0.6 0.3-1.3 0.5c-3.4-5.3-5.9-10.9-7.8-16.5-3 0.9-5 4.2-11.4 3.1-4.3-0.7-7-4.8-8.2-7.8q1-0.8 1.9-1.5c1.7 1.3 3.9 3 5.9 2.3 3.2-1.2 4.2 0 3.1-1.9-1.1-1.8-2.5 0.2-5.7-1.5q-0.5-0.3-1-0.8 2.2-1.9 4.4-3.7c2.9-2.4 6-5.2 6.9-8.8 0.2-0.5 0.3-1.1 0.3-1.7q0.1-1.9-0.6-3.6c-1-2.6-3-4.8-5.1-6.6-1.2-1.1-2.5-2.1-4-2.8 1.2-2.4 3.1-5.9 5.1-8 1.2-1.4 2.5-2.2 3.5-1.7 2.3 1.1 7.1 4.2 9.8 6.5q-0.5 0.8-1.1 1.5c-1 1.4-2.3 2.8-3.2 4.3-1.7 2.9-2.2 6.4-1.2 9.5z"/>
						</g>
						<g id="&lt;Group&gt;">
							<g id="&lt;Group&gt;">
								<g id="&lt;Group&gt;">
									<path id="&lt;Path&gt;" class="s8" d="m64.9 182.3c-0.9-0.6-2.8-1-5.3-1.2-3.9-0.3-9.2 0-13.5 0.5-3 0.4-5.6 0.8-7 1.3-3.5 1.1-11.6-1.5-15.9-3q-1.7-0.6-2.8-1 8.8-8.5 19.8-9.9c9.2-1.2 20.1 8.8 23.6 12.2q0.7 0.7 1.1 1.1z"/>
								</g>
								<path id="&lt;Path&gt;" class="s4" d="m65.6 182.6c-0.2 0.3-0.6 0.5-0.9 0.4q0 0 0 0h-0.1q-2.4-1-5-1.9-1.1-0.4-2.3-0.8-3.7-1.2-7.5-2.1c-2.6-0.6-5.1-1.2-7.8-1.4q-1-0.1-2.1-0.2c-1.9-0.1-3.8 0-5.6 0.3-0.1 0-0.3-0.1-0.3-0.2 0-0.1 0.1-0.2 0.2-0.2 1.4-0.3 2.9-0.5 4.4-0.5q1.8 0 3.5 0.1c2.6 0.2 5.3 0.7 7.8 1.2q3.9 0.8 7.7 1.9 3.1 0.9 6.2 2 0.7 0.3 1.4 0.5c0.3 0.2 0.5 0.5 0.4 0.9z"/>
							</g>
							<path id="&lt;Path&gt;" class="s11" d="m65.6 182.6c-0.2 0.3-0.6 0.5-0.9 0.4q0 0 0 0h-0.1q-2.4-1-5-1.9c-3.9-0.3-9.2 0-13.5 0.5q-0.5-0.3-1-0.7c-1.7-1.5-3.3-3.2-5.2-4.3q-0.5-0.3-1.1-0.5-0.1 0-0.2-0.1c-2.6-0.9-5.4-0.5-8 0.2-2.7 0.7-5.5 1.7-7.4 3.7q-1.7-0.6-2.8-1 8.8-8.5 19.8-9.9c9.2-1.2 20.1 8.8 23.6 12.2q0.7 0.3 1.4 0.5c0.3 0.2 0.5 0.5 0.4 0.9z"/>
						</g>
						<g id="&lt;Group&gt;">
							<g id="&lt;Group&gt;">
								<g id="&lt;Group&gt;">
									<path id="&lt;Path&gt;" class="s8" d="m64.4 181.3c-1.7-3.6-6.4-14.6-3.1-21.3q4-8.1 12.8-12.6 0.1 1 0.1 2.5c0 3.7-0.2 10.6-1.9 12.9-0.8 1-1.8 2.8-2.9 5-1.5 3.2-3.1 7.2-4 10.3-0.5 1.9-0.7 3.5-0.4 4.4q-0.2-0.5-0.6-1.2z"/>
								</g>
								<path id="&lt;Path&gt;" class="s4" d="m64.4 182.5q0-0.6 0-1.2 0-2.6 0.1-5.3 0.2-3.2 0.6-6.4c0.3-2.1 0.6-4.2 1.2-6.3q0.4-1.3 0.8-2.7c0.4-1.1 0.9-2.2 1.5-3.2 0.1-0.1 0.2-0.2 0.3-0.1 0.1 0 0.1 0.2 0.1 0.2-0.8 1.4-1.3 2.8-1.8 4.3q-0.2 0.8-0.4 1.7c-0.5 2-0.8 4.1-1 6.2q-0.3 3.2-0.4 6.4 0 1 0 2 0 2.2 0.1 4.3 0 0 0 0c0.1 0.4-0.2 0.6-0.5 0.6-0.3 0-0.5-0.2-0.6-0.5z"/>
							</g>
							<path id="&lt;Path&gt;" class="s12" d="m64.4 182.5q0-0.6 0-1.2c-1.7-3.6-6.4-14.6-3.1-21.3q4-8.1 12.8-12.6 0.1 1 0.1 2.5c-2 0.9-3.6 2.7-4.8 4.6-1.2 1.9-2.3 3.9-2.3 6.1q0 0.1 0 0.2 0.1 0.5 0.1 1c0.4 1.8 1.3 3.4 1.9 5.1q0.2 0.5 0.3 0.9c-1.5 3.2-3.1 7.2-4 10.3q0 2.2 0.1 4.3 0 0 0 0c0.1 0.4-0.2 0.6-0.5 0.6-0.3 0-0.5-0.2-0.6-0.5z"/>
						</g>
						<path id="&lt;Path&gt;" class="s13" d="m55.7 163.5c0.6 2.2-2.5 3.4-2.6 6.9 1.2 0.8 2.2 1.8 3.2 3.1q0.3 0.5 0.6 0.9c-0.4-0.8-0.7-1.8-0.4-2.9 0.6-2.9 4.3-2.5 4.4-1.4 0.2 1.9-2.6 2.4-3.2 5.3 1.4 1.7 2.9 3.1 4.1 4.1-0.3-0.6-0.8-1.6-0.5-2.7 0.4-2.2 3.4-1.9 3.4-1.1 0.1 1.4-2 1.9-2.5 4.1 1.5 1.1 2.5 1.7 2.5 1.7 0.2 0.1 0.3 0.4 0.2 0.6q0 0 0 0c-0.2 0.2-0.4 0.3-0.6 0.2-0.1-0.1-0.6-0.4-1.4-0.9-1.4 1.2-1.2 3.1-2.5 3.5-0.8 0.2-2.1-2.4-0.2-3.7 0.6-0.3 1.3-0.4 1.9-0.4-1.1-0.8-2.4-1.9-3.8-3.4-2.3 1.6-1.9 4.3-3.6 4.8-1 0.2-2.8-3.1-0.2-4.7 1.1-0.7 2.5-0.7 3.4-0.5q-1.2-1.3-2.4-3-0.6-0.9-1.3-1.6c-3 2-2.2 5.4-4.3 6.1-1.2 0.4-3.5-3.5-0.6-5.6 1.6-1.1 3.7-0.9 4.6-0.8-1.3-1.2-2.9-1.9-4.6-2.4-2.4 2.8-0.7 6-2.7 7.4-1.1 0.7-4.5-2.7-2.1-5.6 1.2-1.5 3.1-1.9 4.2-2-1.3-0.3-2.6-0.6-4.1-0.8-2.3 2.1-1.4 5-3.3 5.8-1.1 0.5-3.5-3-0.9-5.1 0.6-0.6 1.4-0.8 2.2-1q-1.4-0.2-3-0.4c-1 0.1-2.8 0.1-4.2-1-2.9-2.1-0.5-6.1 0.7-5.6 2 0.7 1.5 3.6 3.6 5.7q1.5 0.2 2.9 0.4c-0.7-0.6-1.8-1.6-2.1-3.1-0.6-3.2 3.4-4.4 4-3.4 0.9 1.8-1.6 3.6-1.1 6.6q2 0.3 3.8 0.6c-0.7-0.8-1.8-2.3-1.8-4.2 0.1-3.7 4.9-4 5.2-2.8 0.7 2.3-2.6 3.6-2.8 7.2 1.6 0.3 3.1 0.8 4.4 1.5-0.7-0.8-1.5-2.2-1.5-3.7 0.1-3.6 4.7-3.9 5-2.7z"/>
					</g>
					<g id="&lt;Group&gt;">
						<g id="&lt;Group&gt;">
							<path id="&lt;Compound Path&gt;" fill-rule="evenodd" class="s9" d="m182.8 20.7c-3.2 0-5.8-2.6-5.8-5.8 0-3.3 2.6-5.8 5.8-5.8 3.2 0 5.8 2.5 5.8 5.8 0 3.2-2.6 5.8-5.8 5.8zm3.7-5.8c0-2.1-1.6-3.7-3.7-3.7-2 0-3.7 1.6-3.7 3.7 0 2 1.7 3.7 3.7 3.7 2.1 0 3.7-1.7 3.7-3.7z"/>
						</g>
						<g id="&lt;Group&gt;">
							<path id="&lt;Path&gt;" class="s8" d="m195.2 15.9h-12.4c-0.6 0-1-0.5-1-1 0-0.6 0.4-1.1 1-1.1h12.4c0.6 0 1.1 0.5 1.1 1.1 0 0.5-0.5 1-1.1 1z"/>
						</g>
						<g id="&lt;Group&gt;">
							<path id="&lt;Path&gt;" class="s8" d="m202.4 10.8h-12.3c-0.6 0-1.1-0.5-1.1-1.1 0-0.5 0.5-1 1.1-1h12.3c0.6 0 1.1 0.5 1.1 1 0 0.6-0.5 1.1-1.1 1.1z"/>
						</g>
						<g id="&lt;Group&gt;">
							<path id="&lt;Path&gt;" class="s8" d="m182.8 7.9c-0.6 0-1-0.5-1-1.1v-5.2c0-0.6 0.4-1 1-1 0.6 0 1.1 0.4 1.1 1v5.2c0 0.6-0.5 1.1-1.1 1.1z"/>
						</g>
					</g>
					<g id="&lt;Group&gt;">
						<g id="&lt;Group&gt;">
							<circle id="&lt;Compound Path&gt;" class="s9" cx="149.2" cy="217.4" r="4.5"/>
						</g>
						<g id="&lt;Group&gt;">
							<path id="&lt;Path&gt;" class="s8" d="m164.3 218.7h-15.1c-0.8 0-1.3-0.6-1.3-1.3 0-0.7 0.5-1.3 1.3-1.3h15.1c0.7 0 1.3 0.6 1.3 1.3 0 0.7-0.6 1.3-1.3 1.3z"/>
						</g>
						<g id="&lt;Group&gt;">
							<path id="&lt;Path&gt;" class="s8" d="m173.1 212.4h-15.1c-0.7 0-1.3-0.5-1.3-1.3 0-0.7 0.6-1.2 1.3-1.2h15.1c0.7 0 1.3 0.5 1.3 1.2 0 0.8-0.6 1.3-1.3 1.3z"/>
						</g>
					</g>
					<g id="&lt;Group&gt;">
						<g id="&lt;Group&gt;">
							<path id="&lt;Path&gt;" class="s9" d="m46.1 104.2h-15.1c-0.7 0-1.3-0.6-1.3-1.3 0-0.7 0.6-1.3 1.3-1.3h15.1c0.8 0 1.3 0.6 1.3 1.3 0 0.7-0.5 1.3-1.3 1.3z"/>
						</g>
						<g id="&lt;Group&gt;">
							<path id="&lt;Path&gt;" class="s9" d="m55 98h-15.1c-0.7 0-1.3-0.6-1.3-1.3 0-0.8 0.6-1.3 1.3-1.3h15.1c0.7 0 1.3 0.5 1.3 1.3 0 0.7-0.6 1.3-1.3 1.3z"/>
						</g>
					</g>
				</g>
				<g id="&lt;Group&gt;">
					<g id="&lt;Group&gt;">
						<g id="&lt;Group&gt;">
							<path id="&lt;Path&gt;" class="s13" d="m233.8 48.2l-1.7 17-2.4 24.2-2.9 30.4-3.9 39.8c-0.1 1.4-0.5 2.7-1.1 4-2.2 4.4-6.8 8.4-11.6 9.5q-1.4 0.4-2.9 0.4h-1.2l-48.8-1.5c-6.8 0-11.8-5.2-11.5-11.8q0-0.3 0-0.6l1.8-24.3 3.8-51.6v-0.2l2.5-34.6 0.1-1.8c0.2-1.7 0.9-3.2 1.9-4.6q0.2-0.3 0.5-0.6c3.2-3.8 9.1-6.1 14.1-6.1h51.8c5.5 0 9.9 3.5 11.1 8.3 0.4 1.3 0.5 2.6 0.4 4.1z"/>
							<g id="&lt;Group&gt;">
								<path id="&lt;Path&gt;" class="s9" d="m229.9 49.7l-1.3 12.6-0.2 2.9-0.8 8.1-0.3 3-1 10.1-0.3 3-2.2 22.4-2.6 27.5-0.7 6.6-0.3 3.5-0.1 1-0.2 1.9-0.1 1.2-0.2 1.9-0.1 0.7-0.2 1.8-0.3 3.3c0 0.5-0.1 1-0.2 1.5q-0.5 2.1-1.6 3.8c-2.2 3.9-6.4 6.7-11.1 7-0.3 0-0.6 0-0.9 0h-51.8c-5.8 0-10.3-3.7-11.3-8.9-0.2-1.1-0.3-2.2-0.2-3.4l0.2-1.5 0.7-7.4 1.1-11.1 0.3-2.8 0.2-2.3 0.7-6.9 0.2-2.9 0.8-7.3 0.2-2.8 6.5-66.5q0.1-0.8 0.2-1.6c0.5-2.1 1.5-4 2.9-5.6q0.2-0.3 0.5-0.6c2.6-2.8 6.3-4.5 10.2-4.5h51.8c4 0 7.3 1.8 9.4 4.5 1.6 2.1 2.4 4.9 2.1 7.8z"/>
							</g>
							<path id="&lt;Path&gt;" class="s13" d="m211.8 161.5h-62.7c-2.9 0-5.1-2.3-4.8-5.2l9.9-101.7c0.3-2.9 2.9-5.2 5.8-5.2h62.7c3 0 5.1 2.3 4.8 5.2l-9.9 101.7c-0.2 2.9-2.8 5.2-5.8 5.2z"/>
							<path id="&lt;Path&gt;" class="s4" d="m203.3 44.2h-22.8c-0.5 0-0.9-0.4-0.8-0.9 0-0.5 0.4-0.9 0.9-0.9h22.8c0.5 0 0.9 0.4 0.8 0.9 0 0.5-0.4 0.9-0.9 0.9z"/>
						</g>
						<path id="&lt;Path&gt;" class="s14" d="m233.4 44.1c-0.6-0.4-1.2-0.7-1.8-0.9-1.3-0.5-2.5-0.9-3.8-1.3-3.3-0.9-6.6-1.7-10-2-4.5-0.6-9.4-0.5-13.3 1.9-0.4 0.2-0.7 0.4-1.1 0.6-0.6 0.6-1.3 1.1-1.8 1.8-1.4 1.5-2.4 3.3-3.2 5.2-1.1 3.1-1.4 6.6-1 9.9q0.2 1.6 0.7 3.1c0.2 0.9 0.5 1.9 0.9 2.8q0.6 2 1.6 3.9 0.4 1 0.9 2c0.4 0.7 0.8 1.4 1.2 2.2 0.6 1 1.1 2 1.7 3 0.3 0.5 0.5 0.9 0.8 1.3q2.6 4.4 5.1 8.8c0.3 0.6 0.7 1.2 1 1.8l0.8 1.2c3.6 6.2 7.2 12.5 10.2 19 0.6 1.1 1 2.3 1.5 3.4 1.2 2.6 2.1 5.3 3 8l-1.7 16.9-0.8 9.2-0.4 3.5-0.1 1-0.2 1.9-0.1 1.2-0.2 1.9v0.7l-0.2 1.8-0.2 1.7c-0.1 1.4-0.5 2.7-1.1 4-0.2 0.2-0.4 0.4-0.6 0.6v0.1c-0.6 0.8-1.4 1.7-2.2 2.4q-0.1 0.2-0.3 0.4c-2.6 2.4-5.4 4.4-8.5 6q-1.5 0.4-2.9 0.4h-1.2c-0.3 0-0.6 0-0.9 0h-51.8c-5.8 0-10.3-3.7-11.3-8.9-0.2-1.1-0.3-2.2-0.2-3.4l0.2-1.5 0.7-7.4 1.1-11.1 0.3-2.8 0.2-2.3c0.6-0.1 1.2-0.3 1.9-0.5 0.4-0.1 0.9-0.2 1.3-0.3 4.3-1 8.7-1.7 13-2.7 4.3-1 8.6-2.3 12.5-4.3q2-1 3.9-2.4c1.9-1.2 3.6-2.7 5-4.5 5.6-6.7 6.9-16.2 6.7-25-0.2-5-0.8-10.1-2.3-14.9-0.9-2.7-2-5.4-3.5-7.9-2.7-4.8-6.5-9.2-11-12.5q-0.2-0.2-0.4-0.3c-4.9-3.5-10.7-6.3-15.3-9.9-0.8-0.6-1.6-1.3-2.3-1.9q-0.5-0.4-0.9-0.9c0.5-2.1 1.5-4 2.9-5.6q0.2-0.3 0.5-0.6c3.2-3.8 9.1-6.1 14.1-6.1h51.8c5.5 0 9.9 3.5 11.1 8.3z"/>
					</g>
					<g id="&lt;Group&gt;">
						<path id="&lt;Path&gt;" class="s5" d="m192 149.6q0 0.4-0.1 0.8c-0.4 18.1-15 32.7-33 33.1q-0.5 0-0.9 0c-8.4 0-16.1-3-22-8.1-3.8-3.2-6.8-7.1-8.9-11.7-2-4.3-3.1-9.1-3.1-14.1q0-2.4 0.4-4.8c2.1-15.2 14.4-27.2 29.8-28.9q1.9-0.2 3.8-0.2c5.7 0 11.1 1.4 15.8 3.9 7.5 3.9 13.3 10.5 16.1 18.5 1.3 3.6 2.1 7.4 2.1 11.5z"/>
						<path id="&lt;Path&gt;" class="s15" d="m191.9 150.4c-0.4 18.1-15 32.7-33 33.1q2.5-1.8 5-3.6c1.1-0.7 2.2-1.7 2.3-3 0.2-1.7-1.7-3.1-1.8-4.9q-3.9 1.3-7.8 2.5c-1.1 0.4-2.2 0.7-3.4 0.6-1.1-0.1-2.3-0.7-2.6-1.8-0.5-1.5 0.7-3 2-3.8 4.3-2.7 9.9-1.2 14.7-2.5 3.3-0.8 6.2-2.9 8.1-5.7 2-3.1 2.8-7 5.6-9.4 2.3-2 5.6-2.5 8.5-2 0.9 0.1 1.7 0.3 2.4 0.5z"/>
						<path id="&lt;Path&gt;" class="s15" d="m189.9 138.1q-0.3 0-0.8-0.1c-4.5-0.5-6.9 0.6-10 4-1.5 1.7-3.1 3.6-5.3 4.5-2.2 0.9-5.1 0.5-6.3-1.6 2.4-1.4 4-3.9 4.3-6.7 0.1-1.5-0.2-3.2-1.5-4.1-1.2-0.9-2.8-0.8-4.2-0.4-3.6 0.9-6.8 2.9-9.2 5.7-0.2 0.3-0.5 0.7-0.9 0.9-0.4 0.1-0.8 0.1-1.2 0.1-3.1-0.1-6.3-1.5-7.6-4.3-1.3-2.8 0.2-6.8 3.3-7.2 0.9-0.1 1.9 0.1 2.5-0.6 0.3-0.4 0.4-0.8 0.5-1.3 0.6-3 0.8-6.2 0.7-9.3q0-0.9 0-1.8 1.9-0.2 3.8-0.2c14.7 0 27.2 9.3 31.9 22.4z"/>
						<path id="&lt;Path&gt;" class="s15" d="m152.3 164.6c-0.1 0.3-0.3 0.6-0.6 0.7-0.3 0.1-0.7 0.1-1 0.1-3.7-0.2-7.9-0.8-10.9 1.5-2 1.6-2.9 4.2-3.5 6.8q-0.2 0.8-0.3 1.7c-7.3-6.2-12-15.5-12-25.8q0-2.4 0.4-4.8c2.7-0.4 5.6-0.6 7.8 1 1 0.7 1.7 1.7 2.4 2.8q1.7 2.7 2.9 5.8c0.9 2.4 2 5.4 4.6 5.5 1.8 0.1 3.2-1.4 5-1.9 1.7-0.5 3.7 0.1 4.8 1.5 1.2 1.4 1.3 3.5 0.4 5.1z"/>
						<path id="&lt;Path&gt;" class="s16" d="m192 149.6q0 0.4-0.1 0.8c-0.4 18.1-15 32.7-33 33.1q-0.5 0-0.9 0c-8.4 0-16.1-3-22-8.1-3.8-3.2-6.8-7.1-8.9-11.7q0.1-0.8 0.2-1.6c0.4-3 1.1-6.1 2.8-8.5 1.3-1.8 3-3.2 4.9-4.3 3.4-2.1 7.2-3.5 11.1-4.1 4.5-0.7 9.1-0.3 13.6-0.8 4.5-0.4 9.1-1.9 12.1-5.3 3.6-4.4 3.5-10.7 2.9-16.3-0.1-0.8-0.5-2-0.9-3.2 7.5 3.9 13.3 10.5 16.1 18.5 1.3 3.6 2.1 7.4 2.1 11.5z"/>
					</g>
					<g id="&lt;Group&gt;">
						<g id="&lt;Group&gt;">
							<g id="&lt;Group&gt;">
								<path id="&lt;Path&gt;" class="s5" d="m209.4 174.8v4.9c0 1.1-10.2 4.9-13.4 5.7q0 0 0 0-0.4 0.2-0.7 0.2 0 0-0.1 0l-4.1-1.6-3.3-1.2-2.4-0.9c-1.1 0-2.1-1-2.1-2.2l-8-1.7-3.6-0.7q0 0 0 0 0 0 0-0.1c0.2-1.2 12.6-4.5 13.7-4.5h21.9c1.2 0 2.1 1 2.1 2.1z"/>
								<path id="&lt;Path&gt;" class="s8" d="m197.3 178.6v4.9c0 0.9-0.5 1.6-1.3 1.9q0 0 0 0-0.3 0.2-0.7 0.2 0 0-0.1 0h-21.9q0 0-0.1 0c-0.9 0-1.7-0.7-1.9-1.6q-0.1-0.2-0.1-0.5v-4.9q0-0.3 0.1-0.6 0.1-0.3 0.2-0.5 0 0 0 0 0.1-0.1 0.2-0.2 0 0 0 0 0 0 0-0.1 0.2-0.2 0.4-0.3c0.3-0.3 0.8-0.4 1.2-0.4h21.9c1.2 0 2.1 0.9 2.1 2.1z"/>
								<path id="&lt;Path&gt;" class="s4" d="m194.6 184h-23.4v-6h23.4c0.5 0 0.9 0.5 0.9 1v4.1c0 0.5-0.4 0.9-0.9 0.9z"/>
							</g>
							<path id="&lt;Path&gt;" class="s17" d="m209.4 174.8v4.9q0 0.2-0.4 0.5 0 0 0 0c-1.9 1.4-10.2 4.5-13 5.2q0 0 0 0-0.3 0.2-0.7 0.2 0 0-0.1 0h-20.7q0.2-0.2 0.5-0.3 0.4-0.2 0.8-0.4c1.3-0.5 2.7-0.7 4.1-0.8q0.3 0 0.6 0 0.2 0 0.3-0.1 1 0 1.9-0.1 0.9-0.1 1.8-0.2c0.7 0 1.4-0.1 2.1-0.3q0.7-0.2 1.2-0.6 0.3-0.2 0.5-0.5c0.7-1 0.7-2.2 0.6-3.4q-0.1-0.4-0.1-0.9c0-0.5 0-1 0.1-1.5q0.1-0.3 0.1-0.5c0.4-0.9 1.1-1.6 1.9-2.2 0.5-0.4 1.1-0.7 1.7-1q0 0 0.1 0 0-0.1 0-0.1h14.6c1.2 0 2.1 1 2.1 2.1z"/>
						</g>
						<g id="&lt;Group&gt;">
							<g id="&lt;Group&gt;">
								<path id="&lt;Path&gt;" class="s5" d="m225.8 176.2l-2 4.4c-0.5 0.9-11.4 0.2-14.6-0.4q0 0 0 0-0.5-0.1-0.7-0.1-0.1 0-0.1-0.1l-3.1-3.1-2.5-2.5-1.7-1.8c-1.1-0.5-1.6-1.8-1.1-2.9l-6.6-4.8-3-2.2q0 0 0.1 0 0 0 0 0c0.7-1 13.3 1.1 14.4 1.6l19.8 9c1.1 0.5 1.6 1.8 1.1 2.9z"/>
								<path id="&lt;Path&gt;" class="s8" d="m213.2 174.5l-2 4.5c-0.4 0.8-1.2 1.2-2 1.2q0 0 0 0-0.4 0-0.7-0.1-0.1 0-0.1-0.1l-19.9-9c-0.9-0.5-1.4-1.4-1.2-2.3q0-0.3 0.1-0.6l2.1-4.4q0.1-0.3 0.3-0.5 0.3-0.3 0.7-0.5 0 0 0 0c0.5-0.3 1.2-0.3 1.8-0.1l19.9 9.1c1 0.5 1.5 1.8 1 2.8z"/>
								<path id="&lt;Path&gt;" class="s4" d="m208.5 178.3l-21.3-9.7 2.5-5.4 21.3 9.7c0.4 0.2 0.6 0.8 0.4 1.2l-1.7 3.8c-0.2 0.5-0.8 0.7-1.2 0.4z"/>
							</g>
							<path id="&lt;Path&gt;" class="s18" d="m225.8 176.2l-2 4.4c-0.5 0.9-11.4 0.2-14.6-0.4q0 0 0 0-0.4 0-0.7-0.1-0.1 0-0.1-0.1l-18.9-8.6q0.3 0 0.6 0c1.9-0.2 3.8 0.5 5.5 1.1q0.2 0.1 0.3 0.1 1.8 0.7 3.5 1.3c1.1 0.4 2.3 0.8 3.4 0.5q0.4-0.1 0.7-0.2c1.3-0.7 1.6-2.3 2.2-3.7 0.2-0.5 0.5-1 0.8-1.4q0.1-0.2 0.3-0.4c1.1-1.1 3-1.3 4.6-1.4q0.1 0 0.1 0l13.2 6c1.1 0.5 1.6 1.8 1.1 2.9z"/>
						</g>
					</g>
					<g id="&lt;Group&gt;">
						<g id="&lt;Group&gt;">
							<g id="&lt;Group&gt;">
								<path id="&lt;Path&gt;" class="s9" d="m197.1 118.2l-1.9 3.1-4.6 7.3c-2.2 3.4-6.7 4.5-10.2 2.3l-9.5-6c-3.5-2.2-4.5-6.7-2.3-10.1l1.6-2.7 3-4.6 1.9-3.1 10.1 6.4z"/>
							</g>
							<path id="&lt;Path&gt;" class="s8" d="m201.8 122.5q-0.2 0-0.4 0l-0.4-0.1-5.8-1.1-13.3-2.5c-0.3-0.1-0.5-0.2-0.7-0.4l-1.4-2-6.6-8.9-3.8-5.2c-0.6-0.7 0.1-1.8 1.1-1.6l14.8 2.8 4.7 0.9q0.4 0.1 0.7 0.4l11.8 16c0.4 0.7 0 1.5-0.7 1.7z"/>
							<g id="&lt;Group&gt;">
								<path id="&lt;Path&gt;" class="s5" d="m201.8 122.5q0 0.1 0 0.2c-1.1 1.9-2.2 3.7-3.2 5.2-2.5 3.7-3.7 5.8-2.9 7.4q0.2 0.4 0.6 0.7c0.1 0.2 0.1 0.4 0 0.6q-0.1 0.1-0.3 0.1-0.2 0-0.3-0.1-0.3-0.3-0.5-0.6c-1.5-2.1 0.2-4.8 2.7-8.6 0.9-1.5 2-3.1 3.1-5q0-0.1 0.1-0.1c0.1-0.2 0.3-0.3 0.5-0.2q0.2 0.1 0.2 0.4z"/>
							</g>
							<path id="&lt;Path&gt;" class="s8" d="m199.1 138.1c-0.3 0.4-0.6 0.6-1 0.6q-0.4 0-0.7-0.2l-1.7-1.1c-0.6-0.3-0.7-0.9-0.5-1.4q0-0.1 0.1-0.2 0.2-0.3 0.4-0.5 0.3-0.1 0.6-0.1c0.2 0 0.5 0 0.7 0.2l1.7 1c0.6 0.4 0.7 1.2 0.4 1.7z"/>
						</g>
						<path id="&lt;Path&gt;" class="s19" d="m201.8 122.5q0 0.1 0 0.2c-1.1 1.9-2.2 3.7-3.2 5.2-2.5 3.7-3.7 5.8-2.9 7.4q0.3-0.1 0.6-0.1c0.2 0 0.5 0 0.7 0.2l1.7 1c0.6 0.4 0.7 1.2 0.4 1.7-0.3 0.4-0.6 0.6-1 0.6q-0.4 0-0.7-0.2l-1.7-1.1c-0.6-0.3-0.7-0.9-0.5-1.4-1.5-2.1 0.2-4.8 2.7-8.6 0.9-1.5 2-3.1 3.1-5l-5.8-1.1-4.6 7.3c-2.2 3.4-6.7 4.5-10.2 2.3l-9.5-6c-3.5-2.2-4.5-6.7-2.3-10.1l1.6-2.7c2.3 1 4.5 2.4 6.8 3.4 0.9 0.4 1.8 0.7 2.8 0.9 2 0.4 4.1 0.3 5.8-0.9 0.3-0.2 0.6-0.5 0.7-0.9 0.3-0.5 0.1-1.1-0.2-1.7q-0.4-1.1-0.9-2.1c-0.4-0.9-0.7-1.8-0.9-2.7-0.3-1.6-0.1-3.4 1-4.6l4.7 0.9q0.4 0.1 0.7 0.4l11.8 16c0.4 0.7 0 1.5-0.7 1.7z"/>
					</g>
					<g id="&lt;Group&gt;">
						<path id="&lt;Path&gt;" class="s8" d="m205.2 75.8l8.1 12.3c0.4 0.7 0.3 1.6-0.4 2.1l-12.3 8c-0.7 0.5-1.6 0.3-2.1-0.4l-2.3-3.7h-0.1c0.4-1 1.7-3.2 3.3-3 0.9 0.2 1.7 0.1 2.5-0.4q0.4-0.3 0.7-0.6c0.9-1.1 1-2.7 0.2-3.9-1-1.5-2.9-1.9-4.4-0.9-0.8 0.4-1.2 1.1-1.4 1.9 0 0 0 0.1 0 0.1-0.1 0.3-0.3 0.6-0.5 0.8q-0.2 0.2-0.4 0.3c-1 0.7-2.4 0.8-3.2 0.8l-0.4-0.6-2-3.1c-0.2-0.2-0.2-0.5-0.2-0.7-0.1-0.5 0.1-1 0.6-1.3l3.4-2.3 0.8-0.4c0-0.3-0.1-0.7-0.1-1.1-0.1-0.7-0.3-1.4-0.7-1.9-0.2-0.4-0.6-0.8-1-0.9q-0.5-0.1-0.9-0.3-0.7-0.3-1.2-1.1c-0.6-0.8-0.7-1.7-0.4-2.5 0.1-0.8 0.6-1.5 1.3-2 0.7-0.4 1.4-0.5 2.1-0.5 0.9 0.1 1.8 0.6 2.4 1.5 0.5 0.7 0.6 1.6 0.4 2.4-0.1 1.6 1.8 2.7 2.8 3.2l3.4-2.2c0.7-0.4 1.6-0.3 2 0.4z"/>
						<path id="&lt;Path&gt;" class="s9" d="m204.6 77.2l8 12.2q0.3 0.4 0.3 0.8c0 0.5-0.3 1-0.7 1.3l-12.3 8.1c-0.7 0.4-1.6 0.2-2-0.5l-2.5-3.7c0.2-0.3 0.4-0.8 0.8-1.3 0.6-0.9 1.5-1.8 2.6-1.7 0.8 0.2 1.7 0.1 2.4-0.4 0.7-0.5 1.2-1.2 1.4-1.9 0.2-0.8 0.1-1.8-0.5-2.5-0.9-1.6-2.9-2-4.4-1q-0.4 0.2-0.7 0.6-0.4 0.4-0.5 0.9-0.2 0.3-0.2 0.6c-0.2 0.4-0.5 0.8-0.9 1.1-0.9 0.6-2.4 0.7-3.2 0.7l-0.5-0.8-1.9-2.9c-0.4-0.7-0.3-1.6 0.4-2h0.1l4.1-2.7q0-0.4-0.1-0.9c0-0.7-0.2-1.5-0.6-2.1-0.3-0.4-0.7-0.7-1.1-0.9-0.8-0.1-1.6-0.6-2.1-1.4-0.8-1.2-0.7-2.8 0.3-3.8q0.3-0.4 0.6-0.6c0.6-0.4 1.2-0.5 1.8-0.5 1 0 2.1 0.5 2.7 1.4 0.5 0.8 0.6 1.7 0.4 2.5-0.1 1.5 1.8 2.7 2.9 3.2l3.4-2.3c0.6-0.4 1.5-0.2 2 0.5z"/>
						<path id="&lt;Path&gt;" class="s20" d="m205.2 75.8l8.1 12.3c0.4 0.7 0.3 1.6-0.4 2.1 0 0.5-0.3 1-0.7 1.3l-12.3 8.1c-0.7 0.4-1.6 0.2-2-0.5l-2.5-3.7c0.2-0.3 0.4-0.8 0.8-1.3h-0.1c0.4-1 1.7-3.2 3.3-3 0.9 0.2 1.7 0.1 2.5-0.4q0.4-0.3 0.7-0.6c0.2-0.8 0.1-1.8-0.5-2.5-0.9-1.6-2.9-2-4.4-1q-0.4 0.2-0.7 0.6c0 0 0 0.1 0 0.1-0.1 0.3-0.3 0.6-0.5 0.8q-0.2 0.3-0.2 0.6c-0.2 0.4-0.5 0.8-0.9 1.1-0.9 0.6-2.4 0.7-3.2 0.7l-0.5-0.8q0.4-0.5 0.8-1.1c1-1 1.9-2.1 2.5-3.3 0.9-1.8 1.2-4 0-5.6q0-0.1-0.1-0.1c-0.6-0.8-1.6-1.3-2.2-2.3q-0.2-0.3-0.3-0.7c-0.1-0.5-0.1-1-0.1-1.5 0-1.3 0.4-2.3 0.9-3.2q0.4-0.8 1-1.4c0.9 0.1 1.8 0.6 2.4 1.5 0.5 0.7 0.6 1.6 0.4 2.4-0.1 1.6 1.8 2.7 2.8 3.2l3.4-2.2c0.7-0.4 1.6-0.3 2 0.4z"/>
					</g>
					<g id="&lt;Group&gt;">
						<path id="&lt;Path&gt;" class="s8" d="m215.5 64.4l-4.8 6.4c-0.2 0.3-0.7 0.4-1.1 0.2l-6.4-4.8c-0.3-0.3-0.4-0.8-0.1-1.2l1.4-1.8v-0.1c0.6 0.1 1.9 0.3 2.2 1.2 0 0.4 0.2 0.8 0.6 1.1q0.2 0.2 0.5 0.3c0.7 0.2 1.5 0 2-0.6 0.6-0.8 0.4-1.9-0.4-2.5q-0.5-0.4-1.2-0.3 0 0-0.1 0-0.2 0-0.5-0.1-0.1-0.1-0.2-0.1c-0.5-0.4-0.8-1.1-1-1.5l0.2-0.3 1.3-1.7q0.1-0.1 0.3-0.2c0.2-0.1 0.5-0.1 0.8 0.1l1.8 1.3 0.3 0.3q0.3-0.1 0.6-0.2c0.3-0.2 0.6-0.4 0.8-0.7q0.3-0.3 0.3-0.7-0.1-0.3 0-0.5 0-0.5 0.3-0.8c0.3-0.5 0.8-0.7 1.2-0.7 0.4-0.1 0.9 0 1.3 0.3 0.3 0.3 0.5 0.6 0.6 1 0.1 0.5 0 1-0.3 1.5-0.3 0.4-0.7 0.6-1.2 0.6-0.8 0.2-1 1.4-1.1 2.1l1.8 1.3c0.3 0.3 0.4 0.8 0.1 1.1z"/>
						<path id="&lt;Path&gt;" class="s9" d="m214.7 64.3l-4.8 6.4q-0.1 0.2-0.3 0.3c-0.3 0.1-0.6 0-0.8-0.1l-6.4-4.8c-0.3-0.3-0.4-0.8-0.1-1.1l1.4-2c0.2 0 0.5 0.1 0.8 0.2 0.6 0.1 1.2 0.4 1.3 1 0.1 0.4 0.3 0.8 0.7 1.1 0.4 0.3 0.8 0.4 1.3 0.4 0.4-0.1 0.9-0.3 1.2-0.7 0.6-0.8 0.4-1.9-0.4-2.5q-0.2-0.1-0.4-0.2-0.3-0.1-0.6-0.1-0.1 0-0.3 0-0.4 0-0.7-0.2c-0.5-0.4-0.8-1.2-1-1.5l0.4-0.5 1.1-1.5c0.2-0.3 0.7-0.4 1.1-0.1l2.1 1.6q0.2 0 0.5-0.2c0.3-0.1 0.7-0.4 0.9-0.7 0.2-0.2 0.3-0.5 0.3-0.7-0.1-0.5 0-1 0.3-1.3 0.5-0.7 1.3-0.9 2-0.6q0.3 0.1 0.5 0.2 0.4 0.3 0.5 0.8c0.2 0.5 0.2 1.2-0.2 1.7-0.3 0.4-0.7 0.6-1.2 0.6-0.8 0.2-1 1.4-1.1 2.1l1.8 1.3c0.3 0.2 0.4 0.7 0.1 1.1z"/>
						<path id="&lt;Path&gt;" class="s21" d="m215.5 64.4l-4.8 6.4c-0.2 0.3-0.7 0.4-1.1 0.2-0.3 0.1-0.6 0-0.8-0.1l-6.4-4.8c-0.3-0.3-0.4-0.8-0.1-1.1l1.4-2c0.2 0 0.5 0.1 0.8 0.2v-0.1c0.6 0.1 1.9 0.3 2.2 1.2 0 0.4 0.2 0.8 0.6 1.1q0.2 0.2 0.5 0.3c0.4-0.1 0.9-0.3 1.2-0.7 0.6-0.8 0.4-1.9-0.4-2.5q-0.2-0.1-0.4-0.2 0 0-0.1 0-0.2 0-0.5-0.1-0.1 0-0.3 0-0.4 0-0.7-0.2c-0.5-0.4-0.8-1.2-1-1.5l0.4-0.5q0.3 0.2 0.6 0.3c0.8 0.3 1.5 0.5 2.2 0.6 1.1 0.2 2.3-0.1 2.9-1q0 0 0-0.1c0.3-0.5 0.4-1.1 0.8-1.5q0.1-0.2 0.3-0.3c0.2-0.2 0.5-0.3 0.7-0.4q1-0.3 1.8-0.1 0.5 0.1 0.9 0.3c0.1 0.5 0 1-0.3 1.5-0.3 0.4-0.7 0.6-1.2 0.6-0.8 0.2-1 1.4-1.1 2.1l1.8 1.3c0.3 0.3 0.4 0.8 0.1 1.1z"/>
					</g>
					<g id="&lt;Group&gt;">
						<path id="&lt;Path&gt;" class="s8" d="m178.9 64.7l5.6-5.7c0.3-0.3 0.8-0.3 1.2 0l5.6 5.7c0.3 0.3 0.4 0.8 0 1.1l-1.6 1.7h-0.1c-0.5-0.1-1.8-0.5-1.9-1.4 0-0.5-0.2-0.9-0.5-1.3q-0.2-0.2-0.4-0.3c-0.7-0.4-1.5-0.2-2.1 0.3-0.7 0.7-0.7 1.8 0 2.5q0.5 0.5 1.1 0.5 0.1 0 0.1 0 0.3 0 0.5 0.2 0.1 0 0.2 0.1c0.5 0.5 0.7 1.3 0.8 1.7l-0.2 0.2-1.5 1.5q-0.1 0.1-0.3 0.2c-0.3 0-0.6 0-0.8-0.2l-1.6-1.6-0.3-0.3q-0.3 0-0.6 0.1c-0.3 0.1-0.7 0.3-0.9 0.6q-0.3 0.3-0.4 0.7 0 0.2 0 0.4-0.1 0.5-0.5 0.8c-0.3 0.4-0.8 0.6-1.3 0.5-0.4 0-0.8-0.1-1.2-0.5-0.3-0.3-0.4-0.6-0.5-1 0-0.5 0.1-1.1 0.5-1.4 0.4-0.4 0.8-0.6 1.3-0.6 0.8-0.1 1.2-1.2 1.4-1.8l-1.6-1.6c-0.3-0.3-0.3-0.8 0-1.1z"/>
						<path id="&lt;Path&gt;" class="s9" d="m179.7 64.9l5.6-5.7q0.2-0.1 0.4-0.2c0.2 0 0.5 0 0.7 0.2l5.7 5.7c0.3 0.3 0.3 0.8 0 1.1l-1.7 1.7c-0.2 0-0.4-0.1-0.7-0.2-0.6-0.3-1.2-0.6-1.2-1.2 0-0.5-0.2-0.9-0.6-1.3-0.3-0.3-0.7-0.5-1.1-0.5-0.5 0-1 0.2-1.3 0.5-0.7 0.7-0.7 1.8 0 2.5q0.1 0.2 0.3 0.3 0.3 0.1 0.6 0.2 0.2 0 0.3 0 0.4 0.1 0.7 0.3c0.5 0.5 0.7 1.3 0.8 1.7l-0.4 0.3-1.3 1.4c-0.3 0.3-0.8 0.3-1.1 0l-2-1.9q-0.2 0-0.4 0.1c-0.4 0.1-0.8 0.3-1.1 0.6-0.1 0.2-0.3 0.4-0.3 0.7 0 0.4-0.2 0.9-0.5 1.2-0.6 0.6-1.4 0.7-2.1 0.3q-0.2-0.1-0.4-0.3-0.4-0.4-0.4-0.8c-0.2-0.6 0-1.2 0.4-1.6 0.4-0.4 0.8-0.6 1.3-0.5 0.8-0.1 1.2-1.3 1.3-1.9l-1.5-1.6c-0.3-0.3-0.3-0.8 0-1.1z"/>
						<path id="&lt;Path&gt;" class="s22" d="m178.9 64.7l5.6-5.7c0.3-0.3 0.8-0.3 1.2 0 0.2 0 0.5 0 0.7 0.2l5.7 5.7c0.3 0.3 0.3 0.8 0 1.1l-1.7 1.7c-0.2 0-0.4-0.1-0.7-0.2h-0.1c-0.5-0.1-1.8-0.5-1.9-1.4 0-0.5-0.2-0.9-0.5-1.3q-0.2-0.2-0.4-0.3c-0.5 0-1 0.2-1.3 0.5-0.7 0.7-0.7 1.8 0 2.5q0.1 0.2 0.3 0.3 0.1 0 0.1 0 0.3 0 0.5 0.2 0.2 0 0.3 0 0.4 0.1 0.7 0.3c0.5 0.5 0.7 1.3 0.8 1.7l-0.4 0.3q-0.3-0.1-0.6-0.3c-0.7-0.4-1.4-0.7-2.1-0.9-1.1-0.3-2.3-0.2-3 0.6q0 0 0 0.1c-0.4 0.4-0.6 1-1 1.4q-0.1 0.1-0.3 0.2c-0.3 0.2-0.6 0.2-0.8 0.3q-1.1 0.1-1.8-0.1-0.5-0.2-0.9-0.4c0-0.5 0.1-1.1 0.5-1.4 0.4-0.4 0.8-0.6 1.3-0.6 0.8-0.1 1.2-1.2 1.4-1.8l-1.6-1.6c-0.3-0.3-0.3-0.8 0-1.1z"/>
					</g>
					<g id="&lt;Group&gt;">
						<g id="&lt;Group&gt;">
							<path id="&lt;Path&gt;" class="s5" d="m208 107.9c0.6-0.3 1.2 0 1.5 0.6l3.6 8.8 19.5 47.1-3.8 1.4-3 1.1-18.6-57.5q0-0.1-0.1-0.3c0-0.5 0.3-1 0.9-1.2z"/>
							<path id="&lt;Path&gt;" class="s8" d="m225.7 166.9h0.1l3-1.1 3.8-1.4 0.2-0.1 4.7 4.8 1 1q-0.4 16.6-0.7 17.2c-0.2 0.5-3.4-8.9-3.9-10.6 0.8-0.6 1.2-1.7 0.8-2.8-0.4-1.2-1.7-1.8-2.9-1.4-1.3 0.5-1.9 1.8-1.4 3 0.4 1.1 1.4 1.7 2.4 1.5 0.7 1.8 4.5 11 4 10.7q-0.6-0.3-11.8-12.6z"/>
						</g>
						<path id="&lt;Path&gt;" class="s23" d="m207.1 109.1c0-0.5 0.3-1 0.9-1.2 0.6-0.3 1.2 0 1.5 0.6l3.6 8.8q0 0.2 0 0.5c0.1 2.8 0.8 5.5 1.6 8.3 2.4 9.4 4.9 18.9 8.2 28.2 1.5 4 3.2 8.2 5.9 11.5q1.1 1.4 2.6 2.5c0.5 0.4 1.1 0.9 1.9 1.1 0.6 0.1 1.4 0 2.1 0q1-0.2 2.1-0.3l1 1q-0.4 16.6-0.7 17.2c-0.2 0.5-3.4-8.9-3.9-10.6 0.8-0.6 1.2-1.7 0.8-2.8-0.4-1.2-1.7-1.8-2.9-1.4-1.3 0.5-1.9 1.8-1.4 3 0.4 1.1 1.4 1.7 2.4 1.5 0.7 1.8 4.5 11 4 10.7q-0.6-0.3-11.8-12.6l0.7-8.2h0.1l-18.6-57.5q0-0.1-0.1-0.3z"/>
					</g>
					<g id="&lt;Group&gt;">
						<g id="&lt;Group&gt;">
							<path id="&lt;Path&gt;" class="s13" d="m89.8 103.6c0.1 2.1-9.3 9.8-12 11.6l-1.1-2.3-2.5-5 9.6-5.3-6.8-15.4 2.5-1.5c3.4 4.4 6.6 8.8 8.5 12.6q0 0 0 0c1 1.9 1.6 3.7 1.8 5.3z"/>
							<path id="&lt;Path&gt;" class="s24" d="m77 87.2q-2-0.6-1.9-1.1c0-0.5 0.8-0.1 1-0.5 0.2-0.4-3.1-0.4-2.9-1.4 0.3-1.1 1.9-1.1 3.7-0.8q1.4 0.3 2.6 2.3z"/>
						</g>
						<g id="&lt;Group&gt;">
							<g id="&lt;Group&gt;">
								<path id="&lt;Path&gt;" class="s5" d="m124.8 79l-5.8 18.7c-0.4 1.2-1.7 1.9-3 1.5l-41.2-13c-1.3-0.4-1.9-1.7-1.6-2.9l5.9-18.7c0.4-1.2 1.7-1.9 3-1.5l41.2 13c1.3 0.3 1.9 1.6 1.5 2.9z"/>
							</g>
							<g id="&lt;Group&gt;">
								<path id="&lt;Path&gt;" class="s4" d="m96.5 71.8l-0.9 2.8c0 0.2-0.4 0.2-0.8 0.1l-13.1-4.1c-0.4-0.1-0.7-0.4-0.6-0.6l0.9-2.7c0-0.2 0.4-0.3 0.8-0.1l13.1 4.1c0.4 0.1 0.7 0.4 0.6 0.5z"/>
							</g>
							<g id="&lt;Group&gt;">
								<path id="&lt;Path&gt;" class="s4" d="m117.1 85.7l-1.8 5.9c-0.1 0.4-1 0.5-2.1 0.2l-33.7-10.6c-1-0.4-1.7-0.9-1.6-1.3l1.9-5.9c0.1-0.4 1-0.5 2-0.1l33.8 10.6c1 0.3 1.7 0.8 1.5 1.2z"/>
							</g>
							<path id="&lt;Path&gt;" class="s25" d="m123.6 82.8l-4.6 14.9c-0.4 1.2-1.7 1.9-3 1.5l-41.2-13c-1.3-0.4-1.9-1.7-1.6-2.9l3.5-10.9q0.2 0.1 0.4 0.2c2.2 0.7 4 2.2 6 3.5 2.4 1.5 5.1 2.5 7.9 3.1 2.4 0.4 4.8 0.5 7.1 0.2q1.8-0.2 3.5-0.8 0 0 0 0c2.4-0.8 4.7-2.1 7.3-2.4q0.2 0 0.4 0c2.7-0.2 5.4 0.8 7.8 2.1 2.2 1.1 4.8 2.6 6.5 4.5z"/>
						</g>
						<ellipse id="&lt;Path&gt;" class="s26" cx="70.5" cy="194.8" rx="6.7" ry="1"/>
						<g id="&lt;Group&gt;">
							<path id="&lt;Path&gt;" class="s24" d="m89.1 189.5q-0.3 0.8 0.1 1.9 0.4 1-5.1 1.4-0.4-1.5 0.5-2.8 0.9-1.3 0.9-2.3z"/>
							<path id="&lt;Path&gt;" class="s8" d="m91.1 134.8c3 8.5 4 17.2 4.1 22.2 0.1 4.4-2.4 19.4-5.1 32.3-1.3 0.6-5 0-5.7-0.9q1.9-23.1 1.9-28.4c0-5.4-4.7-10.5-5.6-24.2z"/>
							<path id="&lt;Path&gt;" class="s13" d="m89.5 191.2c2.3 0.7 6.4 2.7 6.4 4.3-4.1 0.1-8.3 0-12.6-0.1q-0.8-1.7 0.4-3.6 3 1 5.8-0.6z"/>
						</g>
						<g id="&lt;Group&gt;">
							<path id="&lt;Path&gt;" class="s24" d="m71.8 187.4q-0.4 0.7-0.3 1.9 0.2 1.1-5.3 0.3 0-1.5 1.1-2.6 1.2-1.1 1.4-2z"/>
							<path id="&lt;Path&gt;" class="s8" d="m84.9 134.3c1.2 8.9 0.4 17.6-0.5 22.5-0.8 4.4-6.3 18.5-11.6 30.7-1.3 0.2-4.9-1.1-5.4-2.1q6.6-22.3 7.7-27.5c1-5.2-2.5-11.1-0.6-24.8z"/>
							<path id="&lt;Path&gt;" class="s13" d="m71.8 189.2c2.1 1.1 5.7 3.9 5.4 5.4-4-0.6-8.1-1.6-12.3-2.6q-0.4-1.8 1.1-3.5 2.8 1.7 5.8 0.7z"/>
						</g>
						<path id="&lt;Path&gt;" class="s13" d="m92.7 139.9c-1.3 0.8-3.6 1.2-6.1 1.3-5.3 0.4-11.9-0.5-13.7-2.3 1-13.9-2.2-28.3 1.9-31.5 3.4-1.7 12.2-1.5 17.3 0.8q0.1 0 0.1 0 0.3 0.1 0.5 0.2 0.2 2.7 0.3 5.3 0 0.7 0.1 1.3 0 0.6 0.1 1.3 0 0.3 0 0.6c0.5 9.2 0.6 17.5-0.5 23z"/>
						<g id="&lt;Group&gt;">
							<path id="&lt;Path&gt;" class="s24" d="m80.6 106.5c0.8-1.3 0.9-2.7 1-4.3h3.3c0 1.6 0 3.1 0.5 4.7-0.3 0.7-4.4 0.4-4.8-0.4z"/>
						</g>
						<g id="&lt;Group&gt;">
							<path id="&lt;Path&gt;" class="s24" d="m81 94.6l8.1 0.6c-0.1 2.8-1.4 7.8-2.8 9.4-1.3 0.8-3.3-0.1-5.3-1z"/>
						</g>
						<path id="&lt;Path&gt;" class="s27" d="m79.1 94.1c1.3-0.9 3.4-3 5.2-2.5 2 0.9 3.8 0.8 5.7 0 0.5 1.1 0.5 2.9-0.5 4.3-0.4 1.1-2.2 1-4.1 0.7l0.5 2.3-0.6 0.7c-0.4-0.5-0.7-1-1.1-1.3-0.6 0.3-1 0.6-0.9 1.2 0 0.7 1.1 1.4 2 2 0.1 1.6-1.1 3.4-2.9 3.2-3-0.3-1.8-1.4-2.7-2.2-3.1-2.9-2.6-6.7-0.6-8.4z"/>
						<path id="&lt;Path&gt;" class="s26" d="m95.4 194.5c-3.6 0.6-7.4-0.9-8.8-2q-0.1-0.1-0.2-0.3c-0.2-0.6-0.1-1.6 0.2-2.9q0.1-0.4 0.2-0.9c1.1-4 3.4-10.5 4.7-18.3 2.1-12.2-0.5-23.3-4.9-28.9q0.1 0.1 0.3 0 1.6 0 3.1-0.4 1.4-0.3 2.7-0.9c1.8 6.7 2.4 13.1 2.5 17.1 0.2 4.4-2.4 19.4-5.1 32.3-0.2 0.2-0.6 0.2-1 0.2q-0.2 0.8 0.1 1.9 0.1-0.1 0.3-0.2c1.8 0.5 4.8 1.9 5.9 3.3z"/>
						<path id="&lt;Path&gt;" class="s26" d="m84.7 154.8q-0.1 1.1-0.3 2c-0.8 4.4-6.3 18.5-11.6 30.7q-0.4 0-1.1 0c0 0.1-0.3 0.7-0.2 1.8q0.2-0.1 0.3-0.1c1.6 0.8 4.2 2.7 5.1 4.3-2.9-0.6-7-2.1-7.9-3.7q0-0.1-0.1-0.3-0.1-0.3 0.1-0.7c0.1-0.2 0.4-0.9 0.8-1.9q0.2-0.4 0.3-0.8c2.9-6.7 9.9-23.1 11.1-27.6 1.5-5.1 1.6-7.7 0.1-11.5 0.2 0.4 2.4 3.9 3.4 7.8z"/>
						<g id="&lt;Group&gt;">
							<path id="&lt;Path&gt;" class="s13" d="m113.7 100.5c-1.6 4.8-3.4 9.4-5.4 13-0.1 0.3-0.3 0.7-0.5 0.9q0 0 0 0.1c-1.1 1.8-2.3 3.4-3.5 4.3-1.2 0.9-6.7-0.5-11.1-1.9-1-0.3-1.9-0.6-2.7-0.9-1.1-0.4-1.9-0.7-2.5-0.9l1.3-2.2 2.8-4.7 0.1-0.1 9.7 5.1 9.3-14z"/>
							<path id="&lt;Path&gt;" class="s24" d="m111.2 99.2q-0.7-2-0.2-2.2c0.4-0.2 0.5 1 1 0.9q0.5 0 2.8 0.8 0.6 1.3-1.1 1.8z"/>
						</g>
						<path id="&lt;Path&gt;" class="s26" d="m108.3 113.5c-0.1 0.3-0.3 0.7-0.5 0.9q0 0 0 0.1c-1.1 1.8-2.3 3.4-3.5 4.3-1.2 0.9-6.7-0.5-11.1-1.9 0.5 9.2 0.6 17.5-0.5 23-1.3 0.8-3.6 1.2-6.1 1.3 4.5-6.8 4.2-20.1 3.9-25.2q-0.1-1.3-0.2-2.1 1.2 0.6 2.8 1.1c4.3 1.2 10.6 1.1 15.2-1.5z"/>
					</g>
					<g id="&lt;Group&gt;">
						<g id="&lt;Group&gt;">
							<g id="&lt;Group&gt;">
								<path id="&lt;Path&gt;" class="s24" d="m141 145q-0.5 0.9-7 2.4 1.7-2.5 3-3.8c-0.2-9.9-1.9-20.3-1.1-25.4 1-6.3 7.7-9.4 14.8-10.8l5.5 4.9c-0.6 6.6-4.9 4.2-13.7 6.9-1.2 5.8-1.9 14.3-2.2 23.9q1.1 1.1 0.7 1.9z"/>
								<path id="&lt;Path&gt;" class="s28" d="m137.9 144.7c1 0.3 1.9-1.5 2.6-1.5 0.6 0 1.3 1.5 0.8 2.4q-0.5 0.9 0.1 2c-0.2 0.2-0.5 0.3-0.7 0.3q-0.4-1.9-2.4-1.2c-2 0.7-1.8 1.2-2.4 1.7-0.7 0.4-4 0.8-3.8-0.2q0.1-0.9 3.5-3.5c0.7-0.6 1.3-0.2 2.3 0z"/>
							</g>
							<g id="&lt;Group&gt;">
								<path id="&lt;Path&gt;" class="s24" d="m155.4 147.7q-0.2 1-6.4 3.8 1.3-2.8 2.2-4.4c-2.2-9.6-6-19.4-6.3-24.6-0.3-6.4 5.7-10.8 12.4-13.5l6.3 3.6c0.8 6.6-3.9 5.1-11.9 9.6-0.1 5.8 1 14.4 2.6 23.8q1.4 0.8 1.1 1.7z"/>
								<path id="&lt;Path&gt;" class="s28" d="m152.3 148.1c1.1 0.1 1.6-1.9 2.3-2 0.6-0.2 1.6 1.1 1.3 2.1q-0.3 1 0.5 2c-0.1 0.2-0.4 0.4-0.6 0.4q-0.9-1.7-2.7-0.7c-1.8 1.1-1.4 1.5-2 2.1-0.6 0.7-3.7 1.6-3.7 0.7q-0.1-1 2.7-4.2c0.6-0.7 1.2-0.5 2.2-0.4z"/>
							</g>
							<path id="&lt;Path&gt;" class="s8" d="m159 104.9c2.2 4.3 8-0.2 9.3 2.1 0.4 9.7-12.8 14.2-13.9 14.2-2.7 0-20-4.9-17-8.2 5.7-4.7 9.9-8.2 21.6-8.1z"/>
							<path id="&lt;Path&gt;" class="s9" d="m168.7 106.9c-4.7 1.1-11.8 0.5-19.4-1.1 4.4-19.4-4.7-21 2.1-29.5q1.1-0.3 2.3-0.4c2.8-0.4 5.8-0.4 9-0.1 1 0.2 1.9 0.8 2.8 1.4 2.9 8.9 1.8 25.5 3.2 29.7z"/>
							<g id="&lt;Group&gt;">
								<g id="&lt;Group&gt;">
									<g id="&lt;Group&gt;">
										<path id="&lt;Path&gt;" class="s24" d="m165.5 77.2c3.6 3.1 2.7 13.9 2.7 16.5-1.1 3.3-6.1 8.9-11.1 14l-1.7-1.4 8.3-12.4-1.3-9.9z"/>
									</g>
									<g id="&lt;Group&gt;">
										<path id="&lt;Path&gt;" class="s24" d="m165.5 77.2c3.6 3.1 2.7 13.9 2.7 16.5-1.1 3.3-6.1 8.9-11.1 14l-1.7-1.4 8.3-12.4-1.3-9.9z"/>
									</g>
									<path id="&lt;Path&gt;" class="s4" d="m159.8 105.7l-1.5 0.8-1.9-1.6 0.3-1.7 0.5 0.4 2.2 1.7z"/>
								</g>
							</g>
							<g id="&lt;Group&gt;">
								<g id="&lt;Group&gt;">
									<g id="&lt;Group&gt;">
										<g id="&lt;Group&gt;">
											<path id="&lt;Path&gt;" class="s29" d="m168.2 93.7c-0.9 2.8-4.7 7.2-8.8 11.6l-2.2-1.7 6.5-9.7-1.3-9.9 3.1-6.8c3.6 3.1 2.7 13.9 2.7 16.5z"/>
										</g>
										<path id="&lt;Path&gt;" class="s9" d="m168.7 93.8c-0.9 2.8-5.2 7.1-9.3 11.5l-2.2-1.7 5.9-9.7-1-9.9 3.4-6.8c3.6 3.1 3.2 14 3.2 16.6z"/>
									</g>
								</g>
							</g>
							<g id="&lt;Group&gt;">
								<g id="&lt;Group&gt;">
									<g id="&lt;Group&gt;">
										<path id="&lt;Path&gt;" class="s24" d="m151.1 77.7c0.9 4.6 0.2 9.7-0.8 12.6-3.2 1.3-10.8 1-17.9 0.4v-2.2l14.9-1.6 4-10.2z"/>
									</g>
									<path id="&lt;Path&gt;" class="s9" d="m151.8 85.3c-0.4 2.1-0.9 4.1-1.5 5q-0.3 0.2-0.6 0.3c-1.8 0.7-5.4 0.8-9.3 0.6-1.5-0.1-3.1-0.2-4.7-0.2v-0.1-2.7l0.1-0.1 9.9-2 5.7-9.8 0.8 0.9c0.5 0.2 0.2 4.4-0.4 8.1z"/>
									<path id="&lt;Path&gt;" class="s4" d="m135.8 91.5l-1.7-0.7 0.1-2.5 1.4-0.8v0.7l0.1 2.8z"/>
								</g>
								<g id="&lt;Group&gt;">
									<path id="&lt;Path&gt;" class="s24" d="m132.5 90.7q-1.1 0.5-1.7 0.7c-0.6 0.1-4.2-1.8-3.8-2.2 0.5-0.4 2.5 0.4 3.2 0.3q0.9-0.2 2.2-1z"/>
								</g>
							</g>
							<path id="&lt;Path&gt;" class="s4" d="m162.7 75.8q0 0.1-0.1 0.1-2.4 0.7-6.2 10.5-1.5-7.8-2.7-10.5c2.8-0.4 5.8-0.4 9-0.1z"/>
							<g id="&lt;Group&gt;">
								<path id="&lt;Path&gt;" class="s24" d="m156 75.6c2.2-1 1.1-2.8 1.5-2.8l2.4-0.1c0.2 0.1-0.1 2.1 1.1 3-1.3 1.2-3.6 1.2-5-0.1z"/>
							</g>
							<g id="&lt;Group&gt;">
								<path id="&lt;Path&gt;" class="s24" d="m159.1 66.6c0.8 1.2 1.1 3.4 1.3 6-1.3 0.7-2.9 2.5-4 1.9-1.3-0.8-3.1-4.8-2.7-6.1 1-1.3 3-1.7 5.4-1.8z"/>
							</g>
							<path id="&lt;Path&gt;" class="s27" d="m152.7 66.1c1.3-1.7 4.5-3.1 7.1-1.9 1.3 0.6 2.9 3.5 2.3 5.3-0.7 1.8 0 2.2 1.8 2.9 1.9 0.7-1.3 2.9-3.1 2.9-2.7-0.1-2.6-3.4-2.4-4.7 0.2-1.3-0.7-2.8-1.5-1.6-0.8 1.2-3.2 1.3-4.1 0.7-0.8-0.5-1.6-1.8-0.1-3.6z"/>
							<path id="&lt;Path&gt;" class="s24" d="m157.1 107.7c0.2 0.4-1 1.4-2 0.9l-2.9 0.2c-0.6 0.2-1 0.3-1-0.3 0-0.4 0.8-0.9 2.1-1.6 0.7-0.3 1.5-0.9 2.1-0.6z"/>
							<path id="&lt;Path&gt;" class="s26" d="m151.2 86.5q0.3-0.4 0.4-0.7c-0.1 0.4-0.3 1-0.6 1.6-0.3 1-0.8 2.1-1.3 3.1q0 0 0 0.1c-1.8 0.7-5.4 0.8-9.3 0.6q0.1 0 0.2 0c5.2-1.1 9.1-3 10.6-4.7z"/>
						</g>
						<g id="&lt;Group&gt;">
							<path id="&lt;Path&gt;" class="s4" d="m149.5 108.8h-14.8c-1.2 0-2.3-0.9-2.6-1.9l-2.4-9.8c-0.3-1.1 0.4-1.9 1.6-1.9h14.9c1.1 0 2.2 0.8 2.5 1.9l2.4 9.8c0.3 1-0.4 1.9-1.6 1.9z"/>
							<rect id="&lt;Path&gt;" class="s30" x="134.7" y="108.8" width="23.9" height="2.6" rx=".6"></rect>
							<rect id="&lt;Path&gt;" class="s4" x="147.4" y="108.8" width="11.2" height="2.6" rx=".6"></rect>
							<ellipse id="&lt;Path&gt;" class="s8" cx="139.9" cy="102" rx="2.1" ry="2.1"/>
						</g>
						<path id="&lt;Path&gt;" class="s26" d="m142.5 119.2c-1.2 5.8-1.9 14.3-2.2 23.9q0 0 0.1 0.1h0.1c0.6 0 1.3 1.5 0.8 2.4q-0.5 0.9 0.1 2c-0.2 0.2-0.5 0.4-0.7 0.3q-0.4-1.9-2.4-1.2c-2 0.7-1.8 1.2-2.4 1.7-0.7 0.4-4 0.8-3.8-0.2 0.1-0.4 0.8-1.2 1.6-1.9 0.2 0 0.6 0.1 0.9 0.2 0.9 0.2 2.2 0.2 3.2-0.5q1.2-0.7 1.7-2.1 0 0 0 0c0.5-1.4 0.6-3.3 0-5.8-1-4.5-1-19.8 1.9-20.8q0.1 0.1 0.4 0.2 0.2 0.1 0.4 0.2 1.1 0.5 2.4 0.9-1 0.3-2.1 0.6z"/>
						<path id="&lt;Path&gt;" class="s26" d="m168.7 106.9q-0.2 0.1-0.4 0.1c0.4 9.7-12.8 14.2-13.9 14.2q-0.2 0-0.7-0.1-1 0.5-2 1.1c-0.1 5.8 1 14.4 2.6 23.8q0.1 0 0.2 0.1 0 0 0 0c0.7-0.2 1.7 1.1 1.4 2.1q-0.3 1 0.4 2c0 0.2-0.3 0.4-0.5 0.4q-0.9-1.7-2.7-0.7c-1.8 1.1-1.4 1.5-2 2.2-0.6 0.6-3.7 1.5-3.7 0.6 0-0.4 0.4-1.3 1-2q0.5-0.1 1.1-0.3c2.1-0.5 4.6-1.7 4.7-2.7q0-0.3-0.2-1.1c-0.7-3-3.3-10.1-3.6-12.8-0.3-2.7-1.3-10.7-0.2-13.4q0.2-0.6 0.6-0.9c1.8-1.1 7.7-2.5 10.6-5.7 0.7-0.8 0.8-1.5 0.7-2.1-0.5-2.3-4.8-4-4.5-4.4q0-0.1 0.1-0.2 0 0 0.1 0c0.2-0.3 0.6-0.6 1-0.9 0.3-0.2 0.6-0.3 0.8-0.4q0.1-0.1 0.2-0.1c0.8-0.3 0.1-1 1.5-1.9 1.4-0.9 5.3-6.1 6.5-8.1 0.1 5 0.3 9.3 0.9 11.2z"/>
						<path id="&lt;Path&gt;" class="s26" d="m161.8 84.5l1.2 8.9c-0.1 3.2-3.2 6.6-5.6 9.9q3.4-4.8 4.1-10.2c0.6-5.3 0.3-7.1 0.3-8.6z"/>
					</g>
					<g id="&lt;Group&gt;">
						<g id="&lt;Group&gt;">
							<path id="&lt;Path&gt;" class="s13" d="m138.4 2.6v37.1c0 0.7-0.6 1.3-1.4 1.3h-30.6c-0.8 0-1.4-0.6-1.4-1.3v-37.1c0-0.7 0.6-1.3 1.4-1.3h30.6c0.4 0 0.7 0.1 1 0.3 0.2 0.3 0.4 0.6 0.4 1z"/>
							<path id="&lt;Path&gt;" class="s8" d="m120.1 10h-9.6c-0.3 0-0.5-0.2-0.5-0.4v-1.7c0-0.3 0.2-0.5 0.5-0.5h9.6c0.3 0 0.5 0.2 0.5 0.5v1.7c0 0.2-0.2 0.4-0.5 0.4z"/>
							<rect id="&lt;Path&gt;" class="s9" x="110" y="13.1" width="12.1" height="6.5" rx=".6"></rect>
							<path id="&lt;Path&gt;" class="s9" d="m133.6 27.5h-22.8c-0.4 0-0.8-0.3-0.8-0.8v-2.7c0-0.4 0.4-0.7 0.8-0.7h22.8c0.4 0 0.7 0.3 0.7 0.7v2.7c0 0.5-0.3 0.8-0.7 0.8z"/>
							<path id="&lt;Path&gt;" class="s8" d="m133.6 35.4h-22.8c-0.4 0-0.8-0.3-0.8-0.7v-2.8c0-0.4 0.4-0.7 0.8-0.7h22.8c0.4 0 0.7 0.3 0.7 0.7v2.8c0 0.4-0.3 0.7-0.7 0.7z"/>
							<path id="&lt;Path&gt;" class="s31" d="m138.4 38.9v0.8c0 0.7-0.6 1.3-1.4 1.3h-30.6c-0.8 0-1.4-0.6-1.4-1.3v-3.2c0.7-0.5 1.6-0.8 2.3-1.2 3.3-1.8 5.6-5.3 6-9.1 0.4-3.8-1-7.6-3.8-10.3-1.3-1.3-2.9-2.2-4.5-3.3v-10c0-0.7 0.6-1.3 1.4-1.3h30.6c0.4 0 0.7 0.1 1 0.3-3.1-0.3-6.3 0.7-8.6 2.8-1.6 1.4-2.7 3.1-3.6 5-0.8 1.5-1.4 3.2-1.7 4.8-0.6 3.8 0.5 7.7 2.5 11 1.9 3.4 4.7 6.1 7.5 8.7 1.2 1.1 2.5 2.2 3.4 3.5q0.5 0.7 0.9 1.5z"/>
						</g>
						<g id="&lt;Group&gt;">
							<g id="&lt;Group&gt;">
								<path id="&lt;Path&gt;" class="s32" d="m134.6 42.2l-0.7 1.8-3.6 8.7-0.6-2.9-1 0.6-0.7 0.5-0.8 0.5 0.2-0.5 0.1-0.3 0.8-1.8 0.1-0.2 0.7-1.9 0.1-0.2 0.1-0.4 0.5-1 0.7-1.9 0.2-0.4 0.8-1.8z"/>
								<path id="&lt;Path&gt;" class="s32" d="m142.3 51.4l-2.5-1.6-0.7 2.9-3.5-8.7-0.7-1.8 3.1-1.2 0.8 1.8z"/>
								<g id="&lt;Group&gt;">
									<path id="&lt;Path&gt;" class="s9" d="m141.8 37c0 2.4-1.2 4.5-3 5.8-1 0.6-2 1.1-3.2 1.2q-0.4 0.1-0.9 0.1-0.4 0-0.8-0.1c-1.2-0.1-2.3-0.6-3.2-1.2q0 0 0 0-0.2-0.1-0.3-0.2 0 0 0 0-0.2-0.1-0.3-0.3-0.3-0.2-0.5-0.5c-0.8-0.7-1.3-1.7-1.6-2.8q0 0 0 0-0.3-0.8-0.3-1.8 0-0.1 0-0.2c0-1.2 0.3-2.3 0.8-3.3 0.7-1.3 1.7-2.3 3-3 1-0.5 2.1-0.8 3.2-0.8 2.7 0 5.1 1.5 6.3 3.7 0.5 1 0.8 2.2 0.8 3.4z"/>
								</g>
								<circle id="&lt;Path&gt;" class="s4" cx="134.7" cy="37" r="4.7"/>
								<path id="&lt;Path&gt;" class="s8" d="m135.1 34.6l0.5 1.5q0 0.1 0.2 0.1h1.5c0.2 0 0.3 0.3 0.2 0.4l-1.3 0.9q-0.1 0.1-0.1 0.3l0.5 1.5c0.1 0.2-0.2 0.3-0.3 0.2l-1.3-0.9q-0.1-0.1-0.3 0l-1.2 0.9c-0.2 0.1-0.4 0-0.4-0.2l0.5-1.5q0.1-0.2-0.1-0.3l-1.2-0.9c-0.2-0.1-0.1-0.4 0.1-0.4h1.6q0.1 0 0.2-0.1l0.5-1.5c0-0.2 0.3-0.2 0.4 0z"/>
							</g>
							<path id="&lt;Path&gt;" class="s33" d="m142.3 51.4l-2.5-1.6-0.7 2.9-3.5-8.7q-0.4 0.1-0.9 0.1-0.4 0-0.8-0.1l-3.6 8.7-0.6-2.9-1 0.6-0.7 0.5-0.8 0.5 0.2-0.5 0.1-0.3 0.8-1.8 0.1-0.2 0.7-1.9 0.1-0.2 0.1-0.4 0.5-1 0.7-1.9 0.2-0.4q0 0 0 0-0.2-0.1-0.3-0.2 0 0 0 0-0.2-0.1-0.3-0.3-0.3-0.2-0.5-0.5c-0.8-0.7-1.3-1.7-1.6-2.8q0 0.1 0 0.1 0.6 0.7 1.4 1.1 0.3 0.2 0.5 0.3 0.5 0.2 1 0.3 0.1 0 0.2 0.1 0.4 0 0.8 0 0.1 0 0.2 0h0.1c1 0 2.1-0.5 2.5-1.5q0.2-0.4 0.1-0.8 0 0 0 0c0-1-0.4-2.1-0.1-3q0.2-0.4 0.5-0.8c0.2-0.3 0.6-0.6 1-0.7 0.6-0.3 1.3-0.4 1.9-0.4q0.1 0 0.3 0c0.8-0.1 1.7-0.1 2.6-0.1 0.5 1 0.8 2.2 0.8 3.4 0 2.4-1.2 4.5-3 5.8z"/>
						</g>
					</g>
				</g>
			</g>
		</g>
	</g>
</svg>