<svg version="1.2" xmlns="http://www.w3.org/2000/svg" viewBox="0 0 300 225" width="1000" height="750">
	<title>Illustration_Analysis Skills-ai</title>
	<defs>
		<linearGradient id="g1" x1="260" y1="21.7" x2="277.8" y2="198.8" gradientUnits="userSpaceOnUse">
			<stop offset="0" stop-color="#7035bb"/>
			<stop offset="1" stop-color="#36164d"/>
		</linearGradient>
		<linearGradient id="g2" x1="256.7" y1="33.5" x2="283.3" y2="192.3" gradientUnits="userSpaceOnUse">
			<stop offset="0" stop-color="#ffffff"/>
			<stop offset="1" stop-color="#000000"/>
		</linearGradient>
		<linearGradient id="g3" x1="276.2" y1="58.6" x2="272" y2="215.6" gradientUnits="userSpaceOnUse">
			<stop offset="0" stop-color="#ffffff"/>
			<stop offset="1" stop-color="#000000"/>
		</linearGradient>
		<linearGradient id="g4" x1="270.9" y1="109.8" x2="276.1" y2="217.3" gradientUnits="userSpaceOnUse">
			<stop offset="0" stop-color="#ffffff"/>
			<stop offset="1" stop-color="#000000"/>
		</linearGradient>
		<clipPath clipPathUnits="userSpaceOnUse" id="cp1">
			<path d="m269.5 178.98q-0.05 0.21-0.11 0.42-0.23 0.67-0.57 1.37c-7.39 14.71-29.55 5.16-72.21 32.82-42.65 27.67-175.26-6.25-140.91-29.44q2.06-1.39 3.94-2.74 0.59-0.43 1.17-0.85 1.46-1.06 2.81-2.09 0.4-0.3 0.79-0.6 1.55-1.22 2.96-2.39 0.54-0.45 1.06-0.9 1-0.86 1.93-1.71 0.42-0.38 0.84-0.76 1.17-1.1 2.2-2.18 0.41-0.42 0.8-0.84 0.73-0.78 1.38-1.54 0.34-0.39 0.66-0.77 0.85-1.03 1.58-2.04 0.25-0.37 0.5-0.73 0.51-0.75 0.96-1.5 0.22-0.35 0.42-0.7 0.57-1 1.01-1.97 0.13-0.28 0.24-0.57 0.33-0.77 0.58-1.53 0.11-0.32 0.21-0.63 0.29-0.97 0.47-1.92 0.04-0.2 0.06-0.39 0.13-0.82 0.19-1.63 0.02-0.28 0.03-0.56 0.04-0.96-0.03-1.91-0.01-0.08-0.02-0.16-0.08-0.9-0.25-1.79-0.05-0.25-0.1-0.51-0.19-0.91-0.47-1.82-0.02-0.04-0.03-0.09-0.31-0.96-0.71-1.92-0.1-0.24-0.21-0.47-0.37-0.86-0.81-1.72-0.05-0.11-0.11-0.22-0.51-0.96-1.1-1.93-0.13-0.23-0.28-0.45-0.51-0.83-1.08-1.67-0.11-0.17-0.22-0.33-0.67-0.97-1.41-1.95-0.17-0.23-0.35-0.47-0.62-0.81-1.28-1.63-0.18-0.23-0.36-0.46-0.77-0.95-1.58-1.91-1.12-1.32-2.31-2.68-0.49-0.56-0.99-1.13-0.67-0.75-1.35-1.52c-3.76-4.21-7.91-8.74-12.07-13.77q-0.27-0.32-0.53-0.64-1.18-1.45-2.37-2.95-0.3-0.39-0.6-0.77-1.43-1.84-2.84-3.77c-7.44-10.22-10.82-19.92-11.26-28.6-1.49-27.64 26.81-44.96 49.35-35.39q2.71 1.15 5.29 2.83c23.79 15.56 39.92 2.76 67.31-26.42 5.99-6.36 13.91-10.43 22.68-12.5 31.3-7.5 73.07 10.12 73.07 36.54q-0.01 1.49-0.14 2.98-0.06 0.51-0.12 1.02-0.11 0.98-0.27 1.96-0.11 0.61-0.24 1.23-0.17 0.86-0.37 1.73-0.17 0.67-0.36 1.34-0.22 0.8-0.46 1.6-0.22 0.71-0.47 1.42-0.26 0.74-0.54 1.49-0.27 0.75-0.57 1.49-0.29 0.7-0.59 1.4-0.33 0.77-0.68 1.55-0.36 0.75-0.73 1.5-0.5 1.03-1.03 2.06-0.52 1.01-1.08 2.02-0.3 0.56-0.62 1.11-0.51 0.9-1.03 1.79-0.31 0.52-0.62 1.04-0.65 1.07-1.32 2.15-0.19 0.3-0.38 0.61-0.92 1.45-1.87 2.89-0.06 0.1-0.12 0.19-0.92 1.4-1.87 2.79-0.1 0.15-0.2 0.29c-4.48 6.59-9.24 13.06-13.33 19.35q-0.21 0.33-0.42 0.65-0.52 0.82-1.02 1.63-0.31 0.49-0.61 0.98-0.47 0.76-0.92 1.52-0.33 0.57-0.65 1.13-0.59 1.03-1.14 2.05-0.45 0.82-0.87 1.64-0.3 0.59-0.58 1.19-0.33 0.68-0.64 1.36-0.27 0.59-0.53 1.19-0.29 0.7-0.57 1.4-0.22 0.55-0.42 1.1-0.39 1.06-0.71 2.12-0.14 0.47-0.26 0.93-0.24 0.87-0.43 1.74-0.1 0.49-0.19 0.98-0.14 0.75-0.23 1.5-0.07 0.48-0.11 0.97-0.07 0.84-0.09 1.67-0.01 0.36-0.02 0.72 0.02 1.16 0.15 2.31 0.05 0.35 0.11 0.71 0.13 0.83 0.32 1.65 0.1 0.42 0.22 0.84 0.23 0.79 0.52 1.58 0.14 0.38 0.29 0.75 0.47 1.14 1.09 2.27 0.95 1.65 2.03 3.19 0.28 0.41 0.57 0.81 1.05 1.45 2.21 2.8 0.12 0.14 0.23 0.27 1.13 1.28 2.35 2.49 0.42 0.42 0.85 0.83 1.04 1 2.12 1.93 2.33 2.02 4.82 3.82 0.12 0.08 0.23 0.17 0.98 0.7 1.97 1.37 0.15 0.1 0.3 0.2 1.08 0.73 2.18 1.43 0.01 0.01 0.02 0.02 1.12 0.71 2.25 1.39 0.27 0.16 0.54 0.32 0.78 0.47 1.55 0.92 0.52 0.3 1.03 0.59 0.48 0.28 0.97 0.56 0.67 0.38 1.34 0.76 0.14 0.07 0.28 0.15c5.85 3.25 11.39 6.06 15.61 8.88q0.05 0.03 0.09 0.06 0.77 0.52 1.47 1.03 0.06 0.04 0.12 0.09 1.49 1.1 2.65 2.22 0.04 0.04 0.07 0.08 0.5 0.49 0.93 1 0.11 0.13 0.22 0.26 0.34 0.42 0.63 0.86 0.11 0.15 0.2 0.3 0.29 0.46 0.51 0.93 0.06 0.11 0.11 0.22 0.26 0.59 0.42 1.19 0.02 0.08 0.03 0.16 0.12 0.52 0.16 1.04 0.01 0.2 0.01 0.4 0 0.43-0.04 0.87-0.03 0.22-0.06 0.45-0.08 0.45-0.22 0.91z"/>
		</clipPath>
		<linearGradient id="g5" x1="94.9" y1="169.8" x2="84.8" y2="183.9" gradientUnits="userSpaceOnUse">
			<stop offset="0" stop-color="#ffffff"/>
			<stop offset="1" stop-color="#000000"/>
		</linearGradient>
		<linearGradient id="g6" x1="71.6" y1="187.3" x2="88.2" y2="181.7" gradientUnits="userSpaceOnUse">
			<stop offset="0" stop-color="#ffffff"/>
			<stop offset="1" stop-color="#000000"/>
		</linearGradient>
		<linearGradient id="g7" x1="237.6" y1="115.8" x2="276.5" y2="123.9" gradientUnits="userSpaceOnUse">
			<stop offset="0" stop-color="#ffffff"/>
			<stop offset="1" stop-color="#000000"/>
		</linearGradient>
		<linearGradient id="g8" x1="214.9" y1="131.7" x2="243.4" y2="159.4" gradientUnits="userSpaceOnUse">
			<stop offset="0" stop-color="#ffffff"/>
			<stop offset="1" stop-color="#000000"/>
		</linearGradient>
		<linearGradient id="g9" x1="262.2" y1="155.1" x2="227.9" y2="158.7" gradientUnits="userSpaceOnUse">
			<stop offset="0" stop-color="#ffffff"/>
			<stop offset="1" stop-color="#000000"/>
		</linearGradient>
		<linearGradient id="g10" x1="202.9" y1="150.8" x2="213.5" y2="163.5" gradientUnits="userSpaceOnUse">
			<stop offset="0" stop-color="#ffffff"/>
			<stop offset="1" stop-color="#000000"/>
		</linearGradient>
		<linearGradient id="g11" x1="218.4" y1="146.3" x2="236.2" y2="164.7" gradientUnits="userSpaceOnUse">
			<stop offset="0" stop-color="#ffffff"/>
			<stop offset="1" stop-color="#000000"/>
		</linearGradient>
		<linearGradient id="g12" x1="141" y1="126.5" x2="190.4" y2="126.5" gradientUnits="userSpaceOnUse">
			<stop offset="0" stop-color="#ffffff"/>
			<stop offset="1" stop-color="#000000"/>
		</linearGradient>
		<linearGradient id="g13" x1="211.7" y1="86.2" x2="227.9" y2="121.5" gradientUnits="userSpaceOnUse">
			<stop offset="0" stop-color="#ffffff"/>
			<stop offset="1" stop-color="#000000"/>
		</linearGradient>
		<linearGradient id="g14" x1="73.5" y1="92.5" x2="88.4" y2="92.5" gradientUnits="userSpaceOnUse">
			<stop offset="0" stop-color="#ffffff"/>
			<stop offset="1" stop-color="#000000"/>
		</linearGradient>
	</defs>
	<style>
		.s0 { fill: url(#g1) } 
		.s1 { opacity: .5;mix-blend-mode: overlay;fill: url(#g2) } 
		.s2 { opacity: .5;mix-blend-mode: overlay;fill: url(#g3) } 
		.s3 { opacity: .5;mix-blend-mode: overlay;fill: url(#g4) } 
		.s4 { fill: #ffffff } 
		.s5 { fill: #7035bb } 
		.s6 { fill: #ff4777 } 
		.s7 { mix-blend-mode: overlay;fill: url(#g5) } 
		.s8 { mix-blend-mode: overlay;fill: url(#g6) } 
		.s9 { fill: #f3effe } 
		.s10 { mix-blend-mode: overlay;fill: url(#g7) } 
		.s11 { mix-blend-mode: overlay;fill: url(#g8) } 
		.s12 { mix-blend-mode: overlay;fill: url(#g9) } 
		.s13 { fill: #fbd783 } 
		.s14 { fill: #36164d } 
		.s15 { fill: #400491 } 
		.s16 { opacity: .1;fill: #000000 } 
		.s17 { opacity: .5;mix-blend-mode: overlay;fill: url(#g10) } 
		.s18 { opacity: .5;mix-blend-mode: overlay;fill: url(#g11) } 
		.s19 { opacity: .5;mix-blend-mode: overlay;fill: url(#g12) } 
		.s20 { opacity: .5;mix-blend-mode: overlay;fill: url(#g13) } 
		.s21 { fill: #fc7a8e } 
		.s22 { mix-blend-mode: soft-light;fill: url(#g14) } 
		.s23 { fill: #d8255c } 
	</style>
	<g id="Layer 1">
		<g id="&lt;Group&gt;">
			<g id="Analysis Skills 2 ">
				<g id="&lt;Group&gt;">
					<g id="&lt;Group&gt;">
						<path id="&lt;Path&gt;" class="s0" d="m268.8 180.8c-7.4 14.7-29.5 5.1-72.2 32.8-42.6 27.7-175.3-6.3-140.9-29.4 34.6-23.4 30.6-36.1 16.5-52.9-6.5-7.7-15.2-16.4-23.2-27.3-7.4-10.2-10.8-20-11.2-28.6-1.5-27.7 26.8-45 49.3-35.4q2.7 1.1 5.3 2.8c23.8 15.6 39.9 2.8 67.3-26.4 6-6.4 13.9-10.4 22.7-12.5 31.3-7.5 73.1 10.1 73.1 36.5 0 7.4-2.5 14.8-6.2 22-13.2 26.1-42.2 50.9-30.5 71.6 2.8 5 6.6 9.2 10.8 12.8 18.5 15.7 45.9 20.7 39.2 34z"/>
						<path id="&lt;Path&gt;" class="s1" d="m268.8 180.8c-7.4 14.7-29.5 5.1-72.2 32.8-42.6 27.7-175.3-6.3-140.9-29.4 50.7-34.3 18.5-45.6-6.7-80.2-7.4-10.2-10.8-20-11.2-28.6 25.3-12.3 56.1-13 82-1.7 6.2 2.8 12.3 6.2 18.8 8.2 10.9 3.3 22.5 2.4 33.8 1.3 12.1-1.2 26.2-4 31.5-15 2.5-5.4 2.3-11.7 1.7-17.7-1-10.7-3-21.6-8.2-31.1-3.3-5.9-8-11.3-13.7-14.9q-0.5-0.3-1.3-0.6c31.3-7.5 73.1 10.1 73.1 36.5 0 33.8-51.7 67.1-36.7 93.6 14.9 26.5 58.2 30.5 50 46.8z"/>
						<path id="&lt;Path&gt;" class="s2" d="m268.8 180.8c-7.4 14.7-29.5 5.1-72.2 32.8-42.6 27.7-175.3-6.3-140.9-29.4 50.7-34.3 18.5-45.6-6.7-80.2-7.4-10.2-10.8-20-11.2-28.6-1.5-27.7 26.8-45 49.3-35.4-0.6 16.5 2.2 32.8 9 47.5 3.9 8.3 8.9 15.9 14.9 22.3 19.2 20.3 48 27.8 72.7 18.7 6.9-2.5 13.8-6.5 18.2-13.2 3.3-5.1 5-11.3 7.4-17.1 7.5-18.2 22.8-31.8 40-35.8-13.2 26.1-42.2 50.9-30.5 71.6 14.9 26.5 58.2 30.5 50 46.8z"/>
						<path id="&lt;Path&gt;" class="s3" d="m268.8 180.8c-7.4 14.7-29.5 5.1-72.2 32.8-42.6 27.7-175.3-6.3-140.9-29.4 34.6-23.4 30.6-36.1 16.5-52.9q2.8-1.6 5.9-2.6c10.7-3.7 23.4-1.8 31.8 5.8 10.3 9.4 12.9 25.6 24.3 33.6 4.9 3.4 10.8 4.9 16.7 5.7 19.8 2.7 40.5-1.7 57.5-12.3 7.1-4.5 14-10.1 21.2-14.7 18.5 15.7 45.9 20.7 39.2 34z"/>
					</g>
					<g id="&lt;Clip Group&gt;" clip-path="url(#cp1)">
						<g id="&lt;Group&gt;" style="opacity: .6;mix-blend-mode: overlay">
							<g id="&lt;Group&gt;">
								<g id="&lt;Group&gt;">
									<path id="&lt;Compound Path&gt;" fill-rule="evenodd" class="s4" d="m147 117.5l0.7-5.9 4.9-7-0.6 6zm1-5.8l-0.5 4.4 4.1-5.7 0.5-4.4z"/>
								</g>
							</g>
							<g id="&lt;Group&gt;">
								<g id="&lt;Group&gt;">
									<path id="&lt;Compound Path&gt;" fill-rule="evenodd" class="s4" d="m146.5 117.9l1.2-6.5 5.4-7.2-1.1 6.5zm1.5-6.3l-0.9 4.8 4.5-5.9 0.8-4.8z"/>
								</g>
							</g>
							<g id="&lt;Group&gt;">
								<g id="&lt;Group&gt;">
									<path id="&lt;Compound Path&gt;" fill-rule="evenodd" class="s4" d="m146 118.3l1.7-7 5.9-7.5-1.6 7.1zm2-6.9l-1.3 5.3 4.9-6.1 1.2-5.2z"/>
								</g>
							</g>
							<g id="&lt;Group&gt;">
								<g id="&lt;Group&gt;">
									<path id="&lt;Compound Path&gt;" fill-rule="evenodd" class="s4" d="m145.5 118.7l2.2-7.6 6.5-7.7-2.3 7.6zm2.6-7.3l-1.7 5.7 5.3-6.3 1.6-5.7z"/>
								</g>
							</g>
							<g id="&lt;Group&gt;">
								<g id="&lt;Group&gt;">
									<path id="&lt;Compound Path&gt;" fill-rule="evenodd" class="s4" d="m144.9 119.1l2.9-8.1 6.9-7.9-2.8 8.1zm3.1-7.9l-2.1 6.2 5.6-6.4 2.2-6.2z"/>
								</g>
							</g>
							<g id="&lt;Group&gt;">
								<g id="&lt;Group&gt;">
									<path id="&lt;Compound Path&gt;" fill-rule="evenodd" class="s4" d="m144.4 119.5l3.4-8.7 7.5-8.1-3.4 8.7zm3.7-8.5l-2.6 6.7 6-6.5 2.7-6.7z"/>
								</g>
							</g>
							<g id="&lt;Group&gt;">
								<g id="&lt;Group&gt;">
									<path id="&lt;Compound Path&gt;" fill-rule="evenodd" class="s4" d="m143.8 119.8l4.1-9.2 8-8.2-4.1 9.2zm4.4-9l-3.2 7.2 6.5-6.6 3.1-7.3z"/>
								</g>
							</g>
							<g id="&lt;Group&gt;">
								<g id="&lt;Group&gt;">
									<path id="&lt;Compound Path&gt;" fill-rule="evenodd" class="s4" d="m143.2 120.1l4.7-9.8 8.5-8.3-4.7 9.8zm5-9.5l-3.7 7.7 6.9-6.7 3.8-7.8z"/>
								</g>
							</g>
							<g id="&lt;Group&gt;">
								<g id="&lt;Group&gt;">
									<path id="&lt;Compound Path&gt;" fill-rule="evenodd" class="s4" d="m142.6 120.4l5.4-10.3 9-8.4-5.4 10.4zm5.7-10.1l-4.3 8.2 7.3-6.8 4.4-8.2z"/>
								</g>
							</g>
							<g id="&lt;Group&gt;">
								<g id="&lt;Group&gt;">
									<path id="&lt;Compound Path&gt;" fill-rule="evenodd" class="s4" d="m142 120.7l6.2-10.8 9.5-8.4-6.2 10.8zm6.4-10.6l-4.9 8.8 7.7-6.8 5-8.8z"/>
								</g>
							</g>
							<g id="&lt;Group&gt;">
								<g id="&lt;Group&gt;">
									<path id="&lt;Compound Path&gt;" fill-rule="evenodd" class="s4" d="m141.4 120.9l6.9-11.3 10-8.4-6.9 11.4zm7.1-11.1l-5.6 9.3 8.2-6.8 5.6-9.3z"/>
								</g>
							</g>
							<g id="&lt;Group&gt;">
								<g id="&lt;Group&gt;">
									<path id="&lt;Compound Path&gt;" fill-rule="evenodd" class="s4" d="m140.8 121.1l7.6-11.8 10.5-8.3-7.7 11.9zm7.9-11.6l-6.3 9.8 8.6-6.8 6.3-9.8z"/>
								</g>
							</g>
							<g id="&lt;Group&gt;">
								<g id="&lt;Group&gt;">
									<path id="&lt;Compound Path&gt;" fill-rule="evenodd" class="s4" d="m140.2 121.3l8.4-12.3 10.9-8.1-8.5 12.3zm8.7-12l-7 10.3 9-6.7 7-10.3z"/>
								</g>
							</g>
							<g id="&lt;Group&gt;">
								<g id="&lt;Group&gt;">
									<path id="&lt;Compound Path&gt;" fill-rule="evenodd" class="s4" d="m139.6 121.4l9.2-12.7 11.3-7.9-9.3 12.7zm9.6-12.4l-7.9 10.8 9.4-6.6 7.8-10.8z"/>
								</g>
							</g>
							<g id="&lt;Group&gt;">
								<g id="&lt;Group&gt;">
									<path id="&lt;Compound Path&gt;" fill-rule="evenodd" class="s4" d="m139 121.5l10-13.1 11.7-7.7-10.1 13.1zm10.3-12.8l-8.6 11.3 9.8-6.4 8.6-11.3z"/>
								</g>
							</g>
							<g id="&lt;Group&gt;">
								<g id="&lt;Group&gt;">
									<path id="&lt;Compound Path&gt;" fill-rule="evenodd" class="s4" d="m138.4 121.5l10.9-13.5 12-7.3-10.9 13.5zm11.1-13.2l-9.4 11.7 10.1-6.1 9.4-11.7z"/>
								</g>
							</g>
							<g id="&lt;Group&gt;">
								<g id="&lt;Group&gt;">
									<path id="&lt;Compound Path&gt;" fill-rule="evenodd" class="s4" d="m137.8 121.4l11.7-13.8 12.4-6.8-11.8 13.7zm12-13.4l-10.3 12 10.4-5.8 10.3-12.1z"/>
								</g>
							</g>
							<g id="&lt;Group&gt;">
								<g id="&lt;Group&gt;">
									<path id="&lt;Compound Path&gt;" fill-rule="evenodd" class="s4" d="m137.2 121.3l12.6-14 12.6-6.4-12.6 14zm12.8-13.7l-11.1 12.4 10.7-5.4 11.1-12.5z"/>
								</g>
							</g>
							<g id="&lt;Group&gt;">
								<g id="&lt;Group&gt;">
									<path id="&lt;Compound Path&gt;" fill-rule="evenodd" class="s4" d="m136.7 121.1l13.4-14.2 12.8-5.9-13.4 14.3zm13.6-13.9l-12 12.7 11-5 12-12.8z"/>
								</g>
							</g>
							<g id="&lt;Group&gt;">
								<g id="&lt;Group&gt;">
									<path id="&lt;Compound Path&gt;" fill-rule="evenodd" class="s4" d="m136.2 120.9l14.3-14.4 12.9-5.2-14.2 14.4zm14.4-14.1l-12.8 13 11.1-4.5 12.9-13z"/>
								</g>
							</g>
							<g id="&lt;Group&gt;">
								<g id="&lt;Group&gt;">
									<path id="&lt;Compound Path&gt;" fill-rule="evenodd" class="s4" d="m135.7 120.6l15.2-14.5 13-4.5-15.1 14.5zm15.3-14.2l-13.8 13.2 11.4-3.9 13.7-13.2z"/>
								</g>
							</g>
							<g id="&lt;Group&gt;">
								<g id="&lt;Group&gt;">
									<path id="&lt;Compound Path&gt;" fill-rule="evenodd" class="s4" d="m135.3 120.2l16-14.5 13-3.7-15.9 14.5zm16.1-14.2l-14.6 13.4 11.4-3.3 14.7-13.4z"/>
								</g>
							</g>
							<g id="&lt;Group&gt;">
								<g id="&lt;Group&gt;">
									<path id="&lt;Compound Path&gt;" fill-rule="evenodd" class="s4" d="m134.9 119.8l16.8-14.5 13-2.9-16.7 14.5zm16.9-14.1l-15.5 13.4 11.5-2.5 15.5-13.4z"/>
								</g>
							</g>
							<g id="&lt;Group&gt;">
								<g id="&lt;Group&gt;">
									<path id="&lt;Compound Path&gt;" fill-rule="evenodd" class="s4" d="m134.6 119.2l17.5-14.4 13-1.8-17.5 14.3h-0.1zm17.7-14l-16.4 13.5 11.6-1.7 16.3-13.4z"/>
								</g>
							</g>
							<g id="&lt;Group&gt;">
								<g id="&lt;Group&gt;">
									<path id="&lt;Compound Path&gt;" fill-rule="evenodd" class="s4" d="m134.3 118.6l0.5-0.4 17.7-13.8 12.9-0.8-0.5 0.4-17.8 13.8zm18.4-13.8l-17.2 13.3 11.5-0.7 17.1-13.4z"/>
								</g>
							</g>
							<g id="&lt;Group&gt;">
								<g id="&lt;Group&gt;">
									<path id="&lt;Compound Path&gt;" fill-rule="evenodd" class="s4" d="m146.6 118.2h-0.1l-12.4-0.3 0.4-0.4 18.5-13.5h0.1l12.5 0.3-0.5 0.3zm-11.4-0.6l11.3 0.3 18-13.2-11.3-0.3z"/>
								</g>
							</g>
							<g id="&lt;Group&gt;">
								<g id="&lt;Group&gt;">
									<path id="&lt;Compound Path&gt;" fill-rule="evenodd" class="s4" d="m146.1 118.6h-0.1l-12.1-1.6 19.7-13.4 12.1 1.5zm-11.1-1.8l11 1.4 18.8-12.8-11.1-1.4z"/>
								</g>
							</g>
							<g id="&lt;Group&gt;">
								<g id="&lt;Group&gt;">
									<path id="&lt;Compound Path&gt;" fill-rule="evenodd" class="s4" d="m145.5 119l-11.7-2.9 20.3-13 11.7 2.9zm-10.7-3l10.7 2.6 19.4-12.4-10.7-2.6z"/>
								</g>
							</g>
							<g id="&lt;Group&gt;">
								<g id="&lt;Group&gt;">
									<path id="&lt;Compound Path&gt;" fill-rule="evenodd" class="s4" d="m145 119.4l-11.2-4.3 0.3-0.2 20.6-12.2 11.2 4.4zm-10.3-4.5l10.2 4 20.1-11.8-10.3-4z"/>
								</g>
							</g>
							<g id="&lt;Group&gt;">
								<g id="&lt;Group&gt;">
									<path id="&lt;Compound Path&gt;" fill-rule="evenodd" class="s4" d="m144.4 119.9l-0.1-0.1-10.4-5.8 21.4-11.7 0.1 0.1 10.4 5.8zm-9.7-5.9l9.7 5.4 20.6-11.2-9.7-5.4z"/>
								</g>
							</g>
							<g id="&lt;Group&gt;">
								<g id="&lt;Group&gt;">
									<path id="&lt;Compound Path&gt;" fill-rule="evenodd" class="s4" d="m143.7 120.2l-9.7-7.5 21.9-10.8 9.7 7.5zm-9-7.4l9.1 7 21.1-10.5-9-6.9z"/>
								</g>
							</g>
							<g id="&lt;Group&gt;">
								<g id="&lt;Group&gt;">
									<path id="&lt;Compound Path&gt;" fill-rule="evenodd" class="s4" d="m143.1 120.6l-0.1-0.1-8.7-9.1 0.2-0.1 22.1-9.7 0.1 0.1 8.7 9.1-0.3 0.1zm-8.1-9.1l8.2 8.6 21.6-9.5-8.3-8.6z"/>
								</g>
							</g>
							<g id="&lt;Group&gt;">
								<g id="&lt;Group&gt;">
									<path id="&lt;Compound Path&gt;" fill-rule="evenodd" class="s4" d="m142.4 121l-0.1-0.2-7.7-10.9 22.6-8.7 0.1 0.1 7.7 10.9zm-7.2-10.8l7.4 10.4 21.9-8.5-7.4-10.4z"/>
								</g>
							</g>
							<g id="&lt;Group&gt;">
								<g id="&lt;Group&gt;">
									<path id="&lt;Compound Path&gt;" fill-rule="evenodd" class="s4" d="m141.7 121.3l-6.6-12.9 0.2-0.1 22.6-7.4 6.7 12.9-0.2 0.1zm-6.2-12.7l6.4 12.2 22-7.2-6.3-12.3z"/>
								</g>
							</g>
							<g id="&lt;Group&gt;">
								<g id="&lt;Group&gt;">
									<path id="&lt;Compound Path&gt;" fill-rule="evenodd" class="s4" d="m141.1 121.6l-5.4-14.9 0.2-0.1 22.7-6 5.4 14.9-0.2 0.1zm-4.9-14.7l5.1 14.2 22.2-5.9-5.1-14.2z"/>
								</g>
							</g>
							<g id="&lt;Group&gt;">
								<g id="&lt;Group&gt;">
									<path id="&lt;Compound Path&gt;" fill-rule="evenodd" class="s4" d="m140.4 121.8l-0.1-0.2-3.9-16.8 22.9-4.5v0.2l4 16.8zm-3.5-16.7l3.8 16.3 22.1-4.4-3.8-16.2z"/>
								</g>
							</g>
							<g id="&lt;Group&gt;">
								<g id="&lt;Group&gt;">
									<path id="&lt;Compound Path&gt;" fill-rule="evenodd" class="s4" d="m139.7 122l-2.5-19.1 22.8-2.8 2.4 19.2zm-2-18.8l2.4 18.3 22-2.6-2.4-18.4z"/>
								</g>
							</g>
							<g id="&lt;Group&gt;">
								<g id="&lt;Group&gt;">
									<path id="&lt;Compound Path&gt;" fill-rule="evenodd" class="s4" d="m139 122.2l-0.1-0.2-0.7-21.2h0.2l22.3-0.8v0.2l0.7 21.2h-0.1zm-0.4-21.1l0.7 20.7 21.8-0.9-0.8-20.6z"/>
								</g>
							</g>
							<g id="&lt;Group&gt;">
								<g id="&lt;Group&gt;">
									<path id="&lt;Compound Path&gt;" fill-rule="evenodd" class="s4" d="m160.3 123.6l-0.2-0.1-21.8-1.2v-0.2l1.1-23.5h0.1l21.9 1.3v0.1zm-21.7-1.6l21.3 1.2 1.1-22.9-21.3-1.2z"/>
								</g>
							</g>
							<g id="&lt;Group&gt;">
								<g id="&lt;Group&gt;">
									<path id="&lt;Compound Path&gt;" fill-rule="evenodd" class="s4" d="m159 125.9l-21.4-3.5v-0.2l3.1-25.9 21.4 3.5v0.2zm-21-3.9l20.6 3.4 3-25.3-20.6-3.4z"/>
								</g>
							</g>
							<g id="&lt;Group&gt;">
								<g id="&lt;Group&gt;">
									<path id="&lt;Compound Path&gt;" fill-rule="evenodd" class="s4" d="m157.5 128.3h-0.2l-20.4-5.9 5.2-28.6 0.2 0.1 20.5 5.9zm-20.2-6.2l19.9 5.7 5.1-27.8-19.9-5.7z"/>
								</g>
							</g>
							<g id="&lt;Group&gt;">
								<g id="&lt;Group&gt;">
									<path id="&lt;Compound Path&gt;" fill-rule="evenodd" class="s4" d="m155.9 130.9l-19.7-8.6 0.1-0.2 7.5-30.8 19.6 8.6v0.1zm-19.2-8.8l18.9 8.3 7.4-30.3-19-8.3z"/>
								</g>
							</g>
							<g id="&lt;Group&gt;">
								<g id="&lt;Group&gt;">
									<path id="&lt;Compound Path&gt;" fill-rule="evenodd" class="s4" d="m154.1 133.6l-18.5-11.4 10-33.6 18.5 11.4zm-18-11.6l17.7 11 9.8-32.8-17.8-11z"/>
								</g>
							</g>
							<g id="&lt;Group&gt;">
								<g id="&lt;Group&gt;">
									<path id="&lt;Compound Path&gt;" fill-rule="evenodd" class="s4" d="m152 136.4l-0.2-0.2-16.8-14.2 12.6-36.2 0.2 0.1 16.9 14.3zm-16.6-14.6l16.4 14 12.4-35.5-16.5-13.9z"/>
								</g>
							</g>
							<g id="&lt;Group&gt;">
								<g id="&lt;Group&gt;">
									<path id="&lt;Compound Path&gt;" fill-rule="evenodd" class="s4" d="m149.8 139.3l-15.4-17.6 15.4-38.8 15.5 17.6zm-15-17.7l14.8 17 15.1-38.1-14.8-16.9z"/>
								</g>
							</g>
							<g id="&lt;Group&gt;">
								<g id="&lt;Group&gt;">
									<path id="&lt;Compound Path&gt;" fill-rule="evenodd" class="s4" d="m147.4 142.3l-0.2-0.3-13.3-20.7v-0.1l18.3-41.4 0.2 0.3 13.4 20.8v0.1zm-13.2-21.1l13.1 20.2 18-40.6-13.1-20.2z"/>
								</g>
							</g>
							<g id="&lt;Group&gt;">
								<g id="&lt;Group&gt;">
									<path id="&lt;Compound Path&gt;" fill-rule="evenodd" class="s4" d="m144.8 145.4l-0.2-0.3-11.2-24.2v-0.1l21.5-44.1 0.1 0.4 11.3 24.2v0.1zm-11.1-24.6l11.1 23.7 21-43.2-11-23.7z"/>
								</g>
							</g>
							<g id="&lt;Group&gt;">
								<g id="&lt;Group&gt;">
									<path id="&lt;Compound Path&gt;" fill-rule="evenodd" class="s4" d="m142 148.6l-9.1-28.3v-0.1l24.8-46.6 9 28.3zm-8.6-28.2l8.7 27.2 24.3-45.8-8.8-27.2z"/>
								</g>
							</g>
							<g id="&lt;Group&gt;">
								<g id="&lt;Group&gt;">
									<path id="&lt;Compound Path&gt;" fill-rule="evenodd" class="s4" d="m139 151.9l-0.1-0.5-6.4-31.7v-0.1l28.2-49.3 0.1 0.5 6.3 31.7v0.1zm-6-32.2l6.2 31.1 27.6-48.4-6.2-31z"/>
								</g>
							</g>
							<g id="&lt;Group&gt;">
								<g id="&lt;Group&gt;">
									<path id="&lt;Compound Path&gt;" fill-rule="evenodd" class="s4" d="m135.7 155.2l-3.5-36.3 31.7-51.9 3.6 36.3h-0.1zm-3.1-36.2l3.4 35 31.1-50.8-3.4-35z"/>
								</g>
							</g>
							<g id="&lt;Group&gt;">
								<g id="&lt;Group&gt;">
									<path id="&lt;Compound Path&gt;" fill-rule="evenodd" class="s4" d="m132.3 158.5l-0.4-40.4 0.1-0.1 35.4-54.3 0.3 40.4v0.1zm0-40.4l0.4 39.1 34.7-53.3-0.4-39z"/>
								</g>
							</g>
							<g id="&lt;Group&gt;">
								<g id="&lt;Group&gt;">
									<path id="&lt;Compound Path&gt;" fill-rule="evenodd" class="s4" d="m128.6 161.9l3.1-44.8 0.1-0.1 39.2-56.7-3.1 44.8zm3.5-44.6l-3 43.3 38.4-55.6 3-43.3z"/>
								</g>
							</g>
							<g id="&lt;Group&gt;">
								<g id="&lt;Group&gt;">
									<path id="&lt;Compound Path&gt;" fill-rule="evenodd" class="s4" d="m124.8 165.3l6.9-49.3 43.2-59.1-6.9 49.3zm7.2-49.1l-6.6 47.7 42.2-57.8 6.7-47.7z"/>
								</g>
							</g>
							<g id="&lt;Group&gt;">
								<g id="&lt;Group&gt;">
									<path id="&lt;Compound Path&gt;" fill-rule="evenodd" class="s4" d="m120.7 168.6l11-53.9 47.2-61.1-10.9 53.8zm11.2-53.6l-10.5 52.1 46.2-59.8 10.6-52.2z"/>
								</g>
							</g>
							<g id="&lt;Group&gt;">
								<g id="&lt;Group&gt;">
									<path id="&lt;Compound Path&gt;" fill-rule="evenodd" class="s4" d="m116.5 171.9l0.2-0.8 15.1-57.7 51.3-63.2-0.2 0.9-15 57.7zm15.6-58.3l-14.8 56.7 50.2-61.8 14.8-56.7z"/>
								</g>
							</g>
							<g id="&lt;Group&gt;">
								<g id="&lt;Group&gt;">
									<path id="&lt;Compound Path&gt;" fill-rule="evenodd" class="s4" d="m112.1 175.2l0.3-0.9 19.6-62.4 55.6-64.9-0.3 0.9-19.6 62.4zm20.2-63.1l-19.3 61.4 54.3-63.5 19.3-61.4z"/>
								</g>
							</g>
							<g id="&lt;Group&gt;">
								<g id="&lt;Group&gt;">
									<path id="&lt;Compound Path&gt;" fill-rule="evenodd" class="s4" d="m107.5 178.4l24.8-68.1 59.9-66.5-24.9 68.1zm25.2-67.9l-24.1 66.1 58.5-64.9 24-66.2z"/>
								</g>
							</g>
							<g id="&lt;Group&gt;">
								<g id="&lt;Group&gt;">
									<path id="&lt;Compound Path&gt;" fill-rule="evenodd" class="s4" d="m102.8 181.4l0.3-0.9 29.7-72 64.1-67.8-0.4 1-29.6 71.9zm30.3-72.6l-29.2 70.9 62.7-66.3 29.2-70.9z"/>
								</g>
							</g>
							<g id="&lt;Group&gt;">
								<g id="&lt;Group&gt;">
									<path id="&lt;Compound Path&gt;" fill-rule="evenodd" class="s4" d="m97.9 184.4l0.4-1 35.1-76.8 68.4-68.8-0.4 1-35.1 76.7zm35.8-77.5l-34.6 75.7 66.9-67.3 34.6-75.6z"/>
								</g>
							</g>
							<g id="&lt;Group&gt;">
								<g id="&lt;Group&gt;">
									<path id="&lt;Compound Path&gt;" fill-rule="evenodd" class="s4" d="m92.8 187.1l0.5-1 40.8-81.5 72.7-69.6-0.5 1-40.8 81.6zm41.6-82.3l-40.2 80.5 71-68.1 40.3-80.4z"/>
								</g>
							</g>
							<g id="&lt;Group&gt;">
								<g id="&lt;Group&gt;">
									<path id="&lt;Compound Path&gt;" fill-rule="evenodd" class="s4" d="m87.7 189.7l0.5-1 46.8-86.3 77-69.9-47.4 87.3zm47.7-87.1l-46.3 85.2 75.3-68.4 46.2-85.2z"/>
								</g>
							</g>
							<g id="&lt;Group&gt;">
								<g id="&lt;Group&gt;">
									<path id="&lt;Compound Path&gt;" fill-rule="evenodd" class="s4" d="m82.4 192.1l0.6-1 53.1-91 81.1-70-0.6 1-53.1 91zm54-91.7l-52.5 89.9 79.4-68.4 52.4-90z"/>
								</g>
							</g>
							<g id="&lt;Group&gt;">
								<g id="&lt;Group&gt;">
									<path id="&lt;Compound Path&gt;" fill-rule="evenodd" class="s4" d="m77.1 194.2l0.6-1 59.7-95.6 85.1-69.6-0.6 1-59.6 95.6zm60.5-96.3l-59 94.5 83.4-68.1 58.9-94.5z"/>
								</g>
							</g>
							<g id="&lt;Group&gt;">
								<g id="&lt;Group&gt;">
									<path id="&lt;Compound Path&gt;" fill-rule="evenodd" class="s4" d="m71.7 195.9l0.7-0.9 66.4-100 89.1-68.8-0.6 1-66.4 100zm67.3-100.7l-65.7 99 87.2-67.3 65.7-99z"/>
								</g>
							</g>
							<g id="&lt;Group&gt;">
								<g id="&lt;Group&gt;">
									<path id="&lt;Compound Path&gt;" fill-rule="evenodd" class="s4" d="m66.4 197.4l0.6-0.9 73.4-104.3 92.9-67.4-0.7 0.9-73.4 104.3zm74.4-105l-72.7 103.3 91-66.1 72.6-103.2z"/>
								</g>
							</g>
							<g id="&lt;Group&gt;">
								<g id="&lt;Group&gt;">
									<path id="&lt;Compound Path&gt;" fill-rule="evenodd" class="s4" d="m61 198.5l81.2-109.2 96.5-65.6-81.3 109.2zm81.5-108.9l-79.8 107.3 94.5-64.4 79.9-107.3z"/>
								</g>
							</g>
							<g id="&lt;Group&gt;">
								<g id="&lt;Group&gt;">
									<path id="&lt;Compound Path&gt;" fill-rule="evenodd" class="s4" d="m55.6 199.2l0.7-0.9 88-112 99.7-63.3-0.7 0.8-87.9 112.1zm88.9-112.6l-87.2 111.1 97.8-62.1 87.2-111.1z"/>
								</g>
							</g>
							<g id="&lt;Group&gt;">
								<g id="&lt;Group&gt;">
									<path id="&lt;Compound Path&gt;" fill-rule="evenodd" class="s4" d="m50.3 199.5l0.7-0.9 95.5-115.5 102.8-60.4-0.7 0.9-95.5 115.5zm96.4-116.1l-94.7 114.6 100.9-59.2 94.7-114.6z"/>
								</g>
							</g>
							<g id="&lt;Group&gt;">
								<g id="&lt;Group&gt;">
									<path id="&lt;Compound Path&gt;" fill-rule="evenodd" class="s4" d="m45.2 199.2l103.8-119.4 105.5-56.8-0.7 0.7-103.1 118.7zm104-119.1l-102.3 117.7 103.6-55.8 102.4-117.8z"/>
								</g>
							</g>
							<g id="&lt;Group&gt;">
								<g id="&lt;Group&gt;">
									<path id="&lt;Compound Path&gt;" fill-rule="evenodd" class="s4" d="m40.1 198.5l0.7-0.8 110.9-121.3 107.8-52.7-0.6 0.8-110.9 121.3zm111.7-121.8l-110 120.5 106-51.8 110.1-120.4z"/>
								</g>
							</g>
							<g id="&lt;Group&gt;">
								<g id="&lt;Group&gt;">
									<path id="&lt;Compound Path&gt;" fill-rule="evenodd" class="s4" d="m35.3 197.1l0.6-0.7 118.6-123.5h0.1l109.8-47.9-0.7 0.7-118.6 123.6zm119.5-123.9l-117.9 122.8 108-47.1 117.9-122.8z"/>
								</g>
							</g>
							<g id="&lt;Group&gt;">
								<g id="&lt;Group&gt;">
									<path id="&lt;Compound Path&gt;" fill-rule="evenodd" class="s4" d="m30.6 195.2l127.1-125.9 111.3-42.3-0.6 0.6-126.4 125.3h-0.1zm127.3-125.6l-125.7 124.6 109.6-41.7 125.7-124.5z"/>
								</g>
							</g>
							<g id="&lt;Group&gt;">
								<g id="&lt;Group&gt;">
									<path id="&lt;Compound Path&gt;" fill-rule="evenodd" class="s4" d="m26.3 192.6l0.6-0.6 134.1-126.4h0.1l112.3-36-0.7 0.6-134.1 126.3v0.1zm134.9-126.7l-133.4 125.8 110.6-35.5 133.4-125.8z"/>
								</g>
							</g>
							<g id="&lt;Group&gt;">
								<g id="&lt;Group&gt;">
									<path id="&lt;Compound Path&gt;" fill-rule="evenodd" class="s4" d="m22.3 189.3l0.6-0.5 141.8-126.9 112.7-29-0.6 0.5-141.8 126.9zm142.5-127.1l-141.1 126.3 111.1-28.6 141.1-126.3z"/>
								</g>
							</g>
							<g id="&lt;Group&gt;">
								<g id="&lt;Group&gt;">
									<path id="&lt;Compound Path&gt;" fill-rule="evenodd" class="s4" d="m18.6 185.3l0.6-0.5 149.3-126.7h0.1l112.4-21.2-0.5 0.5-149.3 126.7h-0.1zm150.1-126.8l-148.7 126.2 111-20.9 148.7-126.2z"/>
								</g>
							</g>
							<g id="&lt;Group&gt;">
								<g id="&lt;Group&gt;">
									<path id="&lt;Compound Path&gt;" fill-rule="evenodd" class="s4" d="m15.4 180.5l0.5-0.4 156.7-125.9 111.7-12.5-0.6 0.4-156.6 125.8h-0.1zm157.4-125.8l-156.1 125.3 110.2-12.4 156.1-125.3z"/>
								</g>
							</g>
							<g id="&lt;Group&gt;">
								<g id="&lt;Group&gt;">
									<path id="&lt;Compound Path&gt;" fill-rule="evenodd" class="s4" d="m12.7 174.8l0.4-0.3 163.8-124.1h0.1l110-3.1-0.5 0.4-163.7 124.1h-0.1zm164.4-124.1l-163.2 123.7 108.8-3.1 163.1-123.6z"/>
								</g>
							</g>
							<g id="&lt;Group&gt;">
								<g id="&lt;Group&gt;">
									<path id="&lt;Compound Path&gt;" fill-rule="evenodd" class="s4" d="m118.2 175.6h-0.1l-107.6-7.2 171-121.8 107.7 7.2zm-106.6-7.6l106.5 7.2 170-121.1-106.5-7.2z"/>
								</g>
							</g>
							<g id="&lt;Group&gt;">
								<g id="&lt;Group&gt;">
									<path id="&lt;Compound Path&gt;" fill-rule="evenodd" class="s4" d="m113.4 179.4l-104.5-18.4 0.4-0.3 176.9-118 0.1 0.1 104.5 18.4-0.4 0.3zm-103.6-18.7l103.5 18.3 176.4-117.6-103.4-18.3z"/>
								</g>
							</g>
							<g id="&lt;Group&gt;">
								<g id="&lt;Group&gt;">
									<path id="&lt;Compound Path&gt;" fill-rule="evenodd" class="s4" d="m108.4 183.2l-100.5-30.6 0.4-0.2 182.9-113.4h0.1l100.4 30.5-0.3 0.3zm-99.6-30.7l99.5 30.2 182.4-113.1-99.5-30.2z"/>
								</g>
							</g>
							<g id="&lt;Group&gt;">
								<g id="&lt;Group&gt;">
									<path id="&lt;Compound Path&gt;" fill-rule="evenodd" class="s4" d="m103.3 186.9l-0.1-0.1-95.5-43.5 0.4-0.2 188.3-107.8h0.1l95.4 43.5-0.3 0.2zm-94.7-43.6l94.7 43.2 187.8-107.6-94.6-43.1z"/>
								</g>
							</g>
							<g id="&lt;Group&gt;">
								<g id="&lt;Group&gt;">
									<path id="&lt;Compound Path&gt;" fill-rule="evenodd" class="s4" d="m97.9 190.4h-0.1l-89.5-57.4 0.3-0.1 193.2-101.2 0.1 0.1 89.4 57.4-0.3 0.1zm-88.7-57.4l88.8 57 192.6-100.9-88.8-57z"/>
								</g>
							</g>
							<g id="&lt;Group&gt;">
								<g id="&lt;Group&gt;">
									<path id="&lt;Compound Path&gt;" fill-rule="evenodd" class="s4" d="m92.3 193.9l-0.1-0.1-82.4-72.1 0.2-0.2 197.4-93.2 0.1 0.1 82.4 72.1-0.3 0.1zm-81.8-72.1l81.9 71.7 196.8-93-81.9-71.7z"/>
								</g>
							</g>
							<g id="&lt;Group&gt;">
								<g id="&lt;Group&gt;">
									<path id="&lt;Compound Path&gt;" fill-rule="evenodd" class="s4" d="m86.6 197.1l-0.1-0.1-74.3-87.8 0.2-0.1 200.7-84.1 0.1 0.1 74.3 87.8-0.2 0.1zm-73.8-87.7l73.9 87.3 200.2-83.9-73.9-87.3z"/>
								</g>
							</g>
							<g id="&lt;Group&gt;">
								<g id="&lt;Group&gt;">
									<path id="&lt;Compound Path&gt;" fill-rule="evenodd" class="s4" d="m80.7 200.2l-0.1-0.1-65.1-104.4 0.3-0.1 203.2-73.6 0.1 0.1 65 104.4h-0.2zm-64.6-104.2l64.8 103.8 202.6-73.5-64.7-103.8z"/>
								</g>
							</g>
							<g id="&lt;Group&gt;">
								<g id="&lt;Group&gt;">
									<path id="&lt;Compound Path&gt;" fill-rule="evenodd" class="s4" d="m74.7 203l-0.1-0.2-54.6-121.7 0.2-0.1 204.8-61.8 54.7 121.9h-0.3zm-54.1-121.6l54.4 121.2 204.2-61.7-54.4-121.2z"/>
								</g>
							</g>
							<g id="&lt;Group&gt;">
								<g id="&lt;Group&gt;">
									<path id="&lt;Compound Path&gt;" fill-rule="evenodd" class="s4" d="m68.6 205.5l-0.1-0.2-42.9-140 205.5-48.6v0.1l43 140zm-42.5-139.9l42.7 139.5 204.8-48.5-42.8-139.5z"/>
								</g>
							</g>
							<g id="&lt;Group&gt;">
								<g id="&lt;Group&gt;">
									<path id="&lt;Compound Path&gt;" fill-rule="evenodd" class="s4" d="m62.4 207.7v-0.2l-30-159.1h0.2l204.7-34v0.2l29.9 159.1-0.1 0.1zm-29.6-159l29.9 158.5 204.1-33.8-29.9-158.5z"/>
								</g>
							</g>
							<g id="&lt;Group&gt;">
								<g id="&lt;Group&gt;">
									<path id="&lt;Compound Path&gt;" fill-rule="evenodd" class="s4" d="m56.2 209.6v-0.2l-15.7-179h0.2l202.8-17.8v0.2l15.7 179h-0.2zm-15.3-178.8l15.6 178.4 202.2-17.7-15.6-178.4z"/>
								</g>
							</g>
							<g id="&lt;Group&gt;">
								<g id="&lt;Group&gt;">
									<path id="&lt;Compound Path&gt;" fill-rule="evenodd" class="s4" d="m49.9 11.2h199.8v199.8h-199.8zm0.4 199.4h199v-199h-199z"/>
								</g>
							</g>
						</g>
					</g>
					<g id="&lt;Group&gt;">
						<g id="&lt;Group&gt;">
							<path id="&lt;Compound Path&gt;" fill-rule="evenodd" class="s5" d="m133.1 19.2c-3 0-5.4-2.5-5.4-5.5 0-3 2.4-5.4 5.4-5.4 3 0 5.5 2.4 5.5 5.4 0 3-2.5 5.5-5.5 5.5zm3.5-5.5c0-1.9-1.6-3.4-3.5-3.4-1.9 0-3.4 1.5-3.4 3.4 0 1.9 1.5 3.5 3.4 3.5 1.9 0 3.5-1.6 3.5-3.5z"/>
						</g>
						<g id="&lt;Group&gt;">
							<path id="&lt;Path&gt;" class="s6" d="m144.7 14.7h-11.6c-0.5 0-1-0.4-1-1 0-0.5 0.5-1 1-1h11.6c0.6 0 1 0.5 1 1 0 0.6-0.4 1-1 1z"/>
						</g>
						<g id="&lt;Group&gt;">
							<path id="&lt;Path&gt;" class="s6" d="m151.5 9.9h-11.6c-0.5 0-1-0.4-1-1 0-0.5 0.5-0.9 1-0.9h11.6c0.5 0 1 0.4 1 0.9 0 0.6-0.5 1-1 1z"/>
						</g>
						<g id="&lt;Group&gt;">
							<path id="&lt;Path&gt;" class="s6" d="m133.1 7.2c-0.5 0-1-0.4-1-1v-4.9c0-0.5 0.5-1 1-1 0.6 0 1 0.5 1 1v4.9c0 0.6-0.4 1-1 1z"/>
						</g>
					</g>
					<g id="&lt;Group&gt;">
						<g id="&lt;Group&gt;">
							<circle id="&lt;Compound Path&gt;" class="s5" cx="226.3" cy="215.1" r="4.2"/>
						</g>
						<g id="&lt;Group&gt;">
							<path id="&lt;Path&gt;" class="s6" d="m240.5 216.3h-14.2c-0.6 0-1.2-0.6-1.2-1.2 0-0.7 0.6-1.2 1.2-1.2h14.2c0.6 0 1.2 0.5 1.2 1.2 0 0.6-0.6 1.2-1.2 1.2z"/>
						</g>
						<g id="&lt;Group&gt;">
							<path id="&lt;Path&gt;" class="s6" d="m248.7 210.4h-14.1c-0.7 0-1.2-0.5-1.2-1.2 0-0.7 0.5-1.2 1.2-1.2h14.1c0.7 0 1.3 0.5 1.3 1.2 0 0.7-0.6 1.2-1.3 1.2z"/>
						</g>
					</g>
					<g id="&lt;Group&gt;">
						<g id="&lt;Group&gt;">
							<path id="&lt;Path&gt;" class="s5" d="m48.9 144.5h-14.1c-0.7 0-1.2-0.6-1.2-1.2 0-0.7 0.5-1.3 1.2-1.3h14.1c0.7 0 1.2 0.6 1.2 1.3 0 0.6-0.5 1.2-1.2 1.2z"/>
						</g>
						<g id="&lt;Group&gt;">
							<path id="&lt;Path&gt;" class="s5" d="m57.2 138.6h-14.1c-0.7 0-1.2-0.5-1.2-1.2 0-0.7 0.5-1.2 1.2-1.2h14.1c0.7 0 1.2 0.5 1.2 1.2 0 0.7-0.5 1.2-1.2 1.2z"/>
						</g>
					</g>
					<g id="&lt;Group&gt;">
						<g id="&lt;Group&gt;">
							<g id="&lt;Group&gt;">
								<g id="&lt;Group&gt;">
									<path id="&lt;Path&gt;" class="s6" d="m92.7 191.1c-0.7-2-2.7-8.4-0.5-11.9q2.7-4.2 7.8-6.1 0 0.5-0.1 1.3c-0.2 2-0.7 5.8-1.8 7-0.5 0.5-1.1 1.4-1.8 2.6-1.1 1.7-2.2 3.8-2.8 5.4-0.4 1-0.6 1.9-0.5 2.4q-0.1-0.2-0.3-0.7z"/>
								</g>
								<path id="&lt;Path&gt;" class="s4" d="m92.7 191.8q0-0.3 0-0.7 0.2-1.4 0.4-2.9 0.2-1.7 0.7-3.4c0.2-1.2 0.5-2.3 1-3.5q0.3-0.7 0.6-1.4 0.4-0.9 1-1.7 0.1-0.1 0.2 0 0 0 0 0.1c-0.5 0.7-0.9 1.5-1.2 2.2q-0.2 0.5-0.3 0.9c-0.4 1.2-0.7 2.3-1 3.4q-0.3 1.8-0.5 3.5-0.1 0.6-0.1 1.1-0.2 1.2-0.2 2.4 0 0 0 0c0 0.2-0.2 0.3-0.4 0.3-0.1 0-0.3-0.2-0.2-0.3z"/>
							</g>
							<path id="&lt;Path&gt;" class="s7" d="m92.7 191.8q0-0.3 0-0.7c-0.7-2-2.7-8.4-0.5-11.9q2.7-4.2 7.8-6.1 0 0.5-0.1 1.3c-1.1 0.4-2.1 1.3-2.9 2.3-0.8 0.9-1.5 2-1.6 3.2q0 0 0 0.1 0 0.3 0 0.5c0.1 1 0.5 2 0.7 3q0.1 0.2 0.2 0.5c-1.1 1.7-2.2 3.8-2.8 5.4q-0.2 1.2-0.2 2.4 0 0 0 0c0 0.2-0.2 0.3-0.4 0.3-0.1 0-0.3-0.2-0.2-0.3z"/>
						</g>
						<g id="&lt;Group&gt;">
							<g id="&lt;Group&gt;">
								<path id="&lt;Path&gt;" class="s6" d="m92.9 191.8c-0.4-0.3-1.3-0.3-2.4-0.3-1.8 0.2-4.1 0.6-6 1.2-1.3 0.3-2.4 0.7-3 1-1.5 0.7-5.2 0.1-7.2-0.3q-0.8-0.2-1.3-0.3 3.3-4.3 8.1-5.7c4-1.1 9.5 2.6 11.2 3.9q0.4 0.3 0.6 0.5z"/>
								<path id="&lt;Path&gt;" class="s4" d="m93.2 191.8c0 0.2-0.2 0.3-0.4 0.3q0 0 0 0-1.1-0.3-2.3-0.6-0.6-0.1-1.1-0.2-1.7-0.3-3.5-0.4c-1.2-0.1-2.3-0.2-3.5-0.1q-0.5 0-1 0c-0.8 0.1-1.6 0.3-2.4 0.5q-0.1 0-0.2 0 0-0.1 0.1-0.2 0.9-0.3 1.9-0.4 0.8-0.2 1.6-0.2c1.2-0.1 2.4-0.1 3.5 0q1.8 0.1 3.6 0.3 1.4 0.3 2.8 0.5 0.3 0.1 0.7 0.2c0.1 0 0.2 0.2 0.2 0.3z"/>
							</g>
							<path id="&lt;Path&gt;" class="s8" d="m93.2 191.8c0 0.2-0.2 0.3-0.4 0.3q0 0 0 0-1.1-0.3-2.3-0.6c-1.8 0.2-4.1 0.6-6 1.2q-0.2-0.2-0.5-0.3c-0.8-0.5-1.6-1.2-2.6-1.6q-0.2-0.1-0.5-0.1 0 0-0.1 0c-1.2-0.3-2.4 0.1-3.5 0.5-1.2 0.5-2.3 1.2-3 2.2q-0.8-0.2-1.3-0.3 3.3-4.3 8.1-5.7c4-1.1 9.5 2.6 11.2 3.9q0.3 0.1 0.7 0.2c0.1 0 0.2 0.2 0.2 0.3z"/>
						</g>
						<path id="&lt;Path&gt;" class="s9" d="m83.6 174.2c1.4 0.5 2.3 1.6 2.8 2.5-0.2-1.4-0.1-2.8 0.1-4.3-3.2-1-5.4 1.4-7.2 0.1-1-0.7 0.8-4.8 4.2-3.7 1.6 0.6 2.6 2 3.1 2.9q0.3-1.7 0.7-3.5c-2.6-1.5-4.9 0.2-6.2-1.2-0.7-0.8 1.6-4 4.3-2.4 1.2 0.7 1.8 2 2 2.9q0.3-1.3 0.6-2.8c-1.2-2.5-3.9-3-3.9-5 0-1.1 4.3-2 5.3 1.3 0.4 1.5-0.1 3.1-0.6 4q-0.3 1.4-0.6 2.7c0.4-0.6 0.9-1.2 1.6-1.6 2.7-1.5 5 1.7 4.2 2.5-1.3 1.4-3.6-0.3-6.2 1-0.3 1.4-0.5 2.6-0.6 3.8 0.5-0.9 1.5-2.4 3.1-3 3.4-1.2 5.2 2.9 4.3 3.6-1.9 1.4-4.2-1.2-7.5 0-0.1 1.8 0.1 3.3 0.7 4.9 0.2-0.9 0.7-2.8 2.2-3.8 2.8-1.9 5.5 1.4 4.8 2.3-1.4 1.7-4.1-0.1-6.8 1.8q0.4 0.9 1 1.8 1.1 1.5 1.8 3c0.2-0.8 0.6-2.1 1.6-2.9 2.2-1.7 4.6 1 4 1.7-1 1.4-3.2 0.2-5.3 1.7 0.8 1.7 1.4 3.2 1.7 4.4 0.2-0.5 0.5-1.1 1-1.5 1.7-1.3 3.6 0.7 3.2 1.3-0.8 1.1-2.4 0.3-3.9 1.2 0.2 0.8 0.3 1.4 0.3 1.4 0 0.2-0.1 0.5-0.3 0.5q0 0-0.1 0c-0.2 0-0.4-0.1-0.4-0.3 0-0.1-0.2-1.2-0.7-2.8-2.1-0.3-3.2 1.5-4.4 0.9-0.7-0.3-0.1-3 2.1-2.7 1 0.2 1.7 0.9 2.1 1.4-0.5-1.4-1.2-3.2-2.2-5-2.8-0.4-4.1 1.9-5.8 1.1-0.8-0.4 0-3.8 2.8-3.4 1 0.1 1.8 0.7 2.4 1.3q-0.3-0.4-0.6-0.8c-0.9-1.3-1.4-2.6-1.7-3.9-3.1-1-5.3 1.3-7 0.1-0.9-0.7 0.8-4.6 4-3.5z"/>
					</g>
					<g id="&lt;Group&gt;">
						<g id="&lt;Group&gt;">
							<g id="&lt;Group&gt;">
								<g id="&lt;Group&gt;">
									<g id="&lt;Group&gt;">
										<path id="&lt;Path&gt;" class="s5" d="m260.2 154c2.4 0.4 10.1-0.6 9.9 1.2-0.1 1.2-2.9 6-6.4 9.2-1.4 1.3-2.8 2.2-4.3 2.6-7.6 2.1-11.7 0.8-14.2-1.9-2.3-2.5-2.2-4.5-4-6.4q-0.3-0.3-0.6-0.6-0.1-0.2-0.3-0.3c-2.4-1.9-6.2-1.6-9-7.3-1.8-3.8-0.1-8.3 1.6-10.8 1-1.5 1.9-2.3 2.2-2 0.2 0.3 0.2 1.3 0.1 2.6-0.1 2-0.2 4.7 1.5 5.9 2.7 1.9 2.3 3.4 3.2 1.5 0.8-1.9-1.6-1.9-2-5.4q-0.1-0.6 0.1-1.3c0.2-1.6 1.1-3.6 2.3-5.3 1.3-2 3-3.6 4-3.9 2.2-0.5-1.2 3.4 0.7 6.6q0.7 1.1 1.3 1.9c1.1 1.3 1.9 1.7 2.4 1.2q0.3-0.2 0.4-0.6c0.7-1.7-4.1-9.9 0.1-11.4 4.2-1.4 8.2-1.2 6.9 0.7-1.2 1.9-3.5 5-2 5.8 1.6 0.8 2.7-0.1 3-2.8 0.3-2.7-0.7-4.9 1-5.5 0.4-0.1 1.3-0.3 2.5-0.5 2.5-0.4 6.4-0.8 9.2-0.5 1.8 0.2 3.2 0.8 3.3 1.8 0.4 2.5 0.7 8 0.4 11.5-0.2 1.4-0.4 2.5-0.8 2.8-1.3 1.3-4.7-2.4-6.5-0.9-1.7 1.5-2.4 3.7 2.3 3.4 4.8-0.3 7.8 0.4 4.3 4.4-3.5 4-7.7 2.9-10.2 2.3-2.6-0.7-4.9 1.6-2.4 2z"/>
									</g>
									<g id="&lt;Group&gt;">
										<path id="&lt;Path&gt;" class="s4" d="m268.4 133.7v0.1c-3.7 2.5-7.6 5.4-11.5 8.6-5.6 4.6-11 10-15.7 16.3-3.4 4.6-6.3 9.6-8.5 15.2q0 0.1-0.1 0.2-0.2 0.3-0.6 0.3 0-0.1-0.1-0.1c-0.3-0.1-0.5-0.5-0.4-0.8q0.1-0.1 0.1-0.2c2.2-5.7 5.2-10.8 8.7-15.5 4.1-5.6 9-10.5 13.9-14.8l0.5-0.4q1.7-1.5 3.6-2.9c3.1-2.6 6.4-4.9 9.4-7 0.3-0.2 0.7-0.2 0.9 0.1q0.1 0.1 0.1 0.2c0.1 0.3 0 0.6-0.3 0.7z"/>
									</g>
								</g>
							</g>
							<path id="&lt;Path&gt;" class="s10" d="m258.2 144.2c-1.9 2.6-2.7 6-1.8 9.1 1.1 4.3 5.1 7.3 7.3 11.1-1.4 1.3-2.8 2.2-4.3 2.6-7.6 2.1-11.7 0.8-14.2-1.9-2.3-2.5-2.2-4.5-4-6.4-3.4 4.6-6.3 9.6-8.5 15.2q0 0.1-0.1 0.2-0.5-0.4-1-0.8c2.2-5.7 5.2-10.8 8.7-15.5-2.4-1.9-6.2-1.6-9-7.3-1.8-3.8-0.1-8.3 1.6-10.8q1.1 0.3 2.3 0.6c-0.1 2-0.2 4.7 1.5 5.9 2.7 1.9 2.3 3.4 3.2 1.5 0.8-1.9-1.6-1.9-2-5.4q-0.1-0.6 0.1-1.3 2.7 0.7 5.4 1.4c3.5 1 7.5 1.9 10.8 0.6q0.8-0.3 1.5-0.8 1.6-1 2.6-2.5c1.4-2.2 2-5.1 2.3-7.8 0.2-1.5 0.2-3.1 0-4.7 2.5-0.4 6.4-0.8 9.2-0.5 1.8 0.2 3.2 0.8 3.3 1.8 0.4 2.5 0.7 8 0.4 11.5q-0.9 0-1.8 0c-1.7-0.1-3.5-0.3-5.3-0.1-3.1 0.2-6.2 1.8-8.2 4.3z"/>
						</g>
						<g id="&lt;Group&gt;">
							<g id="&lt;Group&gt;">
								<g id="&lt;Group&gt;">
									<path id="&lt;Path&gt;" class="s6" d="m230.3 175.6c0-1-0.8-2.8-2-4.9-2-3.2-5.2-7.2-8.1-10.4-1.9-2.2-3.7-3.9-4.9-4.8-2.8-2.1-5.4-10-6.6-14.2q-0.5-1.7-0.7-2.9 11.6 2.3 18.9 10.2c6.1 6.5 4.4 20.9 3.6 25.5q-0.1 1-0.2 1.5z"/>
								</g>
								<path id="&lt;Path&gt;" class="s4" d="m230.4 176.3c-0.3 0.1-0.7-0.1-0.8-0.5q0 0 0 0-0.6-2.5-1.3-5.1-0.3-1.1-0.7-2.2-1.1-3.7-2.6-7.2c-0.9-2.4-1.9-4.7-3.2-6.9q-0.5-0.9-1.1-1.8c-1-1.5-2.1-3-3.4-4.3-0.1-0.1-0.1-0.2 0-0.3 0.1-0.1 0.2-0.1 0.3 0 1.1 1 2 2.1 2.8 3.2q1.1 1.4 1.9 2.9c1.4 2.2 2.5 4.5 3.5 6.8q1.6 3.6 2.8 7.2 1.1 3 1.9 6 0.2 0.7 0.4 1.4c0.1 0.3-0.1 0.7-0.5 0.8z"/>
							</g>
							<path id="&lt;Path&gt;" class="s11" d="m230.4 176.3c-0.3 0.1-0.7-0.1-0.8-0.5q0 0 0 0-0.6-2.5-1.3-5.1c-2-3.2-5.2-7.2-8.1-10.4q0-0.6 0.1-1.1c0.2-2.2 0.6-4.4 0.4-6.6q0-0.6-0.2-1.2 0-0.1-0.1-0.2c-0.7-2.5-2.6-4.5-4.6-6.2-2-1.8-4.5-3.4-7.1-3.7q-0.5-1.7-0.7-2.9 11.6 2.3 18.9 10.2c6.1 6.5 4.4 20.9 3.6 25.5q0.2 0.7 0.4 1.4c0.1 0.3-0.1 0.7-0.5 0.8z"/>
						</g>
						<g id="&lt;Group&gt;">
							<g id="&lt;Group&gt;">
								<g id="&lt;Group&gt;">
									<path id="&lt;Path&gt;" class="s6" d="m230.8 174.7c1.9-3.4 8-13.4 15.2-14.5q8.6-1.4 17.1 3.1-0.7 0.6-1.8 1.4c-3 2.1-8.5 5.8-11.4 5.8-1.2-0.1-3.2 0.1-5.6 0.5-3.4 0.6-7.4 1.6-10.3 2.6-1.9 0.7-3.3 1.5-3.8 2.2q0.2-0.4 0.6-1.1z"/>
								</g>
								<path id="&lt;Path&gt;" class="s4" d="m229.9 175.3q0.5-0.3 0.9-0.6 2.1-1.5 4.2-2.9 2.7-1.7 5.4-3.2c1.9-1 3.8-1.9 5.7-2.6q1.3-0.5 2.7-0.9 1.6-0.4 3.4-0.6c0.1 0 0.2 0.1 0.2 0.2 0 0.1-0.1 0.1-0.2 0.2-1.5 0.1-2.9 0.5-4.3 1q-0.8 0.3-1.6 0.6c-1.9 0.8-3.7 1.7-5.5 2.7q-2.7 1.6-5.3 3.3-0.8 0.6-1.5 1.1-1.8 1.3-3.4 2.6-0.1 0-0.1 0c-0.2 0.2-0.5 0.1-0.7-0.1-0.2-0.2-0.1-0.6 0.1-0.8z"/>
							</g>
							<path id="&lt;Path&gt;" class="s12" d="m229.9 175.3q0.5-0.3 0.9-0.6c1.9-3.4 8-13.4 15.2-14.5q8.6-1.4 17.1 3.1-0.7 0.6-1.8 1.4c-1.9-1.1-4.3-1.3-6.5-1.2-2.1 0.1-4.3 0.4-6 1.6q-0.1 0.1-0.2 0.1-0.4 0.3-0.7 0.7c-1.2 1.3-2 2.9-3 4.4q-0.3 0.4-0.6 0.7c-3.4 0.6-7.4 1.6-10.3 2.6q-1.8 1.3-3.4 2.6-0.1 0-0.1 0c-0.2 0.2-0.5 0.1-0.7-0.1-0.2-0.2-0.1-0.6 0.1-0.8z"/>
						</g>
						<path id="&lt;Path&gt;" class="s9" d="m240 157.7c-1.3 1.7-4.1-0.1-6.9 1.8 0 1.4-0.2 2.8-0.7 4.3q-0.2 0.5-0.4 1c0.5-0.7 1.1-1.5 2.1-2 2.6-1.1 4.4 2.1 3.7 2.8-1.4 1.2-3.5-0.8-6.1 0.4-0.5 2.1-0.8 4-0.9 5.6 0.3-0.6 0.8-1.5 1.8-2 2-0.8 3.4 1.6 2.8 2.1-1 1-2.6-0.5-4.6 0.4-0.1 1.7 0 2.9 0 2.9 0.1 0.2-0.1 0.4-0.3 0.5q-0.1 0-0.1 0c-0.2 0-0.4-0.2-0.4-0.4 0-0.1-0.1-0.6-0.1-1.6-1.8-0.4-3.2 0.8-4.2 0-0.6-0.5 0.7-3 2.8-2.2 0.6 0.3 1.1 0.7 1.4 1.2 0-1.3 0.2-3 0.5-4.9-2.5-0.9-4.4 1-5.8-0.2-0.7-0.6 1-3.9 3.6-2.8 1.3 0.5 2 1.7 2.4 2.4q0.3-1.7 1-3.5 0.4-1 0.5-2c-3.3-1.1-5.5 1.4-7.3 0.1-1-0.7 0.9-4.8 4.1-3.6 1.8 0.6 2.9 2.3 3.3 3.2 0.2-1.8-0.1-3.4-0.7-5.1-3.6-0.3-5.2 2.9-7.4 2-1.2-0.4-0.4-5 3.3-4.8 1.8 0.2 3.2 1.4 3.9 2.2-0.4-1.1-1-2.3-1.6-3.6-3-0.7-4.8 1.6-6.5 0.6-1-0.6 0.4-4.4 3.5-3.6 0.8 0.2 1.5 0.7 2 1.2q-0.6-1.2-1.3-2.6c-0.7-0.7-1.7-2.2-1.6-3.8 0.1-3.6 4.6-3.9 4.9-2.7 0.5 2-2.1 3.2-2.6 6q0.7 1.4 1.4 2.7c0-1 0.2-2.5 1.2-3.5 2.3-2.3 5.5 0.2 5 1.2-0.9 1.8-3.7 0.8-5.9 2.9q0.9 1.7 1.7 3.3c0.2-1 0.8-2.7 2.3-3.7 3-2.1 6 1.6 5.2 2.5-1.5 1.8-4.3 0-7.3 1.8 0.7 1.5 1.1 2.9 1.3 4.4 0.3-1 0.9-2.5 2.1-3.3 2.9-1.9 5.7 1.5 4.9 2.4z"/>
					</g>
				</g>
				<g id="&lt;Group&gt;">
					<g id="&lt;Group&gt;">
						<path id="&lt;Path&gt;" class="s13" d="m162.4 40.9c-2.1 6.3-3.9 14.7-6.8 15.1-3.2 0.2-8.6-1-13.2-3.8 0.9-1.3 2.3-3.6 3.8-3.8 2-0.1 6.3 2.2 8.9 3.5l5.6-11.6z"/>
						<path id="&lt;Path&gt;" class="s14" d="m151.7 56.1c-3.2-0.8-6.6-1.6-7.7-2.7-0.6-0.9 1.9-4.1 3.4-4.4 1.4-0.1 3.9 0.9 6.2 1.9 0.1 1.6-1.4 4.4-1.9 5.2z"/>
						<g id="&lt;Group&gt;">
							<path id="&lt;Path&gt;" class="s13" d="m148.4 93.4q-0.3 1.1 0.8 2.5-4.1-0.3-3.8-1.2c0.3-1 1-1.1 0.8-2q-0.2-0.9 2.2 0.7z"/>
							<path id="&lt;Path&gt;" class="s4" d="m146 92.8l0.2-17.2c-3.6-1.9-6.5-4.8-9.8-7.5l5.4-3.8c4.2 2.6 7.3 5.5 9.2 8.5 1.3 2.5-0.6 12.5-2.3 20.6-1 0.1-1.5 0-2.7-0.6z"/>
							<path id="&lt;Path&gt;" class="s15" d="m145.6 94.2q1 0.9 3.3 1c1.4 1.1 3.6 2.3 3 3.2q-5.4-0.8-6.7-2.1-0.9-0.8 0.4-2.1z"/>
						</g>
						<g id="&lt;Group&gt;">
							<path id="&lt;Path&gt;" class="s13" d="m133.2 91.4q-0.7 0.9-0.2 2.6-3.7-1.8-3.1-2.6c0.6-0.7 1.4-0.6 1.5-1.5q0.2-0.9 1.8 1.5z"/>
							<path id="&lt;Path&gt;" class="s4" d="m131.2 89.9l6.5-15.7c-3.4-2.8-6.8-6.7-6.3-10.8l6.4-1.5c3 4 4.7 7.8 5.4 11.3 0.3 2.8-5.2 11.4-9.7 18.2-1-0.1-1.5-0.5-2.3-1.5z"/>
							<path id="&lt;Path&gt;" class="s15" d="m130.3 91.1q0.6 1.2 2.7 2.2c0.9 1.5 2.5 3.4 1.6 4q-5.1-3-5.7-4.5-0.4-1.1 1.4-1.7z"/>
						</g>
						<path id="&lt;Path&gt;" class="s14" d="m143.1 65.6c-4 1.1-11-1.4-12-2.4 0.9-6.6 3.2-12.5 6.2-18 4.3 0.2 10.1 2.9 10.8 3.6-0.3 4.2-2.3 10.5-5 16.8z"/>
						<path id="&lt;Path&gt;" class="s13" d="m160.7 40.3l2.1-1.4 0.3-2.1q0.2-0.4 0.5-0.1c0.2 0.9 0.3 2 0.3 3.2q-0.6 0.7-1.5 1z"/>
						<path id="&lt;Path&gt;" class="s13" d="m141.2 46.1q1.2-1.4 2-3.1l2 0.9c-0.4 1.2-0.8 2.3-0.5 3.3-0.9 1.1-3 0.3-3.5-1.1z"/>
						<path id="&lt;Path&gt;" class="s13" d="m145.8 46.1c-0.7 0.2-2.2-0.9-3-1.7l0.1-6.2 4.8-1.4 2.9 3.6c-1.4 2.4-2.9 4.6-4.8 5.7z"/>
						<path id="&lt;Path&gt;" class="s9" d="m150.1 42.2q-1.6 0.2-3.5-1.1l-0.5 1.8-0.6-0.2q0.2-1.5-0.5-1.5c-1.3 0-0.1 0.8-0.3 2q-0.2 0.6-1.9 1.2-1.1-0.4-0.7-2.1c0.5-1.8-0.3-5.6 2.2-5.9 2.6-0.3 4.5 0 4.9 1.2 0.4 1.3 1.6 2.3 2.8 2.2 1.2-0.2-0.6 2.2-1.9 2.4z"/>
						<path id="&lt;Path&gt;" class="s9" d="m146.1 42.9q-0.9 2.1-0.2 2.5c0.6 0.3 1-0.1 0.8 0.3-0.3 0.3-1 0.8-1.3 0.5-1.1-0.7-0.6-2.1 0.1-3.5z"/>
						<path id="&lt;Path&gt;" class="s16" d="m146.4 72c3.7 1.7 1.2 14.7 0 20q0 0.2 0 0.4-0.1 0.3-0.1 0.5-0.1 1 0.1 1.8 0.1 0.4 0.3 0.8c0.8 1.4 2.7 1.5 4.2 1.2 0.8 0.6 1.4 1.2 1 1.7q-5.4-0.8-6.7-2.1-0.9-0.8 0.4-2.1c0.3-0.5 0.7-0.7 0.7-1.3q-0.2-0.1-0.3-0.1l0.2-17.2q-1.5-0.8-3-1.9 0 0.1 0 0.1 0 0 0-0.1 0-0.3 0-0.5 0.1-1-0.5-2.8 0 0 3.7 1.6z"/>
						<path id="&lt;Path&gt;" class="s16" d="m131.4 63.4q0.7 0.4 1.4 0.7 0.9 0.5 1.6 0.6c-0.4 2.6 1.8 4.3 5.4 7.1 3.6 2.7-4.8 12.9-7.6 17.5q-0.2 0.3-0.3 0.5-0.2 0.3-0.3 0.6-0.4 0.9-0.5 1.6-0.1 0.4-0.1 0.8c0.1 1.7 1.6 2.5 3.4 2.6 0.5 0.9 0.7 1.6 0.2 1.9q-5.1-3-5.7-4.5c-0.4-1 1.1-1.6 1.4-1.7q0 0 0 0c0.5-0.4 0.9-0.5 1.1-1q-0.1-0.1-0.2-0.2l6.5-15.7c-3.4-2.8-6.8-6.7-6.3-10.7q-0.2-0.2-0.3-0.3 0.1 0 0.3 0.2z"/>
						<path id="&lt;Path&gt;" class="s16" d="m131.3 61.6l1.5 1.5 1.5 1.6h0.1c-0.4 0.1-2.1-0.7-3-1.1q0-0.1 0-0.1-0.2-0.2-0.3-0.3 0-0.6 0.1-1.2 0.1-0.2 0.1-0.4z"/>
						<path id="&lt;Path&gt;" class="s16" d="m142.5 44.3c0.5 0.6 1.5 1.1 2.2 1.5q0 0 0 0-0.1 0.5-0.1 1c-0.6 0-1.8 0-2.5 0.4q-0.6-0.4-0.9-1.2 0.8-0.8 1.3-1.7z"/>
						<g id="&lt;Group&gt;">
							<path id="&lt;Path&gt;" class="s9" d="m184.7 45.4l-3.9-0.2-9-13.6-13.7 12.9-3.8-0.1q-2.4-19.9 4.6-26.4c7.6-7.2 19.5-6.8 26.6 0.8 7.1 7.5 6.7 19.4-0.8 26.6z"/>
							<path id="&lt;Path&gt;" class="s14" d="m180.8 45.2l-12.8-13.7-13.7 12.9c-7.1-7.6-6.7-19.5 0.8-26.6 7.6-7.1 19.5-6.7 26.6 0.9 7.1 7.5 6.7 19.4-0.9 26.5z"/>
						</g>
						<path id="&lt;Path&gt;" class="s13" d="m149.1 49.1c-1.2 0.5-3.3 0.8-5.4 0.8-3.3 0.1-7-0.2-8.3-1 0.1-0.3 1-3.5 2.4-4.1 1.3-0.5 4-0.2 6.5 0.1 1.1 0.2 2.2 0.3 3.1 0.5l1.7-12.8 1.9 0.1c-0.2 6.6 0.7 15.2-1.9 16.4z"/>
						<path id="&lt;Path&gt;" class="s13" d="m149.1 32.6c-0.7-1.2-1.2-2.4-1.1-3.5l1.8-2.2c0.6 0.2 0.4 0 0.6 0.7l-0.9 1.7 1.4 3.4z"/>
						<path id="&lt;Path&gt;" class="s14" d="m143.7 49.9c-3.3 0.1-7.5 0.9-8.8 0.1-0.2-0.6 1.5-4.6 2.9-5.2 1.3-0.5 4-0.2 6.5 0.1 0.5 1.5-0.4 4.2-0.6 5z"/>
					</g>
					<g id="&lt;Group&gt;">
						<g id="&lt;Group&gt;">
							<g id="&lt;Group&gt;">
								<path id="&lt;Path&gt;" class="s14" d="m210.8 168.3v6.6q0 0.1-0.2 0.3c0 0.1-0.1 0.2-0.3 0.4h-0.1c-0.3 0.3-0.8 0.5-1.3 0.8q-0.4 0.2-1 0.5c-0.4 0.2-0.9 0.4-1.4 0.6v0.1q-0.1 0.1-0.3 0.1-0.6 0.2-1.2 0.5c-1.1 0.4-2.1 0.8-3.2 1.3-1.3 0.5-2.7 1-3.9 1.5-0.2 0-0.4 0.1-0.6 0.2q-0.7 0.2-1.3 0.4c-1.4 0.5-2.5 0.8-3.3 1v0.1q-0.6 0.1-0.9 0.2h-0.2l-5.6-2.1-4.4-1.8-3.3-1.2c-0.6 0-1.2-0.2-1.7-0.5-0.7-0.6-1.1-1.4-1.1-2.4l-10.9-2.2-4.9-1.1q0 0 0 0c0.4-1.7 17.1-6.2 18.6-6.2h14.5c0 0 0 0 0.1 0h15c1.6 0 2.9 1.3 2.9 2.9z"/>
								<path id="&lt;Path&gt;" class="s6" d="m194.4 173.4v6.6c0 1.2-0.7 2.2-1.7 2.7q0 0 0 0-0.5 0.2-1 0.2-0.1 0-0.2 0h-29.5q-0.1 0-0.2 0c-1.2-0.1-2.3-0.9-2.6-2.1q-0.1-0.4-0.1-0.8v-6.6q0-0.4 0.1-0.8 0.1-0.4 0.3-0.7 0 0 0 0 0.1-0.2 0.2-0.3 0 0 0 0 0 0 0 0 0.3-0.3 0.5-0.5c0.5-0.4 1.1-0.6 1.8-0.6h29.5c1.6 0 2.9 1.3 2.9 2.9z"/>
								<path id="&lt;Path&gt;" class="s4" d="m191 180.8h-31.9v-8.1h31.9c0.5 0 1 0.4 1 0.9v6.2c0 0.5-0.5 1-1 1z"/>
							</g>
							<path id="&lt;Path&gt;" class="s17" d="m210.8 168.3v6.6q0 0.1-0.2 0.3c0 0.1-0.1 0.2-0.3 0.4h-0.1c-0.3 0.3-0.8 0.5-1.3 0.8q-0.4 0.2-1 0.5c-0.4 0.2-0.9 0.4-1.4 0.6-0.1 0.1-0.2 0.1-0.3 0.2q-0.6 0.2-1.2 0.5c-1.1 0.4-2.1 0.8-3.2 1.3-1.3 0.5-2.7 1-3.9 1.5-0.2 0-0.4 0.1-0.6 0.2q-0.7 0.2-1.3 0.4c-1.4 0.5-2.5 0.8-3.3 1v0.1c-0.3 0.1-0.6 0.2-0.9 0.2h-28.3c0.3-0.2 0.5-0.3 0.7-0.4q0.6-0.3 1.1-0.5c1.8-0.7 3.6-0.9 5.6-1.1 0.2 0 0.5-0.1 0.7-0.1 0.2 0 0.4 0 0.5 0 0.7-0.1 1.4-0.1 2.1-0.2 0.1 0 0.3 0 0.5 0 0.8-0.1 1.6-0.2 2.3-0.2 1-0.1 2-0.2 2.9-0.5 0.6-0.2 1.2-0.5 1.7-0.9 0.2-0.1 0.4-0.4 0.6-0.6 1-1.3 0.9-2.9 0.8-4.6-0.1-0.4-0.1-0.8-0.1-1.1v-0.5q0-0.9 0.2-1.7c0-0.2 0.1-0.4 0.2-0.6 0.4-1.3 1.3-2.2 2.4-3 0.2-0.2 0.4-0.3 0.7-0.4 0.5-0.4 1-0.6 1.6-0.9 0.1-0.1 0.1-0.1 0.1-0.1q0.1 0 0.1-0.1h4.6c0 0 0 0 0.1 0h15c1.6 0 2.9 1.3 2.9 2.9z"/>
						</g>
						<g id="&lt;Group&gt;">
							<g id="&lt;Group&gt;">
								<path id="&lt;Path&gt;" class="s14" d="m232.9 170.1l-2.7 6c-0.1 0.2-0.6 0.4-1.4 0.5-0.4 0-1 0.1-1.7 0.1-4.6 0.2-13.2-0.5-16.5-1.1-0.1 0-0.1 0-0.1 0-0.1 0-0.2 0-0.2 0h-0.1q-0.1 0-0.3-0.1c-0.1 0-0.2 0-0.3-0.1-0.1 0-0.2 0-0.2-0.1l-1.5-1.5-2.7-2.7-0.4-0.4-2.4-2.5-0.5-0.5-2.2-2.3-0.2-0.2c-1.5-0.6-2.1-2.4-1.5-3.8l-8.8-6.5-0.1-0.1-0.8-0.7-3.2-2.2q0-0.1 0-0.1h0.1c0.2-0.1 0.4-0.2 0.6-0.2 0.2-0.1 0.4-0.1 0.6-0.1q0.9-0.1 2.1 0c2.7 0.2 6.7 0.7 10 1.2 0.6 0.1 1.3 0.2 1.9 0.3 2.1 0.4 3.8 0.8 4.2 1l0.3 0.1 4.2 1.9c0.1 0 0.1 0 0.1 0.1l4.3 2c0.1 0 0.1 0 0.1 0l1.8 0.9 1.6 0.6 2.3 1.1h0.1l3.7 1.7 0.5 0.2 2 1 5.9 2.7c1.4 0.6 2.1 2.4 1.4 3.8z"/>
								<path id="&lt;Path&gt;" class="s6" d="m215.9 167.9l-2.6 5.9-0.1 0.1c-0.4 0.9-1.3 1.6-2.2 1.7-0.2 0-0.3 0-0.4 0-0.1 0-0.1 0-0.1 0h-0.3-0.2c0 0 0 0-0.1-0.1-0.1 0-0.2 0-0.3-0.1-0.1 0-0.2 0-0.2-0.1l-3.4-1.5-0.4-0.2-2.1-0.9-15.5-7.1-0.3-0.2-0.9-0.4-2.9-1.3-1.4-0.6c-1.2-0.6-1.9-1.9-1.7-3.1 0.1-0.2 0.1-0.5 0.2-0.7l2.8-6.1c0.1-0.2 0.3-0.4 0.4-0.6q0.4-0.5 0.9-0.8h0.1c0.4-0.2 0.8-0.3 1.2-0.3 0.4 0 0.9 0.1 1.2 0.3l0.9 0.4 11.1 5.1 2.1 0.9 1.1 0.5 4 1.9 0.2 0.1h0.1l3.8 1.7 3.6 1.7c1.4 0.7 2.1 2.4 1.4 3.8z"/>
								<path id="&lt;Path&gt;" class="s4" d="m209.8 173.2l-29.1-13.3 3.4-7.4 29 13.3c0.5 0.2 0.7 0.8 0.5 1.3l-2.6 5.6c-0.2 0.5-0.8 0.7-1.2 0.5z"/>
							</g>
							<path id="&lt;Path&gt;" class="s18" d="m232.9 170.1l-2.7 6c-0.1 0.2-0.6 0.4-1.4 0.5-0.4 0-1 0.1-1.7 0.1-4.6 0.2-13.2-0.5-16.5-1.1-0.1 0-0.1 0-0.1 0h-0.3-0.2c0 0 0 0-0.1-0.1-0.1 0-0.2 0-0.3-0.1-0.1 0-0.2 0-0.2-0.1l-3.4-1.5-0.4-0.2-2.1-0.9-15.5-7.1-0.3-0.2-0.9-0.4-2.9-1.3c0.3 0 0.5-0.1 0.8-0.1 0.8 0 1.7 0 2.5 0.1 1.7 0.3 3.3 0.9 4.9 1.5q0.2 0.1 0.5 0.1c0 0 0.1 0.1 0.2 0.1 0 0 0 0 0.1 0 1.4 0.5 2.9 1.1 4.3 1.6 1.5 0.6 3.2 1.1 4.7 0.7q0.2 0 0.3-0.1c0.2 0 0.4-0.1 0.6-0.2 0.4-0.2 0.7-0.5 1-0.8 0.3-0.4 0.6-0.7 0.8-1.2 0.5-0.9 0.8-1.9 1.2-3 0.3-0.6 0.5-1.2 0.9-1.7 0 0 0 0 0 0 0-0.1 0.1-0.1 0.1-0.1 0.1-0.2 0.2-0.4 0.4-0.5 0.9-0.9 2-1.4 3.2-1.7 1-0.2 2.1-0.3 3.1-0.3 0.1 0 0.1 0 0.1 0l1.8 0.8v0.1l1.6 0.6 2.3 1.1h0.1l3.7 1.7 0.5 0.2 2 1 5.9 2.7c1.4 0.6 2.1 2.4 1.4 3.8z"/>
						</g>
					</g>
					<g id="&lt;Group&gt;">
						<path id="&lt;Path&gt;" class="s14" d="m190.6 127.6l-0.2 3.1-1 10.6-0.9 10.2v0.7l-0.2 1.9-0.1 0.3-0.6 7c0 0.5-0.1 1-0.2 1.5q0 0.4-0.2 0.8c-0.1 0.5-0.2 0.9-0.4 1.3 0 0.2 0 0.3-0.1 0.4q-0.1 0.6-0.3 1.1c-0.6 1.4-1.3 2.8-2.2 4-0.3 0.6-0.8 1.2-1.3 1.7q0 0.1 0 0.1c-0.1 0.1-0.2 0.3-0.4 0.4-1.6 1.8-3.6 3.4-5.9 4.6q-0.8 0.5-1.7 0.9l-0.1 0.2c0 0.8-0.3 1.6-0.6 2.2 0 0.1-0.1 0.1-0.1 0.2q-0.7 1.3-2.1 2.1c-1.2 0.8-2.7 1.3-4.3 1.3h-8.2c-3.9 0-7.1-2.6-7.2-5.8l-0.1-1.1c-5.9-3.4-10.3-9.1-10.9-15.9l-0.3-3.9-1.5-16.3-1.2-13.6z"/>
						<path id="&lt;Path&gt;" class="s19" d="m190.4 130.7l-1 10.6-0.9 10.2v0.7l-0.2 1.9-0.1 0.3-0.6 7c0 0.5-0.1 1-0.2 1.5q0 0.4-0.2 0.8c-0.1 0.5-0.2 0.9-0.4 1.3 0 0.2 0 0.3-0.1 0.4q-0.1 0.6-0.3 1.1c-0.6 1.4-1.3 2.8-2.2 4-0.3 0.6-0.8 1.2-1.3 1.7q0 0.1 0 0.1c-0.1 0.1-0.2 0.3-0.4 0.4-1.6 1.8-3.6 3.4-5.9 4.6q-0.8 0.5-1.7 0.9l-0.1 0.2c0 0.8-0.3 1.6-0.6 2.2 0 0.1-0.1 0.1-0.1 0.2q-0.7 1.3-2.1 2.1c-1.2 0.8-2.7 1.3-4.3 1.3h-8.2c-3.9 0-7.1-2.6-7.2-5.8l-0.1-1.1c-5.9-3.4-10.3-9.1-10.9-15.9l-0.3-3.9c1 0.2 2 0.6 3 1 5.7 2.2 11 5.5 17 6.5 6 1 13.2-1.3 15.2-7.1 0.8-2.4 0.5-5.1 0.6-7.7 0.1-1.1 0.2-2.2 0.4-3.3 0.6-4.1 2.4-8.1 5.2-11.2 2.1-2.4 4.9-4.2 8-5z"/>
						<path id="&lt;Path&gt;" class="s5" d="m210.2 103.1c0 10-3.3 19.4-8.8 26.9-1.1 1.6-2.4 3-3.7 4.5-1 1-2 2-3.1 2.9q-2.4 2.2-5.2 3.9c-3.7 2.5-7.8 4.4-12.2 5.6-4 1.2-8.2 1.8-12.7 1.8-9.3 0-17.8-2.7-25-7.5-8.9-5.7-15.7-14.6-18.8-25.2-0.9-2.9-1.5-6-1.7-9.2-0.1-1.2-0.2-2.5-0.2-3.7 0-6.9 1.5-13.5 4.3-19.3 7.2-15.7 23.1-26.4 41.4-26.4 6.3 0 12.4 1.2 17.8 3.5 0.3 0.2 0.7 0.3 1 0.5 6.6 3 12.5 7.6 17 13.2 2 2.6 3.8 5.4 5.3 8.4 0 0.1 0.1 0.1 0.1 0.2 0.1 0.4 0.3 0.8 0.4 1.1 0 0.1 0.1 0.1 0.1 0.1q1.5 3.3 2.4 6.9c1 3.7 1.6 7.7 1.6 11.8z"/>
						<g id="&lt;Group&gt;">
							<path id="&lt;Path&gt;" class="s4" d="m130.6 92.7q-0.3 0-0.6-0.1c-0.8-0.3-1.3-1.3-1-2.1 2.1-5.9 5.6-11.2 10.2-15.3 0.7-0.7 1.7-0.6 2.4 0.1 0.6 0.7 0.5 1.7-0.2 2.3-4.1 3.9-7.3 8.7-9.2 14-0.3 0.7-0.9 1.1-1.6 1.1z"/>
						</g>
						<g id="&lt;Group&gt;">
							<path id="&lt;Path&gt;" class="s4" d="m145.9 73.9c-0.5 0-1.1-0.3-1.4-0.8-0.5-0.8-0.2-1.9 0.6-2.3 2.3-1.4 4.7-2.6 7.3-3.4 0.9-0.3 1.9 0.1 2.1 1 0.3 0.9-0.1 1.8-1 2.1-2.3 0.8-4.6 1.9-6.7 3.1q-0.4 0.3-0.9 0.3z"/>
						</g>
						<path id="&lt;Path&gt;" class="s20" d="m210.2 103.1c0 10-3.3 19.4-8.8 26.9-1.1 1.6-2.4 3-3.7 4.5-1 1-2 2-3.1 2.9q-2.4 2.2-5.2 3.9c-3.7 2.5-7.8 4.4-12.2 5.6-4 1.2-8.2 1.8-12.7 1.8-9.3 0-17.8-2.7-25-7.5-8.9-5.7-15.7-14.6-18.8-25.2-0.9-2.9-1.5-6-1.7-9.2 1.9 1 3.6 2.2 5.5 3.5 7.8 4.8 17.1 8.2 26.4 8.6 3.1 0.2 6.2 0.1 9.4-0.5 10.1-2 19.6-8.4 24.3-17.5 0.9-1.8 1.7-3.7 2.2-5.7 0-0.1 0-0.2 0.1-0.3 1.1-4.5 1.1-9.1 0.7-13.7q-0.2-2.5-0.6-4.9c-0.6-4.3-1.5-8.5-3-12.5-0.3-0.6-0.7-1.3-1.2-2.1q-0.2-0.4-0.5-0.8c0.3 0.2 0.7 0.3 1 0.5 6.6 3 12.5 7.6 17 13.2 2 2.6 3.8 5.4 5.3 8.4 0 0.1 0.1 0.1 0.1 0.2 0.1 0.4 0.3 0.8 0.4 1.1 0 0.1 0.1 0.1 0.1 0.1q1.5 3.3 2.4 6.9c1 3.7 1.6 7.7 1.6 11.8z"/>
					</g>
					<g id="&lt;Group&gt;">
						<path id="&lt;Compound Path&gt;" class="s4" d="m130.6 110.6h2.8c0.2-0.9 0.6-1.8 1.1-2.7l-1.9-1.9c-1.8-1.7-1.8-4.5 0-6.2l3-3c1.6-1.7 4.5-1.7 6.3 0l1.8 1.9c0.9-0.5 1.7-0.8 2.7-1.1v-2.7c0-1.6 0.8-3 2-3.7 0.7-0.4 1.5-0.7 2.4-0.7h4.2c2.4 0 4.5 1.9 4.5 4.4v2.7c0.9 0.3 1.8 0.6 2.7 1.1l1.8-1.9c1.8-1.7 4.6-1.7 6.3 0l3 3c1.7 1.7 1.7 4.5 0 6.2l-1.9 1.9c0.5 0.9 0.7 1.8 1.1 2.7h2.7c2.5 0 4.4 2 4.4 4.5v4.1c0 2.5-1.9 4.5-4.4 4.5h-2.7c-0.4 0.9-0.6 1.8-1.1 2.7l1.9 1.9c1.7 1.7 1.7 4.5 0 6.2l-3 3c-1.7 1.7-4.5 1.7-6.3 0l-1.8-1.8c-0.9 0.3-1.8 0.7-2.7 1v2.7c0 0.1 0 0.2-0.1 0.3-0.1 2.3-2.1 4.1-4.4 4.1h-4.2c-2.5 0-4.4-1.9-4.4-4.4v-2.7c-1-0.3-1.8-0.7-2.7-1l-1.8 1.8c-0.9 0.9-2.2 1.3-3.4 1.3l11-10c1 0.4 2.2 0.6 3.4 0.6 6.8 0 12.3-5.5 12.3-12.2 0-6.8-5.5-12.3-12.3-12.3-1.6 0-3.1 0.3-4.5 0.9-4.5 1.7-7.7 6.2-7.7 11.4q0 1.8 0.5 3.4l-9.9 10.9c-0.1-1.2 0.4-2.3 1.3-3.2l1.9-1.9c-0.5-0.9-0.9-1.8-1.1-2.7h-2.8c-2.4 0-4.3-2-4.3-4.5v-4.1c0-2.5 1.9-4.5 4.3-4.5z"/>
						<g id="&lt;Group&gt;">
							<path id="&lt;Path&gt;" class="s6" d="m124.8 141.5l19.6-21.5-0.9-3.4c-0.4-1.3 0-2.7 1-3.6l4.1-4.1c0.4-0.5 1.1-0.5 1.6 0l1.3 1.3c0.4 0.4 0.4 1.2 0 1.6l-3 3c-0.6 0.6-0.8 1.4-0.6 2.2l1.1 4.1 4 1.1c0.8 0.2 1.7 0 2.3-0.6l2.9-3c0.5-0.5 1.2-0.5 1.7 0l1.3 1.3c0.4 0.4 0.4 1.2 0 1.6l-4.1 4.1c-1 0.9-2.4 1.3-3.7 1l-3.3-0.9-21.5 19.6c-1.1 0.9-2.7 0.9-3.7-0.1-1-1-1.1-2.7-0.1-3.7z"/>
						</g>
					</g>
					<path id="&lt;Compound Path&gt;" fill-rule="evenodd" class="s16" d="m228.8 176.6c-0.4 0-1 0.1-1.7 0.1l-0.3-1.1h-20.8l0.5 1.9v0.1q-0.1 0.1-0.3 0.1-0.6 0.2-1.2 0.5l-1.5-5.5-0.6-2.7-0.5-1.8-0.2-0.6-0.5-2.2-1.4-5.5-0.7-2.6-1.1-4.6c0.6 0.1 1.3 0.2 1.9 0.3l1.3 5.2 0.2 1c0.1 0 0.1 0 0.2 0q0.1-0.1 0.1-0.1c0.2-0.2 0.4-0.3 0.6-0.4 0.1-0.1 0.2-0.2 0.3-0.2 0.1-0.1 0.2-0.1 0.2-0.2 0.4-0.1 0.8-0.3 1.1-0.5q0.2 0 0.3-0.1c0.4-0.1 0.7-0.2 1-0.3 0.1 0 0.2 0 0.2 0.1 0.1-0.3 0.1-0.4 0.1-0.6q0-0.5 0-0.8c-0.3 0-0.6 0-0.8-0.1-0.1-0.6-0.2-1.3-0.3-1.9l4.2 1.9c0.1 0 0.1 0 0.1 0.1 0 0.1 0.1 0.2 0.2 0.4 0.3 0.4 0.4 0.9 0.5 1.3 0.1 0 0.1 0 0.2 0q0.3 0.4 0.3 0.6c0.3 0.8 0.3 1.6 0 2.2-1.2 0-2.3 0-3.4 0.1h-0.3c-1.5 0-3 0-4.4-0.1v0.1h17.1l3.7 1.7h-20.4l0.8 3 0.3 1.2 1 4.1 0.1 0.2v0.1l0.7 2.6v0.2h20.8l-2.8-11.2 2 1zm-11.9-17c-0.6 0.2-1.2 0.3-1.9 0.4 0-0.3 0.1-0.6 0.3-0.9v-0.1q0-0.1 0.1-0.1zm-21.3-25.1h2c-0.9 1.1-2 2-3.1 2.9l-9-35.9c-0.1-0.1 0-0.2 0-0.3q-0.6-0.1-0.9-0.3c-0.2-0.1-0.3-0.1-0.4-0.2-0.6-1-1.1-2.4-1.5-4q0-0.1 0-0.1c-0.7-3.2-0.9-7.3-0.9-11.5h0.1l-0.1-0.7q-1.8-1.2-2.2-2.3c-1.1-0.1-2.1-0.2-3.1-0.5l5-19.2 1.2-0.7 0.5-0.3 1.8-1 19.2 5c-0.7 2.7-1.9 5.2-3.6 7.2 0.3 0.1 0.7-0.2 0.8 0.1q0.2 0.4-1.2 1.3v0.6l-0.6 5.4c0.6 0 1.1 0.1 1.7-0.1 1.5-0.2 3 1.8 3.9 2.8q0.2 0.1 0.3 0.3v0.1c0.1 0 0.1 0.1 0.1 0.2 0.2 0.3 0.4 0.7 0.5 1.1 0 0 0 0 0 0.1 0.3 1.4-0.3 3.3-2 4.6l4.1 1.9-0.1 0.1c0.2 0 0.3 0.1 0.4 0.2 1.1 3.8 1.6 7.7 1.6 11.8 0 10.1-3.2 19.4-8.7 26.9 0-0.5 0-1 0.1-1.5 0-0.5 0.1-1 0.1-1.5 0.1-0.7 0.2-1.5 0.3-2.3 0.1-0.5 0.2-1 0.3-1.5v-0.1h-9.5zm-8.8-39.3l0.5 2 8.3-1.5c0.9-0.8 2-1.6 3.3-2.3-2-1.7-3.7-3.6-4-4.5-0.1-0.5-0.2-1.1-0.2-1.7 0-0.8 0.1-1.6 0.3-2.6 0.3-2.5 1.3-5.6 2.3-8.7-1.2 1-2.6 1.8-4 2.5-1.7 1.2-3.7 2.2-5.7 2.9-1.3 0.4-2.7 0.7-4 0.8 0 1.1 0 2.7 0.2 2.7h0.1zm2.2 13h9.9q-1-3-2-6.4c-1.6 0.1-6.3 0.1-9.5-0.3zm3.3 13.2h10.2c0.1-0.3 0.2-0.6 0.2-0.9 0.1-0.6 0.3-1.1 0.4-1.7q0 0 0-0.1 0 0 0 0c-1.3-2.2-2.5-5.3-3.7-8.7h-10z"/>
					<g id="&lt;Group&gt;">
						<g id="&lt;Group&gt;">
							<path id="&lt;Path&gt;" class="s6" d="m59.7 66.4l-1.6-1.6 10.4-10.4c3.2-3.2 8.8-3.2 11.9 0 2.5 2.4 6.4 2.4 8.8 0l11.6-11.6c3.2-3.2 8.7-3.2 11.9 0l6.8 6.9-1.5 1.6-6.9-6.9c-2.3-2.4-6.4-2.4-8.8 0l-11.5 11.6c-3.3 3.3-8.7 3.3-11.9 0-2.4-2.4-6.5-2.4-8.8 0z"/>
						</g>
						<g id="&lt;Group&gt;">
							<path id="&lt;Compound Path&gt;" fill-rule="evenodd" class="s14" d="m106.7 46.8c-2.9 0-5.3-2.4-5.3-5.3 0-3 2.4-5.4 5.3-5.4 3 0 5.4 2.4 5.4 5.4 0 2.9-2.4 5.3-5.4 5.3zm3.1-5.3c0-1.8-1.3-3.2-3.1-3.2-1.7 0-3.1 1.4-3.1 3.2 0 1.7 1.4 3.1 3.1 3.1 1.8 0 3.1-1.4 3.1-3.1z"/>
						</g>
						<path id="&lt;Path&gt;" class="s6" d="m73.2 35.2c0 1-0.7 1.7-1.6 1.7h-15.9c-0.9 0-1.7-0.7-1.7-1.7 0-0.9 0.8-1.6 1.7-1.6h15.9c0.9 0 1.6 0.7 1.6 1.6z"/>
						<path id="&lt;Path&gt;" class="s14" d="m71.2 35.2c0 1-0.7 1.7-1.7 1.7h-13.8c-0.9 0-1.7-0.7-1.7-1.7 0-0.9 0.8-1.6 1.7-1.6h13.8c1 0 1.7 0.7 1.7 1.6z"/>
						<path id="&lt;Path&gt;" class="s6" d="m73.2 41.8c0 0.9-0.7 1.6-1.6 1.6h-15.9c-0.9 0-1.7-0.7-1.7-1.6 0-0.9 0.8-1.7 1.7-1.7h15.9c0.9 0 1.6 0.8 1.6 1.7z"/>
						<path id="&lt;Path&gt;" class="s14" d="m67.7 41.8c0 0.9-0.7 1.6-1.6 1.6h-10.4c-0.9 0-1.7-0.7-1.7-1.6 0-0.9 0.8-1.7 1.7-1.7h10.4c0.9 0 1.6 0.8 1.6 1.7z"/>
					</g>
					<g id="&lt;Group&gt;">
						<g id="&lt;Group&gt;">
							<path id="&lt;Path&gt;" class="s9" d="m124.3 108.9q-0.2 0-0.4-0.1l-9.1-9.1h-26.4c-0.3 0-0.6-0.3-0.6-0.6 0-0.4 0.3-0.6 0.6-0.6h26.7q0.2 0 0.4 0.2l9.3 9.2c0.2 0.2 0.2 0.6 0 0.9q-0.2 0.1-0.5 0.1z"/>
						</g>
						<g id="&lt;Group&gt;">
							<g id="&lt;Group&gt;">
								<path id="&lt;Path&gt;" class="s21" d="m88.1 108.4c-0.1 0.3-0.4 0.4-0.6 0.5l-0.3-0.3c-0.2-0.1-0.2-0.3-0.1-0.5 0.1-0.1 0.4-0.2 0.5 0z"/>
							</g>
							<g id="&lt;Group&gt;">
								<g id="&lt;Group&gt;">
									<path id="&lt;Path&gt;" class="s14" d="m88.4 98v9.6c0 0.3-0.1 0.6-0.3 0.8-0.1 0.3-0.4 0.4-0.6 0.5q-0.2 0-0.4 0h-12.2c-0.8 0-1.4-0.6-1.4-1.3v-9.6c0-0.7 0.6-1.3 1.4-1.3h12.2c0.8 0 1.3 0.6 1.3 1.3z"/>
									<path id="&lt;Path&gt;" class="s4" d="m81.5 101.7h-5.8v-2.6h5.8z"/>
									<path id="&lt;Path&gt;" class="s4" d="m75.7 103.4h11.3v3.8h-11.3z"/>
								</g>
								<path id="&lt;Path&gt;" class="s22" d="m88.4 98v9.6c0 0.3-0.1 0.6-0.3 0.8-0.1 0.3-0.4 0.4-0.6 0.5q-0.2 0-0.4 0h-12.2c-0.8 0-1.4-0.6-1.4-1.3v-5.5c0.5-0.2 1.1-0.3 1.6-0.2 1.3 0 2.6 0.5 3.9 1 0.6 0.2 1.2 0.4 1.9 0.5q0.1 0 0.1 0 0.9 0.1 1.7 0 0.1 0 0.1 0 0.1-0.1 0.1-0.1c0.6-0.1 1.2-0.4 1.4-0.9 0.1-0.3 0-0.7-0.1-1q-0.2-0.9-0.6-1.6c-0.1-0.2-0.2-0.4-0.3-0.7-0.1-0.3 0-0.7 0.2-1 0.2-0.6 0.7-1.1 1.3-1.4h2.3c0.8 0 1.3 0.6 1.3 1.3z"/>
							</g>
						</g>
					</g>
					<g id="&lt;Group&gt;">
						<g id="&lt;Group&gt;">
							<path id="&lt;Path&gt;" class="s14" d="m198 79.3q0-0.1 0-0.1c0.5-3.1 1.7-6.9 3.1-10.8q0.1-0.1 0.1-0.3l2.1 0.5-1.2 12.8 9.2 4.2-1.6 1.6-1.1 1.6-1.7 2.5c-2.4-0.7-8.5-6.2-8.9-7.8-0.2-1.1-0.2-2.6 0-4.2z"/>
							<path id="&lt;Path&gt;" class="s13" d="m201.2 68.1q-0.7-1.7-0.2-2.6c0.6-1.1 3-0.6 3.4 0.1 0.4 0.7-1 1.4-0.8 1.6 0.3 0.3 0.7-0.2 0.9 0.2q0.2 0.3-1.2 1.2z"/>
							<path id="&lt;Path&gt;" class="s16" d="m198 79.3q0-0.1 0-0.1c0.5-3.1 1.7-6.9 3.1-10.8q0.2 0.1 0.4 0.2c0.4 0.5 0.4 1.2 0.3 1.8-0.4 2.2-1.3 4.4-1.6 6.6-0.4 2.3-0.3 4.7 0.9 6.6 1.1 1.6 2.8 2.6 4.5 3.5 0.9 0.5 1.9 1 2.8 1.6q0.1 0 0.2 0.1l-1.7 2.5c-2.4-0.7-8.5-6.2-8.9-7.8-0.2-1.1-0.2-2.6 0-4.2z"/>
						</g>
						<g id="&lt;Group&gt;">
							<path id="&lt;Compound Path&gt;" fill-rule="evenodd" class="s9" d="m189.2 95.1c0.5-0.1 1 0.2 1.1 0.6l1.8 7.2h20.8l-1.7-6.7c-0.2-0.5 0.1-1 0.6-1.1 0.5-0.1 0.9 0.2 1.1 0.6l25.9 102.7c0.1 0.4-0.2 0.9-0.6 1q-0.1 0-0.2 0c-0.4 0-0.8-0.2-0.9-0.6l-3.9-15.4h-20.8l3.8 15c0.1 0.4-0.1 0.9-0.6 1q-0.1 0-0.2 0c-0.4 0-0.8-0.2-0.9-0.6l-25.9-102.6c-0.1-0.5 0.1-1 0.6-1.1zm3.3 9.5l2.9 11.4h20.8l-2.9-11.4zm6.2 24.5h20.8l-2.9-11.4h-20.8zm3.3 13.2h20.8l-2.9-11.4h-20.7zm3.3 13.1h20.8l-2.9-11.4h-20.8zm3.3 13.1h20.8l-2.9-11.3h-20.8zm24.1 13.1l-2.8-11.4h-20.8l2.9 11.4z"/>
						</g>
						<g id="&lt;Group&gt;">
							<path id="&lt;Path&gt;" class="s13" d="m211.8 149.4q0 0.7 0.7 1.7 0.6 1 0.4 2.2-4.2-0.3-3.9-1.1 0.3-0.8 0.1-1.4z"/>
							<g id="&lt;Group&gt;">
								<path id="&lt;Path&gt;" class="s4" d="m215.5 109.8c-0.7 10.5-4.3 14.4-4.3 18.4q0 4.1 1.4 21.7c-0.5 0.7-3.3 1.1-4.3 0.7-2.1-9.9-4-21.3-3.9-24.6 0.1-3.9 0.9-10.5 3.1-16.9z"/>
							</g>
							<g id="&lt;Group&gt;">
								<path id="&lt;Path&gt;" class="s14" d="m213.2 152.5q0.9 1.5 0.2 2.8c-3.2 0-6.4 0.1-9.5 0 0-1.2 3.1-2.8 4.9-3.2q2.1 1.2 4.4 0.4z"/>
							</g>
						</g>
						<g id="&lt;Group&gt;">
							<path id="&lt;Path&gt;" class="s13" d="m224.6 147.3q0.2 0.7 1 1.5 0.9 0.9 0.9 2-4.2 0.6-4.1-0.2 0.2-0.9-0.1-1.4z"/>
							<g id="&lt;Group&gt;">
								<path id="&lt;Path&gt;" class="s4" d="m220.2 107.8c1.4 10.4-1.3 14.9-0.4 18.9q0.8 3.9 5.8 20.9c-0.4 0.8-3.1 1.8-4.1 1.6-4.1-9.3-8.3-20.1-8.9-23.4-0.6-3.7-1.3-10.4-0.4-17.1z"/>
							</g>
							<g id="&lt;Group&gt;">
								<path id="&lt;Path&gt;" class="s14" d="m226.6 150q1.2 1.3 0.9 2.7c-3.2 0.7-6.3 1.5-9.4 1.9-0.2-1.1 2.5-3.3 4.1-4.1q2.3 0.8 4.4-0.5z"/>
							</g>
						</g>
						<path id="&lt;Path&gt;" class="s14" d="m200 96.4q-0.3-0.9-0.6-1.9-0.5-1.9-1-3.9 0.1-0.1 0.3-0.2c3.1-2.9 9.3-5.4 12.3-4.9 3.7 1.3 5 12.4 9.2 22.2-0.8 1.7-5.4 4-9.3 5.1-1.9 0.5-3.6 0.7-4.7 0.5-2.2-3.8-4.2-10-6.2-16.9z"/>
						<g id="&lt;Group&gt;">
							<path id="&lt;Path&gt;" class="s13" d="m203 87.8c0-1.1-0.4-2.2-0.8-3.3l3.1-1.1c0.4 1.1 0.1 2.3 0.9 3-0.1 0.7-2.8 1.8-3.2 1.4z"/>
						</g>
						<g id="&lt;Group&gt;">
							<path id="&lt;Path&gt;" class="s13" d="m206.1 84.7c-1.8 0.6-3.8 1.1-4.7 0.2-1-1.6-1.5-6.1-1.2-8.6l7.1 0.6z"/>
						</g>
						<path id="&lt;Path&gt;" class="s23" d="m206.8 84.1c-0.8 0.6 0 1.6-2.5 1.5-1.5-0.1-2.3-1.7-1.9-3 0.8-0.4 1.7-0.8 1.8-1.4 0.2-0.5-0.1-0.8-0.6-1.1-0.3 0.2-0.7 0.6-1 1l-0.5-0.8 0.8-1.7c-1.7-0.1-3.1-0.3-3.3-1.2-0.7-1.3-0.5-2.7 0.1-3.6 1.5 0.9 2.9 1.2 4.7 0.7 1.5-0.2 3 1.9 3.9 2.8 1.6 1.7 1.5 4.8-1.5 6.8z"/>
						<path id="&lt;Path&gt;" class="s16" d="m208.8 152.1q0.1 0 0.2 0.1 0.2-0.8 0.1-1.4c-0.3-0.1-0.6-0.1-0.8-0.2-2.1-9.9-4-21.3-3.9-24.7 0.1-3 0.6-7.8 1.9-12.9 0.7 0.3 3.7-0.3 4.6-0.2 0 0-5.3 13.8-3.7 23.1 1.1 6 2.8 11 3.6 14q0.1 0.4 0.2 0.7c0.2 1 0.3 1.8 0.1 2.2q0 0.1-0.1 0.2h-0.1c-1 0.8-3.9 2-6.6 1.5 0.8-1 3.1-2.1 4.5-2.4z"/>
						<path id="&lt;Path&gt;" class="s16" d="m215 118.3c-1.2 2.9-1.1 4.9 0 8.8 1 3.4 6.3 16 8.5 21.1q0.1 0.3 0.2 0.6c0.4 0.7 0.6 1.2 0.7 1.4q0.1 0.3 0 0.6 0 0.1-0.1 0.2c-0.6 1.2-3.7 2.3-5.9 2.8 0.6-1.2 2.6-2.7 3.8-3.3q0.1 0 0.2 0.1c0.1-0.8-0.1-1.3-0.1-1.4q-0.5 0-0.8 0c-4.1-9.3-8.3-20.1-8.9-23.4q-0.1-0.7-0.2-1.5c0.7-3 2.4-5.7 2.6-6z"/>
						<path id="&lt;Path&gt;" class="s14" d="m185.9 91.3q-0.1 0-0.1 0c-0.6-3.2-0.9-7.3-0.9-11.5l2.1-0.4 3.4 12.4 8.2-1.5 0.1 0.1 0.9 4.1 0.4 1.9c-2.5 0.2-11.7 0.2-12.7-1.1-0.6-1-1.1-2.4-1.4-4z"/>
						<path id="&lt;Path&gt;" class="s13" d="m184.9 79.1q-2-1.4-2.3-2.5c-0.3-1.1 2.2-1.9 2.9-1.7 0.8 0.2 0.4 1.7 0.5 1.6 0.2-0.1 0.5-1.1 0.6-0.7 0.1 0.2 0 3.7 0.3 3.6l-1.8 0.3z"/>
						<path id="&lt;Path&gt;" class="s16" d="m185.9 91.3q0.1 0.1 0.2 0.3c1.1 1.3 2.6 2.3 4.3 2.8 1.8 0.6 3.8 0.6 5.8 0.5 1.1 0 2.2-0.1 3.2-0.4q0.1 0 0.2 0c1-0.2 2-0.5 3-0.9-0.6 0.3-0.6 1-0.6 1.7 0.1 3.7 1.3 7.8 4.2 10.1 0.7 0.5 1.5 1 2.1 1.5 1.6 1.4 2.6 3.5 2.6 5.6q0 0.1 0 0.3c-1.9 0.5-3.6 0.7-4.7 0.5-2.2-3.8-4.2-10-6.2-16.9-2.5 0.2-11.7 0.2-12.7-1.1-0.6-1-1.1-2.4-1.4-4z"/>
						<g id="&lt;Group&gt;">
							<path id="&lt;Path&gt;" class="s9" d="m207.3 60.1c-2.7 10.6-13.6 16.9-24.2 14.1l1.5-17.2 3.5-2z"/>
							<path id="&lt;Path&gt;" class="s6" d="m203.9 62.1c-2.8 10.6-13.7 16.9-24.3 14.1l5-19.2z"/>
						</g>
					</g>
				</g>
			</g>
		</g>
	</g>
</svg>