<svg version="1.2" xmlns="http://www.w3.org/2000/svg" viewBox="0 0 300 225" width="1000" height="750">
	<title>Illustration_Career Business-ai</title>
	<defs>
		<linearGradient id="g1" x1="274.9" y1="67.6" x2="286.1" y2="213.2" gradientUnits="userSpaceOnUse">
			<stop offset="0" stop-color="#7035bb"/>
			<stop offset="1" stop-color="#36164d"/>
		</linearGradient>
		<linearGradient id="g2" x1="277.2" y1="59.7" x2="276.2" y2="161.3" gradientUnits="userSpaceOnUse">
			<stop offset="0" stop-color="#ffffff"/>
			<stop offset="1" stop-color="#000000"/>
		</linearGradient>
		<linearGradient id="g3" x1="267.2" y1="47.7" x2="297.8" y2="223.6" gradientUnits="userSpaceOnUse">
			<stop offset="0" stop-color="#ffffff"/>
			<stop offset="1" stop-color="#000000"/>
		</linearGradient>
		<clipPath clipPathUnits="userSpaceOnUse" id="cp1">
			<path d="m272.97 103.04q-0.01 0.22-0.02 0.44-0.15 1.58-0.4 3.15-0.05 0.37-0.11 0.73-0.24 1.45-0.57 2.9-0.01 0.09-0.03 0.18-0.36 1.53-0.8 3.05-0.11 0.36-0.22 0.72-0.39 1.31-0.85 2.6-0.08 0.23-0.16 0.46-0.54 1.49-1.16 2.95-0.14 0.32-0.28 0.64-0.54 1.23-1.13 2.44-0.14 0.28-0.28 0.56-0.72 1.43-1.5 2.82-0.14 0.23-0.28 0.47-0.69 1.19-1.44 2.35-0.18 0.29-0.37 0.57-0.88 1.35-1.83 2.65-0.08 0.1-0.16 0.21-0.88 1.19-1.82 2.32-0.21 0.26-0.43 0.52-2.06 2.45-4.35 4.62-0.23 0.22-0.46 0.43-1.13 1.05-2.3 2.01-0.02 0.02-0.05 0.04-1.22 1-2.49 1.9-0.23 0.16-0.46 0.32-1.15 0.81-2.33 1.53-0.14 0.08-0.27 0.17-1.32 0.78-2.67 1.46-0.22 0.11-0.43 0.21-1.19 0.58-2.41 1.08-0.22 0.09-0.44 0.18-1.39 0.55-2.8 0.98-0.18 0.05-0.36 0.1-1.25 0.36-2.52 0.62-0.29 0.06-0.58 0.12-1.43 0.28-2.89 0.43-0.12 0.01-0.24 0.01-1.32 0.12-2.66 0.12-0.35 0.01-0.71 0-1.46-0.02-2.93-0.17c-13.54-1.53-21.98 2.05-28.63 8.25-14.95 13.92-20.87 40.91-55.08 52.24-38.63 12.77-75.47 10.55-91.68-3.27-4.56-3.84-7.47-8.61-8.37-14.22q-0.21-1.34-0.37-2.65-0.05-0.49-0.1-0.97-0.08-0.81-0.15-1.62-0.04-0.55-0.07-1.1-0.04-0.71-0.07-1.41-0.02-0.58-0.02-1.14-0.02-0.66-0.02-1.31 0.01-0.58 0.03-1.16 0.01-0.61 0.04-1.22 0.03-0.58 0.07-1.15 0.04-0.59 0.09-1.17 0.06-0.57 0.12-1.14 0.06-0.56 0.14-1.11 0.08-0.58 0.17-1.14 0.08-0.53 0.17-1.06 0.11-0.56 0.22-1.12 0.1-0.51 0.21-1.01 0.13-0.56 0.26-1.1 0.12-0.5 0.25-0.98 0.15-0.55 0.31-1.08 0.13-0.48 0.28-0.95 0.17-0.53 0.34-1.06 0.15-0.45 0.31-0.9 0.19-0.53 0.39-1.06 0.16-0.43 0.33-0.85 0.21-0.53 0.44-1.05 0.17-0.41 0.34-0.81 0.24-0.53 0.48-1.05 0.18-0.38 0.36-0.76 0.26-0.53 0.52-1.04 0.18-0.36 0.37-0.72 0.28-0.52 0.56-1.04 0.19-0.34 0.38-0.67 0.3-0.53 0.6-1.05 0.19-0.3 0.37-0.6 0.33-0.54 0.66-1.07 0.17-0.27 0.35-0.54 0.35-0.55 0.72-1.09 0.15-0.23 0.31-0.46 0.39-0.57 0.79-1.14 0.13-0.18 0.26-0.36 0.43-0.6 0.87-1.19 0.09-0.13 0.19-0.25 0.48-0.64 0.97-1.27 0.04-0.05 0.08-0.1c6.96-8.9 15.01-15.93 19.89-22.66q0.01-0.01 0.02-0.02 0.39-0.54 0.75-1.08 0.04-0.06 0.07-0.11 0.33-0.49 0.64-0.98 0.06-0.1 0.12-0.2 0.27-0.45 0.52-0.9 0.07-0.13 0.14-0.26 0.23-0.42 0.44-0.84 0.07-0.15 0.15-0.31 0.18-0.39 0.34-0.78 0.09-0.18 0.16-0.37 0.14-0.36 0.27-0.71 0.07-0.22 0.14-0.44 0.11-0.33 0.2-0.66 0.06-0.25 0.12-0.49 0.07-0.3 0.13-0.6 0.06-0.28 0.1-0.56 0.04-0.26 0.06-0.52 0.04-0.32 0.07-0.64 0.01-0.23 0.01-0.45 0.01-0.36 0.01-0.72-0.01-0.18-0.02-0.36-0.02-0.41-0.07-0.83-0.02-0.11-0.03-0.23-0.07-0.48-0.17-0.96-0.01-0.04-0.02-0.09c-0.86-3.85-3.52-7.94-8.67-12.52q-1.7-1.54-3.77-3.12c-40.29-30.86 13.16-91.91 46.24-85.13q1.86 0.36 3.64 1.05c32.58 12.46 31.17 41.29 112.95 47.23 15.95 1.15 27.07 5.94 34.27 12.79q1.48 1.42 2.74 2.94 0.39 0.49 0.75 0.98 0.85 1.08 1.59 2.21 0.37 0.57 0.71 1.14 0.69 1.16 1.29 2.37 0.26 0.51 0.51 1.03 1.56 3.49 2.36 7.23 0.1 0.52 0.19 1.04 0.26 1.37 0.42 2.77 0.07 0.62 0.13 1.25 0.11 1.36 0.13 2.74 0.02 0.59 0.03 1.19-0.02 1.7-0.15 3.41z"/>
		</clipPath>
		<linearGradient id="g4" x1=".9" y1="175.6" x2="29.6" y2="134.4" gradientUnits="userSpaceOnUse">
			<stop offset="0" stop-color="#ffffff"/>
			<stop offset="1" stop-color="#000000"/>
		</linearGradient>
		<linearGradient id="g5" x1="10.5" y1="209.1" x2="52.5" y2="191.6" gradientUnits="userSpaceOnUse">
			<stop offset="0" stop-color="#ffffff"/>
			<stop offset="1" stop-color="#000000"/>
		</linearGradient>
		<linearGradient id="g6" x1="58.5" y1="166.3" x2="46.6" y2="204.4" gradientUnits="userSpaceOnUse">
			<stop offset="0" stop-color="#ffffff"/>
			<stop offset="1" stop-color="#000000"/>
		</linearGradient>
		<linearGradient id="g7" x1="253.7" y1="136.7" x2="232.8" y2="139.6" gradientUnits="userSpaceOnUse">
			<stop offset="0" stop-color="#ffffff"/>
			<stop offset="1" stop-color="#000000"/>
		</linearGradient>
		<linearGradient id="g8" x1="222.5" y1="130.8" x2="241.1" y2="140.6" gradientUnits="userSpaceOnUse">
			<stop offset="0" stop-color="#ffffff"/>
			<stop offset="1" stop-color="#000000"/>
		</linearGradient>
		<linearGradient id="g9" x1="77.4" y1="142.2" x2="135.9" y2="142.2" gradientUnits="userSpaceOnUse">
			<stop offset="0" stop-color="#ffffff"/>
			<stop offset="1" stop-color="#000000"/>
		</linearGradient>
		<linearGradient id="g10" x1="247.5" y1="68.5" x2="248.8" y2="113.9" gradientUnits="userSpaceOnUse">
			<stop offset="0" stop-color="#ffffff"/>
			<stop offset="1" stop-color="#000000"/>
		</linearGradient>
		<linearGradient id="g11" x1="204.9" y1="75.3" x2="213.2" y2="75.3" gradientUnits="userSpaceOnUse">
			<stop offset="0" stop-color="#ffffff"/>
			<stop offset="1" stop-color="#000000"/>
		</linearGradient>
		<linearGradient id="g12" x1="130.7" y1="125.8" x2="139" y2="125.8" gradientUnits="userSpaceOnUse">
			<stop offset="0" stop-color="#ffffff"/>
			<stop offset="1" stop-color="#000000"/>
		</linearGradient>
		<linearGradient id="g13" x1="82.1" y1="151.3" x2="90.4" y2="151.3" gradientUnits="userSpaceOnUse">
			<stop offset="0" stop-color="#ffffff"/>
			<stop offset="1" stop-color="#000000"/>
		</linearGradient>
		<linearGradient id="g14" x1="158.3" y1="125.2" x2="190.5" y2="125.2" gradientUnits="userSpaceOnUse">
			<stop offset="0" stop-color="#ffffff"/>
			<stop offset="1" stop-color="#000000"/>
		</linearGradient>
		<linearGradient id="g15" x1="157.7" y1="86.2" x2="173.7" y2="86.2" gradientUnits="userSpaceOnUse">
			<stop offset="0" stop-color="#ffffff"/>
			<stop offset="1" stop-color="#000000"/>
		</linearGradient>
		<linearGradient id="g16" x1="89.4" y1="75.4" x2="112.4" y2="75.4" gradientUnits="userSpaceOnUse">
			<stop offset="0" stop-color="#ffffff"/>
			<stop offset="1" stop-color="#000000"/>
		</linearGradient>
		<linearGradient id="g17" x1="164" y1="47.8" x2="165.7" y2="54.8" gradientUnits="userSpaceOnUse">
			<stop offset="0" stop-color="#ffffff"/>
			<stop offset="1" stop-color="#000000"/>
		</linearGradient>
		<linearGradient id="g18" x1="142.8" y1="8.5" x2="148.8" y2="24.1" gradientUnits="userSpaceOnUse">
			<stop offset="0" stop-color="#ffffff"/>
			<stop offset="1" stop-color="#000000"/>
		</linearGradient>
		<linearGradient id="g19" x1="64.8" y1="40.2" x2="111.2" y2="40.2" gradientUnits="userSpaceOnUse">
			<stop offset="0" stop-color="#ffffff"/>
			<stop offset="1" stop-color="#000000"/>
		</linearGradient>
	</defs>
	<style>
		.s0 { fill: url(#g1) } 
		.s1 { opacity: .5;mix-blend-mode: overlay;fill: url(#g2) } 
		.s2 { opacity: .5;mix-blend-mode: overlay;fill: url(#g3) } 
		.s3 { fill: #ffffff } 
		.s4 { fill: #7035bb } 
		.s5 { mix-blend-mode: overlay;fill: url(#g4) } 
		.s6 { fill: #ff4777 } 
		.s7 { mix-blend-mode: overlay;fill: url(#g5) } 
		.s8 { mix-blend-mode: overlay;fill: url(#g6) } 
		.s9 { fill: #f3effe } 
		.s10 { mix-blend-mode: overlay;fill: url(#g7) } 
		.s11 { mix-blend-mode: overlay;fill: url(#g8) } 
		.s12 { fill: #36164d } 
		.s13 { opacity: .5;mix-blend-mode: overlay;fill: url(#g9) } 
		.s14 { opacity: .5;mix-blend-mode: overlay;fill: url(#g10) } 
		.s15 { opacity: .5;mix-blend-mode: overlay;fill: url(#g11) } 
		.s16 { opacity: .5;mix-blend-mode: overlay;fill: url(#g12) } 
		.s17 { opacity: .5;mix-blend-mode: overlay;fill: url(#g13) } 
		.s18 { opacity: .5;mix-blend-mode: overlay;fill: url(#g14) } 
		.s19 { opacity: .5;mix-blend-mode: overlay;fill: url(#g15) } 
		.s20 { opacity: .5;mix-blend-mode: overlay;fill: url(#g16) } 
		.s21 { fill: #f4d5b5 } 
		.s22 { opacity: .5;mix-blend-mode: overlay;fill: url(#g17) } 
		.s23 { opacity: .5;mix-blend-mode: overlay;fill: url(#g18) } 
		.s24 { opacity: .1;fill: #000000 } 
		.s25 { opacity: .5;mix-blend-mode: overlay;fill: url(#g19) } 
	</style>
	<g id="Layer 1">
		<g id="&lt;Group&gt;">
			<g id="Career Business 1 ">
				<g id="&lt;Group&gt;">
					<g id="&lt;Group&gt;">
						<path id="&lt;Path&gt;" class="s0" d="m272.9 103.5c-2.2 25.1-24.1 51.1-48.1 48.4-13.6-1.5-22 2.1-28.7 8.3-14.9 13.9-20.8 40.9-55 52.2-38.7 12.8-75.5 10.6-91.7-3.2-4.6-3.9-7.5-8.7-8.4-14.3-9-56.4 61.1-65.5 27.9-95q-1.7-1.5-3.7-3.1c-40.3-30.9 13.1-91.9 46.2-85.1q1.9 0.3 3.7 1c32.5 12.5 31.1 41.3 112.9 47.2 16 1.2 27.1 6 34.3 12.8 8.6 8.3 11.7 19.4 10.6 30.8z"/>
						<path id="&lt;Path&gt;" class="s1" d="m224.8 151.9c-13.6-1.5-22 2.1-28.7 8.3-12.9-4.6-25.9-9.5-39.4-11.9-29-5-61.7 3.3-79.9 26.5-8.8 11.2-14.3 25.4-26.1 33.5q-0.6 0.4-1.3 0.9c-4.6-3.9-7.5-8.7-8.4-14.3-9.3-58.3 66-66.1 24.2-98.1-40.3-30.9 13.1-91.9 46.2-85.1-1.9 7.5-2.1 15.5-0.7 23.1 2 11.4 7.6 22.3 16.3 30 16 14.3 38.8 17.4 60.1 19.1 8.5 0.7 17.1 1.2 25.5 0.1 16.9-2.2 33-10.9 49.7-11.3 27.8 26.4-2.6 83.2-37.5 79.2z"/>
						<path id="&lt;Path&gt;" class="s2" d="m272.9 103.5c-2.2 25.1-24.1 51.1-48.1 48.4-13.6-1.5-22 2.1-28.7 8.3-14.9 13.9-20.8 40.9-55 52.2-38.7 12.8-75.5 10.6-91.7-3.2-4.6-3.9-7.5-8.7-8.4-14.3-9-56.4 61.1-65.5 27.9-95 25.3 7.5 53.5 4.7 76.7-7.8 16.1-8.8 30.3-22.2 48.3-26 15.6-3.3 32 1.2 45.7 9.3 12.6 7.4 23.2 17.6 33.3 28.1z"/>
					</g>
					<g id="&lt;Clip Group&gt;" clip-path="url(#cp1)">
						<g id="&lt;Group&gt;" style="opacity: .5;mix-blend-mode: overlay">
							<g id="&lt;Group&gt;">
								<g id="&lt;Group&gt;">
									<path id="&lt;Compound Path&gt;" fill-rule="evenodd" class="s3" d="m146.3 119.1l0.7-6.2 5.2-7.3-0.7 6.2v0.1zm1.1-6.1l-0.5 4.6 4.2-6 0.5-4.5z"/>
								</g>
							</g>
							<g id="&lt;Group&gt;">
								<g id="&lt;Group&gt;">
									<path id="&lt;Compound Path&gt;" fill-rule="evenodd" class="s3" d="m145.8 119.6l1.2-6.8 5.7-7.6-1.2 6.8zm1.6-6.6l-0.9 5 4.7-6.1 0.8-5.1z"/>
								</g>
							</g>
							<g id="&lt;Group&gt;">
								<g id="&lt;Group&gt;">
									<path id="&lt;Compound Path&gt;" fill-rule="evenodd" class="s3" d="m145.3 120l1.7-7.4 6.3-7.8-1.8 7.4zm2.1-7.2l-1.3 5.5 5.1-6.4 1.3-5.5z"/>
								</g>
							</g>
							<g id="&lt;Group&gt;">
								<g id="&lt;Group&gt;">
									<path id="&lt;Compound Path&gt;" fill-rule="evenodd" class="s3" d="m144.7 120.4l2.4-8 6.7-8-2.3 7.9zm2.7-7.7l-1.8 6 5.5-6.6 1.7-5.9z"/>
								</g>
							</g>
							<g id="&lt;Group&gt;">
								<g id="&lt;Group&gt;">
									<path id="&lt;Compound Path&gt;" fill-rule="evenodd" class="s3" d="m144.2 120.8l2.9-8.5 7.3-8.3-3 8.5zm3.3-8.3l-2.2 6.5 5.9-6.7 2.2-6.5z"/>
								</g>
							</g>
							<g id="&lt;Group&gt;">
								<g id="&lt;Group&gt;">
									<path id="&lt;Compound Path&gt;" fill-rule="evenodd" class="s3" d="m143.6 121.2l3.6-9.1 7.8-8.5-3.6 9.1zm3.9-8.9l-2.7 7.1 6.3-6.9 2.8-7z"/>
								</g>
							</g>
							<g id="&lt;Group&gt;">
								<g id="&lt;Group&gt;">
									<path id="&lt;Compound Path&gt;" fill-rule="evenodd" class="s3" d="m143 121.5l4.2-9.7 8.4-8.6-4.3 9.7zm4.6-9.4l-3.3 7.6 6.8-7 3.3-7.6z"/>
								</g>
							</g>
							<g id="&lt;Group&gt;">
								<g id="&lt;Group&gt;">
									<path id="&lt;Compound Path&gt;" fill-rule="evenodd" class="s3" d="m142.3 121.9l5-10.3 8.9-8.7-5 10.3zm5.3-10l-3.9 8.1 7.2-7.1 3.9-8.1z"/>
								</g>
							</g>
							<g id="&lt;Group&gt;">
								<g id="&lt;Group&gt;">
									<path id="&lt;Compound Path&gt;" fill-rule="evenodd" class="s3" d="m141.7 122.2l5.7-10.8 9.4-8.8-5.7 10.8zm6-10.5l-4.5 8.6 7.7-7.1 4.5-8.7z"/>
								</g>
							</g>
							<g id="&lt;Group&gt;">
								<g id="&lt;Group&gt;">
									<path id="&lt;Compound Path&gt;" fill-rule="evenodd" class="s3" d="m141.1 122.5l6.4-11.4 10-8.8-6.5 11.4zm6.8-11.1l-5.2 9.2 8.1-7.2 5.2-9.2z"/>
								</g>
							</g>
							<g id="&lt;Group&gt;">
								<g id="&lt;Group&gt;">
									<path id="&lt;Compound Path&gt;" fill-rule="evenodd" class="s3" d="m140.4 122.7l7.3-11.9 10.4-8.7-7.2 11.9zm7.5-11.6l-5.9 9.7 8.6-7.2 5.9-9.7z"/>
								</g>
							</g>
							<g id="&lt;Group&gt;">
								<g id="&lt;Group&gt;">
									<path id="&lt;Compound Path&gt;" fill-rule="evenodd" class="s3" d="m139.8 122.9l8-12.4 11-8.6-8.1 12.4zm8.3-12.1l-6.6 10.2 9-7.1 6.6-10.2z"/>
								</g>
							</g>
							<g id="&lt;Group&gt;">
								<g id="&lt;Group&gt;">
									<path id="&lt;Compound Path&gt;" fill-rule="evenodd" class="s3" d="m139.2 123.1l8.8-12.9 11.4-8.5-8.9 12.9zm9.2-12.6l-7.4 10.8 9.4-7 7.4-10.8z"/>
								</g>
							</g>
							<g id="&lt;Group&gt;">
								<g id="&lt;Group&gt;">
									<path id="&lt;Compound Path&gt;" fill-rule="evenodd" class="s3" d="m138.5 123.2l9.7-13.3 11.8-8.3-9.7 13.3zm10-13l-8.2 11.3 9.8-6.9 8.2-11.3z"/>
								</g>
							</g>
							<g id="&lt;Group&gt;">
								<g id="&lt;Group&gt;">
									<path id="&lt;Compound Path&gt;" fill-rule="evenodd" class="s3" d="m137.9 123.3l10.5-13.8 12.3-8-10.6 13.8zm10.8-13.5l-9 11.8 10.2-6.7 9-11.7z"/>
								</g>
							</g>
							<g id="&lt;Group&gt;">
								<g id="&lt;Group&gt;">
									<path id="&lt;Compound Path&gt;" fill-rule="evenodd" class="s3" d="m137.3 123.3l11.4-14.1 12.6-7.7-11.4 14.1zm11.6-13.8l-9.9 12.3 10.6-6.5 9.9-12.2z"/>
								</g>
							</g>
							<g id="&lt;Group&gt;">
								<g id="&lt;Group&gt;">
									<path id="&lt;Compound Path&gt;" fill-rule="evenodd" class="s3" d="m136.7 123.2l12.3-14.4 12.9-7.2-12.3 14.4zm12.5-14.1l-10.8 12.6 11-6.1 10.7-12.6z"/>
								</g>
							</g>
							<g id="&lt;Group&gt;">
								<g id="&lt;Group&gt;">
									<path id="&lt;Compound Path&gt;" fill-rule="evenodd" class="s3" d="m136.1 123.1l13.2-14.7 13.2-6.7-13.2 14.7zm13.4-14.4l-11.7 13 11.2-5.7 11.7-13z"/>
								</g>
							</g>
							<g id="&lt;Group&gt;">
								<g id="&lt;Group&gt;">
									<path id="&lt;Compound Path&gt;" fill-rule="evenodd" class="s3" d="m135.5 122.9l14.1-14.9 13.4-6.1-14.1 14.9zm14.3-14.6l-12.5 13.4 11.4-5.3 12.6-13.4z"/>
								</g>
							</g>
							<g id="&lt;Group&gt;">
								<g id="&lt;Group&gt;">
									<path id="&lt;Compound Path&gt;" fill-rule="evenodd" class="s3" d="m135 122.7l15-15.1 13.5-5.5-14.9 15.1zm15.1-14.7l-13.4 13.6 11.7-4.7 13.4-13.7z"/>
								</g>
							</g>
							<g id="&lt;Group&gt;">
								<g id="&lt;Group&gt;">
									<path id="&lt;Compound Path&gt;" fill-rule="evenodd" class="s3" d="m134.5 122.4l15.9-15.2 13.6-4.8-15.8 15.2zm16-14.8l-14.4 13.8 11.9-4.1 14.4-13.8z"/>
								</g>
							</g>
							<g id="&lt;Group&gt;">
								<g id="&lt;Group&gt;">
									<path id="&lt;Compound Path&gt;" fill-rule="evenodd" class="s3" d="m134.1 122l16.7-15.3 13.7-3.9-16.7 15.3zm16.8-14.9l-15.3 14 12-3.4 15.3-14z"/>
								</g>
							</g>
							<g id="&lt;Group&gt;">
								<g id="&lt;Group&gt;">
									<path id="&lt;Compound Path&gt;" fill-rule="evenodd" class="s3" d="m133.7 121.5l17.5-15.2 13.7-3-17.6 15.2zm17.7-14.8l-16.2 14.1 12.1-2.7 16.2-14z"/>
								</g>
							</g>
							<g id="&lt;Group&gt;">
								<g id="&lt;Group&gt;">
									<path id="&lt;Compound Path&gt;" fill-rule="evenodd" class="s3" d="m133.3 120.9l18.3-15.1h0.1l13.5-1.9-18.3 15zm18.4-14.6l-17.1 14 12.1-1.7 17.1-14.1z"/>
								</g>
							</g>
							<g id="&lt;Group&gt;">
								<g id="&lt;Group&gt;">
									<path id="&lt;Compound Path&gt;" fill-rule="evenodd" class="s3" d="m133 120.2l0.5-0.4 18.6-14.4 13.4-0.9-0.5 0.4-18.6 14.5zm19.3-14.5l-18 14 12-0.8 18-13.9z"/>
								</g>
							</g>
							<g id="&lt;Group&gt;">
								<g id="&lt;Group&gt;">
									<path id="&lt;Compound Path&gt;" fill-rule="evenodd" class="s3" d="m145.9 119.8h-0.1l-13-0.3 0.5-0.4 19.3-14.1h0.1l13.1 0.3-0.5 0.3zm-11.9-0.7l11.8 0.3 18.8-13.7-11.8-0.3z"/>
								</g>
							</g>
							<g id="&lt;Group&gt;">
								<g id="&lt;Group&gt;">
									<path id="&lt;Compound Path&gt;" fill-rule="evenodd" class="s3" d="m145.4 120.3h-0.1l-12.7-1.7 20.6-14.1h0.1l12.6 1.7zm-11.6-2l11.5 1.5 19.6-13.4-11.5-1.5z"/>
								</g>
							</g>
							<g id="&lt;Group&gt;">
								<g id="&lt;Group&gt;">
									<path id="&lt;Compound Path&gt;" fill-rule="evenodd" class="s3" d="m144.8 120.7l-12.3-3 21.3-13.6 12.2 3zm-11.2-3.2l11.2 2.8 20.3-13-11.2-2.8z"/>
								</g>
							</g>
							<g id="&lt;Group&gt;">
								<g id="&lt;Group&gt;">
									<path id="&lt;Compound Path&gt;" fill-rule="evenodd" class="s3" d="m144.2 121.2l-11.7-4.6 0.4-0.2 21.5-12.8 11.7 4.6zm-10.8-4.7l10.7 4.2 21-12.4-10.7-4.2z"/>
								</g>
							</g>
							<g id="&lt;Group&gt;">
								<g id="&lt;Group&gt;">
									<path id="&lt;Compound Path&gt;" fill-rule="evenodd" class="s3" d="m143.5 121.6v-0.1l-10.9-6.1 22.4-12.2 0.1 0.1 10.9 6.1zm-10.2-6.2l10.2 5.7 21.6-11.8-10.2-5.7z"/>
								</g>
							</g>
							<g id="&lt;Group&gt;">
								<g id="&lt;Group&gt;">
									<path id="&lt;Compound Path&gt;" fill-rule="evenodd" class="s3" d="m142.9 122l-10.2-7.9 23-11.3 10.1 7.8zm-9.4-7.7l9.5 7.3 22.1-11-9.5-7.3z"/>
								</g>
							</g>
							<g id="&lt;Group&gt;">
								<g id="&lt;Group&gt;">
									<path id="&lt;Compound Path&gt;" fill-rule="evenodd" class="s3" d="m142.2 122.4l-0.1-0.1-9.1-9.6 0.2-0.1 23.1-10.2 0.1 0.1 9.2 9.6-0.3 0.1zm-8.5-9.5l8.6 9 22.6-10-8.7-9z"/>
								</g>
							</g>
							<g id="&lt;Group&gt;">
								<g id="&lt;Group&gt;">
									<path id="&lt;Compound Path&gt;" fill-rule="evenodd" class="s3" d="m141.5 122.7l-0.1-0.1-8.1-11.4 23.7-9.2 0.1 0.2 8.1 11.4zm-7.5-11.4l7.7 10.9 22.9-8.9-7.7-10.8z"/>
								</g>
							</g>
							<g id="&lt;Group&gt;">
								<g id="&lt;Group&gt;">
									<path id="&lt;Compound Path&gt;" fill-rule="evenodd" class="s3" d="m140.8 123.1l-7-13.6h0.3l23.6-7.8 7 13.5-0.2 0.1zm-6.4-13.3l6.6 12.8 23.1-7.6-6.6-12.8z"/>
								</g>
							</g>
							<g id="&lt;Group&gt;">
								<g id="&lt;Group&gt;">
									<path id="&lt;Compound Path&gt;" fill-rule="evenodd" class="s3" d="m140.1 123.4l-5.7-15.6 0.3-0.1 23.8-6.3 5.6 15.6-0.2 0.1zm-5.1-15.4l5.4 14.9 23.2-6.2-5.4-14.8z"/>
								</g>
							</g>
							<g id="&lt;Group&gt;">
								<g id="&lt;Group&gt;">
									<path id="&lt;Compound Path&gt;" fill-rule="evenodd" class="s3" d="m139.4 123.6l-0.1-0.1-4.1-17.7 24-4.7v0.2l4.2 17.6zm-3.7-17.4l4 17 23.2-4.6-4-17z"/>
								</g>
							</g>
							<g id="&lt;Group&gt;">
								<g id="&lt;Group&gt;">
									<path id="&lt;Compound Path&gt;" fill-rule="evenodd" class="s3" d="m138.6 123.9l-2.5-20.1 23.8-2.9 2.6 20.1zm-2.1-19.7l2.4 19.2 23.1-2.8-2.5-19.2z"/>
								</g>
							</g>
							<g id="&lt;Group&gt;">
								<g id="&lt;Group&gt;">
									<path id="&lt;Compound Path&gt;" fill-rule="evenodd" class="s3" d="m137.9 124v-0.2l-0.8-22.2h0.2l23.4-0.9v0.2l0.7 22.2-0.2 0.1zm-0.3-22.1l0.7 21.6 22.8-0.8-0.8-21.6z"/>
								</g>
							</g>
							<g id="&lt;Group&gt;">
								<g id="&lt;Group&gt;">
									<path id="&lt;Compound Path&gt;" fill-rule="evenodd" class="s3" d="m160.2 125.5l-0.2-0.1-22.8-1.3v-0.1l1.1-24.7h0.2l22.9 1.3v0.2zm-22.7-1.7l22.3 1.3 1.1-24-22.3-1.3z"/>
								</g>
							</g>
							<g id="&lt;Group&gt;">
								<g id="&lt;Group&gt;">
									<path id="&lt;Compound Path&gt;" fill-rule="evenodd" class="s3" d="m158.9 127.9l-22.5-3.7 0.1-0.2 3.2-27.1 22.4 3.7v0.2zm-22-4.1l21.6 3.6 3.2-26.5-21.7-3.6z"/>
								</g>
							</g>
							<g id="&lt;Group&gt;">
								<g id="&lt;Group&gt;">
									<path id="&lt;Compound Path&gt;" fill-rule="evenodd" class="s3" d="m157.3 130.5l-0.2-0.1-21.4-6.2 5.5-29.9 0.2 0.1 21.4 6.2zm-21.1-6.6l20.8 6.1 5.3-29.1-20.8-6.1z"/>
								</g>
							</g>
							<g id="&lt;Group&gt;">
								<g id="&lt;Group&gt;">
									<path id="&lt;Compound Path&gt;" fill-rule="evenodd" class="s3" d="m155.6 133.2l-20.6-9.1 0.1-0.1 7.8-32.4 20.6 9v0.2zm-20.1-9.2l19.8 8.6 7.7-31.7-19.8-8.7z"/>
								</g>
							</g>
							<g id="&lt;Group&gt;">
								<g id="&lt;Group&gt;">
									<path id="&lt;Compound Path&gt;" fill-rule="evenodd" class="s3" d="m153.7 136l-19.3-12 10.5-35.2 19.3 12zm-18.9-12.2l18.6 11.6 10.3-34.4-18.6-11.6z"/>
								</g>
							</g>
							<g id="&lt;Group&gt;">
								<g id="&lt;Group&gt;">
									<path id="&lt;Compound Path&gt;" fill-rule="evenodd" class="s3" d="m151.6 138.9l-0.2-0.2-17.7-14.9 13.3-37.9 0.2 0.2 17.6 14.9zm-17.4-15.3l17.2 14.6 13-37.1-17.2-14.6z"/>
								</g>
							</g>
							<g id="&lt;Group&gt;">
								<g id="&lt;Group&gt;">
									<path id="&lt;Compound Path&gt;" fill-rule="evenodd" class="s3" d="m149.3 142l-16.2-18.5 16.2-40.7 16.1 18.5zm-15.7-18.6l15.6 17.8 15.8-39.8-15.5-17.8z"/>
								</g>
							</g>
							<g id="&lt;Group&gt;">
								<g id="&lt;Group&gt;">
									<path id="&lt;Compound Path&gt;" fill-rule="evenodd" class="s3" d="m146.8 145.1l-0.3-0.3-13.9-21.7v-0.1l19.2-43.3 0.2 0.3 14 21.7v0.1zm-13.8-22.1l13.7 21.2 18.8-42.5-13.6-21.2z"/>
								</g>
							</g>
							<g id="&lt;Group&gt;">
								<g id="&lt;Group&gt;">
									<path id="&lt;Compound Path&gt;" fill-rule="evenodd" class="s3" d="m144 148.4l-0.2-0.4-11.8-25.4 0.1-0.1 22.4-46.1 0.2 0.4 11.8 25.3v0.1zm-11.6-25.7l11.6 24.8 22-45.3-11.5-24.8z"/>
								</g>
							</g>
							<g id="&lt;Group&gt;">
								<g id="&lt;Group&gt;">
									<path id="&lt;Compound Path&gt;" fill-rule="evenodd" class="s3" d="m141.1 151.7l-9.5-29.6v-0.1l25.9-48.9 9.5 29.6v0.1zm-9.1-29.6l9.1 28.6 25.4-48-9.1-28.6z"/>
								</g>
							</g>
							<g id="&lt;Group&gt;">
								<g id="&lt;Group&gt;">
									<path id="&lt;Compound Path&gt;" fill-rule="evenodd" class="s3" d="m137.9 155.1l-0.1-0.5-6.7-33.2 0.1-0.1 29.5-51.6 0.1 0.5 6.6 33.2v0.1zm-6.4-33.7l6.6 32.5 28.9-50.6-6.6-32.5z"/>
								</g>
							</g>
							<g id="&lt;Group&gt;">
								<g id="&lt;Group&gt;">
									<path id="&lt;Compound Path&gt;" fill-rule="evenodd" class="s3" d="m134.5 158.6l-3.7-38v-0.1l33.2-54.3 3.8 38h-0.1zm-3.3-37.8l3.6 36.6 32.5-53.2-3.5-36.7z"/>
								</g>
							</g>
							<g id="&lt;Group&gt;">
								<g id="&lt;Group&gt;">
									<path id="&lt;Compound Path&gt;" fill-rule="evenodd" class="s3" d="m130.9 162.1l-0.4-42.4 0.1-0.1 37-56.9 0.4 42.4zm0-42.2l0.4 40.9 36.3-55.8-0.4-40.9z"/>
								</g>
							</g>
							<g id="&lt;Group&gt;">
								<g id="&lt;Group&gt;">
									<path id="&lt;Compound Path&gt;" fill-rule="evenodd" class="s3" d="m127.1 165.6l3.2-46.9 0.1-0.1 41.1-59.4-3.3 46.9zm3.6-46.7l-3.1 45.3 40.2-58.2 3.2-45.3z"/>
								</g>
							</g>
							<g id="&lt;Group&gt;">
								<g id="&lt;Group&gt;">
									<path id="&lt;Compound Path&gt;" fill-rule="evenodd" class="s3" d="m123.1 169.1l7.2-51.6 45.2-61.9-7.2 51.7zm7.5-51.5l-6.9 50 44.3-60.6 6.9-49.9z"/>
								</g>
							</g>
							<g id="&lt;Group&gt;">
								<g id="&lt;Group&gt;">
									<path id="&lt;Compound Path&gt;" fill-rule="evenodd" class="s3" d="m118.8 172.7l11.5-56.5 49.4-64.1-11.4 56.5zm11.8-56.3l-11.1 54.6 48.4-62.6 11-54.6z"/>
								</g>
							</g>
							<g id="&lt;Group&gt;">
								<g id="&lt;Group&gt;">
									<path id="&lt;Compound Path&gt;" fill-rule="evenodd" class="s3" d="m114.4 176.1l0.2-0.9 15.8-60.4 53.8-66.2-0.3 0.9-15.7 60.5zm16.3-61.1l-15.5 59.4 52.6-64.7 15.5-59.4z"/>
								</g>
							</g>
							<g id="&lt;Group&gt;">
								<g id="&lt;Group&gt;">
									<path id="&lt;Compound Path&gt;" fill-rule="evenodd" class="s3" d="m109.8 179.5l0.3-0.9 20.5-65.3 58.2-68.1-0.3 1-20.5 65.3zm21.1-66l-20.2 64.3 56.9-66.5 20.2-64.3z"/>
								</g>
							</g>
							<g id="&lt;Group&gt;">
								<g id="&lt;Group&gt;">
									<path id="&lt;Compound Path&gt;" fill-rule="evenodd" class="s3" d="m105 182.9l25.9-71.3 62.7-69.7-26 71.3zm26.3-71.1l-25.2 69.3 61.2-68.1 25.2-69.2z"/>
								</g>
							</g>
							<g id="&lt;Group&gt;">
								<g id="&lt;Group&gt;">
									<path id="&lt;Compound Path&gt;" fill-rule="evenodd" class="s3" d="m100 186.1l0.4-1 31-75.4 67.2-71-0.5 1-31 75.4zm31.8-76.2l-30.6 74.3 65.6-69.4 30.6-74.3z"/>
								</g>
							</g>
							<g id="&lt;Group&gt;">
								<g id="&lt;Group&gt;">
									<path id="&lt;Compound Path&gt;" fill-rule="evenodd" class="s3" d="m94.9 189.2l0.4-1.1 36.8-80.4 71.6-72.1-0.5 1-36.7 80.4zm37.5-81.1l-36.2 79.3 70-70.5 36.2-79.3z"/>
								</g>
							</g>
							<g id="&lt;Group&gt;">
								<g id="&lt;Group&gt;">
									<path id="&lt;Compound Path&gt;" fill-rule="evenodd" class="s3" d="m89.6 192.1l0.5-1.1 42.8-85.4 76.1-72.9-0.6 1.1-42.7 85.4zm43.6-86.2l-42.2 84.3 74.4-71.3 42.2-84.3z"/>
								</g>
							</g>
							<g id="&lt;Group&gt;">
								<g id="&lt;Group&gt;">
									<path id="&lt;Compound Path&gt;" fill-rule="evenodd" class="s3" d="m84.2 194.8l0.6-1.1 49-90.4 80.5-73.3-49.5 91.5zm49.8-91.2l-48.4 89.3 78.8-71.7 48.4-89.3z"/>
								</g>
							</g>
							<g id="&lt;Group&gt;">
								<g id="&lt;Group&gt;">
									<path id="&lt;Compound Path&gt;" fill-rule="evenodd" class="s3" d="m78.7 197.2l0.6-1 55.6-95.3 84.9-73.3-0.6 1-55.6 95.3zm56.5-96.1l-54.9 94.2 83-71.7 55-94.2z"/>
								</g>
							</g>
							<g id="&lt;Group&gt;">
								<g id="&lt;Group&gt;">
									<path id="&lt;Compound Path&gt;" fill-rule="evenodd" class="s3" d="m73.2 199.4l0.6-1 62.4-100.1 89.2-72.9-0.6 1-62.5 100.1zm63.4-100.8l-61.7 99 87.2-71.4 61.7-99z"/>
								</g>
							</g>
							<g id="&lt;Group&gt;">
								<g id="&lt;Group&gt;">
									<path id="&lt;Compound Path&gt;" fill-rule="evenodd" class="s3" d="m67.5 201.3l0.7-1 69.5-104.8 93.3-72-0.7 1-69.5 104.8zm70.5-105.5l-68.8 103.7 91.3-70.6 68.8-103.6z"/>
								</g>
							</g>
							<g id="&lt;Group&gt;">
								<g id="&lt;Group&gt;">
									<path id="&lt;Compound Path&gt;" fill-rule="evenodd" class="s3" d="m61.9 202.8l0.7-1 76.8-109.2 97.3-70.7-0.7 1-76.9 109.3zm77.8-109.9l-76.1 108.1 95.3-69.2 76.1-108.2z"/>
								</g>
							</g>
							<g id="&lt;Group&gt;">
								<g id="&lt;Group&gt;">
									<path id="&lt;Compound Path&gt;" fill-rule="evenodd" class="s3" d="m56.2 204l85.1-114.4 101-68.8-85.1 114.4zm85.4-114.1l-83.6 112.4 98.9-67.4 83.6-112.4z"/>
								</g>
							</g>
							<g id="&lt;Group&gt;">
								<g id="&lt;Group&gt;">
									<path id="&lt;Compound Path&gt;" fill-rule="evenodd" class="s3" d="m50.6 204.7l0.8-0.9 92.1-117.4 104.4-66.3-0.7 0.9-92.1 117.4zm93.1-118l-91.3 116.4 102.4-65 91.3-116.4z"/>
								</g>
							</g>
							<g id="&lt;Group&gt;">
								<g id="&lt;Group&gt;">
									<path id="&lt;Compound Path&gt;" fill-rule="evenodd" class="s3" d="m45.1 205l0.7-0.9 100-121 107.6-63.3-0.7 0.9-100 121zm101-121.6l-99.2 120.1 105.6-62.1 99.2-120z"/>
								</g>
							</g>
							<g id="&lt;Group&gt;">
								<g id="&lt;Group&gt;">
									<path id="&lt;Compound Path&gt;" fill-rule="evenodd" class="s3" d="m39.7 204.7l108.7-125.1 110.5-59.5-0.8 0.8-107.9 124.3zm108.9-124.8l-107.2 123.4 108.5-58.5 107.2-123.4z"/>
								</g>
							</g>
							<g id="&lt;Group&gt;">
								<g id="&lt;Group&gt;">
									<path id="&lt;Compound Path&gt;" fill-rule="evenodd" class="s3" d="m34.4 203.9l0.7-0.8 116.1-127 112.9-55.2-0.7 0.7-116 127.1zm116.9-127.5l-115.2 126.2 111-54.2 115.3-126.3z"/>
								</g>
							</g>
							<g id="&lt;Group&gt;">
								<g id="&lt;Group&gt;">
									<path id="&lt;Compound Path&gt;" fill-rule="evenodd" class="s3" d="m29.3 202.5l0.7-0.7 124.2-129.4 115-50.2-0.7 0.8-124.1 129.4h-0.1zm125.1-129.8l-123.4 128.6 113.1-49.3 123.4-128.6z"/>
								</g>
							</g>
							<g id="&lt;Group&gt;">
								<g id="&lt;Group&gt;">
									<path id="&lt;Compound Path&gt;" fill-rule="evenodd" class="s3" d="m24.5 200.5l133-131.9 116.6-44.3-0.7 0.7-132.3 131.2h-0.1zm133.2-131.6l-131.5 130.5 114.7-43.6 131.5-130.5z"/>
								</g>
							</g>
							<g id="&lt;Group&gt;">
								<g id="&lt;Group&gt;">
									<path id="&lt;Compound Path&gt;" fill-rule="evenodd" class="s3" d="m19.9 197.8l0.7-0.6 140.4-132.4h0.1l117.5-37.8-0.6 0.6-140.5 132.4zm141.3-132.6l-139.7 131.7 115.8-37.2 139.7-131.7z"/>
								</g>
							</g>
							<g id="&lt;Group&gt;">
								<g id="&lt;Group&gt;">
									<path id="&lt;Compound Path&gt;" fill-rule="evenodd" class="s3" d="m15.7 194.3l0.7-0.5 148.4-133h0.1l117.9-30.4-0.6 0.6-148.4 132.9h-0.1zm149.3-133.1l-147.8 132.3 116.3-29.9 147.8-132.3z"/>
								</g>
							</g>
							<g id="&lt;Group&gt;">
								<g id="&lt;Group&gt;">
									<path id="&lt;Compound Path&gt;" fill-rule="evenodd" class="s3" d="m11.9 190.1l0.6-0.5 156.3-132.7 0.1-0.1 117.7-22.1-0.5 0.5-156.4 132.7zm157.1-132.9l-155.7 132.2 116.2-21.8 155.7-132.2z"/>
								</g>
							</g>
							<g id="&lt;Group&gt;">
								<g id="&lt;Group&gt;">
									<path id="&lt;Compound Path&gt;" fill-rule="evenodd" class="s3" d="m8.5 185.1l0.6-0.5 164-131.8h0.1l116.8-13.1-0.5 0.4-164.1 131.8zm164.7-131.8l-163.4 131.3 115.4-13 163.4-131.3z"/>
								</g>
							</g>
							<g id="&lt;Group&gt;">
								<g id="&lt;Group&gt;">
									<path id="&lt;Compound Path&gt;" fill-rule="evenodd" class="s3" d="m5.7 179.2l0.5-0.4 171.4-130h0.1l115.2-3.2-0.5 0.4-171.5 130zm172.1-130l-170.9 129.5 113.9-3.1 170.8-129.6z"/>
								</g>
							</g>
							<g id="&lt;Group&gt;">
								<g id="&lt;Group&gt;">
									<path id="&lt;Compound Path&gt;" fill-rule="evenodd" class="s3" d="m116.2 180h-0.1l-112.7-7.6 179-127.6h0.1l112.7 7.6zm-111.7-7.9l111.6 7.5 177.9-126.9-111.5-7.5z"/>
								</g>
							</g>
							<g id="&lt;Group&gt;">
								<g id="&lt;Group&gt;">
									<path id="&lt;Compound Path&gt;" fill-rule="evenodd" class="s3" d="m111.2 184h-0.1l-109.4-19.4 0.4-0.2 185.3-123.6h0.1l109.4 19.3-0.5 0.3zm-108.4-19.6l108.3 19.2 184.8-123.2-108.4-19.2z"/>
								</g>
							</g>
							<g id="&lt;Group&gt;">
								<g id="&lt;Group&gt;">
									<path id="&lt;Compound Path&gt;" fill-rule="evenodd" class="s3" d="m106 187.9h-0.1l-105.2-32 0.4-0.2 191.5-118.9 0.1 0.1 105.1 32-0.3 0.2zm-104.3-32.1l104.2 31.7 191-118.5-104.2-31.7z"/>
								</g>
							</g>
							<g id="&lt;Group&gt;">
								<g id="&lt;Group&gt;">
									<path id="&lt;Compound Path&gt;" fill-rule="evenodd" class="s3" d="m100.5 191.8l-0.1-0.1-99.9-45.5 0.4-0.2 197.1-113h0.1l99.9 45.6-0.3 0.2zm-99.1-45.7l99.1 45.2 196.6-112.6-99.1-45.2z"/>
								</g>
							</g>
							<g id="&lt;Group&gt;">
								<g id="&lt;Group&gt;">
									<path id="&lt;Compound Path&gt;" fill-rule="evenodd" class="s3" d="m94.9 195.5h-0.1l-93.7-60.1 0.3-0.2 202.3-105.9h0.1l93.6 60.1-0.3 0.2zm-92.9-60.2l92.9 59.7 201.8-105.7-93-59.6z"/>
								</g>
							</g>
							<g id="&lt;Group&gt;">
								<g id="&lt;Group&gt;">
									<path id="&lt;Compound Path&gt;" fill-rule="evenodd" class="s3" d="m89 199.1l-0.1-0.1-86.2-75.5 0.2-0.2 206.6-97.6h0.1l86.3 75.6-0.3 0.1zm-85.6-75.5l85.7 75.1 206-97.5-85.7-75z"/>
								</g>
							</g>
							<g id="&lt;Group&gt;">
								<g id="&lt;Group&gt;">
									<path id="&lt;Compound Path&gt;" fill-rule="evenodd" class="s3" d="m83 202.5l-0.1-0.1-77.8-91.9 0.3-0.2 210.1-88.1 0.1 0.2 77.8 91.9-0.2 0.1zm-77.3-91.9l77.4 91.4 209.5-87.8-77.3-91.5z"/>
								</g>
							</g>
							<g id="&lt;Group&gt;">
								<g id="&lt;Group&gt;">
									<path id="&lt;Compound Path&gt;" fill-rule="evenodd" class="s3" d="m76.9 205.7l-0.1-0.1-68.1-109.3 0.2-0.1 212.8-77.2 0.1 0.2 68.1 109.3-0.3 0.1zm-67.6-109.3l67.8 108.8 212.2-77-67.8-108.7z"/>
								</g>
							</g>
							<g id="&lt;Group&gt;">
								<g id="&lt;Group&gt;">
									<path id="&lt;Compound Path&gt;" fill-rule="evenodd" class="s3" d="m70.6 208.7l-0.1-0.2-57.1-127.5 0.2-0.1 214.4-64.8 57.2 127.7-0.2 0.1zm-56.7-127.5l56.9 127 213.8-64.6-56.9-127z"/>
								</g>
							</g>
							<g id="&lt;Group&gt;">
								<g id="&lt;Group&gt;">
									<path id="&lt;Compound Path&gt;" fill-rule="evenodd" class="s3" d="m64.2 211.3v-0.2l-45-146.7 215.1-50.9 0.1 0.1 44.9 146.7zm-44.4-146.5l44.7 146 214.4-50.8-44.8-146.1z"/>
								</g>
							</g>
							<g id="&lt;Group&gt;">
								<g id="&lt;Group&gt;">
									<path id="&lt;Compound Path&gt;" fill-rule="evenodd" class="s3" d="m57.7 213.6v-0.2l-31.4-166.7h0.2l214.3-35.6 0.1 0.2 31.3 166.7-0.2 0.1zm-30.9-166.6l31.2 166.1 213.7-35.5-31.2-166z"/>
								</g>
							</g>
							<g id="&lt;Group&gt;">
								<g id="&lt;Group&gt;">
									<path id="&lt;Compound Path&gt;" fill-rule="evenodd" class="s3" d="m51.2 215.6v-0.2l-16.4-187.6h0.2l212.3-18.6v0.2l16.4 187.5-0.2 0.1zm-15.9-187.4l16.3 186.9 211.7-18.5-16.3-186.9z"/>
								</g>
							</g>
							<g id="&lt;Group&gt;">
								<g id="&lt;Group&gt;">
									<path id="&lt;Compound Path&gt;" fill-rule="evenodd" class="s3" d="m44.7 7.7h209.2v209.4h-209.2zm0.4 208.9h208.3v-208.5h-208.3z"/>
								</g>
							</g>
						</g>
					</g>
					<g id="&lt;Group&gt;">
						<g id="&lt;Group&gt;">
							<g id="&lt;Group&gt;">
								<g id="&lt;Group&gt;">
									<g id="&lt;Group&gt;">
										<path id="&lt;Path&gt;" class="s4" d="m55 167.1c1.6-2.6 4.2-11.9 6.1-10.8 1.4 0.8 5.5 6.2 7.4 11.8 0.8 2.1 1.1 4.3 0.9 6.2-1.3 9.6-4.8 13.6-9.1 15.1-4 1.4-6.1 0.4-9.2 1.4q-0.5 0.2-1 0.4-0.2 0.1-0.4 0.3c-3.3 1.8-4.8 6.2-12.7 6.6-5.2 0.2-9.4-3.9-11.5-7-1.2-1.9-1.7-3.3-1.2-3.5 0.5-0.1 1.6 0.5 3 1.2 2.3 1.1 5.3 2.5 7.5 1.2 3.4-2.2 5-1.1 3.2-3-1.8-1.9-2.9 0.9-7.1-0.4-0.4-0.1-0.9-0.3-1.4-0.6-1.8-1.1-3.5-3.1-4.9-5.2-1.6-2.6-2.6-5.2-2.4-6.5 0.4-2.8 3.2 3 7.7 2.3q1.7-0.2 2.9-0.5c1.9-0.5 2.8-1.3 2.4-2.1 0-0.3-0.2-0.5-0.4-0.8-1.6-1.5-13.3-0.1-12.9-5.5 0.4-5.5 2.6-9.9 4.2-7.6 1.5 2.3 3.9 6.4 5.5 5.1 1.7-1.4 1.2-3.2-1.7-4.8-2.9-1.5-5.8-1.5-5.7-3.8 0-0.5 0.2-1.6 0.6-3 0.8-3.1 2.2-7.7 3.9-10.7 1.2-2 2.4-3.3 3.7-3 2.9 0.8 9.4 3.2 13.1 5.3 1.6 0.8 2.7 1.6 2.9 2.2 0.8 2-5 4.1-4.2 6.9 0.8 2.7 3 4.6 5-0.9 1.9-5.6 4.2-8.7 7-2.8 2.9 5.9-0.4 10.2-2.4 12.7-1.9 2.6-0.4 6.3 1.2 3.8z"/>
									</g>
									<g id="&lt;Group&gt;">
										<path id="&lt;Path&gt;" class="s3" d="m36 147.8v0.1c1.1 5.4 2.5 11.3 4.3 17.2 2.5 8.6 5.9 17.4 10.8 25.7 3.6 6.1 7.9 11.9 13.2 17.1q0.1 0.1 0.1 0.1c0.2 0.3 0.2 0.6 0 0.9q0 0.1-0.1 0.1c-0.3 0.3-0.8 0.3-1.1 0q-0.1 0-0.2-0.1c-5.4-5.4-9.7-11.2-13.3-17.4-4.4-7.5-7.6-15.3-10.1-23.1l-0.2-0.6q-0.8-2.8-1.6-5.5c-1.3-4.9-2.4-9.7-3.3-14.2-0.1-0.4 0.1-0.8 0.6-0.9q0.1 0 0.2 0c0.4 0 0.6 0.3 0.7 0.6z"/>
									</g>
								</g>
							</g>
							<path id="&lt;Path&gt;" class="s5" d="m43 164.5c1.9 3.4 5.4 6 9.3 6.5 5.5 0.8 10.8-2.2 16.2-2.9 0.8 2.1 1.1 4.3 0.9 6.2-1.3 9.6-4.8 13.6-9.1 15.1-4 1.4-6.1 0.4-9.2 1.4 3.6 6.1 7.9 11.9 13.2 17.1q0.1 0.1 0.1 0.1c-0.5 0.4-0.9 0.6-1.4 0.9-5.4-5.4-9.7-11.2-13.3-17.4-3.3 1.8-4.8 6.2-12.7 6.6-5.2 0.2-9.4-3.9-11.5-7 0.6-0.8 1.2-1.6 1.8-2.3 2.3 1.1 5.3 2.5 7.5 1.2 3.4-2.2 5-1.1 3.2-3-1.8-1.9-2.9 0.9-7.1-0.4-0.4-0.1-0.9-0.3-1.4-0.6 1.4-1.9 2.8-3.7 4.2-5.5 2.8-3.6 5.8-7.7 5.9-12.1 0.1-0.6 0-1.3-0.1-2-0.2-1.5-0.8-2.9-1.7-4.1-1.8-2.8-4.7-4.9-7.6-6.5-1.7-0.9-3.5-1.8-5.4-2.2 0.8-3.1 2.2-7.7 3.9-10.7 1.2-2 2.4-3.3 3.7-3 2.9 0.8 9.4 3.2 13.1 5.3q-0.3 1-0.8 1.9c-0.9 2-2 3.9-2.7 6-1.2 3.7-0.9 8 1 11.4z"/>
						</g>
						<g id="&lt;Group&gt;">
							<g id="&lt;Group&gt;">
								<g id="&lt;Group&gt;">
									<path id="&lt;Path&gt;" class="s6" d="m65 211.5c-1.2-0.6-3.5-0.5-6.5-0.1-4.7 0.7-10.8 2.3-15.7 4.1-3.5 1.1-6.3 2.3-7.9 3.2-3.7 2.2-13.9 1.3-19.3 0.6q-2.2-0.3-3.6-0.5 8.2-12.2 20.7-16.7c10.4-3.7 25.8 5.2 30.7 8.4q1.1 0.6 1.6 1z"/>
								</g>
								<path id="&lt;Path&gt;" class="s3" d="m65.9 211.6c-0.1 0.5-0.5 0.8-1 0.7q0 0 0 0c-2.1-0.4-4.2-0.7-6.4-0.9q-1.4-0.2-2.9-0.4-4.7-0.4-9.4-0.5c-3.1-0.1-6.3-0.1-9.4 0.3q-1.3 0.2-2.5 0.4c-2.3 0.3-4.5 0.9-6.6 1.7-0.1 0.1-0.2 0-0.3-0.1-0.1-0.1 0-0.3 0.1-0.4 1.7-0.7 3.3-1.2 5.1-1.6q2-0.5 4.1-0.8c3.2-0.4 6.3-0.6 9.5-0.6 3.2-0.1 6.3 0.1 9.5 0.3q3.9 0.3 7.7 0.8 0.9 0.1 1.8 0.2c0.4 0.1 0.7 0.5 0.7 0.9z"/>
							</g>
							<path id="&lt;Path&gt;" class="s7" d="m65.9 211.6c-0.1 0.5-0.5 0.8-1 0.7q0 0 0 0c-2.1-0.4-4.2-0.7-6.4-0.9-4.7 0.7-10.8 2.3-15.7 4.1q-0.7-0.3-1.3-0.7c-2.4-1.2-4.7-2.8-7.2-3.6q-0.7-0.3-1.5-0.4-0.1 0-0.2 0c-3.2-0.4-6.4 0.8-9.3 2.2-3 1.5-6.1 3.5-7.7 6.3q-2.2-0.3-3.6-0.5 8.2-12.2 20.7-16.7c10.4-3.7 25.8 5.2 30.7 8.4q0.9 0.1 1.8 0.2c0.4 0.1 0.7 0.5 0.7 0.9z"/>
						</g>
						<g id="&lt;Group&gt;">
							<g id="&lt;Group&gt;">
								<g id="&lt;Group&gt;">
									<path id="&lt;Path&gt;" class="s6" d="m64.2 210.4c-2.9-3.7-11.3-15.5-9.1-24.2q2.7-10.5 11.9-18 0.3 1.1 0.7 2.8c0.9 4.4 2.4 12.5 1 15.7-0.6 1.3-1.4 3.8-2.1 6.6-1 4.2-1.8 9.2-2.1 13-0.1 2.5 0.1 4.4 0.6 5.3q-0.3-0.4-0.9-1.2z"/>
								</g>
								<path id="&lt;Path&gt;" class="s3" d="m64.5 211.8q-0.2-0.7-0.3-1.4-0.7-3.1-1.2-6.2-0.7-3.8-1-7.6c-0.2-2.6-0.3-5.2-0.2-7.8q0.1-1.7 0.3-3.4c0.2-1.4 0.5-2.8 0.9-4.2 0.1-0.1 0.2-0.2 0.3-0.1 0.1 0 0.2 0.1 0.1 0.2-0.5 1.8-0.7 3.6-0.9 5.5q0 1-0.1 2.1c0 2.5 0.2 5 0.5 7.6q0.4 3.8 1.2 7.5 0.2 1.2 0.4 2.3 0.6 2.6 1.3 5.1 0 0.1 0 0.1c0.1 0.3-0.1 0.7-0.5 0.8-0.3 0.1-0.7-0.2-0.8-0.5z"/>
							</g>
							<path id="&lt;Path&gt;" class="s8" d="m64.5 211.8q-0.2-0.7-0.3-1.4c-2.9-3.7-11.3-15.5-9.1-24.2q2.7-10.5 11.9-18 0.3 1.1 0.7 2.8c-2.2 1.6-3.6 4.2-4.5 6.7-1 2.5-1.7 5.2-1.1 7.7q0 0.1 0 0.2 0.2 0.6 0.4 1.2c0.9 2 2.3 3.7 3.5 5.5q0.4 0.5 0.6 1c-1 4.2-1.8 9.2-2.1 13q0.6 2.6 1.3 5.1 0 0.1 0 0.1c0.1 0.3-0.1 0.7-0.5 0.8-0.3 0.1-0.7-0.2-0.8-0.5z"/>
						</g>
						<path id="&lt;Path&gt;" class="s9" d="m49.4 191.7c1.3 2.4-2.1 4.7-1.3 8.8 1.6 0.6 3.1 1.5 4.6 2.9q0.4 0.4 0.9 0.8c-0.6-0.8-1.2-1.9-1.2-3.3-0.1-3.5 4.5-4 4.8-2.8 0.7 2.2-2.5 3.5-2.4 7.1 2.1 1.6 4.2 2.8 5.9 3.7-0.6-0.6-1.3-1.7-1.4-3 0-2.7 3.5-3.1 3.8-2.1 0.5 1.6-1.9 2.7-1.9 5.4 2 0.9 3.3 1.3 3.4 1.3 0.2 0.1 0.4 0.4 0.3 0.7q0 0 0 0c-0.1 0.3-0.4 0.4-0.6 0.4-0.1-0.1-0.8-0.3-1.8-0.7-1.5 1.8-0.7 4-2.2 4.7-0.8 0.5-3-2.3-1.1-4.2 0.6-0.6 1.4-0.9 2.1-1-1.4-0.7-3.3-1.6-5.3-3-2.2 2.4-1.1 5.5-3 6.5-1.1 0.6-4-2.9-1.5-5.4 1.2-1.2 2.8-1.5 3.9-1.5q-1.7-1.2-3.5-2.9-1-0.9-2-1.5c-2.9 3.1-1.1 6.8-3.5 8.3-1.3 0.7-4.9-3.3-2.1-6.5 1.6-1.7 4.1-2 5.2-2.1-1.8-1.1-3.8-1.6-6-1.7-2.1 3.9 0.7 7.3-1.3 9.4-1.1 1.1-6-2-3.9-6 1-2 3.2-3 4.4-3.5-1.5 0-3.1 0-4.9 0.2-2.2 3-0.5 6.2-2.5 7.6-1.1 0.8-4.8-2.6-2.3-5.7 0.6-0.9 1.5-1.4 2.3-1.7q-1.7 0.1-3.5 0.2c-1.2 0.4-3.3 0.8-5.2 0-4-1.8-2.2-7.1-0.7-6.9 2.5 0.4 2.7 3.9 5.7 5.8q1.8-0.1 3.6-0.2c-1.1-0.5-2.6-1.5-3.3-3.2-1.6-3.6 2.8-6 3.7-4.9 1.6 1.9-0.9 4.5 0.5 8q2.4-0.2 4.6-0.2c-1.1-0.8-2.8-2.3-3.2-4.5-0.8-4.4 4.7-6 5.4-4.6 1.3 2.4-2.1 4.8-1.4 9 1.9 0 3.8 0.2 5.5 0.7-1-0.8-2.3-2.1-2.7-4-0.8-4.2 4.4-5.7 5.1-4.4z"/>
					</g>
					<g id="&lt;Group&gt;">
						<g id="&lt;Group&gt;">
							<g id="&lt;Group&gt;">
								<g id="&lt;Group&gt;">
									<path id="&lt;Path&gt;" class="s6" d="m235.2 150.7c1.1-2.1 4.6-8.3 8.9-9.2q5.3-1 10.6 1.5-0.5 0.4-1.1 0.9c-1.8 1.4-5.1 3.8-6.8 3.8-0.8 0-2 0.2-3.4 0.5-2.1 0.4-4.5 1.1-6.3 1.8-1.1 0.5-1.9 0.9-2.2 1.4q0.1-0.3 0.3-0.7z"/>
								</g>
								<path id="&lt;Path&gt;" class="s3" d="m234.7 151.1q0.3-0.2 0.5-0.4 1.3-1 2.5-1.8 1.6-1.2 3.3-2.1c1.1-0.6 2.2-1.3 3.4-1.7q0.7-0.4 1.6-0.6 1-0.4 2-0.5 0.1 0 0.1 0.1 0.1 0.1 0 0.1c-0.9 0.2-1.8 0.4-2.7 0.8q-0.4 0.1-0.9 0.4c-1.2 0.5-2.3 1.1-3.3 1.8q-1.6 1-3.1 2.1-0.5 0.3-1 0.7-1 0.8-2 1.6 0 0.1 0 0.1c-0.1 0.1-0.3 0-0.5-0.1-0.1-0.1 0-0.3 0.1-0.5z"/>
							</g>
							<path id="&lt;Path&gt;" class="s10" d="m234.7 151.1q0.3-0.2 0.5-0.4c1.1-2.1 4.6-8.3 8.9-9.2q5.3-1 10.6 1.5-0.5 0.4-1.1 0.9c-1.2-0.6-2.6-0.7-4-0.6-1.3 0.1-2.6 0.4-3.6 1.2q-0.1 0-0.1 0-0.3 0.2-0.5 0.5c-0.7 0.8-1.1 1.8-1.7 2.7q-0.1 0.2-0.3 0.5c-2.1 0.4-4.5 1.1-6.3 1.8q-1 0.8-2 1.6 0 0.1 0 0.1c-0.1 0.1-0.3 0-0.5-0.1-0.1-0.1 0-0.3 0.1-0.5z"/>
						</g>
						<g id="&lt;Group&gt;">
							<g id="&lt;Group&gt;">
								<path id="&lt;Path&gt;" class="s4" d="m234.9 151.3c-0.2-0.5-0.8-1.2-1.7-2-1.4-1.3-3.4-2.8-5.2-3.9-1.3-0.7-2.4-1.3-3.1-1.5-1.6-0.6-3.9-4-5.1-5.9q-0.4-0.7-0.7-1.2 5.8-0.6 10.4 2.1c3.8 2.3 5 9.3 5.3 11.7q0 0.4 0.1 0.7z"/>
								<path id="&lt;Path&gt;" class="s3" d="m235 151.6c-0.1 0.1-0.3 0.1-0.4-0.1q0 0 0 0-0.7-1.1-1.4-2.2-0.3-0.5-0.6-1-1.1-1.6-2.2-3.1c-0.8-0.9-1.6-1.9-2.5-2.8q-0.4-0.3-0.8-0.7c-0.7-0.6-1.4-1.1-2.2-1.5q-0.1-0.1 0-0.2 0-0.1 0.1 0 1 0.5 1.8 1.1 0.7 0.5 1.3 1.1c0.9 0.8 1.8 1.8 2.6 2.8q1.2 1.4 2.3 3 0.9 1.2 1.8 2.6 0.2 0.3 0.4 0.5c0 0.2 0 0.4-0.2 0.5z"/>
							</g>
							<path id="&lt;Path&gt;" class="s11" d="m235 151.6c-0.1 0.1-0.3 0.1-0.4-0.1q0 0 0 0-0.7-1.1-1.4-2.2c-1.4-1.3-3.4-2.8-5.2-3.9q-0.1-0.2-0.2-0.5c-0.2-1.1-0.3-2.2-0.7-3.2q-0.1-0.2-0.3-0.5 0-0.1 0-0.1c-0.7-1.1-1.9-1.8-3.1-2.3-1.2-0.5-2.6-1-3.9-0.8q-0.4-0.7-0.7-1.2 5.8-0.6 10.4 2.1c3.8 2.3 5 9.3 5.3 11.7q0.2 0.3 0.4 0.5c0 0.2 0 0.4-0.2 0.5z"/>
						</g>
						<path id="&lt;Path&gt;" class="s9" d="m241.6 131.1c0.7 1.4 0.5 3 0.2 4 0.9-1.2 2.1-2.2 3.4-3.2-1.6-3.2-5.1-3.1-5.4-5.4-0.2-1.3 4.3-3 5.9 0.5 0.8 1.6 0.4 3.5 0.1 4.6q1.5-1.1 3.2-2.1c-0.7-3.1-3.8-3.7-3.6-5.7 0.1-1.2 4.3-1.7 5 1.5 0.3 1.5-0.2 2.9-0.7 3.8q1.2-0.8 2.6-1.6c1.1-2.8-0.6-5.3 0.9-6.7 1-0.9 4.8 1.8 3 4.9-0.9 1.6-2.5 2.3-3.6 2.6q-1.3 0.8-2.5 1.6c0.7-0.2 1.6-0.3 2.4 0 3.2 0.9 2.4 5.1 1.2 5.1-2 0-2.4-3-5.4-4-1.3 0.8-2.4 1.5-3.4 2.3 1-0.3 3-0.7 4.7 0.2 3.3 1.7 1.6 6.2 0.3 6-2.4-0.5-2.1-4.1-5.5-5.8-1.4 1.2-2.5 2.5-3.3 4.2 0.8-0.6 2.7-1.6 4.6-1.2 3.5 0.8 3 5.4 1.7 5.5-2.3 0.1-2.9-3.3-6.4-4q-0.4 1-0.6 2.1-0.4 1.9-1 3.6c0.7-0.5 2-1.1 3.3-0.9 3 0.5 2.8 4.3 1.7 4.5-1.8 0.2-2.5-2.4-5.2-3-0.7 1.9-1.5 3.5-2.2 4.6 0.6-0.2 1.2-0.4 1.9-0.3 2.3 0.4 2.1 3.3 1.3 3.4-1.3 0.2-1.9-1.6-3.7-2.1-0.5 0.8-0.9 1.2-0.9 1.3-0.2 0.2-0.4 0.2-0.6 0.1q0 0-0.1 0c-0.2-0.2-0.2-0.5 0-0.7 0 0 0.7-0.9 1.6-2.5-1.3-1.9-3.5-1.4-4-2.8-0.2-0.8 2.3-2.2 3.7-0.4 0.6 0.9 0.6 2 0.5 2.7 0.8-1.4 1.6-3.3 2.2-5.4-1.7-2.5-4.5-1.8-5.1-3.6-0.3-1 3-2.9 4.7-0.5 0.6 0.9 0.8 2 0.7 2.9q0.2-0.5 0.3-1.1c0.3-1.6 0.9-3 1.7-4.2-1.5-3.2-4.9-3.1-5.2-5.3-0.2-1.3 4.1-2.8 5.6 0.5z"/>
					</g>
					<g id="&lt;Group&gt;">
						<g id="&lt;Group&gt;">
							<path id="&lt;Compound Path&gt;" fill-rule="evenodd" class="s4" d="m174.8 35.6c-3.5 0-6.4-2.9-6.4-6.4 0-3.6 2.9-6.4 6.4-6.4 3.6 0 6.5 2.8 6.5 6.4 0 3.5-2.9 6.4-6.5 6.4zm4.1-6.4c0-2.3-1.8-4.1-4.1-4.1-2.2 0-4 1.8-4 4.1 0 2.2 1.8 4.1 4 4.1 2.3 0 4.1-1.9 4.1-4.1z"/>
						</g>
						<g id="&lt;Group&gt;">
							<path id="&lt;Path&gt;" class="s6" d="m188.5 30.3h-13.7c-0.6 0-1.1-0.5-1.1-1.1 0-0.7 0.5-1.2 1.1-1.2h13.7c0.6 0 1.2 0.5 1.2 1.2 0 0.6-0.6 1.1-1.2 1.1z"/>
						</g>
						<g id="&lt;Group&gt;">
							<path id="&lt;Path&gt;" class="s6" d="m196.5 24.7h-13.7c-0.6 0-1.1-0.5-1.1-1.2 0-0.6 0.5-1.1 1.1-1.1h13.7c0.6 0 1.2 0.5 1.2 1.1 0 0.7-0.6 1.2-1.2 1.2z"/>
						</g>
						<g id="&lt;Group&gt;">
							<path id="&lt;Path&gt;" class="s6" d="m174.8 21.5c-0.6 0-1.1-0.6-1.1-1.2v-5.8c0-0.6 0.5-1.1 1.1-1.1 0.7 0 1.2 0.5 1.2 1.1v5.8c0 0.6-0.5 1.2-1.2 1.2z"/>
						</g>
					</g>
					<g id="&lt;Group&gt;">
						<g id="&lt;Group&gt;">
							<circle id="&lt;Compound Path&gt;" class="s4" cx="210.7" cy="172" r="4.1"/>
						</g>
						<g id="&lt;Group&gt;">
							<path id="&lt;Path&gt;" class="s6" d="m224.4 173.2h-13.7c-0.6 0-1.1-0.6-1.1-1.2 0-0.6 0.5-1.2 1.1-1.2h13.7c0.6 0 1.2 0.6 1.2 1.2 0 0.6-0.6 1.2-1.2 1.2z"/>
						</g>
						<g id="&lt;Group&gt;">
							<path id="&lt;Path&gt;" class="s6" d="m232.4 167.5h-13.7c-0.6 0-1.1-0.5-1.1-1.2 0-0.6 0.5-1.1 1.1-1.1h13.7c0.6 0 1.2 0.5 1.2 1.1 0 0.7-0.6 1.2-1.2 1.2z"/>
						</g>
					</g>
					<g id="&lt;Group&gt;">
						<g id="&lt;Group&gt;">
							<path id="&lt;Path&gt;" class="s4" d="m50.9 123.1h-13.6c-0.7 0-1.2-0.5-1.2-1.1 0-0.7 0.5-1.2 1.2-1.2h13.6c0.7 0 1.2 0.5 1.2 1.2 0 0.6-0.5 1.1-1.2 1.1z"/>
						</g>
						<g id="&lt;Group&gt;">
							<path id="&lt;Path&gt;" class="s4" d="m58.9 117.5h-13.7c-0.6 0-1.1-0.5-1.1-1.2 0-0.6 0.5-1.2 1.1-1.2h13.7c0.6 0 1.2 0.6 1.2 1.2 0 0.7-0.6 1.2-1.2 1.2z"/>
						</g>
					</g>
				</g>
				<g id="&lt;Group&gt;">
					<g id="&lt;Group&gt;">
						<g id="&lt;Group&gt;">
							<g id="&lt;Group&gt;">
								<path id="&lt;Path&gt;" class="s12" d="m106.7 163.4v30.2l-29.3-11.5v-30.2z"/>
								<path id="&lt;Path&gt;" class="s4" d="m135.9 151.9l-23 9-6.2 2.5-29.3-11.5 29.3-11.4 14.9 5.8z"/>
								<path id="&lt;Path&gt;" class="s9" d="m135.9 151.9v30.2l-29.2 11.5v-30.2l6.2-2.5q0 0 0 0z"/>
							</g>
							<path id="&lt;Path&gt;" class="s13" d="m135.9 151.9v30.2l-29.2 11.5-29.3-11.5v-12c1.9-0.1 3.9 0 5.8 0.4 2.5 0.5 5 1.3 7.5 1.9 3.7 0.9 7.7 1.1 11.4 0.2 1.6-0.4 3.2-1.1 4.6-1.9 1.8-1.2 3.4-2.8 4.5-4.7 0.9-1.6 1.3-3.3 1.7-5.1q0 0 0 0c0.8-4 1.1-8.3 3.7-11.4 1.4-1.5 3.1-2.5 5-3.2z"/>
						</g>
						<g id="&lt;Group&gt;">
							<g id="&lt;Group&gt;">
								<path id="&lt;Path&gt;" class="s6" d="m243.4 84.8c-2.8 20.9-17.3 36.2-32.4 34.1-0.5 0-5.2-0.6-5.7-0.7-11.9-2.5-17.4-15.1-17.3-31q0-4.7 0.7-9.7c0.4-3.1 1.3-6.1 2.6-8.9 3.1-6.7 8.1-12.5 12.7-16.9q6-5.7 11.4-9.1 5 0.7 5.7 0.8c10.7 1.4 18.8 11.2 21.7 24.2 1.1 5.3 1.4 11.2 0.6 17.2z"/>
								<g id="&lt;Group&gt;">
									<path id="&lt;Path&gt;" class="s4" d="m237.7 84.1c-2.8 20.8-17.3 36.1-32.4 34.1-15.1-2.1-25.1-20.6-22.3-41.5 0.6-4.4 1.7-8.5 3.2-12.3 5.7-14.2 17.3-23.4 29.2-21.8 9.6 1.3 17.1 9.3 20.6 20.3 2.1 6.3 2.7 13.6 1.7 21.2z"/>
									<g id="&lt;Group&gt;">
										<path id="&lt;Compound Path&gt;" fill-rule="evenodd" class="s3" d="m232.6 83.4c-2.3 16.9-14.1 29.3-26.3 27.7-9.9-1.3-17-11.3-18.3-23.9-0.4-3.1-0.3-6.4 0.1-9.8 0.5-3.4 1.3-6.6 2.5-9.5 2.9-7.5 7.7-13.3 13.4-16.2 3.3-1.7 6.9-2.5 10.5-2 6.3 0.9 11.5 5.3 14.8 11.7 3 6 4.4 13.8 3.3 22zm-2.7-0.4c1-8.1-0.6-15.7-4-21.2-2.9-4.5-7-7.6-11.9-8.3-8.8-1.2-17.3 5.8-21.2 16.5q-1.4 3.6-1.9 7.8c-2 14.8 5.1 28.1 15.9 29.5 10.7 1.5 21.1-9.4 23.1-24.3z"/>
									</g>
									<g id="&lt;Group&gt;">
										<path id="&lt;Compound Path&gt;" fill-rule="evenodd" class="s3" d="m222.7 82.1c-1.3 9.3-7.8 16.2-14.6 15.3-6.8-0.9-11.3-9.3-10-18.6q0.3-2.4 1-4.5c2.4-7 7.9-11.7 13.5-10.9 2.5 0.3 4.6 1.6 6.3 3.6 3 3.5 4.6 9.1 3.8 15.1zm-2.8-0.4c0.6-4.5-0.5-8.8-2.7-11.5-1.3-1.6-3.1-2.7-5.1-3-4.3-0.6-8.5 2.9-10.4 8.1q-0.6 1.8-0.9 3.8c-1 7.3 2.5 13.8 7.8 14.5 5.3 0.7 10.4-4.6 11.3-11.9z"/>
									</g>
								</g>
								<path id="&lt;Path&gt;" class="s14" d="m243.4 84.8c-2.8 20.9-17.3 36.2-32.4 34.1-0.5 0-5.2-0.6-5.7-0.7-15.1-2.1-25.1-20.6-22.3-41.5 0.6-4.4 1.7-8.5 3.2-12.3q1.2 0.7 2.2 1.6 1.1 0.9 2.2 1.9 0.3 0.3 0.7 0.7 0.7 0.7 1.5 1.4 1.1 1 2.3 1.9 1.8 1.4 4 2.4 1.3 0.6 2.6 1c1.7 0.5 3.4 0.8 5.1 0.9 2.7 0.2 5.6-0.3 7.6-2 1.3-1.1 2.1-2.5 2.8-4 0.6-1.1 1.1-2.2 1.7-3.2q0.4-0.6 0.8-1.2c1.5-2 3.7-3.3 6.2-4 1.1-0.3 2.2-0.4 3.4-0.4q1.1-0.1 2.1 0.1c1.6 0.2 3.2 0.7 4.6 1.4 2.5 1.1 4.8 2.8 6.8 4.7 1.1 5.3 1.4 11.2 0.6 17.2z"/>
							</g>
							<g id="&lt;Group&gt;">
								<path id="&lt;Path&gt;" class="s9" d="m70.5 183.1l-2.2-1.2c0.3-0.6 31.2-57.5 75.1-47.8 42.6 9.5 55.3-9.8 65.1-51.1l2.3 0.5c-9.9 42-23.6 62.8-67.9 53-42.1-9.4-72.1 46-72.4 46.6z"/>
							</g>
							<g id="&lt;Group&gt;">
								<path id="&lt;Path&gt;" class="s6" d="m213.2 83.3c0 2.3-1.9 4.1-4.2 4.1-2.3 0-4.1-1.8-4.1-4.1q0-0.1 0-0.1c0-2.3 1.9-4.1 4.1-4.1q0.9 0 1.6 0.3c1.5 0.6 2.6 2.1 2.6 3.9z"/>
								<path id="&lt;Path&gt;" class="s15" d="m213.2 83.3c0 2.3-1.9 4.1-4.2 4.1-2.3 0-4.1-1.8-4.1-4.1q0-0.1 0-0.1 0.2 0 0.3 0c0.7 0.1 1.3 0.3 2 0.5 0.5 0.2 1 0.5 1.5 0.4 0.4 0 0.8-0.2 1.2-0.4q0.3-0.2 0.6-0.4c0.3-0.4 0.4-1 0.4-1.5q0-0.9-0.1-1.8-0.1-0.3-0.2-0.6c1.5 0.6 2.6 2.1 2.6 3.9z"/>
							</g>
							<g id="&lt;Group&gt;">
								<path id="&lt;Path&gt;" class="s6" d="m139 133.8c0 2.3-1.9 4.1-4.2 4.1-2.3 0-4.1-1.8-4.1-4.1q0 0 0 0c0-2.3 1.9-4.2 4.1-4.2q0.9 0 1.6 0.4c1.5 0.6 2.6 2.1 2.6 3.8z"/>
								<path id="&lt;Path&gt;" class="s16" d="m139 133.8c0 2.3-1.9 4.1-4.2 4.1-2.3 0-4.1-1.8-4.1-4.1q0 0 0 0 0.1-0.1 0.3 0c0.7 0 1.3 0.2 1.9 0.5 0.6 0.2 1.1 0.4 1.6 0.4 0.4-0.1 0.8-0.3 1.2-0.5q0.3-0.2 0.6-0.4c0.3-0.4 0.4-0.9 0.4-1.5q0-0.8-0.2-1.7 0-0.4-0.1-0.6c1.5 0.6 2.6 2.1 2.6 3.8z"/>
							</g>
							<g id="&lt;Group&gt;">
								<path id="&lt;Path&gt;" class="s6" d="m90.4 159.2c0 2.3-1.9 4.2-4.2 4.2-2.3 0-4.1-1.9-4.1-4.2q0 0 0 0c0-2.3 1.8-4.1 4.1-4.1q0.8 0 1.6 0.3c1.5 0.6 2.6 2.1 2.6 3.8z"/>
								<path id="&lt;Path&gt;" class="s17" d="m90.4 159.2c0 2.3-1.9 4.2-4.2 4.2-2.3 0-4.1-1.9-4.1-4.2q0 0 0 0 0.1 0 0.3 0c0.6 0.1 1.3 0.3 1.9 0.5 0.5 0.2 1 0.4 1.6 0.4 0.4 0 0.8-0.2 1.1-0.4q0.4-0.2 0.6-0.5c0.4-0.3 0.4-0.9 0.4-1.4q0.1-0.9-0.1-1.8 0-0.3-0.1-0.6c1.5 0.6 2.6 2.1 2.6 3.8z"/>
							</g>
						</g>
						<g id="&lt;Group&gt;">
							<g id="&lt;Group&gt;">
								<path id="&lt;Path&gt;" class="s12" d="m172.9 140v18.2l-12.2-4.8-5.4-2.1v-18.2l7.3 2.9z"/>
								<path id="&lt;Path&gt;" class="s4" d="m190.5 133.1l-17.6 6.9-10.3-4-7.3-2.9 17.6-6.9 8 3.2z"/>
								<path id="&lt;Path&gt;" class="s9" d="m190.5 133.1v18.2l-17.6 6.9v-18.2z"/>
							</g>
							<path id="&lt;Path&gt;" class="s18" d="m190.5 133.1v18.2l-17.6 6.9-12.2-4.8c-1-1.6-2-3.2-2.6-5-0.9-3.4-0.1-7.2 2-10q1-1.4 2.5-2.4c1.8-1.4 4-2.4 6.3-2.8 2.5-0.3 5.1-0.1 7.5-0.9 1.7-0.5 3.3-1.6 4.5-2.9z"/>
						</g>
						<g id="&lt;Group&gt;">
							<g id="&lt;Group&gt;">
								<path id="&lt;Path&gt;" class="s12" d="m165.1 99.8v12.6l-6.2-2.4-6-2.4v-12.5l9.6 3.7z"/>
								<path id="&lt;Path&gt;" class="s4" d="m177.3 95.1l-7 2.7-5.2 2-2.6-1-9.6-3.7 4.7-1.9h0.1l7.4-2.9 3.4 1.4z"/>
								<path id="&lt;Path&gt;" class="s9" d="m177.3 95.1v12.5l-4 1.6-8.2 3.2v-12.6l5.2-2 1.2-0.5z"/>
							</g>
							<path id="&lt;Path&gt;" class="s19" d="m173.7 105.4c0 1.2 0 2.5-0.4 3.6q0 0.1 0 0.2l-8.2 3.2-6.2-2.4q-0.1-0.5-0.1-1.1c0-0.7 0.1-1.5 0.4-2.2 0.5-1.1 1.5-1.9 2.1-2.9 0.8-1.2 1-2.7 1.2-4.2 0-0.2 0-0.5 0-0.8q0-0.3-0.1-0.7c-0.1-0.5-0.4-0.9-0.6-1.3-0.9-1.2-1.9-2.5-3.3-3.2q-0.4-0.2-0.8-0.4l7.4-2.9 3.4 1.4c-0.7 0.6-1.4 1.3-1.6 2.1-0.3 0.9 0 1.9 0.6 2.6 0.6 0.7 1.5 1.1 2.4 1.3q0.2 0.1 0.4 0.1c0.4 0.1 0.8 0.3 1.1 0.4 0.7 0.4 1.1 1.1 1.5 1.8 0.7 1.7 0.7 3.6 0.8 5.4z"/>
						</g>
						<g id="&lt;Group&gt;">
							<g id="&lt;Group&gt;">
								<path id="&lt;Path&gt;" class="s12" d="m103 90.1v14l-13.6-5.3v-14z"/>
								<path id="&lt;Path&gt;" class="s4" d="m116.5 84.8l-9.3 3.6-4.2 1.7-13.6-5.3 13.6-5.3 7.4 2.9z"/>
								<path id="&lt;Path&gt;" class="s9" d="m116.5 84.8v14l-4.1 1.6-9.4 3.7v-14l4.2-1.7z"/>
							</g>
							<path id="&lt;Path&gt;" class="s20" d="m112.4 100.4l-9.4 3.7-13.6-5.3v-14l13.6-5.3 7.4 2.9c-1.2 0.7-2.5 1.3-3 2.7-0.2 0.5-0.3 1-0.3 1.6q0 0.8 0.1 1.7c0.1 1 0.4 2 0.9 2.9 0.4 0.7 1 1.4 1.6 2 1.4 1.7 2.4 3.8 2.6 6q0.1 0.5 0.1 1.1z"/>
						</g>
					</g>
					<g id="&lt;Group&gt;">
						<g id="&lt;Group&gt;">
							<path id="&lt;Path&gt;" class="s21" d="m135.9 43.9l-1.1-4.6 4.8 0.7-1.1 4.1z"/>
							<g id="&lt;Group&gt;">
								<g id="&lt;Group&gt;">
									<path id="&lt;Path&gt;" class="s21" d="m107.4 149.8q-0.6 1.3-0.3 3.1c-1.4 0.1-2.6-0.4-3.5-1.3 0.7-0.8 1.5-1.7 1.6-2.6z"/>
									<path id="&lt;Path&gt;" class="s9" d="m107.1 152.9c1 1.2 3.5 3.9 2.9 4.5-1.2 0.6-8.3-3.5-8.1-4.3 0.5-0.7 1.1-1.4 1.7-1.5 0.9 0.6 2.1 1 3.5 1.3z"/>
								</g>
								<path id="&lt;Path&gt;" class="s6" d="m104.5 149.3c4.2-12.1 8.9-21.6 9.1-30.5-2-13.1-4.2-14.2-1.7-24.9l11-2.9c1.3 9.5 2.8 21.5 1.2 26.6-1.6 6.9-9.8 18.3-16.4 32.7z"/>
							</g>
							<g id="&lt;Group&gt;">
								<g id="&lt;Group&gt;">
									<path id="&lt;Path&gt;" class="s21" d="m165.7 129.4q1.1 1 2.8 1.5c-0.5 1.3-1.4 2.2-2.6 2.6-0.5-0.9-0.9-1.9-1.7-2.4z"/>
									<path id="&lt;Path&gt;" class="s9" d="m168.5 130.9c1.4-0.4 5-1.6 5.3-0.9 0 1.4-6.6 6.2-7.2 5.8-0.5-0.8-0.9-1.6-0.7-2.3 0.9-0.5 1.8-1.5 2.6-2.6z"/>
								</g>
								<path id="&lt;Path&gt;" class="s6" d="m164.2 131.8c-9.4-8.7-16.2-16.9-24.3-20.6-12.7-3.5-14.8-1-23-10.9l1.4-8.8c9.2 2.6 20.8 6 24.8 9.5 5.7 4.4 12.7 16.5 23.2 28.3z"/>
							</g>
							<path id="&lt;Path&gt;" class="s9" d="m122.8 64.9c2.6-1.2 12.5 2.4 13.7 4.4 0.5 10.5-4.6 16.7-4.3 26.6-7.5 0.4-13.3 1.8-21 0.3 2.1-11.2 7.1-26.6 11.6-31.3z"/>
							<path id="&lt;Path&gt;" class="s9" d="m136.5 69.3c3.4 3 4.8 6.8 6.8 8.2 3.1 0.2 12.3-5.1 18.1-8.4l1.2 2.4c-7.5 5.4-17.2 12.8-19.2 13.2-3.1-0.7-5.8-3.3-8.4-6.6z"/>
							<path id="&lt;Path&gt;" class="s9" d="m122.8 64.9c4.4-1.2 8.2-0.3 10.4-1.2 1.8-2.5 2.3-13.1 2.7-19.8l2.6 0.2c0.5 9.4 1.6 21.5 0.8 23.4-2.3 2.2-5.9 3.1-10.1 3.5z"/>
							<path id="&lt;Path&gt;" class="s21" d="m128.6 65.5l1.6-3.9 2.7-0.9-1 5.9c-1.2 0.3-2.3-0.2-3.3-1.1z"/>
							<path id="&lt;Path&gt;" class="s21" d="m133 55.3c2 2.4 2.2 5.6 1.3 9.5-0.4 1.2-4.5-0.3-6.5-1.4l0.2-7.2z"/>
							<path id="&lt;Path&gt;" class="s12" d="m131.3 60.5c-0.4-0.8-1.5-1.7-1.9-1.1-0.4 0.7 1 3 1.3 4 0.3 0.9-1.9 1-3.6 0-1.2-0.7-2.7-3.1-1.1-6.6 1.5-3.5 3.3-1.9 5.1-3 1.8-1.2 2.8 0.6 4.3 1.7 1.5 1.1-0.6 4.6-3 3.8q-0.7 2.1-1.1 1.2z"/>
							<g id="&lt;Group&gt;">
								<path id="&lt;Path&gt;" class="s6" d="m161.4 56.6q-0.3-0.1-0.6-0.3c-4-1.7-10.4-1.3-15.3-0.2-0.8 0.2-1.3-0.8-0.7-1.4l4.8-4.2 8.1-7.1 0.5-0.4 1.3 5.5z"/>
								<g id="&lt;Group&gt;">
									<path id="&lt;Path&gt;" class="s12" d="m165.3 71c0.1 0.3-0.1 0.5-0.3 0.6-0.3 0.1-0.6-0.1-0.7-0.4l-3.5-14.9-1.7-7.3-1.4-5.6v-0.3c-0.1-0.3 0.1-0.5 0.4-0.6 0.3-0.1 0.5 0.1 0.6 0.4l1.2 4.9z"/>
								</g>
								<path id="&lt;Path&gt;" class="s22" d="m165.3 71c0.1 0.3-0.1 0.5-0.3 0.6-0.3 0.1-0.6-0.1-0.7-0.4l-3.5-14.9c-4-1.7-10.4-1.3-15.3-0.2-0.8 0.2-1.3-0.8-0.7-1.4l4.8-4.2c1.7 0.3 3.3 0.5 5.1 0.4 1.6-0.1 3.3-0.7 4.4-1.9q0.2-0.2 0.4-0.5c0.1-0.1 0.1-0.2 0.2-0.3q0.1-0.2 0.2-0.4z"/>
							</g>
							<path id="&lt;Path&gt;" class="s21" d="m161.4 69.1c0.3-1.1 0.9-2 1.8-2.6 0.4 0.2 0.8 0.1 1.1 0 0.8 0.4 1.1 1.4 1.1 2.6-0.2 0.9-0.6 1.4-1.2 1.6l-1.6 0.8z"/>
							<g id="&lt;Group&gt;">
								<g id="&lt;Group&gt;">
									<path id="&lt;Compound Path&gt;" fill-rule="evenodd" class="s12" d="m137.5 42.1c-2.2 0.8-4.3 1.3-6 1.4q-3.8 0.4-4.6-1.8l-0.1-0.6 0.6-13.3 9.2-3.3 8.9 10.5c1.2 3.2-4.5 5.8-8 7.1zm-7.7-1.6c0.9 0.1 3.3-0.1 6.7-1.3 3.5-1.2 5.5-2.6 6.1-3.3l-6.8-7.9-5.5 2z"/>
								</g>
								<path id="&lt;Path&gt;" class="s6" d="m141.5 12.5c2.5 7.2-1.1 15.1-8.1 17.6-6.2 2.2-12.9-0.5-16-6.2q-0.7-1.1-1.1-2.4c-2.5-7.3 1.1-15.1 8.1-17.6 5-1.9 10.5-0.3 14 3.4 1.3 1.5 2.4 3.2 3.1 5.2z"/>
								<path id="&lt;Compound Path&gt;" fill-rule="evenodd" class="s3" d="m139 13.4c2 5.8-0.9 12.2-6.5 14.2-5.6 2-11.8-1.1-13.8-7-2-5.8 0.9-12.2 6.6-14.2 5.6-2 11.7 1.2 13.7 7zm-1.8 0.6c-1.7-4.7-6.7-7.3-11.3-5.6-4.6 1.6-6.9 6.8-5.3 11.6 1.6 4.7 6.7 7.3 11.3 5.6 4.5-1.6 6.9-6.8 5.3-11.6z"/>
								<path id="&lt;Path&gt;" class="s3" d="m127 11.4l2.5 3.4 3.9-1.4-2.3 3.6 2.5 3.4-4-1.3-2.3 3.5-0.1-4.2-4-1.3 3.9-1.4z"/>
								<path id="&lt;Path&gt;" class="s23" d="m141.5 12.5c2.5 7.2-1.1 15.1-8.1 17.6-6.2 2.2-12.9-0.5-16-6.2-0.4-2.4-0.2-4.8 0.8-6.9 1.4-2.7 4.3-4.8 7.8-4.8 1.7-0.1 3.4 0.4 5.1 0.3 2.9 0 5.5-1.5 6.7-3.6 0.3-0.5 0.5-1 0.6-1.6 1.3 1.5 2.4 3.2 3.1 5.2z"/>
							</g>
							<path id="&lt;Path&gt;" class="s21" d="m134.8 39.3c1.2-1.5 2.8-1.8 4.6-1.4-0.3 1-1.1 1.6-2.4 2-0.9 0.2-1.5-0.2-2.2-0.6z"/>
						</g>
						<g id="&lt;Group&gt;">
							<path id="&lt;Path&gt;" class="s24" d="m107.3 150.2q-0.5 1.2-0.2 2.7c1 1.2 3.5 3.9 2.9 4.5-0.5 0.2-1.9-0.3-3.5-1.1 0.9-0.1 1-0.6 0.2-2.4q-0.3-0.5-0.5-1 0-0.1 0-0.2-0.5-1.4-0.3-2.9 0.1-0.3 0.1-0.5c0.3-1.3 0.9-2.6 1.9-4.2 2.2-3.5 17.7-29.6 12.1-41.2q3.5 2.3 4.7 3.4c0.2 4.3 0.2 8-0.5 10.3-1.7 6.9-9.9 18.3-16.5 32.7z"/>
							<path id="&lt;Path&gt;" class="s24" d="m134.9 95.5q0 0.1 0 0.1l-1.7 0.2q0.6-0.1 1.7-0.3z"/>
							<path id="&lt;Path&gt;" class="s24" d="m173.8 130c0 0.6-1.3 2-2.9 3.2 0.4-1.5-0.8-0.5-2.9-1.3q-0.1-0.1-0.2-0.1c-0.7-0.3-1.5-0.7-2.5-1.3-0.1-0.1-0.2-0.2-0.4-0.2-2.4-1.7-5.4-4.6-9-10-5-7.9-7.1-12.3-10.8-14.6-3.7-2.4-15.1-9.7-18.3-9.4h0.9l3-0.3h0.3l1.2-0.1h0.3l0.7-0.1-0.7 0.1c4.6 1.6 8.6 3.4 10.6 5.1 5.7 4.4 12.7 16.5 23.2 28.3l-0.2 0.3q0.9 0.9 2.4 1.3c1.4-0.4 5-1.6 5.3-0.9z"/>
							<path id="&lt;Path&gt;" class="s24" d="m134.9 95.6l-1.7 0.2q0.6-0.1 1.7-0.3 0 0.1 0 0.1z"/>
							<path id="&lt;Path&gt;" class="s24" d="m158.2 74.7c-6.5 4.8-13.2 9.7-14.9 10-2.8-0.6-5.3-2.9-7.8-6-1.3 5.6-3.5 10.6-3.3 17.1q0.1 0 0.3 0.1l0.7-0.1-5.6 0.6q0-0.1 0.1-0.1 0 0 0-0.1c0.1-0.2 0.4-0.8 0.8-1.7 1.4-2.8 3.9-8.4 4.6-11.8 0.9-4.4-0.2-7.7-0.4-8.1 0.3 0.2 1.2 1.2 2.5 2.4q0.3 0.3 0.6 0.5c2 1.8 4.5 3.9 6.6 4.7 2.7 1.1 10.7-4 15.8-7.5z"/>
							<path id="&lt;Path&gt;" class="s24" d="m138.7 47.6c0.6 8.6 1.3 18.2 0.6 19.9q-1.2 1.1-2.7 1.8h-0.1c-0.7-0.7-2.1-1.6-2.4-1.8q-0.1 0-0.1 0c4.9-0.3 4.8-17.7 4.7-19.9z"/>
							<path id="&lt;Path&gt;" class="s24" d="m132.1 65.1q0.3 1.5 0 1.5-0.3 0-0.8 0.1 0.4-1.2-0.7-2.1z"/>
						</g>
					</g>
					<g id="&lt;Group&gt;">
						<g id="&lt;Group&gt;">
							<path id="&lt;Path&gt;" class="s9" d="m111.2 47.2v9.9c0 1.6-1.3 2.9-2.9 2.9h-41.1c-1 0-1.8-0.5-2.3-1.2-0.4-0.5-0.6-1.1-0.6-1.7v-9.9c0-1.6 1.3-2.9 2.9-2.9h41.1c1.6 0 2.9 1.3 2.9 2.9z"/>
							<rect id="&lt;Path&gt;" class="s4" x="66.6" y="46.6" width="13.3" height="11.1" rx="1.1"></rect>
							<path id="&lt;Path&gt;" class="s6" d="m92.7 49.1h-7.9c-0.2 0-0.4-0.2-0.4-0.5v-1.5c0-0.3 0.2-0.5 0.4-0.5h7.9c0.2 0 0.5 0.2 0.5 0.5v1.5c0 0.3-0.3 0.5-0.5 0.5z"/>
							<rect id="&lt;Path&gt;" class="s6" x="84.4" y="50.9" width="22.8" height="6.8" rx=".5"></rect>
						</g>
						<path id="&lt;Path&gt;" class="s25" d="m111.2 47.2v9.9c0 1.6-1.3 2.9-2.9 2.9h-41.1c-1 0-1.8-0.5-2.3-1.2q-0.1-0.8 0-1.6c0.2-1.3 0.9-2.4 1.7-3.3q0.6-0.6 1.3-1c1-0.6 2.2-0.9 3.3-1.1 2.9-0.5 5.9-0.5 8.7 0.1q0.5 0 0.9 0.2c1.2 0.2 2.4 0.6 3.5 1 1.8 0.5 3.6 1.1 5.4 1.5 3.2 0.6 6.6 0.5 9.8-0.4 1.8-0.5 3.7-1.4 4.7-2.9q0.2-0.2 0.3-0.4c0.6-1 0.8-2.2 0.8-3.4 0-1-0.5-2.1-0.6-3.2h3.6c1.6 0 2.9 1.3 2.9 2.9z"/>
					</g>
				</g>
			</g>
		</g>
	</g>
</svg>