<svg version="1.2" xmlns="http://www.w3.org/2000/svg" viewBox="0 0 300 225" width="1000" height="750">
	<title>Illustration_Ladder Success-ai</title>
	<defs>
		<linearGradient id="g1" x1="254.1" y1="-31.4" x2="306" y2="182.8" gradientUnits="userSpaceOnUse">
			<stop offset="0" stop-color="#7035bb"/>
			<stop offset="1" stop-color="#36164d"/>
		</linearGradient>
		<linearGradient id="g2" x1="283.5" y1="58.8" x2="251" y2="209.5" gradientUnits="userSpaceOnUse">
			<stop offset="0" stop-color="#ffffff"/>
			<stop offset="1" stop-color="#000000"/>
		</linearGradient>
		<linearGradient id="g3" x1="278.8" y1="72.1" x2="282.8" y2="210.5" gradientUnits="userSpaceOnUse">
			<stop offset="0" stop-color="#ffffff"/>
			<stop offset="1" stop-color="#000000"/>
		</linearGradient>
		<linearGradient id="g4" x1="262.8" y1="182.3" x2="179.9" y2="285.7" gradientUnits="userSpaceOnUse">
			<stop offset="0" stop-color="#ffffff"/>
			<stop offset="1" stop-color="#000000"/>
		</linearGradient>
		<clipPath clipPathUnits="userSpaceOnUse" id="cp1">
			<path d="m249.21 194.09q0.07 0.92 0.07 1.9c0 20.88-69.4 17.05-84.5 3.95-30.47-26.39-82.98 46.72-115.17 11.93-28.27-30.56 33.17-68.91 12.44-87.01q-1.1-0.97-2.12-1.96-0.24-0.24-0.48-0.49-0.76-0.75-1.48-1.51-0.32-0.36-0.63-0.72-0.59-0.65-1.15-1.32-0.35-0.43-0.68-0.85-0.49-0.61-0.95-1.23-0.33-0.46-0.65-0.92-0.43-0.59-0.83-1.2-0.3-0.46-0.58-0.93-0.38-0.61-0.75-1.23-0.25-0.44-0.49-0.89-0.35-0.65-0.69-1.3-0.19-0.41-0.38-0.81-0.34-0.72-0.65-1.43-0.05-0.11-0.1-0.22-0.05-0.14-0.11-0.28-0.55-1.36-1-2.72-0.05-0.15-0.1-0.3-0.48-1.5-0.83-3.01-0.03-0.16-0.06-0.31-0.31-1.41-0.51-2.81-0.02-0.14-0.04-0.28-0.2-1.52-0.27-3.02-0.01-0.11-0.01-0.23-0.05-1.4 0-2.77 0.01-0.16 0.01-0.33 0.08-1.46 0.27-2.9 0.02-0.1 0.03-0.2 0.2-1.33 0.49-2.63 0.04-0.19 0.09-0.39 0.32-1.38 0.77-2.71 0.03-0.1 0.07-0.19 0.41-1.23 0.93-2.4 0.09-0.23 0.19-0.45 0.56-1.26 1.23-2.46 0.05-0.1 0.11-0.19 0.62-1.09 1.33-2.13 0.16-0.24 0.33-0.48 0.78-1.11 1.65-2.15 0.07-0.08 0.14-0.16 0.82-0.95 1.72-1.83 0.23-0.23 0.47-0.46 0.98-0.94 2.05-1.81 0.06-0.04 0.12-0.09 1.03-0.8 2.13-1.53 0.29-0.2 0.6-0.39 1.17-0.76 2.44-1.43 1.01-0.53 1.95-1 0.15-0.08 0.31-0.15 0.65-0.33 1.28-0.65 0.61-0.3 1.2-0.59 0.52-0.26 1.02-0.5 0.67-0.32 1.31-0.63 0.38-0.18 0.75-0.36 0.72-0.34 1.41-0.66 0.25-0.11 0.48-0.22 0.81-0.37 1.56-0.71 0.08-0.04 0.15-0.07c3.34-1.51 5.96-2.61 8.12-3.62q0.01-0.01 0.02-0.01 0.54-0.25 1.05-0.51 0.06-0.03 0.12-0.05 0.47-0.24 0.91-0.47 0.08-0.05 0.16-0.09 0.42-0.22 0.81-0.45 0.09-0.06 0.18-0.11 0.38-0.22 0.75-0.46 0.09-0.06 0.18-0.12 0.36-0.23 0.7-0.47 0.09-0.07 0.18-0.13 0.33-0.25 0.66-0.51 0.09-0.07 0.17-0.14 0.33-0.27 0.65-0.56 0.08-0.07 0.16-0.15 0.32-0.3 0.63-0.61 0.08-0.08 0.15-0.16 0.32-0.33 0.64-0.69 0.07-0.07 0.13-0.15 0.33-0.37 0.66-0.79 0.05-0.06 0.11-0.13 0.34-0.43 0.69-0.91 0.04-0.05 0.07-0.09 0.37-0.51 0.76-1.07 0.01-0.02 0.02-0.03c2.75-4.02 5.99-10.11 11.36-20.22 10.95-20.61 28.4-28.13 46.59-23.08 11.08 3.09 22.43 10.8 32.76 23.08 21.83 25.93 64.01 15.02 82.02 26.75 2.43 1.59 4.42 3.59 5.86 6.15 1.42 2.55 2.26 5.03 2.61 7.46 2.79 20.45-30.3 37.16-40.22 66.96-1.24 3.74-2.14 7.1-2.79 10.18q-0.08 0.36-0.16 0.72-0.03 0.21-0.07 0.42-0.57 3.01-0.8 5.65-0.02 0.19-0.03 0.38-0.09 1.14-0.12 2.21-0.01 0.35-0.01 0.69-0.01 0.89 0.02 1.73 0.01 0.4 0.03 0.78 0.04 0.77 0.12 1.5 0.03 0.39 0.08 0.78 0.09 0.7 0.21 1.37 0.05 0.36 0.12 0.72 0.14 0.69 0.3 1.34 0.07 0.31 0.15 0.6 0.25 0.92 0.54 1.79 0.08 0.2 0.16 0.4 0.23 0.65 0.49 1.27 0.16 0.36 0.32 0.7 0.2 0.45 0.42 0.89 0.18 0.36 0.38 0.72 0.2 0.39 0.42 0.76 0.21 0.37 0.43 0.73 0.21 0.34 0.43 0.68 0.24 0.36 0.47 0.71 0.22 0.32 0.44 0.62 0.25 0.36 0.51 0.71 0.2 0.27 0.41 0.54 0.28 0.37 0.57 0.73 0.04 0.06 0.09 0.11c1.3 1.63 2.67 3.15 3.98 4.68q0.1 0.12 0.2 0.24 0.39 0.45 0.77 0.91 0.15 0.19 0.3 0.37 0.34 0.41 0.67 0.83 0.16 0.2 0.31 0.41 0.34 0.44 0.66 0.88 0.13 0.18 0.26 0.36 0.88 1.24 1.63 2.59 0.11 0.22 0.22 0.44 0.24 0.46 0.47 0.94 0.12 0.27 0.24 0.55 0.19 0.44 0.36 0.9 0.11 0.31 0.22 0.62 0.15 0.46 0.29 0.94 0.09 0.32 0.17 0.65 0.13 0.5 0.23 1.02 0.06 0.32 0.12 0.66 0.09 0.58 0.15 1.18 0.04 0.3 0.07 0.6z"/>
		</clipPath>
		<linearGradient id="g5" x1="12.1" y1="158.2" x2="46.8" y2="138.4" gradientUnits="userSpaceOnUse">
			<stop offset="0" stop-color="#ffffff"/>
			<stop offset="1" stop-color="#000000"/>
		</linearGradient>
		<linearGradient id="g6" x1="6.4" y1="184" x2="47.9" y2="185.9" gradientUnits="userSpaceOnUse">
			<stop offset="0" stop-color="#ffffff"/>
			<stop offset="1" stop-color="#000000"/>
		</linearGradient>
		<linearGradient id="g7" x1="56.1" y1="170.7" x2="35.2" y2="193.4" gradientUnits="userSpaceOnUse">
			<stop offset="0" stop-color="#ffffff"/>
			<stop offset="1" stop-color="#000000"/>
		</linearGradient>
		<linearGradient id="g8" x1="239.2" y1="163" x2="220.4" y2="166.9" gradientUnits="userSpaceOnUse">
			<stop offset="0" stop-color="#ffffff"/>
			<stop offset="1" stop-color="#000000"/>
		</linearGradient>
		<linearGradient id="g9" x1="210.9" y1="159.7" x2="228.3" y2="167.5" gradientUnits="userSpaceOnUse">
			<stop offset="0" stop-color="#ffffff"/>
			<stop offset="1" stop-color="#000000"/>
		</linearGradient>
		<linearGradient id="g10" x1="213.4" y1="168.9" x2="223.6" y2="181.1" gradientUnits="userSpaceOnUse">
			<stop offset="0" stop-color="#ffffff"/>
			<stop offset="1" stop-color="#000000"/>
		</linearGradient>
		<linearGradient id="g11" x1="228.6" y1="164.8" x2="245.2" y2="182" gradientUnits="userSpaceOnUse">
			<stop offset="0" stop-color="#ffffff"/>
			<stop offset="1" stop-color="#000000"/>
		</linearGradient>
		<linearGradient id="g12" x1="85.7" y1="60.4" x2="195" y2="60.4" gradientUnits="userSpaceOnUse">
			<stop offset="0" stop-color="#ffffff"/>
			<stop offset="1" stop-color="#000000"/>
		</linearGradient>
		<linearGradient id="g13" x1="172.4" y1="171.8" x2="198" y2="171.8" gradientUnits="userSpaceOnUse">
			<stop offset="0" stop-color="#ffffff"/>
			<stop offset="1" stop-color="#000000"/>
		</linearGradient>
		<linearGradient id="g14" x1="212.7" y1="151.5" x2="220.9" y2="172.1" gradientUnits="userSpaceOnUse">
			<stop offset="0" stop-color="#ffffff"/>
			<stop offset="1" stop-color="#000000"/>
		</linearGradient>
		<linearGradient id="g15" x1="186.9" y1="22.3" x2="209.3" y2="22.3" gradientUnits="userSpaceOnUse">
			<stop offset="0" stop-color="#ffffff"/>
			<stop offset="1" stop-color="#000000"/>
		</linearGradient>
		<linearGradient id="g16" x1="209.4" y1="62.7" x2="196.9" y2="79.5" gradientUnits="userSpaceOnUse">
			<stop offset="0" stop-color="#ffffff"/>
			<stop offset="1" stop-color="#000000"/>
		</linearGradient>
		<linearGradient id="g17" x1="239.8" y1="101.5" x2="227.6" y2="98.7" gradientUnits="userSpaceOnUse">
			<stop offset="0" stop-color="#ffffff"/>
			<stop offset="1" stop-color="#000000"/>
		</linearGradient>
		<linearGradient id="g18" x1="182.8" y1="126" x2="205.1" y2="122.1" gradientUnits="userSpaceOnUse">
			<stop offset="0" stop-color="#ffffff"/>
			<stop offset="1" stop-color="#000000"/>
		</linearGradient>
		<linearGradient id="g19" x1="80.9" y1="52.5" x2="105.4" y2="29.2" gradientUnits="userSpaceOnUse">
			<stop offset="0" stop-color="#ffffff"/>
			<stop offset="1" stop-color="#000000"/>
		</linearGradient>
		<linearGradient id="g20" x1="116.5" y1="47.2" x2="119.7" y2="52.7" gradientUnits="userSpaceOnUse">
			<stop offset="0" stop-color="#ffffff"/>
			<stop offset="1" stop-color="#000000"/>
		</linearGradient>
	</defs>
	<style>
		.s0 { fill: #7035bb } 
		.s1 { fill: #ff4777 } 
		.s2 { fill: url(#g1) } 
		.s3 { opacity: .5;mix-blend-mode: overlay;fill: url(#g2) } 
		.s4 { opacity: .5;mix-blend-mode: overlay;fill: url(#g3) } 
		.s5 { opacity: .5;mix-blend-mode: overlay;fill: url(#g4) } 
		.s6 { fill: #ffffff } 
		.s7 { mix-blend-mode: overlay;fill: url(#g5) } 
		.s8 { mix-blend-mode: overlay;fill: url(#g6) } 
		.s9 { mix-blend-mode: overlay;fill: url(#g7) } 
		.s10 { fill: #f3effe } 
		.s11 { mix-blend-mode: overlay;fill: url(#g8) } 
		.s12 { mix-blend-mode: overlay;fill: url(#g9) } 
		.s13 { fill: #36164d } 
		.s14 { opacity: .5;mix-blend-mode: overlay;fill: url(#g10) } 
		.s15 { opacity: .5;mix-blend-mode: overlay;fill: url(#g11) } 
		.s16 { fill: #37174a } 
		.s17 { opacity: .5;mix-blend-mode: overlay;fill: url(#g12) } 
		.s18 { opacity: .1;fill: #000000 } 
		.s19 { opacity: .5;mix-blend-mode: overlay;fill: url(#g13) } 
		.s20 { opacity: .5;mix-blend-mode: overlay;fill: url(#g14) } 
		.s21 { opacity: .5;mix-blend-mode: overlay;fill: url(#g15) } 
		.s22 { fill: #fbd783 } 
		.s23 { opacity: .5;mix-blend-mode: overlay;fill: url(#g16) } 
		.s24 { opacity: .5;mix-blend-mode: overlay;fill: url(#g17) } 
		.s25 { fill: #2a195b } 
		.s26 { opacity: .5;mix-blend-mode: overlay;fill: url(#g18) } 
		.s27 { opacity: .5;mix-blend-mode: overlay;fill: url(#g19) } 
		.s28 { opacity: .5;mix-blend-mode: overlay;fill: url(#g20) } 
	</style>
	<g id="Layer 1">
		<g id="&lt;Group&gt;">
			<g id="Ladder Success 1 ">
				<g id="&lt;Group&gt;">
					<g id="&lt;Group&gt;">
						<g id="&lt;Group&gt;">
							<path id="&lt;Compound Path&gt;" fill-rule="evenodd" class="s0" d="m226.7 20.9c-3 0-5.3-2.4-5.3-5.3 0-2.9 2.3-5.3 5.3-5.3 2.9 0 5.3 2.4 5.3 5.3 0 2.9-2.4 5.3-5.3 5.3zm3.4-5.3c0-1.9-1.5-3.4-3.4-3.4-1.9 0-3.4 1.5-3.4 3.4 0 1.9 1.5 3.4 3.4 3.4 1.9 0 3.4-1.5 3.4-3.4z"/>
						</g>
						<g id="&lt;Group&gt;">
							<path id="&lt;Path&gt;" class="s1" d="m238 16.6h-11.3c-0.6 0-1-0.5-1-1 0-0.5 0.4-1 1-1h11.3c0.5 0 1 0.5 1 1 0 0.5-0.5 1-1 1z"/>
						</g>
						<g id="&lt;Group&gt;">
							<path id="&lt;Path&gt;" class="s1" d="m244.6 11.9h-11.3c-0.5 0-1-0.4-1-1 0-0.5 0.5-0.9 1-0.9h11.3c0.5 0 1 0.4 1 0.9 0 0.6-0.5 1-1 1z"/>
						</g>
						<g id="&lt;Group&gt;">
							<path id="&lt;Path&gt;" class="s1" d="m226.7 9.2c-0.6 0-1-0.4-1-0.9v-4.8c0-0.5 0.4-1 1-1 0.5 0 0.9 0.5 0.9 1v4.8c0 0.5-0.4 0.9-0.9 0.9z"/>
						</g>
					</g>
					<g id="&lt;Group&gt;">
						<g id="&lt;Group&gt;">
							<circle id="&lt;Compound Path&gt;" class="s0" cx="130.9" cy="217.4" r="4.1"/>
						</g>
						<g id="&lt;Group&gt;">
							<path id="&lt;Path&gt;" class="s1" d="m144.7 218.6h-13.8c-0.7 0-1.2-0.5-1.2-1.2 0-0.6 0.5-1.2 1.2-1.2h13.8c0.7 0 1.2 0.6 1.2 1.2 0 0.7-0.5 1.2-1.2 1.2z"/>
						</g>
						<g id="&lt;Group&gt;">
							<path id="&lt;Path&gt;" class="s1" d="m152.8 212.9h-13.8c-0.7 0-1.2-0.5-1.2-1.2 0-0.6 0.5-1.2 1.2-1.2h13.8c0.6 0 1.2 0.6 1.2 1.2 0 0.7-0.6 1.2-1.2 1.2z"/>
						</g>
					</g>
					<g id="&lt;Group&gt;">
						<g id="&lt;Group&gt;">
							<path id="&lt;Path&gt;" class="s0" d="m35.8 137.4h-13.8c-0.6 0-1.2-0.5-1.2-1.1 0-0.7 0.6-1.2 1.2-1.2h13.8c0.7 0 1.2 0.5 1.2 1.2 0 0.6-0.5 1.1-1.2 1.1z"/>
						</g>
						<g id="&lt;Group&gt;">
							<path id="&lt;Path&gt;" class="s0" d="m43.9 131.7h-13.8c-0.6 0-1.2-0.5-1.2-1.2 0-0.6 0.6-1.1 1.2-1.1h13.8c0.7 0 1.2 0.5 1.2 1.1 0 0.7-0.5 1.2-1.2 1.2z"/>
						</g>
					</g>
					<g id="&lt;Group&gt;">
						<path id="&lt;Path&gt;" class="s2" d="m249.3 196c0 20.9-69.4 17-84.5 3.9-30.5-26.3-83 46.8-115.2 12-28.3-30.6 33.2-68.9 12.5-87-6-5.3-10.2-11.1-12.7-17-7.1-17.1-0.9-35.2 14.3-43.1q1-0.5 1.9-1c26.9-13.7 22.3-4.8 39.5-37.2 11-20.6 28.4-28.2 46.6-23.1 11.1 3.1 22.5 10.8 32.8 23.1 21.8 25.9 64 15 82 26.7 2.4 1.6 4.4 3.6 5.9 6.2 1.4 2.5 2.2 5 2.6 7.4 2.8 20.5-30.3 37.2-40.2 67-1.8 5.3-2.9 10-3.5 14-4.1 28.6 18 28.6 18 48.1z"/>
						<path id="&lt;Path&gt;" class="s3" d="m249.3 196c0 20.9-69.4 17-84.5 3.9-30.5-26.3-83 46.8-115.2 12-28.3-30.6 33.2-68.9 12.5-87-23.1-20.1-18.9-49.4 1.6-60.1 29-15.1 23.8-5.1 41.4-38.2 11-20.6 28.4-28.2 46.6-23.1-1.1 5.9-2.8 12.1-2.6 16.1 0.6 10.7 3.5 21.3 9 30.6 11.8 19.6 35.7 31.8 58.2 27.8 18.5-3.2 35.8-16.3 54.1-12.4q2.4 0.5 4.6 1.3c2.8 20.5-30.3 37.2-40.2 67-14.4 43 14.5 39.8 14.5 62.1z"/>
						<path id="&lt;Path&gt;" class="s4" d="m249.3 196c0 20.9-69.4 17-84.5 3.9-30.5-26.3-83 46.8-115.2 12-28.3-30.6 33.2-68.9 12.5-87-23.1-20.1-18.9-49.4 1.6-60.1q1-0.5 1.9-1c16.4 8.6 30.9 22.6 48.7 28.2 17 5.3 35.6 2.3 52.2-4.2 16.5-6.5 31.5-16.2 47-25 6.4-3.7 12.9-7.2 20-9.3 9.9-2.8 20.3-2.5 30.3-0.7q1.3 0.3 2.7 0.5c2.4 1.6 4.4 3.6 5.9 6.2 1.4 2.5 2.2 5 2.6 7.4 2.8 20.5-30.3 37.2-40.2 67-14.4 43 14.5 39.8 14.5 62.1z"/>
						<path id="&lt;Path&gt;" class="s5" d="m249.3 196c0 20.9-69.4 17-84.5 3.9-30.5-26.3-83 46.8-115.2 12-28.3-30.6 33.2-68.9 12.5-87-6-5.3-10.2-11.1-12.7-17 5.4-1.9 11.4-2.6 17.1-1.9 12.7 1.5 24.1 8.3 34.3 15.9 10.3 7.5 20 16.1 31.3 22 11.8 6.2 25.1 9.2 38.3 11 17.5 2.3 35.8 2.5 52.4-3.4q4.3-1.6 8.5-3.6c-4.1 28.6 18 28.6 18 48.1z"/>
					</g>
					<g id="&lt;Clip Group&gt;" clip-path="url(#cp1)">
						<g id="&lt;Group&gt;" style="opacity: .6;mix-blend-mode: overlay">
							<g id="&lt;Group&gt;">
								<g id="&lt;Group&gt;">
									<path id="&lt;Compound Path&gt;" fill-rule="evenodd" class="s6" d="m153.2 121.6l0.7-5.8 4.8-6.8-0.6 5.8zm1-5.6l-0.5 4.2 4-5.5 0.4-4.3z"/>
								</g>
							</g>
							<g id="&lt;Group&gt;">
								<g id="&lt;Group&gt;">
									<path id="&lt;Compound Path&gt;" fill-rule="evenodd" class="s6" d="m152.7 122l1.2-6.3 5.3-7.1-1.1 6.4zm1.4-6.2l-0.8 4.7 4.4-5.8 0.8-4.6z"/>
								</g>
							</g>
							<g id="&lt;Group&gt;">
								<g id="&lt;Group&gt;">
									<path id="&lt;Compound Path&gt;" fill-rule="evenodd" class="s6" d="m152.3 122.4l1.6-6.9 5.8-7.3-1.6 6.9zm1.9-6.7l-1.2 5.1 4.7-5.9 1.3-5.1z"/>
								</g>
							</g>
							<g id="&lt;Group&gt;">
								<g id="&lt;Group&gt;">
									<path id="&lt;Compound Path&gt;" fill-rule="evenodd" class="s6" d="m151.7 122.8l2.2-7.4 6.3-7.6-2.2 7.5zm2.5-7.2l-1.6 5.5 5.1-6.1 1.7-5.6z"/>
								</g>
							</g>
							<g id="&lt;Group&gt;">
								<g id="&lt;Group&gt;">
									<path id="&lt;Compound Path&gt;" fill-rule="evenodd" class="s6" d="m151.2 123.1l2.8-7.9 6.8-7.7-2.8 7.9zm3.1-7.7l-2.1 6.1 5.5-6.3 2.1-6.1z"/>
								</g>
							</g>
							<g id="&lt;Group&gt;">
								<g id="&lt;Group&gt;">
									<path id="&lt;Compound Path&gt;" fill-rule="evenodd" class="s6" d="m150.7 123.5l3.3-8.5 7.3-7.9-3.3 8.5zm3.6-8.3l-2.6 6.6 6-6.4 2.5-6.6z"/>
								</g>
							</g>
							<g id="&lt;Group&gt;">
								<g id="&lt;Group&gt;">
									<path id="&lt;Compound Path&gt;" fill-rule="evenodd" class="s6" d="m150.1 123.8l4-9 7.8-8-4 9zm4.3-8.8l-3.1 7.1 6.3-6.5 3.1-7.1z"/>
								</g>
							</g>
							<g id="&lt;Group&gt;">
								<g id="&lt;Group&gt;">
									<path id="&lt;Compound Path&gt;" fill-rule="evenodd" class="s6" d="m149.5 124.1l4.6-9.5 8.3-8.1-4.6 9.5zm4.9-9.3l-3.6 7.6 6.7-6.6 3.7-7.6z"/>
								</g>
							</g>
							<g id="&lt;Group&gt;">
								<g id="&lt;Group&gt;">
									<path id="&lt;Compound Path&gt;" fill-rule="evenodd" class="s6" d="m148.9 124.4l5.3-10.1 8.8-8.1-5.3 10.1zm5.6-9.9l-4.2 8.1 7.1-6.7 4.3-8z"/>
								</g>
							</g>
							<g id="&lt;Group&gt;">
								<g id="&lt;Group&gt;">
									<path id="&lt;Compound Path&gt;" fill-rule="evenodd" class="s6" d="m148.3 124.7l6-10.6 9.3-8.2-6 10.6zm6.3-10.3l-4.9 8.5 7.6-6.6 4.9-8.6z"/>
								</g>
							</g>
							<g id="&lt;Group&gt;">
								<g id="&lt;Group&gt;">
									<path id="&lt;Compound Path&gt;" fill-rule="evenodd" class="s6" d="m147.7 124.9l6.8-11.1 9.7-8.1-6.7 11.1zm7-10.8l-5.5 9 8-6.6 5.5-9.1z"/>
								</g>
							</g>
							<g id="&lt;Group&gt;">
								<g id="&lt;Group&gt;">
									<path id="&lt;Compound Path&gt;" fill-rule="evenodd" class="s6" d="m147.1 125.1l7.5-11.5 10.2-8.1-7.5 11.6zm7.8-11.3l-6.2 9.5 8.4-6.6 6.2-9.6z"/>
								</g>
							</g>
							<g id="&lt;Group&gt;">
								<g id="&lt;Group&gt;">
									<path id="&lt;Compound Path&gt;" fill-rule="evenodd" class="s6" d="m146.5 125.3l8.3-12 10.6-8-8.2 12zm8.5-11.7l-6.9 10.1 8.7-6.6 7-10z"/>
								</g>
							</g>
							<g id="&lt;Group&gt;">
								<g id="&lt;Group&gt;">
									<path id="&lt;Compound Path&gt;" fill-rule="evenodd" class="s6" d="m145.9 125.4l9.1-12.4 11-7.8-9 12.5zm9.3-12.2l-7.7 10.6 9.2-6.5 7.6-10.5z"/>
								</g>
							</g>
							<g id="&lt;Group&gt;">
								<g id="&lt;Group&gt;">
									<path id="&lt;Compound Path&gt;" fill-rule="evenodd" class="s6" d="m145.4 125.4l9.8-12.8 11.4-7.4-9.8 12.8zm10-12.5l-8.4 10.9 9.5-6.2 8.5-10.9z"/>
								</g>
							</g>
							<g id="&lt;Group&gt;">
								<g id="&lt;Group&gt;">
									<path id="&lt;Compound Path&gt;" fill-rule="evenodd" class="s6" d="m144.8 125.4l10.6-13.1 11.8-7.1-10.7 13.1zm10.9-12.8l-9.2 11.4 9.9-6 9.2-11.4z"/>
								</g>
							</g>
							<g id="&lt;Group&gt;">
								<g id="&lt;Group&gt;">
									<path id="&lt;Compound Path&gt;" fill-rule="evenodd" class="s6" d="m144.2 125.4l11.5-13.5 12-6.7-11.4 13.5zm11.7-13.2l-10.1 11.8 10.2-5.7 10-11.8z"/>
								</g>
							</g>
							<g id="&lt;Group&gt;">
								<g id="&lt;Group&gt;">
									<path id="&lt;Compound Path&gt;" fill-rule="evenodd" class="s6" d="m143.7 125.3l12.3-13.7 12.3-6.3-12.3 13.7zm12.5-13.4l-10.9 12.2 10.5-5.4 10.9-12.1z"/>
								</g>
							</g>
							<g id="&lt;Group&gt;">
								<g id="&lt;Group&gt;">
									<path id="&lt;Compound Path&gt;" fill-rule="evenodd" class="s6" d="m143.2 125.1l13.1-13.9 12.5-5.7-13.1 13.9zm13.3-13.6l-11.7 12.5 10.7-4.9 11.7-12.5z"/>
								</g>
							</g>
							<g id="&lt;Group&gt;">
								<g id="&lt;Group&gt;">
									<path id="&lt;Compound Path&gt;" fill-rule="evenodd" class="s6" d="m142.7 124.9l13.9-14.1 12.7-5.1-14 14.1zm14.2-13.8l-12.6 12.8 10.9-4.5 12.6-12.7z"/>
								</g>
							</g>
							<g id="&lt;Group&gt;">
								<g id="&lt;Group&gt;">
									<path id="&lt;Compound Path&gt;" fill-rule="evenodd" class="s6" d="m142.2 124.6l14.8-14.2 12.7-4.4-14.7 14.2zm14.9-13.8l-13.4 12.9 11.1-3.9 13.4-12.9z"/>
								</g>
							</g>
							<g id="&lt;Group&gt;">
								<g id="&lt;Group&gt;">
									<path id="&lt;Compound Path&gt;" fill-rule="evenodd" class="s6" d="m141.8 124.2l15.6-14.2 12.8-3.6-15.6 14.2zm15.7-13.9l-14.3 13.1 11.2-3.2 14.3-13.1z"/>
								</g>
							</g>
							<g id="&lt;Group&gt;">
								<g id="&lt;Group&gt;">
									<path id="&lt;Compound Path&gt;" fill-rule="evenodd" class="s6" d="m141.4 123.8l16.4-14.2 12.7-2.8-16.3 14.2zm16.5-13.8l-15.2 13.1 11.3-2.4 15.1-13.2z"/>
								</g>
							</g>
							<g id="&lt;Group&gt;">
								<g id="&lt;Group&gt;">
									<path id="&lt;Compound Path&gt;" fill-rule="evenodd" class="s6" d="m141.1 123.2l17.1-14 12.7-1.8-17.1 14h-0.1zm17.3-13.7l-16 13.1 11.3-1.6 15.9-13.1z"/>
								</g>
							</g>
							<g id="&lt;Group&gt;">
								<g id="&lt;Group&gt;">
									<path id="&lt;Compound Path&gt;" fill-rule="evenodd" class="s6" d="m140.8 122.6l0.5-0.4 17.3-13.4 12.6-0.8-0.5 0.4-17.4 13.4zm18-13.4l-16.8 13 11.2-0.7 16.8-13.1z"/>
								</g>
							</g>
							<g id="&lt;Group&gt;">
								<g id="&lt;Group&gt;">
									<path id="&lt;Compound Path&gt;" fill-rule="evenodd" class="s6" d="m152.8 122.2l-12.2-0.3 0.4-0.3 18.1-13.2h0.1l12.2 0.3-0.5 0.3zm-11.1-0.6l11 0.2 17.6-12.8-11.1-0.3z"/>
								</g>
							</g>
							<g id="&lt;Group&gt;">
								<g id="&lt;Group&gt;">
									<path id="&lt;Compound Path&gt;" fill-rule="evenodd" class="s6" d="m152.3 122.7v-0.1l-11.9-1.5 19.2-13.1h0.1l11.8 1.5zm-10.8-1.8l10.7 1.4 18.3-12.5-10.8-1.4z"/>
								</g>
							</g>
							<g id="&lt;Group&gt;">
								<g id="&lt;Group&gt;">
									<path id="&lt;Compound Path&gt;" fill-rule="evenodd" class="s6" d="m151.8 123.1l-11.5-2.9 19.9-12.7 11.4 2.9zm-10.5-3l10.5 2.6 18.9-12.1-10.4-2.6z"/>
								</g>
							</g>
							<g id="&lt;Group&gt;">
								<g id="&lt;Group&gt;">
									<path id="&lt;Compound Path&gt;" fill-rule="evenodd" class="s6" d="m151.2 123.5l-10.9-4.3 0.3-0.2 20.1-11.9 10.9 4.3zm-10-4.3l10 3.9 19.6-11.6-10-3.9z"/>
								</g>
							</g>
							<g id="&lt;Group&gt;">
								<g id="&lt;Group&gt;">
									<path id="&lt;Compound Path&gt;" fill-rule="evenodd" class="s6" d="m150.6 123.9l-0.1-0.1-10.1-5.7 20.9-11.4 0.1 0.1 10.2 5.7zm-9.5-5.8l9.5 5.3 20.2-10.9-9.5-5.3z"/>
								</g>
							</g>
							<g id="&lt;Group&gt;">
								<g id="&lt;Group&gt;">
									<path id="&lt;Compound Path&gt;" fill-rule="evenodd" class="s6" d="m150 124.3l-9.5-7.4 21.4-10.5 9.5 7.3zm-8.8-7.3l8.9 6.8 20.6-10.2-8.8-6.8z"/>
								</g>
							</g>
							<g id="&lt;Group&gt;">
								<g id="&lt;Group&gt;">
									<path id="&lt;Compound Path&gt;" fill-rule="evenodd" class="s6" d="m149.4 124.6l-0.1-0.1-8.5-8.9 0.2-0.1 21.6-9.5 0.1 0.1 8.5 8.9-0.3 0.1zm-7.9-8.9l8 8.4 21.1-9.2-8.1-8.5z"/>
								</g>
							</g>
							<g id="&lt;Group&gt;">
								<g id="&lt;Group&gt;">
									<path id="&lt;Compound Path&gt;" fill-rule="evenodd" class="s6" d="m148.7 125v-0.2l-7.6-10.6 22.1-8.5 0.1 0.1 7.5 10.6zm-7-10.6l7.2 10.2 21.4-8.3-7.2-10.1z"/>
								</g>
							</g>
							<g id="&lt;Group&gt;">
								<g id="&lt;Group&gt;">
									<path id="&lt;Compound Path&gt;" fill-rule="evenodd" class="s6" d="m148.1 125.3l-6.5-12.6 0.2-0.1 22.1-7.3 6.5 12.7h-0.2zm-6-12.4l6.2 12 21.6-7.1-6.2-11.9z"/>
								</g>
							</g>
							<g id="&lt;Group&gt;">
								<g id="&lt;Group&gt;">
									<path id="&lt;Compound Path&gt;" fill-rule="evenodd" class="s6" d="m147.4 125.5l-5.3-14.5 0.2-0.1 22.2-5.8 5.3 14.5-0.2 0.1zm-4.8-14.3l5.1 13.8 21.6-5.7-5-13.9z"/>
								</g>
							</g>
							<g id="&lt;Group&gt;">
								<g id="&lt;Group&gt;">
									<path id="&lt;Compound Path&gt;" fill-rule="evenodd" class="s6" d="m146.7 125.8v-0.2l-3.9-16.4 22.4-4.4 0.1 0.2 3.8 16.4zm-3.4-16.3l3.7 15.9 21.7-4.3-3.7-15.8z"/>
								</g>
							</g>
							<g id="&lt;Group&gt;">
								<g id="&lt;Group&gt;">
									<path id="&lt;Compound Path&gt;" fill-rule="evenodd" class="s6" d="m146 126l-2.3-18.7 22.2-2.7 2.4 18.7zm-2-18.4l2.3 18 21.5-2.6-2.2-18z"/>
								</g>
							</g>
							<g id="&lt;Group&gt;">
								<g id="&lt;Group&gt;">
									<path id="&lt;Compound Path&gt;" fill-rule="evenodd" class="s6" d="m145.4 126.2l-0.1-0.2-0.7-20.7h0.2l21.8-0.8v0.1l0.7 20.7h-0.2zm-0.3-20.5l0.7 20.2 21.2-0.8-0.7-20.2z"/>
								</g>
							</g>
							<g id="&lt;Group&gt;">
								<g id="&lt;Group&gt;">
									<path id="&lt;Compound Path&gt;" fill-rule="evenodd" class="s6" d="m166.2 127.5h-0.2l-21.3-1.2v-0.2l1-23h0.2l21.4 1.2v0.2zm-21.2-1.5l20.8 1.1 1.1-22.4-20.8-1.1z"/>
								</g>
							</g>
							<g id="&lt;Group&gt;">
								<g id="&lt;Group&gt;">
									<path id="&lt;Compound Path&gt;" fill-rule="evenodd" class="s6" d="m164.9 129.8l-20.9-3.5v-0.2l3-25.2 21 3.4-0.1 0.2zm-20.5-3.8l20.2 3.3 2.9-24.7-20.2-3.3z"/>
								</g>
							</g>
							<g id="&lt;Group&gt;">
								<g id="&lt;Group&gt;">
									<path id="&lt;Compound Path&gt;" fill-rule="evenodd" class="s6" d="m163.5 132.2l-0.2-0.1-20-5.8 5.2-27.8h0.2l19.9 5.8zm-19.7-6.1l19.4 5.6 5-27.1-19.4-5.6z"/>
								</g>
							</g>
							<g id="&lt;Group&gt;">
								<g id="&lt;Group&gt;">
									<path id="&lt;Compound Path&gt;" fill-rule="evenodd" class="s6" d="m161.9 134.7l-19.2-8.4v-0.2l7.4-30.2 19.2 8.5-0.1 0.1zm-18.7-8.6l18.5 8.1 7.2-29.6-18.5-8.1z"/>
								</g>
							</g>
							<g id="&lt;Group&gt;">
								<g id="&lt;Group&gt;">
									<path id="&lt;Compound Path&gt;" fill-rule="evenodd" class="s6" d="m160.1 137.3l-18-11.2 9.8-32.8 18 11.2zm-17.6-11.4l17.4 10.8 9.5-32.1-17.3-10.7z"/>
								</g>
							</g>
							<g id="&lt;Group&gt;">
								<g id="&lt;Group&gt;">
									<path id="&lt;Compound Path&gt;" fill-rule="evenodd" class="s6" d="m158.1 140l-0.2-0.1-16.4-14 12.3-35.3 0.2 0.2 16.5 13.9zm-16.2-14.2l16 13.5 12.1-34.5-16-13.6z"/>
								</g>
							</g>
							<g id="&lt;Group&gt;">
								<g id="&lt;Group&gt;">
									<path id="&lt;Compound Path&gt;" fill-rule="evenodd" class="s6" d="m156 142.9l-15.1-17.2 15.1-38 15.1 17.3zm-14.7-17.3l14.5 16.5 14.8-37.1-14.5-16.6z"/>
								</g>
							</g>
							<g id="&lt;Group&gt;">
								<g id="&lt;Group&gt;">
									<path id="&lt;Compound Path&gt;" fill-rule="evenodd" class="s6" d="m153.6 145.8l-0.2-0.3-13-20.2v-0.1l17.9-40.4 0.2 0.3 13.1 20.2-0.1 0.1zm-12.8-20.5l12.8 19.7 17.6-39.7-12.8-19.7z"/>
								</g>
							</g>
							<g id="&lt;Group&gt;">
								<g id="&lt;Group&gt;">
									<path id="&lt;Compound Path&gt;" fill-rule="evenodd" class="s6" d="m151.1 148.9l-0.2-0.4-11-23.6v-0.1l21-43 0.2 0.3 11 23.7h-0.1zm-10.7-24l10.7 23.2 20.6-42.3-10.7-23.1z"/>
								</g>
							</g>
							<g id="&lt;Group&gt;">
								<g id="&lt;Group&gt;">
									<path id="&lt;Compound Path&gt;" fill-rule="evenodd" class="s6" d="m148.3 152l-8.9-27.7 0.1-0.1 24.1-45.5 8.9 27.6v0.1zm-8.5-27.6l8.6 26.6 23.7-44.7-8.6-26.7z"/>
								</g>
							</g>
							<g id="&lt;Group&gt;">
								<g id="&lt;Group&gt;">
									<path id="&lt;Compound Path&gt;" fill-rule="evenodd" class="s6" d="m145.4 155.1l-0.1-0.5-6.2-30.9v-0.1l27.5-48.1 0.1 0.5 6.2 30.9v0.1zm-5.9-31.4l6 30.3 27-47.2-6.1-30.3z"/>
								</g>
							</g>
							<g id="&lt;Group&gt;">
								<g id="&lt;Group&gt;">
									<path id="&lt;Compound Path&gt;" fill-rule="evenodd" class="s6" d="m142.2 158.4l-3.5-35.4 0.1-0.1 31-50.7 3.4 35.5zm-3.1-35.3l3.4 34.2 30.3-49.7-3.3-34.1z"/>
								</g>
							</g>
							<g id="&lt;Group&gt;">
								<g id="&lt;Group&gt;">
									<path id="&lt;Compound Path&gt;" fill-rule="evenodd" class="s6" d="m138.8 161.6l-0.3-39.5 34.6-53.1 0.4 39.5h-0.1zm0.1-39.4l0.3 38.2 33.9-52-0.3-38.2z"/>
								</g>
							</g>
							<g id="&lt;Group&gt;">
								<g id="&lt;Group&gt;">
									<path id="&lt;Compound Path&gt;" fill-rule="evenodd" class="s6" d="m135.3 164.9l3-43.7v-0.1l38.4-55.4-3 43.7-0.1 0.1zm3.4-43.6l-2.9 42.2 37.5-54.2 3-42.3z"/>
								</g>
							</g>
							<g id="&lt;Group&gt;">
								<g id="&lt;Group&gt;">
									<path id="&lt;Compound Path&gt;" fill-rule="evenodd" class="s6" d="m131.5 168.2l6.7-48.1 42.2-57.7-6.7 48.2zm7.1-48l-6.5 46.5 41.3-56.4 6.5-46.5z"/>
								</g>
							</g>
							<g id="&lt;Group&gt;">
								<g id="&lt;Group&gt;">
									<path id="&lt;Compound Path&gt;" fill-rule="evenodd" class="s6" d="m127.6 171.5l10.6-52.6 46.2-59.8-10.7 52.6zm11-52.4l-10.3 50.9 45.2-58.4 10.3-50.9z"/>
								</g>
							</g>
							<g id="&lt;Group&gt;">
								<g id="&lt;Group&gt;">
									<path id="&lt;Compound Path&gt;" fill-rule="evenodd" class="s6" d="m123.4 174.7l0.2-0.8 14.7-56.3 50.2-61.7-0.2 0.8-14.7 56.4zm15.3-57l-14.5 55.4 49.1-60.3 14.4-55.4z"/>
								</g>
							</g>
							<g id="&lt;Group&gt;">
								<g id="&lt;Group&gt;">
									<path id="&lt;Compound Path&gt;" fill-rule="evenodd" class="s6" d="m119.1 177.9l0.3-0.9 19.1-60.9 54.4-63.4-0.3 0.9-19.2 60.9zm19.8-61.6l-18.9 60 53.1-62 18.9-60z"/>
								</g>
							</g>
							<g id="&lt;Group&gt;">
								<g id="&lt;Group&gt;">
									<path id="&lt;Compound Path&gt;" fill-rule="evenodd" class="s6" d="m114.6 181l24.3-66.5 58.4-64.9-24.2 66.5zm24.5-66.3l-23.5 64.6 57.2-63.5 23.5-64.6z"/>
								</g>
							</g>
							<g id="&lt;Group&gt;">
								<g id="&lt;Group&gt;">
									<path id="&lt;Compound Path&gt;" fill-rule="evenodd" class="s6" d="m110 184l0.4-0.9 28.9-70.3 62.7-66.2-0.4 0.9-29 70.3zm29.7-71l-28.5 69.3 61.2-64.8 28.5-69.2z"/>
								</g>
							</g>
							<g id="&lt;Group&gt;">
								<g id="&lt;Group&gt;">
									<path id="&lt;Compound Path&gt;" fill-rule="evenodd" class="s6" d="m105.2 186.9l0.4-1 34.3-74.9 66.9-67.3-0.5 1-34.3 74.9zm35.1-75.6l-33.8 73.9 65.3-65.7 33.8-73.9z"/>
								</g>
							</g>
							<g id="&lt;Group&gt;">
								<g id="&lt;Group&gt;">
									<path id="&lt;Compound Path&gt;" fill-rule="evenodd" class="s6" d="m100.3 189.6l0.5-1 39.8-79.6 71.1-68-0.5 1-39.9 79.6zm40.7-80.3l-39.4 78.6 69.5-66.5 39.3-78.5z"/>
								</g>
							</g>
							<g id="&lt;Group&gt;">
								<g id="&lt;Group&gt;">
									<path id="&lt;Compound Path&gt;" fill-rule="evenodd" class="s6" d="m95.2 192.1l0.6-1 45.7-84.3 75.2-68.3-46.3 85.3zm46.6-85l-45.2 83.2 73.5-66.8 45.2-83.2z"/>
								</g>
							</g>
							<g id="&lt;Group&gt;">
								<g id="&lt;Group&gt;">
									<path id="&lt;Compound Path&gt;" fill-rule="evenodd" class="s6" d="m90.1 194.4l0.6-1 51.9-88.8 79.2-68.4-0.5 1-51.9 88.9zm52.7-89.6l-51.3 87.8 77.6-66.8 51.2-87.9z"/>
								</g>
							</g>
							<g id="&lt;Group&gt;">
								<g id="&lt;Group&gt;">
									<path id="&lt;Compound Path&gt;" fill-rule="evenodd" class="s6" d="m84.9 196.4l0.6-0.9 58.3-93.4 83.2-67.9-0.6 0.9-58.2 93.4zm59.1-94.1l-57.6 92.4 81.4-66.5 57.6-92.3z"/>
								</g>
							</g>
							<g id="&lt;Group&gt;">
								<g id="&lt;Group&gt;">
									<path id="&lt;Compound Path&gt;" fill-rule="evenodd" class="s6" d="m79.7 198.2l0.6-1 64.9-97.6 87.1-67.2-0.7 1-64.8 97.6zm65.7-98.3l-64.2 96.7 85.3-65.8 64.2-96.6z"/>
								</g>
							</g>
							<g id="&lt;Group&gt;">
								<g id="&lt;Group&gt;">
									<path id="&lt;Compound Path&gt;" fill-rule="evenodd" class="s6" d="m74.4 199.6l0.7-0.9 71.7-101.8 90.7-65.9-0.6 0.9-71.7 101.8zm72.6-102.4l-71 100.8 88.9-64.5 71-100.9z"/>
								</g>
							</g>
							<g id="&lt;Group&gt;">
								<g id="&lt;Group&gt;">
									<path id="&lt;Compound Path&gt;" fill-rule="evenodd" class="s6" d="m69.1 200.7l79.5-106.7 94.2-64.1-79.4 106.7zm79.6-106.4l-78 104.8 92.4-62.8 78-104.8z"/>
								</g>
							</g>
							<g id="&lt;Group&gt;">
								<g id="&lt;Group&gt;">
									<path id="&lt;Compound Path&gt;" fill-rule="evenodd" class="s6" d="m63.9 201.4l0.7-0.9 86-109.4 97.4-61.9-0.6 0.9-86 109.4zm86.9-110l-85.2 108.6 95.6-60.7 85.2-108.5z"/>
								</g>
							</g>
							<g id="&lt;Group&gt;">
								<g id="&lt;Group&gt;">
									<path id="&lt;Compound Path&gt;" fill-rule="evenodd" class="s6" d="m58.8 201.6l0.6-0.8 93.3-112.8 100.5-59-0.7 0.8-93.3 112.8zm94.2-113.3l-92.5 111.9 98.6-57.8 92.5-112z"/>
								</g>
							</g>
							<g id="&lt;Group&gt;">
								<g id="&lt;Group&gt;">
									<path id="&lt;Compound Path&gt;" fill-rule="evenodd" class="s6" d="m53.7 201.4l101.4-116.6 103.2-55.6-0.7 0.8-100.8 115.9zm101.7-116.4l-100 115 101.2-54.5 100-115z"/>
								</g>
							</g>
							<g id="&lt;Group&gt;">
								<g id="&lt;Group&gt;">
									<path id="&lt;Compound Path&gt;" fill-rule="evenodd" class="s6" d="m48.8 200.6l0.6-0.7 108.4-118.5 105.4-51.4-0.7 0.7-108.3 118.5zm109.2-118.9l-107.6 117.7 103.6-50.6 107.6-117.7z"/>
								</g>
							</g>
							<g id="&lt;Group&gt;">
								<g id="&lt;Group&gt;">
									<path id="&lt;Compound Path&gt;" fill-rule="evenodd" class="s6" d="m44 199.3l0.7-0.6 115.9-120.7 107.3-46.7-0.6 0.6-115.9 120.7zm116.7-121l-115.2 119.9 105.6-46 115.2-119.9z"/>
								</g>
							</g>
							<g id="&lt;Group&gt;">
								<g id="&lt;Group&gt;">
									<path id="&lt;Compound Path&gt;" fill-rule="evenodd" class="s6" d="m39.5 197.4l124.2-122.9 108.7-41.3-0.6 0.6-123.5 122.3zm124.3-122.6l-122.8 121.6 107.1-40.6 122.8-121.7z"/>
								</g>
							</g>
							<g id="&lt;Group&gt;">
								<g id="&lt;Group&gt;">
									<path id="&lt;Compound Path&gt;" fill-rule="evenodd" class="s6" d="m35.3 194.9l0.6-0.6 131-123.4h0.1l109.7-35.2-0.6 0.6-131.1 123.4zm131.9-123.7l-130.5 122.8 108.1-34.6 130.4-122.8z"/>
								</g>
							</g>
							<g id="&lt;Group&gt;">
								<g id="&lt;Group&gt;">
									<path id="&lt;Compound Path&gt;" fill-rule="evenodd" class="s6" d="m31.3 191.7l0.6-0.5 138.6-124 110.1-28.3-0.5 0.5-138.6 124h-0.1zm139.4-124.1l-138 123.3 108.6-27.9 137.9-123.4z"/>
								</g>
							</g>
							<g id="&lt;Group&gt;">
								<g id="&lt;Group&gt;">
									<path id="&lt;Compound Path&gt;" fill-rule="evenodd" class="s6" d="m27.8 187.8l0.5-0.5 145.9-123.8h0.1l109.9-20.7-0.5 0.5-146 123.8zm146.6-123.9l-145.3 123.3 108.5-20.5 145.3-123.2z"/>
								</g>
							</g>
							<g id="&lt;Group&gt;">
								<g id="&lt;Group&gt;">
									<path id="&lt;Compound Path&gt;" fill-rule="evenodd" class="s6" d="m24.6 183.1l0.5-0.4 153.1-122.9h0.1l109-12.3-0.5 0.4-153.1 122.9zm153.7-122.9l-152.5 122.4 107.8-12.1 152.5-122.4z"/>
								</g>
							</g>
							<g id="&lt;Group&gt;">
								<g id="&lt;Group&gt;">
									<path id="&lt;Compound Path&gt;" fill-rule="evenodd" class="s6" d="m21.9 177.6l0.5-0.4 160-121.2h0.1l107.5-3-0.4 0.4-160.1 121.2zm160.6-121.2l-159.5 120.8 106.3-3 159.5-120.8z"/>
								</g>
							</g>
							<g id="&lt;Group&gt;">
								<g id="&lt;Group&gt;">
									<path id="&lt;Compound Path&gt;" fill-rule="evenodd" class="s6" d="m125.1 178.3h-0.1l-105.2-7.1 167.1-118.9 105.3 7.1zm-104.2-7.4l104.1 7 166.1-118.3-104.1-7z"/>
								</g>
							</g>
							<g id="&lt;Group&gt;">
								<g id="&lt;Group&gt;">
									<path id="&lt;Compound Path&gt;" fill-rule="evenodd" class="s6" d="m120.4 182.1l-0.1-0.1-102.1-18 0.4-0.2 172.9-115.2h0.1l102.1 18-0.4 0.2zm-101.2-18.2l101.2 17.9 172.4-114.9-101.2-17.9z"/>
								</g>
							</g>
							<g id="&lt;Group&gt;">
								<g id="&lt;Group&gt;">
									<path id="&lt;Compound Path&gt;" fill-rule="evenodd" class="s6" d="m115.5 185.7l-98.2-29.8 0.4-0.2 178.7-110.8h0.1l98.1 29.8-0.3 0.2zm-97.3-29.9l97.2 29.5 178.3-110.4-97.3-29.6z"/>
								</g>
							</g>
							<g id="&lt;Group&gt;">
								<g id="&lt;Group&gt;">
									<path id="&lt;Compound Path&gt;" fill-rule="evenodd" class="s6" d="m110.5 189.3h-0.1l-93.3-42.5 0.3-0.2 184.1-105.3h0.1l93.2 42.5-0.3 0.2zm-92.5-42.6l92.5 42.2 183.6-105.1-92.5-42.1z"/>
								</g>
							</g>
							<g id="&lt;Group&gt;">
								<g id="&lt;Group&gt;">
									<path id="&lt;Compound Path&gt;" fill-rule="evenodd" class="s6" d="m105.2 192.8h-0.1l-87.4-56.1 0.3-0.1 188.8-98.8v0.1l87.5 56-0.3 0.1zm-86.8-56l86.8 55.6 188.3-98.5-86.8-55.6z"/>
								</g>
							</g>
							<g id="&lt;Group&gt;">
								<g id="&lt;Group&gt;">
									<path id="&lt;Compound Path&gt;" fill-rule="evenodd" class="s6" d="m99.8 196.2l-0.1-0.1-80.6-70.5 0.3-0.1 192.8-91.1 0.1 0.1 80.5 70.5-0.2 0.1zm-80-70.4l80 70 192.4-90.9-80.1-70z"/>
								</g>
							</g>
							<g id="&lt;Group&gt;">
								<g id="&lt;Group&gt;">
									<path id="&lt;Compound Path&gt;" fill-rule="evenodd" class="s6" d="m94.2 199.3l-0.1-0.1-72.6-85.7 0.2-0.1 196.1-82.1 0.1 0.1 72.6 85.7-0.2 0.1zm-72.1-85.7l72.2 85.3 195.6-82-72.2-85.2z"/>
								</g>
							</g>
							<g id="&lt;Group&gt;">
								<g id="&lt;Group&gt;">
									<path id="&lt;Compound Path&gt;" fill-rule="evenodd" class="s6" d="m88.4 202.3l-0.1-0.1-63.5-101.9 0.2-0.1 198.5-71.9 0.1 0.1 63.6 101.9-0.2 0.1zm-63.1-101.8l63.2 101.3 198.1-71.7-63.2-101.4z"/>
								</g>
							</g>
							<g id="&lt;Group&gt;">
								<g id="&lt;Group&gt;">
									<path id="&lt;Compound Path&gt;" fill-rule="evenodd" class="s6" d="m82.5 205.1v-0.2l-53.4-118.9 0.2-0.1 200.1-60.4 53.4 119.1-0.2 0.1zm-52.9-118.9l53.1 118.4 199.6-60.2-53.1-118.4z"/>
								</g>
							</g>
							<g id="&lt;Group&gt;">
								<g id="&lt;Group&gt;">
									<path id="&lt;Compound Path&gt;" fill-rule="evenodd" class="s6" d="m76.6 207.5l-0.1-0.1-41.9-136.8 200.8-47.5v0.1l42 136.8zm-41.5-136.7l41.7 136.3 200.1-47.4-41.8-136.2z"/>
								</g>
							</g>
							<g id="&lt;Group&gt;">
								<g id="&lt;Group&gt;">
									<path id="&lt;Compound Path&gt;" fill-rule="evenodd" class="s6" d="m70.5 209.7v-0.2l-29.3-155.4h0.2l200-33.2 0.1 0.2 29.2 155.4h-0.2zm-28.8-155.2l29.1 154.8 199.5-33.1-29.2-154.8z"/>
								</g>
							</g>
							<g id="&lt;Group&gt;">
								<g id="&lt;Group&gt;">
									<path id="&lt;Compound Path&gt;" fill-rule="evenodd" class="s6" d="m64.5 211.5l-0.1-0.2-15.3-174.8h0.2l198.2-17.4v0.2l15.3 174.8-0.2 0.1zm-14.9-174.7l15.3 174.2 197.6-17.2-15.3-174.3z"/>
								</g>
							</g>
							<g id="&lt;Group&gt;">
								<g id="&lt;Group&gt;">
									<path id="&lt;Compound Path&gt;" fill-rule="evenodd" class="s6" d="m58.4 17.7h195.2v195.2h-195.2zm0.3 194.8h194.5v-194.4h-194.5z"/>
								</g>
							</g>
						</g>
					</g>
					<g id="&lt;Group&gt;">
						<g id="&lt;Group&gt;">
							<g id="&lt;Group&gt;">
								<g id="&lt;Group&gt;">
									<g id="&lt;Group&gt;">
										<path id="&lt;Path&gt;" class="s0" d="m54.2 171.2c2.1-1.3 7.1-7.1 8.1-5.6 0.7 1 1.8 6.3 1.3 10.9-0.2 1.8-0.7 3.5-1.5 4.7-4.2 6.5-8 8.1-11.7 7.7-3.3-0.3-4.5-1.7-7-2.1q-0.4 0-0.9 0-0.2 0-0.4 0c-2.9 0.2-5.5 2.9-11.2 0.5-3.8-1.6-5.5-6-5.9-9-0.2-1.7-0.1-2.9 0.3-2.9 0.4 0.1 1 0.9 1.8 1.9 1.2 1.6 2.9 3.6 4.9 3.4 3.2-0.4 3.9 0.9 3.3-1-0.6-2-2.4-0.4-4.9-2.7q-0.5-0.4-0.8-1c-0.9-1.3-1.5-3.4-1.7-5.4-0.3-2.3-0.2-4.5 0.4-5.4 1.3-1.8 1.3 3.2 4.8 4.3q1.2 0.4 2.2 0.6c1.5 0.2 2.4 0 2.5-0.7q0-0.3-0.1-0.7c-0.6-1.6-9.5-4.6-7.3-8.3 2.1-3.8 5.2-6.2 5.5-4 0.3 2.2 0.6 5.9 2.3 5.5 1.6-0.4 1.9-1.9 0.4-4-1.6-2.1-3.7-3.1-2.9-4.7 0.2-0.3 0.8-1 1.5-1.9 1.6-2 4.2-4.8 6.5-6.3 1.4-1.1 2.8-1.6 3.6-0.9 1.8 1.6 5.6 5.5 7.6 8.2 0.8 1.1 1.3 2.1 1.3 2.6-0.1 1.7-5 1.2-5.3 3.5-0.4 2.2 0.6 4.3 3.8 1 3.3-3.3 6-4.7 6 0.4 0 5.2-3.8 7.1-6 8.3-2.3 1.2-2.5 4.4-0.5 3.1z"/>
									</g>
									<g id="&lt;Group&gt;">
										<path id="&lt;Path&gt;" class="s6" d="m47.2 151v0.1c-1.1 4.2-2.1 8.8-2.8 13.7-1.1 7-1.7 14.4-1 22 0.5 5.6 1.6 11.2 3.6 16.7q0.1 0.1 0.1 0.2 0 0.3-0.3 0.6-0.1 0-0.2 0c-0.3 0.1-0.6 0-0.7-0.3q-0.1-0.1-0.1-0.2c-2.1-5.7-3.2-11.3-3.7-17-0.5-6.8-0.2-13.5 0.7-19.9l0.1-0.5q0.3-2.3 0.7-4.5c0.7-3.9 1.5-7.7 2.4-11.2 0.1-0.4 0.4-0.6 0.7-0.5q0.1 0 0.2 0.1c0.2 0.1 0.4 0.4 0.3 0.7z"/>
									</g>
								</g>
							</g>
							<path id="&lt;Path&gt;" class="s7" d="m46.5 165.3c0.2 3.1 1.9 6.1 4.5 7.8 3.6 2.4 8.5 2.1 12.6 3.4-0.2 1.8-0.7 3.5-1.5 4.7-4.2 6.5-8 8.1-11.7 7.7-3.3-0.3-4.5-1.7-7-2.1 0.5 5.6 1.6 11.2 3.6 16.7q0.1 0.1 0.1 0.2-0.7 0-1.3 0.1c-2.1-5.7-3.2-11.3-3.7-17-2.9 0.2-5.5 2.9-11.2 0.5-3.8-1.6-5.5-6-5.9-9q1-0.5 2.1-1c1.2 1.6 2.9 3.6 4.9 3.4 3.2-0.4 3.9 0.9 3.3-1-0.6-2-2.4-0.4-4.9-2.7q-0.5-0.4-0.8-1 2.4-1.2 4.9-2.4c3.2-1.7 6.7-3.6 8.3-6.7q0.4-0.7 0.6-1.5 0.5-1.7 0.2-3.5c-0.4-2.5-1.7-5-3.3-7.2-0.9-1.2-1.9-2.5-3.1-3.4 1.6-2 4.2-4.8 6.5-6.3 1.4-1.1 2.8-1.6 3.6-0.9 1.8 1.6 5.6 5.5 7.6 8.2q-0.6 0.6-1.2 1.1c-1.4 1.1-2.8 2.1-4 3.4-2.1 2.2-3.4 5.4-3.2 8.5z"/>
						</g>
						<g id="&lt;Group&gt;">
							<g id="&lt;Group&gt;">
								<g id="&lt;Group&gt;">
									<path id="&lt;Path&gt;" class="s1" d="m46.3 206.3c-0.6-0.8-2.3-1.6-4.6-2.3-3.6-1.1-8.5-1.9-12.6-2.4-2.9-0.3-5.3-0.5-6.8-0.3-3.4 0.3-10.3-3.9-14-6.2q-1.4-0.9-2.4-1.6 10-5.9 20.5-4.8c8.7 0.9 16.7 12.4 19.1 16.4q0.6 0.8 0.8 1.2z"/>
								</g>
								<path id="&lt;Path&gt;" class="s6" d="m46.9 206.7c-0.2 0.3-0.6 0.4-0.9 0.2q0 0 0 0-2.1-1.5-4.3-2.9-1-0.6-2-1.2-3.2-1.9-6.5-3.6c-2.2-1.1-4.5-2.1-6.8-2.9q-1-0.3-2-0.6c-1.7-0.5-3.4-0.9-5.2-1-0.1 0-0.2-0.1-0.2-0.2 0-0.1 0.1-0.2 0.2-0.2 1.4 0 2.8 0.2 4.1 0.5q1.7 0.4 3.3 0.9c2.4 0.7 4.7 1.7 7 2.7q3.4 1.6 6.7 3.5 2.6 1.5 5.2 3.2 0.6 0.3 1.2 0.7c0.3 0.2 0.4 0.6 0.2 0.9z"/>
							</g>
							<path id="&lt;Path&gt;" class="s8" d="m46.9 206.7c-0.2 0.3-0.6 0.4-0.9 0.2q0 0 0 0-2.1-1.5-4.3-2.9c-3.6-1.1-8.5-1.9-12.6-2.4q-0.4-0.4-0.7-0.9c-1.3-1.7-2.4-3.6-4-5q-0.4-0.4-0.9-0.8-0.1 0-0.2-0.1c-2.1-1.4-4.8-1.6-7.4-1.6-2.6 0.1-5.5 0.5-7.6 1.9q-1.4-0.9-2.4-1.6 10-5.9 20.5-4.8c8.7 0.9 16.7 12.4 19.1 16.4q0.6 0.3 1.2 0.7c0.3 0.2 0.4 0.6 0.2 0.9z"/>
						</g>
						<g id="&lt;Group&gt;">
							<g id="&lt;Group&gt;">
								<g id="&lt;Group&gt;">
									<path id="&lt;Path&gt;" class="s1" d="m46.1 205.3c-0.8-3.7-2.8-14.9 1.7-20.4q5.5-6.6 14.6-8.9-0.1 0.9-0.4 2.3c-0.8 3.4-2.5 9.8-4.6 11.6-0.9 0.7-2.3 2.2-3.7 4-2.2 2.6-4.5 5.9-6 8.6-0.9 1.7-1.4 3.1-1.3 4q-0.1-0.5-0.3-1.2z"/>
								</g>
								<path id="&lt;Path&gt;" class="s6" d="m45.9 206.4q0.1-0.6 0.2-1.1 0.6-2.5 1.2-4.9 0.9-2.9 1.9-5.8c0.8-1.9 1.5-3.8 2.5-5.6q0.7-1.1 1.4-2.3 0.9-1.4 2.1-2.7c0.1 0 0.2-0.1 0.2 0 0.1 0.1 0.1 0.2 0 0.3-0.9 1-1.7 2.2-2.5 3.5q-0.4 0.7-0.7 1.5c-0.9 1.8-1.7 3.7-2.3 5.6q-1 2.8-1.7 5.8-0.2 0.9-0.5 1.8-0.4 2-0.8 4.1 0 0 0 0c-0.1 0.3-0.3 0.4-0.6 0.4-0.3-0.1-0.5-0.3-0.4-0.6z"/>
							</g>
							<path id="&lt;Path&gt;" class="s9" d="m45.9 206.4q0.1-0.6 0.2-1.1c-0.8-3.7-2.8-14.9 1.7-20.4q5.5-6.6 14.6-8.9-0.1 0.9-0.4 2.3c-2.1 0.4-4 1.8-5.5 3.3-1.5 1.4-3 3.1-3.4 5.1q0 0.1 0 0.1-0.1 0.5-0.2 1c0 1.7 0.4 3.5 0.7 5.2q0 0.4 0.1 0.9c-2.2 2.6-4.5 5.9-6 8.6q-0.4 2-0.8 4.1 0 0 0 0c-0.1 0.3-0.3 0.4-0.6 0.4-0.3-0.1-0.5-0.3-0.4-0.6z"/>
						</g>
						<path id="&lt;Path&gt;" class="s10" d="m41.9 186.9c0.1 2.1-3.1 2.6-3.9 5.8 0.9 1 1.7 2.1 2.3 3.6q0.1 0.5 0.3 1c-0.1-0.8-0.2-1.9 0.3-2.8 1.2-2.6 4.6-1.3 4.4-0.4-0.3 1.8-3 1.7-4.1 4.3 0.9 1.8 2 3.4 2.9 4.6-0.2-0.6-0.4-1.6 0.1-2.6 0.9-1.9 3.5-1 3.4-0.2-0.2 1.3-2.3 1.2-3.2 3.2 1.1 1.3 1.9 2.1 1.9 2.1 0.2 0.1 0.2 0.4 0.1 0.6q0 0-0.1 0c-0.1 0.2-0.4 0.2-0.5 0-0.1 0-0.5-0.4-1.1-1.1-1.6 0.9-1.8 2.6-3.1 2.7-0.8 0-1.4-2.7 0.6-3.4 0.7-0.2 1.3-0.1 1.9 0-0.9-1-1.9-2.3-2.8-3.9-2.5 0.9-2.7 3.5-4.4 3.6-1 0-1.8-3.5 0.8-4.4 1.2-0.4 2.5-0.1 3.3 0.2q-0.8-1.4-1.5-3.2-0.4-1-1-1.8c-3.1 1.3-3.1 4.5-5.3 4.8-1.1 0.1-2.4-4.1 0.7-5.4 1.8-0.7 3.6 0 4.5 0.3-1-1.4-2.3-2.4-3.8-3.3-2.8 2.1-2 5.5-4.1 6.3-1.2 0.4-3.6-3.5-0.7-5.6 1.4-1.1 3.3-1.1 4.3-1-1.1-0.5-2.3-1-3.6-1.5-2.6 1.4-2.4 4.3-4.3 4.6-1.1 0.2-2.6-3.5 0.2-4.9 0.8-0.4 1.6-0.5 2.3-0.5q-1.3-0.4-2.6-1c-1-0.1-2.7-0.5-3.7-1.8-2.2-2.6 0.8-5.7 1.8-5.1 1.7 1.1 0.6 3.7 2.1 6.1q1.4 0.5 2.6 1c-0.5-0.7-1.3-1.9-1.3-3.3 0.2-3.2 4.2-3.4 4.4-2.3 0.5 1.9-2.2 2.9-2.4 5.9q1.8 0.7 3.4 1.4c-0.5-1-1.2-2.6-0.7-4.3 0.8-3.4 5.4-2.7 5.4-1.5 0.1 2.2-3.2 2.8-4.1 6 1.4 0.7 2.6 1.4 3.7 2.4-0.5-0.9-0.9-2.4-0.6-3.8 0.9-3.3 5.2-2.6 5.2-1.4z"/>
					</g>
					<g id="&lt;Group&gt;">
						<g id="&lt;Group&gt;">
							<g id="&lt;Group&gt;">
								<g id="&lt;Group&gt;">
									<path id="&lt;Path&gt;" class="s1" d="m223.4 177.2c0.9-1.9 3.7-7.8 7.6-8.8q4.7-1.3 9.7 0.7-0.4 0.4-1 0.9c-1.5 1.3-4.4 3.7-6 3.8-0.6 0.1-1.7 0.3-3 0.7-1.8 0.5-4 1.2-5.6 2-1 0.5-1.7 0.9-1.9 1.4q0.1-0.3 0.2-0.7z"/>
								</g>
								<path id="&lt;Path&gt;" class="s6" d="m223 177.7q0.2-0.3 0.4-0.5 1.1-0.9 2.2-1.8 1.4-1.1 2.8-2.1c1-0.6 2-1.2 3-1.7q0.7-0.4 1.4-0.7 0.9-0.3 1.9-0.5 0.1 0 0.1 0.1 0 0.1-0.1 0.1c-0.8 0.2-1.6 0.5-2.3 0.8q-0.4 0.2-0.9 0.4c-1 0.6-1.9 1.2-2.9 1.9q-1.4 1-2.7 2.1-0.4 0.3-0.8 0.7-0.9 0.8-1.7 1.6 0 0 0 0c-0.1 0.1-0.3 0.1-0.4 0-0.2-0.1-0.1-0.3 0-0.4z"/>
							</g>
							<path id="&lt;Path&gt;" class="s11" d="m223 177.7q0.2-0.3 0.4-0.5c0.9-1.9 3.7-7.8 7.6-8.8q4.7-1.3 9.7 0.7-0.4 0.4-1 0.9c-1.1-0.5-2.4-0.5-3.6-0.3-1.2 0.2-2.4 0.5-3.3 1.2q0 0.1 0 0.1-0.3 0.2-0.4 0.4c-0.6 0.8-1 1.7-1.4 2.6q-0.2 0.2-0.3 0.5c-1.8 0.5-4 1.2-5.6 2q-0.9 0.8-1.7 1.6 0 0 0 0c-0.1 0.1-0.3 0.1-0.4 0-0.2-0.1-0.1-0.3 0-0.4z"/>
						</g>
						<g id="&lt;Group&gt;">
							<g id="&lt;Group&gt;">
								<path id="&lt;Path&gt;" class="s1" d="m223.1 177.8c-0.1-0.5-0.7-1.1-1.6-1.8-1.3-1-3.3-2.2-5-3.1-1.1-0.6-2.2-1.1-2.8-1.3-1.5-0.4-3.8-3.4-5-5q-0.5-0.6-0.8-1.1 5.3-0.8 9.6 1.4c3.6 1.8 5.1 8.1 5.5 10.2q0.1 0.5 0.1 0.7z"/>
								<path id="&lt;Path&gt;" class="s6" d="m223.3 178.1c-0.1 0-0.3 0-0.4-0.1q0 0 0 0-0.7-1-1.4-2-0.3-0.4-0.6-0.8-1-1.4-2.2-2.7c-0.8-0.8-1.6-1.6-2.4-2.4q-0.4-0.3-0.8-0.5c-0.6-0.5-1.3-1-2.1-1.3q0-0.1 0-0.2 0 0 0.1 0 0.9 0.4 1.7 0.9 0.7 0.4 1.3 0.9c0.9 0.7 1.7 1.5 2.5 2.4q1.2 1.2 2.3 2.6 0.9 1.1 1.7 2.2 0.2 0.3 0.4 0.5c0.1 0.2 0.1 0.4-0.1 0.5z"/>
							</g>
							<path id="&lt;Path&gt;" class="s12" d="m223.3 178.1c-0.1 0-0.3 0-0.4-0.1q0 0 0 0-0.7-1-1.4-2c-1.3-1-3.3-2.2-5-3.1q-0.1-0.3-0.1-0.5c-0.3-1-0.4-2-0.9-2.8q-0.1-0.3-0.2-0.5-0.1-0.1-0.1-0.1c-0.7-0.9-1.8-1.5-2.9-1.9-1.2-0.4-2.4-0.7-3.6-0.5q-0.5-0.6-0.8-1.1 5.3-0.8 9.6 1.4c3.6 1.8 5.1 8.1 5.5 10.2q0.2 0.3 0.4 0.5c0.1 0.2 0.1 0.4-0.1 0.5z"/>
						</g>
						<path id="&lt;Path&gt;" class="s10" d="m228.1 159c0.7 1.3 0.6 2.7 0.4 3.7 0.7-1.1 1.7-2.1 2.9-3.1-1.6-2.8-4.8-2.5-5.3-4.6-0.2-1.2 3.8-2.9 5.5 0.1 0.8 1.5 0.5 3.2 0.3 4.1q1.3-1 2.8-2c-0.8-2.8-3.6-3.1-3.6-5 0-1.1 3.8-1.8 4.6 1.1 0.4 1.3 0 2.7-0.4 3.5q1.1-0.8 2.2-1.6c0.9-2.6-0.8-4.8 0.5-6.2 0.8-0.8 4.5 1.4 3 4.4-0.7 1.4-2.1 2.1-3.1 2.5q-1.1 0.8-2.2 1.6c0.7-0.2 1.5-0.3 2.2-0.2 3 0.7 2.5 4.5 1.4 4.6-1.8 0.1-2.4-2.6-5.1-3.3-1.1 0.8-2.1 1.5-3 2.3 0.9-0.4 2.7-0.8 4.3-0.1 3.1 1.3 1.8 5.5 0.6 5.4-2.2-0.3-2.2-3.6-5.3-4.9-1.3 1.1-2.2 2.4-2.8 3.9 0.7-0.5 2.3-1.5 4.1-1.3 3.2 0.5 3 4.7 1.9 4.9-2.1 0.3-2.8-2.8-6.1-3.2q-0.3 0.8-0.4 1.9-0.3 1.8-0.7 3.3c0.7-0.5 1.8-1.1 3-1 2.7 0.3 2.7 3.8 1.8 4-1.6 0.3-2.4-2.1-4.9-2.4-0.6 1.7-1.2 3.2-1.7 4.3 0.4-0.2 1-0.4 1.7-0.4 2.1 0.2 2.1 2.9 1.4 3-1.2 0.3-1.9-1.3-3.6-1.7-0.4 0.7-0.7 1.2-0.7 1.2-0.1 0.2-0.4 0.3-0.5 0.2q-0.1 0-0.1-0.1c-0.2-0.1-0.2-0.3-0.1-0.5 0 0 0.6-1 1.3-2.5-1.3-1.6-3.2-1-3.7-2.2-0.3-0.7 1.9-2.2 3.3-0.6 0.6 0.8 0.7 1.8 0.6 2.4 0.6-1.3 1.3-3 1.7-5-1.7-2.2-4.2-1.4-4.9-3-0.3-0.9 2.6-2.8 4.3-0.7 0.6 0.8 0.8 1.8 0.8 2.5q0.1-0.4 0.2-0.9c0.2-1.6 0.6-2.8 1.3-3.9-1.6-2.8-4.6-2.6-5.1-4.6-0.2-1.1 3.7-2.7 5.2 0.1z"/>
					</g>
				</g>
				<g id="&lt;Group&gt;">
					<g id="&lt;Group&gt;">
						<g id="&lt;Group&gt;">
							<g id="&lt;Group&gt;">
								<path id="&lt;Path&gt;" class="s13" d="m220.8 185.9v6.3c0 1.4-13.3 6.4-17.5 7.5q0 0 0 0-0.6 0.2-0.9 0.2-0.1 0-0.2 0l-5.3-2-4.3-1.7-3.1-1.2c-1.5 0-2.8-1.2-2.8-2.8l-10.4-2.1-4.7-1q0 0 0-0.1 0 0 0 0c0.3-1.6 16.4-5.9 17.9-5.9h28.5c1.6 0 2.8 1.3 2.8 2.8z"/>
								<path id="&lt;Path&gt;" class="s1" d="m205 190.8v6.4c0 1.1-0.7 2.1-1.7 2.5q0 0 0 0-0.4 0.2-0.9 0.2-0.1 0-0.2 0h-28.5q0 0-0.1 0c-1.2 0-2.2-0.9-2.5-2q-0.1-0.4-0.1-0.7v-6.4q0-0.4 0.1-0.7 0.1-0.4 0.3-0.8 0 0 0 0 0.1-0.1 0.2-0.2 0 0 0-0.1 0 0 0 0 0.2-0.2 0.5-0.4c0.4-0.4 1-0.6 1.6-0.6h28.5c1.6 0 2.8 1.3 2.8 2.8z"/>
								<path id="&lt;Path&gt;" class="s6" d="m201.7 197.9h-30.7v-7.8h30.7c0.5 0 0.9 0.4 0.9 0.9v5.9c0 0.5-0.4 1-0.9 1z"/>
							</g>
							<path id="&lt;Path&gt;" class="s14" d="m220.8 185.9v6.3q0 0.3-0.5 0.7 0 0 0 0c-2.6 1.9-13.3 5.8-17 6.8q0 0 0 0-0.4 0.2-0.9 0.2-0.1 0-0.2 0h-27q0.4-0.2 0.7-0.4 0.5-0.3 1-0.4c1.7-0.7 3.6-1 5.4-1.1q0.4 0 0.8-0.1 0.2 0 0.4 0 1.2-0.1 2.5-0.2 1.1-0.1 2.2-0.2c1-0.1 1.9-0.2 2.8-0.5q0.9-0.2 1.6-0.8 0.4-0.2 0.7-0.6c0.9-1.2 0.8-2.8 0.7-4.4q-0.1-0.6-0.1-1.1c0-0.7 0-1.4 0.2-2.1q0-0.3 0.1-0.6c0.5-1.2 1.4-2.1 2.5-2.9 0.6-0.5 1.4-0.9 2.1-1.3q0.1 0 0.2 0 0-0.1 0.1-0.1h18.9c1.6 0 2.8 1.3 2.8 2.8z"/>
						</g>
						<g id="&lt;Group&gt;">
							<g id="&lt;Group&gt;">
								<path id="&lt;Path&gt;" class="s13" d="m242.2 187.6l-2.7 5.8c-0.6 1.2-14.8 0.2-19-0.5q0 0 0 0-0.6-0.1-0.9-0.2-0.1 0-0.2 0l-4-4.1-3.2-3.3-2.3-2.4c-1.4-0.6-2-2.3-1.4-3.7l-8.6-6.3-3.9-2.9q0 0 0.1 0 0 0 0 0c0.9-1.3 17.4 1.4 18.8 2.1l25.9 11.8c1.4 0.7 2 2.3 1.4 3.7z"/>
								<path id="&lt;Path&gt;" class="s1" d="m225.8 185.5l-2.7 5.8c-0.5 1-1.5 1.6-2.6 1.6q0 0 0 0-0.5 0-0.9-0.2-0.1 0-0.2 0l-25.9-11.9c-1.2-0.5-1.8-1.8-1.6-3q0.1-0.3 0.2-0.7l2.7-5.8q0.1-0.3 0.4-0.6 0.3-0.4 0.9-0.7 0 0 0 0c0.7-0.4 1.6-0.4 2.4 0l25.9 11.8c1.4 0.6 2 2.3 1.4 3.7z"/>
								<path id="&lt;Path&gt;" class="s6" d="m219.7 190.6l-27.9-12.8 3.3-7.1 27.9 12.7c0.5 0.3 0.7 0.8 0.5 1.3l-2.5 5.4c-0.2 0.5-0.8 0.7-1.3 0.5z"/>
							</g>
							<path id="&lt;Path&gt;" class="s15" d="m242.2 187.6l-2.7 5.8c-0.6 1.2-14.8 0.2-19-0.5q0 0 0 0-0.5 0-0.9-0.2-0.1 0-0.2 0l-24.5-11.3q0.4 0 0.8-0.1c2.4-0.1 4.8 0.7 7.1 1.6q0.2 0 0.4 0.1 2.3 0.8 4.5 1.6c1.5 0.5 3.1 1.1 4.5 0.7q0.5-0.1 0.9-0.3c1.7-0.9 2.1-2.9 2.9-4.8 0.2-0.6 0.5-1.3 0.9-1.8q0.2-0.3 0.5-0.5c1.5-1.5 3.8-1.7 6-1.9q0.1 0 0.1 0l17.3 7.9c1.4 0.7 2 2.3 1.4 3.7z"/>
						</g>
					</g>
					<g id="&lt;Group&gt;">
						<g id="&lt;Group&gt;">
							<path id="&lt;Path&gt;" class="s16" d="m139.3 127.1l-5.3 13.1-25.5 62.9-4.8-20.7-7.1 4.5-5.3 3.4-5.6 3.6 1.5-3.6 0.8-2 5.3-13.2 0.8-1.9 5.3-13.2 0.9-2 0.9-2.3 3.1-7.7 5.6-13.6 1.2-2.9 5.5-13.6z"/>
							<path id="&lt;Path&gt;" class="s16" d="m195 193.9l-17.9-11.5-4.9 20.7-25.6-63-5.3-13 22.8-9.2 5.5 13.4z"/>
							<g id="&lt;Group&gt;">
								<path id="&lt;Path&gt;" class="s0" d="m191.7 89.1c0 17.5-8.7 33-22.1 42.3-6.8 4.6-14.6 7.8-23 8.8-2.1 0.3-4.2 0.4-6.3 0.4-2.1 0-4.2-0.1-6.3-0.4-8.4-1-16.2-4.2-22.9-8.7-0.1-0.1-0.3-0.2-0.4-0.3-0.6-0.4-1.1-0.8-1.7-1.4q-0.1 0.1-0.1 0-1.3-0.9-2.5-2c-1.2-1.1-2.4-2.3-3.5-3.5-5.4-5.6-9.4-12.6-11.7-20.2 0-0.1-0.1-0.1-0.1-0.2-1.3-4.2-2-8.6-2.1-13.2-0.1-0.5-0.1-1.1-0.1-1.6 0-8.7 2.2-16.8 6-24 4.9-9.3 12.7-17 22.2-21.8 7-3.6 14.8-5.6 23.2-5.6 19.6 0 36.7 11 45.3 27.1 3.9 7.1 6.1 15.5 6.1 24.3z"/>
							</g>
							<ellipse id="&lt;Path&gt;" class="s6" cx="140.3" cy="89.1" rx="34.2" ry="34.2"/>
							<path id="&lt;Path&gt;" class="s1" d="m142.9 71.7l3.5 10.6c0.2 0.7 0.8 1.2 1.5 1.2h11.3c1.6 0 2.2 2 0.9 3l-9 6.5c-0.6 0.5-0.9 1.2-0.6 1.9l3.4 10.6c0.5 1.6-1.2 2.8-2.5 1.9l-9.1-6.6c-0.6-0.4-1.4-0.4-1.9 0l-9.1 6.6c-1.3 0.9-3-0.3-2.5-1.9l3.4-10.6c0.2-0.7 0-1.4-0.6-1.9l-9.1-6.5c-1.2-1-0.6-3 1-3h11.2c0.7 0 1.4-0.5 1.6-1.2l3.5-10.6c0.5-1.6 2.6-1.6 3.1 0z"/>
						</g>
						<path id="&lt;Path&gt;" class="s17" d="m195 193.9l-17.9-11.5-4.9 20.7-25.6-62.9c-2.1 0.3-4.2 0.4-6.3 0.4-2.1 0-4.2-0.1-6.3-0.4l-25.5 62.9-4.8-20.7-7.1 4.5-5.3 3.4-5.6 3.6 1.5-3.6 0.8-2 5.3-13.2 0.8-1.9 5.3-13.2 0.9-2 0.9-2.3 3.1-7.7 5.6-13.6 1.2-2.9c-0.1-0.1-0.3-0.2-0.4-0.3-0.6-0.4-1.1-0.8-1.7-1.4q-0.1 0.1-0.1 0-1.3-0.9-2.5-2c-1.2-1.1-2.4-2.3-3.5-3.5-5.4-5.6-9.4-12.6-11.7-20.2q0 0.1 0.1 0.1c2.8 3.4 6.3 6.3 10.2 8.4v0.1h0.1c1.2 0.7 2.5 1.4 3.8 1.9 2.2 1 4.5 1.7 6.8 2.3q1 0.2 2 0.3c1.9 0.4 3.8 0.6 5.7 0.6 0.6 0 1 0 1.6-0.1h0.1c7.8-0.3 15.8-3.8 18.5-10.9 0.8-2 1-4.1 1-6.2 0-0.1 0-0.1 0-0.1-0.1-7.2-3.2-14.8-0.9-21.6 0.6-2.1 1.8-3.9 3.2-5.5 2.1-2.4 4.9-4.3 7.9-5.5 4.2-1.7 8.8-2.4 13.5-2.8 0.6 0 1.5 0 2.3-0.1 6-0.4 12.2-0.3 18.5-0.2 3.9 7.1 6.1 15.5 6.1 24.3 0 17.5-8.7 33-22.1 42.3z"/>
					</g>
					<g id="&lt;Group&gt;">
						<path id="&lt;Path&gt;" class="s18" d="m116.4 44.8l-9.9 9.4c0.1 0.1 0.2 0.1 0.3 0.2q0.7 1.1-0.2 3.1l-2.5 0.5q-0.4-0.3-0.9-0.7l-7.8 7.5c-0.2 0.1-0.3 0.3-0.5 0.3 4.9-9.3 12.7-17 22.2-21.8 0 0.5-0.3 1.1-0.7 1.5z"/>
						<path id="&lt;Compound Path&gt;" fill-rule="evenodd" class="s18" d="m127.6 72.2c-0.2 0.2-0.4 0.1-0.6-0.2l-1.3-2.1q-0.2 0.1-0.3 0.2l-0.2 0.8h0.2c0 4.5-0.2 9-1 12.6 0 0.2 0 0.4-0.1 0.7q0 0 0 0c-0.3 1.1-0.5 2-0.9 2.9q-0.3 0.9-0.8 1.7c-0.2 0.3-0.8 0.5-1.5 0.6 0 0.2 0.1 0.2 0.1 0.4l-5.8 22.7v0.1l-1.2 4.6-3.5 14c-0.6-0.4-1.1-0.8-1.7-1.4h-0.1q-1.3-0.9-2.5-2h3.1l2.7-10.9 0.6-2.3h-10.9c0.2 1 0.3 1.9 0.4 2.8 0 0.1 0.1 0.1 0.1 0.2 0.1 1.3 0.2 2.4 0.3 3.5 0 0.1 0 0.1 0 0.1 0.1 1 0.2 2.1 0.2 2.9v0.2c-5.4-5.6-9.4-12.6-11.7-20.2 0-0.1-0.1-0.1-0.1-0.2-1.3-4.2-2-8.6-2.1-13.2 2-6.4 3.5-11.7 6-13l4.6-2.2c-2.8-2.3-2.9-5.6-1.2-7.5 1-1 2.8-3.4 4.5-3.1q1.1 0.2 1.9 0.2l-0.7-7.1 2.5-0.5c0 0.1 0 0.2 0.1 0.3 0.4 1.1 0.8 2.1 1.1 3.2l1.4-2.4 5-8.1-0.1-0.2c-0.1-0.3-0.1-0.5 0.1-0.6 0.2-0.2 0.5-0.1 0.7 0.1l2.2 3.8 4.2 7 3 5q0.1-0.2 0.4-0.3c0.8-0.2 2.5 1.6 2.1 2.9q-0.2 0.5-0.5 0.9l1.5 2.5c0.1 0.2 0 0.5-0.2 0.6zm-11 27.3h-11.5c-1.4 4.1-2.8 7.5-4.3 10.1 0.3 1 0.5 2 0.7 3v0.1h11.8l0.5-2zm2.4-9.8c-3.7 0.5-9.1 0.5-11 0.3-0.5 1.7-1 3.3-1.5 4.9-0.2 0.8-0.6 1.7-0.8 2.6h11.4zm3.8-19.3h0.2c0.4 0 0.3-4 0.4-4.2 0-0.1 0-0.1 0-0.1l-3-5-0.4-0.8c-3.3-0.3-7.8 1.2-11.5 3.2 0.8 2.4 1.4 4.6 1.6 6.6q0 0 0 0.1c0.1 0.7 0.2 1.4 0.2 2.1 0.1 1.1 0.1 1.9-0.1 2.8-0.2 0.6-1.1 1.8-2.4 3-0.7 0.7-1.5 1.5-2.2 2.1 0.4 0.3 0.8 0.6 1.3 0.9h0.1q1.4 0.9 2.5 1.9v-0.1l9.4 1.8zm-13 63.8l-13.3 52.5-5.3 3.4h-4.1l0.8-2h6.2l3.3-13.1h-4.2l0.8-2h3.9l3.3-13.1h-1.9l0.9-2.1h1.5-1.5l0.9-2.3c0.3 0.1 0.5 0.3 0.7 0.4q0.1 0.1 0.2 0.2 0.1 0 0.2 0.1l2-8.4z"/>
					</g>
					<g id="&lt;Group&gt;">
						<path id="&lt;Path&gt;" class="s0" d="m198.2 174.4l-0.2 1.6-1.4 16c-0.4 3.9-3 7.1-6.6 8.7l-0.1 0.1c0 1.7-1.7 3-3.7 3h-4.3c-1.9 0-3.6-1.3-3.7-3v-0.6c-3.1-1.7-5.4-4.7-5.7-8.2l-0.1-2-1.4-15.6z"/>
						<path id="&lt;Path&gt;" class="s19" d="m198 176l-1.4 16c-0.4 3.9-3 7.1-6.6 8.7l-0.1 0.1c0 1.7-1.7 3-3.7 3h-4.3c-1.9 0-3.6-1.3-3.7-3v-0.6c-3.1-1.7-5.4-4.7-5.7-8.2l-0.1-2c0.5 0.1 1 0.3 1.5 0.5 3 1.1 5.7 2.9 8.8 3.4 3.2 0.5 6.9-0.7 7.9-3.7 0.5-1.3 0.3-2.7 0.4-4 0.1-2.8 1-5.5 2.9-7.5 1.1-1.3 2.5-2.2 4.1-2.7z"/>
						<path id="&lt;Path&gt;" class="s0" d="m208.3 161.7c0 8.3-4.3 15.6-10.8 19.9-1.9 1.2-4 2.2-6.3 2.9q-3.1 0.9-6.6 0.9c-4.9 0-9.3-1.4-13-3.9-4.6-3-8.2-7.6-9.8-13.1-0.5-1.5-0.8-3.1-0.9-4.8 0-0.6-0.1-1.3-0.1-1.9 0-3.6 0.8-7 2.3-10 3.7-8.1 12-13.7 21.5-13.7 3.2 0 6.4 0.6 9.2 1.8 8.5 3.6 14.5 12.1 14.5 21.9z"/>
						<g id="&lt;Group&gt;">
							<path id="&lt;Path&gt;" class="s6" d="m167 156.3q-0.2 0-0.3 0c-0.5-0.2-0.7-0.7-0.6-1.1 1.1-3.1 2.9-5.8 5.3-8 0.4-0.3 0.9-0.3 1.3 0.1 0.3 0.3 0.3 0.9-0.1 1.2-2.2 2-3.8 4.5-4.8 7.2-0.1 0.4-0.5 0.6-0.8 0.6z"/>
						</g>
						<g id="&lt;Group&gt;">
							<path id="&lt;Path&gt;" class="s6" d="m174.9 146.5c-0.3 0-0.6-0.1-0.7-0.4-0.3-0.4-0.1-0.9 0.3-1.2q1.8-1.1 3.8-1.7c0.4-0.2 0.9 0 1.1 0.5 0.2 0.5-0.1 1-0.5 1.1q-1.9 0.6-3.5 1.6-0.2 0.1-0.5 0.1z"/>
						</g>
						<path id="&lt;Path&gt;" class="s20" d="m208.3 161.7c0 8.3-4.3 15.6-10.8 19.9-1.9 1.2-4 2.2-6.3 2.9q-3.1 0.9-6.6 0.9c-4.9 0-9.3-1.4-13-3.9-4.6-3-8.2-7.6-9.8-13.1-0.5-1.5-0.8-3.1-0.9-4.8 1 0.6 1.9 1.2 2.9 1.8 4.1 2.5 8.8 4.3 13.7 4.5 1.6 0.1 3.2 0 4.9-0.3 6.3-1.2 12.2-5.9 13.8-12.2 0.8-3.1 0.5-6.4 0.1-9.6-0.4-2.2-0.8-4.4-1.6-6.5-0.2-0.4-0.5-0.9-0.9-1.5 8.5 3.6 14.5 12.1 14.5 21.9z"/>
					</g>
					<g id="&lt;Group&gt;">
						<path id="&lt;Path&gt;" class="s13" d="m209.3 34.9c0 6.2-5.1 11.2-11.2 11.2-6.2 0-11.2-5-11.2-11.2q0-1.1 0.1-2c1-5.3 5.6-9.2 11.1-9.2 2.9 0 5.5 1.1 7.5 2.9 2.2 2 3.7 5 3.7 8.3z"/>
						<circle id="&lt;Path&gt;" class="s6" cx="198.1" cy="34.9" r="8.6"/>
						<circle id="&lt;Path&gt;" class="s1" cx="198.1" cy="34.9" r="2.3"/>
						<path id="&lt;Path&gt;" class="s21" d="m209.3 34.9c0 6.2-5.1 11.2-11.2 11.2-6.2 0-11.2-5-11.2-11.2q0-1.1 0.1-2c0.7 0.2 1.4 0.6 2 0.9q0.3 0.1 0.5 0.2c1.4 0.6 2.9 1.1 4.4 1 0.6 0 1.3-0.1 1.9-0.3 1-0.4 1.9-1 2.4-1.9q0.1-0.1 0.1-0.2c0.4-0.6 0.6-1.3 0.9-2 0.6-1.4 1.8-2.5 3.1-3.2 1-0.5 2.2-0.8 3.3-0.8 2.2 2 3.7 5 3.7 8.3z"/>
						<path id="&lt;Path&gt;" class="s1" d="m198.5 20.6h-0.9c-0.1 0-0.2-0.1-0.2-0.2v-3.5c0-0.2 0.1-0.3 0.2-0.3h0.9c0.2 0 0.3 0.1 0.3 0.3v3.5c0 0.1-0.1 0.2-0.3 0.2z"/>
						<path id="&lt;Path&gt;" class="s1" d="m183.9 34.5v0.9c0 0.1-0.1 0.2-0.2 0.2h-3.6c-0.1 0-0.2-0.1-0.2-0.2v-0.9c0-0.1 0.1-0.3 0.2-0.3h3.6c0.1 0 0.2 0.2 0.2 0.3z"/>
						<path id="&lt;Path&gt;" class="s1" d="m197.8 49.1h0.9c0.1 0 0.2 0.1 0.2 0.2v3.6c0 0.1-0.1 0.2-0.2 0.2h-0.9c-0.2 0-0.3-0.1-0.3-0.2v-3.6c0-0.1 0.1-0.2 0.3-0.2z"/>
						<path id="&lt;Path&gt;" class="s1" d="m212.4 35.2v-0.9c0-0.1 0.1-0.2 0.2-0.2h3.5c0.2 0 0.3 0.1 0.3 0.2v0.9c0 0.2-0.1 0.3-0.3 0.3h-3.5c-0.1 0-0.2-0.1-0.2-0.3z"/>
					</g>
					<g id="&lt;Group&gt;">
						<g id="&lt;Group&gt;">
							<path id="&lt;Path&gt;" class="s0" d="m258.6 128.6c-3 0.3-8.8 0.1-10-1.4-2.5-3.6-3.3-11.2-3.7-19l2.6-0.5 4.7 15.1 10.1-2.2z"/>
							<path id="&lt;Path&gt;" class="s22" d="m244.9 108.2q-1.7-1.6-1.5-3c0.2-1.4 3.1-2 3.9-1.4 0.8 0.6-0.5 2-0.1 2.2 0.4 0.2 0.7-0.6 1.1-0.3q0.3 0.3-0.8 2z"/>
						</g>
						<g id="&lt;Group&gt;">
							<path id="&lt;Path&gt;" class="s13" d="m244.9 101.9q1.2-1.6 2.1-3.1c1.7-3.3 1.9-6.3 0.3-7.7l6.4 5.3c4.2 3.5 4.8 9.7 1.4 13.9-1.4 1.7-3.2 2.8-5.2 3.3q-0.7 0.2-1.5 0.3c-2.5 0.2-5.1-0.5-7.2-2.2l-6.4-5.3c2.1 1.7 6.6-0.3 10.1-4.5z"/>
							<path id="&lt;Path&gt;" class="s6" d="m232.3 102.9q0.7-0.2 1.5-0.5c1.9-0.9 4-2.5 5.8-4.8 1.4-1.7 2.5-3.5 3.1-5.1q0.3-0.8 0.5-1.5 0.2-0.9 0.2-1.6 0-0.9-0.2-1.7 0.4 0.4 0.9 0.8l3.2 2.6c1.6 1.4 1.4 4.4-0.3 7.7q-0.9 1.5-2.1 3.1c-3.5 4.2-8 6.2-10.1 4.5l-3.2-2.6q-0.5-0.4-1-0.8 0.8 0.1 1.7-0.1z"/>
							<path id="&lt;Path&gt;" class="s1" d="m203.9 93.8l9.3-11.3 2.8-3.5 3.6-4.4 9.3-11.3 0.9-1.1c1.7 1.4 2.8 2.8 3.5 4 3.2 5.7-1.8 10.4 8 19.8q0.8 0.8 1.9 1.7 0.2 0.8 0.2 1.7 0 0.7-0.2 1.6-0.2 0.7-0.5 1.5c-0.6 1.6-1.7 3.4-3.1 5.1-1.8 2.3-3.9 3.9-5.8 4.8q-0.8 0.3-1.5 0.5-0.9 0.2-1.7 0.1-1.1-0.8-2.1-1.5c-11-7.7-14.7-2-20.9-4-1.4-0.4-2.9-1.2-4.6-2.7z"/>
							<path id="&lt;Path&gt;" class="s6" d="m229.8 62.2c4.5 3.7 2.2 14.1-5.2 23.1-7.4 9-17.1 13.3-21.6 9.5-4.5-3.7-2.2-14 5.2-23 7.4-9 17.1-13.3 21.6-9.6z"/>
							<g id="&lt;Group&gt;">
								<path id="&lt;Compound Path&gt;" fill-rule="evenodd" class="s13" d="m207.1 70.9c2-2.3 4.1-4.4 6.2-6.1 6.6-5.2 13.5-6.9 17.4-3.6 1.4 1.2 2.3 2.9 2.6 5 0.8 4.9-1.5 11.6-6.2 18.1q-0.7 0.9-1.4 1.8c-5.8 7-12.7 11.2-18.1 11.4-2.1 0.1-4-0.4-5.5-1.6-5.2-4.3-3-15.2 5-25zm-3.2 22.9c3.8 3.2 12.8-1.1 19.6-9.4q0.4-0.5 0.8-1c6.2-8 8.3-17.1 4.6-20.1-3.3-2.7-10.4 0-16.7 6.1q-0.5 0.6-1.1 1.2-0.9 1-1.8 2.1-0.9 1.1-1.7 2.2c-5.5 7.7-7.3 16-3.7 18.9z"/>
							</g>
							<path id="&lt;Path&gt;" class="s1" d="m208.7 72.2c1.8-2.2 5-2.5 7.1-0.7l4.2 3.4c0.7 0.6 0.8 1.7 0.2 2.5-0.9 1.7-2.3 3.4-4.2 5.1-0.6 0.7-1.7 0.9-2.5 0.2l-4.1-3.4c-2.2-1.7-2.5-4.9-0.7-7.1z"/>
							<path id="&lt;Path&gt;" class="s1" d="m222 122l9.8-18.1 2 1.7 5.3 4.3-4 12-2.4 7.4c-0.6 1.8-3.1 2-5.1 0.4l-4.1-3.4c-1.5-1.2-2.1-3-1.5-4.3z"/>
							<path id="&lt;Path&gt;" class="s23" d="m207.1 70.9c2-2.3 4.1-4.4 6.2-6.1q-0.5 1.2-0.8 2.5-0.2 1-0.3 2.1 0 0.5 0 1c0 2 0.5 4.1 1.5 5.9q1 1.5 2.3 2.7 0.9 0.9 2 1.5c1.9 1.3 4.1 2.1 6.3 2.9q0.7 0.2 1.4 0.4 0.7 0.3 1.4 0.5 1.5 0.4 2.9 0.9c4.2 1.3 8.4 3.2 11.7 6.3q0.5 0.4 1 1c1.8 1.8 3.2 3.9 4.3 6.3 1.5 3.2 2.4 6.9 2.7 10.5q0.2 2.1 0.2 4.3-0.7 0.2-1.5 0.3c-2.5 0.2-5.1-0.5-7.2-2.2l-6.4-5.3-3.2-2.6q-0.5-0.4-1-0.8-1.1-0.8-2.1-1.5c-11-7.7-14.7-2-20.9-4-2.1 0.1-4-0.4-5.5-1.6-5.2-4.3-3-15.2 5-25z"/>
							<path id="&lt;Path&gt;" class="s24" d="m222 122l9.8-18.1 2 1.7q-0.1 0.1-0.3 0.3c-2 2.7-3.5 5.8-4.3 9.1-0.2 1-0.4 2-0.2 2.9 0.3 1.1 1.2 1.9 2.1 2.5 1.2 0.8 2.6 1.3 4 1.5l-2.4 7.4c-0.6 1.8-3.1 2-5.1 0.4l-4.1-3.4c-1.5-1.2-2.1-3-1.5-4.3z"/>
						</g>
						<g id="&lt;Group&gt;">
							<path id="&lt;Path&gt;" class="s22" d="m256.8 196q0 0.9 0.8 2.1 0.8 1.3 0.5 2.6-5.1-0.3-4.8-1.3 0.4-1 0.1-1.7z"/>
							<path id="&lt;Path&gt;" class="s10" d="m261.3 147.3c-0.8 12.9-5.2 17.7-5.2 22.7q0 4.9 1.7 26.6c-0.6 0.9-4.1 1.4-5.3 0.9-2.5-12.2-4.9-26.2-4.8-30.3 0.1-4.7 1.1-12.9 3.8-20.8z"/>
							<path id="&lt;Path&gt;" class="s13" d="m258.5 199.8q1.1 1.8 0.3 3.4c-4 0.1-7.9 0.2-11.7 0 0-1.4 3.8-3.3 6-3.9q2.5 1.4 5.4 0.5z"/>
						</g>
						<g id="&lt;Group&gt;">
							<path id="&lt;Path&gt;" class="s22" d="m272.6 193.4q0.2 0.9 1.2 1.9 1.1 1 1.1 2.4-5.2 0.8-5-0.3 0.1-1-0.2-1.7z"/>
							<path id="&lt;Path&gt;" class="s10" d="m267.1 144.8c1.8 12.8-1.5 18.4-0.5 23.2q1 4.9 7.1 25.8c-0.4 0.9-3.7 2.2-5 1.9-5-11.4-10.1-24.6-10.9-28.7-0.8-4.6-1.6-12.8-0.5-21.1z"/>
							<path id="&lt;Path&gt;" class="s13" d="m275 196.7q1.5 1.6 1.1 3.3c-4 0.9-7.8 1.8-11.5 2.4-0.3-1.4 3.1-4 5-5.1q2.8 1 5.4-0.6z"/>
						</g>
						<path id="&lt;Path&gt;" class="s0" d="m268.6 150.2c-2.4 2.5-14.8 3.1-18.5 1-1.4-6.8-0.8-17.9 0-29.5 4.7-2.3 13.4-2.7 16.7-0.9 3.9 3 0.8 16.4 1.8 29.4z"/>
						<g id="&lt;Group&gt;">
							<path id="&lt;Path&gt;" class="s22" d="m256.6 120.3c0.7-1.4 0.8-2.8 0.4-4.2h3.7c0.1 1.5 0.3 2.7 1 3.8-0.3 0.8-4.8 1-5.1 0.4z"/>
						</g>
						<g id="&lt;Group&gt;">
							<path id="&lt;Path&gt;" class="s22" d="m261 118.2c-2.1-0.5-4.1-0.9-4.6-2.2-0.7-1.9 1.2-6.4 3.1-8.6l6.4 4z"/>
						</g>
						<path id="&lt;Path&gt;" class="s25" d="m261.9 117.9c-1.1 0.1-0.8 1.5-3.1 0.2-1.4-0.8-1.3-2.8-0.4-3.8 1 0 2.1 0.1 2.4-0.4 0.5-0.3 0.3-0.8 0-1.3-0.4 0-0.9 0.2-1.4 0.4l-0.1-0.9 1.6-1.3c-1.5-0.9-2.8-1.7-2.5-2.7 0-1.5 0.9-1.2 1.8-1.7 2.5 0 2.2 0.9 4.1 1.4 1.5 0.5 1.9 3.1 2.3 4.4 0.6 2.3-1 5.3-4.7 5.7z"/>
						<path id="&lt;Path&gt;" class="s18" d="m253.1 199.3q0.1 0 0.2 0.1 0.4-1 0.1-1.7c-0.3-0.1-0.7-0.1-0.9-0.2-2.5-12.2-4.9-26.2-4.8-30.3 0.1-3.8 0.7-9.7 2.4-16q1.1 0.5 2.5 0.8 1.4 0.3 2.9 0.4 0.1 0 0.2 0c-4.1 5.2-6.5 15.6-4.5 27 1.2 7.4 3.4 13.5 4.4 17.2q0.1 0.5 0.2 0.9c0.3 1.2 0.4 2.1 0.2 2.6q-0.1 0.2-0.2 0.4h-0.1c-1.2 0.9-4.8 2.4-8.1 1.8 1-1.3 3.8-2.6 5.5-3z"/>
						<path id="&lt;Path&gt;" class="s18" d="m260.8 157.8c-1.5 3.6-1.4 6 0 10.8 1.2 4.2 7.7 19.6 10.4 25.9q0.1 0.4 0.3 0.7c0.4 0.9 0.7 1.6 0.8 1.8q0.1 0.3 0 0.7 0 0.1-0.1 0.3c-0.8 1.4-4.6 2.8-7.3 3.3 0.8-1.4 3.2-3.2 4.7-4q0.2 0.1 0.3 0.1c0.1-0.9-0.2-1.5-0.2-1.7q-0.6 0.1-1 0c-5-11.4-10.1-24.6-10.9-28.7q-0.1-0.8-0.3-1.9c0.9-3.6 3-6.9 3.3-7.3z"/>
						<g id="&lt;Group&gt;">
							<path id="&lt;Path&gt;" class="s0" d="m250.7 130.4c-2.4 1.7-7.6 4.3-9.5 3.6-3.8-2-8.2-8.3-12.3-15l2.1-1.6 11.3 10.9 7.8-6.7z"/>
							<path id="&lt;Path&gt;" class="s22" d="m228.9 119q-2.2-0.5-2.7-1.8c-0.6-1.3 1.7-3.3 2.7-3.1 1 0.1 0.5 2 1 1.9 0.5 0 0.3-0.8 0.8-0.7q0.5 0.1 0.3 2.1z"/>
						</g>
						<path id="&lt;Path&gt;" class="s18" d="m242.3 132c2.4-0.4 5.2-1.7 7.3-3q0.5-0.3 1-0.6 1.5-0.9 2.4-1.6-0.5 12.3 0.7 19.8c0.4 2.5 0.9 4.4 1.8 5.3q0.3 0.3 0.4 0.5c-2.4-0.1-4.6-0.5-5.8-1.2-1-4.9-1-12.1-0.6-20-2.7 1.6-6.7 3.4-8.3 2.8-2.5-1.3-5.3-4.5-8-8.3 3.4 3.8 5.7 6.8 9.1 6.3z"/>
					</g>
					<g id="&lt;Group&gt;">
						<g id="&lt;Group&gt;">
							<path id="&lt;Path&gt;" class="s13" d="m204 136.7l-0.9 2.2-2.3 5.2c-1.1 2.5-4 3.7-6.5 2.6l-6.8-3c-2.5-1.1-3.7-4-2.6-6.5l0.8-1.9 1.5-3.3 0.9-2.2 7.3 3.1z"/>
							<path id="&lt;Path&gt;" class="s1" d="m207.6 139q-0.2 0-0.3 0h-0.3l-3.9-0.1-9-0.3q-0.3-0.1-0.5-0.3l-1.2-1.1-5.2-5.2-3-3c-0.5-0.5-0.1-1.2 0.5-1.2l10 0.3 3.3 0.1q0.2 0.1 0.4 0.2l9.4 9.4c0.4 0.4 0.2 1-0.2 1.2z"/>
							<g id="&lt;Group&gt;">
								<path id="&lt;Path&gt;" class="s13" d="m207.6 139q0 0 0 0.1c-0.6 1.4-1.1 2.6-1.6 3.7-1.2 2.8-1.9 4.3-1.1 5.2q0.1 0.3 0.4 0.4c0.1 0.1 0.2 0.3 0.1 0.4q-0.1 0.1-0.2 0.1-0.1 0.1-0.2 0-0.3-0.2-0.4-0.4c-1.2-1.2-0.4-3.1 0.9-5.9 0.5-1.1 1-2.3 1.5-3.6q0-0.1 0-0.1c0.1-0.1 0.3-0.2 0.4-0.2q0.1 0.1 0.2 0.3z"/>
							</g>
							<path id="&lt;Path&gt;" class="s1" d="m207.4 149.6c-0.2 0.2-0.4 0.4-0.6 0.4q-0.3 0.1-0.5 0l-1.3-0.6c-0.3-0.1-0.5-0.5-0.4-0.9q0 0 0-0.1 0.1-0.2 0.3-0.4 0.1-0.1 0.3-0.1 0.3 0 0.5 0l1.2 0.6c0.4 0.2 0.6 0.6 0.5 1.1z"/>
						</g>
						<path id="&lt;Path&gt;" class="s26" d="m207.6 139q0 0 0 0.1c-0.6 1.4-1.1 2.6-1.6 3.7-1.2 2.8-1.9 4.3-1.1 5.2q0.1-0.1 0.3-0.1 0.3 0 0.5 0l1.2 0.6c0.4 0.2 0.6 0.6 0.5 1.1-0.2 0.2-0.4 0.4-0.6 0.4q-0.3 0.1-0.5 0l-1.3-0.6c-0.3-0.1-0.5-0.5-0.4-0.9-1.2-1.2-0.4-3.1 0.9-5.9 0.5-1.1 1-2.3 1.5-3.6l-3.9-0.1-2.3 5.2c-1.1 2.5-4 3.7-6.5 2.6l-6.8-3c-2.5-1.1-3.7-4-2.6-6.5l0.8-1.9c1.6 0.4 3.2 1.2 4.8 1.6 0.6 0.2 1.3 0.3 1.9 0.3 1.4 0.1 2.8-0.3 3.8-1.2 0.2-0.2 0.3-0.4 0.4-0.6 0.1-0.4-0.1-0.8-0.3-1.1q-0.4-0.7-0.9-1.4c-0.3-0.5-0.6-1-0.8-1.6-0.4-1.1-0.4-2.3 0.1-3.2l3.3 0.1q0.2 0.1 0.4 0.2l9.4 9.4c0.4 0.4 0.2 1-0.2 1.2z"/>
					</g>
					<g id="&lt;Group&gt;">
						<g id="&lt;Group&gt;">
							<path id="&lt;Path&gt;" class="s13" d="m105.6 70.3c-0.5 1.8-7.5 8.2-10.2 8.9l-2-2.8-1.3-1.9-1.8-1.8 10.5-4.9-1.4-14.7 2.4-0.5q0.1 0.1 0.2 0.3c1.6 4.4 3 8.8 3.5 12.5q0 0 0 0c0.3 1.9 0.3 3.5 0.1 4.9z"/>
							<path id="&lt;Path&gt;" class="s22" d="m99.4 53.1q-1.6-1-1.4-1.4c0.3-0.4 0.8 0.1 1.1-0.2 0.3-0.3-1.4-1.1-0.9-1.9 0.5-0.7 3.2-1.3 3.9-0.1q0.6 1.1-0.3 3.1z"/>
							<path id="&lt;Path&gt;" class="s18" d="m105.6 70.3c-0.5 1.8-7.5 8.2-10.2 8.9l-2-2.8q0.1-0.1 0.2-0.2c1.1-0.6 2.2-1.2 3.2-1.8 1.9-1 3.9-2.2 5.1-4 1.5-2.2 1.7-5 1.2-7.6-0.5-2.6-1.4-5.1-1.9-7.7-0.1-0.7-0.2-1.5 0.3-2q0.2-0.1 0.5-0.2c1.6 4.4 3 8.8 3.5 12.5q0 0 0 0c0.3 1.9 0.3 3.5 0.1 4.9z"/>
						</g>
						<g id="&lt;Group&gt;">
							<path id="&lt;Path&gt;" class="s10" d="m108.9 32.6l2.7 2.9c0.5 0.5 0.7 1.2 0.6 1.9-0.1 0.5-0.3 0.9-0.7 1.3l-21 19.9c-0.9 0.9-2.3 0.8-3.1-0.1l-2.8-2.9q-0.2-0.2-0.3-0.4-0.1-0.1-0.1-0.2c-0.4-0.9-0.2-1.9 0.5-2.5l21-20c0.9-0.8 2.3-0.8 3.2 0.1z"/>
							<g id="&lt;Group&gt;">
								<path id="&lt;Path&gt;" class="s13" d="m109 33.8l2.8 2.9q0.3 0.3 0.4 0.7c0.4 0.8 0.2 1.8-0.5 2.5l-21 19.9c-0.9 0.9-2.3 0.8-3.2-0.1l-2.7-2.9c-0.4-0.4-0.6-0.9-0.6-1.5q0-0.2 0-0.3c0.1-0.5 0.3-1 0.7-1.3l21-20c0.9-0.8 2.3-0.8 3.1 0.1z"/>
								<path id="&lt;Path&gt;" class="s10" d="m96.4 45.1l1.3 0.7q0.1 0.1 0.2 0l1.1-1c0.1-0.2 0.4 0 0.4 0.2l-0.3 1.4q0 0.2 0.1 0.3l1.3 0.7c0.2 0.1 0.1 0.3-0.1 0.4l-1.4 0.2q-0.2 0-0.2 0.1l-0.3 1.5c0 0.2-0.3 0.2-0.4 0l-0.6-1.3q-0.1-0.1-0.3-0.1l-1.4 0.2c-0.2 0-0.3-0.2-0.2-0.4l1.1-1q0.1-0.1 0-0.3l-0.6-1.3c-0.1-0.2 0.1-0.4 0.3-0.3z"/>
								<path id="&lt;Path&gt;" class="s10" d="m92.3 49l1.3 0.7q0.1 0.1 0.2 0l1.1-1c0.1-0.1 0.4 0 0.3 0.2l-0.2 1.4q0 0.2 0.1 0.3l1.3 0.7c0.2 0.1 0.1 0.4-0.1 0.4l-1.5 0.2q-0.1 0-0.1 0.1l-0.3 1.5c0 0.2-0.3 0.2-0.4 0l-0.7-1.3q0-0.1-0.2-0.1l-1.4 0.2c-0.2 0-0.4-0.2-0.2-0.4l1.1-1q0.1-0.1 0-0.2l-0.6-1.4c-0.1-0.2 0.1-0.4 0.3-0.3z"/>
								<path id="&lt;Path&gt;" class="s10" d="m88.1 53l1.3 0.7q0.2 0 0.3-0.1l1.1-1c0.1-0.1 0.4 0 0.3 0.2l-0.2 1.5q-0.1 0.1 0.1 0.2l1.3 0.7c0.1 0.1 0.1 0.4-0.1 0.4l-1.5 0.2q-0.1 0-0.2 0.2l-0.2 1.4c-0.1 0.2-0.3 0.2-0.4 0.1l-0.7-1.4q0-0.1-0.2-0.1l-1.5 0.2c-0.2 0-0.3-0.2-0.1-0.4l1-1q0.1-0.1 0.1-0.2l-0.7-1.4c0-0.2 0.2-0.3 0.3-0.2z"/>
								<path id="&lt;Path&gt;" class="s10" d="m100.7 41.1l1.3 0.7q0.1 0 0.2-0.1l1.1-1c0.2-0.1 0.4 0 0.4 0.2l-0.3 1.4q0 0.2 0.1 0.3l1.3 0.7c0.2 0.1 0.1 0.4-0.1 0.4l-1.4 0.2q-0.2 0-0.2 0.2l-0.3 1.4c0 0.2-0.3 0.2-0.4 0.1l-0.6-1.4q-0.1-0.1-0.3-0.1l-1.4 0.2c-0.2 0-0.3-0.2-0.2-0.4l1.1-1q0.1-0.1 0-0.2l-0.6-1.4c-0.1-0.2 0.1-0.3 0.3-0.2z"/>
								<path id="&lt;Path&gt;" class="s10" d="m104.8 37.1l1.3 0.7q0.1 0.1 0.3 0l1-1c0.2-0.1 0.4 0 0.4 0.2l-0.3 1.4q0 0.2 0.1 0.3l1.3 0.7c0.2 0.1 0.1 0.3-0.1 0.4l-1.4 0.2q-0.2 0-0.2 0.1l-0.3 1.5c0 0.2-0.3 0.2-0.4 0l-0.6-1.3q-0.1-0.1-0.2-0.1l-1.5 0.2c-0.2 0-0.3-0.2-0.2-0.4l1.1-1q0.1-0.1 0-0.2l-0.6-1.4c-0.1-0.2 0.1-0.4 0.3-0.3z"/>
							</g>
							<path id="&lt;Path&gt;" class="s27" d="m110.1 33.9l1.5 1.6c0.5 0.5 0.7 1.2 0.6 1.9 0.4 0.8 0.2 1.8-0.5 2.5l-21 19.9c-0.9 0.9-2.3 0.8-3.2-0.1l-2.7-2.9c-0.4-0.4-0.6-0.9-0.6-1.5q0 0 0.1-0.1 1.7-1.1 3.6-1.9 0.3-0.1 0.6-0.2 0.2 0 0.4-0.1c0.8-0.3 1.7-0.5 2.6-0.8 0.8-0.2 1.6-0.5 2.4-0.9q0.6-0.3 1.1-0.8c0.9-0.6 1.7-1.4 2.4-2.3q0 0 0.1-0.1 0.9-1 1.7-2.2 0.6-0.8 1.1-1.6 0.8-1.3 1.5-2.7 0.2-0.3 0.4-0.7c0.5-1.2 1-2.4 1.8-3.4 1.2-1.7 3.2-2.8 5.3-3.4q0.4-0.1 0.8-0.2z"/>
						</g>
						<g id="&lt;Group&gt;">
							<path id="&lt;Compound Path&gt;" fill-rule="evenodd" class="s10" d="m116.4 84.9l-29.9 118.3c-0.1 0.4-0.5 0.7-1 0.7q-0.1 0-0.2 0c-0.5-0.2-0.9-0.7-0.7-1.2l4.3-17.3h-23.9l-4.5 17.8c-0.1 0.4-0.6 0.7-1 0.7q-0.1 0-0.3 0c-0.5-0.2-0.8-0.7-0.7-1.2l29.9-118.3c0.2-0.6 0.7-0.9 1.3-0.8 0.5 0.2 0.8 0.7 0.7 1.3l-2 7.7h24l2.1-8.2c0.1-0.6 0.7-0.9 1.2-0.8 0.5 0.2 0.9 0.7 0.7 1.3zm-28.5 9.7l-3.3 13.1h24l3.3-13.1zm20.1 15.1h-23.9l-3.3 13.1h23.9zm-3.8 15.2h-24l-3.3 13.1h24zm-3.8 15.1h-24l-3.3 13.1h23.9zm-3.8 15.2h-24l-3.3 13.1h24zm-7.2 28.3l3.4-13.2h-24l-3.3 13.2z"/>
						</g>
						<g id="&lt;Group&gt;">
							<path id="&lt;Path&gt;" class="s22" d="m92.8 147.8q-0.2 0.7 0.1 1.6 0.4 1-4.5 1.3-0.3-1.3 0.5-2.5 0.8-1.1 0.8-2z"/>
							<g id="&lt;Group&gt;">
								<path id="&lt;Path&gt;" class="s6" d="m94.6 99.7c2.6 7.5 3.5 15.1 3.6 19.5 0.1 3.9-2.1 17-4.5 28.4-1.1 0.5-4.4 0-5-0.8q1.6-20.3 1.6-25c0-4.6-4.1-9.1-4.9-21.2z"/>
							</g>
							<g id="&lt;Group&gt;">
								<path id="&lt;Path&gt;" class="s13" d="m93.1 149.3c2.1 0.6 5.7 2.4 5.7 3.7-3.6 0.2-7.3 0-11 0q-0.7-1.5 0.3-3.2 2.6 0.9 5-0.5z"/>
							</g>
						</g>
						<g id="&lt;Group&gt;">
							<path id="&lt;Path&gt;" class="s22" d="m77.6 146q-0.3 0.6-0.2 1.6 0.1 1-4.7 0.3 0-1.3 1-2.3 1-1 1.2-1.8z"/>
							<g id="&lt;Group&gt;">
								<path id="&lt;Path&gt;" class="s6" d="m89.2 99.3c1 7.8 0.3 15.4-0.5 19.8-0.7 3.8-5.5 16.2-10.2 26.9-1.2 0.2-4.3-1-4.7-1.8q5.7-19.6 6.7-24.2c0.9-4.5-2.2-9.8-0.5-21.7z"/>
							</g>
							<g id="&lt;Group&gt;">
								<path id="&lt;Path&gt;" class="s13" d="m77.6 147.5c1.9 0.9 5 3.4 4.8 4.8-3.5-0.6-7.1-1.5-10.8-2.3q-0.4-1.6 1-3.1 2.4 1.5 5 0.6z"/>
							</g>
						</g>
						<path id="&lt;Path&gt;" class="s13" d="m96.1 104.7c-1.3 0.2-3.3-0.1-5.4-0.7-4.5-1.2-9.8-3.9-10.7-5.9 4.8-11.2 6.3-24.1 10.6-25.5 3.4-0.6 10.6 2.2 14.2 5.6q0.2 0.1 0.4 0.3-0.7 2.3-1.3 4.5-0.3 1.1-0.6 2.2c-2.3 7.9-4.6 15.1-7.2 19.5z"/>
						<g id="&lt;Group&gt;">
							<path id="&lt;Path&gt;" class="s22" d="m96.2 73.6c0.9-0.8 0.5-2.2 1-3.5l3.5 1.4c-0.5 1.2-0.9 2.4-0.9 3.8-0.5 0.4-3.6-0.9-3.6-1.7z"/>
						</g>
						<g id="&lt;Group&gt;">
							<path id="&lt;Path&gt;" class="s22" d="m94.8 62.7l8.3-0.7c0.3 2.8-0.2 8.1-1.4 9.9-1.1 1-3.3 0.4-5.5-0.2z"/>
						</g>
						<path id="&lt;Path&gt;" class="s6" d="m93.6 63.1c1.1-1 2.8-3.4 4.6-3.1 2.1 0.5 3.7 0.2 5.4-0.9 0.7 1 0.9 2.7 0.2 4.1-0.3 1.1-2 1.3-3.8 1.4l0.8 2-0.5 0.9c-0.4-0.5-0.8-0.9-1.2-1.1-0.5 0.3-0.9 0.7-0.7 1.2 0.1 0.7 1.2 1.2 2.1 1.6 0.5 1.5-0.5 3.4-2.2 3.5-2.9 0.1-1.9-1.1-2.9-1.7-3.4-2.3-3.5-6-1.8-7.9z"/>
						<path id="&lt;Path&gt;" class="s18" d="m98.3 152.1c-3.1 0.6-6.5-0.8-7.6-1.7h-0.1q-0.1-0.1-0.2-0.3c-0.1-0.5-0.1-1.3 0.2-2.5q0.1-0.4 0.2-0.8c0.9-3.5 2.9-9.2 4.1-16.1 1.9-10.7-4.3-26.7-4.2-26.7 1 0 4.5 0.6 5.3 0.2 1.5 5.9 2.1 11.5 2.2 15 0.1 3.9-2.1 17-4.5 28.4-0.2 0.1-0.5 0.2-0.9 0.2q-0.2 0.7 0.1 1.6 0.1 0 0.2-0.1c1.6 0.4 4.3 1.7 5.2 2.8z"/>
						<path id="&lt;Path&gt;" class="s18" d="m89 117.3q-0.1 1-0.3 1.8c-0.7 3.8-5.5 16.2-10.2 26.9q-0.4 0-0.9 0c-0.1 0.1-0.3 0.7-0.2 1.6q0.1-0.1 0.2-0.1c1.5 0.7 3.7 2.4 4.5 3.8-2.6-0.5-6.1-1.8-6.9-3.2q-0.1-0.2-0.1-0.3-0.1-0.3 0-0.6c0.2-0.2 0.4-0.9 0.8-1.7q0.1-0.3 0.3-0.7c2.5-5.9 8.6-20.3 9.7-24.3 1.3-4.5 1.4-6.7 0-10.1 0.3 0.4 2.2 3.5 3.1 6.9z"/>
						<g id="&lt;Group&gt;">
							<path id="&lt;Path&gt;" class="s1" d="m116 55.7q-0.3-0.1-0.6-0.1c-3.8-0.4-9 1.6-12.9 3.8-0.6 0.3-1.3-0.4-0.9-1l2.9-4.7 5-8.1 0.2-0.5 2.5 4.2z"/>
							<g id="&lt;Group&gt;">
								<path id="&lt;Path&gt;" class="s13" d="m123.1 66.7c0.1 0.2 0 0.4-0.2 0.6-0.2 0.1-0.5 0-0.6-0.2l-6.9-11.5-3.4-5.7-2.5-4.3-0.2-0.2c-0.1-0.3 0-0.5 0.2-0.7 0.2-0.1 0.5 0 0.6 0.2l2.3 3.8z"/>
							</g>
							<path id="&lt;Path&gt;" class="s28" d="m123.1 66.7c0.1 0.2 0 0.4-0.2 0.6-0.2 0.1-0.5 0-0.6-0.2l-6.9-11.5c-3.8-0.4-9 1.6-12.9 3.8-0.6 0.3-1.3-0.4-0.9-1l2.9-4.7c1.5-0.3 2.9-0.5 4.3-1.1 1.4-0.5 2.6-1.4 3.2-2.7q0.2-0.3 0.2-0.6c0.1-0.1 0.1-0.2 0.1-0.3q0.1-0.1 0.1-0.3z"/>
						</g>
						<path id="&lt;Path&gt;" class="s13" d="m117.9 83.9c-1.1 1.5-11.8 1.5-14.6 1.3l0.5-2.2 1-4.8 9.5 1.7 3.9-14.3 2.5 0.4c-0.1 4.8-0.3 9.6-1.1 13.2q0 0 0 0c-0.4 1.9-1 3.5-1.7 4.7z"/>
						<path id="&lt;Path&gt;" class="s22" d="m120.5 65.9l-2.1-0.3c0.3 0.1 0.2-4 0.3-4.2 0.2-0.4 0.5 0.7 0.7 0.8 0.1 0.1-0.4-1.6 0.5-1.8 0.9-0.2 2.5 1.6 2.2 2.9q-0.4 1.2-1.4 1.9z"/>
						<path id="&lt;Path&gt;" class="s18" d="m117.9 83.9c-1.1 1.5-11.8 1.5-14.6 1.3-2.3 7.9-4.6 15.1-7.2 19.5-1.3 0.2-3.3-0.1-5.4-0.7q0-0.1 0-0.3c0-2.4 1.1-4.8 2.9-6.4 0.8-0.7 1.7-1.2 2.5-1.8 3.4-2.7 4.8-7.3 4.9-11.7 0-0.7-0.1-1.6-0.7-1.9 1.1 0.5 2.3 0.9 3.5 1.1q0 0 0.1 0c1.2 0.2 2.5 0.4 3.8 0.4 2.2 0.1 4.5 0.2 6.7-0.5 1.9-0.6 3.6-1.8 4.9-3.3q0.1-0.2 0.3-0.4c-0.4 1.9-1 3.5-1.7 4.7z"/>
					</g>
				</g>
			</g>
		</g>
	</g>
</svg>