<svg version="1.2" xmlns="http://www.w3.org/2000/svg" viewBox="0 0 300 225" width="1000" height="750">
	<title>Illustration_Search Candidate-ai</title>
	<defs>
		<linearGradient id="g1" x1="266.8" y1="10.4" x2="276.9" y2="217" gradientUnits="userSpaceOnUse">
			<stop offset="0" stop-color="#7035bb"/>
			<stop offset="1" stop-color="#36164d"/>
		</linearGradient>
		<linearGradient id="g2" x1="257.7" y1="19.7" x2="295.1" y2="203.1" gradientUnits="userSpaceOnUse">
			<stop offset="0" stop-color="#ffffff"/>
			<stop offset="1" stop-color="#000000"/>
		</linearGradient>
		<linearGradient id="g3" x1="220.8" y1="15.8" x2="289.4" y2="195.5" gradientUnits="userSpaceOnUse">
			<stop offset="0" stop-color="#ffffff"/>
			<stop offset="1" stop-color="#000000"/>
		</linearGradient>
		<linearGradient id="g4" x1="258.6" y1="134.7" x2="272.7" y2="210.2" gradientUnits="userSpaceOnUse">
			<stop offset="0" stop-color="#ffffff"/>
			<stop offset="1" stop-color="#000000"/>
		</linearGradient>
		<clipPath clipPathUnits="userSpaceOnUse" id="cp1">
			<path d="m237.2 215.29c-21.92 7.37-37.37-18.45-60.04-12.07-71.99 20.26-168.82 16.98-125.23-17.18q0.52-0.41 1.1-0.83 0.09-0.07 0.17-0.13c2.7-1.97 6.31-4.25 10.26-6.87q0.23-0.14 0.45-0.29 0.34-0.23 0.68-0.46 0.58-0.39 1.17-0.79 0.22-0.14 0.44-0.29 1.78-1.21 3.6-2.51 0.05-0.04 0.11-0.08c3.17-2.28 6.35-4.75 9.29-7.44q0.74-0.68 1.46-1.37 0.01-0.01 0.01-0.01 1.44-1.39 2.77-2.85 0.02-0.02 0.04-0.05 0.59-0.65 1.15-1.31 0.18-0.22 0.36-0.44 0.4-0.48 0.78-0.97 0.22-0.27 0.43-0.55 0.34-0.45 0.66-0.9 0.22-0.29 0.43-0.6 0.31-0.45 0.61-0.91 0.19-0.3 0.38-0.59 0.35-0.57 0.68-1.14 0.17-0.31 0.34-0.61 0.35-0.64 0.67-1.28 0.16-0.33 0.3-0.65 0.22-0.47 0.42-0.95 0.15-0.35 0.29-0.71 0.18-0.46 0.34-0.92 0.13-0.37 0.25-0.74 0.15-0.48 0.29-0.96 0.1-0.36 0.19-0.71 0.14-0.56 0.25-1.12 0.06-0.3 0.12-0.59 0.15-0.85 0.24-1.72 0.02-0.21 0.04-0.42 0.06-0.68 0.08-1.37 0.01-0.32 0.01-0.64 0.01-0.6-0.02-1.2-0.01-0.34-0.04-0.69-0.04-0.6-0.11-1.21-0.04-0.34-0.08-0.68-0.1-0.66-0.24-1.34-0.05-0.28-0.11-0.57-0.2-0.94-0.47-1.89-0.01-0.03-0.02-0.05-0.29-1.01-0.67-2.04-0.08-0.21-0.17-0.42-0.3-0.8-0.66-1.61-0.14-0.31-0.29-0.62-0.34-0.73-0.72-1.47-0.18-0.34-0.36-0.67-0.41-0.75-0.86-1.51-0.19-0.32-0.38-0.63-0.54-0.86-1.13-1.73-0.14-0.22-0.29-0.43-0.77-1.12-1.65-2.26-0.03-0.03-0.06-0.06-0.82-1.07-1.74-2.15-0.3-0.34-0.6-0.69-0.68-0.78-1.41-1.57-0.39-0.42-0.8-0.85-0.69-0.72-1.41-1.45-0.47-0.46-0.95-0.93-0.73-0.71-1.5-1.43-0.51-0.48-1.04-0.96-0.83-0.74-1.7-1.5-0.52-0.45-1.05-0.91-1.33-1.13-2.75-2.27-0.84-0.66-1.72-1.34-0.68-0.53-1.38-1.06-1.04-0.79-2.13-1.58-0.51-0.38-1.03-0.75-0.7-0.5-1.42-1-0.95-0.67-1.95-1.36-0.24-0.17-0.49-0.33-2.96-2.02-6.23-4.09c-24.77-15.62-14.38-39.2 10.07-54.42 25.36-15.79 65.84-22.61 97.88-2.24 39.09 24.87 39.05-22.91 64.73-23.06 3.96-0.02 7.7 0.59 11.2 1.75q1.38 0.46 2.71 1.03 0.4 0.18 0.8 0.36 0.92 0.41 1.81 0.87 0.46 0.24 0.9 0.5 0.82 0.45 1.62 0.94 0.45 0.28 0.89 0.57 0.78 0.52 1.54 1.08 0.41 0.29 0.81 0.6 0.79 0.61 1.54 1.26 0.35 0.29 0.69 0.58 0.87 0.78 1.7 1.61 0.2 0.19 0.4 0.38 2.07 2.11 3.88 4.5 0.19 0.26 0.38 0.53 0.68 0.92 1.32 1.87 0.24 0.37 0.47 0.74 0.57 0.88 1.1 1.79 0.24 0.41 0.46 0.82 0.51 0.91 0.98 1.84 0.21 0.41 0.41 0.82 0.47 0.98 0.9 1.98 0.16 0.37 0.32 0.74 0.49 1.19 0.93 2.41 0.06 0.18 0.13 0.36 0.51 1.45 0.92 2.92 0.02 0.07 0.04 0.13 0.38 1.36 0.68 2.73 0.08 0.4 0.16 0.81 0.22 1.03 0.39 2.07 0.08 0.51 0.14 1.01 0.14 0.95 0.24 1.9 0.05 0.55 0.09 1.09 0.07 0.92 0.11 1.85 0.02 0.55 0.03 1.1 0.01 0.94-0.02 1.88-0.01 0.51-0.03 1.03-0.06 1.07-0.17 2.14-0.03 0.37-0.06 0.73-0.17 1.41-0.43 2.8-0.09 0.43-0.19 0.86-0.19 0.96-0.43 1.91-0.16 0.56-0.33 1.11-0.23 0.8-0.5 1.59-0.21 0.6-0.44 1.18-0.28 0.74-0.59 1.46-0.26 0.6-0.54 1.18-0.34 0.7-0.71 1.39-0.3 0.58-0.62 1.14-0.41 0.69-0.85 1.36-0.34 0.54-0.7 1.06-0.53 0.74-1.1 1.46-0.32 0.43-0.66 0.85-0.87 1.04-1.84 2.03-0.03 0.02-0.06 0.05-0.81 0.79-1.68 1.55-0.36 0.34-0.73 0.67-0.89 0.72-1.84 1.4-0.41 0.32-0.82 0.62-1.12 0.76-2.33 1.45-0.3 0.19-0.6 0.38-1.54 0.87-3.22 1.63-1.26 0.57-2.45 1.15-0.32 0.16-0.64 0.32-0.86 0.42-1.69 0.85-0.35 0.19-0.7 0.38-0.78 0.42-1.53 0.85-0.33 0.18-0.65 0.37-0.79 0.46-1.54 0.93-0.24 0.15-0.48 0.3-1.95 1.24-3.63 2.55-0.22 0.17-0.44 0.35-0.59 0.47-1.15 0.95-0.26 0.22-0.51 0.45-0.49 0.44-0.95 0.89-0.25 0.24-0.49 0.48-0.45 0.47-0.87 0.94-0.21 0.22-0.4 0.44-0.59 0.68-1.1 1.37-0.06 0.08-0.11 0.15-0.46 0.63-0.86 1.28-0.16 0.26-0.31 0.52-0.27 0.46-0.51 0.93-0.16 0.3-0.3 0.6-0.2 0.45-0.39 0.9-0.12 0.31-0.24 0.62-0.17 0.48-0.3 0.96-0.09 0.29-0.17 0.58-0.18 0.71-0.3 1.43-0.03 0.18-0.05 0.36-0.1 0.66-0.14 1.33-0.01 0.3-0.01 0.6-0.02 0.52 0 1.06 0.01 0.32 0.04 0.64 0.04 0.53 0.11 1.07 0.03 0.32 0.08 0.63 0.1 0.61 0.24 1.23 0.06 0.25 0.11 0.5 0.45 1.77 1.22 3.63 0.09 0.2 0.18 0.4 0.32 0.74 0.69 1.49 0.12 0.24 0.25 0.49 0.39 0.75 0.83 1.51 0.12 0.21 0.24 0.43 0.54 0.91 1.15 1.83 0.04 0.06 0.08 0.12 2.02 3.02 4.84 6.26 0.82 0.93 1.71 1.88 0.56 0.61 1.15 1.23 1.07 1.11 2.23 2.24 0.53 0.52 1.08 1.04 1.04 0.99 2.15 2 0.53 0.49 1.08 0.98 1.65 1.47 3.45 2.99c32.5 27.33 14.07 55.74-7.84 63.11z"/>
		</clipPath>
		<linearGradient id="g5" x1="72.4" y1="162.8" x2="52.9" y2="173.9" gradientUnits="userSpaceOnUse">
			<stop offset="0" stop-color="#ffffff"/>
			<stop offset="1" stop-color="#000000"/>
		</linearGradient>
		<linearGradient id="g6" x1="39.3" y1="170.2" x2="61.6" y2="172.6" gradientUnits="userSpaceOnUse">
			<stop offset="0" stop-color="#ffffff"/>
			<stop offset="1" stop-color="#000000"/>
		</linearGradient>
		<linearGradient id="g7" x1="244" y1="143.8" x2="282.6" y2="139.2" gradientUnits="userSpaceOnUse">
			<stop offset="0" stop-color="#ffffff"/>
			<stop offset="1" stop-color="#000000"/>
		</linearGradient>
		<linearGradient id="g8" x1="228.8" y1="165.4" x2="265.8" y2="183.1" gradientUnits="userSpaceOnUse">
			<stop offset="0" stop-color="#ffffff"/>
			<stop offset="1" stop-color="#000000"/>
		</linearGradient>
		<linearGradient id="g9" x1="278.4" y1="172.1" x2="248.1" y2="185.8" gradientUnits="userSpaceOnUse">
			<stop offset="0" stop-color="#ffffff"/>
			<stop offset="1" stop-color="#000000"/>
		</linearGradient>
		<linearGradient id="g10" x1="161.1" y1="24.8" x2="204" y2="24.8" gradientUnits="userSpaceOnUse">
			<stop offset="0" stop-color="#ffffff"/>
			<stop offset="1" stop-color="#000000"/>
		</linearGradient>
		<linearGradient id="g11" x1="212.6" y1="124" x2="251.9" y2="124" gradientUnits="userSpaceOnUse">
			<stop offset="0" stop-color="#ffffff"/>
			<stop offset="1" stop-color="#000000"/>
		</linearGradient>
		<linearGradient id="g12" x1="189.3" y1="4.3" x2="202.2" y2="4.3" gradientUnits="userSpaceOnUse">
			<stop offset="0" stop-color="#ffffff"/>
			<stop offset="1" stop-color="#000000"/>
		</linearGradient>
		<linearGradient id="g13" x1="81.9" y1="55.9" x2="92.9" y2="55.9" gradientUnits="userSpaceOnUse">
			<stop offset="0" stop-color="#ffffff"/>
			<stop offset="1" stop-color="#000000"/>
		</linearGradient>
		<linearGradient id="g14" x1="238.2" y1="103.2" x2="249.1" y2="103.2" gradientUnits="userSpaceOnUse">
			<stop offset="0" stop-color="#ffffff"/>
			<stop offset="1" stop-color="#000000"/>
		</linearGradient>
		<linearGradient id="g15" x1="133" y1="63.1" x2="179.8" y2="65.1" gradientUnits="userSpaceOnUse">
			<stop offset="0" stop-color="#ffffff"/>
			<stop offset="1" stop-color="#000000"/>
		</linearGradient>
		<linearGradient id="g16" x1="148.3" y1="167.8" x2="150.7" y2="206.4" gradientUnits="userSpaceOnUse">
			<stop offset="0" stop-color="#ffffff"/>
			<stop offset="1" stop-color="#000000"/>
		</linearGradient>
		<linearGradient id="g17" x1="134.4" y1="43.7" x2="197.5" y2="101.4" gradientUnits="userSpaceOnUse">
			<stop offset="0" stop-color="#ffffff"/>
			<stop offset="1" stop-color="#000000"/>
		</linearGradient>
		<linearGradient id="g18" x1="60.9" y1="81.4" x2="108.5" y2="81.4" gradientUnits="userSpaceOnUse">
			<stop offset="0" stop-color="#ffffff"/>
			<stop offset="1" stop-color="#000000"/>
		</linearGradient>
		<linearGradient id="g19" x1="88.1" y1="143.9" x2="106.4" y2="143.9" gradientUnits="userSpaceOnUse">
			<stop offset="0" stop-color="#ffffff"/>
			<stop offset="1" stop-color="#000000"/>
		</linearGradient>
	</defs>
	<style>
		.s0 { fill: url(#g1) } 
		.s1 { opacity: .5;mix-blend-mode: overlay;fill: url(#g2) } 
		.s2 { opacity: .5;mix-blend-mode: overlay;fill: url(#g3) } 
		.s3 { opacity: .5;mix-blend-mode: overlay;fill: url(#g4) } 
		.s4 { fill: #ffffff } 
		.s5 { fill: #7035bb } 
		.s6 { mix-blend-mode: overlay;fill: url(#g5) } 
		.s7 { mix-blend-mode: overlay;fill: url(#g6) } 
		.s8 { fill: #ff4777 } 
		.s9 { mix-blend-mode: overlay;fill: url(#g7) } 
		.s10 { mix-blend-mode: overlay;fill: url(#g8) } 
		.s11 { mix-blend-mode: overlay;fill: url(#g9) } 
		.s12 { fill: #f3effe } 
		.s13 { fill: #36164d } 
		.s14 { opacity: .5;mix-blend-mode: overlay;fill: url(#g10) } 
		.s15 { opacity: .5;mix-blend-mode: overlay;fill: url(#g11) } 
		.s16 { opacity: .5;mix-blend-mode: overlay;fill: url(#g12) } 
		.s17 { opacity: .5;mix-blend-mode: overlay;fill: url(#g13) } 
		.s18 { opacity: .5;mix-blend-mode: overlay;fill: url(#g14) } 
		.s19 { fill: #37174a } 
		.s20 { opacity: .5;mix-blend-mode: overlay;fill: url(#g15) } 
		.s21 { opacity: .1;fill: #ffffff } 
		.s22 { opacity: .5;mix-blend-mode: overlay;fill: url(#g16) } 
		.s23 { fill: #5322a0 } 
		.s24 { opacity: .1;fill: #000000 } 
		.s25 { opacity: .5;mix-blend-mode: overlay;fill: url(#g17) } 
		.s26 { fill: #fbd783 } 
		.s27 { opacity: .5;mix-blend-mode: overlay;fill: url(#g18) } 
		.s28 { fill: #2a195b } 
		.s29 { opacity: .5;mix-blend-mode: overlay;fill: url(#g19) } 
	</style>
	<g id="Layer 1">
		<g id="&lt;Group&gt;">
			<g id="Search Candidate 3 ">
				<g id="&lt;Group&gt;">
					<g id="&lt;Group&gt;">
						<path id="&lt;Path&gt;" class="s0" d="m237.2 215.3c-21.9 7.4-37.4-18.5-60-12.1-72 20.3-168.9 17-125.3-17.2 5.9-4.5 17.8-11 27.3-19.7 15.9-14.4 24.8-35.1-13.4-63.7q-5.6-4.2-12.6-8.6c-24.8-15.6-14.4-39.2 10-54.5 25.4-15.7 65.9-22.6 97.9-2.2 39.1 24.9 39.1-22.9 64.7-23.1 4 0 7.7 0.6 11.2 1.8 27.2 9 40 50 19.3 70.9-3 3.1-6.8 5.8-11.3 7.8-23.8 10.8-30.4 24.6-13.3 44.6q5.2 6.1 13.3 12.9c32.5 27.3 14.1 55.7-7.8 63.1z"/>
						<path id="&lt;Path&gt;" class="s1" d="m237.2 215.3c-21.9 7.4-37.4-18.5-60-12.1-72 20.3-168.9 17-125.3-17.2 16.6-13 82.3-40.9 1.3-92-24.8-15.6-14.4-39.2 10-54.5 6.7-0.6 13.5-0.6 20.1-0.5 11.7 0.2 23.5 0.8 34.6 4.2 11.5 3.6 21.8 10.1 33.1 14.3 13.9 5.3 29.2 6.9 44 4.7 10.6-1.6 21.1-5.2 29.4-12.1 8.7-7.2 14.7-18.4 13.6-29.9-0.1-1.4-0.6-2.8-1-4.2 31.2 10.3 43.4 62.7 8 78.7-28.6 13-32.4 30.2 0 57.5 32.5 27.3 14.1 55.7-7.8 63.1z"/>
						<path id="&lt;Path&gt;" class="s2" d="m237.2 215.3c-21.9 7.4-37.4-18.5-60-12.1-72 20.3-168.9 17-125.3-17.2 5.9-4.5 17.8-11 27.3-19.7 15.9-14.4 24.8-35.1-13.4-63.7 20.1-6 39.3-14.6 57.1-25.5 11.6-7.1 22.7-15.3 35.7-19.2 15.9-4.8 33.2-2.8 48.8 2.8 15.6 5.6 29.8 14.5 43.5 23.7 1.5 0 3.4 1 5.4 2.5-3 3.1-6.8 5.8-11.3 7.8-23.8 10.8-30.4 24.6-13.3 44.6q5.2 6.1 13.3 12.9c32.5 27.3 14.1 55.7-7.8 63.1z"/>
						<path id="&lt;Path&gt;" class="s3" d="m237.2 215.3c-21.9 7.4-37.4-18.5-60-12.1-72 20.3-168.9 17-125.3-17.2 5.9-4.5 17.8-11 27.3-19.7q3 0.9 5.9 1.9c7.3 2.5 14.4 5.6 21.9 7.1 7.2 1.6 14.6 1.7 22 1.5 22.5-0.6 45.7-4 64.8-16 11.3-7.1 21.1-17.1 34-20.6q1.9-0.6 3.9-0.9 5.2 6.1 13.3 12.9c32.5 27.3 14.1 55.7-7.8 63.1z"/>
					</g>
					<g id="&lt;Clip Group&gt;" clip-path="url(#cp1)">
						<g id="&lt;Group&gt;" style="opacity: .6;mix-blend-mode: overlay">
							<g id="&lt;Group&gt;">
								<g id="&lt;Group&gt;">
									<path id="&lt;Compound Path&gt;" fill-rule="evenodd" class="s4" d="m146.9 126.8l0.7-6.6 0.1-0.1 5.5-7.7-0.7 6.6zm1.1-6.4l-0.5 4.8 4.5-6.3 0.6-4.9z"/>
								</g>
							</g>
							<g id="&lt;Group&gt;">
								<g id="&lt;Group&gt;">
									<path id="&lt;Compound Path&gt;" fill-rule="evenodd" class="s4" d="m146.3 127.3l1.4-7.3 6.1-8.1-1.3 7.3zm1.7-7.1l-1 5.4 5-6.6 0.9-5.4z"/>
								</g>
							</g>
							<g id="&lt;Group&gt;">
								<g id="&lt;Group&gt;">
									<path id="&lt;Compound Path&gt;" fill-rule="evenodd" class="s4" d="m145.8 127.7l1.9-7.9 6.6-8.3-1.9 7.9zm2.3-7.7l-1.4 5.9 5.5-6.9 1.4-5.8z"/>
								</g>
							</g>
							<g id="&lt;Group&gt;">
								<g id="&lt;Group&gt;">
									<path id="&lt;Compound Path&gt;" fill-rule="evenodd" class="s4" d="m145.2 128.2l2.5-8.6 7.2-8.6-2.5 8.5zm2.9-8.2l-1.9 6.4 5.9-7 1.9-6.5z"/>
								</g>
							</g>
							<g id="&lt;Group&gt;">
								<g id="&lt;Group&gt;">
									<path id="&lt;Compound Path&gt;" fill-rule="evenodd" class="s4" d="m144.6 128.6l3.1-9.2 7.9-8.8-3.2 9.1zm3.5-8.9l-2.4 7 6.4-7.2 2.4-7z"/>
								</g>
							</g>
							<g id="&lt;Group&gt;">
								<g id="&lt;Group&gt;">
									<path id="&lt;Compound Path&gt;" fill-rule="evenodd" class="s4" d="m143.9 129l3.9-9.8 8.4-9-3.9 9.7zm4.2-9.5l-2.9 7.6 6.8-7.4 2.9-7.5z"/>
								</g>
							</g>
							<g id="&lt;Group&gt;">
								<g id="&lt;Group&gt;">
									<path id="&lt;Compound Path&gt;" fill-rule="evenodd" class="s4" d="m143.3 129.4l4.6-10.4 8.9-9.2-4.5 10.4zm4.9-10.1l-3.6 8.1 7.3-7.5 3.6-8.1z"/>
								</g>
							</g>
							<g id="&lt;Group&gt;">
								<g id="&lt;Group&gt;">
									<path id="&lt;Compound Path&gt;" fill-rule="evenodd" class="s4" d="m142.6 129.7l5.3-10.9 9.6-9.4-5.3 11zm5.6-10.7l-4.2 8.7 7.8-7.6 4.2-8.7z"/>
								</g>
							</g>
							<g id="&lt;Group&gt;">
								<g id="&lt;Group&gt;">
									<path id="&lt;Compound Path&gt;" fill-rule="evenodd" class="s4" d="m141.9 130.1l6.2-11.6 10.1-9.4-6.1 11.6zm6.4-11.3l-4.9 9.2 8.3-7.6 4.8-9.2z"/>
								</g>
							</g>
							<g id="&lt;Group&gt;">
								<g id="&lt;Group&gt;">
									<path id="&lt;Compound Path&gt;" fill-rule="evenodd" class="s4" d="m141.3 130.4l6.9-12.2 10.7-9.4-7 12.2zm7.3-11.9l-5.6 9.8 8.7-7.6 5.6-9.9z"/>
								</g>
							</g>
							<g id="&lt;Group&gt;">
								<g id="&lt;Group&gt;">
									<path id="&lt;Compound Path&gt;" fill-rule="evenodd" class="s4" d="m140.6 130.6l7.7-12.7 11.2-9.4-7.7 12.8zm8-12.4l-6.3 10.4 9.2-7.7 6.3-10.4z"/>
								</g>
							</g>
							<g id="&lt;Group&gt;">
								<g id="&lt;Group&gt;">
									<path id="&lt;Compound Path&gt;" fill-rule="evenodd" class="s4" d="m139.9 130.9l8.6-13.3 11.7-9.3-8.6 13.3zm8.9-13l-7.1 11 9.7-7.6 7.1-11z"/>
								</g>
							</g>
							<g id="&lt;Group&gt;">
								<g id="&lt;Group&gt;">
									<path id="&lt;Compound Path&gt;" fill-rule="evenodd" class="s4" d="m139.2 131l9.5-13.8 12.2-9-9.5 13.7zm9.8-13.4l-7.9 11.5 10.1-7.5 7.9-11.5z"/>
								</g>
							</g>
							<g id="&lt;Group&gt;">
								<g id="&lt;Group&gt;">
									<path id="&lt;Compound Path&gt;" fill-rule="evenodd" class="s4" d="m138.5 131.1l10.4-14.2 12.7-8.9-10.4 14.3zm10.7-13.9l-8.8 12 10.5-7.3 8.8-12.1z"/>
								</g>
							</g>
							<g id="&lt;Group&gt;">
								<g id="&lt;Group&gt;">
									<path id="&lt;Compound Path&gt;" fill-rule="evenodd" class="s4" d="m137.8 131.2l11.4-14.7 13.1-8.5-11.3 14.7zm11.5-14.4l-9.6 12.6 10.9-7.1 9.7-12.7z"/>
								</g>
							</g>
							<g id="&lt;Group&gt;">
								<g id="&lt;Group&gt;">
									<path id="&lt;Compound Path&gt;" fill-rule="evenodd" class="s4" d="m137.2 131.2l12.2-15.1 13.5-8.2-12.2 15.1zm12.5-14.7l-10.6 13.1 11.3-6.9 10.6-13.1z"/>
								</g>
							</g>
							<g id="&lt;Group&gt;">
								<g id="&lt;Group&gt;">
									<path id="&lt;Compound Path&gt;" fill-rule="evenodd" class="s4" d="m136.5 131.2l13.2-15.5 13.9-7.7-13.2 15.4zm13.4-15l-11.5 13.5 11.7-6.5 11.5-13.6z"/>
								</g>
							</g>
							<g id="&lt;Group&gt;">
								<g id="&lt;Group&gt;">
									<path id="&lt;Compound Path&gt;" fill-rule="evenodd" class="s4" d="m135.9 131.1l14.2-15.8 14.1-7.2-14.1 15.8zm14.3-15.4l-12.5 13.9 12.1-6.1 12.5-13.9z"/>
								</g>
							</g>
							<g id="&lt;Group&gt;">
								<g id="&lt;Group&gt;">
									<path id="&lt;Compound Path&gt;" fill-rule="evenodd" class="s4" d="m135.3 130.9l15.1-16 14.4-6.6-15.1 16zm15.3-15.6l-13.5 14.3 12.4-5.7 13.4-14.3z"/>
								</g>
							</g>
							<g id="&lt;Group&gt;">
								<g id="&lt;Group&gt;">
									<path id="&lt;Compound Path&gt;" fill-rule="evenodd" class="s4" d="m134.8 130.6l16-16.2 14.6-5.8-16.1 16.1zm16.3-15.7l-14.5 14.6 12.6-5.1 14.4-14.6z"/>
								</g>
							</g>
							<g id="&lt;Group&gt;">
								<g id="&lt;Group&gt;">
									<path id="&lt;Compound Path&gt;" fill-rule="evenodd" class="s4" d="m134.2 130.3l17-16.3 14.7-5.1-17 16.3zm17.2-15.9l-15.5 14.8 12.8-4.4 15.4-14.8z"/>
								</g>
							</g>
							<g id="&lt;Group&gt;">
								<g id="&lt;Group&gt;">
									<path id="&lt;Compound Path&gt;" fill-rule="evenodd" class="s4" d="m133.8 129.8l17.9-16.3 14.7-4.2-17.9 16.4zm18-16l-16.4 15 12.9-3.6 16.4-15z"/>
								</g>
							</g>
							<g id="&lt;Group&gt;">
								<g id="&lt;Group&gt;">
									<path id="&lt;Compound Path&gt;" fill-rule="evenodd" class="s4" d="m133.3 129.3l18.8-16.3 14.7-3.1-18.8 16.2zm18.9-15.8l-17.4 15 13-2.8 17.4-15z"/>
								</g>
							</g>
							<g id="&lt;Group&gt;">
								<g id="&lt;Group&gt;">
									<path id="&lt;Compound Path&gt;" fill-rule="evenodd" class="s4" d="m132.9 128.7l19.7-16.1 14.6-2.1-19.7 16.1zm19.8-15.7l-18.3 15 12.9-1.8 18.3-15.1z"/>
								</g>
							</g>
							<g id="&lt;Group&gt;">
								<g id="&lt;Group&gt;">
									<path id="&lt;Compound Path&gt;" fill-rule="evenodd" class="s4" d="m132.6 128l0.6-0.4 19.9-15.5 14.4-0.9-0.6 0.4-19.9 15.5zm20.7-15.5l-19.3 14.9 12.8-0.8 19.3-14.9z"/>
								</g>
							</g>
							<g id="&lt;Group&gt;">
								<g id="&lt;Group&gt;">
									<path id="&lt;Compound Path&gt;" fill-rule="evenodd" class="s4" d="m146.4 127.6l-14-0.4 0.5-0.4 20.8-15.2 14.1 0.4-0.6 0.4zm-12.8-0.8l12.7 0.3 20.2-14.7-12.7-0.3z"/>
								</g>
							</g>
							<g id="&lt;Group&gt;">
								<g id="&lt;Group&gt;">
									<path id="&lt;Compound Path&gt;" fill-rule="evenodd" class="s4" d="m145.9 128h-0.1l-13.6-1.7 22.1-15.2v0.1l13.6 1.7zm-12.5-2l12.4 1.6 21-14.4-12.3-1.6z"/>
								</g>
							</g>
							<g id="&lt;Group&gt;">
								<g id="&lt;Group&gt;">
									<path id="&lt;Compound Path&gt;" fill-rule="evenodd" class="s4" d="m145.2 128.5l-13.1-3.3 22.8-14.5 13.1 3.2zm-12-3.4l12 3 21.8-14-12-2.9z"/>
								</g>
							</g>
							<g id="&lt;Group&gt;">
								<g id="&lt;Group&gt;">
									<path id="&lt;Compound Path&gt;" fill-rule="evenodd" class="s4" d="m144.6 129l-12.6-4.9 0.4-0.2 23.1-13.7 12.6 4.9zm-11.6-5l11.5 4.5 22.6-13.3-11.5-4.5z"/>
								</g>
							</g>
							<g id="&lt;Group&gt;">
								<g id="&lt;Group&gt;">
									<path id="&lt;Compound Path&gt;" fill-rule="evenodd" class="s4" d="m143.9 129.4h-0.1l-11.7-6.6 24.1-13h0.1l11.7 6.5zm-10.9-6.5l10.9 6 23.2-12.5-10.9-6.1z"/>
								</g>
							</g>
							<g id="&lt;Group&gt;">
								<g id="&lt;Group&gt;">
									<path id="&lt;Compound Path&gt;" fill-rule="evenodd" class="s4" d="m143.2 129.9l-10.9-8.4 24.6-12.2 10.9 8.4zm-10.1-8.3l10.2 7.8 23.7-11.7-10.1-7.8z"/>
								</g>
							</g>
							<g id="&lt;Group&gt;">
								<g id="&lt;Group&gt;">
									<path id="&lt;Compound Path&gt;" fill-rule="evenodd" class="s4" d="m142.5 130.3l-0.1-0.1-9.8-10.3 0.3-0.1 24.7-10.9 0.1 0.1 9.8 10.2-0.2 0.2zm-9.2-10.2l9.3 9.6 24.2-10.6-9.3-9.7z"/>
								</g>
							</g>
							<g id="&lt;Group&gt;">
								<g id="&lt;Group&gt;">
									<path id="&lt;Compound Path&gt;" fill-rule="evenodd" class="s4" d="m141.7 130.7l-0.1-0.2-8.6-12.2 25.4-9.8 0.1 0.1 8.7 12.3zm-8.1-12.2l8.2 11.6 24.6-9.4-8.3-11.7z"/>
								</g>
							</g>
							<g id="&lt;Group&gt;">
								<g id="&lt;Group&gt;">
									<path id="&lt;Compound Path&gt;" fill-rule="evenodd" class="s4" d="m141 131l-7.5-14.5h0.2l25.4-8.4 7.5 14.5-0.2 0.1zm-6.9-14.2l7.1 13.7 24.8-8.1-7.1-13.7z"/>
								</g>
							</g>
							<g id="&lt;Group&gt;">
								<g id="&lt;Group&gt;">
									<path id="&lt;Compound Path&gt;" fill-rule="evenodd" class="s4" d="m140.2 131.4l-6.1-16.8h0.3l25.5-6.8 6.1 16.7-0.3 0.1zm-5.4-16.4l5.7 15.9 25-6.6-5.8-15.9z"/>
								</g>
							</g>
							<g id="&lt;Group&gt;">
								<g id="&lt;Group&gt;">
									<path id="&lt;Compound Path&gt;" fill-rule="evenodd" class="s4" d="m139.4 131.6v-0.2l-4.5-18.8 25.8-5.1v0.2l4.5 18.9zm-4-18.7l4.3 18.2 24.9-4.9-4.3-18.2z"/>
								</g>
							</g>
							<g id="&lt;Group&gt;">
								<g id="&lt;Group&gt;">
									<path id="&lt;Compound Path&gt;" fill-rule="evenodd" class="s4" d="m138.6 131.9l-2.7-21.5 25.6-3.1 2.7 21.5zm-2.2-21.1l2.6 20.6 24.7-3-2.6-20.6z"/>
								</g>
							</g>
							<g id="&lt;Group&gt;">
								<g id="&lt;Group&gt;">
									<path id="&lt;Compound Path&gt;" fill-rule="evenodd" class="s4" d="m137.8 132.1v-0.3l-0.8-23.7h0.2l25.1-1v0.2l0.8 23.8h-0.2zm-0.4-23.6l0.8 23.2 24.4-0.9-0.8-23.2z"/>
								</g>
							</g>
							<g id="&lt;Group&gt;">
								<g id="&lt;Group&gt;">
									<path id="&lt;Compound Path&gt;" fill-rule="evenodd" class="s4" d="m161.8 133.6h-0.2l-24.5-1.4v-0.2l1.2-26.4h0.2l24.6 1.4v0.2zm-24.4-1.8l23.9 1.4 1.2-25.8-23.9-1.3z"/>
								</g>
							</g>
							<g id="&lt;Group&gt;">
								<g id="&lt;Group&gt;">
									<path id="&lt;Compound Path&gt;" fill-rule="evenodd" class="s4" d="m160.4 136.2l-24.1-4v-0.2l3.5-29 24 3.9v0.2zm-23.6-4.3l23.2 3.8 3.4-28.4-23.2-3.8z"/>
								</g>
							</g>
							<g id="&lt;Group&gt;">
								<g id="&lt;Group&gt;">
									<path id="&lt;Compound Path&gt;" fill-rule="evenodd" class="s4" d="m158.7 138.9h-0.2l-23-6.7 5.9-32 0.2 0.1 23 6.6zm-22.7-7l22.4 6.5 5.7-31.2-22.4-6.4z"/>
								</g>
							</g>
							<g id="&lt;Group&gt;">
								<g id="&lt;Group&gt;">
									<path id="&lt;Compound Path&gt;" fill-rule="evenodd" class="s4" d="m156.9 141.8l-22.1-9.6v-0.2l8.5-34.6 22 9.6v0.2zm-21.6-9.9l21.3 9.3 8.3-34-21.3-9.3z"/>
								</g>
							</g>
							<g id="&lt;Group&gt;">
								<g id="&lt;Group&gt;">
									<path id="&lt;Compound Path&gt;" fill-rule="evenodd" class="s4" d="m154.8 144.8l-20.7-12.8 11.2-37.7 20.8 12.9zm-20.3-13.1l20 12.4 11-36.8-20-12.4z"/>
								</g>
							</g>
							<g id="&lt;Group&gt;">
								<g id="&lt;Group&gt;">
									<path id="&lt;Compound Path&gt;" fill-rule="evenodd" class="s4" d="m152.5 148l-0.2-0.2-18.9-16 14.2-40.6 0.2 0.2 18.9 16zm-18.6-16.4l18.4 15.7 13.9-39.8-18.4-15.6z"/>
								</g>
							</g>
							<g id="&lt;Group&gt;">
								<g id="&lt;Group&gt;">
									<path id="&lt;Compound Path&gt;" fill-rule="evenodd" class="s4" d="m150.1 151.3l-17.4-19.8 17.4-43.6 17.3 19.8zm-16.8-19.9l16.7 19.1 16.9-42.7-16.7-19z"/>
								</g>
							</g>
							<g id="&lt;Group&gt;">
								<g id="&lt;Group&gt;">
									<path id="&lt;Compound Path&gt;" fill-rule="evenodd" class="s4" d="m147.3 154.6l-0.2-0.3-15-23.2 0.1-0.1 20.6-46.5 0.2 0.4 15 23.2v0.1zm-14.8-23.6l14.7 22.7 20.2-45.6-14.6-22.7z"/>
								</g>
							</g>
							<g id="&lt;Group&gt;">
								<g id="&lt;Group&gt;">
									<path id="&lt;Compound Path&gt;" fill-rule="evenodd" class="s4" d="m144.4 158.1l-0.2-0.4-12.6-27.1v-0.1l24.1-49.4 0.2 0.4 12.7 27.1-0.1 0.1zm-12.4-27.5l12.4 26.5 23.7-48.5-12.4-26.5z"/>
								</g>
							</g>
							<g id="&lt;Group&gt;">
								<g id="&lt;Group&gt;">
									<path id="&lt;Compound Path&gt;" fill-rule="evenodd" class="s4" d="m141.2 161.7l-10.1-31.8 27.8-52.4 10.2 31.7-0.1 0.1zm-9.7-31.7l9.8 30.6 27.3-51.4-9.8-30.6z"/>
								</g>
							</g>
							<g id="&lt;Group&gt;">
								<g id="&lt;Group&gt;">
									<path id="&lt;Compound Path&gt;" fill-rule="evenodd" class="s4" d="m137.8 165.3l-0.1-0.5-7.1-35.6v-0.1l31.7-55.3 0.1 0.6 7.1 35.6zm-6.8-36l7 34.8 31-54.2-7-34.8z"/>
								</g>
							</g>
							<g id="&lt;Group&gt;">
								<g id="&lt;Group&gt;">
									<path id="&lt;Compound Path&gt;" fill-rule="evenodd" class="s4" d="m134.2 169l-4-40.6 0.1-0.1 35.6-58.2 4 40.7-0.1 0.1zm-3.5-40.6l3.9 39.2 34.9-57-3.9-39.2z"/>
								</g>
							</g>
							<g id="&lt;Group&gt;">
								<g id="&lt;Group&gt;">
									<path id="&lt;Compound Path&gt;" fill-rule="evenodd" class="s4" d="m130.3 172.8l-0.4-45.4h0.1l39.8-61 0.4 45.4h-0.1zm0.1-45.2l0.4 43.8 38.9-59.7-0.4-43.9z"/>
								</g>
							</g>
							<g id="&lt;Group&gt;">
								<g id="&lt;Group&gt;">
									<path id="&lt;Compound Path&gt;" fill-rule="evenodd" class="s4" d="m126.3 176.6l3.4-50.3h0.1l44.1-63.7-3.5 50.3zm3.9-50.1l-3.4 48.6 43.2-62.4 3.3-48.5z"/>
								</g>
							</g>
							<g id="&lt;Group&gt;">
								<g id="&lt;Group&gt;">
									<path id="&lt;Compound Path&gt;" fill-rule="evenodd" class="s4" d="m121.9 180.4l7.8-55.4 48.5-66.2-7.7 55.3zm8.1-55.1l-7.5 53.5 47.5-64.8 7.5-53.5z"/>
								</g>
							</g>
							<g id="&lt;Group&gt;">
								<g id="&lt;Group&gt;">
									<path id="&lt;Compound Path&gt;" fill-rule="evenodd" class="s4" d="m117.4 184.1l12.3-60.4 53-68.6-12.2 60.4zm12.6-60.2l-11.8 58.5 51.9-67.2 11.8-58.4z"/>
								</g>
							</g>
							<g id="&lt;Group&gt;">
								<g id="&lt;Group&gt;">
									<path id="&lt;Compound Path&gt;" fill-rule="evenodd" class="s4" d="m112.6 187.8l0.3-0.9 16.9-64.7 57.7-70.9-0.3 1-16.9 64.7zm17.6-65.4l-16.6 63.6 56.4-69.3 16.6-63.6z"/>
								</g>
							</g>
							<g id="&lt;Group&gt;">
								<g id="&lt;Group&gt;">
									<path id="&lt;Compound Path&gt;" fill-rule="evenodd" class="s4" d="m107.7 191.5l0.3-1 22-70 62.5-72.8-0.4 1-22 70zm22.7-70.8l-21.6 68.9 61-71.2 21.6-68.9z"/>
								</g>
							</g>
							<g id="&lt;Group&gt;">
								<g id="&lt;Group&gt;">
									<path id="&lt;Compound Path&gt;" fill-rule="evenodd" class="s4" d="m102.5 195.1l27.9-76.4 67.2-74.6-27.9 76.4zm28.3-76.1l-27.1 74.1 65.7-72.9 27.1-74.1z"/>
								</g>
							</g>
							<g id="&lt;Group&gt;">
								<g id="&lt;Group&gt;">
									<path id="&lt;Compound Path&gt;" fill-rule="evenodd" class="s4" d="m97.2 198.5l0.4-1.1 33.3-80.7 72-76-0.4 1-33.3 80.7zm34.1-81.5l-32.8 79.6 70.4-74.4 32.8-79.5z"/>
								</g>
							</g>
							<g id="&lt;Group&gt;">
								<g id="&lt;Group&gt;">
									<path id="&lt;Compound Path&gt;" fill-rule="evenodd" class="s4" d="m91.7 201.8l0.5-1.1 39.4-86.1 76.8-77.2-0.5 1.1-39.4 86.1zm40.3-86.9l-38.9 84.9 75.2-75.5 38.8-84.9z"/>
								</g>
							</g>
							<g id="&lt;Group&gt;">
								<g id="&lt;Group&gt;">
									<path id="&lt;Compound Path&gt;" fill-rule="evenodd" class="s4" d="m86 204.9l0.6-1.1 45.8-91.5 81.7-78-0.6 1.1-45.8 91.5zm46.7-92.3l-45.2 90.2 79.8-76.3 45.3-90.2z"/>
								</g>
							</g>
							<g id="&lt;Group&gt;">
								<g id="&lt;Group&gt;">
									<path id="&lt;Compound Path&gt;" fill-rule="evenodd" class="s4" d="m80.2 207.8l0.6-1.1 52.7-96.8 86.4-78.5-53.2 97.9zm53.5-97.6l-51.9 95.6 84.5-76.7 51.9-95.7z"/>
								</g>
							</g>
							<g id="&lt;Group&gt;">
								<g id="&lt;Group&gt;">
									<path id="&lt;Compound Path&gt;" fill-rule="evenodd" class="s4" d="m74.3 210.4l0.7-1.1 59.7-102.1 91.1-78.5-0.7 1.2-59.6 102zm60.6-102.8l-59 100.8 89.2-76.8 58.9-100.8z"/>
								</g>
							</g>
							<g id="&lt;Group&gt;">
								<g id="&lt;Group&gt;">
									<path id="&lt;Compound Path&gt;" fill-rule="evenodd" class="s4" d="m68.4 212.8l0.7-1.1 67-107.2 95.6-78.1-0.6 1.1-67 107.2zm67.9-108l-66.2 106 93.6-76.3 66.3-106.1z"/>
								</g>
							</g>
							<g id="&lt;Group&gt;">
								<g id="&lt;Group&gt;">
									<path id="&lt;Compound Path&gt;" fill-rule="evenodd" class="s4" d="m62.3 214.8l0.8-1.1 74.6-112.2 100.1-77.1-0.7 1.1-74.7 112.2zm75.7-113l-73.8 111 98-75.5 73.8-111z"/>
								</g>
							</g>
							<g id="&lt;Group&gt;">
								<g id="&lt;Group&gt;">
									<path id="&lt;Compound Path&gt;" fill-rule="evenodd" class="s4" d="m56.3 216.4l0.7-1 82.5-117 104.3-75.7-0.7 1.1-82.5 117zm83.5-117.7l-81.6 115.8 102.2-74.1 81.6-115.8z"/>
								</g>
							</g>
							<g id="&lt;Group&gt;">
								<g id="&lt;Group&gt;">
									<path id="&lt;Compound Path&gt;" fill-rule="evenodd" class="s4" d="m50.2 217.7l91.3-122.5 108.4-73.7-91.3 122.5zm91.6-122.1l-89.7 120.3 106.2-72.1 89.7-120.4z"/>
								</g>
							</g>
							<g id="&lt;Group&gt;">
								<g id="&lt;Group&gt;">
									<path id="&lt;Compound Path&gt;" fill-rule="evenodd" class="s4" d="m44.2 218.4l0.8-1 98.8-125.7 112.1-71-0.8 1-98.8 125.7zm99.9-126.3l-98 124.6 109.9-69.6 98-124.7z"/>
								</g>
							</g>
							<g id="&lt;Group&gt;">
								<g id="&lt;Group&gt;">
									<path id="&lt;Compound Path&gt;" fill-rule="evenodd" class="s4" d="m38.3 218.7l0.8-0.9 107.2-129.6 115.5-67.7-0.7 0.9-107.3 129.6zm108.3-130.2l-106.4 128.6 113.3-66.5 106.4-128.6z"/>
								</g>
							</g>
							<g id="&lt;Group&gt;">
								<g id="&lt;Group&gt;">
									<path id="&lt;Compound Path&gt;" fill-rule="evenodd" class="s4" d="m32.5 218.5l116.6-134 118.6-63.8-0.8 0.9-115.9 133.1zm116.9-133.6l-115 132.1 116.4-62.7 115-132.1z"/>
								</g>
							</g>
							<g id="&lt;Group&gt;">
								<g id="&lt;Group&gt;">
									<path id="&lt;Compound Path&gt;" fill-rule="evenodd" class="s4" d="m26.8 217.6l0.8-0.8 124.5-136.1 121.2-59.1-0.8 0.8-124.5 136.1zm125.5-136.6l-123.6 135.2 119.1-58.1 123.7-135.1z"/>
								</g>
							</g>
							<g id="&lt;Group&gt;">
								<g id="&lt;Group&gt;">
									<path id="&lt;Compound Path&gt;" fill-rule="evenodd" class="s4" d="m21.4 216.1l0.7-0.8 133.2-138.5 0.1-0.1 123.4-53.6-0.8 0.7-133.2 138.6h-0.1zm134.3-139l-132.4 137.8 121.3-52.8 132.4-137.7z"/>
								</g>
							</g>
							<g id="&lt;Group&gt;">
								<g id="&lt;Group&gt;">
									<path id="&lt;Compound Path&gt;" fill-rule="evenodd" class="s4" d="m16.2 213.9l142.7-141.2 125.1-47.5-0.8 0.8-141.9 140.4-0.1 0.1zm143-140.9l-141.2 139.7 123.1-46.7 141.1-139.7z"/>
								</g>
							</g>
							<g id="&lt;Group&gt;">
								<g id="&lt;Group&gt;">
									<path id="&lt;Compound Path&gt;" fill-rule="evenodd" class="s4" d="m11.3 211l0.7-0.6 150.7-141.8 126.1-40.4-0.7 0.6-150.6 141.8h-0.1zm151.6-142l-149.9 141 124.3-39.8 149.9-141.1z"/>
								</g>
							</g>
							<g id="&lt;Group&gt;">
								<g id="&lt;Group&gt;">
									<path id="&lt;Compound Path&gt;" fill-rule="evenodd" class="s4" d="m6.8 207.3l0.6-0.6 159.3-142.3h0.1l126.6-32.6-0.7 0.6-159.3 142.4zm160.1-142.6l-158.5 141.7 124.8-32 158.5-141.7z"/>
								</g>
							</g>
							<g id="&lt;Group&gt;">
								<g id="&lt;Group&gt;">
									<path id="&lt;Compound Path&gt;" fill-rule="evenodd" class="s4" d="m2.7 202.8l0.6-0.5 167.7-142.2h0.1l126.4-23.7-0.7 0.5-167.7 142.1-0.1 0.1zm168.6-142.3l-167 141.5 124.7-23.4 167-141.6z"/>
								</g>
							</g>
							<g id="&lt;Group&gt;">
								<g id="&lt;Group&gt;">
									<path id="&lt;Compound Path&gt;" fill-rule="evenodd" class="s4" d="m-1 197.4l0.6-0.4 176-141.2h0.1l125.4-14-0.6 0.4-176 141.1-0.1 0.1zm176.8-141.2l-175.3 140.6 123.8-13.9 175.3-140.6z"/>
								</g>
							</g>
							<g id="&lt;Group&gt;">
								<g id="&lt;Group&gt;">
									<path id="&lt;Compound Path&gt;" fill-rule="evenodd" class="s4" d="m-4 191.1l0.5-0.4 184-139.2 123.7-3.4-0.6 0.4-184 139.2zm184.7-139.2l-183.4 138.7 122.2-3.4 183.3-138.7z"/>
								</g>
							</g>
							<g id="&lt;Group&gt;">
								<g id="&lt;Group&gt;">
									<path id="&lt;Compound Path&gt;" fill-rule="evenodd" class="s4" d="m114.5 192l-121-8.2 192.1-136.6h0.1l120.9 8.1zm-119.8-8.5l119.7 8.1 191-135.8-119.7-8.1z"/>
								</g>
							</g>
							<g id="&lt;Group&gt;">
								<g id="&lt;Group&gt;">
									<path id="&lt;Compound Path&gt;" fill-rule="evenodd" class="s4" d="m109.2 196.3l-0.1-0.1-117.4-20.7 0.4-0.3 198.8-132.3h0.1l117.4 20.7-0.4 0.3zm-116.4-20.9l116.3 20.5 198.2-131.9-116.3-20.5z"/>
								</g>
							</g>
							<g id="&lt;Group&gt;">
								<g id="&lt;Group&gt;">
									<path id="&lt;Compound Path&gt;" fill-rule="evenodd" class="s4" d="m103.6 200.5l-0.1-0.1-112.9-34.2 0.5-0.3 205.4-127.2h0.1l112.9 34.3-0.4 0.2zm-111.9-34.4l111.8 34 204.9-126.9-111.8-34z"/>
								</g>
							</g>
							<g id="&lt;Group&gt;">
								<g id="&lt;Group&gt;">
									<path id="&lt;Compound Path&gt;" fill-rule="evenodd" class="s4" d="m97.7 204.6h-0.1l-107.2-48.8 0.4-0.3 211.6-120.9h0.1l107.2 48.8-0.4 0.2zm-106.3-48.9l106.3 48.4 211-120.6-106.3-48.4z"/>
								</g>
							</g>
							<g id="&lt;Group&gt;">
								<g id="&lt;Group&gt;">
									<path id="&lt;Compound Path&gt;" fill-rule="evenodd" class="s4" d="m91.7 208.6l-0.1-0.1-100.5-64.3 0.3-0.2 217-113.4h0.1l100.5 64.4-0.3 0.2zm-99.7-64.4l99.7 63.9 216.5-113.2-99.8-63.9z"/>
								</g>
							</g>
							<g id="&lt;Group&gt;">
								<g id="&lt;Group&gt;">
									<path id="&lt;Compound Path&gt;" fill-rule="evenodd" class="s4" d="m85.4 212.5l-0.1-0.1-92.6-81 0.3-0.1 221.7-104.6 0.1 0.1 92.6 80.9-0.3 0.2zm-91.9-80.9l92 80.4 221.1-104.4-92-80.4z"/>
								</g>
							</g>
							<g id="&lt;Group&gt;">
								<g id="&lt;Group&gt;">
									<path id="&lt;Compound Path&gt;" fill-rule="evenodd" class="s4" d="m79 216.1l-0.1-0.1-83.5-98.5 0.3-0.1 225.4-94.3 0.1 0.1 83.5 98.5-0.3 0.1zm-82.8-98.5l83 98 224.9-94.1-83-98z"/>
								</g>
							</g>
							<g id="&lt;Group&gt;">
								<g id="&lt;Group&gt;">
									<path id="&lt;Compound Path&gt;" fill-rule="evenodd" class="s4" d="m72.4 219.5l-0.1-0.1-73.1-117 0.3-0.1 228.2-82.7 0.1 0.2 73.1 117-0.2 0.1zm-72.6-116.9l72.8 116.4 227.7-82.4-72.7-116.5z"/>
								</g>
							</g>
							<g id="&lt;Group&gt;">
								<g id="&lt;Group&gt;">
									<path id="&lt;Compound Path&gt;" fill-rule="evenodd" class="s4" d="m65.6 222.7v-0.2l-61.4-136.6h0.2l230.1-69.4 61.4 136.7-0.2 0.1zm-60.9-136.5l61.1 136 229.5-69.2-61.1-136z"/>
								</g>
							</g>
							<g id="&lt;Group&gt;">
								<g id="&lt;Group&gt;">
									<path id="&lt;Compound Path&gt;" fill-rule="evenodd" class="s4" d="m58.8 225.5l-0.1-0.2-48.2-157 230.8-54.6 0.1 0.2 48.2 157zm-47.7-156.9l48 156.4 230-54.4-48-156.4z"/>
								</g>
							</g>
							<g id="&lt;Group&gt;">
								<g id="&lt;Group&gt;">
									<path id="&lt;Compound Path&gt;" fill-rule="evenodd" class="s4" d="m51.8 228v-0.2l-33.7-178.5h0.3l229.9-38.1v0.2l33.7 178.5h-0.2zm-33.2-178.3l33.5 177.8 229.3-37.9-33.5-177.9z"/>
								</g>
							</g>
							<g id="&lt;Group&gt;">
								<g id="&lt;Group&gt;">
									<path id="&lt;Compound Path&gt;" fill-rule="evenodd" class="s4" d="m44.8 230.1v-0.3l-17.6-200.8h0.3l227.8-19.9v0.2l17.6 200.8h-0.2zm-17.2-200.6l17.6 200.2 227.1-19.9-17.5-200.1z"/>
								</g>
							</g>
							<g id="&lt;Group&gt;">
								<g id="&lt;Group&gt;">
									<path id="&lt;Compound Path&gt;" fill-rule="evenodd" class="s4" d="m37.8 7.5h224.5v224.2h-224.5zm0.5 223.7h223.5v-223.3h-223.5z"/>
								</g>
							</g>
						</g>
					</g>
					<g id="&lt;Group&gt;">
						<g id="&lt;Group&gt;">
							<g id="&lt;Group&gt;">
								<path id="&lt;Path&gt;" class="s5" d="m60 184.5c0.2-2.5 1.2-10.1 5.2-12.6q4.8-3.1 11.1-2.7-0.3 0.5-0.8 1.4c-1.2 2-3.5 5.7-5.2 6.4-0.8 0.3-1.9 0.9-3.2 1.8-1.9 1.2-4.1 2.8-5.5 4.3-0.9 0.8-1.6 1.6-1.7 2.2q0-0.3 0.1-0.8z"/>
								<path id="&lt;Path&gt;" class="s4" d="m59.6 185.1q0.2-0.3 0.4-0.6 0.8-1.5 1.7-2.8 1.2-1.7 2.4-3.3c0.9-1.1 1.7-2.2 2.7-3.1q0.7-0.6 1.4-1.2 0.9-0.7 1.9-1.3 0.1 0 0.1 0.1 0.1 0.1 0 0.1c-0.9 0.5-1.6 1.1-2.3 1.8q-0.4 0.4-0.8 0.7c-1 1-1.8 2.1-2.6 3.1q-1.2 1.7-2.3 3.4-0.3 0.5-0.6 1.1-0.7 1.1-1.4 2.4 0 0 0 0c-0.1 0.1-0.3 0.2-0.5 0.1-0.1-0.1-0.2-0.3-0.1-0.5z"/>
							</g>
							<path id="&lt;Path&gt;" class="s6" d="m59.6 185.1q0.2-0.3 0.4-0.6c0.2-2.5 1.2-10.1 5.2-12.6q4.8-3.1 11.1-2.7-0.3 0.5-0.8 1.4c-1.4-0.2-2.8 0.3-4.1 0.9-1.3 0.6-2.5 1.4-3.2 2.6q0 0-0.1 0.1-0.1 0.3-0.2 0.6c-0.4 1-0.5 2.2-0.7 3.4q0 0.3-0.1 0.6c-1.9 1.2-4.1 2.8-5.5 4.3q-0.7 1.1-1.4 2.4 0 0 0 0c-0.1 0.1-0.3 0.2-0.5 0.1-0.1-0.1-0.2-0.3-0.1-0.5z"/>
						</g>
						<g id="&lt;Group&gt;">
							<g id="&lt;Group&gt;">
								<path id="&lt;Path&gt;" class="s5" d="m59.8 185.2c-0.3-0.4-1.2-0.9-2.4-1.4-1.9-0.7-4.5-1.3-6.7-1.7-1.5-0.2-2.9-0.4-3.6-0.4-1.9 0.1-5.5-2.4-7.4-3.7q-0.8-0.6-1.2-1 5.5-2.9 11.1-1.9c4.7 0.7 8.7 7.2 9.9 9.4q0.2 0.5 0.3 0.7z"/>
								<path id="&lt;Path&gt;" class="s4" d="m60.1 185.4c-0.1 0.2-0.3 0.2-0.5 0.1q0 0 0 0-1-0.9-2.2-1.7-0.5-0.3-1-0.7-1.7-1.1-3.4-2.1c-1.2-0.7-2.4-1.3-3.6-1.8q-0.5-0.2-1-0.4c-0.9-0.4-1.9-0.6-2.8-0.7q-0.1 0-0.1-0.1 0-0.1 0.1-0.2 1.1 0.2 2.2 0.5 0.9 0.2 1.7 0.5c1.3 0.5 2.5 1.1 3.7 1.8q1.8 0.9 3.5 2 1.4 0.9 2.8 1.9 0.3 0.2 0.6 0.5c0.1 0.1 0.1 0.3 0 0.4z"/>
							</g>
							<path id="&lt;Path&gt;" class="s7" d="m60.1 185.4c-0.1 0.2-0.3 0.2-0.5 0.1q0 0 0 0-1-0.9-2.2-1.7c-1.9-0.7-4.5-1.3-6.7-1.7q-0.2-0.2-0.4-0.5c-0.6-0.9-1.1-2-1.9-2.8q-0.2-0.3-0.5-0.5 0 0-0.1 0c-1.1-0.8-2.6-1.1-3.9-1.1-1.5-0.1-3 0-4.2 0.8q-0.8-0.6-1.2-1 5.5-2.9 11.1-1.9c4.7 0.7 8.7 7.2 9.9 9.4q0.3 0.2 0.6 0.5c0.1 0.1 0.1 0.3 0 0.4z"/>
						</g>
						<path id="&lt;Path&gt;" class="s8" d="m58.6 162.5c1.3 1.1 1.6 2.8 1.7 4 0.5-1.6 1.3-3.1 2.2-4.5-2.8-2.6-6.3-1.2-7.5-3.3-0.7-1.3 3.2-4.7 6.1-1.9 1.4 1.4 1.8 3.4 1.8 4.6q1.1-1.7 2.5-3.4c-2-2.7-5.2-2.1-5.9-4.2-0.4-1.2 3.6-3.4 5.6-0.4 0.9 1.3 0.9 2.9 0.7 4q1-1.3 2-2.6c0-3.2-2.6-5-1.7-7.1 0.6-1.2 5.4 0 4.9 3.8-0.3 1.9-1.6 3.2-2.5 4q-1 1.3-1.9 2.5c0.7-0.5 1.5-0.9 2.4-0.9 3.5-0.4 4.4 4.1 3.2 4.6-2 0.8-3.6-2.1-7-1.9-0.9 1.3-1.8 2.5-2.5 3.6 1-0.7 2.8-1.8 4.8-1.6 4 0.4 4 5.5 2.6 5.8-2.5 0.5-3.7-3.2-7.7-3.6-0.9 1.8-1.5 3.5-1.6 5.4 0.6-0.8 2-2.5 4.1-2.9 3.8-0.6 5 4.1 3.8 4.7-2.2 1.1-4.2-2-7.9-1.4q0 1.1 0.2 2.3 0.4 2.1 0.4 4c0.6-0.8 1.6-1.8 3-2.2 3.1-0.7 4.4 3.2 3.4 3.8-1.7 0.9-3.4-1.4-6.3-0.9 0 2.2-0.2 4-0.4 5.4 0.5-0.4 1.1-0.9 1.8-1 2.4-0.6 3.4 2.4 2.6 2.9-1.2 0.7-2.5-0.9-4.6-0.7-0.1 0.9-0.3 1.6-0.3 1.6-0.1 0.3-0.3 0.4-0.6 0.4q0 0 0 0c-0.3-0.1-0.4-0.4-0.4-0.6 0.1-0.1 0.4-1.3 0.6-3.2-2-1.4-3.9 0-5-1.2-0.5-0.7 1.5-3.2 3.5-1.8 1 0.6 1.4 1.7 1.6 2.4 0.2-1.7 0.3-3.8 0.1-6.2-2.7-1.8-5.2 0-6.6-1.6-0.7-0.8 1.9-4 4.5-2.3 1.1 0.7 1.6 1.7 1.9 2.6q-0.1-0.6-0.2-1.2c-0.3-1.8-0.2-3.3 0.1-4.8-2.7-2.6-6.1-1.2-7.3-3.3-0.7-1.1 3.1-4.4 5.8-1.7z"/>
					</g>
					<g id="&lt;Group&gt;">
						<g id="&lt;Group&gt;">
							<g id="&lt;Group&gt;">
								<g id="&lt;Group&gt;">
									<g id="&lt;Group&gt;">
										<path id="&lt;Path&gt;" class="s5" d="m276.7 172.1c2.4-0.4 9.1-3.7 9.5-2.1 0.3 1.2-0.8 6.5-3 10.5-0.9 1.5-2 2.9-3.2 3.7-6.3 4.2-10.4 4.3-13.6 2.5-2.8-1.5-3.4-3.3-5.6-4.6q-0.3-0.2-0.7-0.4-0.2 0-0.4-0.1c-2.8-1-6.1 0.5-10.4-3.9-2.8-2.9-2.6-7.5-1.9-10.4 0.5-1.6 1.1-2.7 1.4-2.5 0.3 0.2 0.6 1.2 0.9 2.4 0.5 1.9 1.3 4.4 3.2 4.9 3 0.9 3.1 2.4 3.4 0.4 0.1-2-2-1.2-3.5-4.3q-0.2-0.5-0.4-1.2c-0.2-1.6 0-3.6 0.6-5.5 0.6-2.3 1.6-4.2 2.5-4.8 1.8-1.2-0.1 3.4 2.6 5.7q1 0.9 1.8 1.4c1.3 0.8 2.2 0.9 2.5 0.3q0.2-0.2 0.2-0.6c0.1-1.8-6.8-7.8-3.4-10.4 3.4-2.6 7.1-3.6 6.6-1.5-0.6 2.1-1.8 5.6-0.1 5.9 1.7 0.2 2.4-1 1.8-3.5-0.5-2.5-2.1-4.2-0.7-5.3 0.3-0.3 1.1-0.7 2.1-1.2 2.2-1.2 5.6-2.8 8.3-3.3 1.7-0.4 3.1-0.3 3.6 0.6 1.1 2.1 3 7.1 3.8 10.4 0.3 1.3 0.4 2.4 0.2 2.8-0.8 1.5-5-0.7-6.2 1.1-1.2 1.9-1.2 4.2 3.1 2.5 4.2-1.8 7.2-2.1 5.3 2.6-2 4.7-6.2 5-8.7 5.2-2.5 0.2-3.9 3.1-1.6 2.7z"/>
									</g>
									<g id="&lt;Group&gt;">
										<path id="&lt;Path&gt;" class="s4" d="m278.1 151l-0.1 0.1c-2.6 3.4-5.3 7.2-7.8 11.4-3.7 5.9-7 12.5-9.4 19.6-1.7 5.2-2.8 10.8-3.1 16.5q0 0.1 0 0.2-0.1 0.3-0.4 0.4-0.1 0-0.2 0c-0.3 0-0.6-0.3-0.6-0.6q0-0.1 0-0.2c0.3-5.9 1.5-11.5 3.2-16.8 2.1-6.4 5-12.3 8.2-17.8l0.3-0.5q1.2-1.9 2.4-3.7c2.1-3.4 4.3-6.5 6.5-9.3 0.2-0.3 0.6-0.4 0.8-0.2q0.1 0.1 0.2 0.2c0.1 0.2 0.1 0.5 0 0.7z"/>
									</g>
								</g>
							</g>
							<path id="&lt;Path&gt;" class="s9" d="m272 163.7c-1 2.9-0.7 6.3 1 8.8 2.4 3.6 6.9 5.2 10.2 8-0.9 1.5-2 2.9-3.2 3.7-6.3 4.2-10.4 4.3-13.6 2.5-2.8-1.5-3.4-3.3-5.6-4.6-1.7 5.2-2.8 10.8-3.1 16.5q0 0.1 0 0.2-0.6-0.2-1.2-0.4c0.3-5.9 1.5-11.5 3.2-16.8-2.8-1-6.1 0.5-10.4-3.9-2.8-2.9-2.6-7.5-1.9-10.4q1.1-0.1 2.3-0.1c0.5 1.9 1.3 4.4 3.2 4.9 3 0.9 3.1 2.4 3.4 0.4 0.1-2-2-1.2-3.5-4.3q-0.2-0.5-0.4-1.2 2.7-0.2 5.4-0.4c3.6-0.2 7.5-0.6 10.1-2.8q0.7-0.5 1.2-1.1 1.1-1.4 1.5-3.1c0.7-2.5 0.4-5.3-0.2-7.8-0.3-1.5-0.8-3-1.5-4.3 2.2-1.2 5.6-2.8 8.3-3.3 1.7-0.4 3.1-0.3 3.6 0.6 1.1 2.1 3 7.1 3.8 10.4q-0.8 0.3-1.6 0.5c-1.6 0.5-3.3 0.9-4.9 1.5-2.8 1.2-5.1 3.6-6.1 6.5z"/>
						</g>
						<g id="&lt;Group&gt;">
							<g id="&lt;Group&gt;">
								<g id="&lt;Group&gt;">
									<path id="&lt;Path&gt;" class="s8" d="m256 200.9c-0.2-1-1.5-2.3-3.3-3.8-2.8-2.4-7-5.1-10.6-7.1-2.4-1.4-4.6-2.4-5.9-2.9-3.3-1-8-7.4-10.4-10.9q-1-1.4-1.6-2.4 11.4-1.5 20.5 3.5c7.6 4.1 10.4 17.7 11.1 22.2q0.2 0.9 0.2 1.4z"/>
								</g>
								<path id="&lt;Path&gt;" class="s4" d="m256.4 201.5c-0.3 0.2-0.7 0.1-0.9-0.2q0 0 0 0-1.3-2.1-2.8-4.2-0.6-1-1.3-1.9-2.2-3-4.5-5.8c-1.6-1.8-3.3-3.6-5.1-5.2q-0.8-0.7-1.5-1.3c-1.4-1.2-2.9-2.2-4.5-2.9-0.1-0.1-0.1-0.2-0.1-0.3 0.1-0.1 0.2-0.2 0.3-0.1 1.3 0.6 2.5 1.3 3.6 2.1q1.3 0.9 2.6 2c1.9 1.6 3.6 3.4 5.3 5.2q2.5 2.7 4.7 5.7 1.9 2.4 3.6 4.9 0.4 0.5 0.8 1.1c0.2 0.3 0.1 0.7-0.2 0.9z"/>
							</g>
							<path id="&lt;Path&gt;" class="s10" d="m256.4 201.5c-0.3 0.2-0.7 0.1-0.9-0.2q0 0 0 0-1.3-2.1-2.8-4.2c-2.8-2.4-7-5.1-10.6-7.1q-0.1-0.5-0.2-1c-0.5-2.1-0.8-4.2-1.6-6.1q-0.3-0.6-0.6-1.1-0.1-0.1-0.1-0.1c-1.4-2.1-3.8-3.4-6.1-4.3-2.5-1-5.2-1.7-7.7-1.2q-1-1.4-1.6-2.4 11.4-1.5 20.5 3.5c7.6 4.1 10.4 17.7 11.1 22.2q0.4 0.5 0.8 1.1c0.2 0.3 0.1 0.7-0.2 0.9z"/>
						</g>
						<g id="&lt;Group&gt;">
							<g id="&lt;Group&gt;">
								<g id="&lt;Group&gt;">
									<path id="&lt;Path&gt;" class="s8" d="m256.2 199.9c0.7-3.7 3.2-14.6 9.4-17.9q7.5-3.8 16.7-2.4-0.5 0.8-1.3 1.9c-2 2.8-6 7.9-8.6 8.7-1.1 0.3-2.9 1.2-4.9 2.2-3 1.6-6.4 3.7-8.7 5.6-1.5 1.2-2.5 2.3-2.8 3.1q0.1-0.5 0.2-1.2z"/>
								</g>
								<path id="&lt;Path&gt;" class="s4" d="m255.6 200.8q0.3-0.5 0.6-0.9 1.5-2 3-3.9 1.9-2.4 4-4.6c1.4-1.4 2.8-2.8 4.4-4.1q1-0.8 2.1-1.6 1.4-0.9 2.9-1.6c0.1-0.1 0.2 0 0.3 0.1 0 0 0 0.1-0.1 0.2-1.3 0.6-2.5 1.4-3.7 2.3q-0.6 0.5-1.2 1c-1.5 1.3-2.9 2.7-4.2 4.2q-2 2.2-3.8 4.6-0.6 0.7-1.1 1.5-1.2 1.7-2.3 3.4 0 0 0 0c-0.2 0.2-0.5 0.3-0.8 0.1-0.2-0.1-0.3-0.5-0.1-0.7z"/>
							</g>
							<path id="&lt;Path&gt;" class="s11" d="m255.6 200.8q0.3-0.5 0.6-0.9c0.7-3.7 3.2-14.6 9.4-17.9q7.5-3.8 16.7-2.4-0.5 0.8-1.3 1.9c-2-0.5-4.3 0.1-6.2 0.8-2 0.8-3.9 1.7-5.1 3.4q0 0.1-0.1 0.1-0.2 0.4-0.5 0.9c-0.7 1.5-0.9 3.2-1.4 4.9q-0.1 0.4-0.2 0.8c-3 1.6-6.4 3.7-8.7 5.6q-1.2 1.7-2.3 3.4 0 0 0 0c-0.2 0.2-0.5 0.3-0.8 0.1-0.2-0.1-0.3-0.5-0.1-0.7z"/>
						</g>
						<path id="&lt;Path&gt;" class="s12" d="m259.5 181.6c-0.8 2-3.8 1.2-5.8 3.8 0.4 1.2 0.7 2.6 0.7 4.1q-0.1 0.5-0.1 1c0.2-0.7 0.5-1.7 1.3-2.4 2.1-1.9 4.7 0.5 4.2 1.4-0.9 1.5-3.4 0.3-5.4 2.2 0.1 2.1 0.5 3.9 0.9 5.4 0.1-0.7 0.3-1.7 1-2.4 1.6-1.4 3.6 0.5 3.3 1.1-0.7 1.2-2.6 0.3-4.2 1.7 0.5 1.6 1 2.7 1 2.7 0.1 0.2 0 0.4-0.2 0.5q-0.1 0-0.1 0c-0.2 0.1-0.4 0-0.5-0.2 0 0-0.2-0.5-0.5-1.4-1.8 0.2-2.7 1.7-3.9 1.3-0.7-0.3-0.3-3 1.9-2.9 0.6 0.1 1.2 0.4 1.6 0.7-0.3-1.2-0.7-2.8-1-4.6-2.5-0.1-3.7 2.2-5.3 1.6-0.9-0.4-0.4-3.9 2.4-3.7 1.3 0.1 2.3 0.9 2.9 1.5q-0.2-1.7-0.2-3.5 0-1.1-0.1-2c-3.3-0.1-4.6 2.9-6.7 2.3-1.1-0.4-0.6-4.6 2.7-4.6 1.8 0 3.3 1.3 3.9 2-0.3-1.7-1.1-3.1-2.1-4.5-3.4 0.9-3.9 4.2-6.1 4.1-1.3 0-2-4.5 1.4-5.3 1.7-0.5 3.4 0.3 4.3 0.8-0.7-1-1.6-1.9-2.6-2.8-2.9 0.2-3.9 2.9-5.8 2.5-1-0.2-0.9-4.2 2.2-4.4 0.8 0 1.6 0.2 2.2 0.5q-1-0.9-2-1.9c-0.9-0.5-2.2-1.5-2.7-3.1-1-3.2 3-4.9 3.7-3.9 1.1 1.6-0.9 3.5-0.5 6.3q1.1 1 2 2c-0.2-0.9-0.5-2.3 0.1-3.6 1.4-2.8 5.1-1.4 4.9-0.4-0.3 1.9-3.1 1.8-4.5 4.5q1.4 1.3 2.6 2.5c-0.1-1-0.1-2.8 1-4.1 2.1-2.8 5.9-0.4 5.5 0.7-0.8 2.1-4 1.3-6.1 3.9 1 1.1 1.9 2.3 2.5 3.5-0.1-1 0-2.4 0.9-3.6 2.1-2.7 5.7-0.4 5.3 0.7z"/>
					</g>
					<g id="&lt;Group&gt;">
						<g id="&lt;Group&gt;">
							<path id="&lt;Compound Path&gt;" fill-rule="evenodd" class="s5" d="m147.7 21.2c-3 0-5.4-2.4-5.4-5.5 0-3 2.4-5.4 5.4-5.4 3 0 5.5 2.4 5.5 5.4 0 3.1-2.5 5.5-5.5 5.5zm3.5-5.5c0-1.9-1.6-3.4-3.5-3.4-1.9 0-3.5 1.5-3.5 3.4 0 2 1.6 3.5 3.5 3.5 1.9 0 3.5-1.5 3.5-3.5z"/>
						</g>
						<g id="&lt;Group&gt;">
							<path id="&lt;Path&gt;" class="s8" d="m159.3 16.7h-11.6c-0.5 0-1-0.4-1-1 0-0.5 0.5-0.9 1-0.9h11.6c0.5 0 1 0.4 1 0.9 0 0.6-0.5 1-1 1z"/>
						</g>
						<g id="&lt;Group&gt;">
							<path id="&lt;Path&gt;" class="s8" d="m166.1 11.9h-11.6c-0.5 0-1-0.4-1-0.9 0-0.6 0.5-1 1-1h11.6c0.5 0 1 0.4 1 1 0 0.5-0.5 0.9-1 0.9z"/>
						</g>
						<g id="&lt;Group&gt;">
							<path id="&lt;Path&gt;" class="s8" d="m147.7 9.2c-0.5 0-1-0.4-1-1v-4.9c0-0.5 0.5-0.9 1-0.9 0.6 0 1 0.4 1 0.9v4.9c0 0.6-0.4 1-1 1z"/>
						</g>
					</g>
					<g id="&lt;Group&gt;">
						<g id="&lt;Group&gt;">
							<circle id="&lt;Compound Path&gt;" class="s5" cx="174.4" cy="218.2" r="4.2"/>
						</g>
						<g id="&lt;Group&gt;">
							<path id="&lt;Path&gt;" class="s8" d="m188.5 219.4h-14.1c-0.7 0-1.2-0.6-1.2-1.2 0-0.7 0.5-1.2 1.2-1.2h14.1c0.7 0 1.2 0.5 1.2 1.2 0 0.6-0.5 1.2-1.2 1.2z"/>
						</g>
						<g id="&lt;Group&gt;">
							<path id="&lt;Path&gt;" class="s8" d="m196.8 213.5h-14.1c-0.7 0-1.3-0.5-1.3-1.2 0-0.7 0.6-1.2 1.3-1.2h14.1c0.7 0 1.2 0.5 1.2 1.2 0 0.7-0.5 1.2-1.2 1.2z"/>
						</g>
					</g>
					<g id="&lt;Group&gt;">
						<g id="&lt;Group&gt;">
							<path id="&lt;Path&gt;" class="s5" d="m27.7 116h-14.2c-0.7 0-1.2-0.6-1.2-1.2 0-0.7 0.5-1.3 1.2-1.3h14.2c0.6 0 1.2 0.6 1.2 1.3 0 0.6-0.6 1.2-1.2 1.2z"/>
						</g>
						<g id="&lt;Group&gt;">
							<path id="&lt;Path&gt;" class="s5" d="m36 110.1h-14.2c-0.7 0-1.2-0.5-1.2-1.2 0-0.7 0.5-1.2 1.2-1.2h14.2c0.6 0 1.2 0.5 1.2 1.2 0 0.7-0.6 1.2-1.2 1.2z"/>
						</g>
					</g>
				</g>
				<g id="Search Candidate 4 ">
					<g id="&lt;Group&gt;">
						<rect id="&lt;Path&gt;" class="s13" x="161.1" y="27.4" width="42.9" height="16.3" rx="1.3"></rect>
						<path id="&lt;Path&gt;" class="s14" d="m204 30.1v10.9c0 1.5-1.2 2.8-2.8 2.8h-37.3c-1.5 0-2.8-1.3-2.8-2.8v-10.7c1.6-0.1 3.3 0.1 4.8 0.7q0.9 0.3 1.7 0.7 0.5 0.3 0.9 0.5c0.8 0.5 1.6 1 2.4 1.5 0.7 0.5 1.5 0.9 2.3 1.3q0.3 0.1 0.7 0.2c2.1 0.8 4.5 0.9 6.8 0.7 1.2-0.1 2.5-0.2 3.7-0.5q1.7-0.4 3.2-1.1 0.5-0.3 1-0.5c1.7-1 3.1-2.4 4.8-3.4 3.2-1.7 7.3-1.8 10.6-0.3z"/>
						<g id="&lt;Group&gt;">
							<path id="&lt;Path&gt;" class="s8" d="m188.1 37.4l0.4 1.1q0 0.1 0.1 0.1h1.1c0.2 0 0.2 0.2 0.1 0.3l-0.9 0.6q-0.1 0.1 0 0.2l0.3 1c0 0.1-0.1 0.3-0.3 0.2l-0.8-0.7q-0.1 0-0.2 0l-0.9 0.7c-0.1 0.1-0.3-0.1-0.2-0.2l0.3-1q0-0.1-0.1-0.2l-0.8-0.6c-0.2-0.1-0.1-0.3 0.1-0.3h1q0.2 0 0.2-0.1l0.3-1.1c0.1-0.1 0.3-0.1 0.3 0z"/>
							<path id="&lt;Path&gt;" class="s8" d="m183.9 37.4l0.4 1.1q0 0.1 0.1 0.1h1.1c0.2 0 0.2 0.2 0.1 0.3l-0.9 0.6q-0.1 0.1 0 0.2l0.3 1c0.1 0.1-0.1 0.3-0.2 0.2l-0.9-0.7q-0.1 0-0.2 0l-0.9 0.7c-0.1 0.1-0.3-0.1-0.2-0.2l0.3-1q0-0.1-0.1-0.2l-0.8-0.6c-0.2-0.1-0.1-0.3 0.1-0.3h1q0.2 0 0.2-0.1l0.3-1.1c0.1-0.1 0.3-0.1 0.3 0z"/>
							<path id="&lt;Path&gt;" class="s8" d="m179.8 37.4l0.3 1.1q0 0.1 0.1 0.1h1.1c0.2 0 0.2 0.2 0.1 0.3l-0.9 0.6q0 0.1 0 0.2l0.3 1c0.1 0.1-0.1 0.3-0.2 0.2l-0.9-0.7q-0.1 0-0.2 0l-0.9 0.7c-0.1 0.1-0.3-0.1-0.2-0.2l0.3-1q0-0.1 0-0.2l-0.9-0.6c-0.1-0.1-0.1-0.3 0.1-0.3h1.1q0.1 0 0.1-0.1l0.3-1.1c0.1-0.1 0.3-0.1 0.4 0z"/>
							<path id="&lt;Path&gt;" class="s12" d="m192.5 37.4l0.3 1.1q0.1 0.1 0.2 0.1h1.1c0.1 0 0.2 0.2 0.1 0.3l-0.9 0.6q-0.1 0.1-0.1 0.2l0.4 1c0 0.1-0.1 0.3-0.3 0.2l-0.9-0.7q0 0-0.1 0l-0.9 0.7c-0.1 0.1-0.3-0.1-0.3-0.2l0.4-1q0-0.1-0.1-0.2l-0.9-0.6c-0.1-0.1 0-0.3 0.1-0.3h1.1q0.1 0 0.2-0.1l0.3-1.1c0-0.1 0.3-0.1 0.3 0z"/>
							<path id="&lt;Path&gt;" class="s12" d="m196.7 37.4l0.3 1.1q0.1 0.1 0.2 0.1h1.1c0.1 0 0.2 0.2 0.1 0.3l-0.9 0.6q-0.1 0.1-0.1 0.2l0.4 1c0 0.1-0.2 0.3-0.3 0.2l-0.9-0.7q-0.1 0-0.2 0l-0.8 0.7c-0.2 0.1-0.3-0.1-0.3-0.2l0.4-1q0-0.1-0.1-0.2l-0.9-0.6c-0.1-0.1 0-0.3 0.1-0.3h1.1q0.1 0 0.2-0.1l0.3-1.1c0-0.1 0.2-0.1 0.3 0z"/>
						</g>
						<circle id="&lt;Path&gt;" class="s12" cx="168.6" cy="35.6" r="5.3"/>
						<path id="&lt;Path&gt;" class="s12" d="m186.3 33.6h-7.9c-0.4 0-0.7-0.3-0.7-0.6v-1.6c0-0.3 0.3-0.6 0.7-0.6h7.9c0.4 0 0.6 0.3 0.6 0.6v1.6c0 0.3-0.2 0.6-0.6 0.6z"/>
						<g id="&lt;Group&gt;">
							<g id="&lt;Group&gt;">
								<path id="&lt;Path&gt;" class="s8" d="m171.4 39h-0.6v-1.3c0-1.2-1-2.2-2.2-2.2-1.2 0-2.2 1-2.2 2.2v1.3h-0.6v-1.3c0-1.5 1.2-2.8 2.8-2.8 1.5 0 2.8 1.3 2.8 2.8z"/>
							</g>
							<circle id="&lt;Path&gt;" class="s5" cx="168.6" cy="33.8" r="2.3"/>
						</g>
					</g>
					<g id="&lt;Group&gt;">
						<rect id="&lt;Path&gt;" class="s13" x="212.6" y="126.8" width="39.3" height="14.9" rx="1.2"></rect>
						<path id="&lt;Path&gt;" class="s15" d="m251.9 129.3v9.9c0 1.4-1.2 2.5-2.6 2.5h-34.2c-1.4 0-2.5-1.1-2.5-2.5v-9.8c1.5-0.1 3 0.2 4.4 0.7q0.8 0.3 1.5 0.6 0.5 0.2 0.9 0.5c0.7 0.4 1.4 0.9 2.1 1.3 0.7 0.5 1.4 0.9 2.2 1.2q0.3 0.1 0.6 0.2c2 0.7 4.1 0.8 6.2 0.7 2.5-0.2 5.1-0.7 7.2-2 1.6-0.9 2.9-2.2 4.4-3 3-1.7 6.7-1.8 9.8-0.3z"/>
						<g id="&lt;Group&gt;">
							<path id="&lt;Path&gt;" class="s8" d="m237.3 136l0.3 0.9q0.1 0.1 0.2 0.1h1c0.1 0 0.2 0.2 0.1 0.3l-0.8 0.5q-0.1 0.1-0.1 0.2l0.3 1c0 0.1-0.1 0.2-0.2 0.1l-0.8-0.6q-0.1 0-0.2 0l-0.8 0.6c-0.1 0.1-0.3 0-0.2-0.1l0.3-1q0-0.1-0.1-0.2l-0.8-0.5c-0.1-0.1 0-0.3 0.1-0.3h1q0.1 0 0.1-0.1l0.4-0.9c0-0.2 0.2-0.2 0.2 0z"/>
							<path id="&lt;Path&gt;" class="s8" d="m233.5 136l0.3 0.9q0 0.1 0.1 0.1h1c0.2 0 0.2 0.2 0.1 0.3l-0.8 0.5q-0.1 0.1 0 0.2l0.3 1c0 0.1-0.1 0.2-0.3 0.1l-0.8-0.6q0 0-0.1 0l-0.8 0.6c-0.1 0.1-0.3 0-0.3-0.1l0.3-1q0.1-0.1 0-0.2l-0.8-0.5c-0.1-0.1-0.1-0.3 0.1-0.3h1q0.1 0 0.1-0.1l0.3-0.9c0.1-0.2 0.3-0.2 0.3 0z"/>
							<path id="&lt;Path&gt;" class="s8" d="m229.7 136l0.3 0.9q0 0.1 0.1 0.1h1c0.1 0 0.2 0.2 0.1 0.3l-0.8 0.5q-0.1 0.1-0.1 0.2l0.3 1c0.1 0.1-0.1 0.2-0.2 0.1l-0.8-0.6q-0.1 0-0.2 0l-0.8 0.6c-0.1 0.1-0.2 0-0.2-0.1l0.3-1q0-0.1 0-0.2l-0.8-0.5c-0.2-0.1-0.1-0.3 0-0.3h1q0.1 0 0.2-0.1l0.3-0.9c0-0.2 0.2-0.2 0.3 0z"/>
							<path id="&lt;Path&gt;" class="s8" d="m241.3 136l0.3 0.9q0.1 0.1 0.2 0.1h1c0.1 0 0.2 0.2 0.1 0.3l-0.8 0.5q-0.1 0.1-0.1 0.2l0.3 1c0.1 0.1-0.1 0.2-0.2 0.1l-0.8-0.6q-0.1 0-0.2 0l-0.8 0.6c-0.1 0.1-0.3 0-0.2-0.1l0.3-1q0-0.1-0.1-0.2l-0.8-0.5c-0.1-0.1 0-0.3 0.1-0.3h1q0.1 0 0.2-0.1l0.3-0.9c0-0.2 0.2-0.2 0.2 0z"/>
							<path id="&lt;Path&gt;" class="s12" d="m245.2 136l0.3 0.9q0 0.1 0.1 0.1h1c0.2 0 0.2 0.2 0.1 0.3l-0.8 0.5q-0.1 0.1-0.1 0.2l0.3 1c0.1 0.1-0.1 0.2-0.2 0.1l-0.8-0.6q-0.1 0-0.2 0l-0.8 0.6c-0.1 0.1-0.2 0-0.2-0.1l0.3-1q0-0.1 0-0.2l-0.8-0.5c-0.1-0.1-0.1-0.3 0.1-0.3h0.9q0.1 0 0.2-0.1l0.3-0.9c0-0.2 0.2-0.2 0.3 0z"/>
						</g>
						<circle id="&lt;Path&gt;" class="s12" cx="219.4" cy="134.3" r="4.9"/>
						<path id="&lt;Path&gt;" class="s12" d="m235.7 132.5h-7.3c-0.3 0-0.6-0.3-0.6-0.6v-1.5c0-0.3 0.3-0.5 0.6-0.5h7.3c0.3 0 0.5 0.2 0.5 0.5v1.5c0 0.3-0.2 0.6-0.5 0.6z"/>
						<g id="&lt;Group&gt;">
							<g id="&lt;Group&gt;">
								<path id="&lt;Path&gt;" class="s8" d="m222 137.4h-0.6v-1.2c0-1.1-0.9-2-2-2-1.1 0-2 0.9-2 2v1.2h-0.5v-1.2c0-1.4 1.1-2.5 2.5-2.5 1.4 0 2.6 1.1 2.6 2.5z"/>
							</g>
							<path id="&lt;Path&gt;" class="s5" d="m221.5 132.6c0 1.2-0.9 2.1-2.1 2.1-1.1 0-2.1-0.9-2.1-2.1 0-1.1 1-2.1 2.1-2.1 1.2 0 2.1 1 2.1 2.1z"/>
						</g>
					</g>
					<g id="&lt;Group&gt;">
						<g id="&lt;Group&gt;">
							<path id="&lt;Path&gt;" class="s5" d="m200.2 14.4l-0.8 1.1-1.8 2.8c-0.8 1.2-2.6 1.6-3.9 0.7l-3.5-2.3c-1.3-0.9-1.7-2.6-0.8-3.9l0.6-1 1.2-1.7 0.7-1.1 3.8 2.5z"/>
							<path id="&lt;Path&gt;" class="s8" d="m201.9 16q-0.1 0-0.1 0h-0.2l-2.2-0.5-5-1q-0.2-0.1-0.3-0.2l-0.5-0.8-2.4-3.4-1.4-2c-0.2-0.3 0.1-0.6 0.4-0.6l5.6 1.2 1.8 0.4q0.1 0 0.2 0.1l4.4 6.2c0.2 0.3 0 0.6-0.3 0.6z"/>
							<g id="&lt;Group&gt;">
								<path id="&lt;Path&gt;" class="s13" d="m201.9 16q0 0.1 0 0.1-0.7 1.1-1.2 1.9c-1 1.4-1.5 2.2-1.2 2.8q0.1 0.2 0.2 0.3c0.1 0.1 0.1 0.2 0 0.2q0 0.1-0.1 0.1-0.1 0-0.1-0.1-0.1-0.1-0.2-0.2c-0.5-0.8 0.1-1.8 1.1-3.2q0.6-0.9 1.2-1.9 0 0 0-0.1c0.1 0 0.2-0.1 0.3 0q0 0 0 0.1z"/>
							</g>
							<path id="&lt;Path&gt;" class="s8" d="m200.8 21.9q-0.2 0.2-0.4 0.2-0.2 0-0.3 0l-0.6-0.5c-0.2-0.1-0.3-0.3-0.2-0.5q0-0.1 0-0.1 0.1-0.1 0.2-0.2 0.1 0 0.2 0 0.2 0 0.3 0.1l0.6 0.4c0.2 0.1 0.3 0.4 0.2 0.6z"/>
						</g>
						<path id="&lt;Path&gt;" class="s16" d="m201.9 16q0 0.1 0 0.1-0.7 1.1-1.2 1.9c-1 1.4-1.5 2.2-1.2 2.8q0.1 0 0.2 0 0.2 0 0.3 0.1l0.6 0.4c0.2 0.1 0.3 0.4 0.2 0.6q-0.2 0.2-0.4 0.2-0.2 0-0.3 0l-0.6-0.5c-0.2-0.1-0.3-0.3-0.2-0.5-0.5-0.8 0.1-1.8 1.1-3.2q0.6-0.9 1.2-1.9l-2.2-0.5-1.8 2.8c-0.8 1.2-2.6 1.6-3.9 0.7l-3.5-2.3c-1.3-0.9-1.7-2.6-0.8-3.9l0.6-1c0.9 0.4 1.7 1 2.6 1.4q0.5 0.2 1 0.3c0.8 0.2 1.6 0.2 2.2-0.3q0.2-0.1 0.3-0.3c0.1-0.2 0-0.4 0-0.6q-0.2-0.4-0.4-0.8-0.2-0.5-0.3-1.1c-0.1-0.6 0-1.2 0.4-1.7l1.8 0.4q0.1 0 0.2 0.1l4.4 6.2c0.2 0.3 0 0.6-0.3 0.6z"/>
					</g>
					<g id="&lt;Group&gt;">
						<path id="&lt;Path&gt;" class="s8" d="m92.9 65.3c0 3-2.4 5.5-5.5 5.5-3 0-5.5-2.5-5.5-5.5q0-0.2 0-0.3c0.2-2.9 2.6-5.2 5.5-5.2 0.8 0 1.6 0.2 2.3 0.5 1.9 0.8 3.2 2.8 3.2 5z"/>
						<path id="&lt;Path&gt;" class="s4" d="m90.2 67.9c-0.3 0.3-0.9 0.3-1.3 0l-1.5-1.5-1.5 1.5c-0.3 0.3-0.9 0.3-1.3 0-0.4-0.4-0.4-1 0-1.4l1.5-1.5-1.5-1.5c-0.2-0.1-0.3-0.4-0.3-0.6 0-0.3 0.1-0.5 0.3-0.7 0.4-0.3 1-0.3 1.3 0l1.5 1.5 1.5-1.5c0.4-0.3 1-0.3 1.3 0 0.2 0.2 0.3 0.4 0.3 0.7 0 0.2-0.1 0.5-0.3 0.6l-1.5 1.5 1.5 1.5c0.4 0.4 0.4 1 0 1.4z"/>
						<path id="&lt;Path&gt;" class="s17" d="m92.9 65.3c0 3-2.4 5.5-5.5 5.5-3 0-5.5-2.5-5.5-5.5q0-0.2 0-0.3c0.3-0.1 0.6-0.2 0.9-0.2 1 0 2 0.5 3 0.7q0 0 0.1 0c0.9 0.2 1.8 0.1 2.5-0.2q0.1 0 0.2-0.1c0.8-0.4 1.4-1 1.6-1.8 0.3-0.9 0-1.9-0.3-2.8q-0.1-0.1-0.2-0.3c1.9 0.8 3.2 2.8 3.2 5z"/>
					</g>
					<g id="&lt;Group&gt;">
						<path id="&lt;Path&gt;" class="s5" d="m249.1 110.8c0 3.2-2.6 5.8-5.8 5.8-2.2 0-4.1-1.1-5.1-2.9-0.4-0.8-0.7-1.8-0.7-2.9 0-3.2 2.6-5.8 5.8-5.8 2.5 0 4.7 1.7 5.5 3.9q0.3 0.9 0.3 1.9z"/>
						<g id="&lt;Group&gt;">
							<path id="&lt;Path&gt;" class="s4" d="m242.2 114.3q0 0 0 0c-0.2 0-0.4-0.1-0.5-0.3l-1.5-2.2c-0.2-0.3-0.1-0.7 0.2-0.8 0.2-0.2 0.6-0.1 0.8 0.1l1 1.6 3.2-4.4c0.2-0.2 0.6-0.3 0.9-0.1 0.2 0.2 0.3 0.6 0.1 0.8l-3.7 5.1q-0.2 0.2-0.5 0.2z"/>
						</g>
						<path id="&lt;Path&gt;" class="s18" d="m249.1 110.8c0 3.2-2.6 5.8-5.8 5.8-2.2 0-4.1-1.1-5.1-2.9 0.8 0.2 1.7 0.1 2.4-0.2q0.3-0.2 0.5-0.4c0.4-0.2 0.6-0.4 0.9-0.8 0.3-0.4 0.6-1 0.7-1.6 0.2-0.6 0.1-1.4 0.4-2 0.5-0.9 1.5-1.2 2.5-1.2 0.9 0.1 1.8 0.6 2.6 1.1q0.3 0.1 0.6 0.3 0.3 0.9 0.3 1.9z"/>
					</g>
					<path id="&lt;Path&gt;" class="s12" d="m206.1 75.8l-14.9 111.4c-0.5 3.3-3.5 6-6.8 6h-81c-3.3 0-5.6-2.7-5.2-6l2.8-20.8 2.5-18.5 3.3-25.1 6.4-47c0.4-3.3 3.4-6 6.7-6h81c3.3 0 5.6 2.7 5.2 6z"/>
					<path id="&lt;Path&gt;" class="s19" d="m176.1 81.1h-17.1c-1.2 0-2-0.9-1.8-2 0.1-1.1 1.2-2 2.3-2h17.2c1.1 0 1.9 0.9 1.7 2-0.1 1.1-1.2 2-2.3 2z"/>
					<path id="&lt;Path&gt;" class="s19" d="m175.2 87.8h-17.1c-1.2 0-1.9-1-1.8-2.1 0.2-1.1 1.2-2 2.3-2h17.2c1.1 0 1.9 0.9 1.7 2-0.1 1.1-1.1 2.1-2.3 2.1z"/>
					<rect id="&lt;Path&gt;" class="s19" x="153.6" y="98.6" width="38.7" height="9.2" rx=".9"></rect>
					<path id="&lt;Path&gt;" class="s19" d="m186.3 130.4h-70.9c-1.2 0-2-1-1.8-2.1l1-7.9c0.2-1.2 1.2-2.1 2.4-2.1h70.9c1.1 0 1.9 0.9 1.8 2.1l-1.1 7.9c-0.1 1.1-1.2 2.1-2.3 2.1z"/>
					<path id="&lt;Path&gt;" class="s19" d="m183.7 149.8h-70.9c-1.2 0-2-1-1.8-2.1l1-7.9c0.2-1.1 1.2-2.1 2.4-2.1h70.9c1.1 0 1.9 1 1.8 2.1l-1.1 7.9c-0.1 1.1-1.2 2.1-2.3 2.1z"/>
					<path id="&lt;Path&gt;" class="s8" d="m179.4 182h-21.2c-1.1 0-1.9-1-1.7-2.1l2.3-17.7c0.2-1.2 1.2-2.1 2.4-2.1h21.1c1.1 0 1.9 0.9 1.8 2.1l-2.4 17.7c-0.2 1.1-1.2 2.1-2.3 2.1z"/>
					<rect id="&lt;Path&gt;" class="s19" x="108.9" y="160.1" width="41.1" height="4.9" rx=".9"></rect>
					<rect id="&lt;Path&gt;" class="s19" x="107.8" y="168.6" width="41.1" height="4.9" rx=".9"></rect>
					<rect id="&lt;Path&gt;" class="s19" x="106.7" y="177" width="41.1" height="4.9" rx=".9"></rect>
					<path id="&lt;Path&gt;" class="s12" d="m171.8 164.2l0.8 4.1c0 0.3 0.2 0.5 0.5 0.5h4.4c0.6 0 0.7 0.8 0.2 1.1l-3.9 2.6c-0.2 0.2-0.3 0.4-0.3 0.7l0.8 4.1c0.1 0.6-0.6 1.1-1.1 0.8l-3.2-2.6c-0.2-0.2-0.5-0.2-0.7 0l-3.9 2.6c-0.5 0.3-1.1-0.2-0.9-0.8l1.9-4.1c0.2-0.3 0.1-0.5-0.1-0.7l-3.2-2.6c-0.4-0.3-0.1-1.1 0.6-1.1h4.3c0.3 0 0.6-0.2 0.7-0.5l1.9-4.1c0.2-0.6 1.1-0.6 1.2 0z"/>
					<path id="&lt;Path&gt;" class="s20" d="m188.8 69.8c-3.7 3.2-7.1 6.2-9.7 10.9-3.6 6.3-5.7 13.5-5.6 20.8 0.2 7.6 2.4 15 3.7 22.5 1.2 7.5 1.5 15.5-2 22.3-1.5 3-3.7 5.6-5.4 8.5-3.2 5.4-4.5 11.9-3.8 18.1 0.8 6.3 3.7 12.6 2.1 18.8q-0.2 0.8-0.4 1.5h-54.8c0-0.2 0.1-0.4 0.1-0.6 2.2-7.8 11-11.2 17.6-15.8 9.3-6.5 15.5-17.2 17-28.4 1.5-11.2-1.5-22.9-7.8-32.4-3-4.4-6.7-8.4-9.3-13-4.5-7.7-6.1-17.1-3.9-25.6 0.7-2.7 1.7-5.2 3.1-7.6z"/>
					<g id="&lt;Group&gt;">
						<path id="&lt;Path&gt;" class="s21" d="m159.2 168.6c3-6.9 10.9-10 17.8-7.1 6.9 2.9 10.1 10.9 7.2 17.8-3 6.9-10.9 10.1-17.8 7.1-6.9-2.9-10.1-10.9-7.2-17.8z"/>
						<path id="&lt;Compound Path&gt;" fill-rule="evenodd" class="s5" d="m153.3 166.1c4.4-10.1 16.1-14.8 26.3-10.5 9 3.9 13.6 13.6 11.5 22.8l10 4.2 1.8 0.8 8.4 3.6-2.8 6.6-10.2-4.4-10-4.3c-5.2 7.9-15.5 11.2-24.5 7.4-4.7-2-8.3-5.7-10.2-10-2.3-5-2.6-10.8-0.3-16.2zm13.1 20.3c6.9 3 14.8-0.2 17.7-7.1h0.1c2.9-6.9-0.3-14.9-7.2-17.8-6.8-2.9-14.8 0.2-17.8 7.1-1.2 3-1.4 6.1-0.6 9 1.1 3.8 3.8 7.1 7.8 8.8z"/>
						<g id="&lt;Group&gt;">
							<path id="&lt;Path&gt;" class="s8" d="m198.4 185.3q0.4-1 1.2-1.7c0.4-0.4 0.9-0.7 1.5-1 1.3-0.5 2.8-0.6 4.1 0l0.6 0.2 16.9 7.3c2.6 1.1 3.9 4.2 2.7 6.8-0.5 1.3-1.5 2.2-2.7 2.7-1.3 0.6-2.8 0.6-4.1 0l-17.5-7.4c-1.3-0.6-2.3-1.7-2.8-3-0.5-1.2-0.5-2.6 0.1-3.9z"/>
						</g>
						<path id="&lt;Path&gt;" class="s22" d="m157.2 178.7q0.7-0.6 1.4-1.1c3.9-2.8 8.6-4.4 13.3-3.8 4.4 0.7 8.3 3.2 12.2 5.5q1.8 1.1 3.8 1.9c3.6 1.7 7.7 2.5 11.7 2.4q1.6 0 3.3-0.2 1.5-0.2 2.9-0.6l16.9 7.3c2.6 1.1 3.9 4.2 2.7 6.8-0.5 1.3-1.5 2.2-2.7 2.7-1.3 0.6-2.8 0.6-4.1 0l-17.5-7.4c-1.3-0.6-2.3-1.7-2.8-3l-10-4.3c-5.2 7.9-15.5 11.2-24.5 7.4-4.7-2-8.3-5.7-10.2-10 1.3-1.5 2.6-2.8 3.6-3.6z"/>
					</g>
					<g id="&lt;Group&gt;">
						<path id="&lt;Path&gt;" class="s23" d="m178.4 69.8h-14.9c0.5-4.1 4.3-7.4 8.4-7.4 4.1 0 7 3.3 6.5 7.4z"/>
						<g id="&lt;Group&gt;">
							<path id="&lt;Path&gt;" class="s24" d="m175.1 69.8c-3 1-5.6 3.8-6 7.1l-8.8 65.9-3.2 23.6h-56.1l2.5-18.5 3.3-25.1 6.4-47c0.4-3.3 3.4-6 6.7-6z"/>
							<path id="&lt;Path&gt;" class="s5" d="m171.9 62.4c-4.1 0-7.9 3.3-8.4 7.4l-8.8 65.9-3.2 23.6h-60.6l7.6-57.1 4.3-32.4c0.6-4.1 4.4-7.4 8.5-7.4z"/>
							<path id="&lt;Path&gt;" class="s25" d="m154.7 135.7l-3.2 23.6h-60.6l7.6-57.1q4.6-1.2 9-3.1c3.3-1.4 6.5-3.1 9-5.8 5.4-5.8 5.5-14.7 5.2-22.7-0.1-2.7-0.2-5.5 0-8.2h26.7c-3 4.1-4.9 9-5.8 14-1.8 10 0.3 20.4 3.3 30.2 3 9.7 6.8 19.2 8.8 29.1z"/>
							<g id="&lt;Group&gt;">
								<path id="&lt;Path&gt;" class="s8" d="m142.8 105.2c-0.7 5.4-4.1 10.3-8.6 13.2-2.9 1.9-6.3 3-9.8 3-3.6 0-6.7-1.1-9.1-3-3.7-3-5.8-7.8-5-13.2 1.2-9 9.4-16.3 18.4-16.3 9 0 15.3 7.3 14.1 16.3z"/>
								<path id="&lt;Path&gt;" class="s12" d="m133.6 114.6l-0.1 0.7c-2.6 1.6-5.6 2.6-8.7 2.6-3.1 0-5.8-1-7.9-2.7l0.1-0.6c0.4-3.4 2.8-6.2 5.9-7.5-2-1.2-3.2-3.5-2.9-6.2 0.6-3.9 4.2-7 8.1-7 3.9 0 6.6 3.1 6.1 7-0.4 2.7-2.2 5-4.5 6.2 0.9 0.4 1.6 1 2.2 1.7 1.3 1.5 2 3.5 1.7 5.8z"/>
							</g>
						</g>
					</g>
					<g id="&lt;Group&gt;">
						<g id="&lt;Group&gt;">
							<path id="&lt;Path&gt;" class="s12" d="m56.8 118c-1.9 0.8-12.1-0.9-14.7-2.6l1.6-6.1 12 2.9 11.7-11.4 2.1 1.8q-0.1 0.1-0.2 0.3c-2.7 4.4-5.5 8.7-8.2 11.6q0 0-0.1 0c-1.4 1.6-2.8 2.8-4.2 3.5z"/>
							<path id="&lt;Path&gt;" class="s26" d="m67.4 100.8q-0.2-2 0.3-2.1c0.5-0.1 0.3 0.7 0.8 0.8 0.5 0 0-2 1-2.1 1-0.1 3.4 1.9 2.8 3.3q-0.5 1.3-2.8 1.9z"/>
							<path id="&lt;Path&gt;" class="s24" d="m56.8 118c-1.9 0.8-12.1-0.9-14.7-2.6l1.1-3.7q0.2 0 0.3 0.1c1.3 0.5 2.5 1 3.8 1.5 2.2 0.9 4.6 1.9 6.9 1.6 2.9-0.2 5.5-2 7.4-4.2 1.9-2.2 3.4-4.7 5.3-6.9 0.5-0.6 1.2-1.2 1.9-1.1q0.3 0 0.5 0.2c-2.7 4.4-5.5 8.7-8.2 11.6q0 0-0.1 0c-1.4 1.6-2.8 2.8-4.2 3.5z"/>
						</g>
						<g id="&lt;Group&gt;">
							<rect id="&lt;Path&gt;" class="s13" x="60.9" y="83.9" width="47.6" height="18.1" rx="1.4"></rect>
							<path id="&lt;Path&gt;" class="s27" d="m108.5 86.9v12c0 1.7-1.4 3.1-3.1 3.1h-41.5c-1.6 0-3-1.4-3-3.1v-11.8c1.8-0.2 3.6 0.1 5.3 0.8q1 0.3 1.9 0.7 0.5 0.3 1 0.6c0.9 0.5 1.7 1.1 2.6 1.6 0.8 0.6 1.7 1 2.6 1.4q0.4 0.2 0.7 0.3c2.4 0.9 5.1 1 7.6 0.8 3-0.2 6.1-0.9 8.7-2.4 1.9-1.1 3.5-2.6 5.4-3.7 3.5-2 8.1-2.1 11.8-0.3z"/>
							<g id="&lt;Group&gt;">
								<path id="&lt;Path&gt;" class="s12" d="m90.8 95l0.4 1.1q0.1 0.1 0.2 0.1h1.2c0.2 0 0.2 0.3 0.1 0.4l-1 0.7q-0.1 0 0 0.2l0.3 1.1c0.1 0.2-0.1 0.3-0.2 0.2l-1-0.7q-0.1-0.1-0.2 0l-1 0.7c-0.1 0.1-0.3 0-0.3-0.2l0.4-1.1q0-0.2-0.1-0.2l-0.9-0.7c-0.2-0.1-0.1-0.4 0.1-0.4h1.2q0.1 0 0.1-0.1l0.4-1.1c0.1-0.2 0.3-0.2 0.3 0z"/>
								<path id="&lt;Path&gt;" class="s8" d="m86.2 95l0.4 1.1q0 0.1 0.1 0.1h1.2c0.2 0 0.3 0.3 0.1 0.4l-0.9 0.7q-0.1 0-0.1 0.2l0.4 1.1c0 0.2-0.2 0.3-0.3 0.2l-1-0.7q-0.1-0.1-0.2 0l-1 0.7c-0.1 0.1-0.3 0-0.2-0.2l0.3-1.1q0.1-0.2 0-0.2l-1-0.7c-0.1-0.1-0.1-0.4 0.1-0.4h1.2q0.1 0 0.2-0.1l0.4-1.1c0-0.2 0.2-0.2 0.3 0z"/>
								<path id="&lt;Path&gt;" class="s8" d="m81.5 95l0.4 1.1q0.1 0.1 0.2 0.1h1.2c0.2 0 0.2 0.3 0.1 0.4l-1 0.7q-0.1 0 0 0.2l0.3 1.1c0.1 0.2-0.1 0.3-0.2 0.2l-1-0.7q-0.1-0.1-0.2 0l-1 0.7c-0.1 0.1-0.3 0-0.3-0.2l0.4-1.1q0-0.2-0.1-0.2l-0.9-0.7c-0.2-0.1-0.1-0.4 0.1-0.4h1.2q0.1 0 0.1-0.1l0.4-1.1c0.1-0.2 0.3-0.2 0.3 0z"/>
								<path id="&lt;Path&gt;" class="s12" d="m95.7 95l0.4 1.1q0 0.1 0.1 0.1h1.2c0.2 0 0.3 0.3 0.1 0.4l-0.9 0.7q-0.1 0-0.1 0.2l0.4 1.1c0 0.2-0.2 0.3-0.3 0.2l-1-0.7q-0.1-0.1-0.2 0l-0.9 0.7c-0.2 0.1-0.4 0-0.3-0.2l0.3-1.1q0.1-0.2 0-0.2l-1-0.7c-0.1-0.1-0.1-0.4 0.1-0.4h1.2q0.1 0 0.2-0.1l0.4-1.1c0-0.2 0.2-0.2 0.3 0z"/>
								<path id="&lt;Path&gt;" class="s12" d="m100.3 95l0.4 1.1q0.1 0.1 0.2 0.1h1.2c0.2 0 0.2 0.3 0.1 0.4l-1 0.7q-0.1 0 0 0.2l0.3 1.1c0.1 0.2-0.1 0.3-0.2 0.2l-1-0.7q-0.1-0.1-0.2 0l-1 0.7c-0.1 0.1-0.3 0-0.3-0.2l0.4-1.1q0-0.2-0.1-0.2l-0.9-0.7c-0.2-0.1-0.1-0.4 0.1-0.4h1.2q0.1 0 0.1-0.1l0.4-1.1c0.1-0.2 0.3-0.2 0.3 0z"/>
							</g>
							<circle id="&lt;Path&gt;" class="s12" cx="69.1" cy="92.9" r="5.9"/>
							<path id="&lt;Path&gt;" class="s12" d="m88.8 90.8h-8.8c-0.4 0-0.7-0.3-0.7-0.7v-1.8c0-0.4 0.3-0.7 0.7-0.7h8.8c0.4 0 0.7 0.3 0.7 0.7v1.8c0 0.4-0.3 0.7-0.7 0.7z"/>
							<g id="&lt;Group&gt;">
								<g id="&lt;Group&gt;">
									<path id="&lt;Path&gt;" class="s8" d="m72.2 96.8h-0.6v-1.5c0-1.4-1.1-2.5-2.5-2.5-1.3 0-2.4 1.1-2.4 2.5v1.5h-0.7v-1.5c0-1.7 1.4-3.1 3.1-3.1 1.8 0 3.1 1.4 3.1 3.1z"/>
								</g>
								<circle id="&lt;Path&gt;" class="s5" cx="69.1" cy="90.9" r="2.5"/>
							</g>
						</g>
						<g id="&lt;Group&gt;">
							<path id="&lt;Path&gt;" class="s26" d="m45.4 197.6q-0.2 0.7 0.1 1.7 0.3 1-4.6 1.3-0.3-1.3 0.5-2.6 0.8-1.2 0.8-2.1z"/>
							<path id="&lt;Path&gt;" class="s19" d="m47.5 139.3c2.8 8.6 3.8 20.9 3.9 26 0.2 4.4-3.3 19.3-5.9 32.4-1.2 0.5-3 0.4-3.7-0.5q1-23.6 1-28.9c0-5.4-4.6-14.1-5.5-28z"/>
							<path id="&lt;Path&gt;" class="s8" d="m45.7 199.2c2 0.6 5.7 2.5 5.7 3.9-3.6 0.2-7.3 0-11.2 0q-0.7-1.6 0.4-3.4 2.7 0.9 5.1-0.5z"/>
						</g>
						<g id="&lt;Group&gt;">
							<path id="&lt;Path&gt;" class="s26" d="m19.7 193.5q-0.5 0.6-0.5 1.7 0 1-4.8-0.5 0.3-1.4 1.4-2.3 1.2-0.8 1.5-1.6z"/>
							<path id="&lt;Path&gt;" class="s19" d="m42.2 140.1c-0.4 9.1-3.9 20.9-5.5 25.7-1.5 4.2-9.9 16.7-16.9 27.9-1.4 0-3-0.8-3.3-1.9q9.2-21.5 11.1-26.5c1.9-5 0.7-14.9 4.8-28.1z"/>
							<path id="&lt;Path&gt;" class="s8" d="m19.4 195.1c1.7 1.4 4.5 4.5 4 5.9-3.4-1.2-6.9-2.8-10.4-4.3q-0.1-1.7 1.5-3.1 2.2 2 4.9 1.5z"/>
						</g>
						<path id="&lt;Path&gt;" class="s12" d="m49.1 144.7c-1.4 0.2-3.6-0.1-5.9-0.8-5-1.3-10.8-4.3-11.8-6.5 5.3-12.3 6.9-26.4 11.7-28.1 3.7-0.5 11.7 2.5 15.6 6.2q0.2 0.2 0.4 0.4-0.7 2.5-1.4 4.9-0.3 1.2-0.6 2.4c-2.6 8.8-5.2 16.6-8 21.5z"/>
						<g id="&lt;Group&gt;">
							<path id="&lt;Path&gt;" class="s26" d="m48.9 110.1c1-0.8 0.9-2.1 1.4-3.4l4.2 1.5c-0.5 1.3-0.7 2.4-0.7 4-0.5 0.4-4.9-1.2-4.9-2.1z"/>
						</g>
						<g id="&lt;Group&gt;">
							<path id="&lt;Path&gt;" class="s26" d="m48.3 99.2l8.6-0.7c0.4 3-0.2 8.5-1.4 10.4-1.2 1-3.5 0.4-5.8-0.2z"/>
						</g>
						<path id="&lt;Path&gt;" class="s28" d="m47.1 99.7c-0.3-1.2 0.3-4.3 3.8-4.2 1.1-0.7 2.9-1.7 5.4-0.2 1.9-0.8 2.7 2.3 1.3 4.5-0.2 1.2-2 1.3-3.9 1.4l0.9 2.1-0.6 0.9c-0.4-0.5-0.8-0.9-1.2-1.1-0.6 0.3-1 0.7-0.7 1.3 0.1 0.7 1.1 1.4 2 1.9 1.2 0.8-0.1 3.4-2.4 2.9-2.4-0.5-2.6-0.9-3.7-1.5-2.9-2.2-3.3-7.1-0.9-8z"/>
						<g id="&lt;Group&gt;">
							<path id="&lt;Path&gt;" class="s12" d="m73.1 121.8c-1.2 1.6-13 1.6-16 1.4l0.5-2.4 1.1-5.3h0.1l10.4 1.9 4.3-15.7 2.7 0.4c0 5.3-0.3 10.5-1.2 14.6q0 0 0 0c-0.5 2-1.1 3.8-1.9 5.1z"/>
							<path id="&lt;Path&gt;" class="s26" d="m73.5 101.6q-1.2-1.6-0.8-1.9c0.3-0.4 0.6 0.4 1.1 0.2 0.4-0.2-1-1.6-0.2-2.3 0.8-0.6 3.8-0.1 4.1 1.4q0.2 1.4-1.5 3.1z"/>
						</g>
						<path id="&lt;Path&gt;" class="s24" d="m73.1 121.8c-1.2 1.6-13 1.6-16 1.4-2.6 8.8-5.2 16.6-8 21.5-1.4 0.2-3.6-0.1-5.9-0.8q0-0.1 0-0.3c0-2.7 1.2-5.3 3.2-7.1 0.9-0.7 1.8-1.2 2.7-1.9 3.8-3 5.3-8.1 5.4-12.9 0-0.8-0.1-1.7-0.8-2.1 1.3 0.6 2.6 0.9 3.9 1.2q0.1 0 0.1 0c1.4 0.3 2.8 0.4 4.2 0.5 2.4 0.1 5 0.1 7.4-0.6 2.1-0.7 3.9-2 5.4-3.7q0.2-0.2 0.3-0.3c-0.5 2-1.1 3.8-1.9 5.1z"/>
						<path id="&lt;Path&gt;" class="s24" d="m51.4 203.1c-2.2 0.1-4.4 0.1-6.7 0 1.4-0.1 3.2-0.5 1.4-1.9q-0.8-0.7-1.4-1.2-0.1-0.1-0.2-0.3c-0.5-0.5-0.8-1-0.9-1.7 0-0.4 0-0.8 0-1.3 0.1-1.1 0.3-2.5 0.8-4.6 1.4-6.3 6.9-26.8 3.9-34.3q-2.9-7.6-5.1-13.6 3.1 1.5 5.8 0.8c1.7 7.7 2.3 16.3 2.4 20.3 0.2 4.4-3.3 19.3-5.9 32.4q-0.1 0-0.2 0.1c0 0.2 0 0.8 0.2 1.5q0.1-0.1 0.2-0.1c2 0.6 5.7 2.5 5.7 3.9z"/>
						<path id="&lt;Path&gt;" class="s24" d="m19.6 193.7c-0.1 0.2-0.4 0.7-0.4 1.5q0.1 0 0.2-0.1c1.7 1.4 4.5 4.5 4 5.9-2.1-0.8-4.2-1.6-6.3-2.6 1.5-0.1 2.2-0.9 1.6-2.9q0-0.1-0.1-0.3-0.2-0.4-0.4-0.9-0.2-0.4-0.1-1 0.1-0.5 0.3-1.2c2.7-7.8 20.7-30.3 20.1-41q0.7 1.7 1.2 4.3c-1.1 4.3-2.2 8.2-3 10.4-1.5 4.2-9.9 16.7-16.9 27.9q-0.1 0-0.2 0z"/>
						<path id="&lt;Path&gt;" class="s24" d="m17.5 202.3c3.2 0 5.9 0.4 5.9 0.9 0 0.5-2.7 0.9-5.9 0.9-3.3 0-6-0.4-6-0.9 0-0.5 2.7-0.9 6-0.9z"/>
					</g>
					<g id="&lt;Group&gt;">
						<g id="&lt;Group&gt;">
							<path id="&lt;Path&gt;" class="s8" d="m95.6 158.4l-1.1 2.1-5.4 10.4-0.5-3.4-3.2 1.9 5.4-10.3 1.1-2.2z"/>
							<path id="&lt;Path&gt;" class="s8" d="m103.9 169.4l-2.9-1.9-1.2 3.4-3.2-10.4-0.6-2.1 4-1.5 0.7 2.2z"/>
							<path id="&lt;Path&gt;" class="s12" d="m105.1 152.2c-0.3 2.8-2 5.4-4.4 6.9-1.3 0.8-2.6 1.3-4.1 1.4q-0.5 0.1-1 0.1-0.6 0-1.1-0.1c-1.4-0.1-2.7-0.6-3.7-1.4-1.5-1.1-2.5-2.6-2.9-4.5q-0.3-1.2-0.1-2.4c0.5-4.7 4.8-8.4 9.5-8.4 3.4 0 6 1.8 7.2 4.4 0.5 1.2 0.8 2.5 0.6 4z"/>
							<ellipse id="&lt;Path&gt;" class="s19" cx="96.5" cy="152.2" rx="5.8" ry="5.6"/>
							<path id="&lt;Path&gt;" class="s12" d="m97.2 149.3l0.4 1.8c0 0.1 0.1 0.2 0.2 0.2h1.9c0.3 0 0.4 0.3 0.1 0.4l-1.6 1.1c-0.1 0.1-0.2 0.2-0.1 0.3l0.4 1.8c0 0.2-0.3 0.4-0.5 0.3l-1.4-1.1c-0.1-0.1-0.2-0.1-0.3 0l-1.7 1.1c-0.2 0.1-0.5-0.1-0.4-0.3l0.8-1.8c0-0.1 0-0.2-0.1-0.3l-1.4-1.1c-0.2-0.1-0.1-0.4 0.2-0.4h1.9c0.1 0 0.2-0.1 0.3-0.2l0.8-1.8c0.1-0.2 0.4-0.2 0.5 0z"/>
						</g>
						<path id="&lt;Path&gt;" class="s29" d="m103.9 169.4l-2.9-1.9-1.2 3.4-3.2-10.4q-0.5 0.1-1 0.1-0.6 0-1.1-0.1l-5.4 10.4-0.5-3.4-3.2 1.9 5.4-10.3c-1.5-1.1-2.5-2.6-2.9-4.5q0 0 0 0.1c1.1 1.3 2.8 2.2 4.6 2.2q0.2 0 0.3 0c1.3-0.1 2.7-0.7 3.3-1.8 0.2-0.4 0.3-0.7 0.3-1 0.1-1.2-0.3-2.5 0.2-3.6 0.2-0.3 0.4-0.6 0.7-0.9 0.3-0.4 0.9-0.7 1.4-0.9 0.7-0.3 1.5-0.4 2.3-0.5q0.2 0 0.4 0c1 0 2.1 0 3.1 0 0.5 1.2 0.8 2.5 0.6 4-0.3 2.8-2 5.4-4.4 6.9z"/>
					</g>
				</g>
			</g>
		</g>
	</g>
</svg>