<svg version="1.2" xmlns="http://www.w3.org/2000/svg" viewBox="0 0 300 225" width="1000" height="750">
	<title>Illustration_Interview Recruitment-ai</title>
	<defs>
		<linearGradient id="g1" x1="262.5" y1="-14.7" x2="307.9" y2="188.2" gradientUnits="userSpaceOnUse">
			<stop offset="0" stop-color="#7035bb"/>
			<stop offset="1" stop-color="#36164d"/>
		</linearGradient>
		<linearGradient id="g2" x1="278.8" y1="57.9" x2="246.2" y2="222.3" gradientUnits="userSpaceOnUse">
			<stop offset="0" stop-color="#ffffff"/>
			<stop offset="1" stop-color="#000000"/>
		</linearGradient>
		<linearGradient id="g3" x1="270.3" y1="24" x2="335.7" y2="207.3" gradientUnits="userSpaceOnUse">
			<stop offset="0" stop-color="#ffffff"/>
			<stop offset="1" stop-color="#000000"/>
		</linearGradient>
		<linearGradient id="g4" x1="258.2" y1="128.6" x2="267" y2="193.9" gradientUnits="userSpaceOnUse">
			<stop offset="0" stop-color="#ffffff"/>
			<stop offset="1" stop-color="#000000"/>
		</linearGradient>
		<clipPath clipPathUnits="userSpaceOnUse" id="cp1">
			<path d="m268.99 40.61c-5.05 21.3-53.03 37.66-43.03 65.08 1.88 5.13 5.81 10.68 12.47 16.72 4 3.64 7.25 7.37 9.88 11.13q0.22 0.3 0.43 0.61 0.68 1.01 1.29 2.03 0.32 0.49 0.62 0.99 0.52 0.9 0.99 1.8 0.33 0.61 0.65 1.22 0.4 0.82 0.76 1.64 0.33 0.69 0.62 1.38 0.31 0.77 0.59 1.53 0.28 0.74 0.54 1.48 0.23 0.73 0.44 1.45 0.24 0.77 0.44 1.55 0.18 0.69 0.32 1.38 0.18 0.79 0.33 1.59 0.12 0.66 0.21 1.33 0.13 0.81 0.22 1.61 0.07 0.64 0.11 1.29 0.07 0.81 0.1 1.61 0.02 0.63 0.02 1.26 0.01 0.8-0.01 1.59-0.03 0.63-0.07 1.24-0.05 0.79-0.13 1.56-0.06 0.62-0.15 1.23-0.1 0.76-0.23 1.52-0.11 0.61-0.23 1.21-0.15 0.74-0.33 1.47-0.15 0.6-0.32 1.2-0.19 0.7-0.41 1.4-0.19 0.6-0.4 1.19-0.24 0.67-0.49 1.33-0.24 0.6-0.48 1.19-0.28 0.64-0.57 1.26-0.27 0.59-0.56 1.17-0.3 0.59-0.62 1.18-0.32 0.58-0.65 1.16-0.33 0.55-0.67 1.09-0.36 0.58-0.74 1.14-0.34 0.51-0.7 1.01-0.41 0.57-0.83 1.12-0.36 0.47-0.74 0.92-0.44 0.56-0.9 1.09-0.38 0.43-0.77 0.84-0.48 0.54-0.99 1.06-0.38 0.38-0.78 0.75-0.53 0.52-1.07 1.01-0.39 0.35-0.8 0.68-0.56 0.49-1.14 0.95-0.4 0.31-0.81 0.61-0.6 0.45-1.21 0.88-0.42 0.28-0.83 0.54-0.63 0.42-1.27 0.81-0.43 0.25-0.87 0.49-0.64 0.36-1.28 0.7-0.47 0.23-0.94 0.44-0.63 0.31-1.28 0.6-0.54 0.22-1.09 0.42-0.58 0.23-1.17 0.45-1.14 0.39-2.3 0.7c-46.57 12.32-81.58-24.86-107.44-4.63-48.72 38.08-102.95 22.91-97.97-0.58q0.34-1.58 0.79-3.18 0.16-0.53 0.32-1.06 0.33-1.09 0.7-2.2 0.22-0.63 0.45-1.27 0.37-1.02 0.76-2.05 0.28-0.69 0.56-1.39 0.41-0.99 0.84-1.99 0.32-0.74 0.65-1.48 0.43-0.96 0.87-1.93 0.38-0.82 0.78-1.65 0.39-0.82 0.79-1.65 0.51-1.05 1.04-2.12 0.16-0.3 0.31-0.61 1.5-2.99 3.09-6.08c2.13-4.1 4.35-8.33 6.5-12.66q0.09-0.19 0.19-0.38 0.57-1.15 1.14-2.32 0.29-0.61 0.59-1.23 0.67-1.4 1.32-2.82 0.46-0.99 0.9-1.99 0.31-0.7 0.62-1.4 0.49-1.13 0.97-2.28 0.23-0.54 0.45-1.07 0.68-1.66 1.32-3.33 0.16-0.44 0.33-0.89 0.5-1.35 0.97-2.7 0.17-0.5 0.34-1 1.2-3.56 2.13-7.19 0.11-0.44 0.21-0.87 0.38-1.52 0.69-3.06 0.08-0.35 0.15-0.71 0.38-1.87 0.66-3.77 0.03-0.22 0.06-0.44 0.23-1.67 0.39-3.35 0.04-0.44 0.08-0.88 0.15-1.8 0.21-3.61 0.01-0.1 0.01-0.21 0.05-1.95-0.02-3.91-0.01-0.4-0.03-0.79-0.07-1.62-0.23-3.25-0.04-0.41-0.08-0.83-0.21-1.98-0.56-3.98-0.02-0.11-0.04-0.22-0.34-1.85-0.79-3.72-0.13-0.5-0.26-1-0.43-1.69-0.98-3.39-0.1-0.33-0.2-0.66-0.66-2-1.48-4.02-0.18-0.44-0.37-0.88-0.68-1.61-1.46-3.24-0.27-0.55-0.54-1.11-1.01-2.03-2.18-4.08-0.44-0.73-0.81-1.43-0.22-0.43-0.43-0.85-0.51-0.95-0.97-1.89-0.35-0.72-0.67-1.43-0.43-0.93-0.82-1.86-0.28-0.69-0.54-1.38-0.36-0.92-0.67-1.83-0.23-0.67-0.43-1.33-0.28-0.9-0.52-1.79-0.17-0.66-0.32-1.3-0.21-0.88-0.38-1.75-0.12-0.63-0.21-1.26-0.14-0.85-0.24-1.69-0.06-0.62-0.11-1.24-0.07-0.82-0.1-1.62-0.01-0.61-0.01-1.22 0-0.78 0.03-1.55 0.04-0.6 0.09-1.19 0.06-0.75 0.15-1.48 0.09-0.58 0.19-1.16 0.12-0.71 0.27-1.41 0.14-0.57 0.29-1.13 0.17-0.68 0.38-1.34 0.18-0.55 0.39-1.1 0.22-0.64 0.47-1.26 0.23-0.54 0.49-1.07 0.27-0.59 0.57-1.17 0.28-0.53 0.58-1.03 0.32-0.56 0.66-1.11 0.33-0.5 0.68-0.99 0.36-0.52 0.74-1.02 0.38-0.48 0.78-0.95 0.39-0.48 0.81-0.94 0.42-0.45 0.87-0.89 0.43-0.45 0.88-0.88 0.47-0.43 0.96-0.83 0.46-0.41 0.95-0.8 0.51-0.4 1.04-0.78 0.5-0.37 1.01-0.73 0.55-0.36 1.12-0.7 0.53-0.34 1.08-0.66 0.59-0.33 1.2-0.64 0.55-0.3 1.12-0.58 0.63-0.3 1.27-0.57 0.59-0.27 1.18-0.51 0.66-0.26 1.33-0.49 0.61-0.23 1.24-0.44 0.68-0.22 1.38-0.41 0.64-0.19 1.29-0.37 0.71-0.17 1.44-0.32 0.66-0.16 1.34-0.3 0.73-0.13 1.47-0.24 0.7-0.12 1.4-0.22 0.74-0.08 1.49-0.15 0.73-0.08 1.47-0.14 0.76-0.05 1.53-0.07 0.75-0.04 1.5-0.06 0.79 0 1.59 0.02 0.75 0 1.51 0.02 0.84 0.05 1.68 0.12 0.74 0.04 1.48 0.1 0.95 0.1 1.9 0.24 0.66 0.07 1.32 0.16 1.62 0.25 3.26 0.58c11.61 2.36 23.95 8.25 35.49 18.36 30.08 26.34 59.45-0.44 85.56-17.65 17-11.23 39.27-7.04 51.35 3.04 6.44 5.38 9.98 12.46 8.24 19.79z"/>
		</clipPath>
		<linearGradient id="g5" x1="251.9" y1="87.1" x2="297.5" y2="94.9" gradientUnits="userSpaceOnUse">
			<stop offset="0" stop-color="#ffffff"/>
			<stop offset="1" stop-color="#000000"/>
		</linearGradient>
		<linearGradient id="g6" x1="225.9" y1="106.1" x2="260.8" y2="137.7" gradientUnits="userSpaceOnUse">
			<stop offset="0" stop-color="#ffffff"/>
			<stop offset="1" stop-color="#000000"/>
		</linearGradient>
		<linearGradient id="g7" x1="282" y1="131.9" x2="242.2" y2="137.4" gradientUnits="userSpaceOnUse">
			<stop offset="0" stop-color="#ffffff"/>
			<stop offset="1" stop-color="#000000"/>
		</linearGradient>
		<linearGradient id="g8" x1="27.7" y1="161.8" x2="18.9" y2="194.8" gradientUnits="userSpaceOnUse">
			<stop offset="0" stop-color="#ffffff"/>
			<stop offset="1" stop-color="#000000"/>
		</linearGradient>
		<linearGradient id="g9" x1="-1.2" y1="206.8" x2="22.5" y2="187.4" gradientUnits="userSpaceOnUse">
			<stop offset="0" stop-color="#ffffff"/>
			<stop offset="1" stop-color="#000000"/>
		</linearGradient>
		<linearGradient id="g10" x1="128.6" y1="48.5" x2="177.1" y2="50.5" gradientUnits="userSpaceOnUse">
			<stop offset="0" stop-color="#ffffff"/>
			<stop offset="1" stop-color="#000000"/>
		</linearGradient>
		<linearGradient id="g11" x1="210.6" y1="130.2" x2="230.7" y2="154.2" gradientUnits="userSpaceOnUse">
			<stop offset="0" stop-color="#ffffff"/>
			<stop offset="1" stop-color="#000000"/>
		</linearGradient>
		<linearGradient id="g12" x1="240.8" y1="122.2" x2="273.5" y2="156.2" gradientUnits="userSpaceOnUse">
			<stop offset="0" stop-color="#ffffff"/>
			<stop offset="1" stop-color="#000000"/>
		</linearGradient>
		<linearGradient id="g13" x1="11.2" y1="74.8" x2="49.1" y2="74.8" gradientUnits="userSpaceOnUse">
			<stop offset="0" stop-color="#ffffff"/>
			<stop offset="1" stop-color="#000000"/>
		</linearGradient>
		<linearGradient id="g14" x1="177.2" y1="35.1" x2="227.1" y2="35.1" gradientUnits="userSpaceOnUse">
			<stop offset="0" stop-color="#ffffff"/>
			<stop offset="1" stop-color="#000000"/>
		</linearGradient>
		<linearGradient id="g15" x1="33.2" y1="179.2" x2="52" y2="179.2" gradientUnits="userSpaceOnUse">
			<stop offset="0" stop-color="#ffffff"/>
			<stop offset="1" stop-color="#000000"/>
		</linearGradient>
		<linearGradient id="g16" x1="64" y1="165.4" x2="70" y2="180.3" gradientUnits="userSpaceOnUse">
			<stop offset="0" stop-color="#ffffff"/>
			<stop offset="1" stop-color="#000000"/>
		</linearGradient>
		<linearGradient id="g17" x1="95.4" y1="74.2" x2="108.6" y2="74.2" gradientUnits="userSpaceOnUse">
			<stop offset="0" stop-color="#ffffff"/>
			<stop offset="1" stop-color="#000000"/>
		</linearGradient>
		<linearGradient id="g18" x1="66.3" y1="29.7" x2="87.9" y2="29.7" gradientUnits="userSpaceOnUse">
			<stop offset="0" stop-color="#ffffff"/>
			<stop offset="1" stop-color="#000000"/>
		</linearGradient>
	</defs>
	<style>
		.s0 { fill: url(#g1) } 
		.s1 { opacity: .5;mix-blend-mode: overlay;fill: url(#g2) } 
		.s2 { opacity: .5;mix-blend-mode: overlay;fill: url(#g3) } 
		.s3 { opacity: .5;mix-blend-mode: overlay;fill: url(#g4) } 
		.s4 { fill: #ffffff } 
		.s5 { fill: #7035bb } 
		.s6 { mix-blend-mode: overlay;fill: url(#g5) } 
		.s7 { fill: #ff4777 } 
		.s8 { mix-blend-mode: overlay;fill: url(#g6) } 
		.s9 { mix-blend-mode: overlay;fill: url(#g7) } 
		.s10 { fill: #f3effe } 
		.s11 { mix-blend-mode: overlay;fill: url(#g8) } 
		.s12 { mix-blend-mode: overlay;fill: url(#g9) } 
		.s13 { fill: #36164d } 
		.s14 { fill: #37174a } 
		.s15 { opacity: .5;mix-blend-mode: overlay;fill: url(#g10) } 
		.s16 { opacity: .5;mix-blend-mode: overlay;fill: url(#g11) } 
		.s17 { opacity: .5;mix-blend-mode: overlay;fill: url(#g12) } 
		.s18 { opacity: .5;mix-blend-mode: overlay;fill: url(#g13) } 
		.s19 { opacity: .5;mix-blend-mode: overlay;fill: url(#g14) } 
		.s20 { fill: #fbd783 } 
		.s21 { opacity: .1;fill: #000000 } 
		.s22 { opacity: .5;mix-blend-mode: overlay;fill: url(#g15) } 
		.s23 { opacity: .5;mix-blend-mode: overlay;fill: url(#g16) } 
		.s24 { fill: #2a195b } 
		.s25 { opacity: .5;mix-blend-mode: overlay;fill: url(#g17) } 
		.s26 { opacity: .5;mix-blend-mode: overlay;fill: url(#g18) } 
	</style>
	<g id="Layer 1">
		<g id="&lt;Group&gt;">
			<g id="Interview Recruitment 1 ">
				<g id="&lt;Group&gt;">
					<g id="&lt;Group&gt;">
						<path id="&lt;Path&gt;" class="s0" d="m269 40.6c-5.1 21.3-53 37.7-43 65.1 1.8 5.1 5.8 10.7 12.4 16.7q1.6 1.5 3.1 2.9c30.2 30.8 11.1 66.7-13.3 73.2-46.6 12.3-81.6-24.9-107.5-4.6-48.7 38-102.9 22.9-98-0.6 1.9-8.8 6.7-18.4 12-28.7 13.8-26.7 31.3-58.1 11-93.2q-0.4-0.8-0.8-1.5c-19.6-35.7 8.6-60 43.4-52.8 11.7 2.3 24 8.2 35.5 18.3 30.1 26.4 59.5-0.4 85.6-17.6 17-11.2 39.3-7.1 51.3 3 6.5 5.4 10 12.5 8.3 19.8z"/>
						<path id="&lt;Path&gt;" class="s1" d="m228.2 198.5c-46.6 12.3-81.6-24.9-107.5-4.6-48.7 38-102.9 22.9-98-0.6 6.7-31.6 51.2-73.3 23-121.9-21.2-36.6 7.4-61.6 42.6-54.3-1.1 4.4-1.9 9-1.7 14 0.3 10.2 3.1 20.3 8 29.2 10.3 18.7 28.3 32.1 47.2 42 14.6 7.6 30.5 13.6 47 14.1 4.6 0.2 9.4-0.1 13.8-1.4 4.6-1.3 8.9-3.7 13.3-5.7 3.2-1.4 6.6-2.7 10.1-3.6 1.8 5.1 5.8 10.7 12.4 16.7 34.5 31.3 15 69.4-10.2 76.1z"/>
						<path id="&lt;Path&gt;" class="s2" d="m269 40.6c-5.1 21.3-53 37.7-43 65.1 1.8 5.1 5.8 10.7 12.4 16.7 34.5 31.3 15 69.4-10.2 76.1-46.6 12.3-81.6-24.9-107.5-4.6-48.7 38-102.9 22.9-98-0.6 6.7-31.6 51.2-73.3 23-121.9q-0.4-0.8-0.8-1.5c3.8 1.2 7.4 2.8 10.8 4.6 11.1 6 20.5 14.6 30.5 22.1 5.4 4 11.1 7.7 17.5 9.7 10.9 3.3 22.7 1.1 33.6-1.9 13.4-3.7 26.7-8.8 37.1-18 10-9 16.5-21.1 25.1-31.4 7.8-9.4 17.6-17.3 28.4-23.1 9.5-5.1 19.8-8.7 30.4-10.6 0.7-0.2 1.5-0.3 2.4-0.5 6.5 5.4 10 12.5 8.3 19.8z"/>
						<path id="&lt;Path&gt;" class="s3" d="m228.2 198.5c-46.6 12.3-81.6-24.9-107.5-4.6-48.7 38-102.9 22.9-98-0.6 1.9-8.8 6.7-18.4 12-28.7 5.1-1.9 10.6-2.7 16.1-3.5 6.5-0.9 13-1.8 19.5-1.2 13.1 1.2 24.9 8.1 37.5 11.8 19.2 5.9 40 4.2 59.8 0.6 8.4-1.5 16.8-3.4 24.5-7.2 7.1-3.6 13.3-8.7 19.2-14q9-8 17.5-16.6c2.5-2.6 5-5.2 8-7.1q2.2-1.3 4.7-2.1c30.2 30.8 11.1 66.7-13.3 73.2z"/>
					</g>
					<g id="&lt;Clip Group&gt;" clip-path="url(#cp1)">
						<g id="&lt;Group&gt;" style="opacity: .5;mix-blend-mode: overlay">
							<g id="&lt;Group&gt;">
								<g id="&lt;Group&gt;">
									<path id="&lt;Compound Path&gt;" fill-rule="evenodd" class="s4" d="m147 123.2l0.7-6.2 5.3-7.3-0.7 6.2h-0.1zm1.1-6l-0.5 4.5 4.3-5.9 0.5-4.6z"/>
								</g>
							</g>
							<g id="&lt;Group&gt;">
								<g id="&lt;Group&gt;">
									<path id="&lt;Compound Path&gt;" fill-rule="evenodd" class="s4" d="m146.5 123.7l1.2-6.9 5.8-7.5-1.3 6.8zm1.6-6.6l-0.9 5 4.7-6.2 0.9-5z"/>
								</g>
							</g>
							<g id="&lt;Group&gt;">
								<g id="&lt;Group&gt;">
									<path id="&lt;Compound Path&gt;" fill-rule="evenodd" class="s4" d="m146 124.1l1.8-7.4 6.2-7.9-1.8 7.4zm2.2-7.1l-1.4 5.5 5.1-6.4 1.3-5.5z"/>
								</g>
							</g>
							<g id="&lt;Group&gt;">
								<g id="&lt;Group&gt;">
									<path id="&lt;Compound Path&gt;" fill-rule="evenodd" class="s4" d="m145.4 124.5l2.4-8 6.8-8.1-2.4 8zm2.7-7.7l-1.8 6 5.6-6.6 1.7-6z"/>
								</g>
							</g>
							<g id="&lt;Group&gt;">
								<g id="&lt;Group&gt;">
									<path id="&lt;Compound Path&gt;" fill-rule="evenodd" class="s4" d="m144.8 124.9l3-8.6 7.3-8.3-2.9 8.6zm3.3-8.3l-2.3 6.5 6-6.7 2.2-6.6z"/>
								</g>
							</g>
							<g id="&lt;Group&gt;">
								<g id="&lt;Group&gt;">
									<path id="&lt;Compound Path&gt;" fill-rule="evenodd" class="s4" d="m144.3 125.3l3.6-9.2 7.8-8.5-3.6 9.2zm4-8.9l-2.8 7 6.4-6.8 2.7-7.1z"/>
								</g>
							</g>
							<g id="&lt;Group&gt;">
								<g id="&lt;Group&gt;">
									<path id="&lt;Compound Path&gt;" fill-rule="evenodd" class="s4" d="m143.6 125.6l4.3-9.7 8.4-8.6-4.2 9.7zm4.6-9.5l-3.4 7.6 6.9-7 3.3-7.6z"/>
								</g>
							</g>
							<g id="&lt;Group&gt;">
								<g id="&lt;Group&gt;">
									<path id="&lt;Compound Path&gt;" fill-rule="evenodd" class="s4" d="m143 126l5-10.3 9-8.8-5 10.3zm5.3-10l-4 8.1 7.3-7.1 3.9-8.1z"/>
								</g>
							</g>
							<g id="&lt;Group&gt;">
								<g id="&lt;Group&gt;">
									<path id="&lt;Compound Path&gt;" fill-rule="evenodd" class="s4" d="m142.4 126.3l5.7-10.9 9.5-8.8-5.7 10.9zm6-10.6l-4.6 8.7 7.8-7.2 4.5-8.6z"/>
								</g>
							</g>
							<g id="&lt;Group&gt;">
								<g id="&lt;Group&gt;">
									<path id="&lt;Compound Path&gt;" fill-rule="evenodd" class="s4" d="m141.8 126.6l6.4-11.4 10-8.8-6.4 11.3zm6.7-11.1l-5.2 9.2 8.2-7.1 5.2-9.2z"/>
								</g>
							</g>
							<g id="&lt;Group&gt;">
								<g id="&lt;Group&gt;">
									<path id="&lt;Compound Path&gt;" fill-rule="evenodd" class="s4" d="m141.1 126.8l7.3-11.9 10.5-8.8-7.3 11.9zm7.6-11.6l-6 9.8 8.6-7.2 6-9.8z"/>
								</g>
							</g>
							<g id="&lt;Group&gt;">
								<g id="&lt;Group&gt;">
									<path id="&lt;Compound Path&gt;" fill-rule="evenodd" class="s4" d="m140.5 127l8-12.4 11-8.7-8 12.4zm8.3-12.1l-6.7 10.3 9.1-7.1 6.6-10.3z"/>
								</g>
							</g>
							<g id="&lt;Group&gt;">
								<g id="&lt;Group&gt;">
									<path id="&lt;Compound Path&gt;" fill-rule="evenodd" class="s4" d="m139.8 127.2l8.9-12.9 11.5-8.6-8.9 12.9zm9.1-12.5l-7.4 10.8 9.5-7.1 7.4-10.8z"/>
								</g>
							</g>
							<g id="&lt;Group&gt;">
								<g id="&lt;Group&gt;">
									<path id="&lt;Compound Path&gt;" fill-rule="evenodd" class="s4" d="m139.2 127.3l9.7-13.4 11.9-8.3-9.7 13.4zm10-13.1l-8.3 11.4 9.9-6.9 8.2-11.3z"/>
								</g>
							</g>
							<g id="&lt;Group&gt;">
								<g id="&lt;Group&gt;">
									<path id="&lt;Compound Path&gt;" fill-rule="evenodd" class="s4" d="m138.5 127.3l10.7-13.7 12.2-8-10.6 13.7zm10.9-13.4l-9.1 11.8 10.3-6.7 9.1-11.8z"/>
								</g>
							</g>
							<g id="&lt;Group&gt;">
								<g id="&lt;Group&gt;">
									<path id="&lt;Compound Path&gt;" fill-rule="evenodd" class="s4" d="m137.9 127.4l11.5-14.2 12.7-7.6-11.5 14.1zm11.7-13.8l-9.9 12.2 10.6-6.4 9.9-12.3z"/>
								</g>
							</g>
							<g id="&lt;Group&gt;">
								<g id="&lt;Group&gt;">
									<path id="&lt;Compound Path&gt;" fill-rule="evenodd" class="s4" d="m137.3 127.3l12.4-14.5 13-7.2-12.4 14.5zm12.6-14.2l-10.8 12.7 10.9-6.1 10.9-12.7z"/>
								</g>
							</g>
							<g id="&lt;Group&gt;">
								<g id="&lt;Group&gt;">
									<path id="&lt;Compound Path&gt;" fill-rule="evenodd" class="s4" d="m136.7 127.2l13.3-14.7 13.2-6.8-13.2 14.8zm13.5-14.4l-11.8 13 11.3-5.7 11.7-13.1z"/>
								</g>
							</g>
							<g id="&lt;Group&gt;">
								<g id="&lt;Group&gt;">
									<path id="&lt;Compound Path&gt;" fill-rule="evenodd" class="s4" d="m136.2 127l14.1-15 13.5-6.1-14.1 15zm14.3-14.7l-12.6 13.4 11.5-5.2 12.7-13.4z"/>
								</g>
							</g>
							<g id="&lt;Group&gt;">
								<g id="&lt;Group&gt;">
									<path id="&lt;Compound Path&gt;" fill-rule="evenodd" class="s4" d="m135.7 126.8l15-15.2 13.6-5.5-15 15.2zm15.2-14.8l-13.5 13.7 11.8-4.8 13.5-13.6z"/>
								</g>
							</g>
							<g id="&lt;Group&gt;">
								<g id="&lt;Group&gt;">
									<path id="&lt;Compound Path&gt;" fill-rule="evenodd" class="s4" d="m135.2 126.4l15.9-15.2 13.7-4.7-15.9 15.2zm16.1-14.9l-14.5 13.9 12-4.1 14.4-13.9z"/>
								</g>
							</g>
							<g id="&lt;Group&gt;">
								<g id="&lt;Group&gt;">
									<path id="&lt;Compound Path&gt;" fill-rule="evenodd" class="s4" d="m134.7 126l16.8-15.2 13.8-3.9-16.8 15.2zm16.9-14.9l-15.4 14.1 12.1-3.4 15.4-14.1z"/>
								</g>
							</g>
							<g id="&lt;Group&gt;">
								<g id="&lt;Group&gt;">
									<path id="&lt;Compound Path&gt;" fill-rule="evenodd" class="s4" d="m134.3 125.6l17.6-15.3 13.8-2.9-17.6 15.2zm17.7-14.9l-16.3 14.1 12.2-2.6 16.3-14.1z"/>
								</g>
							</g>
							<g id="&lt;Group&gt;">
								<g id="&lt;Group&gt;">
									<path id="&lt;Compound Path&gt;" fill-rule="evenodd" class="s4" d="m134 125l18.4-15.1 13.6-2-18.4 15.1zm18.5-14.7l-17.1 14.1 12.1-1.7 17.2-14.1z"/>
								</g>
							</g>
							<g id="&lt;Group&gt;">
								<g id="&lt;Group&gt;">
									<path id="&lt;Compound Path&gt;" fill-rule="evenodd" class="s4" d="m133.7 124.3l0.5-0.4 18.7-14.5 13.4-0.8-0.5 0.4-18.7 14.5zm19.4-14.5l-18.1 14 12.1-0.8 18-14z"/>
								</g>
							</g>
							<g id="&lt;Group&gt;">
								<g id="&lt;Group&gt;">
									<path id="&lt;Compound Path&gt;" fill-rule="evenodd" class="s4" d="m146.6 123.9h-0.1l-13.1-0.3 0.5-0.4 19.5-14.2 13.2 0.3-0.5 0.4zm-12-0.7l11.9 0.3 18.9-13.8-11.9-0.3z"/>
								</g>
							</g>
							<g id="&lt;Group&gt;">
								<g id="&lt;Group&gt;">
									<path id="&lt;Compound Path&gt;" fill-rule="evenodd" class="s4" d="m146.1 124.4h-0.1l-12.8-1.7 20.7-14.1h0.1l12.7 1.6zm-11.7-1.9l11.6 1.5 19.7-13.5-11.6-1.5z"/>
								</g>
							</g>
							<g id="&lt;Group&gt;">
								<g id="&lt;Group&gt;">
									<path id="&lt;Compound Path&gt;" fill-rule="evenodd" class="s4" d="m145.5 124.8l-12.4-3.1 21.4-13.6 12.3 3.1zm-11.3-3.3l11.3 2.8 20.4-13-11.2-2.8z"/>
								</g>
							</g>
							<g id="&lt;Group&gt;">
								<g id="&lt;Group&gt;">
									<path id="&lt;Compound Path&gt;" fill-rule="evenodd" class="s4" d="m144.9 125.2l-11.8-4.5 0.4-0.2 21.6-12.8 11.8 4.5zm-10.9-4.6l10.8 4.2 21.1-12.5-10.7-4.2z"/>
								</g>
							</g>
							<g id="&lt;Group&gt;">
								<g id="&lt;Group&gt;">
									<path id="&lt;Compound Path&gt;" fill-rule="evenodd" class="s4" d="m144.2 125.7l-0.1-0.1-10.9-6.1 22.6-12.3v0.1l11 6.1zm-10.2-6.1l10.2 5.7 21.7-11.8-10.2-5.7z"/>
								</g>
							</g>
							<g id="&lt;Group&gt;">
								<g id="&lt;Group&gt;">
									<path id="&lt;Compound Path&gt;" fill-rule="evenodd" class="s4" d="m143.6 126.1l-10.3-7.9 23.1-11.4 10.2 7.9zm-9.4-7.8l9.5 7.3 22.2-10.9-9.5-7.4z"/>
								</g>
							</g>
							<g id="&lt;Group&gt;">
								<g id="&lt;Group&gt;">
									<path id="&lt;Compound Path&gt;" fill-rule="evenodd" class="s4" d="m142.9 126.5l-0.1-0.1-9.2-9.6 0.3-0.1 23.2-10.3 0.1 0.1 9.2 9.6-0.3 0.1zm-8.6-9.5l8.7 9 22.7-9.9-8.7-9.1z"/>
								</g>
							</g>
							<g id="&lt;Group&gt;">
								<g id="&lt;Group&gt;">
									<path id="&lt;Compound Path&gt;" fill-rule="evenodd" class="s4" d="m142.2 126.8l-0.1-0.1-8.1-11.4 23.8-9.2 0.1 0.1 8.1 11.5zm-7.6-11.4l7.8 10.9 23-8.9-7.8-10.9z"/>
								</g>
							</g>
							<g id="&lt;Group&gt;">
								<g id="&lt;Group&gt;">
									<path id="&lt;Compound Path&gt;" fill-rule="evenodd" class="s4" d="m141.5 127.2l-7-13.6 0.2-0.1 23.8-7.8 7 13.6-0.2 0.1zm-6.4-13.3l6.6 12.8 23.2-7.6-6.6-12.8z"/>
								</g>
							</g>
							<g id="&lt;Group&gt;">
								<g id="&lt;Group&gt;">
									<path id="&lt;Compound Path&gt;" fill-rule="evenodd" class="s4" d="m140.8 127.5l-5.7-15.7h0.2l23.9-6.4 5.7 15.7-0.2 0.1zm-5.2-15.4l5.4 14.9 23.4-6.2-5.4-14.9z"/>
								</g>
							</g>
							<g id="&lt;Group&gt;">
								<g id="&lt;Group&gt;">
									<path id="&lt;Compound Path&gt;" fill-rule="evenodd" class="s4" d="m140 127.7v-0.2l-4.2-17.6 24.2-4.7v0.2l4.2 17.6zm-3.7-17.5l4 17 23.3-4.5-4-17.1z"/>
								</g>
							</g>
							<g id="&lt;Group&gt;">
								<g id="&lt;Group&gt;">
									<path id="&lt;Compound Path&gt;" fill-rule="evenodd" class="s4" d="m139.3 128l-2.6-20.1 24-2.9 2.6 20.1zm-2.1-19.8l2.4 19.3 23.2-2.8-2.5-19.3z"/>
								</g>
							</g>
							<g id="&lt;Group&gt;">
								<g id="&lt;Group&gt;">
									<path id="&lt;Compound Path&gt;" fill-rule="evenodd" class="s4" d="m138.5 128.1v-0.2l-0.7-22.2h0.2l23.4-0.9v0.2l0.8 22.2h-0.2zm-0.3-22l0.7 21.6 22.9-0.8-0.8-21.7z"/>
								</g>
							</g>
							<g id="&lt;Group&gt;">
								<g id="&lt;Group&gt;">
									<path id="&lt;Compound Path&gt;" fill-rule="evenodd" class="s4" d="m161 129.6l-0.2-0.1-23-1.3v-0.2l1.2-24.6h0.2l23 1.3v0.2zm-22.8-1.7l22.4 1.2 1.1-24-22.4-1.3z"/>
								</g>
							</g>
							<g id="&lt;Group&gt;">
								<g id="&lt;Group&gt;">
									<path id="&lt;Compound Path&gt;" fill-rule="evenodd" class="s4" d="m159.6 132l-22.5-3.7v-0.2l3.2-27.2 22.6 3.7v0.2zm-22.1-4l21.7 3.5 3.2-26.6-21.8-3.5z"/>
								</g>
							</g>
							<g id="&lt;Group&gt;">
								<g id="&lt;Group&gt;">
									<path id="&lt;Compound Path&gt;" fill-rule="evenodd" class="s4" d="m158.1 134.6l-0.2-0.1-21.5-6.2 5.5-30 0.2 0.1 21.5 6.2zm-21.2-6.5l20.9 6 5.4-29.2-21-6z"/>
								</g>
							</g>
							<g id="&lt;Group&gt;">
								<g id="&lt;Group&gt;">
									<path id="&lt;Compound Path&gt;" fill-rule="evenodd" class="s4" d="m156.4 137.3l-20.7-9.1v-0.1l7.9-32.5 20.7 9.1v0.1zm-20.2-9.2l19.9 8.7 7.7-31.8-19.9-8.7z"/>
								</g>
							</g>
							<g id="&lt;Group&gt;">
								<g id="&lt;Group&gt;">
									<path id="&lt;Compound Path&gt;" fill-rule="evenodd" class="s4" d="m154.4 140.1l-19.4-12 10.5-35.3 19.5 12zm-19-12.2l18.7 11.6 10.3-34.5-18.7-11.6z"/>
								</g>
							</g>
							<g id="&lt;Group&gt;">
								<g id="&lt;Group&gt;">
									<path id="&lt;Compound Path&gt;" fill-rule="evenodd" class="s4" d="m152.3 143l-0.2-0.1-17.7-15 13.3-38 0.2 0.2 17.7 14.9zm-17.5-15.3l17.3 14.6 13.1-37.2-17.3-14.6z"/>
								</g>
							</g>
							<g id="&lt;Group&gt;">
								<g id="&lt;Group&gt;">
									<path id="&lt;Compound Path&gt;" fill-rule="evenodd" class="s4" d="m150 146.1l-16.2-18.5 16.2-40.8 16.2 18.5zm-15.7-18.6l15.6 17.9 15.9-40-15.6-17.8z"/>
								</g>
							</g>
							<g id="&lt;Group&gt;">
								<g id="&lt;Group&gt;">
									<path id="&lt;Compound Path&gt;" fill-rule="evenodd" class="s4" d="m147.5 149.3l-0.3-0.3-14-21.8v-0.1l19.3-43.5 0.2 0.4 14.1 21.7v0.1zm-13.9-22.1l13.8 21.3 19-42.7-13.8-21.3z"/>
								</g>
							</g>
							<g id="&lt;Group&gt;">
								<g id="&lt;Group&gt;">
									<path id="&lt;Compound Path&gt;" fill-rule="evenodd" class="s4" d="m144.7 152.5l-0.2-0.4-11.8-25.4v-0.1l22.6-46.2 0.2 0.4 11.8 25.4v0.1zm-11.6-25.8l11.6 24.8 22.2-45.4-11.6-24.8z"/>
								</g>
							</g>
							<g id="&lt;Group&gt;">
								<g id="&lt;Group&gt;">
									<path id="&lt;Compound Path&gt;" fill-rule="evenodd" class="s4" d="m141.7 155.9l-9.5-29.8 26.1-49.1 9.5 29.8zm-9.1-29.6l9.2 28.6 25.5-48.1-9.2-28.7z"/>
								</g>
							</g>
							<g id="&lt;Group&gt;">
								<g id="&lt;Group&gt;">
									<path id="&lt;Compound Path&gt;" fill-rule="evenodd" class="s4" d="m138.5 159.3l-0.1-0.5-6.6-33.3v-0.1l29.6-51.8 0.1 0.6 6.7 33.2v0.1zm-6.4-33.7l6.6 32.6 29-50.8-6.5-32.6z"/>
								</g>
							</g>
							<g id="&lt;Group&gt;">
								<g id="&lt;Group&gt;">
									<path id="&lt;Compound Path&gt;" fill-rule="evenodd" class="s4" d="m135.1 162.8l-3.7-38.1 0.1-0.1 33.3-54.4 3.8 38-0.1 0.1zm-3.3-38l3.6 36.7 32.7-53.3-3.6-36.8z"/>
								</g>
							</g>
							<g id="&lt;Group&gt;">
								<g id="&lt;Group&gt;">
									<path id="&lt;Compound Path&gt;" fill-rule="evenodd" class="s4" d="m131.5 166.3l-0.4-42.5 0.1-0.1 37.3-57.1 0.3 42.5v0.1zm0-42.4l0.4 41 36.5-55.9-0.3-41z"/>
								</g>
							</g>
							<g id="&lt;Group&gt;">
								<g id="&lt;Group&gt;">
									<path id="&lt;Compound Path&gt;" fill-rule="evenodd" class="s4" d="m127.7 169.8l3.3-47v-0.1l41.3-59.6-3.3 47.1zm3.7-46.9l-3.2 45.5 40.5-58.4 3.1-45.5z"/>
								</g>
							</g>
							<g id="&lt;Group&gt;">
								<g id="&lt;Group&gt;">
									<path id="&lt;Compound Path&gt;" fill-rule="evenodd" class="s4" d="m123.6 173.3l7.3-51.7 45.5-62-7.3 51.7zm7.6-51.5l-7 50 44.5-60.7 7-50z"/>
								</g>
							</g>
							<g id="&lt;Group&gt;">
								<g id="&lt;Group&gt;">
									<path id="&lt;Compound Path&gt;" fill-rule="evenodd" class="s4" d="m119.4 176.9l11.5-56.6 49.7-64.3-11.5 56.6zm11.9-56.3l-11.1 54.7 48.6-62.8 11.1-54.8z"/>
								</g>
							</g>
							<g id="&lt;Group&gt;">
								<g id="&lt;Group&gt;">
									<path id="&lt;Compound Path&gt;" fill-rule="evenodd" class="s4" d="m114.9 180.4l0.3-0.9 15.8-60.6 54.1-66.3-0.3 0.9-15.8 60.5zm16.4-61.2l-15.5 59.5 52.8-64.8 15.6-59.6z"/>
								</g>
							</g>
							<g id="&lt;Group&gt;">
								<g id="&lt;Group&gt;">
									<path id="&lt;Compound Path&gt;" fill-rule="evenodd" class="s4" d="m110.3 183.8l0.3-1 20.6-65.5 58.5-68.2-0.3 1-20.6 65.5zm21.3-66.2l-20.3 64.4 57.1-66.6 20.3-64.5z"/>
								</g>
							</g>
							<g id="&lt;Group&gt;">
								<g id="&lt;Group&gt;">
									<path id="&lt;Compound Path&gt;" fill-rule="evenodd" class="s4" d="m105.4 187.1l26.2-71.5 62.9-69.8-26.1 71.5zm26.5-71.3l-25.4 69.5 61.6-68.3 25.3-69.4z"/>
								</g>
							</g>
							<g id="&lt;Group&gt;">
								<g id="&lt;Group&gt;">
									<path id="&lt;Compound Path&gt;" fill-rule="evenodd" class="s4" d="m100.4 190.3l0.5-1 31.2-75.5 67.4-71.2-0.4 1-31.2 75.5zm32-76.3l-30.8 74.5 66-69.6 30.7-74.5z"/>
								</g>
							</g>
							<g id="&lt;Group&gt;">
								<g id="&lt;Group&gt;">
									<path id="&lt;Compound Path&gt;" fill-rule="evenodd" class="s4" d="m95.3 193.4l0.5-1 36.9-80.6 72-72.3-0.5 1-36.9 80.6zm37.7-81.4l-36.4 79.5 70.4-70.6 36.4-79.5z"/>
								</g>
							</g>
							<g id="&lt;Group&gt;">
								<g id="&lt;Group&gt;">
									<path id="&lt;Compound Path&gt;" fill-rule="evenodd" class="s4" d="m90 196.3l0.5-1 43-85.7 76.5-73-0.5 1-43 85.7zm43.8-86.5l-42.4 84.6 74.8-71.5 42.4-84.5z"/>
								</g>
							</g>
							<g id="&lt;Group&gt;">
								<g id="&lt;Group&gt;">
									<path id="&lt;Compound Path&gt;" fill-rule="evenodd" class="s4" d="m84.6 199l0.5-1 49.3-90.7 81-73.4-49.8 91.7zm50.1-91.4l-48.6 89.5 79.1-71.9 48.7-89.5z"/>
								</g>
							</g>
							<g id="&lt;Group&gt;">
								<g id="&lt;Group&gt;">
									<path id="&lt;Compound Path&gt;" fill-rule="evenodd" class="s4" d="m79.1 201.5l0.6-1 55.9-95.6 85.3-73.5-0.6 1.1-55.9 95.5zm56.8-96.3l-55.2 94.4 83.5-71.8 55.2-94.5z"/>
								</g>
							</g>
							<g id="&lt;Group&gt;">
								<g id="&lt;Group&gt;">
									<path id="&lt;Compound Path&gt;" fill-rule="evenodd" class="s4" d="m73.5 203.7l0.6-1 62.8-100.4 89.6-73.1-0.6 1.1-62.8 100.3zm63.7-101.1l-62.1 99.3 87.8-71.5 62-99.3z"/>
								</g>
							</g>
							<g id="&lt;Group&gt;">
								<g id="&lt;Group&gt;">
									<path id="&lt;Compound Path&gt;" fill-rule="evenodd" class="s4" d="m67.8 205.6l0.7-1 69.9-105.1 93.8-72.2-0.7 1-69.9 105.1zm70.9-105.8l-69.2 104 91.8-70.7 69.2-104z"/>
								</g>
							</g>
							<g id="&lt;Group&gt;">
								<g id="&lt;Group&gt;">
									<path id="&lt;Compound Path&gt;" fill-rule="evenodd" class="s4" d="m62.1 207.1l0.7-1 77.3-109.5 97.8-70.8-0.7 1-77.3 109.5zm78.2-110.2l-76.5 108.4 95.8-69.4 76.5-108.4z"/>
								</g>
							</g>
							<g id="&lt;Group&gt;">
								<g id="&lt;Group&gt;">
									<path id="&lt;Compound Path&gt;" fill-rule="evenodd" class="s4" d="m56.5 208.3l85.5-114.7 101.5-69-85.5 114.7zm85.8-114.3l-84.1 112.6 99.5-67.5 84.1-112.7z"/>
								</g>
							</g>
							<g id="&lt;Group&gt;">
								<g id="&lt;Group&gt;">
									<path id="&lt;Compound Path&gt;" fill-rule="evenodd" class="s4" d="m50.8 209l0.8-0.9 92.5-117.7 105.1-66.5-0.8 0.9-92.6 117.7zm93.6-118.3l-91.8 116.7 103-65.2 91.8-116.7z"/>
								</g>
							</g>
							<g id="&lt;Group&gt;">
								<g id="&lt;Group&gt;">
									<path id="&lt;Compound Path&gt;" fill-rule="evenodd" class="s4" d="m45.3 209.3l0.7-0.9 100.5-121.3 108.2-63.5-0.7 0.9-100.5 121.4zm101.5-121.9l-99.7 120.3 106.2-62.2 99.7-120.4z"/>
								</g>
							</g>
							<g id="&lt;Group&gt;">
								<g id="&lt;Group&gt;">
									<path id="&lt;Compound Path&gt;" fill-rule="evenodd" class="s4" d="m39.8 209l109.3-125.4 111.1-59.7-0.8 0.8-108.5 124.6zm109.5-125.1l-107.7 123.7 109.1-58.6 107.7-123.7z"/>
								</g>
							</g>
							<g id="&lt;Group&gt;">
								<g id="&lt;Group&gt;">
									<path id="&lt;Compound Path&gt;" fill-rule="evenodd" class="s4" d="m34.5 208.2l0.7-0.8 116.7-127.4 113.6-55.3-0.7 0.8-116.7 127.4zm117.6-127.9l-115.9 126.6 111.6-54.4 115.9-126.5z"/>
								</g>
							</g>
							<g id="&lt;Group&gt;">
								<g id="&lt;Group&gt;">
									<path id="&lt;Compound Path&gt;" fill-rule="evenodd" class="s4" d="m29.4 206.8l0.7-0.7 124.8-129.7 0.1-0.1 115.6-50.2-0.7 0.7-124.9 129.7v0.1zm125.8-130.2l-124.1 129 113.7-49.4 124.1-129z"/>
								</g>
							</g>
							<g id="&lt;Group&gt;">
								<g id="&lt;Group&gt;">
									<path id="&lt;Compound Path&gt;" fill-rule="evenodd" class="s4" d="m24.5 204.8l133.8-132.2 117.1-44.5-0.6 0.7-133.1 131.5zm133.9-131.8l-132.3 130.8 115.4-43.8 132.3-130.8z"/>
								</g>
							</g>
							<g id="&lt;Group&gt;">
								<g id="&lt;Group&gt;">
									<path id="&lt;Compound Path&gt;" fill-rule="evenodd" class="s4" d="m20 202.1l0.6-0.7 141.2-132.7 118.2-37.8-0.6 0.6-141.2 132.7h-0.1zm142.1-133l-140.5 132.1 116.5-37.3 140.4-132.1z"/>
								</g>
							</g>
							<g id="&lt;Group&gt;">
								<g id="&lt;Group&gt;">
									<path id="&lt;Compound Path&gt;" fill-rule="evenodd" class="s4" d="m15.7 198.6l0.6-0.5 149.3-133.3h0.1l118.6-30.5-0.7 0.6-149.2 133.2h-0.1zm150.1-133.4l-148.6 132.6 117-30 148.6-132.6z"/>
								</g>
							</g>
							<g id="&lt;Group&gt;">
								<g id="&lt;Group&gt;">
									<path id="&lt;Compound Path&gt;" fill-rule="evenodd" class="s4" d="m11.9 194.4l0.6-0.5 157.2-133.1 118.4-22.3-0.6 0.5-157.2 133.1zm157.9-133.2l-156.5 132.6 116.9-22 156.5-132.5z"/>
								</g>
							</g>
							<g id="&lt;Group&gt;">
								<g id="&lt;Group&gt;">
									<path id="&lt;Compound Path&gt;" fill-rule="evenodd" class="s4" d="m8.5 189.3l0.5-0.4 165-132.1 117.5-13.2-0.5 0.4-165 132.1v0.1zm165.6-132.2l-164.3 131.6 116.1-13 164.2-131.6z"/>
								</g>
							</g>
							<g id="&lt;Group&gt;">
								<g id="&lt;Group&gt;">
									<path id="&lt;Compound Path&gt;" fill-rule="evenodd" class="s4" d="m5.6 183.4l0.5-0.4 172.4-130.3h0.1l115.8-3.2-0.5 0.4-172.4 130.3h-0.1zm173.1-130.3l-171.8 129.9 114.5-3.2 171.8-129.9z"/>
								</g>
							</g>
							<g id="&lt;Group&gt;">
								<g id="&lt;Group&gt;">
									<path id="&lt;Compound Path&gt;" fill-rule="evenodd" class="s4" d="m116.7 184.2h-0.1l-113.3-7.6 180-127.9h0.1l113.3 7.6zm-112.3-7.9l112.2 7.5 178.9-127.2-112.1-7.5z"/>
								</g>
							</g>
							<g id="&lt;Group&gt;">
								<g id="&lt;Group&gt;">
									<path id="&lt;Compound Path&gt;" fill-rule="evenodd" class="s4" d="m111.7 188.2h-0.1l-110-19.4 0.4-0.2 186.3-123.9h0.1l110 19.4-0.4 0.2zm-109.1-19.6l109 19.2 185.7-123.5-108.9-19.2z"/>
								</g>
							</g>
							<g id="&lt;Group&gt;">
								<g id="&lt;Group&gt;">
									<path id="&lt;Compound Path&gt;" fill-rule="evenodd" class="s4" d="m106.4 192.2h-0.1l-105.7-32.1 0.4-0.2 192.6-119.2v0.1l105.8 32-0.4 0.3zm-104.9-32.3l104.8 31.8 192-118.8-104.8-31.8z"/>
								</g>
							</g>
							<g id="&lt;Group&gt;">
								<g id="&lt;Group&gt;">
									<path id="&lt;Compound Path&gt;" fill-rule="evenodd" class="s4" d="m101 196h-0.1l-100.5-45.7 0.4-0.2 198.2-113.2h0.1l100.5 45.7-0.4 0.2zm-99.6-45.8l99.6 45.3 197.7-112.9-99.6-45.3z"/>
								</g>
							</g>
							<g id="&lt;Group&gt;">
								<g id="&lt;Group&gt;">
									<path id="&lt;Compound Path&gt;" fill-rule="evenodd" class="s4" d="m95.3 199.8l-0.1-0.1-94.2-60.2 0.4-0.2 203.3-106.2 0.1 0.1 94.1 60.2-0.3 0.2zm-93.4-60.3l93.5 59.8 202.8-105.9-93.5-59.8z"/>
								</g>
							</g>
							<g id="&lt;Group&gt;">
								<g id="&lt;Group&gt;">
									<path id="&lt;Compound Path&gt;" fill-rule="evenodd" class="s4" d="m89.4 203.4l-0.1-0.1-86.7-75.7 0.3-0.2 207.7-97.9 0.1 0.1 86.7 75.7-0.3 0.2zm-86.1-75.8l86.2 75.3 207.2-97.7-86.2-75.2z"/>
								</g>
							</g>
							<g id="&lt;Group&gt;">
								<g id="&lt;Group&gt;">
									<path id="&lt;Compound Path&gt;" fill-rule="evenodd" class="s4" d="m83.4 206.8l-0.1-0.1-78.2-92.2 0.2-0.1 211.3-88.3 0.1 0.1 78.2 92.2-0.3 0.1zm-77.6-92.1l77.8 91.6 210.7-88.1-77.8-91.6z"/>
								</g>
							</g>
							<g id="&lt;Group&gt;">
								<g id="&lt;Group&gt;">
									<path id="&lt;Compound Path&gt;" fill-rule="evenodd" class="s4" d="m77.2 210l-0.1-0.1-68.5-109.6 0.3-0.1 213.9-77.3 0.1 0.1 68.4 109.6-0.2 0.1zm-67.9-109.5l68.1 109 213.3-77.2-68.1-109z"/>
								</g>
							</g>
							<g id="&lt;Group&gt;">
								<g id="&lt;Group&gt;">
									<path id="&lt;Compound Path&gt;" fill-rule="evenodd" class="s4" d="m70.9 213l-0.1-0.2-57.5-127.8 0.3-0.1 215.5-65 57.6 128.1h-0.3zm-57-127.7l57.3 127.2 214.9-64.7-57.2-127.3z"/>
								</g>
							</g>
							<g id="&lt;Group&gt;">
								<g id="&lt;Group&gt;">
									<path id="&lt;Compound Path&gt;" fill-rule="evenodd" class="s4" d="m64.5 215.6l-0.1-0.1-45.2-147.1 216.3-51.1 0.1 0.2 45.2 147zm-44.8-146.9l45 146.4 215.5-50.9-44.9-146.5z"/>
								</g>
							</g>
							<g id="&lt;Group&gt;">
								<g id="&lt;Group&gt;">
									<path id="&lt;Compound Path&gt;" fill-rule="evenodd" class="s4" d="m58 217.9l-0.1-0.1-31.5-167.2h0.2l215.4-35.6 0.1 0.2 31.5 167.1h-0.2zm-31.1-167l31.4 166.5 214.9-35.5-31.5-166.5z"/>
								</g>
							</g>
							<g id="&lt;Group&gt;">
								<g id="&lt;Group&gt;">
									<path id="&lt;Compound Path&gt;" fill-rule="evenodd" class="s4" d="m51.4 219.9v-0.2l-16.5-188h0.2l213.5-18.7v0.2l16.5 188h-0.2zm-16.1-187.8l16.4 187.4 212.9-18.6-16.4-187.4z"/>
								</g>
							</g>
							<g id="&lt;Group&gt;">
								<g id="&lt;Group&gt;">
									<path id="&lt;Compound Path&gt;" fill-rule="evenodd" class="s4" d="m44.9 11.5h210.2v209.9h-210.2zm0.4 209.4h209.4v-209h-209.4z"/>
								</g>
							</g>
						</g>
					</g>
					<g id="&lt;Group&gt;">
						<g id="&lt;Group&gt;">
							<g id="&lt;Group&gt;">
								<g id="&lt;Group&gt;">
									<g id="&lt;Group&gt;">
										<path id="&lt;Path&gt;" class="s5" d="m279.6 130.3c2.8 0.4 11.8-1.1 11.7 0.9-0.1 1.5-3.1 7.2-7.1 11.1-1.6 1.4-3.3 2.6-5 3.2-8.7 2.7-13.5 1.3-16.6-1.8-2.7-2.8-2.8-5-4.9-7.2q-0.3-0.4-0.7-0.7-0.2-0.2-0.4-0.3c-2.9-2.1-7.3-1.6-10.7-8.1-2.3-4.4-0.5-9.7 1.4-12.7 1.1-1.7 2.1-2.7 2.5-2.4 0.3 0.4 0.2 1.5 0.2 3-0.1 2.4-0.1 5.6 1.9 6.9 3.3 2.1 2.9 3.8 3.9 1.6 0.9-2.3-1.9-2.2-2.6-6.2 0-0.5 0-1 0-1.5 0.3-2 1.3-4.2 2.6-6.3 1.5-2.3 3.3-4.3 4.5-4.6 2.5-0.8-1.3 3.9 1.1 7.5q0.9 1.3 1.6 2.2c1.2 1.4 2.2 1.9 2.8 1.3 0.2-0.2 0.3-0.4 0.4-0.7 0.7-2-5.1-11.4-0.3-13.2 4.8-1.8 9.5-1.7 8.1 0.5-1.4 2.3-4 5.9-2.1 6.8 1.8 0.9 3.1-0.2 3.3-3.3 0.2-3.2-1-5.7 1-6.5 0.4-0.2 1.5-0.4 2.9-0.7 2.9-0.6 7.4-1.2 10.7-0.9 2.1 0.2 3.7 0.7 3.9 2 0.6 2.8 1.1 9.3 0.9 13.3-0.2 1.6-0.4 2.9-0.8 3.3-1.4 1.5-5.5-2.6-7.6-0.8-2 1.8-2.7 4.4 2.8 3.9 5.5-0.6 9.1 0.1 5.2 4.9-3.9 4.7-8.9 3.6-11.9 3-2.9-0.6-5.5 2.2-2.7 2.5z"/>
									</g>
									<g id="&lt;Group&gt;">
										<path id="&lt;Path&gt;" class="s4" d="m288.5 106.4l-0.1 0.1c-4.2 3.1-8.7 6.5-13 10.4-6.3 5.6-12.5 12.1-17.7 19.6-3.7 5.4-6.9 11.4-9.3 18q0 0.1-0.1 0.2c-0.1 0.2-0.4 0.3-0.6 0.3q-0.1 0-0.2 0c-0.4-0.2-0.6-0.6-0.5-1q0.1-0.1 0.1-0.2c2.4-6.7 5.7-12.8 9.5-18.3 4.6-6.7 10.1-12.6 15.7-17.8l0.5-0.4q2-1.9 4-3.6c3.7-3.1 7.3-5.9 10.8-8.5 0.3-0.2 0.8-0.2 1 0.2q0.1 0.1 0.1 0.2c0.1 0.3 0 0.6-0.2 0.8z"/>
									</g>
								</g>
							</g>
							<path id="&lt;Path&gt;" class="s6" d="m277 119c-2.2 3-2.9 7.1-1.8 10.6 1.5 5 6.2 8.3 9 12.7-1.6 1.4-3.3 2.6-5 3.2-8.7 2.7-13.5 1.3-16.6-1.8-2.7-2.8-2.8-5-4.9-7.2-3.7 5.4-6.9 11.4-9.3 18q0 0.1-0.1 0.2c-0.4-0.3-0.8-0.6-1.2-0.9 2.4-6.7 5.7-12.8 9.5-18.3-2.9-2.1-7.3-1.6-10.7-8.1-2.3-4.4-0.5-9.7 1.4-12.7 0.9 0.2 1.8 0.4 2.7 0.6-0.1 2.4-0.1 5.6 1.9 6.9 3.3 2.1 2.9 3.8 3.9 1.6 0.9-2.3-1.9-2.2-2.6-6.2 0-0.5 0-1 0-1.5 2.2 0.4 4.3 0.9 6.4 1.4 4.2 1 8.9 1.8 12.7 0.2 0.6-0.2 1.2-0.5 1.7-0.9 1.2-0.8 2.1-1.9 2.8-3.1 1.7-2.6 2.3-5.9 2.5-9 0.1-1.9 0.1-3.8-0.2-5.6 2.9-0.6 7.4-1.2 10.7-0.9 2.1 0.2 3.7 0.7 3.9 2 0.6 2.8 1.1 9.3 0.9 13.3q-1.1 0.1-2.1 0.1c-2 0-4.1-0.2-6.1 0-3.7 0.5-7.2 2.4-9.4 5.4z"/>
						</g>
						<g id="&lt;Group&gt;">
							<g id="&lt;Group&gt;">
								<g id="&lt;Group&gt;">
									<path id="&lt;Path&gt;" class="s7" d="m245.6 156.6c0.1-1.3-0.9-3.3-2.5-5.6-2.4-3.7-6.3-8.3-9.8-11.8-2.3-2.5-4.5-4.5-5.9-5.4-3.3-2.4-6.6-11.4-8.2-16.3q-0.6-2-1-3.3 13.7 2.2 22.5 11.1c7.3 7.4 5.9 24.1 5.2 29.5q-0.1 1.2-0.3 1.8z"/>
								</g>
								<path id="&lt;Path&gt;" class="s4" d="m245.9 157.4c-0.4 0.1-0.9-0.1-1-0.6q0 0 0 0c-0.5-1.9-1.1-3.9-1.8-5.8q-0.4-1.3-0.8-2.6-1.5-4.2-3.3-8.3c-1.2-2.7-2.5-5.3-4.1-7.9q-0.6-1-1.3-2c-1.2-1.7-2.5-3.4-4.1-4.9-0.1-0.1-0.1-0.2 0-0.3 0.1-0.1 0.2-0.1 0.3 0 1.3 1.1 2.4 2.3 3.5 3.6q1.2 1.6 2.3 3.3c1.6 2.4 3 5.1 4.3 7.8 1.3 2.7 2.5 5.4 3.6 8.2q1.3 3.4 2.4 6.9 0.2 0.8 0.5 1.6c0.1 0.4-0.1 0.8-0.5 1z"/>
							</g>
							<path id="&lt;Path&gt;" class="s8" d="m245.9 157.4c-0.4 0.1-0.9-0.1-1-0.6q0 0 0 0c-0.5-1.9-1.1-3.9-1.8-5.8-2.4-3.7-6.3-8.3-9.8-11.8q0-0.7 0.1-1.4c0.1-2.5 0.6-5.1 0.2-7.6q-0.1-0.7-0.3-1.4 0-0.1 0-0.2c-1-2.9-3.3-5.2-5.7-7.1-2.4-1.9-5.4-3.7-8.4-4q-0.6-2-1-3.3 13.7 2.2 22.5 11.1c7.3 7.4 5.9 24.1 5.2 29.5q0.2 0.8 0.5 1.6c0.1 0.4-0.1 0.8-0.5 1z"/>
						</g>
						<g id="&lt;Group&gt;">
							<g id="&lt;Group&gt;">
								<g id="&lt;Group&gt;">
									<path id="&lt;Path&gt;" class="s7" d="m246.3 155.4c2-3.9 8.7-15.8 17-17.4q10-1.9 20.2 3-0.9 0.7-2.2 1.7c-3.3 2.5-9.7 7.1-13 7.1-1.4 0-3.7 0.4-6.4 0.9-4 0.8-8.7 2.1-12 3.4-2.1 0.9-3.7 1.8-4.3 2.6q0.2-0.4 0.7-1.3z"/>
								</g>
								<path id="&lt;Path&gt;" class="s4" d="m245.2 156.3q0.5-0.4 1.1-0.9 2.3-1.8 4.8-3.5 3-2 6.1-3.9c2.1-1.2 4.3-2.3 6.5-3.2q1.5-0.6 3.1-1.1c1.3-0.4 2.6-0.7 3.9-0.9 0.2 0 0.3 0.1 0.3 0.2 0 0.1-0.1 0.2-0.2 0.2-1.7 0.3-3.4 0.8-5 1.4q-0.9 0.4-1.8 0.7c-2.2 1-4.3 2.2-6.4 3.5q-3 1.8-5.9 4-0.9 0.6-1.8 1.3-2 1.5-3.9 3.1 0 0 0 0c-0.3 0.3-0.7 0.2-0.9 0-0.2-0.3-0.2-0.7 0.1-0.9z"/>
							</g>
							<path id="&lt;Path&gt;" class="s9" d="m245.2 156.3q0.5-0.4 1.1-0.9c2-3.9 8.7-15.8 17-17.4q10-1.9 20.2 3-0.9 0.7-2.2 1.7c-2.2-1.2-5-1.4-7.5-1.2-2.5 0.2-5.1 0.7-7 2.2q-0.1 0-0.2 0.1-0.4 0.4-0.8 0.8c-1.4 1.5-2.3 3.5-3.4 5.2q-0.2 0.5-0.5 0.9c-4 0.8-8.7 2.1-12 3.4q-2 1.5-3.9 3.1 0 0 0 0c-0.3 0.3-0.7 0.2-0.9 0-0.2-0.3-0.2-0.7 0.1-0.9z"/>
						</g>
						<path id="&lt;Path&gt;" class="s10" d="m256.3 135.4c-1.5 2-4.8 0.1-8 2.4 0.1 1.6 0 3.2-0.6 5q-0.2 0.6-0.4 1.2c0.4-0.9 1.2-1.9 2.3-2.4 3-1.5 5.2 2.2 4.4 3-1.6 1.4-4-0.7-7.1 0.7-0.5 2.5-0.7 4.8-0.8 6.5 0.3-0.7 0.9-1.8 2-2.3 2.4-1.1 4.1 1.8 3.4 2.4-1.2 1.1-3.1-0.6-5.4 0.5 0 2.1 0.2 3.4 0.2 3.4 0 0.3-0.2 0.6-0.4 0.6q-0.1 0-0.1 0c-0.2 0-0.5-0.2-0.5-0.4 0-0.1-0.1-0.8-0.2-1.8-2.1-0.5-3.6 1-4.8 0.1-0.8-0.6 0.7-3.6 3.1-2.7 0.8 0.3 1.3 0.8 1.7 1.4 0-1.5 0.1-3.5 0.4-5.7-2.9-1-5.1 1.2-6.7 0-1-0.7 0.9-4.6 4-3.4 1.5 0.5 2.4 1.8 2.9 2.7q0.3-2 1-4.1 0.4-1.2 0.5-2.4c-3.8-1.2-6.3 1.8-8.4 0.4-1.2-0.8 0.8-5.6 4.6-4.4 2.1 0.7 3.4 2.7 3.9 3.6 0.2-2-0.2-3.9-0.9-5.9-4.3-0.2-6 3.6-8.6 2.7-1.4-0.5-0.7-5.9 3.6-5.7 2.1 0.1 3.8 1.5 4.7 2.4-0.6-1.4-1.3-2.7-2.1-4.2-3.5-0.7-5.5 2.1-7.5 1-1.2-0.7 0.3-5.2 4-4.3 0.9 0.2 1.7 0.7 2.3 1.3q-0.7-1.4-1.6-2.9c-0.8-0.9-2-2.5-2-4.5-0.1-4.1 5.2-4.6 5.6-3.3 0.7 2.3-2.3 3.8-2.7 7.2q0.8 1.5 1.6 2.9c0-1.1 0.2-2.8 1.4-4.1 2.4-2.7 6.3 0.1 5.7 1.3-1 2.1-4.3 1-6.7 3.6q1.2 1.9 2.1 3.8c0.2-1.2 0.9-3.3 2.5-4.5 3.5-2.5 7.1 1.6 6.2 2.8-1.6 2.1-5 0.1-8.4 2.4 0.8 1.6 1.4 3.3 1.7 5 0.2-1.2 0.9-2.9 2.3-3.9 3.3-2.4 6.7 1.5 5.8 2.6z"/>
					</g>
					<g id="&lt;Group&gt;">
						<g id="&lt;Group&gt;">
							<g id="&lt;Group&gt;">
								<g id="&lt;Group&gt;">
									<path id="&lt;Path&gt;" class="s7" d="m34.7 198.3c-2.4-2.9-9.6-12.1-8.1-19.1q1.8-8.5 9-14.9 0.2 0.9 0.6 2.3c0.9 3.4 2.4 9.9 1.4 12.5-0.5 1.1-1 3.1-1.5 5.4-0.6 3.3-1.2 7.4-1.2 10.5 0 2 0.2 3.5 0.6 4.2q-0.3-0.3-0.8-0.9z"/>
								</g>
								<path id="&lt;Path&gt;" class="s4" d="m35 199.4q-0.1-0.6-0.3-1.1-0.6-2.5-1.2-4.9-0.6-3.1-1-6.2c-0.3-2-0.4-4.1-0.4-6.1q0-1.4 0.1-2.8 0.2-1.7 0.6-3.4c0.1-0.1 0.2-0.1 0.2-0.1 0.1 0 0.2 0.1 0.2 0.2-0.4 1.4-0.6 2.9-0.6 4.4q0 0.8 0 1.7c0 2 0.3 4 0.6 6q0.5 3.1 1.2 6.1 0.2 0.9 0.5 1.8 0.5 2.1 1.2 4.1 0 0 0 0c0 0.3-0.1 0.6-0.4 0.6-0.3 0.1-0.6 0-0.7-0.3z"/>
							</g>
							<path id="&lt;Path&gt;" class="s11" d="m35 199.4q-0.1-0.6-0.3-1.1c-2.4-2.9-9.6-12.1-8.1-19.1q1.8-8.5 9-14.9 0.2 0.9 0.6 2.3c-1.7 1.3-2.7 3.4-3.4 5.5-0.7 2-1.1 4.2-0.6 6.2q0 0.1 0.1 0.2 0.1 0.4 0.3 0.9c0.7 1.6 2 2.9 3 4.3q0.3 0.4 0.5 0.8c-0.6 3.3-1.2 7.4-1.2 10.5q0.5 2.1 1.2 4.1 0 0 0 0c0 0.3-0.1 0.6-0.4 0.6-0.3 0.1-0.6 0-0.7-0.3z"/>
						</g>
						<g id="&lt;Group&gt;">
							<g id="&lt;Group&gt;">
								<path id="&lt;Path&gt;" class="s7" d="m35.4 199.2c-0.9-0.1-2.3 0.3-4.1 1.2-2.8 1.3-6.3 3.4-9.1 5.4-1.9 1.4-3.5 2.7-4.3 3.5-1.9 2.1-8.4 3.4-12 4q-1.4 0.2-2.3 0.3 2.9-9.1 9.8-14.2c5.9-4.2 17.1-1.6 20.8-0.5q0.8 0.2 1.2 0.3z"/>
								<path id="&lt;Path&gt;" class="s4" d="m35.9 199.1c0.1 0.3-0.1 0.6-0.4 0.7q0 0 0-0.1v0.1q-2.1 0.2-4.2 0.6-0.9 0.1-1.9 0.3-3 0.6-6 1.4c-1.9 0.5-3.9 1.1-5.8 1.9q-0.7 0.4-1.5 0.7c-1.3 0.7-2.6 1.4-3.7 2.3-0.1 0.1-0.2 0.1-0.3 0 0 0 0-0.1 0-0.2q1.4-1.1 2.9-2 1.2-0.7 2.4-1.2c1.9-0.9 3.9-1.6 5.8-2.2q3-0.9 6-1.6 2.5-0.5 5-0.9 0.6-0.1 1.1-0.2c0.3 0 0.6 0.2 0.6 0.4z"/>
							</g>
							<path id="&lt;Path&gt;" class="s12" d="m35.9 199.1c0.1 0.3-0.1 0.6-0.4 0.7q0 0 0-0.1v0.1q-2.1 0.2-4.2 0.6c-2.8 1.3-6.3 3.4-9.1 5.4q-0.4 0-0.9-0.1c-1.7-0.4-3.4-0.9-5.2-1q-0.5 0-1 0.1 0 0-0.1 0c-2.1 0.4-3.9 1.7-5.4 3.1-1.6 1.5-3.2 3.3-3.7 5.4q-1.4 0.2-2.3 0.3 2.9-9.1 9.8-14.2c5.9-4.2 17.1-1.6 20.8-0.5q0.6-0.1 1.1-0.2c0.3 0 0.6 0.2 0.6 0.4z"/>
						</g>
						<path id="&lt;Path&gt;" class="s13" d="m9.4 176.2c2.6 0 4.8 1.3 6.1 2.4-1.1-2.1-1.9-4.5-2.5-7.1-5.9 0.3-8 5.6-11.7 4.6-2.1-0.5-1.6-8.4 4.6-8.6 3-0.1 5.5 1.7 6.9 2.9-0.4-2-0.8-4-1.1-6.2-5-0.8-7.8 3.3-10.8 1.8-1.7-0.8 0.2-7.5 5.5-6.5 2.4 0.5 4.2 2.2 5.2 3.5q-0.4-2.4-0.8-4.9c-3.5-3.4-8.2-2.5-9.4-5.7-0.8-2 5.7-6 9.3-1.2 1.7 2.2 1.7 5.1 1.6 6.9q0.4 2.4 0.7 4.7c0.2-1.2 0.7-2.5 1.6-3.6 3.4-4.1 9.1-0.3 8.4 1.5-1.3 3-6.1 1.7-9.5 5.5 0.4 2.4 0.8 4.6 1.3 6.6 0.2-1.8 0.9-4.9 3.3-6.9 4.7-3.9 10.3 1.6 9.1 3.4-2.1 3.3-7.4 0.5-12.1 4.5 0.9 2.9 2.1 5.4 4.1 7.6-0.2-1.6-0.6-5 1.3-7.6 3.3-4.8 9.8-1.1 9.2 0.9-1.2 3.5-6.7 2.3-10 7.1q1.1 1.2 2.7 2.2c1.8 1.2 3.4 2.5 4.8 3.8-0.2-1.5-0.4-3.7 0.8-5.6 2.6-4.1 8.2-1.4 7.7 0.3-0.8 2.9-5.2 2.3-7.7 6 2.4 2.2 4.2 4.4 5.5 6.1 0-0.9 0.1-2 0.8-3 1.9-3.2 6.3-1.1 5.9 0.2-0.6 2.1-3.7 1.8-5.7 4.2 0.9 1.3 1.4 2.1 1.5 2.2 0.1 0.3 0 0.8-0.3 1q0 0 0 0c-0.4 0.2-0.8 0.1-1-0.3 0 0-1-1.7-2.8-4-3.7 0.8-4.3 4.3-6.7 4.1-1.3-0.1-1.9-4.8 1.8-5.6 1.7-0.4 3.4 0.3 4.3 0.8-1.6-2-3.9-4.4-6.7-6.7-4.7 1-5.6 5.6-8.7 5.4-1.7-0.1-2.4-6.3 2.3-7.4 1.8-0.4 3.5 0.2 4.8 0.7q-0.7-0.5-1.4-1c-2.3-1.5-4-3.3-5.2-5.2-5.7 0.2-7.8 5.3-11.4 4.4-1.9-0.5-1.5-8 4.4-8.2z"/>
					</g>
					<g id="&lt;Group&gt;">
						<g id="&lt;Group&gt;">
							<path id="&lt;Compound Path&gt;" fill-rule="evenodd" class="s5" d="m146 29.5c-4 0-7.2-3.3-7.2-7.3 0-4 3.2-7.2 7.2-7.2 4 0 7.3 3.2 7.3 7.2 0 4-3.3 7.3-7.3 7.3zm4.6-7.3c0-2.5-2-4.6-4.6-4.6-2.5 0-4.6 2.1-4.6 4.6 0 2.6 2.1 4.6 4.6 4.6 2.6 0 4.6-2 4.6-4.6z"/>
						</g>
						<g id="&lt;Group&gt;">
							<path id="&lt;Path&gt;" class="s7" d="m161.4 23.6h-15.4c-0.7 0-1.3-0.6-1.3-1.4 0-0.7 0.6-1.3 1.3-1.3h15.4c0.8 0 1.4 0.6 1.4 1.3 0 0.8-0.6 1.4-1.4 1.4z"/>
						</g>
						<g id="&lt;Group&gt;">
							<path id="&lt;Path&gt;" class="s7" d="m170.5 17.2h-15.4c-0.8 0-1.4-0.6-1.4-1.3 0-0.8 0.6-1.4 1.4-1.4h15.4c0.7 0 1.3 0.6 1.3 1.4 0 0.7-0.6 1.3-1.3 1.3z"/>
						</g>
						<g id="&lt;Group&gt;">
							<path id="&lt;Path&gt;" class="s7" d="m146 13.5c-0.7 0-1.3-0.5-1.3-1.3v-6.5c0-0.7 0.6-1.3 1.3-1.3 0.8 0 1.3 0.6 1.3 1.3v6.5c0 0.8-0.5 1.3-1.3 1.3z"/>
						</g>
					</g>
					<g id="&lt;Group&gt;">
						<g id="&lt;Group&gt;">
							<circle id="&lt;Compound Path&gt;" class="s5" cx="110.6" cy="214.1" r="4.6"/>
						</g>
						<g id="&lt;Group&gt;">
							<path id="&lt;Path&gt;" class="s7" d="m126.1 215.4h-15.5c-0.7 0-1.3-0.6-1.3-1.3 0-0.8 0.6-1.3 1.3-1.3h15.5c0.7 0 1.3 0.5 1.3 1.3 0 0.7-0.6 1.3-1.3 1.3z"/>
						</g>
						<g id="&lt;Group&gt;">
							<path id="&lt;Path&gt;" class="s7" d="m135.1 209h-15.4c-0.8 0-1.4-0.6-1.4-1.3 0-0.7 0.6-1.3 1.4-1.3h15.4c0.7 0 1.3 0.6 1.3 1.3 0 0.7-0.6 1.3-1.3 1.3z"/>
						</g>
					</g>
					<g id="&lt;Group&gt;">
						<g id="&lt;Group&gt;">
							<path id="&lt;Path&gt;" class="s5" d="m29 123.4h-15.4c-0.7 0-1.3-0.6-1.3-1.3 0-0.7 0.6-1.3 1.3-1.3h15.4c0.7 0 1.3 0.6 1.3 1.3 0 0.7-0.6 1.3-1.3 1.3z"/>
						</g>
						<g id="&lt;Group&gt;">
							<path id="&lt;Path&gt;" class="s5" d="m38 117.1h-15.4c-0.7 0-1.3-0.6-1.3-1.4 0-0.7 0.6-1.3 1.3-1.3h15.4c0.8 0 1.3 0.6 1.3 1.3 0 0.8-0.5 1.4-1.3 1.4z"/>
						</g>
					</g>
				</g>
				<g id="&lt;Group&gt;">
					<g id="&lt;Group&gt;">
						<path id="&lt;Path&gt;" class="s10" d="m204.4 61.6l-9.2 68.6-0.6 4.4-0.6 4.2-0.2 1.8-1.9 14.1v0.2l-0.1 0.8-0.5 3.3-0.8 6.4-0.6 4-1 7.6c-0.4 3.4-3.6 6.2-7 6.2h-83.9c-3.4 0-5.8-2.8-5.4-6.2l5.5-40.7 3.4-26 1.8-12.7 0.2-1.8 0.1-1 1.4-10.5 3.1-22.7c0.4-3.4 3.6-6.1 7-6.1h83.9c3.4 0 5.9 2.7 5.4 6.1z"/>
						<path id="&lt;Path&gt;" class="s5" d="m140.3 76.8c-0.6 4.7-3.5 8.8-7.3 11.4-2.5 1.6-5.5 2.5-8.5 2.5-3 0-5.6-0.9-7.7-2.6-3.2-2.5-5-6.6-4.3-11.3 1-7.6 8.1-13.9 15.8-13.9 7.7 0 13.1 6.3 12 13.9z"/>
						<path id="&lt;Path&gt;" class="s10" d="m132.4 84.9l-0.1 0.6c-2.2 1.4-4.7 2.2-7.4 2.2-2.6 0-4.9-0.8-6.7-2.2v-0.6c0.4-2.9 2.5-5.3 5.1-6.4-1.8-1-2.8-3-2.5-5.3 0.5-3.3 3.6-6 6.9-6 3.3 0 5.7 2.7 5.2 6-0.3 2.3-1.8 4.3-3.8 5.3 0.7 0.3 1.4 0.8 1.9 1.4 1.1 1.3 1.7 3.1 1.4 5z"/>
						<path id="&lt;Path&gt;" class="s14" d="m173.3 67.2h-17.7c-1.2 0-2-1-1.9-2.1 0.2-1.2 1.3-2.2 2.4-2.2h17.8c1.2 0 2 1 1.8 2.2-0.1 1.1-1.2 2.1-2.4 2.1z"/>
						<path id="&lt;Path&gt;" class="s14" d="m172.4 74h-17.8c-1.1 0-2-0.9-1.8-2.1 0.2-1.2 1.2-2.1 2.4-2.1h17.8c1.1 0 2 0.9 1.8 2.1-0.1 1.2-1.2 2.1-2.4 2.1z"/>
						<rect id="&lt;Path&gt;" class="s14" x="150" y="85.3" width="40.1" height="9.5" rx=".9"></rect>
						<path id="&lt;Path&gt;" class="s14" d="m183.9 118.1h-73.5c-1.2 0-2-0.9-1.9-2.1l1.1-8.2c0.2-1.2 1.3-2.1 2.4-2.1h73.5c1.2 0 2 0.9 1.9 2.1l-1.1 8.2c-0.2 1.2-1.3 2.1-2.4 2.1z"/>
						<path id="&lt;Path&gt;" class="s14" d="m181.2 138.2h-73.5c-1.2 0-2-0.9-1.9-2.1l1.1-8.2c0.2-1.2 1.3-2.1 2.5-2.1h73.4c1.2 0 2 0.9 1.9 2.1l-1.1 8.2c-0.2 1.2-1.3 2.1-2.4 2.1z"/>
						<path id="&lt;Path&gt;" class="s7" d="m176.7 171.6h-21.9c-1.2 0-2-1-1.8-2.2l2.4-18.3c0.2-1.2 1.3-2.2 2.4-2.2h21.9c1.2 0 2 1 1.9 2.2l-2.5 18.3c-0.2 1.2-1.2 2.2-2.4 2.2z"/>
						<rect id="&lt;Path&gt;" class="s14" x="103.7" y="148.9" width="42.6" height="5.1" rx=".9"></rect>
						<rect id="&lt;Path&gt;" class="s14" x="102.5" y="157.7" width="42.6" height="5.1" rx=".9"></rect>
						<rect id="&lt;Path&gt;" class="s14" x="101.4" y="166.5" width="42.6" height="5.1" rx=".9"></rect>
						<path id="&lt;Path&gt;" class="s10" d="m168.8 153.2l0.9 4.3c0 0.2 0.2 0.4 0.5 0.4h4.5c0.7 0 0.8 0.8 0.3 1.2l-4 2.7c-0.3 0.1-0.4 0.4-0.4 0.7l0.8 4.3c0.2 0.6-0.6 1.1-1.1 0.7l-3.3-2.6c-0.2-0.2-0.5-0.2-0.8 0l-3.9 2.6c-0.6 0.4-1.2-0.1-1-0.7l2-4.3c0.1-0.3 0.1-0.6-0.1-0.7l-3.3-2.7c-0.5-0.4-0.1-1.2 0.5-1.2h4.5c0.3 0 0.6-0.2 0.7-0.4l2-4.3c0.3-0.6 1.1-0.6 1.2 0z"/>
						<path id="&lt;Path&gt;" class="s15" d="m186.5 55.5c-3.8 3.2-7.3 6.3-10.1 11.2-3.8 6.5-5.9 14-5.7 21.6 0.1 7.8 2.4 15.5 3.7 23.2 1.3 7.8 1.6 16.1-2 23.1-1.6 3.1-3.9 5.8-5.7 8.8-3.2 5.6-4.6 12.3-3.8 18.7 0.8 6.6 3.8 13.1 2.1 19.6q-0.2 0.7-0.4 1.4h-56.8c0-0.1 0.1-0.3 0.1-0.5 2.3-8.1 11.4-11.6 18.3-16.4 9.6-6.8 16-17.8 17.6-29.4 1.5-11.6-1.6-23.7-8.1-33.5-3.1-4.6-6.9-8.7-9.7-13.5-4.6-7.9-6.2-17.7-4-26.5 0.7-2.8 1.8-5.4 3.2-7.8z"/>
					</g>
					<g id="&lt;Group&gt;">
						<g id="&lt;Group&gt;">
							<g id="&lt;Group&gt;">
								<path id="&lt;Path&gt;" class="s13" d="m228.2 161.2v12.5c0 2.7-26.4 12.5-34.5 14.7q0 0 0 0-1.1 0.3-1.8 0.4-0.2 0.1-0.3 0l-10.5-4-8.5-3.2-6.1-2.4c-3.1 0-5.5-2.5-5.5-5.5l-20.6-4.3-9.3-2q0 0 0 0c0 0 0 0 0 0 0.6-3.1 32.4-11.7 35.4-11.7h56.2c3 0 5.5 2.5 5.5 5.5z"/>
								<path id="&lt;Path&gt;" class="s7" d="m197.1 170.8v12.6c0 2.2-1.4 4.2-3.4 5q0 0 0 0-0.8 0.4-1.8 0.4-0.2 0.1-0.3 0h-56.2q-0.2 0.1-0.3 0c-2.5-0.1-4.4-1.8-5-4q-0.2-0.7-0.2-1.4v-12.6q0-0.7 0.2-1.4c0.1-0.5 0.3-1 0.6-1.5q0 0 0 0 0.2-0.2 0.4-0.5 0 0 0 0c0 0 0 0 0 0q0.5-0.6 1-0.9c0.9-0.7 2-1.1 3.3-1.1h56.2c3 0 5.5 2.4 5.5 5.4z"/>
								<path id="&lt;Path&gt;" class="s4" d="m191.3 184.8h-61.4v-15.4h61.4c0.6 0 1 0.5 1 1.1v13.2c0 0.6-0.4 1.1-1 1.1z"/>
							</g>
							<path id="&lt;Path&gt;" class="s16" d="m228.2 161.2v12.5q-0.1 0.5-1.1 1.2 0 0 0 0.1c-5 3.6-26.2 11.5-33.4 13.4q0 0 0 0-0.8 0.4-1.8 0.4-0.2 0.1-0.3 0h-53.3q0.7-0.4 1.4-0.8 0.9-0.5 2-0.9c3.3-1.3 6.9-1.8 10.5-2.1q0.8-0.1 1.5-0.1 0.5-0.1 0.9-0.1 2.5-0.2 4.9-0.4 2.2-0.2 4.4-0.4c1.9-0.1 3.8-0.3 5.5-0.8 1.2-0.4 2.3-0.9 3.2-1.6q0.7-0.6 1.3-1.3c1.8-2.5 1.6-5.5 1.4-8.7q-0.1-1.1-0.1-2.2c-0.1-1.4-0.1-2.8 0.2-4q0.1-0.7 0.4-1.2c0.8-2.4 2.6-4.2 4.8-5.7 1.3-1 2.7-1.8 4.2-2.5q0.1-0.1 0.3-0.2c0 0 0.1-0.1 0.2-0.1h37.4c3 0 5.5 2.5 5.5 5.5z"/>
						</g>
						<g id="&lt;Group&gt;">
							<g id="&lt;Group&gt;">
								<path id="&lt;Path&gt;" class="s13" d="m270.2 164.6l-5.2 11.3c-1.1 2.5-29.1 0.5-37.4-0.9q0 0-0.1 0-1.1-0.2-1.7-0.3-0.2-0.1-0.4-0.2l-7.8-8-6.3-6.5-4.7-4.7c-2.7-1.2-3.9-4.5-2.7-7.2l-16.9-12.5-7.7-5.6q0-0.1 0.1-0.1c0 0 0 0 0 0 1.9-2.6 34.3 2.8 37 4.1l51.1 23.3c2.8 1.3 4 4.5 2.7 7.3z"/>
								<path id="&lt;Path&gt;" class="s7" d="m237.9 160.4l-5.2 11.4c-0.9 2.1-3 3.3-5.1 3.2q0 0-0.1 0-0.8 0-1.7-0.3-0.2-0.1-0.4-0.2l-51.1-23.3c-2.3-1.1-3.5-3.5-3.1-5.9q0.1-0.7 0.4-1.4l5.2-11.4q0.4-0.6 0.8-1.2 0.7-0.9 1.8-1.4c0 0 0 0 0 0 1.5-0.7 3.2-0.8 4.7-0.1l51.1 23.4c2.8 1.2 4 4.5 2.7 7.2z"/>
								<path id="&lt;Path&gt;" class="s4" d="m226.9 170.7l-55.9-25.5 6.4-14 55.9 25.5c0.5 0.3 0.7 0.9 0.5 1.4l-5.5 12.1c-0.3 0.5-0.9 0.8-1.4 0.5z"/>
							</g>
							<path id="&lt;Path&gt;" class="s17" d="m270.2 164.6l-5.2 11.3c-1.1 2.5-29.1 0.5-37.4-0.9q0 0-0.1 0-0.8 0-1.7-0.3-0.2-0.1-0.4-0.2l-48.4-22.1q0.8-0.1 1.6-0.2c4.8-0.3 9.5 1.4 14.1 3q0.4 0.2 0.8 0.3 4.4 1.6 8.8 3.2c2.9 1 6.1 2 9 1.3q0.8-0.2 1.6-0.6c3.3-1.8 4.3-5.8 5.7-9.4 0.6-1.2 1.2-2.5 1.9-3.5q0.4-0.5 0.8-1c3-3 7.7-3.5 12-3.7 0.1 0 0.1 0 0.2 0l34 15.5c2.8 1.3 4 4.5 2.7 7.3z"/>
						</g>
					</g>
					<g id="&lt;Group&gt;">
						<path id="&lt;Path&gt;" class="s10" d="m49.1 79.9v4.4c0 0.8-0.4 1.5-1 2-0.4 0.3-0.9 0.5-1.5 0.5h-32.1c-1.4 0-2.5-1.1-2.5-2.5v-4.4q0-0.3 0.1-0.6 0-0.1 0.1-0.2c0.3-1 1.2-1.7 2.3-1.7h32.1c1.4 0 2.5 1.2 2.5 2.5z"/>
						<g id="&lt;Group&gt;">
							<path id="&lt;Path&gt;" class="s7" d="m48.3 81v4.4q0 0.5-0.2 0.9c-0.3 0.9-1.2 1.6-2.3 1.6h-32.1c-1.4 0-2.5-1.1-2.5-2.5v-4.4c0-0.6 0.3-1.2 0.7-1.7q0.1-0.1 0.3-0.2c0.4-0.4 0.9-0.6 1.5-0.6h32.1c1.4 0 2.5 1.1 2.5 2.5z"/>
							<path id="&lt;Path&gt;" class="s10" d="m29.5 80.5l0.5 1.5q0.1 0.2 0.2 0.2h1.7c0.2 0 0.3 0.3 0.1 0.4l-1.3 1q-0.1 0.1-0.1 0.2l0.5 1.6c0.1 0.2-0.2 0.4-0.4 0.2l-1.3-0.9q-0.1-0.1-0.3 0l-1.3 0.9c-0.2 0.2-0.4 0-0.4-0.2l0.5-1.6q0.1-0.1 0-0.2l-1.4-1c-0.2-0.1-0.1-0.4 0.2-0.4h1.6q0.2 0 0.2-0.2l0.5-1.5c0.1-0.3 0.4-0.3 0.5 0z"/>
							<path id="&lt;Path&gt;" class="s10" d="m23.2 80.5l0.5 1.5q0.1 0.2 0.2 0.2h1.7c0.2 0 0.3 0.3 0.1 0.4l-1.3 1q-0.1 0.1-0.1 0.2l0.5 1.6c0.1 0.2-0.2 0.4-0.4 0.2l-1.3-0.9q-0.1-0.1-0.3 0l-1.3 0.9c-0.2 0.2-0.4 0-0.4-0.2l0.5-1.6q0.1-0.1 0-0.2l-1.4-1c-0.1-0.1-0.1-0.4 0.2-0.4h1.6q0.2 0 0.2-0.2l0.5-1.5c0.1-0.3 0.4-0.3 0.5 0z"/>
							<path id="&lt;Path&gt;" class="s10" d="m16.9 80.5l0.5 1.5q0.1 0.2 0.2 0.2h1.7c0.2 0 0.3 0.3 0.1 0.4l-1.3 1q-0.1 0.1-0.1 0.2l0.5 1.6c0.1 0.2-0.2 0.4-0.4 0.2l-1.3-0.9q-0.1-0.1-0.3 0l-1.3 0.9c-0.2 0.2-0.4 0-0.4-0.2l0.6-1.6q0-0.1-0.1-0.2l-1.4-1c-0.1-0.1 0-0.4 0.2-0.4h1.6q0.2 0 0.2-0.2l0.5-1.5c0.1-0.3 0.4-0.3 0.5 0z"/>
							<path id="&lt;Path&gt;" class="s10" d="m36.1 80.5l0.5 1.5q0 0.2 0.2 0.2h1.6c0.3 0 0.4 0.3 0.2 0.4l-1.3 1q-0.2 0.1-0.1 0.2l0.5 1.6c0 0.2-0.2 0.4-0.4 0.2l-1.3-0.9q-0.2-0.1-0.3 0l-1.3 0.9c-0.2 0.2-0.5 0-0.4-0.2l0.5-1.6q0.1-0.1-0.1-0.2l-1.3-1c-0.2-0.1-0.1-0.4 0.2-0.4h1.6q0.2 0 0.2-0.2l0.5-1.5c0.1-0.3 0.4-0.3 0.5 0z"/>
							<path id="&lt;Path&gt;" class="s10" d="m42.4 80.5l0.5 1.5q0 0.2 0.2 0.2h1.6c0.3 0 0.4 0.3 0.2 0.4l-1.3 1q-0.2 0.1-0.1 0.2l0.5 1.6c0 0.2-0.2 0.4-0.4 0.2l-1.3-0.9q-0.2-0.1-0.3 0l-1.3 0.9c-0.2 0.2-0.5 0-0.4-0.2l0.5-1.6q0.1-0.1-0.1-0.2l-1.3-1c-0.2-0.1-0.1-0.4 0.1-0.4h1.7q0.1 0 0.2-0.2l0.5-1.5c0.1-0.3 0.4-0.3 0.5 0z"/>
						</g>
						<path id="&lt;Path&gt;" class="s18" d="m49.1 81.9v2.4c0 0.8-0.4 1.5-1 2-0.3 0.9-1.2 1.6-2.3 1.6h-32.1c-1.4 0-2.5-1.1-2.5-2.5v-4.4c0-0.6 0.3-1.2 0.7-1.7q0.1 0 0.2 0c1.5 0.3 2.9 0.7 4.3 1.3q0.3 0.1 0.6 0.2 0.3 0.1 0.5 0.2c0.9 0.5 1.8 1 2.6 1.4 0.9 0.4 1.7 0.8 2.6 1.1q0.8 0.2 1.6 0.2c1.2 0.2 2.4 0.1 3.6 0q0.1 0 0.2 0 1.5-0.2 3-0.5 1.1-0.2 2.2-0.5 1.6-0.4 3.2-0.9 0.5-0.2 0.9-0.4c1.3-0.5 2.6-1.1 4-1.3 2.4-0.4 4.8 0.2 6.9 1.4q0.4 0.2 0.8 0.4z"/>
					</g>
					<g id="&lt;Group&gt;">
						<g id="&lt;Group&gt;">
							<path id="&lt;Path&gt;" class="s13" d="m219.3 61.6l-2.9 4.4-6.9 10.6c-3.3 5-10.1 6.4-15.1 3.1l-13.8-9.1c-5-3.3-6.4-10-3.1-15l2.6-3.9 4.4-6.7 2.9-4.4 14.6 9.7z"/>
							<path id="&lt;Path&gt;" class="s7" d="m226.2 68q-0.3 0-0.6 0l-0.7-0.2-8.5-1.8-19.5-4.1c-0.3-0.1-0.7-0.3-0.9-0.6l-2.1-3-9.4-13.3-5.3-7.6c-0.9-1.1 0.2-2.7 1.6-2.4l21.6 4.6 7 1.5q0.6 0.1 0.9 0.6l16.9 23.9c0.6 0.9 0 2.2-1 2.4z"/>
							<g id="&lt;Group&gt;">
								<path id="&lt;Path&gt;" class="s13" d="m226.2 68q0 0.1-0.1 0.3c-1.7 2.8-3.4 5.3-4.9 7.5-3.7 5.4-5.6 8.5-4.4 10.9 0.2 0.3 0.4 0.6 0.8 1 0.2 0.2 0.2 0.6 0 0.8q-0.2 0.2-0.5 0.2-0.2 0-0.4-0.2-0.4-0.4-0.7-0.9c-2.1-3.2 0.4-7 4.2-12.5 1.5-2.1 3.1-4.5 4.7-7.3 0.1 0 0.1-0.1 0.1-0.2 0.2-0.3 0.6-0.3 0.9-0.2 0.2 0.2 0.3 0.4 0.3 0.6z"/>
							</g>
							<path id="&lt;Path&gt;" class="s7" d="m221.6 90.9c-0.3 0.5-0.9 0.8-1.5 0.8q-0.5 0-1-0.3l-2.5-1.7c-0.7-0.4-1-1.3-0.6-2.1q0-0.2 0.1-0.3 0.3-0.5 0.7-0.6 0.4-0.2 0.8-0.2c0.4 0 0.7 0.1 1 0.3l2.5 1.6c0.8 0.5 1.1 1.7 0.5 2.5z"/>
						</g>
						<path id="&lt;Path&gt;" class="s19" d="m226.2 68q0 0.1-0.1 0.3c-1.7 2.8-3.4 5.3-4.9 7.5-3.7 5.4-5.6 8.5-4.4 10.9q0.4-0.2 0.8-0.2c0.4 0 0.7 0.1 1 0.3l2.5 1.6c0.8 0.5 1.1 1.7 0.5 2.5-0.3 0.5-0.9 0.8-1.5 0.8q-0.5 0-1-0.3l-2.5-1.7c-0.7-0.4-1-1.3-0.6-2.1-2.1-3.2 0.4-7 4.2-12.5 1.5-2.1 3.1-4.5 4.7-7.3l-8.5-1.8-6.9 10.6c-3.3 5-10.1 6.4-15.1 3.1l-13.8-9.1c-5-3.3-6.4-10-3.1-15l2.6-3.9c3.3 1.5 6.4 3.7 9.8 5.3 1.2 0.6 2.6 1 4 1.3 3 0.7 6.1 0.6 8.6-1.1 0.5-0.3 0.9-0.7 1.2-1.2 0.3-0.8 0-1.7-0.3-2.6-0.4-1-0.9-2.1-1.4-3.1-0.4-1.3-0.9-2.6-1.1-4-0.5-2.3-0.1-5 1.5-6.7l7 1.5q0.6 0.1 0.9 0.6l16.9 23.9c0.6 0.9 0 2.2-1 2.4z"/>
					</g>
					<g id="&lt;Group&gt;">
						<g id="&lt;Group&gt;">
							<g id="&lt;Group&gt;">
								<path id="&lt;Path&gt;" class="s10" d="m61.7 107.8q0 0 0 0c-0.2 2.1-0.6 3.9-1.3 5.3-0.6 1-3.6 4.3-6.5 6.8-1.9 1.6-3.8 2.8-5 2.9-1.5 0-3.9-1.9-4.2-2.5-0.3-0.8-2.2-1.5-0.3-3.8 1.7-1.3 7.1-4.7 11.6-7.4l2.6-16.2 2.8 0.2c0.2 2.1 0.4 4.3 0.5 6.3 0.1 3.1 0.1 5.9-0.2 8.4z"/>
							</g>
							<path id="&lt;Path&gt;" class="s20" d="m58.8 92.9c-0.7-0.6-0.8-2-1-2.7-0.1-0.2 0.3-0.9 0.5-0.8q0.1 0.1 0.5-3.4c0.2-0.3 0.6-0.3 0.8 0.1l-0.2 2.4c0.9 0.3 1.6 1 2.3 1.8 0.2 0.8-0.1 1.8-0.3 2.7z"/>
							<path id="&lt;Path&gt;" class="s21" d="m61.7 107.8q0 0 0 0c-0.2 2.1-0.6 3.9-1.3 5.3-0.6 1-3.6 4.3-6.5 6.8q-0.4-0.9-1.1-1.8c7.5-3 8.1-12.3 9.1-18.7 0.1 3.1 0.1 5.9-0.2 8.4z"/>
						</g>
						<g id="&lt;Group&gt;">
							<path id="&lt;Path&gt;" class="s5" d="m52.1 182.6l-0.1 1.2-1.1 11.6c-0.2 2.8-2.2 5.2-4.8 6.3v0.1c-0.1 1.2-1.3 2.2-2.7 2.2h-3.2c-1.4 0-2.6-1-2.7-2.2v-0.4c-2.3-1.3-3.9-3.4-4.1-6l-0.2-1.5-1-11.3z"/>
							<path id="&lt;Path&gt;" class="s22" d="m52 183.8l-1.1 11.6c-0.2 2.8-2.2 5.2-4.8 6.3v0.1c-0.1 1.2-1.3 2.2-2.7 2.2h-3.2c-1.4 0-2.6-1-2.7-2.2v-0.4c-2.3-1.3-3.9-3.4-4.1-6l-0.2-1.5c0.4 0.1 0.8 0.2 1.2 0.4 2.1 0.8 4.1 2.1 6.4 2.4 2.3 0.4 5-0.5 5.8-2.6 0.3-1 0.2-2 0.2-3 0.1-2 0.8-4 2.1-5.4 0.8-0.9 1.9-1.6 3.1-1.9z"/>
							<path id="&lt;Path&gt;" class="s5" d="m59.5 173.3c0 6.1-3.1 11.4-7.9 14.5-1.4 0.9-3 1.6-4.6 2.1q-2.3 0.7-4.8 0.7c-3.6 0-6.8-1.1-9.5-2.9-3.4-2.1-6-5.5-7.2-9.5-0.3-1.1-0.5-2.3-0.6-3.5 0-0.4-0.1-0.9-0.1-1.4 0-2.6 0.6-5.1 1.7-7.3 2.7-5.9 8.7-10 15.7-10 2.3 0 4.6 0.5 6.7 1.4 6.2 2.6 10.6 8.8 10.6 15.9z"/>
							<g id="&lt;Group&gt;">
								<path id="&lt;Path&gt;" class="s4" d="m29.3 169.4q-0.1 0-0.2 0c-0.3-0.1-0.5-0.5-0.4-0.8 0.8-2.3 2.1-4.3 3.9-5.8 0.2-0.3 0.6-0.3 0.9 0 0.2 0.3 0.2 0.7-0.1 0.9-1.6 1.4-2.8 3.3-3.5 5.3-0.1 0.2-0.3 0.4-0.6 0.4z"/>
							</g>
							<g id="&lt;Group&gt;">
								<path id="&lt;Path&gt;" class="s4" d="m35.1 162.3c-0.2 0-0.4-0.1-0.5-0.3-0.2-0.3-0.1-0.7 0.2-0.9q1.3-0.8 2.8-1.3c0.3-0.1 0.7 0.1 0.8 0.4 0.1 0.3-0.1 0.7-0.4 0.8q-1.4 0.5-2.5 1.2-0.2 0.1-0.4 0.1z"/>
							</g>
							<path id="&lt;Path&gt;" class="s23" d="m59.5 173.3c0 6.1-3.1 11.4-7.9 14.5-1.4 0.9-3 1.6-4.6 2.1q-2.3 0.7-4.8 0.7c-3.6 0-6.8-1.1-9.5-2.9-3.4-2.1-6-5.5-7.2-9.5-0.3-1.1-0.5-2.3-0.6-3.5 0.7 0.4 1.4 0.9 2.1 1.3 3 1.9 6.4 3.1 10 3.3 1.2 0.1 2.4 0 3.5-0.2 4.7-0.9 9-4.3 10.1-8.9 0.6-2.2 0.4-4.7 0.1-7-0.3-1.6-0.6-3.2-1.2-4.7-0.1-0.3-0.4-0.7-0.6-1.1 6.2 2.6 10.6 8.8 10.6 15.9z"/>
						</g>
						<g id="&lt;Group&gt;">
							<path id="&lt;Path&gt;" class="s20" d="m63.4 193.8q-0.2 0.8 0.1 1.8 0.4 1.1-5 1.4-0.3-1.4 0.6-2.7 0.9-1.3 0.9-2.2z"/>
							<path id="&lt;Path&gt;" class="s14" d="m47.1 147c15.5 0 20.8 9 20.9 13.9 0.1 4.3-1 20.1-3.6 32.8-1.2 0.5-4.9-0.1-5.5-0.9q0.5-24.1 0.5-29.3c0-5.1-23.7 1.1-20.5-15.3z"/>
							<path id="&lt;Path&gt;" class="s14" d="m63.8 195.5c2.2 0.6 6.2 2.6 6.2 4.1-3.9 0.2-8 0-12.2 0q-0.8-1.7 0.3-3.6 3 1 5.7-0.5z"/>
						</g>
						<g id="&lt;Group&gt;">
							<path id="&lt;Path&gt;" class="s20" d="m71.8 198c0.2 0.7-1.9 1.1-3.5 1.3q-0.8 0.1-1.5 0.1-0.1-0.3 0-0.9c0-0.5 0.1-1.2 0.6-1.8q0.1-0.2 0.2-0.3 0.2-0.4 0.3-0.7 0.3-0.7 0.3-1.2l3.5 1.7q-0.3 0.8 0.1 1.8z"/>
							<path id="&lt;Path&gt;" class="s14" d="m72.7 196.1c-0.3 0.1-0.6 0.1-1 0.1-1.2 0.1-2.8-0.1-3.8-0.5q-0.2-0.1-0.4-0.2c-0.1-0.1-0.3-0.2-0.3-0.3q0.5-24.1 0.5-29.3c0-4.1-15.1-1-19.6-7.8-1.1-1.8-1.6-4.1-0.9-7.5l8-2.6c11.9 0.4 20.9 10.4 21.1 15.3 0.1 4.3-1 20.2-3.6 32.8z"/>
							<path id="&lt;Path&gt;" class="s14" d="m78.2 202c-3.9 0.2-7.9 0-12.1 0-0.5-1.1-0.4-2.3 0.3-3.6q0.2 0.1 0.4 0.1 0.6 0.2 1.2 0.3 2 0.2 3.8-0.8c0.1 0 0.2 0 0.2-0.1 0.8 0.2 1.8 0.6 2.8 1.1 1.8 0.8 3.4 2 3.4 3z"/>
						</g>
						<path id="&lt;Path&gt;" class="s10" d="m55.2 148q-2.6 1.1-5.9 2.1 0 0 0 0c-2 0.6-4.3 1.1-6.4 1.2-2.4 0.1-4.5-0.3-5.5-1.9-3.2-4.9 0.5-28.6 4.3-31.7 2.8-2.1 8.8-2 11.8 1q0.8 0.9 1.2 2.6c0.8 3.4 0.1 8.5-1.3 12.2q0 0.2-0.1 0.3-0.3 0.8-0.4 1.7c0 0.1-0.1 0.1-0.1 0.1q-0.7 5.2 2.4 12.4z"/>
						<g id="&lt;Group&gt;">
							<path id="&lt;Path&gt;" class="s20" d="m45.2 117.5c0.7-1.2 0.8-2.5 0.8-3.9h3.7c-0.1 1.4 0 2.8 0.4 4.3-0.3 0.6-4.6 0.4-4.9-0.4z"/>
						</g>
						<g id="&lt;Group&gt;">
							<path id="&lt;Path&gt;" class="s20" d="m45.5 104.7l8.6 0.9c0.2 2.9 0.4 8.3-2.6 10.4-1.3 0.8-4.2-0.7-6.3-1.7z"/>
						</g>
						<path id="&lt;Path&gt;" class="s24" d="m44.2 104.6c1.4-0.7 3.7-2.7 5.5-2 1.9 1 4.1-1 5.6 0.5 0.4 1.2 0.3 3-0.9 4.2-0.5 1.1-2.2 0.8-4.1 0.4l0.3 2.3-0.8 0.7c-0.2-0.6-0.5-1.1-0.9-1.4-0.6 0.2-1.1 0.5-1 1.1 0 0.7 1 1.5 1.8 2.2 0 1.6-1.4 3.3-3.2 2.9-2.9-0.6-1.7-1.6-2.5-2.5-2.8-3.1-2-6.9 0.2-8.4z"/>
						<path id="&lt;Path&gt;" class="s21" d="m48.1 158.1q6.1 4.2 21.9 3.8 0.1 7-0.7 16.7c-0.6 6.1-1.8 12.6-1.8 16.9-0.1-0.1-0.3-0.2-0.3-0.3q0.5-24.1 0.5-29.3c0-4.1-15.1-1-19.6-7.8z"/>
						<path id="&lt;Path&gt;" class="s21" d="m78.2 202c-3.9 0.2-7.9 0-12.1 0-0.5-1.1-0.4-2.3 0.3-3.6q0.2 0.1 0.4 0.1c0-0.5 0.1-1.2 0.6-1.8q0.1-0.2 0.2-0.3c0 1 0.1 1.8 0.4 2.4q0.1 0.3 0.3 0.5 0.4 0.5 1 0.7c1.7 0.5 3.7-0.4 5.5-1 1.8 0.8 3.4 2 3.4 3z"/>
						<path id="&lt;Path&gt;" class="s21" d="m55.2 148q-2.6 1.1-5.9 2.1 0 0 0 0c-2 0.6-4.3 1.1-6.4 1.2 5.1-1.8 5.1-3.6 2.2-8.9-2.7-5.3-1.1-9.4 2.5-15.5q2.2 4.8 5.2 8.7-0.7 5.2 2.4 12.4z"/>
						<g id="&lt;Group&gt;">
							<path id="&lt;Path&gt;" class="s10" d="m63.2 149.8v0.1c-1.3-0.5-15.6-7.8-17.3-10.3-2.7-3.5 2.6-15.3 3.6-16.3 2.2-2.2 6.2-2.9 5.8 2.2-0.1 0.2-1.7 8.8-3.8 12.1l13.1 9.9z"/>
							<path id="&lt;Path&gt;" class="s20" d="m64.6 147.5c1.4 0.4 2.9 1.4 3.4 1.9 0.7 1.4 1.6 2.5 1.4 4-0.5 0.3-1.7-0.3-3-0.9-0.7-1.2-1.9-1.9-3.2-2.6z"/>
						</g>
						<path id="&lt;Path&gt;" class="s24" d="m50.6 109.9c0.1 0.8 0.4 2.2 0.5 3 0.2 0.9 1.4 1.2 2.2 0.8 0.8-0.4-0.7 1.7-1.5 2.3-0.4 0.4-1.4 0.4-1-0.7 0.4-1-0.5-3.5-1-4.6z"/>
					</g>
					<path id="&lt;Compound Path&gt;" class="s21" d="m160.6 188.8h-6.7q-0.8-1.9-1.7-3.8 0-0.1-0.1-0.2-0.4-0.8-0.7-1.6c-2-4.6-3.9-8.9-5.5-12.6q-0.2-0.6-0.4-1.2-0.9-2.2-1.6-4-0.5-1.5-0.9-2.6-0.1-0.4-0.3-0.8-0.3-1.1-0.4-1.9-0.2-1-0.4-2.3 0 0.1-0.1 0.3c-0.4 1.7-0.8 3.2-0.9 4.5 0 0.1-0.1 0.2 0 0.2q-0.1 0.6-0.1 1.1 0 0.6 0 1.5 0 0.5 0 1.1 0.1 1.3 0.1 2.9v0.1q0.1 1 0.1 2.1c0.1 3.5 0.3 7.6 0.5 11.6q0.1 0.8 0.1 1.6c0 0.8 0 1.6 0.1 2.3 0 0.6 0 1.2 0 1.7h-6.3q-0.2 0.1-0.3 0-0.5-2-0.9-4-0.2-0.8-0.4-1.6c-0.9-4.2-1.7-8.2-2.4-11.6-0.1-0.8-0.3-1.5-0.4-2.2q-0.2-0.8-0.3-1.5 0 0 0 0-0.1-0.8-0.2-1.4-0.3-1.9-0.5-3.3v-0.1q0-0.1 0-0.3c-0.2-1-0.2-1.9-0.2-2.6q0-1 0.1-2.5 0.2-1.6 0.4-3.6c0.2-1.6 0.4-3.3 0.7-5.2 0.5-3.3 1.2-7.1 1.9-10.7q0.1-0.4 0.2-0.8-0.4-0.1-0.5-0.2c-0.5-2.7-0.8-6.8-0.8-11.4 0-2.5 0-5.1 0.1-7.7 0-1.8 0.1-3.8 0.2-5.6q0-0.3 0-0.6 0 0.1-0.1 0.1-0.5 0.5-1 0.9c-0.1 0-0.2 0.1-0.3 0.2-0.3 0.2-0.6 0.4-0.9 0.5q-0.2 0.1-0.3 0.1c-0.3 0.2-0.6 0.3-0.9 0.3q-0.1 0.1-0.3 0.1-0.5 0-1.1-0.1c-1.3-0.1-8.2-4.5-14.1-8.3-2.5-1.7-4.8-3.3-6.4-4.3-1.2-1-2.5-1.9-3-2.6q-0.3-0.6-0.4-1.2-0.2-0.3-0.1-0.7 0-0.6 0.3-1.1 0.2-0.3 0.5-0.6l-0.4-0.4 1.4-10.5q0.3 0.1 0.5 0.4l0.1 0.1h2.5c0.9 0 2 0.5 2.4 1.2l7.8 10.5c0.5 0.6 0.2 1.1-0.7 1.1h-9.6c0.1 0.4 0.2 0.9 0.2 1.2l15.9 6.9 3.4 1.4q0.3-0.7 0.6-1.4c1.1-3 2.3-6 3.5-8 0.4-0.8 0.9-1.4 1.4-1.9q0.3-0.1 0.6-0.2c2.1-1 4.9-1.6 7.7-2q0.3-0.9 0.3-1.9c-0.4 0-0.8-0.1-1.1-0.3-1.2-1.4-2.3-4.8-2.8-7.8q-0.2-0.5-0.2-0.9c-0.4-0.2-0.7-0.4-0.8-0.8-1.1-1.5-1.2-3.5-0.6-4.7 1.4 0.6 2.7 0.8 4.1 0.6 0.7 0 1.4-0.3 2.2-0.6 2-0.6 4.3 1.8 5.7 2.8 2.3 1.9 2.8 6.1-0.6 9.2-0.8 0.8 0 1.7-1.8 2.2 0.1 0.7 0.3 1.3 0.6 1.9 1.4 0 2.7 0.1 3.8 0.3 1.6 0.3 2.9 0.6 3.8 1.1q0.1 0 0.1 0.1c2.3 2.6 3.1 6.3 3.1 10.9 0.1 3.7-0.3 7.9-0.6 12.4-0.3 2.5-0.5 5.1-0.6 7.7-0.2 3.4-0.3 6.8-0.1 10.2q-0.1 0.1-0.3 0.2 0 1.1 0 2c-0.2 8.8-3.4 13.5-2.3 20.6q0.2 1.3 0.6 2.6 0 0.3 0.1 0.6c0.3 0.9 0.6 2 0.9 3.4q0.4 1.8 1 4 0.3 1.1 0.6 2.2 0.1 0.6 0.3 1.2c0.8 3.4 1.7 7 2.5 10.4 0.1 0.4 0.2 0.8 0.3 1.2q0 0.2 0.1 0.4 0.5 2.2 1 4z"/>
					<g id="&lt;Group&gt;">
						<g id="&lt;Group&gt;">
							<g id="&lt;Group&gt;">
								<path id="&lt;Path&gt;" class="s20" d="m166.5 194.2q-2.9 0.4-4.5 0.2c-0.6-0.1-1-0.2-0.9-0.5 0.1-1.1-0.2-1.8-0.2-1.9q-0.1 0-0.1 0l1.4-1.1 1.8-1.4q0.1 0.5 0.6 1.2 0.3 0.4 0.8 0.8c0.5 0.6 0.8 1.3 1 1.8q0.1 0.5 0.1 0.9z"/>
								<path id="&lt;Path&gt;" class="s4" d="m165 190.3q-0.1 0.2-0.4 0.4c-0.4 0.6-1.3 1-2.2 1.2-0.5 0.1-1 0.2-1.5 0.1q-0.2 0-0.4 0c-6.5-15-14.6-32.3-15.6-37.6q-0.2-1-0.3-2.4-0.1-0.4-0.2-0.9 0 0 0-0.1c-0.5-4.7-0.9-11.9-0.9-19 0.1-4.1 0.2-8.1 0.6-11.6q0.1-0.6 0.2-1.2l11.7-1.3c1.4 5 2 9.1 2.1 12.6 0.4 11.3-4.2 16-1.7 25.2q1.8 6.3 8.6 34.6z"/>
								<path id="&lt;Path&gt;" class="s14" d="m167.8 196.7c-4.3 0.9-8.4 1.9-12.5 2.6-0.2-1 1.3-2.6 3.1-3.9 0.8-0.7 1.7-1.3 2.4-1.6q0.1 0 0.3 0.1 0.5 0.1 1.1 0.2 2.2 0.3 4.2-0.8 0.1-0.1 0.3-0.2 1.5 1.8 1.1 3.6z"/>
							</g>
							<g id="&lt;Group&gt;">
								<path id="&lt;Path&gt;" class="s20" d="m145.6 197.9q-2.3-0.2-3.9-0.6c-0.8-0.2-1.5-0.5-1.3-0.9q0.4-1.1 0.1-1.8l1.7-0.9 1.9-1q0 0.5 0.4 1.4 0.2 0.4 0.5 0.9c0.5 0.7 0.6 1.4 0.7 1.9q0 0.6-0.1 1z"/>
								<path id="&lt;Path&gt;" class="s4" d="m144.5 152.4c-0.7 2.3-1.1 4.2-1.1 5.7q0.1 6.6 1.5 35.6-0.2 0.3-0.4 0.4c-0.5 0.4-1.3 0.7-2.1 0.7-0.7 0-1.3 0-1.9-0.2q-0.2-0.1-0.3-0.1c-3.4-16-7.9-34.6-7.8-40 0.1-4.2 1.4-13.8 3.4-22.9 0.8-4.2 1.9-8.3 3-11.7l5.3 0.5 7.6 0.7c-0.2 3.8-0.7 7.3-1.4 10.7-1.6 7.6-3.9 14.2-5.4 19.3q-0.2 0.5-0.3 0.9-0.1 0.2-0.1 0.4z"/>
								<path id="&lt;Path&gt;" class="s14" d="m146.4 200.5c-4.4 0.1-8.7 0.3-12.8 0.1 0-0.9 1.5-2 3.2-2.9 1.2-0.7 2.4-1.2 3.3-1.4q0.2 0.1 0.3 0.1 0.8 0.4 1.6 0.6c1.2 0.4 2.4 0.3 3.7-0.1q0.2 0 0.3-0.1c0.8 1.3 0.9 2.6 0.4 3.7z"/>
							</g>
							<path id="&lt;Path&gt;" class="s5" d="m135.1 99.3c0-1 0.1-1.9 0.2-3q0.1-3 0.3-6.2 0.3-0.1 0.6-0.2c6-2.7 16.4-3.1 20.4-0.9 6.7 7.3 0.7 25 1.9 41.3-2.1 2.1-21.7 2-23.2 1.2-1.3-6.7-0.8-21.1-0.2-32.2z"/>
							<g id="&lt;Group&gt;">
								<path id="&lt;Path&gt;" class="s20" d="m143.8 88.4c0.6-1.8 0.6-3.5 0.6-5.2h3.7c0.1 1.8 0.2 3.3 1 4.7-0.3 0.9-4.9 1.2-5.3 0.5z"/>
							</g>
							<g id="&lt;Group&gt;">
								<path id="&lt;Path&gt;" class="s20" d="m149.4 84.4c-2.4 1.1-4.8 2.2-6.2 1.2-1.7-1.8-3.2-7.7-3.3-11l9.5-0.6z"/>
							</g>
							<path id="&lt;Path&gt;" class="s24" d="m150.2 83.5c-1 0.9 0.3 2-3 2.4-2 0.3-3.4-1.8-3.2-3.5 1-0.7 2.2-1.4 2.2-2.2 0.1-0.6-0.4-1.1-1-1.3-0.5 0.3-0.8 0.8-1.2 1.4l-0.7-0.8 0.5-2.5c-2.1 0.3-4 0.4-4.5-0.8-1.1-1.5-1.1-3.5-0.5-4.7 2.1 0.9 4 0.9 6.2 0 2-0.6 4.4 1.8 5.8 2.7 2.3 1.9 2.8 6.1-0.6 9.3z"/>
							<path id="&lt;Path&gt;" class="s5" d="m109.4 95.6l1.5-2.5 19.2 8.3c1.8-4.6 3.6-9.5 5.5-11.3h0.1l7.5 3.1c-1.9 3.2-8.2 16.5-13.3 15-1.9 0-15.2-8.9-20.5-12.6z"/>
							<g id="&lt;Group&gt;">
								<g id="&lt;Group&gt;">
									<path id="&lt;Path&gt;" class="s7" d="m113.2 80.2l7.8 10.5c0.5 0.7 0.1 1.2-0.8 1.2h-10.2c-0.8 0-2-0.5-2.4-1.2l-7.8-10.5c-0.5-0.6-0.2-1.2 0.7-1.2h10.2c0.9 0 2 0.6 2.5 1.2z"/>
									<path id="&lt;Path&gt;" class="s13" d="m108.2 78.9l0.2 0.4c0.3 0.3 0.1 0.6-0.4 0.6h-3.5c-0.5 0-1.1-0.3-1.4-0.6l-0.2-0.4c-0.3-0.4-0.1-0.7 0.4-0.7h3.5c0.5 0 1.1 0.3 1.4 0.7z"/>
									<path id="&lt;Path&gt;" class="s13" d="m105.6 78q0.1 0.1 0.1 0.2c0.1 0.3-0.1 0.4-0.4 0.4-0.3 0-0.7-0.1-1-0.4q-0.1-0.1-0.2-0.2c-0.2-0.3-0.1-0.5 0.4-0.5 0.4 0 0.9 0.2 1.1 0.5z"/>
									<path id="&lt;Path&gt;" class="s4" d="m109.6 83.9h-5l-1.4-1.8h5z"/>
									<path id="&lt;Path&gt;" class="s4" d="m112.9 85.8h-6.9l-0.6-0.8h6.9z"/>
									<path id="&lt;Path&gt;" class="s4" d="m114.3 87.6h-7l-0.6-0.8h7z"/>
									<path id="&lt;Path&gt;" class="s4" d="m115.7 89.5h-7l-0.6-0.8h7z"/>
								</g>
								<path id="&lt;Path&gt;" class="s25" d="m110.9 84q0.3 0.5 0.7 1c0.2 0.3 0.5 0.5 0.7 0.8q0.6 0.5 1.3 1 0.1 0.1 0.2 0.2c1.3 0.9 2.9 1.8 4.5 2.3 0.7 0.3 1.4 0.5 2.2 0.7l0.5 0.7c0.5 0.7 0.1 1.2-0.8 1.2h-10.2c-0.8 0-2-0.5-2.4-1.2l-2.2-2.9c0-0.9 0.2-1.6 0.3-2.4q0-0.2-0.1-0.4 0-0.5-0.2-1.1-0.2-0.9-0.9-1.8c-0.1-0.2-0.2-0.5-0.4-0.7-0.6-0.8-1.6-1.6-2.5-2.4h1.4l-0.1-0.1c-0.3-0.4-0.1-0.7 0.4-0.7h1q-0.1-0.1-0.2-0.2c-0.2-0.3-0.1-0.5 0.4-0.5 0.4 0 0.9 0.2 1.1 0.5q0.1 0.1 0.1 0.2h1.1c0.5 0 1.1 0.3 1.4 0.7l0.1 0.1h2.4c0.9 0 2 0.6 2.5 1.2l0.9 1.2c-1.1 0.3-2.4 0.5-3.1 1.1-0.3 0.2-0.5 0.4-0.4 0.7 0 0.3 0.1 0.6 0.3 0.8z"/>
							</g>
							<g id="&lt;Group&gt;">
								<path id="&lt;Path&gt;" class="s20" d="m109.4 95.6c-1.3-0.9-2.5-1.8-3-2.5-0.9-1.6-0.7-2.8 0.2-3.6l1.5 1.7c1 0.2 0.3-1.1 1.7-1.1 0.6 1.1 1.1 2.1 1.1 3z"/>
							</g>
						</g>
						<path id="&lt;Path&gt;" class="s21" d="m137.3 99.3c-0.2 0.3-0.8 2.1-1.6 5.8-0.4 2.1-0.8 4.7-1.2 8 0.1-2.3 0.2-4.6 0.2-6.9-1.6 1.6-3.3 2.5-4.8 2-1 0-4.9-2.3-9.2-5.1 4.2 1.9 8.2 3.2 10 2.7 1.2-0.4 2.9-2.1 4.2-3.7 1.2-1.3 2.1-2.6 2.4-2.8z"/>
						<path id="&lt;Path&gt;" class="s21" d="m162.2 194.1q0 0.2-0.2 0.3c-0.6 0.8-1.8 1-3.6 1 0.8-0.7 1.7-1.3 2.4-1.6q0.1 0 0.3 0.1c0.1-1.1-0.2-1.8-0.2-1.9q-0.2 0-0.4 0c-6.5-15-14.6-32.3-15.6-37.6q-0.2-1-0.3-2.4-0.1 0.2-0.1 0.4-0.1-0.9-0.1-1.3 0 0 0-0.1 0.1-0.5 0.2-0.5 0.1 0.2 0.3 0.6c1.8 4.2 14.2 29.5 16.7 37.5 0.3 0.9 0.5 1.6 0.6 2.3q0.1 0.6 0.2 1c0.1 1 0.1 1.7-0.2 2.2z"/>
						<path id="&lt;Path&gt;" class="s21" d="m142.4 194.8c0 1-0.1 1.7-0.4 2.2q-0.1 0.2-0.3 0.3c-0.8 1-2.6 0.8-4.9 0.4 1.2-0.7 2.4-1.2 3.3-1.4q0.2 0.1 0.3 0.1 0.4-1.1 0.1-1.8-0.2-0.1-0.3-0.1c-3.4-16-7.9-34.6-7.8-40 0.1-4.2 1.4-13.8 3.4-22.9 0.9-0.3 4.7 0.3 5.5 0.4q0.1 0 0.1 0-3.8 18.4-5.7 24.8c-1.8 6.4 5 30.3 6.4 36.3q0 0.3 0.1 0.6 0.1 0.6 0.2 1.1z"/>
					</g>
					<g id="&lt;Group&gt;">
						<g id="&lt;Group&gt;">
							<path id="&lt;Path&gt;" class="s14" d="m76.9 46.6l-1.1 2.5-5 12.4-1-4.1-3.5 2.3 5-12.3 1.1-2.6z"/>
							<path id="&lt;Path&gt;" class="s14" d="m87.9 59.7l-3.6-2.3-1 4.1-5-12.4-1-2.5 4.5-1.8 1 2.6z"/>
							<path id="&lt;Path&gt;" class="s7" d="m87.2 39.1c0 3.4-1.7 6.5-4.4 8.3-1.3 0.9-2.8 1.5-4.5 1.7q-0.6 0.1-1.2 0.1-0.7 0-1.3-0.1c-1.6-0.2-3.2-0.8-4.5-1.7-1.9-1.3-3.3-3.2-3.9-5.4q-0.5-1.4-0.5-2.9c0-5.6 4.6-10.1 10.2-10.1 3.8 0 7.2 2.1 8.9 5.3 0.8 1.4 1.2 3 1.2 4.8z"/>
							<ellipse id="&lt;Path&gt;" class="s4" cx="77.1" cy="39.1" rx="6.8" ry="6.7"/>
							<path id="&lt;Path&gt;" class="s7" d="m77.6 35.6l0.7 2.1c0 0.2 0.1 0.3 0.3 0.3h2.2c0.3 0 0.4 0.4 0.2 0.6l-1.8 1.3c-0.1 0-0.2 0.2-0.1 0.3l0.7 2.1c0.1 0.3-0.3 0.6-0.5 0.4l-1.8-1.3c-0.2-0.1-0.3-0.1-0.4 0l-1.8 1.3c-0.3 0.2-0.6-0.1-0.5-0.4l0.7-2.1c0-0.1 0-0.3-0.1-0.3l-1.8-1.3c-0.3-0.2-0.2-0.6 0.2-0.6h2.2c0.1 0 0.2-0.1 0.3-0.3l0.7-2.1c0.1-0.3 0.5-0.3 0.6 0z"/>
						</g>
						<path id="&lt;Path&gt;" class="s26" d="m87.9 59.7l-3.6-2.3-1 4.1-5-12.4q-0.6 0.1-1.2 0.1-0.7 0-1.3-0.1l-5 12.4-1-4.1-3.5 2.3 5-12.3c-1.9-1.3-3.3-3.2-3.9-5.4q0 0 0 0.1c1.4 1.6 3.5 2.6 5.6 2.6q0.2 0 0.4 0c1.5 0 3.1-0.7 3.6-2.1 0.2-0.4 0.2-0.8 0.2-1.3 0-1.4-0.6-2.9-0.2-4.2 0.2-0.4 0.4-0.8 0.7-1.1 0.4-0.5 0.9-0.8 1.5-1.1 0.9-0.3 1.8-0.5 2.7-0.5q0.2-0.1 0.4-0.1c1.2-0.1 2.5 0 3.7 0 0.8 1.4 1.2 3 1.2 4.8 0 3.4-1.7 6.5-4.4 8.3z"/>
					</g>
				</g>
			</g>
		</g>
	</g>
</svg>